<?xml version="1.0" encoding="utf-8"?>
<!-- Generator: Adobe Illustrator 23.0.5, SVG Export Plug-In . SVG Version: 6.00 Build 0)  -->
<svg version="1.1" id="Capa_1" xmlns="http://www.w3.org/2000/svg" xmlns:xlink="http://www.w3.org/1999/xlink" x="0px" y="0px"
	 viewBox="0 0 595.28 841.89" style="enable-background:new 0 0 595.28 841.89;" xml:space="preserve">
<style type="text/css">
	.st0{fill:#FED600;}
	.st1{fill:#FEFEFE;}
	.st2{fill:#FEEFA0;}
	.st3{fill:#FEF9EC;}
	.st4{fill:#46460C;}
	.st5{fill:#FEFDFC;}
	.st6{fill:#FEFDFD;}
	.st7{fill:#FEFEFD;}
	.st8{fill:#FED705;}
	.st9{fill:#FEFDFB;}
	.st10{fill:#FEFDFA;}
	.st11{fill:#FEDA1D;}
	.st12{fill:#FEFBFE;}
	.st13{fill:#FEFDF8;}
	.st14{fill:#FEFDF9;}
	.st15{fill:#F6F3F4;}
	.st16{fill:#010101;}
	.st17{fill:#FEF9F1;}
	.st18{fill:#FEF8E7;}
	.st19{fill:#F6F4E9;}
	.st20{fill:#1E1E03;}
	.st21{fill:#1A1A02;}
	.st22{fill:#FEFEF8;}
	.st23{fill:#908E67;}
	.st24{fill:#FEFEF7;}
	.st25{fill:#F1F0E5;}
	.st26{fill:#FEFEFB;}
	.st27{fill:#D9BA78;}
	.st28{fill:#667A18;}
	.st29{fill:#3B3B01;}
	.st30{fill:#E0C07D;}
	.st31{fill:#3E3E03;}
	.st32{fill:#3D3D01;}
	.st33{fill:#3C3C02;}
	.st34{fill:#F9F5E9;}
	.st35{fill:#FCFCF2;}
	.st36{fill:#FEFEF1;}
	.st37{fill:#FEFEFC;}
	.st38{fill:#FED602;}
	.st39{fill:#FED601;}
	.st40{fill:#FED603;}
	.st41{fill:#FEDB26;}
	.st42{fill:#FED920;}
	.st43{fill:#677B19;}
	.st44{fill:#D3B575;}
	.st45{fill:#2E2719;}
	.st46{fill:#362E1E;}
	.st47{fill:#4F432B;}
	.st48{fill:#403723;}
	.st49{fill:#17140D;}
	.st50{fill:#413824;}
	.st51{fill:#262115;}
	.st52{fill:#15120B;}
	.st53{fill:#1E1910;}
	.st54{fill:#2A2417;}
	.st55{fill:#0A0905;}
	.st56{fill:#211D12;}
	.st57{fill:#423824;}
	.st58{fill:#1C170F;}
	.st59{fill:#DDBE7A;}
	.st60{fill:#DDBE7B;}
	.st61{fill:#252014;}
	.st62{fill:#73623F;}
	.st63{fill:#292316;}
	.st64{fill:#231E13;}
	.st65{fill:#241F13;}
	.st66{fill:#2B2518;}
	.st67{fill:#E2C17D;}
	.st68{fill:#E3C27D;}
	.st69{fill:#0A0805;}
	.st70{fill:#473D27;}
	.st71{fill:#5C4F33;}
	.st72{fill:#17130C;}
	.st73{fill:#E8C781;}
	.st74{fill:#54482E;}
	.st75{fill:#958052;}
	.st76{fill:#050403;}
	.st77{fill:#E4C37E;}
	.st78{fill:#E5C57F;}
	.st79{fill:#010000;}
	.st80{fill:#E9C781;}
	.st81{fill:#9A8455;}
	.st82{fill:#A38C5B;}
	.st83{fill:#272115;}
	.st84{fill:#030302;}
	.st85{fill:#13100A;}
	.st86{fill:#C6AA6E;}
	.st87{fill:#1A160E;}
	.st88{fill:#E7C680;}
	.st89{fill:#DDBD7A;}
	.st90{fill:#E3C37E;}
	.st91{fill:#655638;}
	.st92{fill:#70603E;}
	.st93{fill:#5F5235;}
	.st94{fill:#9D8757;}
	.st95{fill:#45460B;}
	.st96{fill:#DABC79;}
</style>
<g>
	<g>
		<path class="st0" d="M174,218.64c82.75,0,165.5,0,248.25,0c12.54,2.44,18.45,9.67,18.45,22.67
			c0.01,120.12-0.02,240.24,0.07,360.37c0.01,6.79-1.82,12.52-6.59,17.3c-3.13,3.13-6.8,5.04-11.33,5.03c-82.86,0-165.72,0-248.57,0
			c-10.79-0.07-17.75-11.33-18.63-20.25c-0.17-1.74-0.09-3.5-0.09-5.25c0-27.87-0.45-55.74,0.09-83.6
			c1.36-71.09,0.5-142.18,0.5-213.27c0-19.22-0.53-38.46-0.58-57.69c-0.01-2.25-0.05-4.5,0.47-6.71
			C158.29,227.43,163.42,220.4,174,218.64z"/>
		<path class="st1" d="M423.05,623.74c10.64-2.85,16.68-10.49,16.73-21.52c0.08-16.75,0.02-33.5,0.02-50.24
			c0-103.24-0.03-206.48,0.05-309.72c0.01-10-3.73-17.4-12.84-21.8c-1.53-0.74-3.17-1.22-4.77-1.81c10.13,0,20.25,0.05,30.37-0.05
			c1.61-0.02,2.21,0.31,1.89,1.93c-0.1,0.48-0.01,1-0.01,1.5c0,133-0.01,266,0.07,399c0,2.81-0.62,3.51-3.45,3.45
			c-9.37-0.2-18.75-0.08-28.12-0.08c-0.26-0.17-0.33-0.32-0.23-0.46C422.86,623.8,422.96,623.74,423.05,623.74z"/>
		<path class="st1" d="M174,218.64c-0.92,1.19-2.43,1.08-3.64,1.64c-9.07,4.14-13.39,11.65-13.65,21.13
			c-0.42,15.24-0.66,30.52,0,45.74c1.32,30.23,0.4,60.45,0.59,90.67c0.23,37.62,0.73,75.25-0.14,112.85
			c-0.84,36.6-0.37,73.19-0.66,109.78c-0.09,11.48,6.51,20.13,17.45,23.29c0.28,0.13,0.38,0.26,0.3,0.42
			c-0.08,0.16-0.16,0.24-0.25,0.24c-10.5,0-21,0-31.5,0c0-134.13,0.01-268.25-0.07-402.37c0-2.81,0.62-3.51,3.45-3.45
			C155.25,218.77,164.62,218.64,174,218.64z"/>
		<path class="st2" d="M174,624.39c0.01-0.22,0-0.44-0.05-0.66c1.75-0.03,3.49-0.09,5.24-0.09c79.79,0,159.58,0,239.37,0
			c1.5,0,2.99,0.06,4.49,0.09c-0.04,0.22-0.05,0.43-0.05,0.65C340,624.39,257,624.39,174,624.39z"/>
		<path class="st3" d="M426.57,300.27c0.8-0.37,1.53-0.35,1.65,0.69c0.11,0.99,0.03,2,0.03,3c0,61.87-0.02,123.74,0.07,185.61
			c0,3.28-0.63,4.39-4.21,4.38c-32-0.16-63.99-0.09-95.99-0.1c-1.24,0-2.48-0.16-3.72-0.25c2.36-2.88,3.09-6.67,5.3-9.63
			c0.52,0.11,0.57,0.53,0.63,0.95c0.36-0.32-0.03-0.63-0.12-0.83c-0.35-0.78-0.92-1.45-1.06-2.34c-0.81-5.14,0.33-10.16,0.84-15.23
			c0.5-1.58,0.45-3.2,0.45-4.82c0-24.3,0-48.61,0-72.91c0-1.62,0.05-3.24-0.47-4.81c-0.76-6.5-1.5-13.01-1.01-19.58
			c0.03-0.58,0.08-1.17,0.22-1.73c0.24-0.93,0.62-1.81,1.01-2.69c0.3-0.67,0.1-0.69-0.35-0.18c-0.09,0.1-0.32,0.01-0.36,0.01
			c-0.32-0.17-0.56-0.4-0.75-0.7c-1.08-6.51-5.19-10.74-10.38-14.35c-6.03-4.2-7.79-10.27-6.78-17.32c1.46-1.53,1.91-3.37,1.67-5.43
			c-0.01-0.58-0.01-1.15-0.02-1.73c-0.04-1.4-0.05-2.8-0.04-4.2c-0.07-2.84,0.36-5.69-0.34-8.5c-0.31-1.66-1.35-3.15-1.11-4.94
			c0.21-0.43,0.52-0.77,0.91-1.05c1.43-0.68,2.95-0.43,4.43-0.43c34.97-0.02,69.94-0.02,104.91,0c1.59,0,3.27-0.37,4.72,0.69
			c0.76,1.28,0.39,2.69,0.39,4.03c0.02,60.74,0.02,121.47,0.02,182.21c0,4.66-0.01,4.66-4.61,4.67c-30.17,0-60.35,0-90.52,0
			c-0.5,0.03,0.26,0.74,0,0.31c-0.09-0.15,0-0.25,0.28-0.25c14.86-0.08,29.73-0.02,44.59-0.03c15.12-0.01,30.24,0.01,45.36-0.01
			c5.55,0,4.92,0.48,4.92-5.1c0.01-61.36,0-122.72,0.01-184.07c0.03-0.41-0.01-0.83-0.11-1.23
			C426.22,301.82,426.77,300.96,426.57,300.27z"/>
		<path class="st3" d="M312,302.64c0,0.24,0,0.48,0,0.73c-2.87,1.29-5.85,0.22-8.77,0.38c-3.33,0.19-6.68,0.07-10.02,0.03
			c-1.77-0.05-3.54-0.35-5.29,0.21c-1.97,0.54-2.75,2.04-3.14,3.87c-0.36,3.52-0.55,7.02,0.2,10.51c0.55,2.91-0.1,6.01,1.41,8.78
			c0.33,7.49-1.25,14.1-8.11,18.49c-6.12,3.91-9.29,9.53-9.56,16.85c-0.13,3.36-0.7,6.69-1.1,10.04c-0.37,1.22-0.3,2.47-0.3,3.72
			c-0.01,17.95,0,35.9-0.01,53.84c0,1.5,0.06,2.99,0.52,4.43c0.21,6.73,1.1,13.43,1.09,20.18c-0.01,11.61,0.18,23.21,2.08,34.71
			c0.14,0.87,0.25,1.74-0.28,2.54c-1.1,1.19-2.56,0.81-3.89,0.81c-31.49,0.02-62.98,0.01-94.47,0.01c-3.97,0-3.99-0.01-3.98-4.15
			c0.06-51.6-0.14-103.2,0.11-154.81c0-0.24-0.09-0.36-0.43-0.37c0.62,1.2,0.28,2.49,0.28,3.72c0.02,50.36,0.02,100.71,0.02,151.07
			c0,5.15-0.43,4.55,4.68,4.55c30.99,0.01,61.98,0.01,92.97,0c1.49,0,3,0.22,4.46-0.31c1.28-0.45,2.35-0.47,2.53,1.28
			c-12.5,0.04-24.99,0.11-37.49,0.12c-21.5,0.02-43-0.04-64.5,0.06c-2.76,0.01-3.84-0.44-3.83-3.6
			c0.1-62.37,0.07-124.74,0.15-187.11c0-0.97-1.5-3.44,1.63-2.95c2.76,1.22,5.67,0.16,8.48,0.54c1.39,0.19,2.91-0.57,4.18,0.56
			c-0.43,1.97-2.38,2.39-3.67,3.4c-6.99,5.48-9.62,12.72-7.81,21.15c1.77,8.21,7.27,13.36,15.49,15.45
			c1.05,0.27,2.29,0.18,2.79,1.48c-0.17,0.55-0.54,0.72-1.08,0.56c0.02,0.75,0.42,0.12,0.54,0.1c0.93-0.16,1.84-0.59,2.82-0.22
			c0.44,0.16,0.88,0.3,1.35,0.31c-0.24-0.34-0.87-0.05-0.99-0.6c0.43-1.56,1.86-1.48,3-1.72c8.36-1.81,13.33-7.07,15.59-15.14
			c0.26-0.94,0.34-1.97,1.26-2.58c0.28-0.12,0.45-0.06,0.55,0.17c0.02,0.05,0.14,0.06,0.21,0.09c-0.16-1.59-0.64-3.19,0.17-4.78
			c0.07-0.13-0.46,0.58-0.89,0.27c-0.96-0.61-1.08-1.64-1.3-2.6c-0.96-4.15-3.17-7.55-6.17-10.51c-1.09-1.07-2.84-1.97-1.63-4.02
			c1.18-1.31,2.77-0.98,4.22-0.98c26.47,0.07,52.95-0.11,79.42,0.07c7.61,0.05,15.23-0.06,22.85-0.04
			C309.64,301.19,311.5,300.4,312,302.64z"/>
		<path class="st4" d="M273,493.73c-0.51-0.38-1.02-0.76-1.54-1.14c-0.65,0.02-0.95-0.27-0.83-0.94c-1.57-3.88-1.97-7.98-2.13-12.1
			c-0.56-14.97-1.06-29.95-1.59-44.93c-0.58-5.92-0.17-11.86-0.23-17.79c0.55-10.84,0.48-21.68,0.03-32.52
			c-0.02-4.22-0.37-8.45,0.2-12.67c0.52-4.69,0.5-9.42,1.44-14.07c0.93-4.6,2.88-8.74,6.94-11.02c7.65-4.3,10.37-10.95,10.49-19.19
			c1.08-1.13,2.49-1.12,3.84-0.95c6.34,0.8,12.69,0.76,19.04,0.13c1.25-0.12,2.52-0.17,3.43,0.96c-0.4,7.63,1.91,13.85,8.79,18.01
			c5.24,3.16,8.05,7.96,8.49,14.11c0.01,0.16,0.02,0.32,0.03,0.47c0.21,0.97-0.56,1.91-0.04,2.88c0.27,0.06,0.44,0.22,0.53,0.47
			c0.3,6.73,0.61,13.47,0.91,20.2c0.65,4.41,0.18,8.84,0.26,13.26c-0.56,7.35-0.48,14.7-0.04,22.06c0.14,3.45,0.14,6.91,0,10.36
			c-0.47,9.05-0.46,18.09,0,27.14c0.01,3.47,0.4,6.95-0.21,10.41c-0.27,5.26-0.54,10.51-0.81,15.77c0.38,0.47,0.47,0.91-0.11,1.3
			c-1.12,3.63-1.58,7.63-5.5,9.65c-7.51,3.13-15.51,1.8-23.28,2.29c-6.93,0.44-13.94-0.28-20.91-0.39
			C277.64,495.45,275.35,494.53,273,493.73z"/>
		<path d="M188.53,343c-9.63-1.61-16.58-6.49-19.3-16.24c-2.76-9.9,3.45-22.51,12.23-25.14c1.19-0.97,2.5-1.6,4.1-1.29
			c3.01-0.35,6.02-0.22,9.04,0.03c1.1-0.09,2.11,0.46,3.19,0.46c1.57,0.49,3.26,0.79,3.94,2.62c5.34,4.04,8.47,9.42,9.63,15.98
			c0.78,1.32,0.77,2.64,0,3.96c-2.14,11.37-9,17.85-20.37,19.64C190.17,343.76,189.35,343.78,188.53,343z"/>
		<path class="st5" d="M234.87,543.96c-0.14,6.99-5.02,11.62-12.03,11.43c-6.45-0.18-11.3-5.24-11.16-11.65
			c0.15-6.83,5.37-11.78,12.14-11.53C230.35,532.45,235,537.39,234.87,543.96z"/>
		<path class="st5" d="M408.12,543.96c-0.14,6.99-5.02,11.62-12.03,11.43c-6.45-0.18-11.3-5.24-11.16-11.65
			c0.15-6.83,5.37-11.78,12.14-11.53C403.6,532.45,408.25,537.39,408.12,543.96z"/>
		<path class="st6" d="M316.29,545.55c-4.96,4.18-4.96,4.18-10.31,0.27c0,2.09-0.14,3.91,0.03,5.7c0.22,2.3-0.35,3.39-2.95,3.46
			c-2.74,0.08-3.04-1.27-3.01-3.43c0.07-5.36,0.01-10.72,0.02-16.09c0-0.97-0.25-2.16,0.95-2.58c1.1-0.39,1.88,0.46,2.56,1.18
			c1.96,2.09,3.96,4.16,5.79,6.36c1.33,1.6,2.32,1.4,3.57-0.05c1.96-2.26,4.01-4.44,6.06-6.62c0.61-0.65,1.35-1.21,2.3-0.77
			c0.82,0.39,0.71,1.24,0.71,1.96c0.02,5.98,0.01,11.96,0.02,17.94c0.01,2.29-1.57,2.07-3.11,2.11c-1.55,0.04-2.73-0.09-2.66-2.11
			C316.36,550.67,316.29,548.46,316.29,545.55z"/>
		<path class="st7" d="M244.46,545.18c0,2.45-0.1,4.9,0.03,7.34c0.1,1.99-0.75,2.74-2.62,2.65c-1.62-0.08-3.37,0.18-3.36-2.34
			c0.04-5.99-0.03-11.99,0.01-17.98c0.02-2.79,1.59-2.54,3.12-1.23c2.08,1.79,3.93,3.82,5.9,5.74c1.2,1.17,2.44,2.3,4.39,4.13
			c0-3.48,0.09-5.93-0.02-8.36c-0.11-2.47,1.41-2.46,3.18-2.44c1.68,0.02,2.92,0.2,2.88,2.39c-0.1,5.74-0.05,11.49-0.06,17.23
			c0,0.98,0.23,2.22-0.91,2.63c-1,0.36-1.92-0.34-2.62-1.1c-2.87-3.12-5.72-6.26-8.58-9.38
			C245.35,544.69,244.9,544.93,244.46,545.18z"/>
		<path class="st6" d="M351.01,544.04c0,3.68-0.08,6.25,0.02,8.8c0.09,2.25-1.31,2.32-2.92,2.31c-1.6-0.01-3.04-0.11-3.04-2.3
			c0.02-5.99-0.04-11.99,0-17.98c0.02-2.7,1.53-2.65,3.11-1.3c2.08,1.78,3.94,3.82,5.91,5.73c1.21,1.17,2.45,2.31,4.4,4.14
			c0-3.31,0.12-5.62-0.03-7.92c-0.16-2.44,1.01-2.93,3.16-2.89c1.99,0.04,2.96,0.52,2.91,2.76c-0.13,5.49-0.04,10.99-0.08,16.48
			c-0.01,1.07,0.46,2.52-0.86,3c-1.34,0.49-2.25-0.7-3.14-1.57C357.57,550.48,354.68,547.64,351.01,544.04z"/>
		<path class="st5" d="M262.58,543.51c0-2.62,0.12-5.25-0.04-7.86c-0.14-2.34,0.79-3.16,3.05-2.97c1.74,0.14,3.49,0.04,5.24,0.06
			c6.69,0.08,11.08,4.34,11.21,10.86c0.14,6.55-4.04,11.27-10.73,11.4c-10.36,0.19-8.51,1.5-8.72-8.12
			C262.57,545.76,262.59,544.64,262.58,543.51z"/>
		<path class="st8" d="M438.64,239.14c0,121.58,0,243.16,0,364.74c-0.12,0-0.25,0-0.37,0c0-121.63,0-243.25,0-364.88
			C438.4,239.05,438.52,239.09,438.64,239.14z"/>
		<path class="st5" d="M187.34,543.82c0.12-5.65,2.82-9.42,7.87-10.99c4.62-1.44,9.91,0.07,12.47,3.66
			c0.82,1.16,2.25,2.72,0.96,3.91c-1.27,1.18-3.33,0.92-4.85-0.21c-0.98-0.73-1.61-1.89-2.91-2.26c-2.83-0.8-5.22-0.34-6.78,2.38
			c-1.52,2.65-0.94,6.97,1.35,8.56c2.49,1.73,5.1,1.94,7.41-0.5c0.43-0.45,0.78-1.04,1.29-1.32c1.5-0.83,3.33-1.09,4.57,0
			c1.29,1.13-0.01,2.56-0.66,3.67c-2.25,3.84-7.68,5.62-12.58,4.25C190.28,553.5,187.22,549.32,187.34,543.82z"/>
		<path class="st5" d="M326.86,543.7c0-2.75,0.05-5.5-0.02-8.25c-0.05-1.79,0.43-2.82,2.5-2.76c3.12,0.1,6.25,0.08,9.37-0.01
			c2.04-0.06,2.03,1.18,2.16,2.66c0.14,1.6-0.36,2.4-1.98,2.43c-0.87,0.02-1.75-0.01-2.62,0.07c-1.37,0.13-3.57-0.73-3.61,1.46
			c-0.04,2.52,2.35,1.45,3.79,1.68c0.49,0.08,1,0.04,1.5,0.01c1.86-0.11,2.36,0.93,2.32,2.57c-0.04,1.69-0.72,2.57-2.52,2.43
			c-0.99-0.08-2-0.06-3-0.04c-1.31,0.03-2.17,0.63-2.13,2.04c0.04,1.33,0.72,2.05,2.14,1.99c1.37-0.05,2.75,0.01,4.12,0
			c1.81-0.02,2.32,0.96,2.31,2.63c-0.01,1.74-0.76,2.55-2.46,2.54c-3.25-0.03-6.5-0.07-9.75-0.08c-1.61-0.01-2.14-0.81-2.1-2.37
			c0.08-3,0.02-6,0.02-9C326.9,543.7,326.88,543.7,326.86,543.7z"/>
		<path class="st5" d="M351.21,264.26c-0.18,6.1-4.55,10.12-10.71,9.85c-5.48-0.24-9.78-4.92-9.55-10.39
			c0.24-5.84,4.67-10.01,10.47-9.86C347.36,254.02,351.39,258.3,351.21,264.26z"/>
		<path class="st9" d="M288.01,263.74c0-2.12,0.17-4.25-0.04-6.34c-0.28-2.76,0.94-3.55,3.45-3.3c1.48,0.15,2.99,0.02,4.48,0.12
			c5.29,0.33,8.93,4.08,9.19,9.44c0.26,5.2-3.25,9.33-8.52,10.02c-8.58,1.12-8.58,1.12-8.55-7.32c0-0.87,0-1.74,0-2.61
			C288.02,263.74,288.02,263.74,288.01,263.74z"/>
		<path class="st9" d="M207.74,253.94c3.38-0.08,6.04,1.29,7.94,4.06c0.55,0.8,1.32,1.77,0.77,2.73c-0.69,1.19-2.02,0.51-3.08,0.59
			c-0.99,0.07-1.5-0.69-2.15-1.29c-2.27-2.08-4.71-2.24-6.97-0.09c-2.16,2.05-2.1,6.18,0.13,8.11c2.29,1.98,4.7,2.1,6.94-0.22
			c0.34-0.36,0.63-0.86,1.05-1.04c1.29-0.56,2.88-0.87,3.9,0.04c1.18,1.05-0.03,2.32-0.63,3.3c-2.22,3.61-7.65,5.02-12,3.22
			c-4.67-1.94-6.8-6.23-5.78-11.6C198.78,256.87,202.52,253.92,207.74,253.94z"/>
		<path class="st10" d="M226.27,273.9c-7.15-0.15-6.34,0.84-6.37-6.46c-0.02-3.12-0.01-6.24-0.02-9.37c0-0.62-0.05-1.26,0.02-1.87
			c0.34-2.98,2.86-2.26,4.35-2c2.68,0.46,6.16-1.98,7.95,1.72c0.64,1.33,0.08,2.76-1.93,2.7c-0.87-0.02-1.75-0.04-2.62,0.02
			c-1.07,0.07-2.54-0.23-2.56,1.4c-0.02,1.71,1.47,1.28,2.52,1.36c1.11,0.09,2.29-0.02,3.3,0.34c0.92,0.33,0.78,1.45,0.74,2.32
			c-0.04,0.97-0.4,1.73-1.5,1.78c-1.12,0.06-2.25,0.04-3.37,0.05c-1,0.01-1.68,0.39-1.74,1.5c-0.06,1.2,0.46,1.92,1.7,1.96
			c1.12,0.04,2.25,0.03,3.37,0.03c1.41,0,2.38,0.34,2.38,2.09c0,1.79-0.78,2.49-2.49,2.43C228.77,273.86,227.52,273.9,226.27,273.9z
			"/>
		<path class="st10" d="M308.33,263.78c0-1.5,0.01-2.99,0-4.49c-0.04-5.23-0.04-5.23,5.36-5.22c1.5,0.01,2.99,0.07,4.49,0.03
			c1.73-0.04,2.38,0.78,2.47,2.48c0.1,1.86-0.99,1.86-2.33,2.08c-1.64,0.26-4.54-1.16-4.62,1.4c-0.08,2.42,2.73,1.11,4.25,1.29
			c1.6,0.18,2.19,0.85,2.18,2.36c-0.01,1.58-0.74,2.27-2.3,2.18c-0.74-0.05-1.5,0-2.24,0c-1.07,0-2.02,0.13-2.08,1.52
			c-0.07,1.48,0.72,1.98,2.07,1.95c1.12-0.02,2.24,0.01,3.36,0.03c1.34,0.03,2.04,0.63,2.01,2.07c-0.03,1.26-0.3,2.35-1.74,2.37
			c-3.11,0.05-6.23,0.03-9.34-0.09c-1.56-0.06-1.51-1.34-1.51-2.5c0.01-2.49,0-4.99,0-7.48
			C308.34,263.78,308.33,263.78,308.33,263.78z"/>
		<path class="st5" d="M186.54,271.32c-1.88-0.13-3.64-0.25-4.98,1.65c-0.97,1.39-2.97,1.3-4.12,0.63
			c-1.78-1.03-0.02-2.42,0.44-3.49c1.97-4.56,4.09-9.06,6.19-13.56c0.51-1.09,0.86-2.55,2.43-2.44c1.29,0.09,1.67,1.34,2.13,2.36
			c2.13,4.63,4.29,9.24,6.36,13.89c0.45,1.01,1.84,2.31,0.23,3.2c-1.26,0.7-3.13,0.8-4.1-0.61
			C189.91,271.15,188.29,271.21,186.54,271.32z"/>
		<path class="st5" d="M418.54,272.23c0.05,0.67-0.01,1.15-0.57,1.39c-1.23,0.53-2.66,0.58-3.59-0.22
			c-3.66-3.15-7.08-3.31-10.71,0.08c-0.89,0.84-2.53,0.67-3.55-0.04c-1.3-0.91-0.14-2,0.28-2.95c2.17-4.77,4.37-9.51,6.57-14.27
			c0.47-1.01,0.81-2.29,2.2-2.21c1.34,0.07,1.63,1.37,2.09,2.38c2.24,4.87,4.48,9.74,6.71,14.61
			C418.19,271.45,418.39,271.9,418.54,272.23z"/>
		<path class="st9" d="M264.5,263.97c0-0.5-0.06-1,0.01-1.49c0.37-2.65-1.49-6.26,0.78-7.77c2.57-1.71,6.3-0.48,9.52-0.53
			c1.73-0.03,1.87,1.17,1.91,2.54c0.04,1.56-0.81,1.91-2.1,1.91c-1.24,0-2.49-0.02-3.73,0.07c-0.78,0.06-1.47,0.48-1.43,1.4
			c0.04,0.87,0.66,1.28,1.5,1.3c0.87,0.03,1.75,0.09,2.61,0.02c1.7-0.13,2.51,0.47,2.51,2.31c0,1.95-1.06,2.27-2.64,2.18
			c-0.74-0.05-1.49,0.01-2.24,0.01c-1.26,0-1.81,0.69-1.74,1.88c0.06,1.02,0.67,1.56,1.7,1.58c1.24,0.02,2.49,0.03,3.73,0.04
			c1.38,0.01,1.99,0.64,1.98,2.07c-0.01,1.48-0.44,2.42-2.08,2.41c-2.74-0.02-5.48-0.06-8.22-0.07c-1.62,0-2.13-0.87-2.09-2.38
			C264.55,268.95,264.5,266.46,264.5,263.97z"/>
		<path class="st5" d="M376.06,532.61c1.74,0,3.49,0.02,5.23-0.01c1.6-0.03,2.94,0,2.94,2.27c-0.01,1.99-0.42,3.08-2.69,2.84
			c-2.31-0.24-2.93,1.04-2.84,3.21c0.15,3.73-0.06,7.48,0.09,11.21c0.08,2.17-0.78,2.78-2.83,2.79c-2,0.01-3.06-0.49-3.01-2.68
			c0.09-3.74-0.01-7.48,0.1-11.21c0.07-2.28-0.61-3.65-3.14-3.39c-2.09,0.21-2.47-0.92-2.45-2.72c0.01-1.92,1.03-2.29,2.62-2.25
			c1.99,0.05,3.99,0.01,5.98,0.01C376.06,532.66,376.06,532.64,376.06,532.61z"/>
		<path class="st6" d="M290.47,555.06c-0.62,0-1.28,0.12-1.86-0.03c-1.29-0.34-3.27,0.88-3.72-1.37c-0.32-1.62-0.32-3.24,1.86-3.83
			c0.75-0.2,1.06-1.16,0.91-1.88c-0.77-3.71,1.8-8.01-2.4-11.21c-1.59-1.21-0.01-3.9,2.21-4.01c1.99-0.09,3.98-0.13,5.97-0.03
			c2.32,0.11,3.81,2.86,2.08,4.01c-3.5,2.33-1.98,5.5-2.21,8.33c-0.17,2.04-0.82,4.5,2.26,5.55c1.11,0.38,0.63,2.02,0.53,3.09
			c-0.13,1.33-1.29,1.33-2.28,1.37C292.71,555.1,291.59,555.06,290.47,555.06z"/>
		<path class="st11" d="M181,613.99c77.83,0,155.67,0,233.5,0c0,0.13,0,0.25,0,0.38c-77.89,0-155.77,0-233.66,0
			C180.9,614.24,180.95,614.12,181,613.99z"/>
		<path class="st12" d="M197.65,301.26c-1.04-0.24-2.25,0.13-3.06-0.89c1.94-0.78,3.96-0.21,5.92-0.21
			c74.1-0.04,148.21-0.03,222.31-0.03c1.25,0,2.49,0.1,3.74,0.15c0.38,0.23,0.84,0.44,0.18,0.88c-1.3,0.68-2.7,0.34-4.05,0.34
			c-43.59,0.02-87.17,0.02-130.76,0.02c-28.59,0-57.18,0.02-85.78-0.02C203.33,301.48,200.46,302.37,197.65,301.26z"/>
		<path class="st10" d="M389.48,265.5c1.44-3.49,2.68-6.32,3.77-9.19c0.62-1.63,1.63-2.32,3.38-2.25c1.77,0.07,2.62,0.48,1.73,2.45
			c-2.36,5.2-4.63,10.45-6.95,15.67c-0.4,0.9-0.82,1.93-2.07,1.82c-1.17-0.11-1.54-1.14-1.94-2.05c-2.12-4.77-4.29-9.52-6.31-14.33
			c-0.43-1.03-2.06-2.6,0.14-3.36c1.51-0.53,3.33-0.35,4.15,1.51C386.73,258.77,387.96,261.85,389.48,265.5z"/>
		<path class="st13" d="M373.78,273.83c-0.87,0-1.75,0.06-2.62-0.01c-2.23-0.19-3.17-2.1-1.93-3.85c2.84-4.02,2.86-7.66,0.07-11.93
			c-1.17-1.78-0.22-3.74,1.96-3.9c1.61-0.12,3.24-0.06,4.86-0.07c1.03,0,2.1,0.08,2.37,1.32c0.21,0.97,0.17,1.94-0.52,2.83
			c-2.43,3.14-2.4,8.6,0.13,11.47c0.9,1.02,0.73,2.11,0.49,3.14c-0.24,1.03-1.31,0.97-2.19,0.99
			C375.53,273.85,374.66,273.84,373.78,273.83z"/>
		<path class="st13" d="M239.78,273.84c-1.26-0.5-3.4,1.02-4.34-1.24c-0.29-0.69-0.15-1.84,0.25-2.5c2.91-4.79,2.85-6.83,0.05-12.29
			c-0.79-1.53-0.96-3.59,1.88-3.69c1.12-0.04,2.25-0.11,3.37-0.04c1.41,0.09,3.25-0.67,3.96,1.18c0.59,1.52-0.1,2.7-1.56,3.73
			c-1.13,0.79-0.96,9.31,0.16,9.99c1.59,0.96,2.13,2.2,1.58,3.7c-0.7,1.91-2.57,0.91-3.94,1.15
			C240.81,273.9,240.43,273.84,239.78,273.84z"/>
		<path class="st14" d="M252.02,266.08c0-1.5-0.08-3,0.02-4.49c0.12-1.96-0.44-3.19-2.66-3.02c-1.53,0.12-2.3-0.43-2.24-2.13
			c0.07-1.75,0.79-2.41,2.54-2.37c3.24,0.07,6.49,0,9.73-0.04c1.43-0.02,2.39,0.31,2.41,2.05c0.02,1.63-0.32,2.67-2.24,2.51
			c-2.33-0.19-2.56,1.31-2.52,3.14c0.07,2.99-0.08,5.99,0.04,8.98c0.08,1.99-0.44,2.94-2.67,2.99c-2.52,0.06-2.49-1.39-2.43-3.13
			c0.05-1.5,0.01-2.99,0.01-4.49C252.01,266.08,252.02,266.08,252.02,266.08z"/>
		<path class="st5" d="M354.59,263.76c0-2.37,0.07-4.74-0.02-7.1c-0.07-1.71,0.56-2.53,2.32-2.59c1.97-0.07,2.66,0.85,2.62,2.7
			c-0.06,2.99,0.1,5.99-0.07,8.97c-0.16,2.76,0.9,3.84,3.67,3.69c1.54-0.09,3.74-0.76,3.6,2.25c-0.12,2.59-2,2.09-3.52,2.14
			c-8.64,0.28-8.65,0.27-8.64-8.19c0-0.62,0-1.25,0-1.87C354.56,263.76,354.57,263.76,354.59,263.76z"/>
		<path class="st15" d="M185.56,300.33c-1.37,0.43-2.73,0.86-4.1,1.29c-4.11-1.11-8.3-0.13-12.44-0.53
			c-0.09-0.01-0.23-0.15-0.22-0.21c0.02-0.21,0.1-0.42,0.15-0.63C174.49,300.09,180.03,299.86,185.56,300.33z"/>
		<path class="st16" d="M312.1,327.51c-8.78,0.96-17.55,0.71-26.32-0.14c-2.7-2.49-1.45-5.74-1.65-8.71
			c-0.48-3.1-1.33-6.97,0.14-9.13c1.6-2.35,5.72-0.72,8.72-0.84c4.8-0.18,9.61-0.06,14.41-0.05c-6.5-0.02-12.99,0.06-19.48-0.06
			c-1.37-0.02-3.4,0.84-3.81-1.65c-0.22-2.31,1.4-3.02,3.14-3.63c1.84-0.71,3.85,0.15,5.67-0.62c6.34,0.55,12.74-0.46,19.07,0.68
			c1.03,1.01,1.77,2.14,1.56,3.67c0.98,7.62,0.98,7.66-6.28,7.59c-6.07-0.06-12.12-1.29-18.22-0.54c3.3-0.34,6.61-0.33,9.91,0
			c3.6,0.35,7.2,0.63,10.83,0.59c1.57-0.02,3.32-0.3,4.34,1.46c-0.01,1.5-0.01,3-0.02,4.51c-8.14,0.82-16.23-0.28-24.34-0.48
			c1.63,0.43,3.34,0.57,5.07,0.49c5.47-0.26,10.92,0.42,16.38,0.39c1.09-0.01,2.31-0.26,2.89,1.1
			C313.83,324.07,315.47,326.73,312.1,327.51z"/>
		<path class="st17" d="M426.75,301.89c1.22,1.11,0.73,2.58,0.73,3.89c0.02,61.09,0.01,122.18,0.04,183.27
			c0,2.46,0.06,4.17-3.42,4.16c-31.36-0.13-62.72-0.08-94.07-0.08c-0.48,0-0.95-0.09-1.78-0.17c1.55-0.96,2.91-0.54,4.17-0.54
			c29.73-0.03,59.47-0.02,89.2-0.02c5.12,0,5.12,0,5.12-4.98C426.75,425.57,426.75,363.73,426.75,301.89L426.75,301.89z"/>
		<path class="st18" d="M197.65,301.26c1.37-0.04,2.75-0.11,4.12-0.11c74.99,0,149.98,0,224.97,0c0,0.25,0,0.5,0,0.74c0,0,0,0,0,0
			c-36.55,0-73.1,0-109.65,0c-1.73,0-3.51-0.25-5.1,0.74c-1.11-1.22-2.58-0.72-3.89-0.73c-33.93-0.03-67.85-0.03-101.78,0
			c-1.66,0-3.61-0.59-4.61,1.53C200.37,302.71,199.01,301.98,197.65,301.26z"/>
		<path class="st19" d="M330.72,429.4c0-3.51,0-7.01,0-10.52c-0.54-7.25-0.55-14.49,0-21.74c0.03-4.5,0.06-9,0.09-13.5
			c1.07,1.01,0.67,2.33,0.67,3.53c0.02,25.39,0.02,50.77,0,76.16c0,1.2,0.39,2.52-0.66,3.54c-0.03-3.5-0.07-7-0.1-10.49
			C330.16,447.39,330.18,438.39,330.72,429.4z"/>
		<path class="st20" d="M314.13,316.12c-4.95-1.43-10.09-0.71-15.12-1.37c-3.89-0.51-7.89-0.1-11.87-0.71
			c3.62-1.18,7.44-1.32,11.04-0.68c4.62,0.82,9.22,0.1,13.78,0.67c1.68,0.21,1.5-0.76,1.52-1.76c0.03-1.74,0.06-3.49,0.09-5.23
			C314.64,310.01,314.14,313.08,314.13,316.12z"/>
		<path class="st21" d="M314.13,322.13c-1.34-0.92-2.86-0.7-4.35-0.74c-7.47-0.2-14.97,0.54-22.41-0.75
			c-0.67-0.12-1.53,0.26-2.15-1.42c9.83,0.48,19.36,0.94,28.9,1.4C314.12,321.13,314.12,321.63,314.13,322.13z"/>
		<path class="st19" d="M332.88,448.35c0.06,1.74,0.4,2.71-0.31,3.65C332.12,450.89,332.04,449.87,332.88,448.35z"/>
		<path class="st22" d="M329.9,483.94c0.04-0.43,0.07-0.86,0.11-1.3c1.08,0.8,0.65,1.87,0.28,2.98
			C330.16,485.06,330.03,484.5,329.9,483.94z"/>
		<path class="st23" d="M329.9,363.45c-0.18-0.07-0.36-0.13-0.54-0.18c-0.89-1.13-0.38-2.38-0.33-3.6c0.11-0.12,0.23-0.13,0.36-0.04
			c0.18,0.04,0.36,0.09,0.54,0.16c0.68,0.63,0.45,1.34,0.21,2.06C330.06,362.38,329.98,362.91,329.9,363.45z"/>
		<path class="st24" d="M330.14,361.85c-0.07-0.69-0.14-1.38-0.21-2.06c0.05-0.23,0.05-0.49,0.18-0.67
			c0.25-0.36,0.57-0.32,0.59,0.12C330.76,360.15,330.97,361.12,330.14,361.85z"/>
		<path class="st17" d="M270.63,491.66c0.28,0.31,0.56,0.62,0.83,0.94c-0.97,0.82-2.14,0.53-3.24,0.53
			c-32.12,0.01-64.24-0.02-96.36,0.06c-2.77,0.01-3.93-0.51-3.92-3.67c0.1-52.12,0.07-104.24,0.07-156.36c0-0.6,0-1.21,0-2.42
			c1.11,1.71,0.73,3.02,0.73,4.22c0.02,50.87,0.02,101.74,0.02,152.61c0,4.82,0,4.82,4.91,4.82c30.75,0,61.49,0,92.24,0
			C267.5,492.38,269.17,492.65,270.63,491.66z"/>
		<path class="st20" d="M284.12,306.94c1.01,1.37,2.49,0.92,3.8,0.93c6.99,0.04,13.98,0,20.97,0.05c1.13,0.01,2.42-0.41,3.6,0.73
			c-1.19,1.14-2.48,0.72-3.61,0.72c-7.49,0.03-14.98,0.09-22.47-0.07c-1.65-0.03-2.18,0.2-2.13,1.89c0.07,2.49-0.09,4.98-0.15,7.47
			C283.53,314.75,283.42,310.84,284.12,306.94z"/>
		<path class="st25" d="M266.92,371.65c0.04,4.25,0.07,8.5,0.11,12.75c0.75,6.66,0.25,13.35,0.29,20.02
			c0.03,4.07,0.46,8.16-0.29,12.21c-0.04,6-0.08,12-0.12,18c-0.95-0.91-0.65-2.1-0.65-3.19c-0.02-18.87-0.02-37.74,0-56.61
			C266.26,373.74,265.96,372.55,266.92,371.65z"/>
		<path class="st26" d="M211.37,323.37c-0.34-1.32-0.33-2.64,0-3.96c0.28-0.2,0.42-1.57,0.74-0.53c0.48,1.55,0.47,3.46,0,5.01
			C211.78,324.93,211.64,323.57,211.37,323.37z"/>
		<path class="st26" d="M188.53,343c0.82-0.31,1.64-0.32,2.47,0.01c0.58,0.11,1.16,0.22,1.73,0.33c-0.03,0.13-0.05,0.25-0.08,0.38
			c-1.93,0-3.87,0-5.8,0c-0.01-0.13-0.03-0.26-0.04-0.39C187.38,343.22,187.96,343.11,188.53,343z"/>
		<path class="st18" d="M292.93,302.69c-1.83,0.77-3.77,0.52-5.67,0.62C289.03,301.99,291.04,302.89,292.93,302.69z"/>
		<path class="st27" d="M323.23,439.13c-0.01,1.73-0.02,3.46-0.03,5.19c-1.4,1.35-3.18,1.28-4.92,1.28
			c-12.69,0.03-25.38,0.03-38.06,0c-1.73,0-3.52,0.08-4.93-1.26c-0.16-26.49-0.27-52.97,0.67-79.45c0.1-2.94,0.7-4.07,3.95-4.06
			c12.99,0.06,25.98-0.14,38.97-0.39c2.59-0.05,3.7,0.36,3.75,3.37c0.24,14.86,0.84,29.71,0.6,44.58
			c-0.81,5.42-0.32,10.87-0.32,16.3C322.9,429.51,322.41,434.34,323.23,439.13z"/>
		<path class="st28" d="M275.3,444.35c15.97-0.01,31.94-0.02,47.91-0.03c0.35,11.21-1.23,22.38-0.71,33.6
			c0.08,1.69-0.58,2.32-2.35,2.53c-13.93,1.63-27.84-0.15-41.76-0.04c-1.77,0.01-2.52-0.74-2.39-2.46c0.01-0.12-0.01-0.25,0-0.37
			C276.49,466.48,275.04,455.43,275.3,444.35z"/>
		<path class="st29" d="M267.03,416.63c-0.45-10.74-0.42-21.49,0-32.23C268.22,395.14,268.22,405.89,267.03,416.63z"/>
		<path class="st30" d="M323.23,439.13c-0.21-0.3-0.59-0.6-0.59-0.9c-0.03-9.65-0.03-19.29,0-28.94c0-0.3,0.39-0.6,0.59-0.9
			C323.61,418.64,323.57,428.89,323.23,439.13z"/>
		<path class="st31" d="M330.72,429.4c0.25,8.99,0.48,17.99,0,26.98c-1.01-0.86-0.71-2.04-0.71-3.12c-0.02-6.92-0.02-13.83,0-20.75
			C330.01,431.44,329.71,430.26,330.72,429.4z"/>
		<path class="st32" d="M330.72,397.15c0.4,7.25,0.36,14.49,0,21.74c-1.6-4.79-0.48-9.71-0.65-14.57
			C329.99,401.95,329.28,399.41,330.72,397.15z"/>
		<path class="st33" d="M329.03,359.67c0.11,1.2,0.22,2.4,0.33,3.6C327.58,362.22,328.62,360.92,329.03,359.67z"/>
		<path class="st34" d="M191.25,331.06c-0.81-0.02-1.86,0.76-2.24-0.67c0.45-4.73,0.93-9.47-0.25-14.17
			c-1.17,0.24-2.33,0.48-3.5,0.72c-0.79-0.59-0.74-1.45-0.75-2.29c1.45-1.45,3.42-1.66,5.25-2.18c1,0.23,2.1,0.57,2.08,1.75
			C191.76,319.83,192.81,325.49,191.25,331.06z"/>
		<path class="st35" d="M191.25,331.06c0-4.91-0.05-9.82,0.02-14.73c0.02-1.56-0.15-2.91-1.51-3.87c1.95-1.33,3.02-1.36,2.94,1.55
			c-0.15,4.95-0.01,9.9-0.07,14.85C192.62,329.76,193.31,331.34,191.25,331.06z"/>
		<path class="st36" d="M188.77,316.21c1.74,4.7,1.31,9.43,0.25,14.17C188.93,325.66,188.85,320.94,188.77,316.21z"/>
		<path class="st37" d="M184.51,314.64c0.87,0.56,0.71,1.46,0.75,2.29C183.29,316.74,183.95,315.68,184.51,314.64z"/>
		<path class="st38" d="M228.88,543.71c0.04,3.63-2.22,6.08-5.62,6.07c-3.13-0.01-5.56-2.49-5.62-5.77
			c-0.07-3.55,2.29-6.03,5.69-6.01C226.65,538.03,228.84,540.28,228.88,543.71z"/>
		<path class="st38" d="M396.44,549.78c-3.13-0.04-5.52-2.55-5.55-5.84c-0.03-3.55,2.34-6,5.75-5.94c3.32,0.06,5.47,2.32,5.49,5.77
			C402.15,547.38,399.83,549.83,396.44,549.78z"/>
		<path class="st39" d="M268.45,543.49c0-0.37-0.07-0.76,0.01-1.12c0.39-1.57-1.2-4.08,1.89-4.38c2.81-0.27,4.84,0.95,5.68,3.74
			c0.63,2.12,0.49,4.18-0.89,6.03c-1.34,1.79-3.26,2.42-5.29,2.01c-2.39-0.48-1.14-2.62-1.38-4.04
			C268.34,545,268.45,544.24,268.45,543.49z"/>
		<path class="st40" d="M345.99,264.11c-0.08,3.2-2.09,5.12-5.19,4.95c-2.82-0.15-4.71-2.27-4.63-5.2c0.08-3.12,2.17-5.09,5.25-4.94
			C344.33,259.06,346.07,261.04,345.99,264.11z"/>
		<path class="st38" d="M293.14,263.48c0.8-1.31-1.68-4.34,2.05-4.64c2.68-0.22,4.77,2.05,4.84,5.03c0.07,3.09-1.73,5.16-4.56,5.23
			C293.14,269.16,293.14,269.16,293.14,263.48z"/>
		<path class="st41" d="M186.45,262.89c0.76,1.23,1.99,2.24,1.1,3.6c-0.42,0.65-1.94,0.61-2.32-0.02
			C184.43,265.12,185.57,264.08,186.45,262.89z"/>
		<path class="st42" d="M409.15,262.55c0.59,1.77,2.11,2.71,0.89,4.06c-0.31,0.35-1.74,0.31-2.02-0.05
			C406.93,265.18,408.34,264.27,409.15,262.55z"/>
		<path class="st43" d="M303.01,380.64c0.05,3.13-0.5,5.66-3.27,5.61c-2.89-0.06-3.82-2.65-3.37-5.2c0.5-2.78,1.5-5.47,2.34-8.19
			c0.17-0.56,0.51-1.19,1.27-1.13c0.78,0.06,0.92,0.8,1.06,1.34C301.74,375.82,302.89,378.46,303.01,380.64z"/>
		<path class="st44" d="M286.31,417.48c1.23-0.23,2.32,0.18,3.37,0.76c0.37,1.39,0.02,2.59-0.92,3.64c0,0.26,0,0.51-0.01,0.77
			c-0.64,0.92-1.4,1.47-2.56,0.89C284.32,421.48,284.67,419.47,286.31,417.48z"/>
		<path class="st45" d="M284.13,395.42c0.78-0.69,1.82-1.85,2.65-0.76c1.21,1.59-1.21,0.66-1.39,1.52c-0.24,1.11-0.66,2.2,1.11,2.36
			c0.25,0.02,0.24,0.19-0.71,1.11c-0.26,1.01-0.08,1.91,0.71,2.63c0.6,0.26,1.3,1.13,1.01,1.27c-1.29,0.65-2.63,0.66-3.33-1.01
			C283.15,400.17,283.22,397.8,284.13,395.42z"/>
		<path class="st46" d="M299.57,425.2c-0.89-3.3-1.44-5.7-0.25-8.39C300.86,420.03,300.94,421.21,299.57,425.2z"/>
		<path class="st47" d="M306.77,398.59c0.39,2.94,0.39,2.94-0.59,3.23c-2.42,0.72-2.47,0.72-2.37-1.97
			c0.06-1.46-0.27-2.99,0.59-4.35c0.95,0.59,0.94,1.63,1.2,2.53C305.35,399.56,306.6,397.96,306.77,398.59z"/>
		<path class="st48" d="M303.85,430.33c0.26-0.67,0.51-1.33,0.78-2.04c1.28,0.38,0.76,1.4,0.86,2.12c0.19,1.45-0.45,3.06,2.24,3.18
			c1.46,0.06,0.03,1.14-0.4,1.69c-0.65,0.72-1.32,0.61-2.02,0.07c-0.48-0.55-0.95-1.1-1.43-1.64
			C303.07,432.58,303.13,431.46,303.85,430.33z"/>
		<path class="st49" d="M314.36,422.21c1.16,1.97-0.62,1.29-1.31,1.34c-0.84,0.06-1.94,0.02-1.77-1.27
			c0.25-1.91-0.74-3.96,0.62-5.75c0.82-0.07,1.89-0.98,2.18,0.66c-1.6,0.24-1.48,1.3-1.19,2.46
			C313.53,420.42,313.52,421.56,314.36,422.21z"/>
		<path class="st50" d="M296.86,409.04c-0.15,1.66-2.11,1.88-2.56,3.38c-0.02-2.21-1.87-4.72,1.29-6.12
			C296.8,406.85,297.07,407.83,296.86,409.04z"/>
		<path class="st51" d="M286.31,417.48c-0.4,1.97-1.2,3.96,0.31,5.83c-0.11,0.51-0.43,0.82-0.93,0.95
			C283.37,420.95,283.53,419.2,286.31,417.48z"/>
		<path class="st52" d="M296.21,429.39c2.24,1.6,1.99,3.62-0.73,5.89c-0.85-0.4-1.35-1-1.15-2.01c0.55-1.16,1.04-2.36,1.52-3.55
			C295.97,429.61,296.09,429.5,296.21,429.39z"/>
		<path class="st53" d="M301.06,427.24c0.63,3.16,0.65,5.23-0.1,8.31C299.59,432.5,299.77,430.43,301.06,427.24z"/>
		<path class="st54" d="M301.37,411.27c-2.13-0.95-1.56-2.77-0.81-4.02c0.46-0.77,1.38,0.24,1.71,1.06c0.53,0.6,0.69,1.28,0.41,2.05
			C302.42,410.91,301.88,411.07,301.37,411.27z"/>
		<path class="st55" d="M293.34,398.71c-0.15,1.31,1.58,1.92,1.24,3.45c-1.02,0.27-1.63-2.22-2.84-0.54
			c-0.33-0.13-0.52-0.37-0.6-0.7c0.18-1.03,0.37-2.06,0.55-3.09C292.59,397.46,293.39,397.31,293.34,398.71z"/>
		<path class="st56" d="M293.24,424.89c-0.06-0.18-0.08-0.37-0.06-0.57c-0.05-2.32-1.24-4.76,0.67-6.89
			c0.68,2.29-0.95,5.4,2.41,6.73C295.37,424.87,294.49,425.64,293.24,424.89z"/>
		<path class="st57" d="M306.69,411.99c-0.78-1.62-0.85-3.23,0.09-5.73C307.65,408.78,307.62,410.37,306.69,411.99z"/>
		<path class="st58" d="M287.28,411.44c-0.37,0.98-0.89,2.21-1.93,0.8c-0.74-0.99-2.17-2.56,0.24-3.57
			c0.67,0.11,1.04,0.61,1.43,1.09C287.23,410.3,287.73,410.8,287.28,411.44z"/>
		<path class="st59" d="M306.77,398.59c-0.52,0.25-1.05,0.93-1.58,0.01c-0.5-1.39-0.66-2.72,0.78-3.7
			C307.89,395.77,307.6,397.12,306.77,398.59z"/>
		<path class="st60" d="M298.52,402.34c-1.93-1.9,0.23-4.73-1.53-6.67c0.73-0.58,1.42-1.33,2.49-0.71c0.19,0.57,0.13,1.14-0.06,1.7
			C298.85,398.5,299.89,400.61,298.52,402.34z"/>
		<path class="st61" d="M310.61,399.4c0.3-1.18,0.38-2.49,0.98-3.5c0.38-0.64,1.72-1.49,1.79,0.52c-0.41,0.58-0.16,1.31-0.41,1.93
			C312.41,399.2,311.92,400.23,310.61,399.4z"/>
		<path class="st62" d="M299.39,394.91c-0.79,0.29-1.45,0.99-2.4,0.75c1.08-2.92,3.25-0.82,5.04-1.41
			c-0.15,1.68-1.27,1.21-1.97,1.43C299.72,395.53,299.5,395.27,299.39,394.91z"/>
		<path class="st52" d="M302.29,410.52c-0.01-0.74-0.01-1.48-0.02-2.22c1.44,0.35,2.57,1.04,2.04,2.73
			c-0.34,1.1-1.21,0.86-1.97,0.28c-0.25-0.16-0.34-0.33-0.27-0.51C302.14,410.62,302.21,410.52,302.29,410.52z"/>
		<path class="st63" d="M305.4,420.87c0.55,0.09,1.09,0.19,1.64,0.28l0.3-0.08c0.21,1.24,0.27,2.65-1.23,2.88
			c-1.11,0.17-1.26-1.19-1.55-2.08C304.79,421.51,304.85,420.98,305.4,420.87z"/>
		<path class="st64" d="M292.56,429.43c1.85-2.39,2.64-2.4,3.65-0.04c0,0,0.08-0.02,0.08-0.02c-0.61,0.62-1.23,1.21-2.18,1.22
			C293.35,430.53,292.79,430.2,292.56,429.43z"/>
		<path class="st63" d="M293.85,417.44c-1.29,2.19-0.23,4.62-0.67,6.89c-0.86-2.44-1.12-4.89-0.05-7.34
			c0.02-0.05,0.27-0.09,0.33-0.03C293.61,417.09,293.72,417.27,293.85,417.44z"/>
		<path class="st65" d="M312.73,397.94c0.21-0.51,0.43-1.02,0.64-1.52c0.7,2.01,1.02,4.07,0.83,6.28c-1.28-0.51-0.72-1.52-0.78-2.33
			C313.02,399.61,312.39,398.92,312.73,397.94z"/>
		<path class="st66" d="M287.28,411.44c-0.26-0.51-0.52-1.02-0.77-1.53c-0.73-1.08-0.15-1.7,0.78-2.19
			c0.63-0.11,1.07,0.19,1.41,0.68c0.2,0.15,0.26,0.28,0.17,0.38c-0.08,0.09-0.16,0.14-0.25,0.14
			C288.17,409.76,287.72,410.6,287.28,411.44z"/>
		<path class="st67" d="M288.61,408.92c-0.09-0.19-0.06-0.36,0.08-0.52c0.54-0.49,1.09-0.99,1.63-1.48c1.15,1.76,1.27,3.5-0.07,5.22
			C288.65,411.6,289.79,409.67,288.61,408.92z"/>
		<path class="st68" d="M314.36,422.21c-2.45,0.27-1.29-1.53-1.47-2.57C313.73,420.3,315.8,420.25,314.36,422.21z"/>
		<path class="st54" d="M313.49,409.1c0.24-0.7-0.33-1.98,0.9-1.97c0.97,0.01,0.63,1.14,0.58,1.75c-0.07,0.86,0.52,1.98-0.72,2.52
			C313.91,410.66,313.01,410.11,313.49,409.1z"/>
		<path class="st69" d="M299.39,394.91c0.22,0.26,0.44,0.52,0.67,0.77c-0.53,2.2,0.95,4.63-0.79,6.69c-0.67-1.99-0.49-4-0.12-6.01
			C299.23,395.88,299.31,395.39,299.39,394.91z"/>
		<path class="st70" d="M284.13,395.42c0.01,2.37,0.03,4.74,0.04,7.12c-0.12-0.09-0.25-0.16-0.4-0.18
			c-1.08-2.21-0.83-4.45-0.15-6.69C283.81,395.63,283.98,395.55,284.13,395.42z"/>
		<path class="st71" d="M293.34,398.71c-0.28-0.8-1.03-0.73-1.65-0.89c0.83-0.88,1.66-1.77,2.72-2.89
			C294.93,396.68,294.18,397.71,293.34,398.71z"/>
		<path class="st49" d="M309.62,407.65c0.57-0.93,1.82-0.96,1.47-0.01c-0.54,1.47,0,3.17-1.11,4.43
			C308.87,410.68,309.42,409.15,309.62,407.65z"/>
		<path class="st72" d="M312.73,397.94c0.23,0.81,0.47,1.62,0.7,2.43c-1.22-0.48-2.15-0.39-2.29,1.2c-0.71,0.16-0.98-0.14-0.83-0.84
			c0.1-0.44,0.19-0.89,0.29-1.33C311.71,399.49,311.98,398.36,312.73,397.94z"/>
		<path class="st73" d="M283.62,395.66c0.05,2.23,0.1,4.46,0.15,6.69C282.05,400.16,282.31,397.92,283.62,395.66z"/>
		<path class="st74" d="M288.75,421.88c0-1.29-0.21-2.64,0.92-3.64c0,0,0.33-0.06,0.33-0.06c1.1,1.17,0.67,2.43,0.23,3.69
			C289.74,421.87,289.25,421.87,288.75,421.88z"/>
		<path class="st75" d="M299.15,396.36c0.04,2,0.08,4.01,0.12,6.01c-0.25-0.01-0.5-0.03-0.75-0.04
			C298.76,400.35,297.92,398.24,299.15,396.36z"/>
		<path class="st76" d="M291.1,406.96c0.25,0.21,0.5,0.43,0.76,0.64c0.82,1.77,1.07,3.52-0.22,5.21c-0.26-0.21-0.52-0.41-0.77-0.62
			C290.66,410.43,290.21,408.66,291.1,406.96z"/>
		<path class="st77" d="M293.24,424.89c1.01-0.24,2.01-0.49,3.02-0.73c0.14,3.04-2.03,0.85-3.03,1.33c0,0-0.14-0.18-0.14-0.28
			C293.1,425.1,293.19,425,293.24,424.89z"/>
		<path d="M296.86,409.04c-0.42-0.91-0.85-1.83-1.27-2.74C297.83,406.37,298.44,407.2,296.86,409.04z"/>
		<path class="st78" d="M303.85,430.33c0.01,1.13,0.02,2.25,0.04,3.38c-2.01-1.05-0.41-2.79-0.79-4.15c0-0.01,0.23-0.11,0.24-0.1
			C303.52,429.74,303.69,430.03,303.85,430.33z"/>
		<path class="st79" d="M292.56,429.43c0.47,0.23,0.93,0.47,1.4,0.7c0.58,0.9,0.29,1.81,0.06,2.73c-0.11,0.57-0.33,1.08-0.86,1.4
			c-0.25-0.35-0.51-0.69-0.76-1.04c-0.78-1.3-0.83-2.59,0.07-3.86L292.56,429.43z"/>
		<path class="st80" d="M292.47,407.65c1.21,1.75,1.23,3.49-0.01,5.23C291.97,411.13,291.94,409.39,292.47,407.65z"/>
		<path class="st78" d="M286.49,402.27c-2.13-0.37-1.23-1.55-0.71-2.63C286.37,400.42,286.59,401.31,286.49,402.27z"/>
		<path class="st81" d="M292.47,407.65c0,1.74-0.01,3.49-0.01,5.23c-0.27-0.02-0.55-0.05-0.82-0.07c0.07-1.74,0.15-3.47,0.22-5.21
			C292.06,407.63,292.26,407.65,292.47,407.65z"/>
		<path class="st82" d="M291.1,406.96c-0.08,1.74-0.16,3.49-0.24,5.23c-0.2-0.02-0.41-0.03-0.61-0.05c0.02-1.74,0.05-3.48,0.07-5.22
			C290.58,406.93,290.84,406.94,291.1,406.96z"/>
		<path class="st83" d="M305.4,420.87c-0.28,0.34-0.56,0.67-0.85,1.01c-0.24-1-1.71-2.22-0.07-2.9
			C305.31,418.63,305.25,420.12,305.4,420.87z"/>
		<path class="st84" d="M285.68,424.26c0.31-0.32,0.62-0.63,0.93-0.95c0.71-0.22,1.42-0.44,2.13-0.66
			C288.54,424.73,287.37,425,285.68,424.26z"/>
		<path class="st85" d="M293.16,434.26c0.04-0.65,0.09-1.3,0.13-1.95c0.84-0.18,1.3,0.18,1.46,1c0.24,0.66,0.49,1.32,0.73,1.98
			C294.4,435.65,293.68,435.18,293.16,434.26z"/>
		<path class="st86" d="M309.62,407.65c0.12,1.47,0.24,2.94,0.36,4.42C308.31,410.72,308.81,409.2,309.62,407.65z"/>
		<path d="M307.33,421.08c0,0-0.3,0.08-0.3,0.08c-0.44-1.2,0.04-2.11,0.92-2.98C308.54,419.36,308.37,420.31,307.33,421.08z"/>
		<path class="st87" d="M305.98,394.9c-1.01,1.08-0.58,2.46-0.78,3.7c-1.09-0.82-0.36-2.11-0.79-3.1
			C304.71,394.74,305.38,394.91,305.98,394.9z"/>
		<path class="st88" d="M290.23,421.86c-0.08-1.23-0.15-2.46-0.23-3.69c1.58,0.94,0.92,2.39,0.82,3.71c0,0.05-0.18,0.13-0.28,0.13
			C290.44,422.01,290.34,421.92,290.23,421.86z"/>
		<path class="st89" d="M287.28,407.72c-0.26,0.73-0.52,1.46-0.78,2.19c-0.73-0.1-0.9-0.61-0.91-1.24
			C286.02,408.12,286.02,406.8,287.28,407.72z"/>
		<path class="st90" d="M309.59,402.38c-0.4,0.08-1.03,0.76-1.12-0.04c-0.06-0.56,0.03-1.71,1.29-1.42
			C310.16,401.47,310.21,401.96,309.59,402.38z"/>
		<path class="st88" d="M305.32,435.35c0.67-0.02,1.34-0.05,2.02-0.07c0.77,1.16-0.42,0.91-0.72,0.81
			C306.17,435.95,304.96,436.88,305.32,435.35z"/>
		<path class="st91" d="M314.08,417.19c-0.57-0.74-1.44-0.5-2.18-0.66c0.74-0.82,1.66-0.89,2.51-0.33
			C314.82,416.47,314.69,417.02,314.08,417.19z"/>
		<path class="st92" d="M292.46,429.36c-0.02,1.29-0.05,2.57-0.07,3.86c-0.18-0.05-0.37-0.07-0.56-0.09
			c-0.63-1.26-0.84-2.51,0.11-3.72C292.12,429.39,292.29,429.37,292.46,429.36z"/>
		<path class="st88" d="M291.95,429.41c-0.04,1.24-0.07,2.48-0.11,3.72C290.64,431.85,290.52,430.61,291.95,429.41z"/>
		<path d="M313.49,409.1c0.25,0.76,0.51,1.53,0.76,2.29c-1.21-0.07-1.69-1.06-1.99-1.94C312.12,409.08,313,409.05,313.49,409.1z"/>
		<path class="st93" d="M309.59,402.38c0.06-0.48,0.12-0.97,0.17-1.45c0.18-0.09,0.36-0.15,0.55-0.2c0.28,0.28,0.55,0.56,0.83,0.84
			C311.02,402.58,310.94,403.7,309.59,402.38z"/>
		<path d="M291.14,400.91c0.2,0.23,0.4,0.47,0.6,0.7c-0.13,0.79-0.5,1.92-1.28,1.41C289.73,402.54,290.75,401.6,291.14,400.91z"/>
		<path class="st94" d="M302.29,410.52c0.02,0.27,0.04,0.53,0.06,0.8c-0.33-0.02-0.65-0.03-0.98-0.05
			C301.67,411.02,301.98,410.77,302.29,410.52z"/>
		<path class="st4" d="M303.79,462.41c-0.74,0.36-1.48,0.72-2.78,1.35c2.27,0.16,4.08,0.21,5.71,0.96c1.56,0.72,3.42,0.82,4.95,2.5
			c-2.43,0.79-4.67,0.53-6.88,0.12c-2.2-0.41-4.34-1.59-5.8,1.53c-0.67,1.44-2.93,1.45-3.12-0.27c-0.45-4.03-2.6-2.43-4.61-1.9
			c-1.32,0.35-2.67,0.6-4,0.89c-0.26-0.16-0.35-0.32-0.27-0.48c0.09-0.16,0.17-0.24,0.26-0.24c0.27-0.63,1.21-0.8,1-1.82
			c-0.46-2.13-0.02-4.5,2.31-4.67c2.8-0.2,1.59,2.73,2.38,5c2.85-6.25,6.67-11,13.48-14.37c-2.69,5.16-5.97,8.68-9.74,13.26
			c2.55-1.18,4.08-1.88,5.6-2.59C302.71,462.08,303.47,461.78,303.79,462.41z"/>
		<path class="st4" d="M303.79,462.41c-0.61-0.03-1.18-0.13-1.52-0.72c2.51-2.73,4.76-5.73,7.75-7.97c1.05-0.78,2.35-1.21,4.47-2.27
			c-1.94,4.09-4.38,6.31-7.94,8.66c3.53-0.57,6.1,0,9.56,0.39C311.74,463.16,307.67,462.18,303.79,462.41z"/>
		<path class="st95" d="M287.24,466.87c0,0.24,0.01,0.48,0.01,0.73c-1.53,0.08-3.06,0.17-4.59,0.25
			C284.06,466.54,285.7,467.04,287.24,466.87z"/>
		<path class="st96" d="M294.75,433.31c-0.49-0.33-0.97-0.67-1.46-1c-0.34-0.9,0.57-1.41,0.67-2.17c0.76-0.31,1.34-1.16,2.32-0.77
			C296.18,430.84,296.79,432.59,294.75,433.31z"/>
	</g>
</g>
</svg>
