<svg xmlns="http://www.w3.org/2000/svg" xmlns:xlink="http://www.w3.org/1999/xlink" width="415" zoomAndPan="magnify" viewBox="0 0 311.25 410.24999" height="547" preserveAspectRatio="xMidYMid meet" version="1.0"><defs><g/><clipPath id="1f29c5ded0"><path d="M 13.484375 0.117188 L 295.5 0.117188 L 295.5 408.816406 L 13.484375 408.816406 Z M 13.484375 0.117188 " clip-rule="nonzero"/></clipPath><clipPath id="2a9748432a"><path d="M 34.859375 0.117188 L 274.125 0.117188 C 285.929688 0.117188 295.5 9.6875 295.5 21.492188 L 295.5 387.382812 C 295.5 399.1875 285.929688 408.757812 274.125 408.757812 L 34.859375 408.757812 C 23.054688 408.757812 13.484375 399.1875 13.484375 387.382812 L 13.484375 21.492188 C 13.484375 9.6875 23.054688 0.117188 34.859375 0.117188 Z M 34.859375 0.117188 " clip-rule="nonzero"/></clipPath><clipPath id="e93ec82962"><path d="M 0.484375 0.117188 L 282.5 0.117188 L 282.5 408.8125 L 0.484375 408.8125 Z M 0.484375 0.117188 " clip-rule="nonzero"/></clipPath><clipPath id="d0f539c908"><path d="M 21.859375 0.117188 L 261.125 0.117188 C 272.929688 0.117188 282.5 9.6875 282.5 21.492188 L 282.5 387.382812 C 282.5 399.1875 272.929688 408.757812 261.125 408.757812 L 21.859375 408.757812 C 10.054688 408.757812 0.484375 399.1875 0.484375 387.382812 L 0.484375 21.492188 C 0.484375 9.6875 10.054688 0.117188 21.859375 0.117188 Z M 21.859375 0.117188 " clip-rule="nonzero"/></clipPath><clipPath id="5195cbfc05"><rect x="0" width="283" y="0" height="409"/></clipPath><clipPath id="725c1fcfb5"><path d="M 22.894531 10.277344 L 285.859375 10.277344 L 285.859375 399 L 22.894531 399 Z M 22.894531 10.277344 " clip-rule="nonzero"/></clipPath><clipPath id="29527e7325"><path d="M 37.339844 10.277344 L 271.417969 10.277344 C 279.394531 10.277344 285.859375 16.746094 285.859375 24.722656 L 285.859375 384.15625 C 285.859375 392.132812 279.394531 398.597656 271.417969 398.597656 L 37.339844 398.597656 C 29.363281 398.597656 22.894531 392.132812 22.894531 384.15625 L 22.894531 24.722656 C 22.894531 16.746094 29.363281 10.277344 37.339844 10.277344 Z M 37.339844 10.277344 " clip-rule="nonzero"/></clipPath><clipPath id="aa2465024e"><path d="M 0.894531 0.277344 L 263.859375 0.277344 L 263.859375 388.757812 L 0.894531 388.757812 Z M 0.894531 0.277344 " clip-rule="nonzero"/></clipPath><clipPath id="5dbe98df9d"><path d="M 15.339844 0.277344 L 249.417969 0.277344 C 257.394531 0.277344 263.859375 6.746094 263.859375 14.722656 L 263.859375 374.15625 C 263.859375 382.132812 257.394531 388.597656 249.417969 388.597656 L 15.339844 388.597656 C 7.363281 388.597656 0.894531 382.132812 0.894531 374.15625 L 0.894531 14.722656 C 0.894531 6.746094 7.363281 0.277344 15.339844 0.277344 Z M 15.339844 0.277344 " clip-rule="nonzero"/></clipPath><clipPath id="03e810eb9f"><rect x="0" width="264" y="0" height="389"/></clipPath><clipPath id="662ab0aee9"><path d="M 13.484375 10.246094 L 295.765625 10.246094 L 295.765625 81.441406 L 13.484375 81.441406 Z M 13.484375 10.246094 " clip-rule="nonzero"/></clipPath><clipPath id="4fa2c43997"><path d="M 26.195312 10.246094 L 282.789062 10.246094 C 289.808594 10.246094 295.5 15.933594 295.5 22.953125 L 295.5 68.730469 C 295.5 75.75 289.808594 81.441406 282.789062 81.441406 L 26.195312 81.441406 C 19.175781 81.441406 13.484375 75.75 13.484375 68.730469 L 13.484375 22.953125 C 13.484375 15.933594 19.175781 10.246094 26.195312 10.246094 Z M 26.195312 10.246094 " clip-rule="nonzero"/></clipPath><clipPath id="615274122d"><path d="M 0.484375 0.246094 L 282.6875 0.246094 L 282.6875 71.441406 L 0.484375 71.441406 Z M 0.484375 0.246094 " clip-rule="nonzero"/></clipPath><clipPath id="667618c9bc"><path d="M 13.195312 0.246094 L 269.789062 0.246094 C 276.808594 0.246094 282.5 5.933594 282.5 12.953125 L 282.5 58.730469 C 282.5 65.75 276.808594 71.441406 269.789062 71.441406 L 13.195312 71.441406 C 6.175781 71.441406 0.484375 65.75 0.484375 58.730469 L 0.484375 12.953125 C 0.484375 5.933594 6.175781 0.246094 13.195312 0.246094 Z M 13.195312 0.246094 " clip-rule="nonzero"/></clipPath><clipPath id="1682c568d6"><rect x="0" width="283" y="0" height="72"/></clipPath><clipPath id="d182b54108"><path d="M 13.4375 278.382812 L 295.582031 278.382812 L 295.582031 398.5625 L 13.4375 398.5625 Z M 13.4375 278.382812 " clip-rule="nonzero"/></clipPath><clipPath id="59d807fe37"><path d="M 25.078125 278.382812 L 283.859375 278.382812 C 290.289062 278.382812 295.5 283.59375 295.5 290.019531 L 295.5 386.925781 C 295.5 393.351562 290.289062 398.5625 283.859375 398.5625 L 25.078125 398.5625 C 18.648438 398.5625 13.4375 393.351562 13.4375 386.925781 L 13.4375 290.019531 C 13.4375 283.59375 18.648438 278.382812 25.078125 278.382812 Z M 25.078125 278.382812 " clip-rule="nonzero"/></clipPath><clipPath id="dee3659311"><path d="M 0.4375 0.382812 L 282.582031 0.382812 L 282.582031 120.5625 L 0.4375 120.5625 Z M 0.4375 0.382812 " clip-rule="nonzero"/></clipPath><clipPath id="424231532c"><path d="M 12.078125 0.382812 L 270.859375 0.382812 C 277.289062 0.382812 282.5 5.59375 282.5 12.019531 L 282.5 108.925781 C 282.5 115.351562 277.289062 120.5625 270.859375 120.5625 L 12.078125 120.5625 C 5.648438 120.5625 0.4375 115.351562 0.4375 108.925781 L 0.4375 12.019531 C 0.4375 5.59375 5.648438 0.382812 12.078125 0.382812 Z M 12.078125 0.382812 " clip-rule="nonzero"/></clipPath><clipPath id="ea1f5d608a"><rect x="0" width="283" y="0" height="121"/></clipPath></defs><g clip-path="url(#1f29c5ded0)"><g clip-path="url(#2a9748432a)"><g transform="matrix(1, 0, 0, 1, 13, 0.000000000000000597)"><g clip-path="url(#5195cbfc05)"><g clip-path="url(#e93ec82962)"><g clip-path="url(#d0f539c908)"><path fill="#dc143c" d="M 0.484375 0.117188 L 282.5 0.117188 L 282.5 408.816406 L 0.484375 408.816406 Z M 0.484375 0.117188 " fill-opacity="1" fill-rule="nonzero"/></g></g></g></g></g></g><g clip-path="url(#725c1fcfb5)"><g clip-path="url(#29527e7325)"><g transform="matrix(1, 0, 0, 1, 22, 10)"><g clip-path="url(#03e810eb9f)"><g clip-path="url(#aa2465024e)"><g clip-path="url(#5dbe98df9d)"><path fill="#fffaed" d="M 0.894531 0.277344 L 263.859375 0.277344 L 263.859375 388.558594 L 0.894531 388.558594 Z M 0.894531 0.277344 " fill-opacity="1" fill-rule="nonzero"/></g></g></g></g></g></g><g clip-path="url(#662ab0aee9)"><g clip-path="url(#4fa2c43997)"><g transform="matrix(1, 0, 0, 1, 13, 10)"><g clip-path="url(#1682c568d6)"><g clip-path="url(#615274122d)"><g clip-path="url(#667618c9bc)"><path fill="#dc143c" d="M 0.484375 0.246094 L 282.488281 0.246094 L 282.488281 71.441406 L 0.484375 71.441406 Z M 0.484375 0.246094 " fill-opacity="1" fill-rule="nonzero"/></g></g></g></g></g></g><g fill="#ffffff" fill-opacity="1"><g transform="translate(105.478737, 55.136177)"><g><path d="M 10.28125 0.28125 L 9.75 0.28125 L 9.25 0.171875 L 8.65625 0.109375 L 8.078125 -0.078125 L 7.65625 -0.203125 L 7.09375 -0.390625 L 5.203125 -1.421875 L 4.78125 -1.765625 L 4.296875 -2.0625 L 3.296875 -3.046875 L 2.171875 -4.671875 L 1.984375 -5.140625 L 1.703125 -5.640625 L 1.625 -6.140625 L 1.390625 -6.671875 L 1.125 -7.765625 L 1.125 -8.890625 L 1 -9.78125 L 1.515625 -13.265625 L 2.796875 -15.78125 L 3.125 -16.265625 L 3.890625 -16.953125 L 4.21875 -17.40625 L 6.171875 -18.65625 L 6.671875 -18.859375 L 7.09375 -19.109375 L 7.625 -19.3125 L 8.71875 -19.53125 L 9.25 -19.703125 L 9.71875 -19.75 L 12.265625 -19.75 L 13.65625 -19.5625 L 14.75 -19.25 L 16.34375 -18.515625 L 16.953125 -18.109375 L 18.40625 -16.796875 L 19.4375 -15.359375 L 19.890625 -14.296875 L 19.96875 -13.796875 L 20.203125 -13.25 L 20.03125 -12.65625 L 19.578125 -12.40625 L 19.03125 -12.34375 L 16.203125 -12.40625 L 15.59375 -12.65625 L 15.09375 -13.1875 L 14.828125 -13.65625 L 14.421875 -14.109375 L 13.609375 -14.78125 L 13.015625 -14.96875 L 11.953125 -15.171875 L 10.21875 -15.21875 L 9.25 -14.953125 L 8.71875 -14.71875 L 7.796875 -14.046875 L 7.09375 -13.1875 L 6.625 -12.1875 L 6.453125 -11.671875 L 6.421875 -11.125 L 6.234375 -10.609375 L 6.203125 -9.71875 L 6.28125 -8.40625 L 6.625 -7.3125 L 6.84375 -6.84375 L 7.875 -5.5 L 8.234375 -5.109375 L 8.765625 -4.859375 L 10.28125 -4.296875 L 11.84375 -4.28125 L 12.4375 -4.328125 L 12.984375 -4.5 L 13.9375 -4.96875 L 15 -6.125 L 15.21875 -6.59375 L 15.78125 -7.125 L 16.40625 -7.40625 L 19.390625 -7.375 L 20.09375 -7.0625 L 20.25 -6.5625 L 20.171875 -6.03125 L 19.96875 -5.46875 L 19.828125 -4.9375 L 19.578125 -4.4375 L 18.75 -2.984375 L 18.265625 -2.625 L 17.96875 -2.15625 L 17.59375 -1.78125 L 17.125 -1.453125 L 16.625 -1.140625 L 16.203125 -0.859375 L 14.671875 -0.203125 L 11.953125 0.359375 Z M 10.28125 0.28125 "/></g></g></g><g fill="#ffffff" fill-opacity="1"><g transform="translate(126.788471, 55.136177)"><g><path d="M 0.359375 -0.75 L 0.703125 -1.921875 L 0.953125 -2.484375 L 1.28125 -2.9375 L 2.09375 -4.96875 L 2.875 -6.421875 L 3.078125 -6.984375 L 3.328125 -7.4375 L 3.484375 -8.015625 L 3.890625 -8.75 L 4.078125 -9.28125 L 4.5 -10 L 4.9375 -11 L 5.25 -11.515625 L 5.390625 -11.984375 L 6.953125 -15.5 L 7.265625 -16.015625 L 8.46875 -18.515625 L 8.625 -19.03125 L 9.15625 -19.53125 L 10.0625 -19.8125 L 11 -19.5625 L 11.515625 -19.03125 L 11.671875 -18.5 L 11.921875 -18.078125 L 12.375 -17.015625 L 12.9375 -15.984375 L 13.359375 -15 L 13.5 -14.5625 L 14 -13.5 L 14.171875 -12.96875 L 14.71875 -11.984375 L 14.859375 -11.453125 L 15.140625 -10.984375 L 15.359375 -10.5 L 15.671875 -10 L 15.84375 -9.4375 L 16.09375 -9.03125 L 16.28125 -8.46875 L 16.53125 -7.984375 L 16.765625 -7.4375 L 17.0625 -6.984375 L 17.453125 -5.953125 L 17.734375 -5.46875 L 17.9375 -4.9375 L 18.40625 -3.9375 L 18.578125 -3.40625 L 18.859375 -2.984375 L 19.03125 -2.4375 L 19.390625 -1.953125 L 19.578125 -1.453125 L 19.75 -0.75 L 19.640625 -0.171875 L 19.140625 0 L 17.40625 0.0625 L 16.421875 -0.03125 L 15.921875 0.03125 L 15.203125 -0.25 L 14.71875 -0.703125 L 14.421875 -1.203125 L 14.28125 -1.703125 L 13.6875 -2.15625 L 12.765625 -2.453125 L 11.453125 -2.40625 L 10.875 -2.453125 L 10.359375 -2.453125 L 9.71875 -2.375 L 9.140625 -2.453125 L 7.578125 -2.4375 L 7.015625 -2.484375 L 6.34375 -2.203125 L 5.859375 -1.671875 L 5.390625 -0.71875 L 4.890625 -0.21875 L 4.25 0.0625 L 3.515625 -0.03125 L 1.0625 -0.03125 L 0.5 -0.171875 Z M 9 -6.90625 L 11.171875 -6.921875 L 11.65625 -7.15625 L 11.703125 -7.65625 L 11.515625 -8.15625 L 11.234375 -8.71875 L 11.125 -9.15625 L 10.8125 -9.640625 L 10.453125 -10.734375 L 10.109375 -10.953125 L 9.75 -10.671875 L 9.5 -10.21875 L 8.375 -7.6875 L 8.46875 -7.125 Z M 9 -6.90625 "/></g></g></g><g fill="#ffffff" fill-opacity="1"><g transform="translate(147.064845, 55.136177)"><g><path d="M 2.15625 -0.890625 L 2.0625 -3.078125 L 2.125 -3.65625 L 2.015625 -5.28125 L 2.09375 -6.421875 L 2.015625 -7.046875 L 2.046875 -8.109375 L 2.09375 -8.6875 L 2.09375 -10.078125 L 2.015625 -10.890625 L 2.09375 -18.71875 L 2.3125 -19.3125 L 2.84375 -19.5625 L 3.46875 -19.53125 L 4 -19.609375 L 5.140625 -19.5 L 5.671875 -19.578125 L 7.34375 -19.53125 L 7.828125 -19.578125 L 8.4375 -19.53125 L 9 -19.578125 L 9.609375 -19.5625 L 10.421875 -19.578125 L 11.125 -19.53125 L 13.4375 -19.046875 L 14.421875 -18.546875 L 15.8125 -17.484375 L 16.0625 -17.0625 L 16.453125 -16.65625 L 17.203125 -15.109375 L 17.34375 -14.5625 L 17.4375 -14.03125 L 17.578125 -13.5 L 17.546875 -11.28125 L 17.234375 -10.21875 L 17.046875 -9.75 L 16.734375 -9.25 L 16.53125 -8.71875 L 16.203125 -8.234375 L 15.421875 -7.484375 L 15.109375 -6.90625 L 15.203125 -6.234375 L 16.03125 -4.78125 L 16.40625 -4.328125 L 16.671875 -3.828125 L 17.015625 -3.328125 L 17.265625 -2.84375 L 18.15625 -1.484375 L 18.515625 -0.78125 L 18.40625 -0.203125 L 17.828125 -0.0625 L 17.203125 0 L 16.09375 0 L 15.53125 -0.0625 L 14.921875 0 L 13.90625 -0.0625 L 13.21875 -0.21875 L 12.65625 -0.71875 L 12.328125 -1.171875 L 12.0625 -1.640625 L 11.703125 -2.171875 L 10.921875 -3.578125 L 10.734375 -4.109375 L 10 -5.078125 L 9.546875 -5.5625 L 8.859375 -5.78125 L 8.359375 -5.75 L 7.84375 -5.75 L 7.296875 -5.46875 L 7.046875 -4.921875 L 7.09375 -3.1875 L 7.015625 -1.984375 L 7.125 -1.390625 L 7.0625 -0.8125 L 6.875 -0.28125 L 6 0 L 5.171875 0 L 4.578125 -0.0625 L 3.4375 0.03125 L 2.90625 0 L 2.34375 -0.28125 Z M 7.84375 -10.28125 L 8.46875 -10.28125 L 9.03125 -10.203125 L 11.203125 -10.390625 L 11.625 -10.59375 L 11.953125 -10.921875 L 12.265625 -11.40625 L 12.484375 -11.953125 L 12.578125 -12.71875 L 12.515625 -13.515625 L 12.328125 -13.96875 L 12.046875 -14.390625 L 11.171875 -14.921875 L 9.890625 -15.09375 L 8.359375 -15.109375 L 7.90625 -15.09375 L 7.34375 -14.8125 L 7.015625 -14.25 L 7.09375 -11.125 L 7.375 -10.53125 Z M 7.84375 -10.28125 "/></g></g></g><g fill="#ffffff" fill-opacity="1"><g transform="translate(166.419558, 55.136177)"><g><path d="M 16.484375 -0.453125 L 16.125 -0.8125 L 15.78125 -1.234375 L 15.34375 -1.59375 L 14.96875 -2.046875 L 12.265625 -4.75 L 11.8125 -5.109375 L 7.828125 -9.03125 L 7.453125 -9.109375 L 7.1875 -8.765625 L 7.296875 -8.1875 L 7.203125 -1.34375 L 7.296875 -0.78125 L 7.046875 -0.21875 L 6.484375 0.0625 L 5.84375 0 L 5.25 0.078125 L 3.859375 0 L 2.90625 0.0625 L 2.375 -0.25 L 2.125 -0.859375 L 2.125 -1.390625 L 2.046875 -1.953125 L 2.125 -3.015625 L 2.0625 -3.578125 L 2.09375 -4.71875 L 2.015625 -5.3125 L 2.015625 -5.84375 L 2.0625 -6.453125 L 2.0625 -6.984375 L 2.125 -7.484375 L 2.015625 -11.484375 L 2.09375 -12.0625 L 2.0625 -12.65625 L 2.125 -13.15625 L 2.046875 -14.296875 L 2.09375 -14.859375 L 2.046875 -18.78125 L 2.40625 -19.3125 L 3.078125 -19.640625 L 3.828125 -19.421875 L 4.9375 -18.65625 L 6.453125 -17.125 L 6.8125 -16.65625 L 7.296875 -16.3125 L 7.578125 -15.890625 L 8.109375 -15.53125 L 8.40625 -15.109375 L 9.28125 -14.390625 L 9.859375 -13.765625 L 10.171875 -13.375 L 10.609375 -13.046875 L 11.59375 -12.046875 L 12.015625 -11.703125 L 13.25 -10.453125 L 13.640625 -10.34375 L 13.765625 -10.78125 L 13.75 -11.90625 L 13.859375 -12.484375 L 13.859375 -13.015625 L 13.75 -13.609375 L 13.765625 -18.6875 L 14.046875 -19.28125 L 14.71875 -19.5625 L 15.28125 -19.53125 L 15.78125 -19.578125 L 16.375 -19.5 L 16.984375 -19.5625 L 17.515625 -19.5625 L 18.078125 -19.5 L 18.6875 -19.21875 L 19.03125 -18.71875 L 18.96875 -17.265625 L 19.03125 -16.421875 L 18.90625 -15.875 L 18.90625 -14.75 L 18.96875 -14.21875 L 18.890625 -13.109375 L 19 -9.75 L 18.9375 -9.140625 L 19.046875 -8.359375 L 18.90625 -0.75 L 18.65625 -0.171875 L 18.015625 0.140625 L 17.296875 -0.078125 Z M 16.484375 -0.453125 "/></g></g></g><g fill="#ffffff" fill-opacity="1"><g transform="translate(187.477934, 55.136177)"><g><path d="M 2.015625 -0.8125 L 2.125 -1.375 L 2.15625 -1.921875 L 2.09375 -3.015625 L 2.09375 -3.578125 L 2.046875 -4.21875 L 2.125 -4.71875 L 2.09375 -5.25 L 2.15625 -5.859375 L 2.0625 -6.453125 L 2.125 -7.578125 L 2.046875 -8.65625 L 2.125 -9.25 L 2.125 -14.25 L 2.0625 -14.75 L 2.125 -15.34375 L 2.015625 -16.765625 L 2.125 -17.578125 L 2.0625 -18.6875 L 2.34375 -19.3125 L 3.15625 -19.5 L 6.8125 -19.578125 L 7.3125 -19.53125 L 8.40625 -19.5625 L 8.96875 -19.5 L 10.203125 -19.5625 L 10.75 -19.46875 L 11.265625 -19.53125 L 13.5 -19.5 L 14.078125 -19.25 L 14.359375 -18.6875 L 14.28125 -18.15625 L 14.25 -17.546875 L 14.328125 -17.015625 L 14.390625 -15.875 L 14.078125 -15.359375 L 13.5 -15.0625 L 8.125 -15.03125 L 7.265625 -14.78125 L 6.984375 -13.96875 L 7.046875 -13.109375 L 7.375 -12.59375 L 7.84375 -12.296875 L 10.0625 -12.328125 L 10.703125 -12.265625 L 11.28125 -12.265625 L 11.84375 -12.328125 L 12.96875 -12.296875 L 13.4375 -11.984375 L 13.6875 -11.453125 L 13.75 -10.890625 L 13.6875 -8.6875 L 13.40625 -8.15625 L 12.84375 -7.84375 L 12.34375 -7.828125 L 11.765625 -7.875 L 11 -7.828125 L 9.53125 -7.90625 L 8.96875 -7.84375 L 7.875 -7.84375 L 7.375 -7.546875 L 7.125 -6.953125 L 7.09375 -5.59375 L 7.34375 -4.71875 L 7.9375 -4.390625 L 8.546875 -4.4375 L 9.15625 -4.390625 L 9.6875 -4.46875 L 13.375 -4.421875 L 14.21875 -4.140625 L 14.578125 -3.578125 L 14.53125 -3.046875 L 14.5625 -1.3125 L 14.5 -0.78125 L 14.25 -0.25 L 13.65625 0.03125 L 13.125 0.078125 L 11.421875 -0.03125 L 9.71875 0.0625 L 9.21875 -0.03125 L 2.90625 0.03125 L 2.375 -0.28125 Z M 2.015625 -0.8125 "/></g></g></g><g clip-path="url(#d182b54108)"><g clip-path="url(#59d807fe37)"><g transform="matrix(1, 0, 0, 1, 13, 278)"><g clip-path="url(#ea1f5d608a)"><g clip-path="url(#dee3659311)"><g clip-path="url(#424231532c)"><path fill="#dc143c" d="M 0.4375 0.382812 L 282.582031 0.382812 L 282.582031 120.5625 L 0.4375 120.5625 Z M 0.4375 0.382812 " fill-opacity="1" fill-rule="nonzero"/></g></g></g></g></g></g><g fill="#ffffff" fill-opacity="1"><g transform="translate(143.110249, 347.216234)"><g/></g></g><g fill="#ffffff" fill-opacity="1"><g transform="translate(150.678975, 347.216234)"><g/></g></g><g fill="#ffffff" fill-opacity="1"><g transform="translate(158.2477, 347.216234)"><g/></g></g><path fill="#ffc0bb" d="M 229.101562 176.125 C 225.03125 181.917969 220.578125 187.378906 216.789062 193.359375 C 212.386719 200.289062 209.308594 207.363281 207.320312 215.339844 C 201.78125 237.652344 190.226562 260.105469 167.875 269.265625 C 147.988281 277.386719 126.015625 272.351562 107.40625 263.332031 C 89.648438 256.402344 72.035156 245.4375 64.128906 227.253906 C 64.082031 227.160156 64.03125 227.0625 64.03125 226.96875 C 46.132812 181.679688 82.214844 121.34375 132.742188 121.390625 C 146 119.632812 156.75 113.035156 167.589844 105.582031 C 177.0625 99.03125 188.046875 90.535156 199.792969 89.347656 C 203.390625 88.96875 206.988281 89.300781 210.445312 90.296875 C 210.917969 90.4375 211.296875 90.628906 211.675781 90.816406 C 212.199219 90.867188 212.671875 91.007812 213.191406 91.199219 C 216.980469 92.765625 220.484375 94.902344 223.65625 97.464844 C 245.152344 114.648438 243.164062 156.046875 229.101562 176.125 Z M 229.101562 176.125 " fill-opacity="1" fill-rule="evenodd"/><path fill="#863c3b" d="M 164.277344 240.308594 C 145.621094 252.746094 124.453125 248.238281 105.609375 238.742188 C 83.019531 227.300781 69.382812 203.089844 71.277344 177.789062 L 71.277344 177.644531 C 71.894531 171.664062 73.3125 165.917969 75.445312 160.554688 C 64.082031 184.71875 61.855469 206.222656 68.816406 225.210938 C 74.972656 239.359375 88.515625 250.515625 109.445312 258.632812 C 152.863281 279.757812 189.230469 266.5625 202.300781 214.152344 C 211.0625 179.023438 235.777344 174.320312 237.199219 137.769531 C 232.9375 151.488281 217.832031 162.832031 206.609375 170.570312 C 203.53125 175.175781 200.925781 181.917969 198.890625 186.808594 C 195.433594 195.257812 192.023438 203.660156 187.761719 211.730469 C 182.035156 222.648438 174.695312 233.425781 164.277344 240.308594 Z M 164.277344 240.308594 " fill-opacity="1" fill-rule="evenodd"/><path fill="#d8474a" d="M 170.527344 226.113281 C 147.65625 200.195312 112.898438 188.328125 78.996094 194.878906 C 82.59375 211.066406 93.296875 225.164062 108.589844 232.902344 C 138.894531 248.238281 157.648438 240.832031 170.527344 226.113281 Z M 170.527344 226.113281 " fill-opacity="1" fill-rule="evenodd"/><path fill="#d8474a" d="M 78.097656 189.84375 C 113.277344 183.722656 148.839844 197.726562 170.527344 226.113281 C 178.246094 217.238281 183.832031 205.703125 188.519531 194.78125 C 178.292969 181.015625 175.59375 162.976562 181.324219 146.789062 C 177.441406 143.703125 174.980469 139.097656 174.980469 133.828125 C 174.980469 124.617188 182.746094 117.117188 192.308594 117.117188 C 195.90625 117.117188 199.316406 118.164062 202.109375 120.015625 C 206.847656 112.65625 209.261719 104.015625 209.023438 95.328125 C 185.207031 88.492188 167.355469 122.246094 133.167969 126.566406 C 111.101562 127.230469 91.96875 140.425781 83.019531 159.464844 C 108.921875 170.003906 138.515625 165.917969 160.582031 148.734375 C 139.273438 169.054688 108.257812 175.273438 80.84375 164.683594 C 79.328125 169.003906 78.285156 173.5625 77.8125 178.261719 C 77.480469 182.203125 77.621094 186.046875 78.097656 189.84375 Z M 78.097656 189.84375 " fill-opacity="1" fill-rule="evenodd"/><path fill="#d8474a" d="M 184.070312 148.542969 C 179.242188 163.261719 181.183594 179.449219 189.421875 192.597656 C 194.0625 181.585938 197.800781 171.519531 201.921875 165.871094 C 216.835938 155.664062 226.117188 146.691406 229.8125 138.957031 C 235.445312 125.804688 231.660156 110.472656 220.484375 101.5 C 217.265625 98.984375 214.234375 97.179688 211.296875 95.992188 C 211.960938 105.582031 210.351562 115.171875 206.371094 123.953125 C 208.503906 126.707031 209.6875 130.125 209.6875 133.78125 C 209.6875 142.992188 201.96875 150.492188 192.355469 150.492188 C 189.328125 150.492188 186.484375 149.777344 184.070312 148.542969 Z M 184.070312 148.542969 " fill-opacity="1" fill-rule="evenodd"/><path fill="#ffffff" d="M 192.308594 146.929688 C 199.554688 146.929688 205.425781 141.042969 205.425781 133.78125 C 205.425781 126.515625 199.554688 120.632812 192.308594 120.632812 C 185.066406 120.632812 179.191406 126.515625 179.191406 133.78125 C 179.191406 141.042969 185.066406 146.929688 192.308594 146.929688 Z M 192.308594 146.929688 " fill-opacity="1" fill-rule="evenodd"/><path fill="#000000" d="M 44.21875 84.992188 C 34.445312 84.992188 26.449219 92.988281 26.449219 102.761719 C 26.449219 112.535156 34.445312 120.53125 44.21875 120.53125 C 53.992188 120.53125 61.988281 112.535156 61.988281 102.761719 C 61.988281 92.988281 53.992188 84.992188 44.21875 84.992188 Z M 44.042969 111.117188 C 39.777344 111.117188 38.355469 108.09375 38.535156 106.316406 L 41.730469 106.316406 C 41.554688 106.851562 42.085938 108.449219 44.21875 108.449219 C 46.53125 108.449219 46.707031 106.496094 46.707031 106.140625 C 46.707031 103.652344 44.398438 103.652344 44.042969 103.652344 L 42.265625 103.652344 L 42.265625 101.164062 L 44.042969 101.164062 C 44.929688 101.164062 46.53125 100.988281 46.53125 98.855469 C 46.53125 96.898438 44.753906 96.722656 44.21875 96.722656 C 42.441406 96.722656 42.085938 98.144531 42.085938 98.5 L 38.710938 98.5 C 38.710938 95.300781 41.910156 94.054688 44.042969 94.054688 C 49.019531 94.054688 49.550781 97.433594 49.550781 98.675781 C 49.550781 100.988281 47.417969 102.050781 47.0625 102.230469 C 47.953125 102.585938 49.730469 103.472656 49.730469 106.140625 C 49.90625 110.050781 46.53125 111.117188 44.042969 111.117188 Z M 44.042969 111.117188 " fill-opacity="1" fill-rule="nonzero"/><g fill="#ffffff" fill-opacity="1"><g transform="translate(72.377666, 349.321766)"><g><path d="M 4.28125 0.09375 L 3.703125 0.0625 L 2.71875 -0.25 L 2.359375 -0.859375 L 2.390625 -6.765625 L 2.328125 -7.375 L 2.359375 -15.640625 L 2.296875 -16.25 L 2.421875 -17.53125 L 2.390625 -21.390625 L 2.6875 -21.890625 L 3.359375 -22.25 L 4.015625 -22.375 L 4.59375 -22.28125 L 5.296875 -22.25 L 7.28125 -22.375 L 7.921875 -22.28125 L 9.859375 -22.25 L 10.5625 -22.34375 L 11.59375 -22.375 L 12.546875 -22.34375 L 13.1875 -22.125 L 13.828125 -22.125 L 14.359375 -21.890625 L 15.640625 -21.515625 L 16.6875 -20.8125 L 18.125 -19.5625 L 18.890625 -18.515625 L 19.5 -17.421875 L 19.890625 -16.25 L 19.984375 -15.546875 L 20.109375 -15 L 20.046875 -12.390625 L 19.859375 -11.875 L 19.765625 -11.171875 L 19.21875 -9.921875 L 18.546875 -8.90625 L 18.125 -8.421875 L 17.71875 -8.015625 L 17.265625 -7.5 L 16.796875 -7.125 L 13.765625 -5.90625 L 10.46875 -5.65625 L 9.796875 -5.78125 L 9.09375 -5.71875 L 8.359375 -5.359375 L 8.078125 -4.78125 L 8.109375 -4.046875 L 8.046875 -3.453125 L 8.109375 -2.265625 L 8.078125 -1.5625 L 8.109375 -0.921875 L 7.828125 -0.25 L 7.15625 0 L 6.421875 0.0625 L 5.84375 0.03125 Z M 9.0625 -10.828125 L 9.828125 -10.890625 L 11.453125 -10.859375 L 12.453125 -10.984375 L 12.953125 -11.140625 L 13.46875 -11.53125 L 13.890625 -12.03125 L 14.171875 -12.546875 L 14.390625 -13.125 L 14.453125 -13.984375 L 14.390625 -14.875 L 14.296875 -15.453125 L 13.984375 -16.09375 L 13.5625 -16.5 L 13.0625 -16.859375 L 12.421875 -17.140625 L 9.09375 -17.234375 L 8.421875 -16.921875 L 8.109375 -16.3125 L 8.109375 -15 L 8.046875 -14.328125 L 8.140625 -11.75 L 8.421875 -11.203125 Z M 9.0625 -10.828125 "/></g></g></g><g fill="#ffffff" fill-opacity="1"><g transform="translate(93.377885, 349.321766)"><g><path d="M 2.453125 -1.015625 L 2.359375 -3.515625 L 2.421875 -4.1875 L 2.296875 -6.03125 L 2.390625 -7.34375 L 2.296875 -8.046875 L 2.328125 -9.25 L 2.390625 -9.921875 L 2.390625 -11.53125 L 2.296875 -12.453125 L 2.390625 -21.390625 L 2.65625 -22.0625 L 3.25 -22.34375 L 3.953125 -22.3125 L 4.5625 -22.40625 L 5.875 -22.28125 L 6.484375 -22.375 L 8.390625 -22.3125 L 8.9375 -22.375 L 9.640625 -22.3125 L 10.28125 -22.375 L 10.984375 -22.34375 L 11.90625 -22.375 L 12.703125 -22.3125 L 15.359375 -21.765625 L 16.46875 -21.203125 L 18.0625 -19.984375 L 18.359375 -19.5 L 18.796875 -19.03125 L 19.65625 -17.265625 L 19.828125 -16.625 L 19.921875 -16.03125 L 20.078125 -15.421875 L 20.046875 -12.890625 L 19.703125 -11.6875 L 19.46875 -11.140625 L 19.125 -10.5625 L 18.890625 -9.953125 L 18.515625 -9.421875 L 17.625 -8.5625 L 17.265625 -7.890625 L 17.359375 -7.125 L 18.328125 -5.453125 L 18.734375 -4.953125 L 19.0625 -4.375 L 19.4375 -3.796875 L 19.734375 -3.25 L 20.75 -1.6875 L 21.171875 -0.890625 L 21.03125 -0.21875 L 20.359375 -0.0625 L 19.65625 0 L 18.390625 0 L 17.75 -0.0625 L 17.046875 0 L 15.890625 -0.0625 L 15.09375 -0.25 L 14.453125 -0.828125 L 14.078125 -1.34375 L 13.796875 -1.890625 L 13.375 -2.484375 L 12.484375 -4.09375 L 12.265625 -4.6875 L 11.421875 -5.8125 L 10.921875 -6.359375 L 10.125 -6.609375 L 9.546875 -6.578125 L 8.96875 -6.578125 L 8.328125 -6.25 L 8.046875 -5.625 L 8.109375 -3.640625 L 8.015625 -2.265625 L 8.140625 -1.59375 L 8.078125 -0.921875 L 7.859375 -0.3125 L 6.859375 0 L 5.90625 0 L 5.234375 -0.0625 L 3.921875 0.03125 L 3.3125 0 L 2.6875 -0.3125 Z M 8.96875 -11.75 L 9.671875 -11.75 L 10.3125 -11.65625 L 12.796875 -11.875 L 13.28125 -12.09375 L 13.65625 -12.484375 L 14.015625 -13.03125 L 14.265625 -13.65625 L 14.359375 -14.53125 L 14.296875 -15.453125 L 14.078125 -15.953125 L 13.765625 -16.4375 L 12.765625 -17.046875 L 11.296875 -17.234375 L 9.546875 -17.265625 L 9.03125 -17.234375 L 8.390625 -16.921875 L 8.015625 -16.28125 L 8.109375 -12.703125 L 8.421875 -12.03125 Z M 8.96875 -11.75 "/></g></g></g><g fill="#ffffff" fill-opacity="1"><g transform="translate(115.271714, 349.321766)"><g><path d="M 11.9375 0.390625 L 11.265625 0.3125 L 10.125 0.0625 L 9.421875 0 L 8.484375 -0.3125 L 6 -1.59375 L 4.953125 -2.421875 L 4.59375 -2.84375 L 4.125 -3.28125 L 3.703125 -3.796875 L 3.3125 -4.1875 L 1.84375 -7.09375 L 1.5625 -8.296875 L 1.5 -8.90625 L 1.34375 -9.484375 L 1.25 -10.15625 L 1.34375 -12.734375 L 1.890625 -15.1875 L 2.359375 -16.40625 L 3.359375 -18.09375 L 4.921875 -19.921875 L 6 -20.71875 L 6.578125 -21 L 7.0625 -21.359375 L 9.453125 -22.25 L 12.828125 -22.734375 L 13.6875 -22.703125 L 15.546875 -22.375 L 18 -21.609375 L 18.484375 -21.265625 L 19.4375 -20.84375 L 20.171875 -20.328125 L 21.09375 -19.53125 L 22 -18.546875 L 22.703125 -17.59375 L 23.296875 -16.40625 L 24.09375 -14.015625 L 24.328125 -12.703125 L 24.421875 -11.109375 L 24.296875 -10.1875 L 24.265625 -9.515625 L 24.09375 -8.875 L 24.0625 -8.296875 L 23.8125 -7.09375 L 23.328125 -5.875 L 21.9375 -3.734375 L 21.484375 -3.28125 L 21.0625 -2.71875 L 20.171875 -1.953125 L 19.5625 -1.65625 L 19.09375 -1.28125 L 18.03125 -0.703125 L 15.640625 0.09375 L 13.71875 0.34375 Z M 13.71875 -5.265625 L 14.359375 -5.390625 L 14.84375 -5.625 L 15.421875 -5.78125 L 16.953125 -6.828125 L 17.390625 -7.34375 L 17.59375 -7.828125 L 17.9375 -8.390625 L 18.15625 -8.96875 L 18.421875 -10.15625 L 18.484375 -12.09375 L 18.390625 -12.671875 L 18.09375 -13.28125 L 17.71875 -14.5 L 16.46875 -15.796875 L 15.484375 -16.5 L 14.90625 -16.765625 L 14.328125 -16.890625 L 12.796875 -17.078125 L 11.90625 -17.015625 L 10.65625 -16.6875 L 10.25 -16.53125 L 8.65625 -15.453125 L 7.890625 -14.421875 L 7.6875 -13.859375 L 7.4375 -13.28125 L 7.34375 -12.671875 L 7.1875 -12.09375 L 7.1875 -10.15625 L 7.4375 -8.96875 L 7.71875 -8.390625 L 7.890625 -7.890625 L 8.328125 -7.28125 L 8.75 -6.828125 L 9.609375 -6.125 L 10.125 -5.84375 L 11.265625 -5.359375 L 11.96875 -5.265625 Z M 13.71875 -5.265625 "/></g></g></g><g fill="#ffffff" fill-opacity="1"><g transform="translate(139.846363, 349.321766)"><g><path d="M 6.125 -0.984375 L 6.09375 -3.484375 L 6.15625 -4.125 L 6.0625 -6.0625 L 6.09375 -6.734375 L 6.0625 -7.375 L 6.1875 -8.328125 L 6.09375 -9.25 L 6.09375 -10.53125 L 6.15625 -11.171875 L 6.09375 -11.78125 L 6.1875 -12.765625 L 6.09375 -16.28125 L 5.78125 -16.890625 L 5.203125 -17.234375 L 2.359375 -17.265625 L 1.53125 -17.171875 L 0.890625 -17.5 L 0.546875 -18.203125 L 0.578125 -21.390625 L 0.890625 -22.03125 L 1.59375 -22.34375 L 11.109375 -22.28125 L 11.84375 -22.375 L 12.484375 -22.375 L 13.125 -22.3125 L 13.765625 -22.3125 L 14.453125 -22.40625 L 15.0625 -22.40625 L 15.578125 -22.34375 L 16.34375 -22.40625 L 16.984375 -22.09375 L 17.296875 -21.453125 L 17.234375 -18.828125 L 17.296875 -18.15625 L 16.984375 -17.53125 L 16.25 -17.234375 L 14.5 -17.265625 L 13.921875 -17.203125 L 13.28125 -17.234375 L 12.734375 -17.203125 L 12.03125 -16.921875 L 11.78125 -16.34375 L 11.84375 -15.640625 L 11.75 -15 L 11.875 -8.65625 L 11.78125 -7.3125 L 11.84375 -6.734375 L 11.78125 -4.78125 L 11.6875 -4.125 L 11.78125 -3.578125 L 11.8125 -2.296875 L 11.75 -1.5625 L 11.78125 -0.953125 L 11.53125 -0.3125 L 10.890625 -0.0625 L 8.90625 -0.0625 L 8.296875 0 L 7.65625 -0.0625 L 7.0625 0 L 6.390625 -0.3125 Z M 6.125 -0.984375 "/></g></g></g><g fill="#ffffff" fill-opacity="1"><g transform="translate(157.36779, 349.321766)"><g><path d="M 2.296875 -0.921875 L 2.421875 -1.5625 L 2.453125 -2.203125 L 2.390625 -3.453125 L 2.390625 -4.09375 L 2.328125 -4.8125 L 2.421875 -5.390625 L 2.390625 -6 L 2.453125 -6.703125 L 2.359375 -7.375 L 2.421875 -8.65625 L 2.328125 -9.890625 L 2.421875 -10.5625 L 2.421875 -16.28125 L 2.359375 -16.859375 L 2.421875 -17.53125 L 2.296875 -19.15625 L 2.421875 -20.078125 L 2.359375 -21.359375 L 2.6875 -22.0625 L 3.609375 -22.28125 L 7.78125 -22.375 L 8.359375 -22.3125 L 9.609375 -22.34375 L 10.25 -22.28125 L 11.65625 -22.34375 L 12.296875 -22.25 L 12.859375 -22.3125 L 15.421875 -22.28125 L 16.09375 -22 L 16.40625 -21.359375 L 16.3125 -20.75 L 16.28125 -20.046875 L 16.375 -19.4375 L 16.4375 -18.125 L 16.09375 -17.5625 L 15.421875 -17.203125 L 9.296875 -17.171875 L 8.296875 -16.890625 L 7.984375 -15.953125 L 8.046875 -14.96875 L 8.421875 -14.390625 L 8.96875 -14.046875 L 11.484375 -14.078125 L 12.21875 -14.015625 L 12.890625 -14.015625 L 13.53125 -14.078125 L 14.8125 -14.046875 L 15.359375 -13.6875 L 15.640625 -13.09375 L 15.703125 -12.453125 L 15.640625 -9.921875 L 15.328125 -9.328125 L 14.6875 -8.96875 L 14.109375 -8.9375 L 13.4375 -9 L 12.578125 -8.9375 L 10.890625 -9.03125 L 10.25 -8.96875 L 9 -8.96875 L 8.421875 -8.625 L 8.140625 -7.953125 L 8.109375 -6.390625 L 8.390625 -5.390625 L 9.0625 -5.015625 L 9.765625 -5.078125 L 10.46875 -5.015625 L 11.078125 -5.109375 L 15.296875 -5.046875 L 16.25 -4.71875 L 16.65625 -4.09375 L 16.59375 -3.484375 L 16.625 -1.5 L 16.5625 -0.890625 L 16.28125 -0.28125 L 15.609375 0.03125 L 15 0.09375 L 13.0625 -0.03125 L 11.109375 0.0625 L 10.53125 -0.03125 L 3.3125 0.03125 L 2.71875 -0.3125 Z M 2.296875 -0.921875 "/></g></g></g><g fill="#ffffff" fill-opacity="1"><g transform="translate(175.655213, 349.321766)"><g><path d="M 1.53125 -0.921875 L 1.53125 -3.390625 L 1.59375 -3.984375 L 1.984375 -4.59375 L 4.09375 -5.265625 L 4.40625 -5.96875 L 4.46875 -7.21875 L 4.34375 -8.59375 L 4.5 -9.21875 L 4.375 -10.46875 L 4.4375 -11.109375 L 4.46875 -12.421875 L 4.375 -13.15625 L 4.34375 -13.6875 L 4.4375 -16.40625 L 4.015625 -16.984375 L 2.078125 -17.65625 L 1.75 -18.265625 L 1.75 -18.859375 L 1.6875 -19.5 L 1.6875 -20.203125 L 1.75 -20.75 L 1.75 -21.359375 L 2.109375 -22.03125 L 2.8125 -22.34375 L 4.046875 -22.28125 L 4.65625 -22.3125 L 6.609375 -22.28125 L 7.3125 -22.34375 L 11.359375 -22.3125 L 12.390625 -22.03125 L 12.640625 -21.390625 L 12.703125 -20.75 L 12.640625 -20.171875 L 12.640625 -18.296875 L 12.296875 -17.6875 L 11.6875 -17.328125 L 10.984375 -17.296875 L 10.375 -16.953125 L 10.03125 -16.375 L 10.03125 -15.03125 L 10.09375 -14.359375 L 10.03125 -13.71875 L 10.09375 -13.125 L 10.03125 -12.125 L 10.09375 -11.171875 L 9.953125 -9.828125 L 10.09375 -8.5625 L 10.03125 -5.9375 L 10.375 -5.296875 L 12.515625 -4.625 L 12.953125 -4.09375 L 12.859375 -2.140625 L 12.921875 -1.5625 L 12.921875 -0.859375 L 12.578125 -0.28125 L 11.96875 0.03125 L 2.484375 -0.03125 L 1.84375 -0.25 Z M 1.53125 -0.921875 "/></g></g></g><g fill="#ffffff" fill-opacity="1"><g transform="translate(190.144727, 349.321766)"><g><path d="M 18.828125 -0.515625 L 18.421875 -0.921875 L 18.03125 -1.40625 L 17.53125 -1.8125 L 17.109375 -2.328125 L 14.015625 -5.421875 L 13.5 -5.84375 L 8.9375 -10.3125 L 8.515625 -10.40625 L 8.203125 -10.03125 L 8.328125 -9.359375 L 8.234375 -1.53125 L 8.328125 -0.890625 L 8.046875 -0.25 L 7.40625 0.0625 L 6.671875 0 L 6 0.09375 L 4.40625 0 L 3.3125 0.0625 L 2.71875 -0.28125 L 2.421875 -0.984375 L 2.421875 -1.59375 L 2.328125 -2.234375 L 2.421875 -3.453125 L 2.359375 -4.09375 L 2.390625 -5.390625 L 2.296875 -6.0625 L 2.296875 -6.671875 L 2.359375 -7.375 L 2.359375 -7.984375 L 2.421875 -8.5625 L 2.296875 -13.125 L 2.390625 -13.796875 L 2.359375 -14.453125 L 2.421875 -15.03125 L 2.328125 -16.34375 L 2.390625 -16.984375 L 2.328125 -21.453125 L 2.75 -22.0625 L 3.515625 -22.4375 L 4.375 -22.1875 L 5.65625 -21.328125 L 7.375 -19.5625 L 7.78125 -19.03125 L 8.328125 -18.640625 L 8.65625 -18.15625 L 9.25 -17.75 L 9.609375 -17.265625 L 10.59375 -16.4375 L 11.265625 -15.734375 L 11.625 -15.296875 L 12.125 -14.90625 L 13.25 -13.765625 L 13.71875 -13.375 L 15.125 -11.9375 L 15.578125 -11.8125 L 15.734375 -12.328125 L 15.703125 -13.59375 L 15.828125 -14.265625 L 15.828125 -14.875 L 15.703125 -15.546875 L 15.734375 -21.359375 L 16.0625 -22.03125 L 16.828125 -22.34375 L 17.46875 -22.3125 L 18.03125 -22.375 L 18.703125 -22.28125 L 19.40625 -22.34375 L 20.015625 -22.34375 L 20.65625 -22.28125 L 21.359375 -21.96875 L 21.734375 -21.390625 L 21.671875 -19.734375 L 21.734375 -18.765625 L 21.609375 -18.125 L 21.609375 -16.859375 L 21.671875 -16.25 L 21.578125 -14.96875 L 21.703125 -11.140625 L 21.640625 -10.4375 L 21.765625 -9.546875 L 21.609375 -0.859375 L 21.328125 -0.1875 L 20.59375 0.15625 L 19.765625 -0.09375 Z M 18.828125 -0.515625 "/></g></g></g><g fill="#ffffff" fill-opacity="1"><g transform="translate(214.208815, 349.321766)"><g><path d="M 0.421875 -0.859375 L 0.796875 -2.203125 L 1.078125 -2.84375 L 1.46875 -3.359375 L 2.390625 -5.6875 L 3.28125 -7.34375 L 3.515625 -7.984375 L 3.796875 -8.484375 L 3.984375 -9.15625 L 4.4375 -9.984375 L 4.65625 -10.59375 L 5.140625 -11.421875 L 5.65625 -12.578125 L 6 -13.15625 L 6.15625 -13.6875 L 7.953125 -17.71875 L 8.296875 -18.296875 L 9.671875 -21.171875 L 9.859375 -21.734375 L 10.46875 -22.3125 L 11.484375 -22.625 L 12.578125 -22.34375 L 13.15625 -21.734375 L 13.34375 -21.125 L 13.625 -20.65625 L 14.140625 -19.4375 L 14.78125 -18.265625 L 15.265625 -17.140625 L 15.421875 -16.625 L 16 -15.421875 L 16.1875 -14.8125 L 16.828125 -13.6875 L 16.984375 -13.09375 L 17.296875 -12.546875 L 17.5625 -12 L 17.90625 -11.421875 L 18.09375 -10.796875 L 18.390625 -10.3125 L 18.609375 -9.671875 L 18.890625 -9.125 L 19.15625 -8.484375 L 19.5 -7.984375 L 19.953125 -6.796875 L 20.265625 -6.25 L 20.5 -5.65625 L 21.03125 -4.5 L 21.234375 -3.890625 L 21.546875 -3.421875 L 21.734375 -2.78125 L 22.15625 -2.234375 L 22.375 -1.65625 L 22.5625 -0.859375 L 22.4375 -0.1875 L 21.859375 0 L 19.890625 0.0625 L 18.765625 -0.03125 L 18.203125 0.03125 L 17.359375 -0.28125 L 16.828125 -0.796875 L 16.46875 -1.375 L 16.3125 -1.953125 L 15.640625 -2.453125 L 14.59375 -2.8125 L 13.09375 -2.75 L 12.421875 -2.8125 L 11.84375 -2.8125 L 11.109375 -2.71875 L 10.4375 -2.8125 L 8.65625 -2.78125 L 8.015625 -2.84375 L 7.25 -2.515625 L 6.703125 -1.921875 L 6.15625 -0.828125 L 5.59375 -0.25 L 4.859375 0.0625 L 4.015625 -0.03125 L 1.21875 -0.03125 L 0.578125 -0.1875 Z M 10.28125 -7.890625 L 12.765625 -7.921875 L 13.3125 -8.171875 L 13.375 -8.75 L 13.15625 -9.328125 L 12.828125 -9.953125 L 12.703125 -10.46875 L 12.359375 -11.015625 L 11.9375 -12.265625 L 11.5625 -12.515625 L 11.140625 -12.1875 L 10.859375 -11.6875 L 9.578125 -8.78125 L 9.671875 -8.140625 Z M 10.28125 -7.890625 "/></g></g></g></svg>