<svg xmlns="http://www.w3.org/2000/svg" xmlns:xlink="http://www.w3.org/1999/xlink" width="415" zoomAndPan="magnify" viewBox="0 0 311.25 405.749988" height="541" preserveAspectRatio="xMidYMid meet" version="1.0"><defs><g/><clipPath id="bc9cd4e582"><path d="M 9.875 0.363281 L 292.542969 0.363281 L 292.542969 405.136719 L 9.875 405.136719 Z M 9.875 0.363281 " clip-rule="nonzero"/></clipPath><clipPath id="3beceeaac1"><path d="M 29.449219 0.363281 L 272.96875 0.363281 C 278.160156 0.363281 283.140625 2.425781 286.8125 6.097656 C 290.480469 9.765625 292.542969 14.746094 292.542969 19.9375 L 292.542969 385.449219 C 292.542969 390.640625 290.480469 395.617188 286.8125 399.289062 C 283.140625 402.960938 278.160156 405.019531 272.96875 405.019531 L 29.449219 405.019531 C 24.257812 405.019531 19.277344 402.960938 15.605469 399.289062 C 11.9375 395.617188 9.875 390.640625 9.875 385.449219 L 9.875 19.9375 C 9.875 14.746094 11.9375 9.765625 15.605469 6.097656 C 19.277344 2.425781 24.257812 0.363281 29.449219 0.363281 Z M 29.449219 0.363281 " clip-rule="nonzero"/></clipPath><clipPath id="330d42d756"><path d="M 0.875 0.363281 L 283.542969 0.363281 L 283.542969 405 L 0.875 405 Z M 0.875 0.363281 " clip-rule="nonzero"/></clipPath><clipPath id="8a452ec185"><path d="M 20.449219 0.363281 L 263.96875 0.363281 C 269.160156 0.363281 274.140625 2.425781 277.8125 6.097656 C 281.480469 9.765625 283.542969 14.746094 283.542969 19.9375 L 283.542969 385.449219 C 283.542969 390.640625 281.480469 395.617188 277.8125 399.289062 C 274.140625 402.960938 269.160156 405.019531 263.96875 405.019531 L 20.449219 405.019531 C 15.257812 405.019531 10.277344 402.960938 6.605469 399.289062 C 2.9375 395.617188 0.875 390.640625 0.875 385.449219 L 0.875 19.9375 C 0.875 14.746094 2.9375 9.765625 6.605469 6.097656 C 10.277344 2.425781 15.257812 0.363281 20.449219 0.363281 Z M 20.449219 0.363281 " clip-rule="nonzero"/></clipPath><clipPath id="f775f66a22"><rect x="0" width="284" y="0" height="406"/></clipPath><clipPath id="3589a55d69"><path d="M 20 8.398438 L 282.960938 8.398438 L 282.960938 393 L 20 393 Z M 20 8.398438 " clip-rule="nonzero"/></clipPath><clipPath id="e69b78a708"><path d="M 33.226562 8.398438 L 269.738281 8.398438 C 273.246094 8.398438 276.609375 9.792969 279.089844 12.273438 C 281.570312 14.753906 282.960938 18.117188 282.960938 21.625 L 282.960938 379.609375 C 282.960938 383.117188 281.570312 386.480469 279.089844 388.960938 C 276.609375 391.441406 273.246094 392.835938 269.738281 392.835938 L 33.226562 392.835938 C 29.71875 392.835938 26.351562 391.441406 23.875 388.960938 C 21.394531 386.480469 20 383.117188 20 379.609375 L 20 21.625 C 20 18.117188 21.394531 14.753906 23.875 12.273438 C 26.351562 9.792969 29.71875 8.398438 33.226562 8.398438 Z M 33.226562 8.398438 " clip-rule="nonzero"/></clipPath><clipPath id="29a7b0fb7f"><path d="M 0 0.398438 L 262.960938 0.398438 L 262.960938 385 L 0 385 Z M 0 0.398438 " clip-rule="nonzero"/></clipPath><clipPath id="f718d1afb0"><path d="M 13.226562 0.398438 L 249.738281 0.398438 C 253.246094 0.398438 256.609375 1.792969 259.089844 4.273438 C 261.570312 6.753906 262.960938 10.117188 262.960938 13.625 L 262.960938 371.609375 C 262.960938 375.117188 261.570312 378.480469 259.089844 380.960938 C 256.609375 383.441406 253.246094 384.835938 249.738281 384.835938 L 13.226562 384.835938 C 9.71875 384.835938 6.351562 383.441406 3.875 380.960938 C 1.394531 378.480469 0 375.117188 0 371.609375 L 0 13.625 C 0 10.117188 1.394531 6.753906 3.875 4.273438 C 6.351562 1.792969 9.71875 0.398438 13.226562 0.398438 Z M 13.226562 0.398438 " clip-rule="nonzero"/></clipPath><clipPath id="62f76c3a9c"><rect x="0" width="263" y="0" height="385"/></clipPath><clipPath id="5745790032"><path d="M 10.898438 8.398438 L 293 8.398438 L 293 78.289062 L 10.898438 78.289062 Z M 10.898438 8.398438 " clip-rule="nonzero"/></clipPath><clipPath id="9f608284f6"><path d="M 22.539062 8.398438 L 281.320312 8.398438 C 287.75 8.398438 292.960938 13.609375 292.960938 20.035156 L 292.960938 66.652344 C 292.960938 73.078125 287.75 78.289062 281.320312 78.289062 L 22.539062 78.289062 C 16.109375 78.289062 10.898438 73.078125 10.898438 66.652344 L 10.898438 20.035156 C 10.898438 13.609375 16.109375 8.398438 22.539062 8.398438 Z M 22.539062 8.398438 " clip-rule="nonzero"/></clipPath><clipPath id="a42a032a83"><path d="M 0.898438 0.398438 L 283 0.398438 L 283 70.289062 L 0.898438 70.289062 Z M 0.898438 0.398438 " clip-rule="nonzero"/></clipPath><clipPath id="95e866441f"><path d="M 12.539062 0.398438 L 271.320312 0.398438 C 277.75 0.398438 282.960938 5.609375 282.960938 12.035156 L 282.960938 58.652344 C 282.960938 65.078125 277.75 70.289062 271.320312 70.289062 L 12.539062 70.289062 C 6.109375 70.289062 0.898438 65.078125 0.898438 58.652344 L 0.898438 12.035156 C 0.898438 5.609375 6.109375 0.398438 12.539062 0.398438 Z M 12.539062 0.398438 " clip-rule="nonzero"/></clipPath><clipPath id="b410237d85"><rect x="0" width="283" y="0" height="71"/></clipPath><clipPath id="2c481b574d"><path d="M 13.121094 272.652344 L 295.265625 272.652344 L 295.265625 392.835938 L 13.121094 392.835938 Z M 13.121094 272.652344 " clip-rule="nonzero"/></clipPath><clipPath id="ea9c0fae77"><path d="M 24.761719 272.652344 L 283.542969 272.652344 C 289.972656 272.652344 295.183594 277.863281 295.183594 284.292969 L 295.183594 381.195312 C 295.183594 387.625 289.972656 392.835938 283.542969 392.835938 L 24.761719 392.835938 C 18.332031 392.835938 13.121094 387.625 13.121094 381.195312 L 13.121094 284.292969 C 13.121094 277.863281 18.332031 272.652344 24.761719 272.652344 Z M 24.761719 272.652344 " clip-rule="nonzero"/></clipPath><clipPath id="1636f47c7e"><path d="M 0.121094 0.652344 L 282.207031 0.652344 L 282.207031 120.835938 L 0.121094 120.835938 Z M 0.121094 0.652344 " clip-rule="nonzero"/></clipPath><clipPath id="3d94393c6a"><path d="M 11.761719 0.652344 L 270.542969 0.652344 C 276.972656 0.652344 282.183594 5.863281 282.183594 12.292969 L 282.183594 109.195312 C 282.183594 115.625 276.972656 120.835938 270.542969 120.835938 L 11.761719 120.835938 C 5.332031 120.835938 0.121094 115.625 0.121094 109.195312 L 0.121094 12.292969 C 0.121094 5.863281 5.332031 0.652344 11.761719 0.652344 Z M 11.761719 0.652344 " clip-rule="nonzero"/></clipPath><clipPath id="6f89060daa"><rect x="0" width="283" y="0" height="121"/></clipPath><clipPath id="c5b6a2086b"><path d="M 89.964844 130.367188 L 244.136719 130.367188 L 244.136719 276.925781 L 89.964844 276.925781 Z M 89.964844 130.367188 " clip-rule="nonzero"/></clipPath><clipPath id="7584a3e706"><path d="M 60 98.113281 L 117 98.113281 L 117 182 L 60 182 Z M 60 98.113281 " clip-rule="nonzero"/></clipPath><clipPath id="e870801bfd"><path d="M 63.492188 132.691406 L 265.539062 132.691406 L 265.539062 239.914062 L 63.492188 239.914062 Z M 63.492188 132.691406 " clip-rule="nonzero"/></clipPath></defs><g clip-path="url(#bc9cd4e582)"><g clip-path="url(#3beceeaac1)"><g transform="matrix(1, 0, 0, 1, 9, -0.000000000000060896)"><g clip-path="url(#f775f66a22)"><g clip-path="url(#330d42d756)"><g clip-path="url(#8a452ec185)"><path fill="#cd7f32" d="M 0.875 0.363281 L 283.542969 0.363281 L 283.542969 404.492188 L 0.875 404.492188 Z M 0.875 0.363281 " fill-opacity="1" fill-rule="nonzero"/></g></g></g></g></g></g><g clip-path="url(#3589a55d69)"><g clip-path="url(#e69b78a708)"><g transform="matrix(1, 0, 0, 1, 20, 8)"><g clip-path="url(#62f76c3a9c)"><g clip-path="url(#29a7b0fb7f)"><g clip-path="url(#f718d1afb0)"><path fill="#fffaed" d="M 0 0.398438 L 262.960938 0.398438 L 262.960938 384.570312 L 0 384.570312 Z M 0 0.398438 " fill-opacity="1" fill-rule="nonzero"/></g></g></g></g></g></g><g clip-path="url(#5745790032)"><g clip-path="url(#9f608284f6)"><g transform="matrix(1, 0, 0, 1, 10, 8)"><g clip-path="url(#b410237d85)"><g clip-path="url(#a42a032a83)"><g clip-path="url(#95e866441f)"><path fill="#cd7f32" d="M 0.898438 0.398438 L 282.925781 0.398438 L 282.925781 70.289062 L 0.898438 70.289062 Z M 0.898438 0.398438 " fill-opacity="1" fill-rule="nonzero"/></g></g></g></g></g></g><g fill="#ffffff" fill-opacity="1"><g transform="translate(99.713419, 52.542071)"><g><path d="M 2.046875 -0.8125 L 2.015625 -9.1875 L 2.0625 -9.828125 L 2.015625 -10.359375 L 2.046875 -10.890625 L 2.09375 -11.40625 L 2.046875 -12.046875 L 2.09375 -12.546875 L 2.0625 -13.125 L 2.015625 -13.609375 L 2.125 -16.734375 L 2.046875 -17.578125 L 2.125 -18.71875 L 2.296875 -19.21875 L 2.90625 -19.53125 L 3.6875 -19.5 L 4.28125 -19.5625 L 5.703125 -19.5625 L 6.203125 -19.5 L 7.296875 -19.5 L 8.15625 -19.5625 L 8.71875 -19.53125 L 9.546875 -19.578125 L 10.0625 -19.53125 L 11.140625 -19.578125 L 11.765625 -19.5 L 13.4375 -19.53125 L 13.90625 -19.21875 L 14.25 -18.390625 L 14.1875 -17.328125 L 14.25 -15.890625 L 13.96875 -15.34375 L 13.40625 -15.0625 L 11.28125 -15.109375 L 10.703125 -15.0625 L 10.140625 -15.09375 L 9.640625 -15.0625 L 8.828125 -15.109375 L 7.9375 -15.109375 L 7.40625 -14.75 L 7.125 -14.1875 L 7.1875 -12.9375 L 7.125 -12.40625 L 7.125 -11.625 L 7.4375 -11.03125 L 7.984375 -10.8125 L 8.609375 -10.84375 L 9.6875 -10.703125 L 11.171875 -10.8125 L 12.546875 -10.75 L 13.125 -10.53125 L 13.40625 -9.96875 L 13.4375 -7.484375 L 13.15625 -6.625 L 12.578125 -6.34375 L 11.421875 -6.28125 L 10.875 -6.34375 L 10.28125 -6.3125 L 9.71875 -6.375 L 9.15625 -6.265625 L 8.578125 -6.375 L 7.96875 -6.3125 L 7.40625 -6.0625 L 7.15625 -5.5 L 7.1875 -2.546875 L 7.125 -2.015625 L 7.203125 -1.125 L 6.875 -0.28125 L 6.28125 -0.03125 L 4.890625 0.078125 L 2.9375 0 L 2.3125 -0.28125 Z M 2.046875 -0.8125 "/></g></g></g><g fill="#ffffff" fill-opacity="1"><g transform="translate(114.934656, 52.542071)"><g><path d="M 1.34375 -0.8125 L 1.34375 -2.96875 L 1.390625 -3.484375 L 1.734375 -4.015625 L 3.578125 -4.609375 L 3.859375 -5.21875 L 3.90625 -6.3125 L 3.796875 -7.515625 L 3.9375 -8.078125 L 3.828125 -9.15625 L 3.890625 -9.71875 L 3.90625 -10.875 L 3.828125 -11.515625 L 3.796875 -11.984375 L 3.890625 -14.359375 L 3.515625 -14.859375 L 1.8125 -15.453125 L 1.53125 -15.984375 L 1.53125 -16.515625 L 1.484375 -17.0625 L 1.484375 -17.6875 L 1.53125 -18.15625 L 1.53125 -18.6875 L 1.84375 -19.28125 L 2.453125 -19.5625 L 3.546875 -19.5 L 4.078125 -19.53125 L 5.78125 -19.5 L 6.390625 -19.5625 L 9.953125 -19.53125 L 10.84375 -19.28125 L 11.0625 -18.71875 L 11.125 -18.15625 L 11.0625 -17.65625 L 11.0625 -16.015625 L 10.75 -15.484375 L 10.21875 -15.171875 L 9.609375 -15.140625 L 9.078125 -14.828125 L 8.765625 -14.328125 L 8.765625 -13.15625 L 8.828125 -12.578125 L 8.765625 -12.015625 L 8.828125 -11.484375 L 8.765625 -10.609375 L 8.828125 -9.78125 L 8.71875 -8.609375 L 8.828125 -7.484375 L 8.765625 -5.203125 L 9.078125 -4.640625 L 10.953125 -4.046875 L 11.34375 -3.578125 L 11.265625 -1.875 L 11.3125 -1.375 L 11.3125 -0.75 L 11 -0.25 L 10.46875 0.03125 L 2.171875 -0.03125 L 1.625 -0.21875 Z M 1.34375 -0.8125 "/></g></g></g><g fill="#ffffff" fill-opacity="1"><g transform="translate(127.614368, 52.542071)"><g><path d="M 2.09375 -0.859375 L 2.15625 -1.921875 L 2.0625 -4.15625 L 2.125 -4.71875 L 2.0625 -6.953125 L 2.15625 -8.046875 L 2.0625 -8.625 L 2.15625 -9.15625 L 2.0625 -10.359375 L 2.15625 -11.421875 L 2.046875 -13.65625 L 2.125 -14.21875 L 2.046875 -14.78125 L 2.125 -15.390625 L 2.0625 -16.453125 L 2.09375 -17.015625 L 2.046875 -17.578125 L 2.046875 -18.71875 L 2.453125 -19.25 L 2.96875 -19.5625 L 3.546875 -19.53125 L 4.046875 -19.5625 L 4.609375 -19.5 L 6.390625 -19.5625 L 6.953125 -19.5 L 10.921875 -19.46875 L 12.0625 -19.25 L 13.609375 -18.75 L 14.171875 -18.46875 L 15.203125 -17.828125 L 15.984375 -17.0625 L 16.453125 -16.703125 L 17.1875 -15.84375 L 17.40625 -15.359375 L 18.046875 -14.421875 L 18.46875 -13.296875 L 18.609375 -12.796875 L 18.65625 -12.203125 L 19.078125 -10.609375 L 18.96875 -8.828125 L 19 -8.359375 L 18.859375 -7.765625 L 18.78125 -7.1875 L 18.578125 -6.671875 L 18.46875 -6.125 L 18.1875 -5.59375 L 18.046875 -5.0625 L 17.1875 -3.65625 L 16.0625 -2.375 L 13.6875 -0.78125 L 12.0625 -0.28125 L 10.28125 -0.03125 L 5.25 0 L 4.671875 0.078125 L 4.109375 0.078125 L 3.515625 0 L 2.875 0 L 2.4375 -0.25 Z M 8.015625 -4.5 L 10.34375 -4.609375 L 11.34375 -4.890625 L 11.90625 -5.171875 L 12.34375 -5.453125 L 12.6875 -5.890625 L 13.046875 -6.28125 L 13.40625 -6.78125 L 13.828125 -7.796875 L 14 -8.328125 L 14.140625 -9.6875 L 14.046875 -10.5625 L 13.71875 -12.203125 L 13.359375 -12.65625 L 13.046875 -13.1875 L 12.34375 -13.96875 L 11.40625 -14.578125 L 10.28125 -14.921875 L 9.4375 -14.96875 L 8.859375 -14.953125 L 8.265625 -14.96875 L 7.453125 -14.671875 L 7.125 -14.171875 L 7.125 -6.984375 L 7.046875 -6.421875 L 7.15625 -5.921875 L 7.09375 -5.359375 L 7.34375 -4.75 Z M 8.015625 -4.5 "/></g></g></g><g fill="#ffffff" fill-opacity="1"><g transform="translate(147.918666, 52.542071)"><g><path d="M 2.015625 -0.8125 L 2.125 -1.375 L 2.15625 -1.921875 L 2.09375 -3.015625 L 2.09375 -3.578125 L 2.046875 -4.21875 L 2.125 -4.71875 L 2.09375 -5.25 L 2.15625 -5.859375 L 2.0625 -6.453125 L 2.125 -7.578125 L 2.046875 -8.65625 L 2.125 -9.25 L 2.125 -14.25 L 2.0625 -14.75 L 2.125 -15.34375 L 2.015625 -16.765625 L 2.125 -17.578125 L 2.0625 -18.6875 L 2.34375 -19.3125 L 3.15625 -19.5 L 6.8125 -19.578125 L 7.3125 -19.53125 L 8.40625 -19.5625 L 8.96875 -19.5 L 10.203125 -19.5625 L 10.75 -19.46875 L 11.265625 -19.53125 L 13.5 -19.5 L 14.078125 -19.25 L 14.359375 -18.6875 L 14.28125 -18.15625 L 14.25 -17.546875 L 14.328125 -17.015625 L 14.390625 -15.875 L 14.078125 -15.359375 L 13.5 -15.0625 L 8.125 -15.03125 L 7.265625 -14.78125 L 6.984375 -13.96875 L 7.046875 -13.109375 L 7.375 -12.59375 L 7.84375 -12.296875 L 10.0625 -12.328125 L 10.703125 -12.265625 L 11.28125 -12.265625 L 11.84375 -12.328125 L 12.96875 -12.296875 L 13.4375 -11.984375 L 13.6875 -11.453125 L 13.75 -10.890625 L 13.6875 -8.6875 L 13.40625 -8.15625 L 12.84375 -7.84375 L 12.34375 -7.828125 L 11.765625 -7.875 L 11 -7.828125 L 9.53125 -7.90625 L 8.96875 -7.84375 L 7.875 -7.84375 L 7.375 -7.546875 L 7.125 -6.953125 L 7.09375 -5.59375 L 7.34375 -4.71875 L 7.9375 -4.390625 L 8.546875 -4.4375 L 9.15625 -4.390625 L 9.6875 -4.46875 L 13.375 -4.421875 L 14.21875 -4.140625 L 14.578125 -3.578125 L 14.53125 -3.046875 L 14.5625 -1.3125 L 14.5 -0.78125 L 14.25 -0.25 L 13.65625 0.03125 L 13.125 0.078125 L 11.421875 -0.03125 L 9.71875 0.0625 L 9.21875 -0.03125 L 2.90625 0.03125 L 2.375 -0.28125 Z M 2.015625 -0.8125 "/></g></g></g><g fill="#ffffff" fill-opacity="1"><g transform="translate(163.921917, 52.542071)"><g><path d="M 10.453125 0.328125 L 9.859375 0.28125 L 8.859375 0.0625 L 8.234375 0 L 7.4375 -0.28125 L 5.25 -1.390625 L 4.328125 -2.125 L 4.015625 -2.484375 L 3.609375 -2.875 L 3.234375 -3.328125 L 2.90625 -3.65625 L 1.625 -6.203125 L 1.375 -7.265625 L 1.3125 -7.796875 L 1.171875 -8.296875 L 1.09375 -8.890625 L 1.171875 -11.140625 L 1.640625 -13.296875 L 2.0625 -14.359375 L 2.9375 -15.84375 L 4.296875 -17.4375 L 5.25 -18.125 L 5.75 -18.390625 L 6.171875 -18.6875 L 8.265625 -19.46875 L 11.234375 -19.890625 L 11.984375 -19.859375 L 13.609375 -19.578125 L 15.75 -18.90625 L 16.171875 -18.609375 L 17.015625 -18.25 L 17.65625 -17.796875 L 18.46875 -17.09375 L 19.25 -16.234375 L 19.859375 -15.390625 L 20.390625 -14.359375 L 21.09375 -12.265625 L 21.28125 -11.125 L 21.375 -9.71875 L 21.265625 -8.90625 L 21.234375 -8.328125 L 21.09375 -7.765625 L 21.0625 -7.265625 L 20.84375 -6.203125 L 20.421875 -5.140625 L 19.1875 -3.265625 L 18.796875 -2.875 L 18.4375 -2.375 L 17.65625 -1.703125 L 17.125 -1.453125 L 16.703125 -1.125 L 15.78125 -0.609375 L 13.6875 0.078125 L 12.015625 0.3125 Z M 12.015625 -4.609375 L 12.578125 -4.71875 L 12.984375 -4.921875 L 13.5 -5.0625 L 14.828125 -5.984375 L 15.21875 -6.421875 L 15.390625 -6.84375 L 15.703125 -7.34375 L 15.890625 -7.84375 L 16.125 -8.890625 L 16.171875 -10.59375 L 16.09375 -11.09375 L 15.84375 -11.625 L 15.5 -12.6875 L 14.421875 -13.828125 L 13.546875 -14.4375 L 13.046875 -14.671875 L 12.546875 -14.78125 L 11.203125 -14.953125 L 10.421875 -14.890625 L 9.328125 -14.609375 L 8.96875 -14.46875 L 7.578125 -13.515625 L 6.90625 -12.625 L 6.734375 -12.125 L 6.515625 -11.625 L 6.421875 -11.09375 L 6.28125 -10.59375 L 6.28125 -8.890625 L 6.515625 -7.84375 L 6.765625 -7.34375 L 6.90625 -6.90625 L 7.296875 -6.375 L 7.65625 -5.984375 L 8.40625 -5.359375 L 8.859375 -5.109375 L 9.859375 -4.6875 L 10.46875 -4.609375 Z M 12.015625 -4.609375 "/></g></g></g><g fill="#ffffff" fill-opacity="1"><g transform="translate(186.320884, 52.542071)"><g><path d="M 8.109375 0.21875 L 6.921875 0.140625 L 6.390625 -0.0625 L 5.78125 -0.140625 L 3.765625 -1.0625 L 3.296875 -1.375 L 2.484375 -2.171875 L 1.78125 -3.046875 L 1.34375 -4.15625 L 1.234375 -4.671875 L 1.171875 -5.28125 L 1.375 -5.859375 L 1.921875 -6.125 L 2.484375 -6.09375 L 3.046875 -6.140625 L 5.171875 -6.09375 L 5.734375 -5.859375 L 6.140625 -5.3125 L 6.5625 -4.921875 L 7.0625 -4.609375 L 7.484375 -4.421875 L 8.125 -4.25 L 8.96875 -4.1875 L 9.75 -4.21875 L 10.78125 -4.53125 L 11.234375 -4.78125 L 11.671875 -5.171875 L 11.84375 -5.890625 L 11.703125 -6.625 L 11.3125 -6.953125 L 10.3125 -7.375 L 9.75 -7.40625 L 9.25 -7.484375 L 6.953125 -7.65625 L 5.953125 -7.875 L 4.359375 -8.40625 L 3.375 -9 L 2.59375 -9.71875 L 1.90625 -10.640625 L 1.53125 -11.625 L 1.34375 -12.40625 L 1.3125 -14.28125 L 1.703125 -15.890625 L 1.984375 -16.34375 L 2.171875 -16.84375 L 2.546875 -17.203125 L 2.84375 -17.6875 L 3.359375 -18.015625 L 3.75 -18.390625 L 4.296875 -18.71875 L 4.75 -18.890625 L 5.203125 -19.171875 L 5.703125 -19.359375 L 7.90625 -19.8125 L 9.46875 -19.828125 L 10.078125 -19.703125 L 10.59375 -19.640625 L 11.171875 -19.53125 L 12.71875 -19 L 14.5 -17.765625 L 14.859375 -17.34375 L 15.140625 -16.90625 L 15.5 -16.453125 L 15.953125 -15.453125 L 16.171875 -14.359375 L 15.921875 -13.828125 L 15.390625 -13.5 L 14.859375 -13.546875 L 14.359375 -13.5 L 12.515625 -13.546875 L 11.65625 -13.828125 L 10.734375 -14.8125 L 10.3125 -15.140625 L 9.6875 -15.359375 L 7.90625 -15.3125 L 7.40625 -15.203125 L 7.015625 -15.03125 L 6.53125 -14.671875 L 6.234375 -14.28125 L 6.140625 -13.546875 L 6.171875 -12.796875 L 6.625 -12.34375 L 7.046875 -12.125 L 8.21875 -11.703125 L 11.03125 -11.34375 L 13.328125 -10.78125 L 14.8125 -10.109375 L 15.28125 -9.71875 L 15.953125 -8.859375 L 16.515625 -7.828125 L 16.65625 -7.296875 L 16.734375 -6.734375 L 16.703125 -5 L 16.625 -4.5 L 16.453125 -3.9375 L 16.234375 -3.4375 L 15.671875 -2.546875 L 14.890625 -1.640625 L 14 -1.03125 L 12.546875 -0.25 L 9.8125 0.28125 L 8.90625 0.3125 Z M 8.109375 0.21875 "/></g></g></g><g clip-path="url(#2c481b574d)"><g clip-path="url(#ea9c0fae77)"><g transform="matrix(1, 0, 0, 1, 13, 272)"><g clip-path="url(#6f89060daa)"><g clip-path="url(#1636f47c7e)"><g clip-path="url(#3d94393c6a)"><path fill="#cd7f32" d="M 0.121094 0.652344 L 282.265625 0.652344 L 282.265625 120.835938 L 0.121094 120.835938 Z M 0.121094 0.652344 " fill-opacity="1" fill-rule="nonzero"/></g></g></g></g></g></g><g fill="#ffffff" fill-opacity="1"><g transform="translate(142.793509, 341.488354)"><g/></g></g><g fill="#ffffff" fill-opacity="1"><g transform="translate(150.362235, 341.488354)"><g/></g></g><g fill="#ffffff" fill-opacity="1"><g transform="translate(157.93096, 341.488354)"><g/></g></g><path fill="#000000" d="M 41.324219 80.28125 C 31.550781 80.28125 23.554688 88.277344 23.554688 98.050781 C 23.554688 107.824219 31.550781 115.820312 41.324219 115.820312 C 51.097656 115.820312 59.09375 107.824219 59.09375 98.050781 C 59.09375 88.277344 51.097656 80.28125 41.324219 80.28125 Z M 47.1875 106.226562 L 35.8125 106.226562 L 35.8125 103.914062 C 40.613281 98.585938 43.277344 96.628906 43.277344 94.496094 C 43.277344 93.785156 42.921875 92.1875 41.144531 92.1875 C 38.835938 92.1875 38.835938 94.496094 38.835938 95.03125 L 35.460938 95.03125 C 35.460938 93.429688 36.703125 89.699219 41.144531 89.699219 C 45.585938 89.699219 46.476562 92.363281 46.476562 94.320312 C 46.476562 96.984375 44.523438 99.117188 39.902344 103.738281 L 47.007812 103.738281 L 47.007812 106.226562 Z M 47.1875 106.226562 " fill-opacity="1" fill-rule="nonzero"/><g clip-path="url(#c5b6a2086b)"><path fill="#ffc419" d="M 154.085938 276.925781 C 135.410156 276.929688 121.640625 271.847656 112.398438 266.59375 C 97.402344 258.070312 90.789062 247.386719 90.511719 246.9375 C 89.488281 245.253906 90.023438 243.054688 91.710938 242.03125 C 93.394531 241.007812 95.59375 241.542969 96.621094 243.226562 C 96.675781 243.316406 102.746094 253 116.28125 260.585938 C 134.453125 270.769531 156.78125 272.578125 182.644531 265.953125 C 208.285156 259.390625 225.148438 245.976562 232.765625 226.09375 C 238.496094 211.144531 236.625 197.863281 236.605469 197.730469 C 236.589844 197.625 236.578125 197.511719 236.574219 197.402344 C 236.566406 197.265625 235.621094 182.765625 227.296875 168.242188 C 216.308594 149.066406 198.160156 138.796875 173.355469 137.714844 C 153.992188 136.871094 138.914062 141.425781 128.539062 151.242188 C 113.984375 165.019531 113.613281 184.835938 113.613281 185.035156 C 113.59375 186.996094 111.996094 188.570312 110.039062 188.570312 C 110.03125 188.570312 110.019531 188.570312 110.007812 188.570312 C 108.039062 188.554688 106.453125 186.949219 106.464844 184.984375 C 106.472656 184.054688 106.800781 162.046875 123.550781 146.128906 C 135.386719 134.882812 152.246094 129.652344 173.664062 130.582031 C 207.957031 132.074219 225.210938 150.09375 233.644531 164.945312 C 242.316406 180.226562 243.574219 195.03125 243.699219 196.839844 C 243.9375 198.601562 245.558594 212.433594 239.566406 228.324219 C 233.769531 243.6875 219.496094 263.886719 184.417969 272.871094 C 173.148438 275.753906 163.050781 276.925781 154.085938 276.925781 " fill-opacity="1" fill-rule="nonzero"/></g><path fill="#ff9d00" d="M 240.496094 185.003906 C 240.496094 221.542969 206.351562 251.164062 164.230469 251.164062 C 122.113281 251.164062 87.96875 221.542969 87.96875 185.003906 C 87.96875 148.46875 122.113281 118.847656 164.230469 118.847656 C 206.351562 118.847656 240.496094 148.46875 240.496094 185.003906 " fill-opacity="1" fill-rule="nonzero"/><g clip-path="url(#7584a3e706)"><path fill="#ffc419" d="M 97.496094 181.816406 C 97.273438 181.816406 97.046875 181.796875 96.824219 181.753906 C 96.40625 181.675781 86.535156 179.742188 77.105469 173.292969 C 64.261719 164.511719 58.464844 151.683594 60.351562 136.203125 C 62.234375 120.722656 72.050781 109.210938 88.738281 102.910156 C 100.933594 98.304688 112.4375 98.117188 112.921875 98.113281 C 112.9375 98.113281 112.949219 98.113281 112.964844 98.113281 C 114.917969 98.113281 116.515625 99.683594 116.539062 101.640625 C 116.5625 103.609375 114.980469 105.226562 113.007812 105.25 C 112.773438 105.253906 102.054688 105.472656 91.09375 109.652344 C 76.960938 115.042969 69.003906 124.265625 67.445312 137.0625 C 63.714844 167.710938 96.757812 174.46875 98.164062 174.742188 C 100.101562 175.117188 101.371094 176.988281 101 178.917969 C 100.667969 180.628906 99.175781 181.816406 97.496094 181.816406 " fill-opacity="1" fill-rule="nonzero"/></g><g clip-path="url(#e870801bfd)"><path fill="#ffc419" d="M 219.992188 239.628906 C 211.140625 239.628906 204.507812 238.101562 204.148438 238.019531 C 202.230469 237.570312 201.039062 235.648438 201.488281 233.726562 C 201.941406 231.808594 203.863281 230.621094 205.785156 231.070312 C 205.882812 231.09375 216.203125 233.449219 227.699219 232.035156 C 242.421875 230.234375 252.167969 223.328125 256.667969 211.515625 C 261.179688 199.671875 256.960938 186.5 244.121094 172.363281 C 232.617188 159.695312 217.277344 150.515625 199.761719 145.824219 C 160.425781 135.28125 122.605469 142.328125 122.226562 142.398438 C 122.179688 142.40625 122.128906 142.417969 122.078125 142.421875 C 121.960938 142.441406 110.007812 144.296875 97.746094 150.566406 C 81.828125 158.707031 72.871094 170.128906 71.121094 184.503906 C 66.984375 218.46875 100.582031 225.230469 102.015625 225.5 C 103.953125 225.867188 105.230469 227.734375 104.867188 229.667969 C 104.503906 231.601562 102.640625 232.882812 100.703125 232.519531 C 100.28125 232.441406 90.210938 230.515625 80.644531 223.617188 C 71.636719 217.117188 61.4375 204.90625 64.027344 183.644531 C 66.058594 166.945312 76.65625 153.28125 94.667969 144.121094 C 107.558594 137.566406 119.75 135.558594 120.945312 135.375 C 123.363281 134.917969 161.105469 128.074219 201.613281 138.929688 C 220.457031 143.976562 236.984375 153.878906 249.414062 167.566406 C 264 183.625 268.816406 199.699219 263.347656 214.054688 C 257.886719 228.390625 245.789062 237.070312 228.363281 239.148438 C 225.449219 239.496094 222.621094 239.628906 219.992188 239.628906 " fill-opacity="1" fill-rule="nonzero"/></g><path fill="#ffc419" d="M 138.605469 228.363281 C 130.996094 228.363281 119.609375 226.972656 110.210938 220.023438 C 101.640625 213.683594 96.511719 204.070312 94.964844 191.453125 C 92.375 170.347656 102.820312 157.941406 112.039062 151.246094 C 121.804688 144.160156 132.070312 141.984375 132.5 141.894531 C 134.4375 141.496094 136.324219 142.738281 136.722656 144.671875 C 137.121094 146.601562 135.878906 148.488281 133.945312 148.886719 C 132.402344 149.210938 97.921875 156.878906 102.058594 190.585938 C 103.355469 201.164062 107.519531 209.128906 114.429688 214.257812 C 127.253906 223.777344 145.625 220.75 145.8125 220.71875 C 147.753906 220.386719 149.605469 221.683594 149.941406 223.625 C 150.28125 225.5625 148.984375 227.410156 147.042969 227.75 C 146.707031 227.808594 143.40625 228.363281 138.605469 228.363281 " fill-opacity="1" fill-rule="nonzero"/><path fill="#ffc419" d="M 135.625 216.324219 C 133.535156 216.324219 130.199219 216.144531 126.566406 215.242188 C 118.328125 213.195312 112.480469 208.460938 109.65625 201.550781 C 106.207031 193.109375 106.632812 184.890625 110.925781 177.121094 C 120.25 160.253906 146.261719 150.003906 160.46875 147.503906 C 162.410156 147.164062 164.265625 148.457031 164.609375 150.398438 C 164.949219 152.339844 163.652344 154.191406 161.707031 154.535156 C 147.847656 156.972656 124.871094 166.664062 117.183594 180.570312 C 113.941406 186.4375 113.644531 192.417969 116.273438 198.855469 C 118.207031 203.585938 122.1875 206.753906 128.105469 208.265625 C 132.894531 209.492188 137.171875 209.136719 137.214844 209.132812 C 139.171875 208.957031 140.914062 210.410156 141.089844 212.371094 C 141.265625 214.328125 139.824219 216.0625 137.863281 216.242188 C 137.78125 216.25 136.953125 216.324219 135.625 216.324219 " fill-opacity="1" fill-rule="nonzero"/><path fill="#ffc419" d="M 180 122.933594 C 173.644531 122.933594 166.089844 124.015625 156.980469 125.734375 C 137.695312 129.378906 126.972656 146.136719 123.371094 160.605469 C 119.769531 175.050781 122.433594 188.816406 130 194.859375 C 136.695312 200.207031 140.683594 205.660156 144.203125 210.472656 C 151.238281 220.085938 155.882812 226.441406 177.683594 226.589844 C 177.753906 226.589844 177.824219 226.589844 177.894531 226.589844 C 189.152344 226.589844 198.203125 220.445312 203.398438 209.261719 C 207.515625 200.390625 208.695312 189.214844 206.71875 177.785156 C 204.539062 165.167969 198.710938 153.050781 189.867188 142.753906 C 188.582031 141.257812 188.753906 139.007812 190.253906 137.722656 C 191.753906 136.4375 194.007812 136.609375 195.292969 138.109375 C 204.382812 148.695312 210.570312 161.070312 213.277344 174.039062 C 211.605469 149.976562 206.75 135.304688 198.304688 128.398438 C 193.535156 124.496094 187.632812 122.933594 180 122.933594 Z M 165.78125 245.488281 C 146.3125 245.488281 128.972656 239.835938 127.796875 239.445312 C 125.925781 238.820312 124.914062 236.800781 125.535156 234.929688 C 126.160156 233.058594 128.183594 232.050781 130.054688 232.671875 C 130.496094 232.816406 174.359375 247.085938 198.292969 229.625 C 206.347656 223.746094 211.320312 214.765625 213.136719 202.84375 C 212.339844 206.15625 211.25 209.316406 209.878906 212.265625 C 203.5 226.003906 191.722656 233.828125 177.632812 233.730469 C 152.238281 233.554688 145.839844 224.808594 138.433594 214.683594 C 135.019531 210.015625 131.488281 205.1875 125.535156 200.433594 C 115.679688 192.5625 112.109375 176.25 116.433594 158.882812 C 120.570312 142.265625 133.046875 122.992188 155.652344 118.722656 C 174.367188 115.1875 190.828125 113.058594 202.835938 122.875 C 215.007812 132.832031 220.632812 153.746094 221.066406 190.683594 C 221.308594 211.195312 215.058594 226.238281 202.492188 235.398438 C 191.90625 243.117188 178.394531 245.488281 165.78125 245.488281 " fill-opacity="1" fill-rule="nonzero"/><path fill="#ffc419" d="M 139.078125 173.292969 C 142.265625 189.199219 149.785156 207.066406 167.449219 209.144531 C 172.015625 209.679688 178.035156 209.507812 180.789062 205.640625 C 183.351562 202.042969 182.851562 195.511719 179.492188 188.59375 C 172.785156 174.785156 160.648438 168.15625 151.589844 167.707031 C 146.027344 167.4375 142.210938 168.824219 139.917969 171.953125 C 139.609375 172.375 139.332031 172.820312 139.078125 173.292969 Z M 171.050781 216.507812 C 169.675781 216.507812 168.203125 216.421875 166.613281 216.234375 C 154.25 214.78125 144.617188 207.167969 138.253906 193.992188 C 139.128906 198.378906 140.3125 202.253906 141.171875 204.554688 C 141.859375 206.402344 140.917969 208.457031 139.070312 209.144531 C 137.222656 209.832031 135.164062 208.898438 134.472656 207.050781 C 134.117188 206.097656 126.738281 186.015625 131.632812 172.527344 C 129.25 159.308594 129.632812 148.140625 129.652344 147.59375 C 129.726562 145.621094 131.402344 144.070312 133.359375 144.160156 C 135.332031 144.234375 136.867188 145.890625 136.792969 147.859375 C 136.789062 148.078125 136.578125 155.035156 137.652344 164.195312 C 141.273438 161.503906 146.0625 160.289062 151.941406 160.578125 C 167.433594 161.339844 180.171875 173.632812 185.921875 185.476562 C 190.492188 194.882812 190.75 203.96875 186.613281 209.777344 C 184.332031 212.984375 179.824219 216.507812 171.050781 216.507812 " fill-opacity="1" fill-rule="nonzero"/><path fill="#ffc419" d="M 163.0625 210.574219 C 163.144531 210.667969 167.699219 215.746094 174.203125 216.046875 C 178.582031 216.242188 183.019531 214.25 187.40625 210.097656 C 193.265625 204.554688 193.859375 190.542969 188.882812 175.226562 C 184.085938 160.46875 176.671875 150.496094 169.304688 145.007812 C 174.253906 152.699219 179.910156 163.574219 181.207031 174.667969 C 183 189.972656 172.832031 206.21875 162.765625 210.269531 C 162.871094 210.363281 162.96875 210.46875 163.0625 210.574219 Z M 108.988281 145.628906 C 95.035156 153.121094 89.652344 164.21875 89.347656 185.375 C 89.160156 198.515625 95.789062 219.492188 110.792969 234.496094 C 123.398438 247.097656 139.5 253.371094 158.582031 253.101562 C 201.679688 252.527344 210.203125 234.542969 220.066406 213.714844 C 221.878906 209.890625 223.753906 205.933594 225.875 202.019531 C 238.832031 178.109375 234.460938 161.847656 225.621094 135.167969 C 222.066406 124.441406 212.878906 118.910156 196.707031 117.765625 C 180.824219 116.644531 159.96875 120.105469 143.207031 122.882812 C 129.542969 125.148438 120.527344 129.554688 117.136719 135.621094 C 116 137.65625 115.648438 139.617188 115.628906 141.222656 C 119.035156 139.785156 124.121094 138.042969 129.992188 137.359375 C 144.289062 135.695312 156.253906 141.058594 164.585938 152.867188 C 175.429688 168.234375 166.449219 180.496094 159.886719 189.449219 C 155.027344 196.078125 152.941406 199.5 154.796875 202.199219 C 156.113281 204.117188 157.644531 204.570312 159.910156 203.71875 C 169.476562 200.132812 175.121094 184.128906 174.109375 175.5 C 172.003906 157.515625 156.09375 139.035156 155.933594 138.851562 C 154.960938 137.730469 154.78125 136.125 155.484375 134.820312 C 156.1875 133.511719 157.621094 132.777344 159.097656 132.96875 C 167.03125 134.011719 174.828125 138.851562 181.644531 146.964844 C 187.5 153.933594 192.484375 163.1875 195.679688 173.023438 C 200.375 187.472656 201.960938 206.164062 192.324219 215.28125 C 186.4375 220.847656 180.183594 223.503906 173.769531 223.175781 C 164.160156 222.683594 157.914062 215.546875 157.65625 215.242188 C 156.671875 214.097656 156.539062 212.511719 157.199219 211.257812 C 153.921875 211.046875 151.035156 209.335938 148.90625 206.238281 C 143.976562 199.074219 149.132812 192.035156 154.121094 185.230469 C 160.554688 176.449219 166.632812 168.15625 158.742188 156.980469 C 142.460938 133.910156 115.882812 148.902344 114.757812 149.550781 C 113.878906 150.0625 112.816406 150.171875 111.847656 149.855469 C 110.878906 149.535156 110.089844 148.820312 109.683594 147.882812 C 109.640625 147.785156 109.296875 146.964844 108.988281 145.628906 Z M 157.515625 260.25 C 137.183594 260.25 119.300781 253.101562 105.738281 239.542969 C 89.269531 223.070312 81.992188 199.867188 82.203125 185.273438 C 82.5625 160.273438 90.183594 146.542969 108.511719 137.878906 C 108.617188 137.824219 108.726562 137.78125 108.835938 137.742188 C 109.167969 136.023438 109.777344 134.191406 110.796875 132.320312 C 115.292969 124.078125 125.800781 118.53125 142.035156 115.839844 C 179.675781 109.597656 222.335938 102.523438 232.410156 132.925781 C 241.625 160.742188 246.203125 179.5 232.160156 205.417969 C 230.128906 209.160156 228.296875 213.027344 226.527344 216.769531 C 221.507812 227.367188 216.316406 238.324219 206.460938 246.453125 C 195.40625 255.574219 180.226562 259.953125 158.679688 260.242188 C 158.289062 260.246094 157.902344 260.25 157.515625 260.25 " fill-opacity="1" fill-rule="nonzero"/><g fill="#ffffff" fill-opacity="1"><g transform="translate(23.405829, 333.358461)"><g><path d="M 11.75 0.3125 L 11.140625 0.3125 L 10.5625 0.1875 L 9.890625 0.125 L 9.21875 -0.09375 L 8.75 -0.21875 L 8.109375 -0.453125 L 5.9375 -1.625 L 5.453125 -2.015625 L 4.921875 -2.359375 L 3.765625 -3.484375 L 2.484375 -5.328125 L 2.265625 -5.875 L 1.953125 -6.453125 L 1.84375 -7.015625 L 1.59375 -7.625 L 1.28125 -8.875 L 1.28125 -10.15625 L 1.15625 -11.171875 L 1.71875 -15.15625 L 3.1875 -18.03125 L 3.578125 -18.578125 L 4.4375 -19.375 L 4.8125 -19.890625 L 7.0625 -21.328125 L 7.625 -21.546875 L 8.109375 -21.828125 L 8.71875 -22.0625 L 9.953125 -22.3125 L 10.5625 -22.5 L 11.109375 -22.5625 L 14.015625 -22.5625 L 15.609375 -22.34375 L 16.859375 -22 L 18.671875 -21.171875 L 19.375 -20.6875 L 21.03125 -19.1875 L 22.21875 -17.5625 L 22.734375 -16.34375 L 22.828125 -15.765625 L 23.078125 -15.125 L 22.890625 -14.453125 L 22.375 -14.171875 L 21.734375 -14.109375 L 18.515625 -14.171875 L 17.8125 -14.453125 L 17.234375 -15.0625 L 16.953125 -15.609375 L 16.46875 -16.125 L 15.546875 -16.890625 L 14.875 -17.109375 L 13.65625 -17.328125 L 11.6875 -17.390625 L 10.5625 -17.078125 L 9.953125 -16.828125 L 8.90625 -16.0625 L 8.109375 -15.0625 L 7.5625 -13.921875 L 7.375 -13.34375 L 7.34375 -12.703125 L 7.125 -12.125 L 7.09375 -11.109375 L 7.1875 -9.609375 L 7.5625 -8.359375 L 7.828125 -7.828125 L 9 -6.28125 L 9.421875 -5.84375 L 10.03125 -5.546875 L 11.75 -4.921875 L 13.53125 -4.890625 L 14.203125 -4.953125 L 14.84375 -5.140625 L 15.921875 -5.6875 L 17.140625 -6.984375 L 17.390625 -7.53125 L 18.03125 -8.140625 L 18.734375 -8.453125 L 22.15625 -8.421875 L 22.953125 -8.078125 L 23.140625 -7.5 L 23.046875 -6.890625 L 22.828125 -6.25 L 22.671875 -5.65625 L 22.375 -5.078125 L 21.421875 -3.421875 L 20.875 -3 L 20.53125 -2.453125 L 20.109375 -2.046875 L 19.5625 -1.65625 L 19 -1.3125 L 18.515625 -0.984375 L 16.765625 -0.21875 L 13.65625 0.421875 Z M 11.75 0.3125 "/></g></g></g><g fill="#ffffff" fill-opacity="1"><g transform="translate(47.437961, 333.358461)"><g><path d="M 0.421875 -0.859375 L 0.796875 -2.203125 L 1.078125 -2.84375 L 1.46875 -3.359375 L 2.390625 -5.6875 L 3.28125 -7.34375 L 3.515625 -7.984375 L 3.796875 -8.484375 L 3.984375 -9.15625 L 4.4375 -9.984375 L 4.65625 -10.59375 L 5.140625 -11.421875 L 5.65625 -12.578125 L 6 -13.15625 L 6.15625 -13.6875 L 7.953125 -17.71875 L 8.296875 -18.296875 L 9.671875 -21.171875 L 9.859375 -21.734375 L 10.46875 -22.3125 L 11.484375 -22.625 L 12.578125 -22.34375 L 13.15625 -21.734375 L 13.34375 -21.125 L 13.625 -20.65625 L 14.140625 -19.4375 L 14.78125 -18.265625 L 15.265625 -17.140625 L 15.421875 -16.625 L 16 -15.421875 L 16.1875 -14.8125 L 16.828125 -13.6875 L 16.984375 -13.09375 L 17.296875 -12.546875 L 17.5625 -12 L 17.90625 -11.421875 L 18.09375 -10.796875 L 18.390625 -10.3125 L 18.609375 -9.671875 L 18.890625 -9.125 L 19.15625 -8.484375 L 19.5 -7.984375 L 19.953125 -6.796875 L 20.265625 -6.25 L 20.5 -5.65625 L 21.03125 -4.5 L 21.234375 -3.890625 L 21.546875 -3.421875 L 21.734375 -2.78125 L 22.15625 -2.234375 L 22.375 -1.65625 L 22.5625 -0.859375 L 22.4375 -0.1875 L 21.859375 0 L 19.890625 0.0625 L 18.765625 -0.03125 L 18.203125 0.03125 L 17.359375 -0.28125 L 16.828125 -0.796875 L 16.46875 -1.375 L 16.3125 -1.953125 L 15.640625 -2.453125 L 14.59375 -2.8125 L 13.09375 -2.75 L 12.421875 -2.8125 L 11.84375 -2.8125 L 11.109375 -2.71875 L 10.4375 -2.8125 L 8.65625 -2.78125 L 8.015625 -2.84375 L 7.25 -2.515625 L 6.703125 -1.921875 L 6.15625 -0.828125 L 5.59375 -0.25 L 4.859375 0.0625 L 4.015625 -0.03125 L 1.21875 -0.03125 L 0.578125 -0.1875 Z M 10.28125 -7.890625 L 12.765625 -7.921875 L 13.3125 -8.171875 L 13.375 -8.75 L 13.15625 -9.328125 L 12.828125 -9.953125 L 12.703125 -10.46875 L 12.359375 -11.015625 L 11.9375 -12.265625 L 11.5625 -12.515625 L 11.140625 -12.1875 L 10.859375 -11.6875 L 9.578125 -8.78125 L 9.671875 -8.140625 Z M 10.28125 -7.890625 "/></g></g></g><g fill="#ffffff" fill-opacity="1"><g transform="translate(70.608416, 333.358461)"><g><path d="M 2.453125 -1.015625 L 2.359375 -3.515625 L 2.421875 -4.1875 L 2.296875 -6.03125 L 2.390625 -7.34375 L 2.296875 -8.046875 L 2.328125 -9.25 L 2.390625 -9.921875 L 2.390625 -11.53125 L 2.296875 -12.453125 L 2.390625 -21.390625 L 2.65625 -22.0625 L 3.25 -22.34375 L 3.953125 -22.3125 L 4.5625 -22.40625 L 5.875 -22.28125 L 6.484375 -22.375 L 8.390625 -22.3125 L 8.9375 -22.375 L 9.640625 -22.3125 L 10.28125 -22.375 L 10.984375 -22.34375 L 11.90625 -22.375 L 12.703125 -22.3125 L 15.359375 -21.765625 L 16.46875 -21.203125 L 18.0625 -19.984375 L 18.359375 -19.5 L 18.796875 -19.03125 L 19.65625 -17.265625 L 19.828125 -16.625 L 19.921875 -16.03125 L 20.078125 -15.421875 L 20.046875 -12.890625 L 19.703125 -11.6875 L 19.46875 -11.140625 L 19.125 -10.5625 L 18.890625 -9.953125 L 18.515625 -9.421875 L 17.625 -8.5625 L 17.265625 -7.890625 L 17.359375 -7.125 L 18.328125 -5.453125 L 18.734375 -4.953125 L 19.0625 -4.375 L 19.4375 -3.796875 L 19.734375 -3.25 L 20.75 -1.6875 L 21.171875 -0.890625 L 21.03125 -0.21875 L 20.359375 -0.0625 L 19.65625 0 L 18.390625 0 L 17.75 -0.0625 L 17.046875 0 L 15.890625 -0.0625 L 15.09375 -0.25 L 14.453125 -0.828125 L 14.078125 -1.34375 L 13.796875 -1.890625 L 13.375 -2.484375 L 12.484375 -4.09375 L 12.265625 -4.6875 L 11.421875 -5.8125 L 10.921875 -6.359375 L 10.125 -6.609375 L 9.546875 -6.578125 L 8.96875 -6.578125 L 8.328125 -6.25 L 8.046875 -5.625 L 8.109375 -3.640625 L 8.015625 -2.265625 L 8.140625 -1.59375 L 8.078125 -0.921875 L 7.859375 -0.3125 L 6.859375 0 L 5.90625 0 L 5.234375 -0.0625 L 3.921875 0.03125 L 3.3125 0 L 2.6875 -0.3125 Z M 8.96875 -11.75 L 9.671875 -11.75 L 10.3125 -11.65625 L 12.796875 -11.875 L 13.28125 -12.09375 L 13.65625 -12.484375 L 14.015625 -13.03125 L 14.265625 -13.65625 L 14.359375 -14.53125 L 14.296875 -15.453125 L 14.078125 -15.953125 L 13.765625 -16.4375 L 12.765625 -17.046875 L 11.296875 -17.234375 L 9.546875 -17.265625 L 9.03125 -17.234375 L 8.390625 -16.921875 L 8.015625 -16.28125 L 8.109375 -12.703125 L 8.421875 -12.03125 Z M 8.96875 -11.75 "/></g></g></g><g fill="#ffffff" fill-opacity="1"><g transform="translate(92.725668, 333.358461)"><g><path d="M 2.328125 -0.953125 L 2.296875 -2.171875 L 2.421875 -4.09375 L 2.328125 -5.390625 L 2.390625 -8.015625 L 2.328125 -8.625 L 2.328125 -9.890625 L 2.390625 -10.5 L 2.296875 -11.171875 L 2.296875 -13.71875 L 2.359375 -14.328125 L 2.328125 -15 L 2.390625 -15.609375 L 2.328125 -16.28125 L 2.421875 -16.953125 L 2.296875 -19.09375 L 2.359375 -20.015625 L 2.296875 -21.390625 L 2.578125 -22.0625 L 3.21875 -22.34375 L 12.828125 -22.28125 L 14.625 -21.859375 L 15.796875 -21.234375 L 16.765625 -20.5625 L 17.203125 -20.109375 L 17.96875 -19.09375 L 18.15625 -18.484375 L 18.484375 -17.875 L 18.828125 -16.6875 L 18.859375 -15.765625 L 18.421875 -13.46875 L 18.03125 -12.921875 L 17.6875 -12.296875 L 17.5625 -11.65625 L 17.84375 -10.953125 L 18.328125 -10.46875 L 18.765625 -9.921875 L 19.34375 -8.8125 L 19.5625 -8.140625 L 19.703125 -7.53125 L 19.65625 -4.984375 L 19.40625 -4.34375 L 19.28125 -3.796875 L 19 -3.1875 L 18.265625 -2.140625 L 17.75 -1.65625 L 17.328125 -1.34375 L 16.125 -0.640625 L 15.0625 -0.21875 L 13.859375 -0.0625 L 3.28125 0.0625 L 2.6875 -0.21875 Z M 8.875 -13.6875 L 11.265625 -13.6875 L 12.359375 -13.921875 L 12.890625 -14.421875 L 13.0625 -15.390625 L 12.953125 -16.25 L 12.546875 -16.6875 L 12.15625 -16.953125 L 11.171875 -17.140625 L 8.875 -17.234375 L 8.203125 -16.890625 L 7.859375 -16.34375 L 7.921875 -15.734375 L 7.921875 -15.125 L 7.78125 -14.59375 L 8.109375 -13.953125 Z M 8.78125 -5.078125 L 11.265625 -5.046875 L 13 -5.203125 L 13.5625 -5.546875 L 13.984375 -6 L 14.046875 -6.828125 L 13.984375 -7.71875 L 13.5 -8.171875 L 13.03125 -8.515625 L 12.125 -8.6875 L 8.75 -8.6875 L 8.109375 -8.359375 L 7.890625 -7.78125 L 7.859375 -7.15625 L 7.921875 -6.546875 L 7.890625 -6 L 8.234375 -5.328125 Z M 8.78125 -5.078125 "/></g></g></g><g fill="#ffffff" fill-opacity="1"><g transform="translate(113.789717, 333.358461)"><g><path d="M 11.9375 0.390625 L 11.265625 0.3125 L 10.125 0.0625 L 9.421875 0 L 8.484375 -0.3125 L 6 -1.59375 L 4.953125 -2.421875 L 4.59375 -2.84375 L 4.125 -3.28125 L 3.703125 -3.796875 L 3.3125 -4.1875 L 1.84375 -7.09375 L 1.5625 -8.296875 L 1.5 -8.90625 L 1.34375 -9.484375 L 1.25 -10.15625 L 1.34375 -12.734375 L 1.890625 -15.1875 L 2.359375 -16.40625 L 3.359375 -18.09375 L 4.921875 -19.921875 L 6 -20.71875 L 6.578125 -21 L 7.0625 -21.359375 L 9.453125 -22.25 L 12.828125 -22.734375 L 13.6875 -22.703125 L 15.546875 -22.375 L 18 -21.609375 L 18.484375 -21.265625 L 19.4375 -20.84375 L 20.171875 -20.328125 L 21.09375 -19.53125 L 22 -18.546875 L 22.703125 -17.59375 L 23.296875 -16.40625 L 24.09375 -14.015625 L 24.328125 -12.703125 L 24.421875 -11.109375 L 24.296875 -10.1875 L 24.265625 -9.515625 L 24.09375 -8.875 L 24.0625 -8.296875 L 23.8125 -7.09375 L 23.328125 -5.875 L 21.9375 -3.734375 L 21.484375 -3.28125 L 21.0625 -2.71875 L 20.171875 -1.953125 L 19.5625 -1.65625 L 19.09375 -1.28125 L 18.03125 -0.703125 L 15.640625 0.09375 L 13.71875 0.34375 Z M 13.71875 -5.265625 L 14.359375 -5.390625 L 14.84375 -5.625 L 15.421875 -5.78125 L 16.953125 -6.828125 L 17.390625 -7.34375 L 17.59375 -7.828125 L 17.9375 -8.390625 L 18.15625 -8.96875 L 18.421875 -10.15625 L 18.484375 -12.09375 L 18.390625 -12.671875 L 18.09375 -13.28125 L 17.71875 -14.5 L 16.46875 -15.796875 L 15.484375 -16.5 L 14.90625 -16.765625 L 14.328125 -16.890625 L 12.796875 -17.078125 L 11.90625 -17.015625 L 10.65625 -16.6875 L 10.25 -16.53125 L 8.65625 -15.453125 L 7.890625 -14.421875 L 7.6875 -13.859375 L 7.4375 -13.28125 L 7.34375 -12.671875 L 7.1875 -12.09375 L 7.1875 -10.15625 L 7.4375 -8.96875 L 7.71875 -8.390625 L 7.890625 -7.890625 L 8.328125 -7.28125 L 8.75 -6.828125 L 9.609375 -6.125 L 10.125 -5.84375 L 11.265625 -5.359375 L 11.96875 -5.265625 Z M 13.71875 -5.265625 "/></g></g></g><g fill="#ffffff" fill-opacity="1"><g transform="translate(139.385738, 333.358461)"><g><path d="M 2.421875 -0.890625 L 2.359375 -4.15625 L 2.421875 -4.78125 L 2.328125 -5.359375 L 2.421875 -6 L 2.359375 -6.703125 L 2.453125 -8.203125 L 2.390625 -8.9375 L 2.453125 -9.921875 L 2.359375 -10.53125 L 2.359375 -12.390625 L 2.421875 -13.0625 L 2.296875 -15 L 2.421875 -15.640625 L 2.359375 -16.1875 L 2.453125 -16.890625 L 2.296875 -18.796875 L 2.390625 -19.40625 L 2.328125 -20.109375 L 2.328125 -20.71875 L 2.421875 -21.421875 L 2.78125 -21.96875 L 3.765625 -22.25 L 4.375 -22.3125 L 5.015625 -22.25 L 6.890625 -22.3125 L 7.890625 -22 L 8.265625 -21.328125 L 8.234375 -20.78125 L 8.328125 -17.625 L 8.265625 -17.046875 L 8.265625 -15.125 L 8.515625 -14.53125 L 9.1875 -14.234375 L 12.296875 -14.265625 L 12.859375 -14.203125 L 14.140625 -14.203125 L 14.6875 -14.53125 L 15.03125 -15.15625 L 15.03125 -17.015625 L 15.15625 -17.5625 L 15.09375 -21.03125 L 15.359375 -21.96875 L 16.3125 -22.25 L 16.953125 -22.25 L 17.96875 -22.34375 L 19.59375 -22.3125 L 20.59375 -22 L 20.90625 -21.359375 L 20.96875 -20.71875 L 20.84375 -20.078125 L 20.90625 -19.46875 L 21.03125 -18.859375 L 20.875 -16.21875 L 20.96875 -13.09375 L 20.90625 -12.390625 L 20.9375 -11.171875 L 20.84375 -10.5 L 20.84375 -9.859375 L 20.90625 -9.1875 L 20.875 -8.5625 L 21 -7.34375 L 21 -2.203125 L 20.875 -0.890625 L 20.53125 -0.28125 L 19.890625 0.0625 L 17.6875 0.0625 L 16.734375 -0.03125 L 16.09375 0.03125 L 15.453125 -0.28125 L 15.125 -0.953125 L 15.03125 -2.203125 L 15.15625 -3.15625 L 15.03125 -5.421875 L 15.125 -6.03125 L 15.03125 -7.984375 L 14.71875 -8.625 L 14.140625 -8.9375 L 13.53125 -8.9375 L 12.890625 -9 L 12.265625 -8.9375 L 10.375 -8.9375 L 9.796875 -9 L 9.125 -9 L 8.484375 -8.625 L 8.171875 -7.953125 L 8.265625 -5.421875 L 8.203125 -4.75 L 8.234375 -4.046875 L 8.171875 -3.453125 L 8.234375 -2.8125 L 8.171875 -2.234375 L 8.265625 -1.53125 L 8.234375 -0.890625 L 7.984375 -0.25 L 7.28125 0.03125 L 6.609375 0.09375 L 5.9375 0 L 5.015625 -0.03125 L 4.015625 0.0625 L 3.421875 0.0625 L 2.6875 -0.21875 Z M 2.421875 -0.890625 "/></g></g></g><g fill="#ffffff" fill-opacity="1"><g transform="translate(162.747683, 333.358461)"><g><path d="M 1.53125 -0.921875 L 1.53125 -3.390625 L 1.59375 -3.984375 L 1.984375 -4.59375 L 4.09375 -5.265625 L 4.40625 -5.96875 L 4.46875 -7.21875 L 4.34375 -8.59375 L 4.5 -9.21875 L 4.375 -10.46875 L 4.4375 -11.109375 L 4.46875 -12.421875 L 4.375 -13.15625 L 4.34375 -13.6875 L 4.4375 -16.40625 L 4.015625 -16.984375 L 2.078125 -17.65625 L 1.75 -18.265625 L 1.75 -18.859375 L 1.6875 -19.5 L 1.6875 -20.203125 L 1.75 -20.75 L 1.75 -21.359375 L 2.109375 -22.03125 L 2.8125 -22.34375 L 4.046875 -22.28125 L 4.65625 -22.3125 L 6.609375 -22.28125 L 7.3125 -22.34375 L 11.359375 -22.3125 L 12.390625 -22.03125 L 12.640625 -21.390625 L 12.703125 -20.75 L 12.640625 -20.171875 L 12.640625 -18.296875 L 12.296875 -17.6875 L 11.6875 -17.328125 L 10.984375 -17.296875 L 10.375 -16.953125 L 10.03125 -16.375 L 10.03125 -15.03125 L 10.09375 -14.359375 L 10.03125 -13.71875 L 10.09375 -13.125 L 10.03125 -12.125 L 10.09375 -11.171875 L 9.953125 -9.828125 L 10.09375 -8.5625 L 10.03125 -5.9375 L 10.375 -5.296875 L 12.515625 -4.625 L 12.953125 -4.09375 L 12.859375 -2.140625 L 12.921875 -1.5625 L 12.921875 -0.859375 L 12.578125 -0.28125 L 11.96875 0.03125 L 2.484375 -0.03125 L 1.84375 -0.25 Z M 1.53125 -0.921875 "/></g></g></g><g fill="#ffffff" fill-opacity="1"><g transform="translate(177.237197, 333.358461)"><g><path d="M 2.390625 -0.984375 L 2.453125 -2.203125 L 2.359375 -4.75 L 2.421875 -5.390625 L 2.359375 -7.953125 L 2.453125 -9.1875 L 2.359375 -9.859375 L 2.453125 -10.46875 L 2.359375 -11.84375 L 2.453125 -13.0625 L 2.328125 -15.609375 L 2.421875 -16.25 L 2.328125 -16.890625 L 2.421875 -17.59375 L 2.359375 -18.796875 L 2.390625 -19.4375 L 2.328125 -20.078125 L 2.328125 -21.390625 L 2.8125 -22 L 3.390625 -22.34375 L 4.046875 -22.3125 L 4.625 -22.34375 L 5.265625 -22.28125 L 7.3125 -22.34375 L 7.953125 -22.28125 L 12.484375 -22.25 L 13.796875 -22 L 15.546875 -21.421875 L 16.1875 -21.09375 L 17.359375 -20.359375 L 18.265625 -19.5 L 18.796875 -19.09375 L 19.625 -18.09375 L 19.890625 -17.5625 L 20.625 -16.46875 L 21.09375 -15.1875 L 21.265625 -14.625 L 21.328125 -13.953125 L 21.796875 -12.125 L 21.671875 -10.09375 L 21.703125 -9.546875 L 21.546875 -8.875 L 21.453125 -8.203125 L 21.234375 -7.625 L 21.09375 -6.984375 L 20.78125 -6.390625 L 20.625 -5.78125 L 19.625 -4.1875 L 18.359375 -2.71875 L 15.640625 -0.890625 L 13.796875 -0.3125 L 11.75 -0.03125 L 6 0 L 5.328125 0.09375 L 4.6875 0.09375 L 4.015625 0 L 3.28125 0 L 2.78125 -0.28125 Z M 9.15625 -5.140625 L 11.8125 -5.265625 L 12.953125 -5.59375 L 13.59375 -5.90625 L 14.109375 -6.21875 L 14.5 -6.734375 L 14.90625 -7.1875 L 15.328125 -7.75 L 15.796875 -8.90625 L 16 -9.515625 L 16.15625 -11.078125 L 16.0625 -12.0625 L 15.671875 -13.953125 L 15.265625 -14.453125 L 14.90625 -15.0625 L 14.109375 -15.953125 L 13.03125 -16.65625 L 11.75 -17.046875 L 10.796875 -17.109375 L 10.125 -17.078125 L 9.453125 -17.109375 L 8.515625 -16.765625 L 8.140625 -16.1875 L 8.140625 -7.984375 L 8.046875 -7.34375 L 8.171875 -6.765625 L 8.109375 -6.125 L 8.390625 -5.421875 Z M 9.15625 -5.140625 "/></g></g></g><g fill="#ffffff" fill-opacity="1"><g transform="translate(200.439572, 333.358461)"><g><path d="M 2.453125 -1.015625 L 2.359375 -3.515625 L 2.421875 -4.1875 L 2.296875 -6.03125 L 2.390625 -7.34375 L 2.296875 -8.046875 L 2.328125 -9.25 L 2.390625 -9.921875 L 2.390625 -11.53125 L 2.296875 -12.453125 L 2.390625 -21.390625 L 2.65625 -22.0625 L 3.25 -22.34375 L 3.953125 -22.3125 L 4.5625 -22.40625 L 5.875 -22.28125 L 6.484375 -22.375 L 8.390625 -22.3125 L 8.9375 -22.375 L 9.640625 -22.3125 L 10.28125 -22.375 L 10.984375 -22.34375 L 11.90625 -22.375 L 12.703125 -22.3125 L 15.359375 -21.765625 L 16.46875 -21.203125 L 18.0625 -19.984375 L 18.359375 -19.5 L 18.796875 -19.03125 L 19.65625 -17.265625 L 19.828125 -16.625 L 19.921875 -16.03125 L 20.078125 -15.421875 L 20.046875 -12.890625 L 19.703125 -11.6875 L 19.46875 -11.140625 L 19.125 -10.5625 L 18.890625 -9.953125 L 18.515625 -9.421875 L 17.625 -8.5625 L 17.265625 -7.890625 L 17.359375 -7.125 L 18.328125 -5.453125 L 18.734375 -4.953125 L 19.0625 -4.375 L 19.4375 -3.796875 L 19.734375 -3.25 L 20.75 -1.6875 L 21.171875 -0.890625 L 21.03125 -0.21875 L 20.359375 -0.0625 L 19.65625 0 L 18.390625 0 L 17.75 -0.0625 L 17.046875 0 L 15.890625 -0.0625 L 15.09375 -0.25 L 14.453125 -0.828125 L 14.078125 -1.34375 L 13.796875 -1.890625 L 13.375 -2.484375 L 12.484375 -4.09375 L 12.265625 -4.6875 L 11.421875 -5.8125 L 10.921875 -6.359375 L 10.125 -6.609375 L 9.546875 -6.578125 L 8.96875 -6.578125 L 8.328125 -6.25 L 8.046875 -5.625 L 8.109375 -3.640625 L 8.015625 -2.265625 L 8.140625 -1.59375 L 8.078125 -0.921875 L 7.859375 -0.3125 L 6.859375 0 L 5.90625 0 L 5.234375 -0.0625 L 3.921875 0.03125 L 3.3125 0 L 2.6875 -0.3125 Z M 8.96875 -11.75 L 9.671875 -11.75 L 10.3125 -11.65625 L 12.796875 -11.875 L 13.28125 -12.09375 L 13.65625 -12.484375 L 14.015625 -13.03125 L 14.265625 -13.65625 L 14.359375 -14.53125 L 14.296875 -15.453125 L 14.078125 -15.953125 L 13.765625 -16.4375 L 12.765625 -17.046875 L 11.296875 -17.234375 L 9.546875 -17.265625 L 9.03125 -17.234375 L 8.390625 -16.921875 L 8.015625 -16.28125 L 8.109375 -12.703125 L 8.421875 -12.03125 Z M 8.96875 -11.75 "/></g></g></g><g fill="#ffffff" fill-opacity="1"><g transform="translate(222.556813, 333.358461)"><g><path d="M 0.421875 -0.859375 L 0.796875 -2.203125 L 1.078125 -2.84375 L 1.46875 -3.359375 L 2.390625 -5.6875 L 3.28125 -7.34375 L 3.515625 -7.984375 L 3.796875 -8.484375 L 3.984375 -9.15625 L 4.4375 -9.984375 L 4.65625 -10.59375 L 5.140625 -11.421875 L 5.65625 -12.578125 L 6 -13.15625 L 6.15625 -13.6875 L 7.953125 -17.71875 L 8.296875 -18.296875 L 9.671875 -21.171875 L 9.859375 -21.734375 L 10.46875 -22.3125 L 11.484375 -22.625 L 12.578125 -22.34375 L 13.15625 -21.734375 L 13.34375 -21.125 L 13.625 -20.65625 L 14.140625 -19.4375 L 14.78125 -18.265625 L 15.265625 -17.140625 L 15.421875 -16.625 L 16 -15.421875 L 16.1875 -14.8125 L 16.828125 -13.6875 L 16.984375 -13.09375 L 17.296875 -12.546875 L 17.5625 -12 L 17.90625 -11.421875 L 18.09375 -10.796875 L 18.390625 -10.3125 L 18.609375 -9.671875 L 18.890625 -9.125 L 19.15625 -8.484375 L 19.5 -7.984375 L 19.953125 -6.796875 L 20.265625 -6.25 L 20.5 -5.65625 L 21.03125 -4.5 L 21.234375 -3.890625 L 21.546875 -3.421875 L 21.734375 -2.78125 L 22.15625 -2.234375 L 22.375 -1.65625 L 22.5625 -0.859375 L 22.4375 -0.1875 L 21.859375 0 L 19.890625 0.0625 L 18.765625 -0.03125 L 18.203125 0.03125 L 17.359375 -0.28125 L 16.828125 -0.796875 L 16.46875 -1.375 L 16.3125 -1.953125 L 15.640625 -2.453125 L 14.59375 -2.8125 L 13.09375 -2.75 L 12.421875 -2.8125 L 11.84375 -2.8125 L 11.109375 -2.71875 L 10.4375 -2.8125 L 8.65625 -2.78125 L 8.015625 -2.84375 L 7.25 -2.515625 L 6.703125 -1.921875 L 6.15625 -0.828125 L 5.59375 -0.25 L 4.859375 0.0625 L 4.015625 -0.03125 L 1.21875 -0.03125 L 0.578125 -0.1875 Z M 10.28125 -7.890625 L 12.765625 -7.921875 L 13.3125 -8.171875 L 13.375 -8.75 L 13.15625 -9.328125 L 12.828125 -9.953125 L 12.703125 -10.46875 L 12.359375 -11.015625 L 11.9375 -12.265625 L 11.5625 -12.515625 L 11.140625 -12.1875 L 10.859375 -11.6875 L 9.578125 -8.78125 L 9.671875 -8.140625 Z M 10.28125 -7.890625 "/></g></g></g><g fill="#ffffff" fill-opacity="1"><g transform="translate(243.939864, 333.358461)"><g><path d="M 6.125 -0.984375 L 6.09375 -3.484375 L 6.15625 -4.125 L 6.0625 -6.0625 L 6.09375 -6.734375 L 6.0625 -7.375 L 6.1875 -8.328125 L 6.09375 -9.25 L 6.09375 -10.53125 L 6.15625 -11.171875 L 6.09375 -11.78125 L 6.1875 -12.765625 L 6.09375 -16.28125 L 5.78125 -16.890625 L 5.203125 -17.234375 L 2.359375 -17.265625 L 1.53125 -17.171875 L 0.890625 -17.5 L 0.546875 -18.203125 L 0.578125 -21.390625 L 0.890625 -22.03125 L 1.59375 -22.34375 L 11.109375 -22.28125 L 11.84375 -22.375 L 12.484375 -22.375 L 13.125 -22.3125 L 13.765625 -22.3125 L 14.453125 -22.40625 L 15.0625 -22.40625 L 15.578125 -22.34375 L 16.34375 -22.40625 L 16.984375 -22.09375 L 17.296875 -21.453125 L 17.234375 -18.828125 L 17.296875 -18.15625 L 16.984375 -17.53125 L 16.25 -17.234375 L 14.5 -17.265625 L 13.921875 -17.203125 L 13.28125 -17.234375 L 12.734375 -17.203125 L 12.03125 -16.921875 L 11.78125 -16.34375 L 11.84375 -15.640625 L 11.75 -15 L 11.875 -8.65625 L 11.78125 -7.3125 L 11.84375 -6.734375 L 11.78125 -4.78125 L 11.6875 -4.125 L 11.78125 -3.578125 L 11.8125 -2.296875 L 11.75 -1.5625 L 11.78125 -0.953125 L 11.53125 -0.3125 L 10.890625 -0.0625 L 8.90625 -0.0625 L 8.296875 0 L 7.65625 -0.0625 L 7.0625 0 L 6.390625 -0.3125 Z M 6.125 -0.984375 "/></g></g></g><g fill="#ffffff" fill-opacity="1"><g transform="translate(260.759115, 333.358461)"><g><path d="M 11.9375 0.390625 L 11.265625 0.3125 L 10.125 0.0625 L 9.421875 0 L 8.484375 -0.3125 L 6 -1.59375 L 4.953125 -2.421875 L 4.59375 -2.84375 L 4.125 -3.28125 L 3.703125 -3.796875 L 3.3125 -4.1875 L 1.84375 -7.09375 L 1.5625 -8.296875 L 1.5 -8.90625 L 1.34375 -9.484375 L 1.25 -10.15625 L 1.34375 -12.734375 L 1.890625 -15.1875 L 2.359375 -16.40625 L 3.359375 -18.09375 L 4.921875 -19.921875 L 6 -20.71875 L 6.578125 -21 L 7.0625 -21.359375 L 9.453125 -22.25 L 12.828125 -22.734375 L 13.6875 -22.703125 L 15.546875 -22.375 L 18 -21.609375 L 18.484375 -21.265625 L 19.4375 -20.84375 L 20.171875 -20.328125 L 21.09375 -19.53125 L 22 -18.546875 L 22.703125 -17.59375 L 23.296875 -16.40625 L 24.09375 -14.015625 L 24.328125 -12.703125 L 24.421875 -11.109375 L 24.296875 -10.1875 L 24.265625 -9.515625 L 24.09375 -8.875 L 24.0625 -8.296875 L 23.8125 -7.09375 L 23.328125 -5.875 L 21.9375 -3.734375 L 21.484375 -3.28125 L 21.0625 -2.71875 L 20.171875 -1.953125 L 19.5625 -1.65625 L 19.09375 -1.28125 L 18.03125 -0.703125 L 15.640625 0.09375 L 13.71875 0.34375 Z M 13.71875 -5.265625 L 14.359375 -5.390625 L 14.84375 -5.625 L 15.421875 -5.78125 L 16.953125 -6.828125 L 17.390625 -7.34375 L 17.59375 -7.828125 L 17.9375 -8.390625 L 18.15625 -8.96875 L 18.421875 -10.15625 L 18.484375 -12.09375 L 18.390625 -12.671875 L 18.09375 -13.28125 L 17.71875 -14.5 L 16.46875 -15.796875 L 15.484375 -16.5 L 14.90625 -16.765625 L 14.328125 -16.890625 L 12.796875 -17.078125 L 11.90625 -17.015625 L 10.65625 -16.6875 L 10.25 -16.53125 L 8.65625 -15.453125 L 7.890625 -14.421875 L 7.6875 -13.859375 L 7.4375 -13.28125 L 7.34375 -12.671875 L 7.1875 -12.09375 L 7.1875 -10.15625 L 7.4375 -8.96875 L 7.71875 -8.390625 L 7.890625 -7.890625 L 8.328125 -7.28125 L 8.75 -6.828125 L 9.609375 -6.125 L 10.125 -5.84375 L 11.265625 -5.359375 L 11.96875 -5.265625 Z M 13.71875 -5.265625 "/></g></g></g></svg>