<svg xmlns="http://www.w3.org/2000/svg" xmlns:xlink="http://www.w3.org/1999/xlink" width="415" zoomAndPan="magnify" viewBox="0 0 311.25 405.749988" height="541" preserveAspectRatio="xMidYMid meet" version="1.0"><defs><g/><clipPath id="e13498ea08"><path d="M 9.875 0.363281 L 292.542969 0.363281 L 292.542969 405.136719 L 9.875 405.136719 Z M 9.875 0.363281 " clip-rule="nonzero"/></clipPath><clipPath id="1dba7a49a7"><path d="M 29.449219 0.363281 L 272.96875 0.363281 C 278.160156 0.363281 283.140625 2.425781 286.8125 6.097656 C 290.480469 9.765625 292.542969 14.746094 292.542969 19.9375 L 292.542969 385.449219 C 292.542969 390.640625 290.480469 395.617188 286.8125 399.289062 C 283.140625 402.960938 278.160156 405.019531 272.96875 405.019531 L 29.449219 405.019531 C 24.257812 405.019531 19.277344 402.960938 15.605469 399.289062 C 11.9375 395.617188 9.875 390.640625 9.875 385.449219 L 9.875 19.9375 C 9.875 14.746094 11.9375 9.765625 15.605469 6.097656 C 19.277344 2.425781 24.257812 0.363281 29.449219 0.363281 Z M 29.449219 0.363281 " clip-rule="nonzero"/></clipPath><clipPath id="3095ec2c07"><path d="M 0.875 0.363281 L 283.542969 0.363281 L 283.542969 405 L 0.875 405 Z M 0.875 0.363281 " clip-rule="nonzero"/></clipPath><clipPath id="60b2e40862"><path d="M 20.449219 0.363281 L 263.96875 0.363281 C 269.160156 0.363281 274.140625 2.425781 277.8125 6.097656 C 281.480469 9.765625 283.542969 14.746094 283.542969 19.9375 L 283.542969 385.449219 C 283.542969 390.640625 281.480469 395.617188 277.8125 399.289062 C 274.140625 402.960938 269.160156 405.019531 263.96875 405.019531 L 20.449219 405.019531 C 15.257812 405.019531 10.277344 402.960938 6.605469 399.289062 C 2.9375 395.617188 0.875 390.640625 0.875 385.449219 L 0.875 19.9375 C 0.875 14.746094 2.9375 9.765625 6.605469 6.097656 C 10.277344 2.425781 15.257812 0.363281 20.449219 0.363281 Z M 20.449219 0.363281 " clip-rule="nonzero"/></clipPath><clipPath id="b75d911887"><rect x="0" width="284" y="0" height="406"/></clipPath><clipPath id="96898f9e51"><path d="M 20 8.398438 L 282.960938 8.398438 L 282.960938 393 L 20 393 Z M 20 8.398438 " clip-rule="nonzero"/></clipPath><clipPath id="32ee7e5675"><path d="M 33.226562 8.398438 L 269.738281 8.398438 C 273.246094 8.398438 276.609375 9.792969 279.089844 12.273438 C 281.570312 14.753906 282.960938 18.117188 282.960938 21.625 L 282.960938 379.609375 C 282.960938 383.117188 281.570312 386.480469 279.089844 388.960938 C 276.609375 391.441406 273.246094 392.835938 269.738281 392.835938 L 33.226562 392.835938 C 29.71875 392.835938 26.351562 391.441406 23.875 388.960938 C 21.394531 386.480469 20 383.117188 20 379.609375 L 20 21.625 C 20 18.117188 21.394531 14.753906 23.875 12.273438 C 26.351562 9.792969 29.71875 8.398438 33.226562 8.398438 Z M 33.226562 8.398438 " clip-rule="nonzero"/></clipPath><clipPath id="2e2e507f26"><path d="M 0 0.398438 L 262.960938 0.398438 L 262.960938 385 L 0 385 Z M 0 0.398438 " clip-rule="nonzero"/></clipPath><clipPath id="75724de0f6"><path d="M 13.226562 0.398438 L 249.738281 0.398438 C 253.246094 0.398438 256.609375 1.792969 259.089844 4.273438 C 261.570312 6.753906 262.960938 10.117188 262.960938 13.625 L 262.960938 371.609375 C 262.960938 375.117188 261.570312 378.480469 259.089844 380.960938 C 256.609375 383.441406 253.246094 384.835938 249.738281 384.835938 L 13.226562 384.835938 C 9.71875 384.835938 6.351562 383.441406 3.875 380.960938 C 1.394531 378.480469 0 375.117188 0 371.609375 L 0 13.625 C 0 10.117188 1.394531 6.753906 3.875 4.273438 C 6.351562 1.792969 9.71875 0.398438 13.226562 0.398438 Z M 13.226562 0.398438 " clip-rule="nonzero"/></clipPath><clipPath id="7eb1506b61"><rect x="0" width="263" y="0" height="385"/></clipPath><clipPath id="7a0dd35082"><path d="M 10.898438 8.398438 L 293 8.398438 L 293 78.289062 L 10.898438 78.289062 Z M 10.898438 8.398438 " clip-rule="nonzero"/></clipPath><clipPath id="803196c5fc"><path d="M 22.539062 8.398438 L 281.320312 8.398438 C 287.75 8.398438 292.960938 13.609375 292.960938 20.035156 L 292.960938 66.652344 C 292.960938 73.078125 287.75 78.289062 281.320312 78.289062 L 22.539062 78.289062 C 16.109375 78.289062 10.898438 73.078125 10.898438 66.652344 L 10.898438 20.035156 C 10.898438 13.609375 16.109375 8.398438 22.539062 8.398438 Z M 22.539062 8.398438 " clip-rule="nonzero"/></clipPath><clipPath id="45c1680c00"><path d="M 0.898438 0.398438 L 283 0.398438 L 283 70.289062 L 0.898438 70.289062 Z M 0.898438 0.398438 " clip-rule="nonzero"/></clipPath><clipPath id="13ab40d285"><path d="M 12.539062 0.398438 L 271.320312 0.398438 C 277.75 0.398438 282.960938 5.609375 282.960938 12.035156 L 282.960938 58.652344 C 282.960938 65.078125 277.75 70.289062 271.320312 70.289062 L 12.539062 70.289062 C 6.109375 70.289062 0.898438 65.078125 0.898438 58.652344 L 0.898438 12.035156 C 0.898438 5.609375 6.109375 0.398438 12.539062 0.398438 Z M 12.539062 0.398438 " clip-rule="nonzero"/></clipPath><clipPath id="933150b193"><rect x="0" width="283" y="0" height="71"/></clipPath><clipPath id="9891ce11a4"><path d="M 13.121094 272.652344 L 295.265625 272.652344 L 295.265625 392.835938 L 13.121094 392.835938 Z M 13.121094 272.652344 " clip-rule="nonzero"/></clipPath><clipPath id="7043eb671c"><path d="M 24.761719 272.652344 L 283.542969 272.652344 C 289.972656 272.652344 295.183594 277.863281 295.183594 284.292969 L 295.183594 381.195312 C 295.183594 387.625 289.972656 392.835938 283.542969 392.835938 L 24.761719 392.835938 C 18.332031 392.835938 13.121094 387.625 13.121094 381.195312 L 13.121094 284.292969 C 13.121094 277.863281 18.332031 272.652344 24.761719 272.652344 Z M 24.761719 272.652344 " clip-rule="nonzero"/></clipPath><clipPath id="ae5a422cd1"><path d="M 0.121094 0.652344 L 282.207031 0.652344 L 282.207031 120.835938 L 0.121094 120.835938 Z M 0.121094 0.652344 " clip-rule="nonzero"/></clipPath><clipPath id="0dc868bc82"><path d="M 11.761719 0.652344 L 270.542969 0.652344 C 276.972656 0.652344 282.183594 5.863281 282.183594 12.292969 L 282.183594 109.195312 C 282.183594 115.625 276.972656 120.835938 270.542969 120.835938 L 11.761719 120.835938 C 5.332031 120.835938 0.121094 115.625 0.121094 109.195312 L 0.121094 12.292969 C 0.121094 5.863281 5.332031 0.652344 11.761719 0.652344 Z M 11.761719 0.652344 " clip-rule="nonzero"/></clipPath><clipPath id="576cad0a05"><rect x="0" width="283" y="0" height="121"/></clipPath><clipPath id="1a44289c72"><path d="M 20 79.59375 L 62.648438 79.59375 L 62.648438 122.242188 L 20 122.242188 Z M 20 79.59375 " clip-rule="nonzero"/></clipPath><clipPath id="5ff975cd1c"><path d="M 69 108.683594 L 240 108.683594 L 240 273.289062 L 69 273.289062 Z M 69 108.683594 " clip-rule="nonzero"/></clipPath></defs><g clip-path="url(#e13498ea08)"><g clip-path="url(#1dba7a49a7)"><g transform="matrix(1, 0, 0, 1, 9, -0.000000000000060896)"><g clip-path="url(#b75d911887)"><g clip-path="url(#3095ec2c07)"><g clip-path="url(#60b2e40862)"><path fill="#cd7f32" d="M 0.875 0.363281 L 283.542969 0.363281 L 283.542969 404.492188 L 0.875 404.492188 Z M 0.875 0.363281 " fill-opacity="1" fill-rule="nonzero"/></g></g></g></g></g></g><g clip-path="url(#96898f9e51)"><g clip-path="url(#32ee7e5675)"><g transform="matrix(1, 0, 0, 1, 20, 8)"><g clip-path="url(#7eb1506b61)"><g clip-path="url(#2e2e507f26)"><g clip-path="url(#75724de0f6)"><path fill="#fffaed" d="M 0 0.398438 L 262.960938 0.398438 L 262.960938 384.570312 L 0 384.570312 Z M 0 0.398438 " fill-opacity="1" fill-rule="nonzero"/></g></g></g></g></g></g><g clip-path="url(#7a0dd35082)"><g clip-path="url(#803196c5fc)"><g transform="matrix(1, 0, 0, 1, 10, 8)"><g clip-path="url(#933150b193)"><g clip-path="url(#45c1680c00)"><g clip-path="url(#13ab40d285)"><path fill="#cd7f32" d="M 0.898438 0.398438 L 282.925781 0.398438 L 282.925781 70.289062 L 0.898438 70.289062 Z M 0.898438 0.398438 " fill-opacity="1" fill-rule="nonzero"/></g></g></g></g></g></g><g fill="#ffffff" fill-opacity="1"><g transform="translate(118.394965, 52.542071)"><g><path d="M 2.0625 -0.8125 L 2.125 -1.34375 L 2.015625 -5.3125 L 2.125 -5.84375 L 2.046875 -18.15625 L 2.09375 -18.75 L 2.40625 -19.3125 L 2.96875 -19.609375 L 3.765625 -19.390625 L 4.578125 -18.796875 L 5.203125 -18.15625 L 5.5 -17.765625 L 5.890625 -17.40625 L 6.203125 -16.984375 L 6.5625 -16.59375 L 7.046875 -16.171875 L 7.703125 -15.34375 L 9.640625 -13.359375 L 9.96875 -12.90625 L 10.421875 -12.546875 L 10.75 -12.0625 L 11.125 -11.703125 L 11.625 -11.53125 L 12.234375 -11.734375 L 16.375 -16.125 L 16.625 -16.53125 L 18.21875 -18.1875 L 18.859375 -18.96875 L 19.5625 -19.359375 L 20.390625 -19.609375 L 20.953125 -19.28125 L 21.265625 -18.75 L 21.234375 -18.15625 L 21.28125 -17.6875 L 21.234375 -17.09375 L 21.3125 -9.1875 L 21.234375 -8.6875 L 21.28125 -8.125 L 21.234375 -7.546875 L 21.265625 -6.984375 L 21.171875 -6.421875 L 21.234375 -5.34375 L 21.171875 -4.8125 L 21.28125 -1.453125 L 21.203125 -0.890625 L 20.890625 -0.3125 L 20.359375 0.03125 L 17.015625 0 L 16.40625 -0.21875 L 16.125 -0.8125 L 16.203125 -4.671875 L 16.125 -5.703125 L 16.140625 -6.265625 L 16.125 -6.765625 L 16.203125 -7.296875 L 16.125 -7.84375 L 15.890625 -8.1875 L 15.5625 -8.125 L 15.171875 -7.734375 L 14.8125 -7.265625 L 12.453125 -4.890625 L 11.984375 -4.546875 L 11.34375 -4.546875 L 10.421875 -5.3125 L 10.0625 -5.78125 L 8.5 -7.265625 L 7.796875 -8.125 L 7.375 -8.234375 L 7.125 -7.84375 L 7.234375 -6.234375 L 7.15625 -2.453125 L 7.234375 -1.875 L 7.265625 -1.28125 L 7.203125 -0.75 L 6.90625 -0.3125 L 6.0625 -0.0625 L 2.984375 0 L 2.3125 -0.3125 Z M 2.0625 -0.8125 "/></g></g></g><g fill="#ffffff" fill-opacity="1"><g transform="translate(141.743507, 52.542071)"><g><path d="M 1.34375 -0.8125 L 1.34375 -2.96875 L 1.390625 -3.484375 L 1.734375 -4.015625 L 3.578125 -4.609375 L 3.859375 -5.21875 L 3.90625 -6.3125 L 3.796875 -7.515625 L 3.9375 -8.078125 L 3.828125 -9.15625 L 3.890625 -9.71875 L 3.90625 -10.875 L 3.828125 -11.515625 L 3.796875 -11.984375 L 3.890625 -14.359375 L 3.515625 -14.859375 L 1.8125 -15.453125 L 1.53125 -15.984375 L 1.53125 -16.515625 L 1.484375 -17.0625 L 1.484375 -17.6875 L 1.53125 -18.15625 L 1.53125 -18.6875 L 1.84375 -19.28125 L 2.453125 -19.5625 L 3.546875 -19.5 L 4.078125 -19.53125 L 5.78125 -19.5 L 6.390625 -19.5625 L 9.953125 -19.53125 L 10.84375 -19.28125 L 11.0625 -18.71875 L 11.125 -18.15625 L 11.0625 -17.65625 L 11.0625 -16.015625 L 10.75 -15.484375 L 10.21875 -15.171875 L 9.609375 -15.140625 L 9.078125 -14.828125 L 8.765625 -14.328125 L 8.765625 -13.15625 L 8.828125 -12.578125 L 8.765625 -12.015625 L 8.828125 -11.484375 L 8.765625 -10.609375 L 8.828125 -9.78125 L 8.71875 -8.609375 L 8.828125 -7.484375 L 8.765625 -5.203125 L 9.078125 -4.640625 L 10.953125 -4.046875 L 11.34375 -3.578125 L 11.265625 -1.875 L 11.3125 -1.375 L 11.3125 -0.75 L 11 -0.25 L 10.46875 0.03125 L 2.171875 -0.03125 L 1.625 -0.21875 Z M 1.34375 -0.8125 "/></g></g></g><g fill="#ffffff" fill-opacity="1"><g transform="translate(154.423219, 52.542071)"><g><path d="M 2.015625 -0.8125 L 2.125 -1.375 L 2.15625 -1.921875 L 2.09375 -3.015625 L 2.09375 -3.578125 L 2.046875 -4.21875 L 2.125 -4.71875 L 2.09375 -5.25 L 2.15625 -5.859375 L 2.0625 -6.453125 L 2.125 -7.578125 L 2.046875 -8.65625 L 2.125 -9.25 L 2.125 -14.25 L 2.0625 -14.75 L 2.125 -15.34375 L 2.015625 -16.765625 L 2.125 -17.578125 L 2.0625 -18.6875 L 2.34375 -19.3125 L 3.15625 -19.5 L 6.8125 -19.578125 L 7.3125 -19.53125 L 8.40625 -19.5625 L 8.96875 -19.5 L 10.203125 -19.5625 L 10.75 -19.46875 L 11.265625 -19.53125 L 13.5 -19.5 L 14.078125 -19.25 L 14.359375 -18.6875 L 14.28125 -18.15625 L 14.25 -17.546875 L 14.328125 -17.015625 L 14.390625 -15.875 L 14.078125 -15.359375 L 13.5 -15.0625 L 8.125 -15.03125 L 7.265625 -14.78125 L 6.984375 -13.96875 L 7.046875 -13.109375 L 7.375 -12.59375 L 7.84375 -12.296875 L 10.0625 -12.328125 L 10.703125 -12.265625 L 11.28125 -12.265625 L 11.84375 -12.328125 L 12.96875 -12.296875 L 13.4375 -11.984375 L 13.6875 -11.453125 L 13.75 -10.890625 L 13.6875 -8.6875 L 13.40625 -8.15625 L 12.84375 -7.84375 L 12.34375 -7.828125 L 11.765625 -7.875 L 11 -7.828125 L 9.53125 -7.90625 L 8.96875 -7.84375 L 7.875 -7.84375 L 7.375 -7.546875 L 7.125 -6.953125 L 7.09375 -5.59375 L 7.34375 -4.71875 L 7.9375 -4.390625 L 8.546875 -4.4375 L 9.15625 -4.390625 L 9.6875 -4.46875 L 13.375 -4.421875 L 14.21875 -4.140625 L 14.578125 -3.578125 L 14.53125 -3.046875 L 14.5625 -1.3125 L 14.5 -0.78125 L 14.25 -0.25 L 13.65625 0.03125 L 13.125 0.078125 L 11.421875 -0.03125 L 9.71875 0.0625 L 9.21875 -0.03125 L 2.90625 0.03125 L 2.375 -0.28125 Z M 2.015625 -0.8125 "/></g></g></g><g fill="#ffffff" fill-opacity="1"><g transform="translate(170.426469, 52.542071)"><g><path d="M 2.09375 -0.8125 L 2.046875 -1.390625 L 2.15625 -1.921875 L 2.09375 -2.484375 L 2.125 -5.890625 L 2.0625 -6.390625 L 2.046875 -7.515625 L 2.125 -8.078125 L 2.046875 -9.1875 L 2.125 -9.71875 L 2.046875 -10.921875 L 2.125 -11.453125 L 2.0625 -12.015625 L 2.15625 -12.515625 L 2.0625 -13.109375 L 2.125 -13.65625 L 2.09375 -14.1875 L 2.171875 -14.8125 L 2.125 -15.34375 L 2.046875 -15.890625 L 2.125 -16.484375 L 2.171875 -17.015625 L 2.015625 -18.46875 L 2.375 -19.21875 L 3.1875 -19.53125 L 6.09375 -19.578125 L 6.8125 -19.25 L 7.09375 -18.40625 L 7.15625 -17.046875 L 7.09375 -16.421875 L 7.1875 -12.0625 L 7.09375 -11.484375 L 7.1875 -10.875 L 7.09375 -10.078125 L 7.125 -8.6875 L 7.0625 -8.109375 L 7.125 -7.546875 L 7.09375 -6.921875 L 7.1875 -6.390625 L 7.15625 -5.359375 L 7.3125 -4.75 L 7.90625 -4.5 L 12.828125 -4.4375 L 13.4375 -4.53125 L 13.890625 -4.25 L 14.25 -3.625 L 14.171875 -3.09375 L 14.25 -2.484375 L 14.1875 -1.984375 L 14.171875 -1.421875 L 14.21875 -0.8125 L 13.90625 -0.3125 L 13.125 -0.03125 L 3.234375 0.03125 L 2.34375 -0.3125 Z M 2.09375 -0.8125 "/></g></g></g><g clip-path="url(#9891ce11a4)"><g clip-path="url(#7043eb671c)"><g transform="matrix(1, 0, 0, 1, 13, 272)"><g clip-path="url(#576cad0a05)"><g clip-path="url(#ae5a422cd1)"><g clip-path="url(#0dc868bc82)"><path fill="#cd7f32" d="M 0.121094 0.652344 L 282.265625 0.652344 L 282.265625 120.835938 L 0.121094 120.835938 Z M 0.121094 0.652344 " fill-opacity="1" fill-rule="nonzero"/></g></g></g></g></g></g><g fill="#ffffff" fill-opacity="1"><g transform="translate(142.793509, 341.488354)"><g/></g></g><g fill="#ffffff" fill-opacity="1"><g transform="translate(150.362235, 341.488354)"><g/></g></g><g fill="#ffffff" fill-opacity="1"><g transform="translate(157.93096, 341.488354)"><g/></g></g><g clip-path="url(#1a44289c72)"><path fill="#000000" d="M 41.324219 79.59375 C 29.59375 79.59375 20 89.191406 20 100.917969 C 20 112.644531 29.59375 122.242188 41.324219 122.242188 C 53.050781 122.242188 62.648438 112.644531 62.648438 100.917969 C 62.648438 89.191406 53.050781 79.59375 41.324219 79.59375 Z M 44.09375 110.726562 L 40.257812 110.726562 L 40.257812 95.585938 L 35.566406 97.078125 L 35.566406 93.878906 L 43.667969 90.894531 L 44.09375 90.894531 Z M 44.09375 110.726562 " fill-opacity="1" fill-rule="nonzero"/></g><path fill="#f9b132" d="M 231.292969 164.421875 L 230.308594 162.289062 C 230.308594 162.277344 230.308594 162.277344 230.308594 162.277344 C 231.144531 161.304688 232.277344 160.277344 233.769531 159.46875 C 233.824219 159.441406 233.890625 159.414062 233.945312 159.375 C 237.269531 157.648438 237.742188 153.128906 234.753906 150.863281 L 219.957031 139.691406 C 220.078125 139.296875 220.144531 138.878906 220.144531 138.460938 C 220.144531 136.84375 219.175781 135.371094 217.667969 134.753906 C 222.246094 132.324219 225.097656 127.5625 225.097656 122.394531 C 225.097656 117.226562 222.246094 112.464844 217.667969 110.035156 L 91.347656 110.035156 C 86.769531 112.464844 83.917969 117.226562 83.917969 122.394531 C 83.917969 127.5625 86.769531 132.324219 91.347656 134.753906 C 89.839844 135.371094 88.871094 136.84375 88.871094 138.460938 C 88.871094 138.878906 88.9375 139.296875 89.058594 139.691406 L 75.3125 151.457031 C 71.191406 154.988281 71.636719 161.613281 76.335938 164.328125 C 76.375 164.355469 76.429688 164.378906 76.484375 164.421875 C 76.835938 164.609375 77.171875 164.785156 77.519531 164.933594 C 74.234375 173.394531 67.988281 193.089844 72.769531 217.554688 C 76.847656 238.507812 87.039062 252.808594 92.585938 259.582031 C 92.144531 260.039062 90.109375 262.277344 90.109375 265.761719 C 90.109375 266.394531 90.175781 269.417969 92.585938 271.9375 C 113.226562 271.9375 133.867188 271.9375 154.507812 271.9375 C 175.148438 271.9375 195.789062 271.9375 216.429688 271.9375 C 218.839844 269.417969 218.90625 266.394531 218.90625 265.761719 C 218.90625 262.277344 216.871094 260.039062 216.429688 259.582031 C 221.976562 252.808594 232.167969 238.507812 236.246094 217.554688 C 241.121094 192.578125 234.511719 172.570312 231.292969 164.421875 Z M 231.292969 164.421875 " fill-opacity="1" fill-rule="nonzero"/><path fill="#524956" d="M 156.898438 230.355469 L 153.367188 238.574219 L 149.839844 230.355469 C 150.957031 230.882812 152.144531 231.152344 153.367188 231.152344 C 154.59375 231.152344 155.777344 230.882812 156.898438 230.355469 Z M 156.898438 230.355469 " fill-opacity="1" fill-rule="nonzero"/><path fill="#ffc05a" d="M 165.957031 198.652344 L 165.945312 198.652344 C 160.789062 196.882812 156.289062 196.546875 153.367188 196.546875 C 148.0625 196.546875 143.730469 197.636719 140.792969 198.652344 L 140.78125 198.652344 C 141.078125 197.449219 141.425781 196.289062 141.832031 195.195312 C 143.566406 190.40625 146.285156 186.789062 149.492188 185.160156 C 150.714844 184.523438 152.023438 184.1875 153.367188 184.1875 C 154.6875 184.1875 155.96875 184.511719 157.179688 185.117188 C 160.410156 186.738281 163.15625 190.367188 164.90625 195.183594 C 165.3125 196.277344 165.660156 197.4375 165.957031 198.652344 Z M 165.957031 198.652344 " fill-opacity="1" fill-rule="nonzero"/><path fill="#655f68" d="M 166.980469 206.433594 L 166.96875 206.433594 C 161.378906 204.34375 156.480469 203.964844 153.367188 203.964844 C 147.40625 203.964844 142.679688 205.34375 139.769531 206.433594 L 139.757812 206.433594 C 139.835938 203.695312 140.203125 201.066406 140.78125 198.652344 L 140.792969 198.652344 C 143.730469 197.636719 148.0625 196.546875 153.367188 196.546875 C 156.289062 196.546875 160.789062 196.882812 165.945312 198.652344 L 165.957031 198.652344 C 166.535156 201.066406 166.898438 203.695312 166.980469 206.433594 Z M 166.980469 206.433594 " fill-opacity="1" fill-rule="nonzero"/><path fill="#ffc05a" d="M 166.980469 206.433594 C 166.996094 206.855469 166.996094 207.257812 166.996094 207.675781 C 166.996094 209.863281 166.820312 211.980469 166.496094 213.976562 C 166.265625 215.394531 165.972656 216.757812 165.59375 218.050781 C 160.585938 219.710938 156.222656 220.035156 153.367188 220.035156 C 148.28125 220.035156 144.078125 219.023438 141.144531 218.050781 C 140.765625 216.742188 140.457031 215.367188 140.226562 213.921875 C 139.917969 211.941406 139.742188 209.847656 139.742188 207.675781 C 139.742188 207.257812 139.742188 206.855469 139.757812 206.433594 L 139.769531 206.433594 C 142.679688 205.34375 147.40625 203.964844 153.367188 203.964844 C 156.480469 203.964844 161.378906 204.34375 166.96875 206.433594 Z M 166.980469 206.433594 " fill-opacity="1" fill-rule="nonzero"/><path fill="#ef9d26" d="M 234.042969 159.375 C 233.992188 159.414062 233.921875 159.441406 233.871094 159.46875 C 232.375 160.277344 231.246094 161.304688 230.410156 162.277344 C 230.410156 162.277344 230.410156 162.277344 230.410156 162.289062 C 229.953125 162.828125 229.589844 163.339844 229.304688 163.785156 C 228.753906 164.636719 228.203125 165.460938 227.582031 166.257812 C 224.042969 170.695312 220.902344 171.519531 219.003906 171.828125 C 213.796875 172.679688 208.4375 170.25 205.378906 165.648438 C 205.097656 165.242188 200.667969 159.144531 193.007812 159.46875 C 188.457031 159.671875 185.25 162.007812 183.472656 163.773438 C 182.667969 164.570312 181.992188 165.488281 181.402344 166.457031 C 180.335938 168.199219 177.765625 171.652344 173.1875 173.070312 C 167.628906 174.78125 161.3125 172.839844 157.085938 168.117188 C 156.789062 167.726562 155.496094 166.027344 153.261719 164.515625 C 151.445312 163.289062 148.992188 162.167969 145.9375 161.9375 C 138.71875 161.414062 134.101562 166.28125 133.550781 166.890625 C 132.445312 167.941406 128.515625 171.410156 122.402344 171.828125 C 114.769531 172.355469 109.636719 167.6875 108.777344 166.890625 C 107.957031 165.933594 105.046875 162.816406 100.121094 161.9375 C 94.234375 160.898438 89.832031 163.8125 88.972656 164.421875 C 88.609375 164.609375 83.222656 167.402344 77.621094 164.933594 C 77.269531 164.785156 76.933594 164.609375 76.585938 164.421875 C 76.53125 164.378906 76.476562 164.355469 76.4375 164.328125 C 71.738281 161.613281 71.292969 154.988281 75.414062 151.457031 L 89.160156 139.691406 C 89.523438 140.796875 90.332031 141.714844 91.449219 142.171875 L 217.765625 142.171875 C 218.882812 141.714844 219.691406 140.796875 220.054688 139.691406 L 234.851562 150.863281 C 237.839844 153.128906 237.371094 157.648438 234.042969 159.375 Z M 234.042969 159.375 " fill-opacity="1" fill-rule="nonzero"/><path fill="#d87c0e" d="M 225.199219 122.394531 C 225.199219 127.5625 222.34375 132.324219 217.765625 134.753906 L 91.449219 134.753906 C 86.871094 132.324219 84.015625 127.5625 84.015625 122.394531 C 84.015625 117.226562 86.871094 112.464844 91.449219 110.035156 L 217.765625 110.035156 C 222.34375 112.464844 225.199219 117.226562 225.199219 122.394531 Z M 225.199219 122.394531 " fill-opacity="1" fill-rule="nonzero"/><path fill="#ffc05a" d="M 219.003906 265.761719 C 219.003906 266.394531 218.9375 269.417969 216.527344 271.9375 L 92.6875 271.9375 C 90.277344 269.417969 90.210938 266.394531 90.210938 265.761719 C 90.210938 262.277344 92.242188 260.039062 92.6875 259.582031 L 216.527344 259.582031 C 216.972656 260.039062 219.003906 262.277344 219.003906 265.761719 Z M 219.003906 265.761719 " fill-opacity="1" fill-rule="nonzero"/><path fill="#e7f2f1" d="M 174.425781 191.609375 C 181.886719 191.609375 187.929688 197.140625 187.929688 203.964844 C 187.929688 210.792969 181.886719 216.324219 174.425781 216.324219 C 171.464844 216.324219 168.71875 215.449219 166.496094 213.976562 C 166.820312 211.980469 166.996094 209.863281 166.996094 207.675781 C 166.996094 207.257812 166.996094 206.855469 166.980469 206.433594 C 166.898438 203.695312 166.535156 201.066406 165.957031 198.652344 C 165.660156 197.4375 165.3125 196.277344 164.90625 195.183594 C 167.359375 192.96875 170.710938 191.609375 174.425781 191.609375 Z M 174.425781 191.609375 " fill-opacity="1" fill-rule="nonzero"/><path fill="#655f68" d="M 165.59375 218.050781 C 163.871094 224.054688 160.71875 228.601562 156.898438 230.355469 C 155.777344 230.882812 154.59375 231.152344 153.367188 231.152344 C 152.144531 231.152344 150.957031 230.882812 149.839844 230.355469 C 146.019531 228.601562 142.867188 224.054688 141.144531 218.050781 C 144.078125 219.023438 148.28125 220.035156 153.367188 220.035156 C 156.222656 220.035156 160.585938 219.710938 165.59375 218.050781 Z M 165.59375 218.050781 " fill-opacity="1" fill-rule="nonzero"/><path fill="#e7f2f1" d="M 141.832031 195.195312 C 141.425781 196.289062 141.078125 197.449219 140.78125 198.652344 C 140.203125 201.066406 139.835938 203.695312 139.757812 206.433594 C 139.742188 206.855469 139.742188 207.257812 139.742188 207.675781 C 139.742188 209.847656 139.917969 211.941406 140.226562 213.921875 C 138.007812 215.40625 135.164062 216.324219 132.203125 216.324219 C 124.746094 216.324219 118.6875 210.792969 118.6875 203.964844 C 118.6875 197.140625 124.746094 191.609375 132.203125 191.609375 C 135.90625 191.609375 139.378906 192.984375 141.832031 195.195312 Z M 141.832031 195.195312 " fill-opacity="1" fill-rule="nonzero"/><path fill="#e58e1a" d="M 220.246094 138.460938 C 220.246094 138.878906 220.175781 139.296875 220.054688 139.691406 C 219.691406 140.796875 218.882812 141.714844 217.765625 142.171875 L 91.449219 142.171875 C 90.332031 141.714844 89.523438 140.796875 89.160156 139.691406 C 89.039062 139.296875 88.972656 138.878906 88.972656 138.460938 C 88.972656 136.84375 89.941406 135.371094 91.449219 134.753906 L 217.765625 134.753906 C 219.273438 135.371094 220.246094 136.84375 220.246094 138.460938 Z M 220.246094 138.460938 " fill-opacity="1" fill-rule="nonzero"/><path fill="#3a322b" d="M 174.421875 190.253906 C 171.164062 190.253906 168.070312 191.234375 165.507812 193.011719 C 163.863281 189.226562 161.585938 186.28125 158.90625 184.558594 C 159.226562 183.964844 159.6875 183.328125 160.386719 182.785156 C 160.980469 182.324219 161.652344 181.988281 162.394531 181.785156 C 163.113281 181.585938 163.53125 180.84375 163.335938 180.125 C 163.140625 179.40625 162.394531 178.984375 161.679688 179.179688 C 160.597656 179.476562 159.605469 179.972656 158.734375 180.652344 C 157.660156 181.488281 156.949219 182.464844 156.476562 183.359375 C 155.476562 183.023438 154.4375 182.839844 153.367188 182.839844 C 152.277344 182.839844 151.214844 183.035156 150.195312 183.386719 C 149.71875 182.476562 149.007812 181.488281 147.9375 180.652344 C 147.0625 179.972656 146.070312 179.476562 144.988281 179.179688 C 144.269531 178.980469 143.53125 179.40625 143.335938 180.125 C 143.136719 180.84375 143.558594 181.585938 144.277344 181.78125 C 145.015625 181.984375 145.691406 182.324219 146.28125 182.78125 C 146.984375 183.328125 147.445312 183.980469 147.773438 184.589844 C 145.113281 186.320312 142.859375 189.261719 141.222656 193.023438 C 138.652344 191.253906 135.464844 190.253906 132.199219 190.253906 C 124.007812 190.253906 117.34375 196.402344 117.34375 203.960938 C 117.34375 211.519531 124.007812 217.671875 132.199219 217.671875 C 134.640625 217.671875 137.082031 217.089844 139.253906 216.027344 C 140.792969 223.375 144.304688 229.058594 148.808594 231.367188 L 152.132812 239.101562 C 152.34375 239.597656 152.832031 239.917969 153.367188 239.917969 C 153.90625 239.917969 154.390625 239.597656 154.605469 239.101562 L 157.925781 231.367188 C 162.417969 229.0625 165.929688 223.402344 167.472656 216.074219 C 169.601562 217.117188 171.96875 217.671875 174.421875 217.671875 C 182.613281 217.671875 189.277344 211.523438 189.277344 203.960938 C 189.277344 196.402344 182.617188 190.253906 174.421875 190.253906 Z M 141.089844 207.671875 C 141.089844 207.585938 141.097656 207.503906 141.097656 207.417969 C 149.03125 204.664062 157.710938 204.664062 165.636719 207.417969 C 165.636719 207.503906 165.644531 207.585938 165.644531 207.671875 C 165.644531 210.976562 165.203125 214.128906 164.445312 216.980469 C 157.253906 219.207031 149.480469 219.207031 142.285156 216.980469 C 141.53125 214.128906 141.089844 210.976562 141.089844 207.671875 Z M 141.238281 204.503906 C 141.375 202.84375 141.617188 201.234375 141.957031 199.707031 C 149.355469 197.339844 157.382812 197.339844 164.777344 199.707031 C 165.117188 201.234375 165.359375 202.84375 165.496094 204.503906 C 157.625 202.007812 149.117188 202.007812 141.238281 204.503906 Z M 153.367188 185.539062 C 157.8125 185.539062 161.785156 190.070312 163.941406 196.644531 C 157.039062 194.761719 149.703125 194.761719 142.796875 196.644531 C 144.953125 190.070312 148.925781 185.539062 153.367188 185.539062 Z M 132.203125 214.972656 C 125.496094 214.972656 120.039062 210.035156 120.039062 203.964844 C 120.039062 197.890625 125.496094 192.953125 132.203125 192.953125 C 135.15625 192.953125 138.023438 193.921875 140.222656 195.621094 C 139.183594 198.792969 138.5625 202.414062 138.441406 206.289062 C 138.433594 206.351562 138.433594 206.414062 138.433594 206.480469 C 138.425781 206.878906 138.398438 207.269531 138.398438 207.671875 C 138.398438 209.582031 138.535156 211.425781 138.769531 213.203125 C 136.800781 214.332031 134.511719 214.972656 132.203125 214.972656 Z M 153.367188 235.15625 L 152.1875 232.40625 C 152.578125 232.457031 152.96875 232.503906 153.367188 232.503906 C 153.769531 232.503906 154.160156 232.457031 154.550781 232.40625 Z M 153.367188 229.804688 C 149.238281 229.804688 145.511719 225.898438 143.273438 220.070312 C 146.566406 220.929688 149.949219 221.378906 153.367188 221.378906 C 156.785156 221.378906 160.167969 220.929688 163.464844 220.070312 C 161.226562 225.898438 157.5 229.804688 153.367188 229.804688 Z M 174.421875 214.972656 C 172.105469 214.972656 169.898438 214.363281 167.960938 213.253906 C 168.203125 211.460938 168.339844 209.597656 168.339844 207.671875 C 168.339844 207.269531 168.316406 206.875 168.304688 206.480469 C 168.308594 206.414062 168.304688 206.351562 168.300781 206.289062 C 168.175781 202.410156 167.554688 198.789062 166.511719 195.613281 C 168.714844 193.898438 171.488281 192.957031 174.425781 192.957031 C 181.132812 192.957031 186.589844 197.894531 186.589844 203.964844 C 186.589844 210.035156 181.128906 214.972656 174.421875 214.972656 Z M 174.421875 214.972656 " fill-opacity="1" fill-rule="nonzero"/><g clip-path="url(#5ff975cd1c)"><path fill="#3a322b" d="M 232.617188 163.847656 L 232.015625 162.539062 C 232.679688 161.871094 233.503906 161.203125 234.511719 160.65625 L 234.664062 160.574219 C 236.671875 159.527344 237.980469 157.574219 238.164062 155.347656 C 238.34375 153.183594 237.410156 151.105469 235.664062 149.789062 L 221.546875 139.132812 C 221.574219 138.910156 221.597656 138.6875 221.597656 138.460938 C 221.597656 137.085938 221.074219 135.804688 220.183594 134.835938 C 224.152344 131.972656 226.550781 127.371094 226.550781 122.390625 C 226.550781 116.707031 223.429688 111.515625 218.402344 108.839844 C 218.207031 108.738281 217.992188 108.683594 217.769531 108.683594 L 91.441406 108.683594 C 91.222656 108.683594 91.003906 108.738281 90.8125 108.84375 C 85.789062 111.515625 82.664062 116.710938 82.664062 122.394531 C 82.664062 127.371094 85.0625 131.972656 89.03125 134.835938 C 88.140625 135.804688 87.621094 137.085938 87.621094 138.460938 C 87.621094 138.710938 87.640625 138.953125 87.675781 139.199219 L 74.542969 150.433594 C 72.230469 152.414062 71.011719 155.410156 71.289062 158.449219 C 71.5625 161.441406 73.191406 164.007812 75.757812 165.496094 L 75.921875 165.59375 C 75.925781 165.59375 75.929688 165.59375 75.933594 165.597656 C 71.464844 177.566406 67.289062 196.003906 71.542969 217.820312 C 75.25 236.804688 83.988281 250.867188 90.941406 259.5625 C 90.011719 260.808594 88.859375 262.925781 88.859375 265.761719 C 88.859375 267 89.136719 270.175781 91.707031 272.871094 C 91.960938 273.136719 92.3125 273.289062 92.683594 273.289062 L 216.53125 273.289062 C 216.898438 273.289062 217.25 273.140625 217.503906 272.871094 C 220.078125 270.175781 220.355469 267 220.355469 265.761719 C 220.355469 262.925781 219.203125 260.808594 218.273438 259.5625 C 225.226562 250.867188 233.964844 236.804688 237.667969 217.820312 C 242.109375 195.058594 237.390625 175.945312 232.617188 163.847656 Z M 128.625 140.820312 L 91.738281 140.820312 C 90.867188 140.359375 90.3125 139.460938 90.3125 138.460938 C 90.3125 137.449219 90.894531 136.554688 91.789062 136.101562 L 217.425781 136.101562 C 218.320312 136.554688 218.902344 137.449219 218.902344 138.460938 C 218.902344 139.460938 218.351562 140.359375 217.476562 140.820312 Z M 85.359375 122.394531 C 85.359375 117.820312 87.8125 113.628906 91.789062 111.382812 L 217.425781 111.382812 C 221.402344 113.632812 223.855469 117.820312 223.855469 122.394531 C 223.855469 126.96875 221.402344 131.15625 217.425781 133.402344 L 91.789062 133.402344 C 87.8125 131.15625 85.359375 126.96875 85.359375 122.394531 Z M 73.972656 158.203125 C 73.777344 156.035156 74.640625 153.898438 76.289062 152.488281 L 88.792969 141.789062 C 89.34375 142.488281 90.066406 143.058594 90.925781 143.414062 C 91.089844 143.484375 91.265625 143.519531 91.441406 143.519531 L 99.058594 143.519531 L 93.984375 152.632812 C 93.621094 153.285156 93.855469 154.105469 94.503906 154.46875 C 94.710938 154.585938 94.9375 154.640625 95.15625 154.640625 C 95.628906 154.640625 96.089844 154.390625 96.335938 153.949219 L 102.144531 143.519531 L 126.523438 143.519531 L 122.414062 152.742188 C 122.113281 153.421875 122.417969 154.21875 123.09375 154.523438 C 123.273438 154.601562 123.460938 154.640625 123.644531 154.640625 C 124.15625 154.640625 124.652344 154.34375 124.875 153.839844 L 129.472656 143.515625 L 153.261719 143.515625 L 153.261719 153.289062 C 153.261719 154.035156 153.863281 154.640625 154.609375 154.640625 C 155.351562 154.640625 155.953125 154.035156 155.953125 153.289062 L 155.953125 143.515625 L 179.742188 143.515625 L 184.339844 153.839844 C 184.566406 154.34375 185.054688 154.640625 185.570312 154.640625 C 185.753906 154.640625 185.941406 154.601562 186.121094 154.523438 C 186.796875 154.21875 187.101562 153.421875 186.800781 152.742188 L 182.691406 143.519531 L 207.074219 143.519531 L 212.878906 153.949219 C 213.125 154.390625 213.582031 154.640625 214.058594 154.640625 C 214.28125 154.640625 214.503906 154.585938 214.710938 154.46875 C 215.359375 154.105469 215.59375 153.285156 215.230469 152.632812 L 210.15625 143.519531 L 217.773438 143.519531 C 217.949219 143.519531 218.125 143.484375 218.289062 143.414062 C 219.183594 143.042969 219.921875 142.445312 220.484375 141.710938 L 234.042969 151.945312 C 235.0625 152.710938 235.585938 153.871094 235.480469 155.125 C 235.375 156.421875 234.601562 157.566406 233.425781 158.179688 L 233.230469 158.285156 C 231.828125 159.042969 230.566406 160.085938 229.488281 161.320312 C 229.445312 161.359375 229.40625 161.398438 229.371094 161.441406 C 228.9375 161.949219 228.527344 162.480469 228.164062 163.054688 C 227.582031 163.960938 227.082031 164.710938 226.523438 165.414062 C 223.421875 169.3125 220.761719 170.179688 218.792969 170.5 C 214.09375 171.265625 209.269531 169.066406 206.488281 164.878906 C 206.28125 164.585938 201.390625 157.757812 192.941406 158.125 C 188.042969 158.335938 184.574219 160.789062 182.527344 162.804688 C 181.710938 163.613281 180.964844 164.578125 180.246094 165.757812 C 179.203125 167.464844 176.851562 170.519531 172.785156 171.777344 C 167.734375 173.339844 161.964844 171.554688 158.167969 167.320312 C 157.101562 165.875 153.078125 161.121094 146.035156 160.597656 C 138.40625 160.039062 133.46875 164.980469 132.625 165.910156 C 130.984375 167.464844 127.464844 170.132812 122.3125 170.488281 C 115.691406 170.941406 111.082031 167.1875 109.75 165.949219 C 108.308594 164.304688 105.203125 161.476562 100.34375 160.617188 C 94.496094 159.582031 89.996094 162.082031 88.269531 163.257812 C 87.628906 163.589844 82.375 166.125 77.238281 163.238281 L 77.105469 163.164062 C 75.308594 162.121094 74.164062 160.3125 73.972656 158.203125 Z M 215.929688 270.589844 L 93.285156 270.589844 C 91.683594 268.636719 91.550781 266.425781 91.550781 265.761719 C 91.550781 263.433594 92.632812 261.746094 93.296875 260.929688 L 215.917969 260.929688 C 216.578125 261.746094 217.660156 263.433594 217.660156 265.761719 C 217.664062 266.425781 217.53125 268.636719 215.929688 270.589844 Z M 235.027344 217.300781 C 231.378906 236 222.695312 249.808594 215.894531 258.230469 L 93.320312 258.230469 C 86.519531 249.808594 77.835938 236 74.1875 217.300781 C 70.066406 196.179688 74.082031 178.3125 78.40625 166.671875 C 84.152344 168.484375 89.355469 165.738281 89.605469 165.601562 C 89.648438 165.578125 89.6875 165.554688 89.730469 165.523438 C 90.824219 164.769531 94.789062 162.367188 99.875 163.273438 C 103.972656 163.996094 106.578125 166.402344 107.765625 167.769531 C 107.796875 167.804688 107.828125 167.839844 107.859375 167.871094 C 109.328125 169.25 114.707031 173.710938 122.496094 173.175781 C 128.492188 172.765625 132.574219 169.671875 134.546875 167.796875 C 135.308594 166.964844 139.453125 162.828125 145.839844 163.289062 C 151.890625 163.734375 155.367188 168.0625 156.082031 169.023438 C 159.550781 172.890625 164.328125 175.03125 169.070312 175.03125 C 170.59375 175.03125 172.113281 174.808594 173.582031 174.355469 C 178.492188 172.835938 181.304688 169.195312 182.546875 167.160156 C 183.148438 166.171875 183.761719 165.375 184.417969 164.726562 C 186.128906 163.039062 189.019531 160.992188 193.058594 160.816406 C 200.070312 160.519531 204.117188 166.183594 204.265625 166.394531 C 207.613281 171.4375 213.480469 174.085938 219.226562 173.160156 C 221.484375 172.792969 224.914062 171.765625 228.632812 167.09375 C 229.164062 166.421875 229.640625 165.71875 230.152344 164.933594 C 234.757812 176.628906 239.339844 195.199219 235.027344 217.300781 Z M 235.027344 217.300781 " fill-opacity="1" fill-rule="nonzero"/></g><g fill="#ffffff" fill-opacity="1"><g transform="translate(23.405829, 333.358461)"><g><path d="M 11.75 0.3125 L 11.140625 0.3125 L 10.5625 0.1875 L 9.890625 0.125 L 9.21875 -0.09375 L 8.75 -0.21875 L 8.109375 -0.453125 L 5.9375 -1.625 L 5.453125 -2.015625 L 4.921875 -2.359375 L 3.765625 -3.484375 L 2.484375 -5.328125 L 2.265625 -5.875 L 1.953125 -6.453125 L 1.84375 -7.015625 L 1.59375 -7.625 L 1.28125 -8.875 L 1.28125 -10.15625 L 1.15625 -11.171875 L 1.71875 -15.15625 L 3.1875 -18.03125 L 3.578125 -18.578125 L 4.4375 -19.375 L 4.8125 -19.890625 L 7.0625 -21.328125 L 7.625 -21.546875 L 8.109375 -21.828125 L 8.71875 -22.0625 L 9.953125 -22.3125 L 10.5625 -22.5 L 11.109375 -22.5625 L 14.015625 -22.5625 L 15.609375 -22.34375 L 16.859375 -22 L 18.671875 -21.171875 L 19.375 -20.6875 L 21.03125 -19.1875 L 22.21875 -17.5625 L 22.734375 -16.34375 L 22.828125 -15.765625 L 23.078125 -15.125 L 22.890625 -14.453125 L 22.375 -14.171875 L 21.734375 -14.109375 L 18.515625 -14.171875 L 17.8125 -14.453125 L 17.234375 -15.0625 L 16.953125 -15.609375 L 16.46875 -16.125 L 15.546875 -16.890625 L 14.875 -17.109375 L 13.65625 -17.328125 L 11.6875 -17.390625 L 10.5625 -17.078125 L 9.953125 -16.828125 L 8.90625 -16.0625 L 8.109375 -15.0625 L 7.5625 -13.921875 L 7.375 -13.34375 L 7.34375 -12.703125 L 7.125 -12.125 L 7.09375 -11.109375 L 7.1875 -9.609375 L 7.5625 -8.359375 L 7.828125 -7.828125 L 9 -6.28125 L 9.421875 -5.84375 L 10.03125 -5.546875 L 11.75 -4.921875 L 13.53125 -4.890625 L 14.203125 -4.953125 L 14.84375 -5.140625 L 15.921875 -5.6875 L 17.140625 -6.984375 L 17.390625 -7.53125 L 18.03125 -8.140625 L 18.734375 -8.453125 L 22.15625 -8.421875 L 22.953125 -8.078125 L 23.140625 -7.5 L 23.046875 -6.890625 L 22.828125 -6.25 L 22.671875 -5.65625 L 22.375 -5.078125 L 21.421875 -3.421875 L 20.875 -3 L 20.53125 -2.453125 L 20.109375 -2.046875 L 19.5625 -1.65625 L 19 -1.3125 L 18.515625 -0.984375 L 16.765625 -0.21875 L 13.65625 0.421875 Z M 11.75 0.3125 "/></g></g></g><g fill="#ffffff" fill-opacity="1"><g transform="translate(47.437961, 333.358461)"><g><path d="M 0.421875 -0.859375 L 0.796875 -2.203125 L 1.078125 -2.84375 L 1.46875 -3.359375 L 2.390625 -5.6875 L 3.28125 -7.34375 L 3.515625 -7.984375 L 3.796875 -8.484375 L 3.984375 -9.15625 L 4.4375 -9.984375 L 4.65625 -10.59375 L 5.140625 -11.421875 L 5.65625 -12.578125 L 6 -13.15625 L 6.15625 -13.6875 L 7.953125 -17.71875 L 8.296875 -18.296875 L 9.671875 -21.171875 L 9.859375 -21.734375 L 10.46875 -22.3125 L 11.484375 -22.625 L 12.578125 -22.34375 L 13.15625 -21.734375 L 13.34375 -21.125 L 13.625 -20.65625 L 14.140625 -19.4375 L 14.78125 -18.265625 L 15.265625 -17.140625 L 15.421875 -16.625 L 16 -15.421875 L 16.1875 -14.8125 L 16.828125 -13.6875 L 16.984375 -13.09375 L 17.296875 -12.546875 L 17.5625 -12 L 17.90625 -11.421875 L 18.09375 -10.796875 L 18.390625 -10.3125 L 18.609375 -9.671875 L 18.890625 -9.125 L 19.15625 -8.484375 L 19.5 -7.984375 L 19.953125 -6.796875 L 20.265625 -6.25 L 20.5 -5.65625 L 21.03125 -4.5 L 21.234375 -3.890625 L 21.546875 -3.421875 L 21.734375 -2.78125 L 22.15625 -2.234375 L 22.375 -1.65625 L 22.5625 -0.859375 L 22.4375 -0.1875 L 21.859375 0 L 19.890625 0.0625 L 18.765625 -0.03125 L 18.203125 0.03125 L 17.359375 -0.28125 L 16.828125 -0.796875 L 16.46875 -1.375 L 16.3125 -1.953125 L 15.640625 -2.453125 L 14.59375 -2.8125 L 13.09375 -2.75 L 12.421875 -2.8125 L 11.84375 -2.8125 L 11.109375 -2.71875 L 10.4375 -2.8125 L 8.65625 -2.78125 L 8.015625 -2.84375 L 7.25 -2.515625 L 6.703125 -1.921875 L 6.15625 -0.828125 L 5.59375 -0.25 L 4.859375 0.0625 L 4.015625 -0.03125 L 1.21875 -0.03125 L 0.578125 -0.1875 Z M 10.28125 -7.890625 L 12.765625 -7.921875 L 13.3125 -8.171875 L 13.375 -8.75 L 13.15625 -9.328125 L 12.828125 -9.953125 L 12.703125 -10.46875 L 12.359375 -11.015625 L 11.9375 -12.265625 L 11.5625 -12.515625 L 11.140625 -12.1875 L 10.859375 -11.6875 L 9.578125 -8.78125 L 9.671875 -8.140625 Z M 10.28125 -7.890625 "/></g></g></g><g fill="#ffffff" fill-opacity="1"><g transform="translate(70.608416, 333.358461)"><g><path d="M 2.453125 -1.015625 L 2.359375 -3.515625 L 2.421875 -4.1875 L 2.296875 -6.03125 L 2.390625 -7.34375 L 2.296875 -8.046875 L 2.328125 -9.25 L 2.390625 -9.921875 L 2.390625 -11.53125 L 2.296875 -12.453125 L 2.390625 -21.390625 L 2.65625 -22.0625 L 3.25 -22.34375 L 3.953125 -22.3125 L 4.5625 -22.40625 L 5.875 -22.28125 L 6.484375 -22.375 L 8.390625 -22.3125 L 8.9375 -22.375 L 9.640625 -22.3125 L 10.28125 -22.375 L 10.984375 -22.34375 L 11.90625 -22.375 L 12.703125 -22.3125 L 15.359375 -21.765625 L 16.46875 -21.203125 L 18.0625 -19.984375 L 18.359375 -19.5 L 18.796875 -19.03125 L 19.65625 -17.265625 L 19.828125 -16.625 L 19.921875 -16.03125 L 20.078125 -15.421875 L 20.046875 -12.890625 L 19.703125 -11.6875 L 19.46875 -11.140625 L 19.125 -10.5625 L 18.890625 -9.953125 L 18.515625 -9.421875 L 17.625 -8.5625 L 17.265625 -7.890625 L 17.359375 -7.125 L 18.328125 -5.453125 L 18.734375 -4.953125 L 19.0625 -4.375 L 19.4375 -3.796875 L 19.734375 -3.25 L 20.75 -1.6875 L 21.171875 -0.890625 L 21.03125 -0.21875 L 20.359375 -0.0625 L 19.65625 0 L 18.390625 0 L 17.75 -0.0625 L 17.046875 0 L 15.890625 -0.0625 L 15.09375 -0.25 L 14.453125 -0.828125 L 14.078125 -1.34375 L 13.796875 -1.890625 L 13.375 -2.484375 L 12.484375 -4.09375 L 12.265625 -4.6875 L 11.421875 -5.8125 L 10.921875 -6.359375 L 10.125 -6.609375 L 9.546875 -6.578125 L 8.96875 -6.578125 L 8.328125 -6.25 L 8.046875 -5.625 L 8.109375 -3.640625 L 8.015625 -2.265625 L 8.140625 -1.59375 L 8.078125 -0.921875 L 7.859375 -0.3125 L 6.859375 0 L 5.90625 0 L 5.234375 -0.0625 L 3.921875 0.03125 L 3.3125 0 L 2.6875 -0.3125 Z M 8.96875 -11.75 L 9.671875 -11.75 L 10.3125 -11.65625 L 12.796875 -11.875 L 13.28125 -12.09375 L 13.65625 -12.484375 L 14.015625 -13.03125 L 14.265625 -13.65625 L 14.359375 -14.53125 L 14.296875 -15.453125 L 14.078125 -15.953125 L 13.765625 -16.4375 L 12.765625 -17.046875 L 11.296875 -17.234375 L 9.546875 -17.265625 L 9.03125 -17.234375 L 8.390625 -16.921875 L 8.015625 -16.28125 L 8.109375 -12.703125 L 8.421875 -12.03125 Z M 8.96875 -11.75 "/></g></g></g><g fill="#ffffff" fill-opacity="1"><g transform="translate(92.725668, 333.358461)"><g><path d="M 2.328125 -0.953125 L 2.296875 -2.171875 L 2.421875 -4.09375 L 2.328125 -5.390625 L 2.390625 -8.015625 L 2.328125 -8.625 L 2.328125 -9.890625 L 2.390625 -10.5 L 2.296875 -11.171875 L 2.296875 -13.71875 L 2.359375 -14.328125 L 2.328125 -15 L 2.390625 -15.609375 L 2.328125 -16.28125 L 2.421875 -16.953125 L 2.296875 -19.09375 L 2.359375 -20.015625 L 2.296875 -21.390625 L 2.578125 -22.0625 L 3.21875 -22.34375 L 12.828125 -22.28125 L 14.625 -21.859375 L 15.796875 -21.234375 L 16.765625 -20.5625 L 17.203125 -20.109375 L 17.96875 -19.09375 L 18.15625 -18.484375 L 18.484375 -17.875 L 18.828125 -16.6875 L 18.859375 -15.765625 L 18.421875 -13.46875 L 18.03125 -12.921875 L 17.6875 -12.296875 L 17.5625 -11.65625 L 17.84375 -10.953125 L 18.328125 -10.46875 L 18.765625 -9.921875 L 19.34375 -8.8125 L 19.5625 -8.140625 L 19.703125 -7.53125 L 19.65625 -4.984375 L 19.40625 -4.34375 L 19.28125 -3.796875 L 19 -3.1875 L 18.265625 -2.140625 L 17.75 -1.65625 L 17.328125 -1.34375 L 16.125 -0.640625 L 15.0625 -0.21875 L 13.859375 -0.0625 L 3.28125 0.0625 L 2.6875 -0.21875 Z M 8.875 -13.6875 L 11.265625 -13.6875 L 12.359375 -13.921875 L 12.890625 -14.421875 L 13.0625 -15.390625 L 12.953125 -16.25 L 12.546875 -16.6875 L 12.15625 -16.953125 L 11.171875 -17.140625 L 8.875 -17.234375 L 8.203125 -16.890625 L 7.859375 -16.34375 L 7.921875 -15.734375 L 7.921875 -15.125 L 7.78125 -14.59375 L 8.109375 -13.953125 Z M 8.78125 -5.078125 L 11.265625 -5.046875 L 13 -5.203125 L 13.5625 -5.546875 L 13.984375 -6 L 14.046875 -6.828125 L 13.984375 -7.71875 L 13.5 -8.171875 L 13.03125 -8.515625 L 12.125 -8.6875 L 8.75 -8.6875 L 8.109375 -8.359375 L 7.890625 -7.78125 L 7.859375 -7.15625 L 7.921875 -6.546875 L 7.890625 -6 L 8.234375 -5.328125 Z M 8.78125 -5.078125 "/></g></g></g><g fill="#ffffff" fill-opacity="1"><g transform="translate(113.789717, 333.358461)"><g><path d="M 11.9375 0.390625 L 11.265625 0.3125 L 10.125 0.0625 L 9.421875 0 L 8.484375 -0.3125 L 6 -1.59375 L 4.953125 -2.421875 L 4.59375 -2.84375 L 4.125 -3.28125 L 3.703125 -3.796875 L 3.3125 -4.1875 L 1.84375 -7.09375 L 1.5625 -8.296875 L 1.5 -8.90625 L 1.34375 -9.484375 L 1.25 -10.15625 L 1.34375 -12.734375 L 1.890625 -15.1875 L 2.359375 -16.40625 L 3.359375 -18.09375 L 4.921875 -19.921875 L 6 -20.71875 L 6.578125 -21 L 7.0625 -21.359375 L 9.453125 -22.25 L 12.828125 -22.734375 L 13.6875 -22.703125 L 15.546875 -22.375 L 18 -21.609375 L 18.484375 -21.265625 L 19.4375 -20.84375 L 20.171875 -20.328125 L 21.09375 -19.53125 L 22 -18.546875 L 22.703125 -17.59375 L 23.296875 -16.40625 L 24.09375 -14.015625 L 24.328125 -12.703125 L 24.421875 -11.109375 L 24.296875 -10.1875 L 24.265625 -9.515625 L 24.09375 -8.875 L 24.0625 -8.296875 L 23.8125 -7.09375 L 23.328125 -5.875 L 21.9375 -3.734375 L 21.484375 -3.28125 L 21.0625 -2.71875 L 20.171875 -1.953125 L 19.5625 -1.65625 L 19.09375 -1.28125 L 18.03125 -0.703125 L 15.640625 0.09375 L 13.71875 0.34375 Z M 13.71875 -5.265625 L 14.359375 -5.390625 L 14.84375 -5.625 L 15.421875 -5.78125 L 16.953125 -6.828125 L 17.390625 -7.34375 L 17.59375 -7.828125 L 17.9375 -8.390625 L 18.15625 -8.96875 L 18.421875 -10.15625 L 18.484375 -12.09375 L 18.390625 -12.671875 L 18.09375 -13.28125 L 17.71875 -14.5 L 16.46875 -15.796875 L 15.484375 -16.5 L 14.90625 -16.765625 L 14.328125 -16.890625 L 12.796875 -17.078125 L 11.90625 -17.015625 L 10.65625 -16.6875 L 10.25 -16.53125 L 8.65625 -15.453125 L 7.890625 -14.421875 L 7.6875 -13.859375 L 7.4375 -13.28125 L 7.34375 -12.671875 L 7.1875 -12.09375 L 7.1875 -10.15625 L 7.4375 -8.96875 L 7.71875 -8.390625 L 7.890625 -7.890625 L 8.328125 -7.28125 L 8.75 -6.828125 L 9.609375 -6.125 L 10.125 -5.84375 L 11.265625 -5.359375 L 11.96875 -5.265625 Z M 13.71875 -5.265625 "/></g></g></g><g fill="#ffffff" fill-opacity="1"><g transform="translate(139.385738, 333.358461)"><g><path d="M 2.421875 -0.890625 L 2.359375 -4.15625 L 2.421875 -4.78125 L 2.328125 -5.359375 L 2.421875 -6 L 2.359375 -6.703125 L 2.453125 -8.203125 L 2.390625 -8.9375 L 2.453125 -9.921875 L 2.359375 -10.53125 L 2.359375 -12.390625 L 2.421875 -13.0625 L 2.296875 -15 L 2.421875 -15.640625 L 2.359375 -16.1875 L 2.453125 -16.890625 L 2.296875 -18.796875 L 2.390625 -19.40625 L 2.328125 -20.109375 L 2.328125 -20.71875 L 2.421875 -21.421875 L 2.78125 -21.96875 L 3.765625 -22.25 L 4.375 -22.3125 L 5.015625 -22.25 L 6.890625 -22.3125 L 7.890625 -22 L 8.265625 -21.328125 L 8.234375 -20.78125 L 8.328125 -17.625 L 8.265625 -17.046875 L 8.265625 -15.125 L 8.515625 -14.53125 L 9.1875 -14.234375 L 12.296875 -14.265625 L 12.859375 -14.203125 L 14.140625 -14.203125 L 14.6875 -14.53125 L 15.03125 -15.15625 L 15.03125 -17.015625 L 15.15625 -17.5625 L 15.09375 -21.03125 L 15.359375 -21.96875 L 16.3125 -22.25 L 16.953125 -22.25 L 17.96875 -22.34375 L 19.59375 -22.3125 L 20.59375 -22 L 20.90625 -21.359375 L 20.96875 -20.71875 L 20.84375 -20.078125 L 20.90625 -19.46875 L 21.03125 -18.859375 L 20.875 -16.21875 L 20.96875 -13.09375 L 20.90625 -12.390625 L 20.9375 -11.171875 L 20.84375 -10.5 L 20.84375 -9.859375 L 20.90625 -9.1875 L 20.875 -8.5625 L 21 -7.34375 L 21 -2.203125 L 20.875 -0.890625 L 20.53125 -0.28125 L 19.890625 0.0625 L 17.6875 0.0625 L 16.734375 -0.03125 L 16.09375 0.03125 L 15.453125 -0.28125 L 15.125 -0.953125 L 15.03125 -2.203125 L 15.15625 -3.15625 L 15.03125 -5.421875 L 15.125 -6.03125 L 15.03125 -7.984375 L 14.71875 -8.625 L 14.140625 -8.9375 L 13.53125 -8.9375 L 12.890625 -9 L 12.265625 -8.9375 L 10.375 -8.9375 L 9.796875 -9 L 9.125 -9 L 8.484375 -8.625 L 8.171875 -7.953125 L 8.265625 -5.421875 L 8.203125 -4.75 L 8.234375 -4.046875 L 8.171875 -3.453125 L 8.234375 -2.8125 L 8.171875 -2.234375 L 8.265625 -1.53125 L 8.234375 -0.890625 L 7.984375 -0.25 L 7.28125 0.03125 L 6.609375 0.09375 L 5.9375 0 L 5.015625 -0.03125 L 4.015625 0.0625 L 3.421875 0.0625 L 2.6875 -0.21875 Z M 2.421875 -0.890625 "/></g></g></g><g fill="#ffffff" fill-opacity="1"><g transform="translate(162.747683, 333.358461)"><g><path d="M 1.53125 -0.921875 L 1.53125 -3.390625 L 1.59375 -3.984375 L 1.984375 -4.59375 L 4.09375 -5.265625 L 4.40625 -5.96875 L 4.46875 -7.21875 L 4.34375 -8.59375 L 4.5 -9.21875 L 4.375 -10.46875 L 4.4375 -11.109375 L 4.46875 -12.421875 L 4.375 -13.15625 L 4.34375 -13.6875 L 4.4375 -16.40625 L 4.015625 -16.984375 L 2.078125 -17.65625 L 1.75 -18.265625 L 1.75 -18.859375 L 1.6875 -19.5 L 1.6875 -20.203125 L 1.75 -20.75 L 1.75 -21.359375 L 2.109375 -22.03125 L 2.8125 -22.34375 L 4.046875 -22.28125 L 4.65625 -22.3125 L 6.609375 -22.28125 L 7.3125 -22.34375 L 11.359375 -22.3125 L 12.390625 -22.03125 L 12.640625 -21.390625 L 12.703125 -20.75 L 12.640625 -20.171875 L 12.640625 -18.296875 L 12.296875 -17.6875 L 11.6875 -17.328125 L 10.984375 -17.296875 L 10.375 -16.953125 L 10.03125 -16.375 L 10.03125 -15.03125 L 10.09375 -14.359375 L 10.03125 -13.71875 L 10.09375 -13.125 L 10.03125 -12.125 L 10.09375 -11.171875 L 9.953125 -9.828125 L 10.09375 -8.5625 L 10.03125 -5.9375 L 10.375 -5.296875 L 12.515625 -4.625 L 12.953125 -4.09375 L 12.859375 -2.140625 L 12.921875 -1.5625 L 12.921875 -0.859375 L 12.578125 -0.28125 L 11.96875 0.03125 L 2.484375 -0.03125 L 1.84375 -0.25 Z M 1.53125 -0.921875 "/></g></g></g><g fill="#ffffff" fill-opacity="1"><g transform="translate(177.237197, 333.358461)"><g><path d="M 2.390625 -0.984375 L 2.453125 -2.203125 L 2.359375 -4.75 L 2.421875 -5.390625 L 2.359375 -7.953125 L 2.453125 -9.1875 L 2.359375 -9.859375 L 2.453125 -10.46875 L 2.359375 -11.84375 L 2.453125 -13.0625 L 2.328125 -15.609375 L 2.421875 -16.25 L 2.328125 -16.890625 L 2.421875 -17.59375 L 2.359375 -18.796875 L 2.390625 -19.4375 L 2.328125 -20.078125 L 2.328125 -21.390625 L 2.8125 -22 L 3.390625 -22.34375 L 4.046875 -22.3125 L 4.625 -22.34375 L 5.265625 -22.28125 L 7.3125 -22.34375 L 7.953125 -22.28125 L 12.484375 -22.25 L 13.796875 -22 L 15.546875 -21.421875 L 16.1875 -21.09375 L 17.359375 -20.359375 L 18.265625 -19.5 L 18.796875 -19.09375 L 19.625 -18.09375 L 19.890625 -17.5625 L 20.625 -16.46875 L 21.09375 -15.1875 L 21.265625 -14.625 L 21.328125 -13.953125 L 21.796875 -12.125 L 21.671875 -10.09375 L 21.703125 -9.546875 L 21.546875 -8.875 L 21.453125 -8.203125 L 21.234375 -7.625 L 21.09375 -6.984375 L 20.78125 -6.390625 L 20.625 -5.78125 L 19.625 -4.1875 L 18.359375 -2.71875 L 15.640625 -0.890625 L 13.796875 -0.3125 L 11.75 -0.03125 L 6 0 L 5.328125 0.09375 L 4.6875 0.09375 L 4.015625 0 L 3.28125 0 L 2.78125 -0.28125 Z M 9.15625 -5.140625 L 11.8125 -5.265625 L 12.953125 -5.59375 L 13.59375 -5.90625 L 14.109375 -6.21875 L 14.5 -6.734375 L 14.90625 -7.1875 L 15.328125 -7.75 L 15.796875 -8.90625 L 16 -9.515625 L 16.15625 -11.078125 L 16.0625 -12.0625 L 15.671875 -13.953125 L 15.265625 -14.453125 L 14.90625 -15.0625 L 14.109375 -15.953125 L 13.03125 -16.65625 L 11.75 -17.046875 L 10.796875 -17.109375 L 10.125 -17.078125 L 9.453125 -17.109375 L 8.515625 -16.765625 L 8.140625 -16.1875 L 8.140625 -7.984375 L 8.046875 -7.34375 L 8.171875 -6.765625 L 8.109375 -6.125 L 8.390625 -5.421875 Z M 9.15625 -5.140625 "/></g></g></g><g fill="#ffffff" fill-opacity="1"><g transform="translate(200.439572, 333.358461)"><g><path d="M 2.453125 -1.015625 L 2.359375 -3.515625 L 2.421875 -4.1875 L 2.296875 -6.03125 L 2.390625 -7.34375 L 2.296875 -8.046875 L 2.328125 -9.25 L 2.390625 -9.921875 L 2.390625 -11.53125 L 2.296875 -12.453125 L 2.390625 -21.390625 L 2.65625 -22.0625 L 3.25 -22.34375 L 3.953125 -22.3125 L 4.5625 -22.40625 L 5.875 -22.28125 L 6.484375 -22.375 L 8.390625 -22.3125 L 8.9375 -22.375 L 9.640625 -22.3125 L 10.28125 -22.375 L 10.984375 -22.34375 L 11.90625 -22.375 L 12.703125 -22.3125 L 15.359375 -21.765625 L 16.46875 -21.203125 L 18.0625 -19.984375 L 18.359375 -19.5 L 18.796875 -19.03125 L 19.65625 -17.265625 L 19.828125 -16.625 L 19.921875 -16.03125 L 20.078125 -15.421875 L 20.046875 -12.890625 L 19.703125 -11.6875 L 19.46875 -11.140625 L 19.125 -10.5625 L 18.890625 -9.953125 L 18.515625 -9.421875 L 17.625 -8.5625 L 17.265625 -7.890625 L 17.359375 -7.125 L 18.328125 -5.453125 L 18.734375 -4.953125 L 19.0625 -4.375 L 19.4375 -3.796875 L 19.734375 -3.25 L 20.75 -1.6875 L 21.171875 -0.890625 L 21.03125 -0.21875 L 20.359375 -0.0625 L 19.65625 0 L 18.390625 0 L 17.75 -0.0625 L 17.046875 0 L 15.890625 -0.0625 L 15.09375 -0.25 L 14.453125 -0.828125 L 14.078125 -1.34375 L 13.796875 -1.890625 L 13.375 -2.484375 L 12.484375 -4.09375 L 12.265625 -4.6875 L 11.421875 -5.8125 L 10.921875 -6.359375 L 10.125 -6.609375 L 9.546875 -6.578125 L 8.96875 -6.578125 L 8.328125 -6.25 L 8.046875 -5.625 L 8.109375 -3.640625 L 8.015625 -2.265625 L 8.140625 -1.59375 L 8.078125 -0.921875 L 7.859375 -0.3125 L 6.859375 0 L 5.90625 0 L 5.234375 -0.0625 L 3.921875 0.03125 L 3.3125 0 L 2.6875 -0.3125 Z M 8.96875 -11.75 L 9.671875 -11.75 L 10.3125 -11.65625 L 12.796875 -11.875 L 13.28125 -12.09375 L 13.65625 -12.484375 L 14.015625 -13.03125 L 14.265625 -13.65625 L 14.359375 -14.53125 L 14.296875 -15.453125 L 14.078125 -15.953125 L 13.765625 -16.4375 L 12.765625 -17.046875 L 11.296875 -17.234375 L 9.546875 -17.265625 L 9.03125 -17.234375 L 8.390625 -16.921875 L 8.015625 -16.28125 L 8.109375 -12.703125 L 8.421875 -12.03125 Z M 8.96875 -11.75 "/></g></g></g><g fill="#ffffff" fill-opacity="1"><g transform="translate(222.556813, 333.358461)"><g><path d="M 0.421875 -0.859375 L 0.796875 -2.203125 L 1.078125 -2.84375 L 1.46875 -3.359375 L 2.390625 -5.6875 L 3.28125 -7.34375 L 3.515625 -7.984375 L 3.796875 -8.484375 L 3.984375 -9.15625 L 4.4375 -9.984375 L 4.65625 -10.59375 L 5.140625 -11.421875 L 5.65625 -12.578125 L 6 -13.15625 L 6.15625 -13.6875 L 7.953125 -17.71875 L 8.296875 -18.296875 L 9.671875 -21.171875 L 9.859375 -21.734375 L 10.46875 -22.3125 L 11.484375 -22.625 L 12.578125 -22.34375 L 13.15625 -21.734375 L 13.34375 -21.125 L 13.625 -20.65625 L 14.140625 -19.4375 L 14.78125 -18.265625 L 15.265625 -17.140625 L 15.421875 -16.625 L 16 -15.421875 L 16.1875 -14.8125 L 16.828125 -13.6875 L 16.984375 -13.09375 L 17.296875 -12.546875 L 17.5625 -12 L 17.90625 -11.421875 L 18.09375 -10.796875 L 18.390625 -10.3125 L 18.609375 -9.671875 L 18.890625 -9.125 L 19.15625 -8.484375 L 19.5 -7.984375 L 19.953125 -6.796875 L 20.265625 -6.25 L 20.5 -5.65625 L 21.03125 -4.5 L 21.234375 -3.890625 L 21.546875 -3.421875 L 21.734375 -2.78125 L 22.15625 -2.234375 L 22.375 -1.65625 L 22.5625 -0.859375 L 22.4375 -0.1875 L 21.859375 0 L 19.890625 0.0625 L 18.765625 -0.03125 L 18.203125 0.03125 L 17.359375 -0.28125 L 16.828125 -0.796875 L 16.46875 -1.375 L 16.3125 -1.953125 L 15.640625 -2.453125 L 14.59375 -2.8125 L 13.09375 -2.75 L 12.421875 -2.8125 L 11.84375 -2.8125 L 11.109375 -2.71875 L 10.4375 -2.8125 L 8.65625 -2.78125 L 8.015625 -2.84375 L 7.25 -2.515625 L 6.703125 -1.921875 L 6.15625 -0.828125 L 5.59375 -0.25 L 4.859375 0.0625 L 4.015625 -0.03125 L 1.21875 -0.03125 L 0.578125 -0.1875 Z M 10.28125 -7.890625 L 12.765625 -7.921875 L 13.3125 -8.171875 L 13.375 -8.75 L 13.15625 -9.328125 L 12.828125 -9.953125 L 12.703125 -10.46875 L 12.359375 -11.015625 L 11.9375 -12.265625 L 11.5625 -12.515625 L 11.140625 -12.1875 L 10.859375 -11.6875 L 9.578125 -8.78125 L 9.671875 -8.140625 Z M 10.28125 -7.890625 "/></g></g></g><g fill="#ffffff" fill-opacity="1"><g transform="translate(243.939864, 333.358461)"><g><path d="M 6.125 -0.984375 L 6.09375 -3.484375 L 6.15625 -4.125 L 6.0625 -6.0625 L 6.09375 -6.734375 L 6.0625 -7.375 L 6.1875 -8.328125 L 6.09375 -9.25 L 6.09375 -10.53125 L 6.15625 -11.171875 L 6.09375 -11.78125 L 6.1875 -12.765625 L 6.09375 -16.28125 L 5.78125 -16.890625 L 5.203125 -17.234375 L 2.359375 -17.265625 L 1.53125 -17.171875 L 0.890625 -17.5 L 0.546875 -18.203125 L 0.578125 -21.390625 L 0.890625 -22.03125 L 1.59375 -22.34375 L 11.109375 -22.28125 L 11.84375 -22.375 L 12.484375 -22.375 L 13.125 -22.3125 L 13.765625 -22.3125 L 14.453125 -22.40625 L 15.0625 -22.40625 L 15.578125 -22.34375 L 16.34375 -22.40625 L 16.984375 -22.09375 L 17.296875 -21.453125 L 17.234375 -18.828125 L 17.296875 -18.15625 L 16.984375 -17.53125 L 16.25 -17.234375 L 14.5 -17.265625 L 13.921875 -17.203125 L 13.28125 -17.234375 L 12.734375 -17.203125 L 12.03125 -16.921875 L 11.78125 -16.34375 L 11.84375 -15.640625 L 11.75 -15 L 11.875 -8.65625 L 11.78125 -7.3125 L 11.84375 -6.734375 L 11.78125 -4.78125 L 11.6875 -4.125 L 11.78125 -3.578125 L 11.8125 -2.296875 L 11.75 -1.5625 L 11.78125 -0.953125 L 11.53125 -0.3125 L 10.890625 -0.0625 L 8.90625 -0.0625 L 8.296875 0 L 7.65625 -0.0625 L 7.0625 0 L 6.390625 -0.3125 Z M 6.125 -0.984375 "/></g></g></g><g fill="#ffffff" fill-opacity="1"><g transform="translate(260.759115, 333.358461)"><g><path d="M 11.9375 0.390625 L 11.265625 0.3125 L 10.125 0.0625 L 9.421875 0 L 8.484375 -0.3125 L 6 -1.59375 L 4.953125 -2.421875 L 4.59375 -2.84375 L 4.125 -3.28125 L 3.703125 -3.796875 L 3.3125 -4.1875 L 1.84375 -7.09375 L 1.5625 -8.296875 L 1.5 -8.90625 L 1.34375 -9.484375 L 1.25 -10.15625 L 1.34375 -12.734375 L 1.890625 -15.1875 L 2.359375 -16.40625 L 3.359375 -18.09375 L 4.921875 -19.921875 L 6 -20.71875 L 6.578125 -21 L 7.0625 -21.359375 L 9.453125 -22.25 L 12.828125 -22.734375 L 13.6875 -22.703125 L 15.546875 -22.375 L 18 -21.609375 L 18.484375 -21.265625 L 19.4375 -20.84375 L 20.171875 -20.328125 L 21.09375 -19.53125 L 22 -18.546875 L 22.703125 -17.59375 L 23.296875 -16.40625 L 24.09375 -14.015625 L 24.328125 -12.703125 L 24.421875 -11.109375 L 24.296875 -10.1875 L 24.265625 -9.515625 L 24.09375 -8.875 L 24.0625 -8.296875 L 23.8125 -7.09375 L 23.328125 -5.875 L 21.9375 -3.734375 L 21.484375 -3.28125 L 21.0625 -2.71875 L 20.171875 -1.953125 L 19.5625 -1.65625 L 19.09375 -1.28125 L 18.03125 -0.703125 L 15.640625 0.09375 L 13.71875 0.34375 Z M 13.71875 -5.265625 L 14.359375 -5.390625 L 14.84375 -5.625 L 15.421875 -5.78125 L 16.953125 -6.828125 L 17.390625 -7.34375 L 17.59375 -7.828125 L 17.9375 -8.390625 L 18.15625 -8.96875 L 18.421875 -10.15625 L 18.484375 -12.09375 L 18.390625 -12.671875 L 18.09375 -13.28125 L 17.71875 -14.5 L 16.46875 -15.796875 L 15.484375 -16.5 L 14.90625 -16.765625 L 14.328125 -16.890625 L 12.796875 -17.078125 L 11.90625 -17.015625 L 10.65625 -16.6875 L 10.25 -16.53125 L 8.65625 -15.453125 L 7.890625 -14.421875 L 7.6875 -13.859375 L 7.4375 -13.28125 L 7.34375 -12.671875 L 7.1875 -12.09375 L 7.1875 -10.15625 L 7.4375 -8.96875 L 7.71875 -8.390625 L 7.890625 -7.890625 L 8.328125 -7.28125 L 8.75 -6.828125 L 9.609375 -6.125 L 10.125 -5.84375 L 11.265625 -5.359375 L 11.96875 -5.265625 Z M 13.71875 -5.265625 "/></g></g></g></svg>