<svg xmlns="http://www.w3.org/2000/svg" xmlns:xlink="http://www.w3.org/1999/xlink" width="415" zoomAndPan="magnify" viewBox="0 0 311.25 410.24999" height="547" preserveAspectRatio="xMidYMid meet" version="1.0"><defs><g/><clipPath id="77a05bdd94"><path d="M 12.988281 0.117188 L 295 0.117188 L 295 408.816406 L 12.988281 408.816406 Z M 12.988281 0.117188 " clip-rule="nonzero"/></clipPath><clipPath id="5a797e8e73"><path d="M 32.5625 0.117188 L 275.425781 0.117188 C 280.617188 0.117188 285.597656 2.179688 289.265625 5.851562 C 292.9375 9.523438 295 14.5 295 19.691406 L 295 389.183594 C 295 394.375 292.9375 399.355469 289.265625 403.023438 C 285.597656 406.695312 280.617188 408.757812 275.425781 408.757812 L 32.5625 408.757812 C 27.371094 408.757812 22.390625 406.695312 18.71875 403.023438 C 15.050781 399.355469 12.988281 394.375 12.988281 389.183594 L 12.988281 19.691406 C 12.988281 14.5 15.050781 9.523438 18.71875 5.851562 C 22.390625 2.179688 27.371094 0.117188 32.5625 0.117188 Z M 32.5625 0.117188 " clip-rule="nonzero"/></clipPath><clipPath id="a73ba06783"><path d="M 0.988281 0.117188 L 283 0.117188 L 283 408.8125 L 0.988281 408.8125 Z M 0.988281 0.117188 " clip-rule="nonzero"/></clipPath><clipPath id="c966b1522a"><path d="M 20.5625 0.117188 L 263.425781 0.117188 C 268.617188 0.117188 273.597656 2.179688 277.265625 5.851562 C 280.9375 9.523438 283 14.5 283 19.691406 L 283 389.183594 C 283 394.375 280.9375 399.355469 277.265625 403.023438 C 273.597656 406.695312 268.617188 408.757812 263.425781 408.757812 L 20.5625 408.757812 C 15.371094 408.757812 10.390625 406.695312 6.71875 403.023438 C 3.050781 399.355469 0.988281 394.375 0.988281 389.183594 L 0.988281 19.691406 C 0.988281 14.5 3.050781 9.523438 6.71875 5.851562 C 10.390625 2.179688 15.371094 0.117188 20.5625 0.117188 Z M 20.5625 0.117188 " clip-rule="nonzero"/></clipPath><clipPath id="df3b827d8d"><rect x="0" width="283" y="0" height="409"/></clipPath><clipPath id="c815ddb3b6"><path d="M 23.113281 10.246094 L 286.074219 10.246094 L 286.074219 399 L 23.113281 399 Z M 23.113281 10.246094 " clip-rule="nonzero"/></clipPath><clipPath id="fea4bacebc"><path d="M 36.339844 10.246094 L 272.851562 10.246094 C 276.359375 10.246094 279.722656 11.636719 282.203125 14.117188 C 284.683594 16.597656 286.074219 19.960938 286.074219 23.46875 L 286.074219 385.339844 C 286.074219 388.84375 284.683594 392.210938 282.203125 394.691406 C 279.722656 397.171875 276.359375 398.5625 272.851562 398.5625 L 36.339844 398.5625 C 32.832031 398.5625 29.464844 397.171875 26.984375 394.691406 C 24.503906 392.210938 23.113281 388.84375 23.113281 385.339844 L 23.113281 23.46875 C 23.113281 19.960938 24.503906 16.597656 26.984375 14.117188 C 29.464844 11.636719 32.832031 10.246094 36.339844 10.246094 Z M 36.339844 10.246094 " clip-rule="nonzero"/></clipPath><clipPath id="3419a7133f"><path d="M 0.113281 0.246094 L 263.074219 0.246094 L 263.074219 388.757812 L 0.113281 388.757812 Z M 0.113281 0.246094 " clip-rule="nonzero"/></clipPath><clipPath id="440efc38bb"><path d="M 13.339844 0.246094 L 249.851562 0.246094 C 253.359375 0.246094 256.722656 1.636719 259.203125 4.117188 C 261.683594 6.597656 263.074219 9.960938 263.074219 13.46875 L 263.074219 375.339844 C 263.074219 378.84375 261.683594 382.210938 259.203125 384.691406 C 256.722656 387.171875 253.359375 388.5625 249.851562 388.5625 L 13.339844 388.5625 C 9.832031 388.5625 6.464844 387.171875 3.984375 384.691406 C 1.503906 382.210938 0.113281 378.84375 0.113281 375.339844 L 0.113281 13.46875 C 0.113281 9.960938 1.503906 6.597656 3.984375 4.117188 C 6.464844 1.636719 9.832031 0.246094 13.339844 0.246094 Z M 13.339844 0.246094 " clip-rule="nonzero"/></clipPath><clipPath id="fac31cfbfd"><rect x="0" width="264" y="0" height="389"/></clipPath><clipPath id="0863d6f1c3"><path d="M 14.109375 278.382812 L 296.253906 278.382812 L 296.253906 398.5625 L 14.109375 398.5625 Z M 14.109375 278.382812 " clip-rule="nonzero"/></clipPath><clipPath id="243b197889"><path d="M 25.746094 278.382812 L 284.53125 278.382812 C 290.957031 278.382812 296.167969 283.59375 296.167969 290.019531 L 296.167969 386.925781 C 296.167969 393.351562 290.957031 398.5625 284.53125 398.5625 L 25.746094 398.5625 C 19.320312 398.5625 14.109375 393.351562 14.109375 386.925781 L 14.109375 290.019531 C 14.109375 283.59375 19.320312 278.382812 25.746094 278.382812 Z M 25.746094 278.382812 " clip-rule="nonzero"/></clipPath><clipPath id="1cbbfa5e98"><path d="M 0.109375 0.382812 L 282.253906 0.382812 L 282.253906 120.5625 L 0.109375 120.5625 Z M 0.109375 0.382812 " clip-rule="nonzero"/></clipPath><clipPath id="18fc5d7539"><path d="M 11.746094 0.382812 L 270.53125 0.382812 C 276.957031 0.382812 282.167969 5.59375 282.167969 12.019531 L 282.167969 108.925781 C 282.167969 115.351562 276.957031 120.5625 270.53125 120.5625 L 11.746094 120.5625 C 5.320312 120.5625 0.109375 115.351562 0.109375 108.925781 L 0.109375 12.019531 C 0.109375 5.59375 5.320312 0.382812 11.746094 0.382812 Z M 11.746094 0.382812 " clip-rule="nonzero"/></clipPath><clipPath id="c62dae9381"><rect x="0" width="283" y="0" height="121"/></clipPath><clipPath id="079d660535"><path d="M 12.988281 10.246094 L 295.285156 10.246094 L 295.285156 80.136719 L 12.988281 80.136719 Z M 12.988281 10.246094 " clip-rule="nonzero"/></clipPath><clipPath id="765573f6f5"><path d="M 24.625 10.246094 L 283.410156 10.246094 C 289.835938 10.246094 295.046875 15.457031 295.046875 21.882812 L 295.046875 68.496094 C 295.046875 74.925781 289.835938 80.136719 283.410156 80.136719 L 24.625 80.136719 C 18.199219 80.136719 12.988281 74.925781 12.988281 68.496094 L 12.988281 21.882812 C 12.988281 15.457031 18.199219 10.246094 24.625 10.246094 Z M 24.625 10.246094 " clip-rule="nonzero"/></clipPath><clipPath id="c904b88090"><path d="M 0.988281 0.246094 L 283.207031 0.246094 L 283.207031 70.136719 L 0.988281 70.136719 Z M 0.988281 0.246094 " clip-rule="nonzero"/></clipPath><clipPath id="37c8bcd7cc"><path d="M 12.625 0.246094 L 271.410156 0.246094 C 277.835938 0.246094 283.046875 5.457031 283.046875 11.882812 L 283.046875 58.496094 C 283.046875 64.925781 277.835938 70.136719 271.410156 70.136719 L 12.625 70.136719 C 6.199219 70.136719 0.988281 64.925781 0.988281 58.496094 L 0.988281 11.882812 C 0.988281 5.457031 6.199219 0.246094 12.625 0.246094 Z M 12.625 0.246094 " clip-rule="nonzero"/></clipPath><clipPath id="ea5aeb67a9"><rect x="0" width="284" y="0" height="71"/></clipPath><clipPath id="87a306a137"><path d="M 109.273438 82 L 198.308594 82 L 198.308594 269 L 109.273438 269 Z M 109.273438 82 " clip-rule="nonzero"/></clipPath><clipPath id="f71bb36d1b"><path d="M 109.273438 104 L 198.308594 104 L 198.308594 268.789062 L 109.273438 268.789062 Z M 109.273438 104 " clip-rule="nonzero"/></clipPath><clipPath id="3316a343ee"><path d="M 121.953125 134.019531 C 140.484375 127.796875 166.675781 127.816406 185.617188 134.058594 C 189.71875 135.410156 193.046875 140.023438 193.046875 144.347656 L 193.046875 250.082031 C 193.046875 254.085938 190.171875 258.84375 186.628906 260.695312 C 166.359375 271.308594 140.195312 271.316406 120.898438 260.804688 C 117.386719 258.890625 114.535156 254.085938 114.535156 250.082031 L 114.535156 144.347656 C 114.535156 140.023438 117.859375 135.394531 121.953125 134.019531 Z M 114.011719 87.984375 C 138.792969 80.148438 168.46875 80.160156 193.566406 88 C 196.171875 88.8125 198.289062 91.695312 198.289062 94.429688 L 198.289062 115.890625 C 198.289062 118.625 196.128906 121.335938 193.46875 121.945312 C 168.957031 127.539062 139.304688 127.550781 114.121094 121.921875 C 111.457031 121.328125 109.296875 118.625 109.296875 115.890625 L 109.296875 94.429688 C 109.296875 91.695312 111.410156 88.804688 114.011719 87.984375 Z M 114.011719 87.984375 " clip-rule="nonzero"/></clipPath><clipPath id="3c6f4794d0"><path d="M 109.273438 91 L 198 91 L 198 147 L 109.273438 147 Z M 109.273438 91 " clip-rule="nonzero"/></clipPath></defs><g clip-path="url(#77a05bdd94)"><g clip-path="url(#5a797e8e73)"><g transform="matrix(1, 0, 0, 1, 12, 0.000000000000000597)"><g clip-path="url(#df3b827d8d)"><g clip-path="url(#a73ba06783)"><g clip-path="url(#c966b1522a)"><path fill="#ffd700" d="M 0.988281 0.117188 L 283 0.117188 L 283 408.816406 L 0.988281 408.816406 Z M 0.988281 0.117188 " fill-opacity="1" fill-rule="nonzero"/></g></g></g></g></g></g><g clip-path="url(#c815ddb3b6)"><g clip-path="url(#fea4bacebc)"><g transform="matrix(1, 0, 0, 1, 23, 10)"><g clip-path="url(#fac31cfbfd)"><g clip-path="url(#3419a7133f)"><g clip-path="url(#440efc38bb)"><path fill="#fffaed" d="M 0.113281 0.246094 L 263.074219 0.246094 L 263.074219 388.527344 L 0.113281 388.527344 Z M 0.113281 0.246094 " fill-opacity="1" fill-rule="nonzero"/></g></g></g></g></g></g><g clip-path="url(#0863d6f1c3)"><g clip-path="url(#243b197889)"><g transform="matrix(1, 0, 0, 1, 14, 278)"><g clip-path="url(#c62dae9381)"><g clip-path="url(#1cbbfa5e98)"><g clip-path="url(#18fc5d7539)"><path fill="#ffd700" d="M 0.109375 0.382812 L 282.253906 0.382812 L 282.253906 120.5625 L 0.109375 120.5625 Z M 0.109375 0.382812 " fill-opacity="1" fill-rule="nonzero"/></g></g></g></g></g></g><g fill="#ffffff" fill-opacity="1"><g transform="translate(143.780463, 347.216234)"><g/></g></g><g fill="#ffffff" fill-opacity="1"><g transform="translate(151.349188, 347.216234)"><g/></g></g><g fill="#ffffff" fill-opacity="1"><g transform="translate(158.917914, 347.216234)"><g/></g></g><g clip-path="url(#079d660535)"><g clip-path="url(#765573f6f5)"><g transform="matrix(1, 0, 0, 1, 12, 10)"><g clip-path="url(#ea5aeb67a9)"><g clip-path="url(#c904b88090)"><g clip-path="url(#37c8bcd7cc)"><path fill="#ffd700" d="M 0.988281 0.246094 L 283.011719 0.246094 L 283.011719 70.136719 L 0.988281 70.136719 Z M 0.988281 0.246094 " fill-opacity="1" fill-rule="nonzero"/></g></g></g></g></g></g><g fill="#ffffff" fill-opacity="1"><g transform="translate(82.569231, 54.38798)"><g><path d="M 10.453125 0.328125 L 9.859375 0.28125 L 8.859375 0.0625 L 8.234375 0 L 7.4375 -0.28125 L 5.25 -1.390625 L 4.328125 -2.125 L 4.015625 -2.484375 L 3.609375 -2.875 L 3.234375 -3.328125 L 2.90625 -3.65625 L 1.625 -6.203125 L 1.375 -7.265625 L 1.3125 -7.796875 L 1.171875 -8.296875 L 1.09375 -8.890625 L 1.171875 -11.140625 L 1.640625 -13.296875 L 2.0625 -14.359375 L 2.9375 -15.84375 L 4.296875 -17.4375 L 5.25 -18.125 L 5.75 -18.390625 L 6.171875 -18.6875 L 8.265625 -19.46875 L 11.234375 -19.890625 L 11.984375 -19.859375 L 13.609375 -19.578125 L 15.75 -18.90625 L 16.171875 -18.609375 L 17.015625 -18.25 L 17.65625 -17.796875 L 18.46875 -17.09375 L 19.25 -16.234375 L 19.859375 -15.390625 L 20.390625 -14.359375 L 21.09375 -12.265625 L 21.28125 -11.125 L 21.375 -9.71875 L 21.265625 -8.90625 L 21.234375 -8.328125 L 21.09375 -7.765625 L 21.0625 -7.265625 L 20.84375 -6.203125 L 20.421875 -5.140625 L 19.1875 -3.265625 L 18.796875 -2.875 L 18.4375 -2.375 L 17.65625 -1.703125 L 17.125 -1.453125 L 16.703125 -1.125 L 15.78125 -0.609375 L 13.6875 0.078125 L 12.015625 0.3125 Z M 12.015625 -4.609375 L 12.578125 -4.71875 L 12.984375 -4.921875 L 13.5 -5.0625 L 14.828125 -5.984375 L 15.21875 -6.421875 L 15.390625 -6.84375 L 15.703125 -7.34375 L 15.890625 -7.84375 L 16.125 -8.890625 L 16.171875 -10.59375 L 16.09375 -11.09375 L 15.84375 -11.625 L 15.5 -12.6875 L 14.421875 -13.828125 L 13.546875 -14.4375 L 13.046875 -14.671875 L 12.546875 -14.78125 L 11.203125 -14.953125 L 10.421875 -14.890625 L 9.328125 -14.609375 L 8.96875 -14.46875 L 7.578125 -13.515625 L 6.90625 -12.625 L 6.734375 -12.125 L 6.515625 -11.625 L 6.421875 -11.09375 L 6.28125 -10.59375 L 6.28125 -8.890625 L 6.515625 -7.84375 L 6.765625 -7.34375 L 6.90625 -6.90625 L 7.296875 -6.375 L 7.65625 -5.984375 L 8.40625 -5.359375 L 8.859375 -5.109375 L 9.859375 -4.6875 L 10.46875 -4.609375 Z M 12.015625 -4.609375 "/></g></g></g><g fill="#ffffff" fill-opacity="1"><g transform="translate(104.968199, 54.38798)"><g><path d="M 2.15625 -0.890625 L 2.0625 -3.078125 L 2.125 -3.65625 L 2.015625 -5.28125 L 2.09375 -6.421875 L 2.015625 -7.046875 L 2.046875 -8.109375 L 2.09375 -8.6875 L 2.09375 -10.078125 L 2.015625 -10.890625 L 2.09375 -18.71875 L 2.3125 -19.3125 L 2.84375 -19.5625 L 3.46875 -19.53125 L 4 -19.609375 L 5.140625 -19.5 L 5.671875 -19.578125 L 7.34375 -19.53125 L 7.828125 -19.578125 L 8.4375 -19.53125 L 9 -19.578125 L 9.609375 -19.5625 L 10.421875 -19.578125 L 11.125 -19.53125 L 13.4375 -19.046875 L 14.421875 -18.546875 L 15.8125 -17.484375 L 16.0625 -17.0625 L 16.453125 -16.65625 L 17.203125 -15.109375 L 17.34375 -14.5625 L 17.4375 -14.03125 L 17.578125 -13.5 L 17.546875 -11.28125 L 17.234375 -10.21875 L 17.046875 -9.75 L 16.734375 -9.25 L 16.53125 -8.71875 L 16.203125 -8.234375 L 15.421875 -7.484375 L 15.109375 -6.90625 L 15.203125 -6.234375 L 16.03125 -4.78125 L 16.40625 -4.328125 L 16.671875 -3.828125 L 17.015625 -3.328125 L 17.265625 -2.84375 L 18.15625 -1.484375 L 18.515625 -0.78125 L 18.40625 -0.203125 L 17.828125 -0.0625 L 17.203125 0 L 16.09375 0 L 15.53125 -0.0625 L 14.921875 0 L 13.90625 -0.0625 L 13.21875 -0.21875 L 12.65625 -0.71875 L 12.328125 -1.171875 L 12.0625 -1.640625 L 11.703125 -2.171875 L 10.921875 -3.578125 L 10.734375 -4.109375 L 10 -5.078125 L 9.546875 -5.5625 L 8.859375 -5.78125 L 8.359375 -5.75 L 7.84375 -5.75 L 7.296875 -5.46875 L 7.046875 -4.921875 L 7.09375 -3.1875 L 7.015625 -1.984375 L 7.125 -1.390625 L 7.0625 -0.8125 L 6.875 -0.28125 L 6 0 L 5.171875 0 L 4.578125 -0.0625 L 3.4375 0.03125 L 2.90625 0 L 2.34375 -0.28125 Z M 7.84375 -10.28125 L 8.46875 -10.28125 L 9.03125 -10.203125 L 11.203125 -10.390625 L 11.625 -10.59375 L 11.953125 -10.921875 L 12.265625 -11.40625 L 12.484375 -11.953125 L 12.578125 -12.71875 L 12.515625 -13.515625 L 12.328125 -13.96875 L 12.046875 -14.390625 L 11.171875 -14.921875 L 9.890625 -15.09375 L 8.359375 -15.109375 L 7.90625 -15.09375 L 7.34375 -14.8125 L 7.015625 -14.25 L 7.09375 -11.125 L 7.375 -10.53125 Z M 7.84375 -10.28125 "/></g></g></g><g fill="#ffffff" fill-opacity="1"><g transform="translate(124.322912, 54.38798)"><g><path d="M 2.015625 -0.8125 L 2.125 -1.375 L 2.15625 -1.921875 L 2.09375 -3.015625 L 2.09375 -3.578125 L 2.046875 -4.21875 L 2.125 -4.71875 L 2.09375 -5.25 L 2.15625 -5.859375 L 2.0625 -6.453125 L 2.125 -7.578125 L 2.046875 -8.65625 L 2.125 -9.25 L 2.125 -14.25 L 2.0625 -14.75 L 2.125 -15.34375 L 2.015625 -16.765625 L 2.125 -17.578125 L 2.0625 -18.6875 L 2.34375 -19.3125 L 3.15625 -19.5 L 6.8125 -19.578125 L 7.3125 -19.53125 L 8.40625 -19.5625 L 8.96875 -19.5 L 10.203125 -19.5625 L 10.75 -19.46875 L 11.265625 -19.53125 L 13.5 -19.5 L 14.078125 -19.25 L 14.359375 -18.6875 L 14.28125 -18.15625 L 14.25 -17.546875 L 14.328125 -17.015625 L 14.390625 -15.875 L 14.078125 -15.359375 L 13.5 -15.0625 L 8.125 -15.03125 L 7.265625 -14.78125 L 6.984375 -13.96875 L 7.046875 -13.109375 L 7.375 -12.59375 L 7.84375 -12.296875 L 10.0625 -12.328125 L 10.703125 -12.265625 L 11.28125 -12.265625 L 11.84375 -12.328125 L 12.96875 -12.296875 L 13.4375 -11.984375 L 13.6875 -11.453125 L 13.75 -10.890625 L 13.6875 -8.6875 L 13.40625 -8.15625 L 12.84375 -7.84375 L 12.34375 -7.828125 L 11.765625 -7.875 L 11 -7.828125 L 9.53125 -7.90625 L 8.96875 -7.84375 L 7.875 -7.84375 L 7.375 -7.546875 L 7.125 -6.953125 L 7.09375 -5.59375 L 7.34375 -4.71875 L 7.9375 -4.390625 L 8.546875 -4.4375 L 9.15625 -4.390625 L 9.6875 -4.46875 L 13.375 -4.421875 L 14.21875 -4.140625 L 14.578125 -3.578125 L 14.53125 -3.046875 L 14.5625 -1.3125 L 14.5 -0.78125 L 14.25 -0.25 L 13.65625 0.03125 L 13.125 0.078125 L 11.421875 -0.03125 L 9.71875 0.0625 L 9.21875 -0.03125 L 2.90625 0.03125 L 2.375 -0.28125 Z M 2.015625 -0.8125 "/></g></g></g><g fill="#ffffff" fill-opacity="1"><g transform="translate(140.326162, 54.38798)"><g><path d="M 10.21875 0.328125 L 9.640625 0.28125 L 8.078125 -0.0625 L 6.515625 -0.609375 L 6 -0.859375 L 4.21875 -2.0625 L 3.4375 -2.875 L 2.4375 -4.140625 L 2.125 -4.671875 L 1.53125 -6.203125 L 1.0625 -8.359375 L 1.03125 -8.9375 L 1.09375 -9.71875 L 1.03125 -11.125 L 1.34375 -12.34375 L 1.375 -12.84375 L 2.234375 -14.96875 L 2.546875 -15.5 L 2.96875 -15.890625 L 3.234375 -16.34375 L 3.609375 -16.8125 L 4.4375 -17.59375 L 5.84375 -18.546875 L 6.34375 -18.796875 L 8.46875 -19.5625 L 10.171875 -19.828125 L 12.9375 -19.703125 L 13.546875 -19.53125 L 14.109375 -19.4375 L 14.5625 -19.25 L 15.171875 -19.078125 L 17.0625 -17.90625 L 17.875 -17.09375 L 18.578125 -16.203125 L 18.96875 -15.8125 L 19.859375 -13.75 L 19.671875 -13.125 L 19.1875 -12.96875 L 18.65625 -12.90625 L 15.921875 -12.90625 L 15.3125 -13.1875 L 14.6875 -13.640625 L 14.421875 -14.078125 L 13.015625 -14.953125 L 12.484375 -15.09375 L 11.03125 -15.25 L 10.25 -15.21875 L 9.15625 -14.859375 L 8.6875 -14.640625 L 7.765625 -14 L 7.046875 -13.21875 L 6.625 -12.1875 L 6.515625 -11.625 L 6.203125 -10.609375 L 6.375 -7.828125 L 6.5625 -7.296875 L 6.875 -6.78125 L 7.09375 -6.3125 L 7.40625 -5.84375 L 8.234375 -5.171875 L 9.25 -4.640625 L 9.75 -4.4375 L 10.25 -4.328125 L 11.125 -4.28125 L 11.921875 -4.296875 L 12.484375 -4.390625 L 13.546875 -4.71875 L 14 -4.9375 L 14.8125 -5.734375 L 15.03125 -6.171875 L 14.921875 -6.65625 L 14.53125 -6.953125 L 12.84375 -6.875 L 12.34375 -6.921875 L 11.8125 -6.921875 L 11.28125 -7.1875 L 11.125 -7.65625 L 11 -8.1875 L 11.0625 -10.28125 L 11.3125 -10.8125 L 12.1875 -11.125 L 19.1875 -11.125 L 20 -10.875 L 20.34375 -10.3125 L 20.421875 -9.75 L 20.3125 -7.625 L 20.140625 -7.0625 L 20.109375 -6.53125 L 19.75 -5.34375 L 19.109375 -4.046875 L 18.21875 -2.734375 L 17.40625 -1.875 L 16.484375 -1.28125 L 16.09375 -0.953125 L 14.03125 -0.0625 L 13.546875 0.078125 L 13.015625 0.109375 L 12.453125 0.21875 L 10.953125 0.359375 Z M 10.21875 0.328125 "/></g></g></g><g fill="#ffffff" fill-opacity="1"><g transform="translate(161.719683, 54.38798)"><g><path d="M 0.359375 -0.75 L 0.703125 -1.921875 L 0.953125 -2.484375 L 1.28125 -2.9375 L 2.09375 -4.96875 L 2.875 -6.421875 L 3.078125 -6.984375 L 3.328125 -7.4375 L 3.484375 -8.015625 L 3.890625 -8.75 L 4.078125 -9.28125 L 4.5 -10 L 4.9375 -11 L 5.25 -11.515625 L 5.390625 -11.984375 L 6.953125 -15.5 L 7.265625 -16.015625 L 8.46875 -18.515625 L 8.625 -19.03125 L 9.15625 -19.53125 L 10.0625 -19.8125 L 11 -19.5625 L 11.515625 -19.03125 L 11.671875 -18.5 L 11.921875 -18.078125 L 12.375 -17.015625 L 12.9375 -15.984375 L 13.359375 -15 L 13.5 -14.5625 L 14 -13.5 L 14.171875 -12.96875 L 14.71875 -11.984375 L 14.859375 -11.453125 L 15.140625 -10.984375 L 15.359375 -10.5 L 15.671875 -10 L 15.84375 -9.4375 L 16.09375 -9.03125 L 16.28125 -8.46875 L 16.53125 -7.984375 L 16.765625 -7.4375 L 17.0625 -6.984375 L 17.453125 -5.953125 L 17.734375 -5.46875 L 17.9375 -4.9375 L 18.40625 -3.9375 L 18.578125 -3.40625 L 18.859375 -2.984375 L 19.03125 -2.4375 L 19.390625 -1.953125 L 19.578125 -1.453125 L 19.75 -0.75 L 19.640625 -0.171875 L 19.140625 0 L 17.40625 0.0625 L 16.421875 -0.03125 L 15.921875 0.03125 L 15.203125 -0.25 L 14.71875 -0.703125 L 14.421875 -1.203125 L 14.28125 -1.703125 L 13.6875 -2.15625 L 12.765625 -2.453125 L 11.453125 -2.40625 L 10.875 -2.453125 L 10.359375 -2.453125 L 9.71875 -2.375 L 9.140625 -2.453125 L 7.578125 -2.4375 L 7.015625 -2.484375 L 6.34375 -2.203125 L 5.859375 -1.671875 L 5.390625 -0.71875 L 4.890625 -0.21875 L 4.25 0.0625 L 3.515625 -0.03125 L 1.0625 -0.03125 L 0.5 -0.171875 Z M 9 -6.90625 L 11.171875 -6.921875 L 11.65625 -7.15625 L 11.703125 -7.65625 L 11.515625 -8.15625 L 11.234375 -8.71875 L 11.125 -9.15625 L 10.8125 -9.640625 L 10.453125 -10.734375 L 10.109375 -10.953125 L 9.75 -10.671875 L 9.5 -10.21875 L 8.375 -7.6875 L 8.46875 -7.125 Z M 9 -6.90625 "/></g></g></g><g fill="#ffffff" fill-opacity="1"><g transform="translate(181.996057, 54.38798)"><g><path d="M 16.484375 -0.453125 L 16.125 -0.8125 L 15.78125 -1.234375 L 15.34375 -1.59375 L 14.96875 -2.046875 L 12.265625 -4.75 L 11.8125 -5.109375 L 7.828125 -9.03125 L 7.453125 -9.109375 L 7.1875 -8.765625 L 7.296875 -8.1875 L 7.203125 -1.34375 L 7.296875 -0.78125 L 7.046875 -0.21875 L 6.484375 0.0625 L 5.84375 0 L 5.25 0.078125 L 3.859375 0 L 2.90625 0.0625 L 2.375 -0.25 L 2.125 -0.859375 L 2.125 -1.390625 L 2.046875 -1.953125 L 2.125 -3.015625 L 2.0625 -3.578125 L 2.09375 -4.71875 L 2.015625 -5.3125 L 2.015625 -5.84375 L 2.0625 -6.453125 L 2.0625 -6.984375 L 2.125 -7.484375 L 2.015625 -11.484375 L 2.09375 -12.0625 L 2.0625 -12.65625 L 2.125 -13.15625 L 2.046875 -14.296875 L 2.09375 -14.859375 L 2.046875 -18.78125 L 2.40625 -19.3125 L 3.078125 -19.640625 L 3.828125 -19.421875 L 4.9375 -18.65625 L 6.453125 -17.125 L 6.8125 -16.65625 L 7.296875 -16.3125 L 7.578125 -15.890625 L 8.109375 -15.53125 L 8.40625 -15.109375 L 9.28125 -14.390625 L 9.859375 -13.765625 L 10.171875 -13.375 L 10.609375 -13.046875 L 11.59375 -12.046875 L 12.015625 -11.703125 L 13.25 -10.453125 L 13.640625 -10.34375 L 13.765625 -10.78125 L 13.75 -11.90625 L 13.859375 -12.484375 L 13.859375 -13.015625 L 13.75 -13.609375 L 13.765625 -18.6875 L 14.046875 -19.28125 L 14.71875 -19.5625 L 15.28125 -19.53125 L 15.78125 -19.578125 L 16.375 -19.5 L 16.984375 -19.5625 L 17.515625 -19.5625 L 18.078125 -19.5 L 18.6875 -19.21875 L 19.03125 -18.71875 L 18.96875 -17.265625 L 19.03125 -16.421875 L 18.90625 -15.875 L 18.90625 -14.75 L 18.96875 -14.21875 L 18.890625 -13.109375 L 19 -9.75 L 18.9375 -9.140625 L 19.046875 -8.359375 L 18.90625 -0.75 L 18.65625 -0.171875 L 18.015625 0.140625 L 17.296875 -0.078125 Z M 16.484375 -0.453125 "/></g></g></g><g fill="#ffffff" fill-opacity="1"><g transform="translate(203.054432, 54.38798)"><g><path d="M 10.453125 0.328125 L 9.859375 0.28125 L 8.859375 0.0625 L 8.234375 0 L 7.4375 -0.28125 L 5.25 -1.390625 L 4.328125 -2.125 L 4.015625 -2.484375 L 3.609375 -2.875 L 3.234375 -3.328125 L 2.90625 -3.65625 L 1.625 -6.203125 L 1.375 -7.265625 L 1.3125 -7.796875 L 1.171875 -8.296875 L 1.09375 -8.890625 L 1.171875 -11.140625 L 1.640625 -13.296875 L 2.0625 -14.359375 L 2.9375 -15.84375 L 4.296875 -17.4375 L 5.25 -18.125 L 5.75 -18.390625 L 6.171875 -18.6875 L 8.265625 -19.46875 L 11.234375 -19.890625 L 11.984375 -19.859375 L 13.609375 -19.578125 L 15.75 -18.90625 L 16.171875 -18.609375 L 17.015625 -18.25 L 17.65625 -17.796875 L 18.46875 -17.09375 L 19.25 -16.234375 L 19.859375 -15.390625 L 20.390625 -14.359375 L 21.09375 -12.265625 L 21.28125 -11.125 L 21.375 -9.71875 L 21.265625 -8.90625 L 21.234375 -8.328125 L 21.09375 -7.765625 L 21.0625 -7.265625 L 20.84375 -6.203125 L 20.421875 -5.140625 L 19.1875 -3.265625 L 18.796875 -2.875 L 18.4375 -2.375 L 17.65625 -1.703125 L 17.125 -1.453125 L 16.703125 -1.125 L 15.78125 -0.609375 L 13.6875 0.078125 L 12.015625 0.3125 Z M 12.015625 -4.609375 L 12.578125 -4.71875 L 12.984375 -4.921875 L 13.5 -5.0625 L 14.828125 -5.984375 L 15.21875 -6.421875 L 15.390625 -6.84375 L 15.703125 -7.34375 L 15.890625 -7.84375 L 16.125 -8.890625 L 16.171875 -10.59375 L 16.09375 -11.09375 L 15.84375 -11.625 L 15.5 -12.6875 L 14.421875 -13.828125 L 13.546875 -14.4375 L 13.046875 -14.671875 L 12.546875 -14.78125 L 11.203125 -14.953125 L 10.421875 -14.890625 L 9.328125 -14.609375 L 8.96875 -14.46875 L 7.578125 -13.515625 L 6.90625 -12.625 L 6.734375 -12.125 L 6.515625 -11.625 L 6.421875 -11.09375 L 6.28125 -10.59375 L 6.28125 -8.890625 L 6.515625 -7.84375 L 6.765625 -7.34375 L 6.90625 -6.90625 L 7.296875 -6.375 L 7.65625 -5.984375 L 8.40625 -5.359375 L 8.859375 -5.109375 L 9.859375 -4.6875 L 10.46875 -4.609375 Z M 12.015625 -4.609375 "/></g></g></g><path fill="#b6e3f1" d="M 110.273438 115.933594 L 197.308594 115.933594 L 197.308594 254.875 C 197.308594 259.316406 194.121094 264.585938 190.195312 266.640625 C 167.722656 278.40625 138.71875 278.414062 117.324219 266.757812 C 113.433594 264.640625 110.273438 259.316406 110.273438 254.875 Z M 110.273438 115.933594 " fill-opacity="1" fill-rule="nonzero"/><g clip-path="url(#87a306a137)"><path fill="#b3ab68" d="M 121.953125 134.019531 C 140.484375 127.796875 166.675781 127.816406 185.617188 134.058594 C 189.71875 135.410156 193.046875 140.023438 193.046875 144.347656 L 193.046875 250.082031 C 193.046875 254.085938 190.171875 258.84375 186.628906 260.695312 C 166.359375 271.308594 140.195312 271.316406 120.898438 260.804688 C 117.386719 258.890625 114.535156 254.085938 114.535156 250.082031 L 114.535156 144.347656 C 114.535156 140.023438 117.859375 135.394531 121.953125 134.019531 Z M 114.011719 87.984375 C 138.792969 80.148438 168.46875 80.160156 193.566406 88 C 196.171875 88.8125 198.289062 91.695312 198.289062 94.429688 L 198.289062 115.890625 C 198.289062 118.625 196.128906 121.335938 193.46875 121.945312 C 168.957031 127.539062 139.304688 127.550781 114.121094 121.921875 C 111.457031 121.328125 109.296875 118.625 109.296875 115.890625 L 109.296875 94.429688 C 109.296875 91.695312 111.410156 88.804688 114.011719 87.984375 Z M 114.011719 87.984375 " fill-opacity="1" fill-rule="evenodd"/></g><g clip-path="url(#f71bb36d1b)"><g clip-path="url(#3316a343ee)"><path fill="#686330" d="M 193.046875 225.179688 L 186.746094 248.933594 C 185.910156 252.070312 182.953125 255.925781 180.144531 257.535156 L 149.390625 275.15625 L 193.046875 260.960938 Z M 145.96875 114.597656 C 123.507812 113.894531 106.363281 110.214844 106.363281 105.785156 C 106.363281 105.21875 106.644531 104.664062 107.210938 104.128906 C 111.316406 108.269531 130.625 111.402344 153.792969 111.402344 C 176.957031 111.402344 196.265625 108.269531 200.371094 104.128906 C 200.941406 104.664062 201.222656 105.21875 201.222656 105.785156 C 201.222656 110.214844 184.074219 113.894531 161.617188 114.597656 L 161.617188 115.933594 C 156.480469 117.566406 151.277344 117.574219 145.96875 115.933594 Z M 145.96875 114.597656 " fill-opacity="1" fill-rule="evenodd"/></g></g><g clip-path="url(#3c6f4794d0)"><path fill="#d5cc7e" d="M 110.574219 91.816406 C 110.046875 92.351562 109.785156 92.90625 109.785156 93.472656 C 109.785156 98.402344 129.503906 102.40625 153.792969 102.40625 C 178.078125 102.40625 197.800781 98.402344 197.800781 93.472656 C 197.800781 92.90625 197.539062 92.351562 197.007812 91.816406 C 193.199219 95.953125 175.285156 99.089844 153.792969 99.089844 C 132.296875 99.089844 114.382812 95.953125 110.574219 91.816406 Z M 117.296875 138.023438 C 116.851562 138.476562 116.628906 138.945312 116.628906 139.425781 C 116.628906 143.585938 133.28125 146.96875 153.792969 146.96875 C 174.300781 146.96875 190.953125 143.585938 190.953125 139.425781 C 190.953125 138.945312 190.734375 138.476562 190.285156 138.023438 C 187.070312 141.519531 171.941406 144.167969 153.792969 144.167969 C 135.640625 144.167969 120.511719 141.519531 117.296875 138.023438 Z M 117.296875 138.023438 " fill-opacity="1" fill-rule="evenodd"/></g><path fill="#686330" d="M 119.789062 251.03125 L 121.671875 248.519531 C 124.09375 245.277344 127 239.832031 128.152344 236.363281 L 128.152344 237.410156 C 128.152344 241.460938 125.53125 246.71875 122.296875 249.148438 Z M 162.953125 150.4375 L 161.074219 152.953125 C 158.648438 156.191406 155.742188 161.640625 154.589844 165.109375 L 154.589844 164.0625 C 154.589844 160.011719 157.214844 154.753906 160.445312 152.324219 Z M 191.480469 203.53125 L 189.601562 206.042969 C 187.175781 209.285156 184.269531 214.730469 183.117188 218.199219 L 183.117188 217.152344 C 183.117188 213.105469 185.738281 207.84375 188.972656 205.417969 Z M 147.277344 255.921875 L 145.484375 253.527344 C 143.175781 250.445312 140.40625 245.257812 139.308594 241.953125 L 139.308594 242.949219 C 139.308594 246.804688 141.808594 251.8125 144.886719 254.125 Z M 135.46875 145.546875 L 137.257812 147.945312 C 139.566406 151.027344 142.335938 156.214844 143.433594 159.519531 L 143.433594 158.523438 C 143.433594 154.667969 140.933594 149.660156 137.855469 147.34375 Z M 164.589844 258.71875 L 162.796875 256.320312 C 160.488281 253.238281 157.722656 248.050781 156.625 244.746094 L 156.625 245.742188 C 156.625 249.597656 159.121094 254.609375 162.199219 256.921875 Z M 166.269531 246.941406 L 167.550781 245.230469 C 169.199219 243.027344 171.175781 239.320312 171.960938 236.960938 L 171.960938 237.675781 C 171.960938 240.429688 170.175781 244.003906 167.976562 245.660156 Z M 185.789062 177.683594 L 187.070312 175.972656 C 188.71875 173.769531 190.695312 170.0625 191.480469 167.703125 L 191.480469 168.417969 C 191.480469 171.171875 189.695312 174.746094 187.5 176.398438 Z M 177.425781 249.734375 L 178.707031 248.023438 C 180.355469 245.820312 182.332031 242.117188 183.117188 239.757812 L 183.117188 240.46875 C 183.117188 243.222656 181.332031 246.800781 179.132812 248.453125 Z M 122.632812 203.53125 L 121.351562 205.242188 C 119.703125 207.445312 117.726562 211.148438 116.941406 213.507812 L 116.941406 212.796875 C 116.941406 210.042969 118.726562 206.464844 120.925781 204.8125 Z M 126.105469 178.054688 L 124.398438 176.773438 C 122.199219 175.121094 118.5 173.140625 116.144531 172.355469 L 116.855469 172.355469 C 119.605469 172.355469 123.175781 174.144531 124.824219 176.347656 Z M 180.269531 157.523438 L 181.550781 155.8125 C 183.199219 153.609375 185.175781 149.90625 185.960938 147.542969 L 185.960938 148.257812 C 185.960938 151.011719 184.175781 154.589844 181.976562 156.242188 Z M 180.269531 157.523438 " fill-opacity="1" fill-rule="evenodd"/><path fill="#ebebeb" d="M 125.113281 152.816406 C 142.503906 149.726562 164.003906 149.734375 182.464844 152.847656 C 184.429688 153.179688 186.027344 155.070312 186.027344 157.070312 L 186.027344 225.917969 C 186.027344 227.914062 184.453125 229.921875 182.515625 230.394531 C 164.753906 234.738281 143.273438 234.75 125.070312 230.378906 C 123.132812 229.914062 121.554688 227.914062 121.554688 225.917969 L 121.554688 157.070312 C 121.554688 155.070312 123.152344 153.164062 125.113281 152.816406 Z M 125.113281 152.816406 " fill-opacity="1" fill-rule="nonzero"/><path fill="#b3ab68" d="M 132.433594 179.394531 C 132.433594 167.769531 141.855469 158.328125 153.460938 158.328125 C 165.066406 158.328125 174.484375 167.769531 174.484375 179.394531 Z M 132.765625 201.484375 C 132.765625 213.113281 142.1875 222.554688 153.792969 222.554688 C 165.394531 222.554688 174.816406 213.113281 174.816406 201.484375 Z M 132.765625 201.484375 " fill-opacity="1" fill-rule="evenodd"/><path fill="#b3ab68" d="M 126.535156 186.457031 C 127.15625 185.644531 128.171875 185.238281 129.585938 185.238281 C 131 185.238281 132.011719 185.640625 132.625 186.441406 C 133.234375 187.242188 133.539062 188.542969 133.539062 190.34375 C 133.539062 192.144531 133.226562 193.476562 132.597656 194.34375 C 131.972656 195.207031 130.957031 195.640625 129.554688 195.640625 C 128.152344 195.640625 127.140625 195.214844 126.527344 194.359375 C 125.910156 193.503906 125.601562 192.175781 125.601562 190.375 C 125.601562 188.574219 125.914062 187.269531 126.535156 186.457031 Z M 130.753906 190.351562 C 130.753906 189.355469 130.675781 188.683594 130.519531 188.332031 C 130.359375 187.980469 130.042969 187.804688 129.5625 187.804688 C 129.082031 187.804688 128.769531 187.980469 128.632812 188.332031 C 128.492188 188.683594 128.421875 189.351562 128.421875 190.335938 L 128.421875 190.722656 C 128.421875 191.773438 128.5 192.464844 128.65625 192.792969 C 128.8125 193.125 129.128906 193.289062 129.609375 193.289062 C 130.089844 193.289062 130.402344 193.132812 130.542969 192.816406 C 130.683594 192.503906 130.753906 191.855469 130.753906 190.871094 Z M 141.523438 188.597656 C 141.523438 189.203125 141.429688 189.707031 141.246094 190.109375 C 141.0625 190.507812 140.777344 190.871094 140.386719 191.195312 L 141.730469 195.480469 L 138.738281 195.480469 L 137.730469 191.84375 L 137.359375 191.84375 L 137.359375 195.480469 L 134.640625 195.480469 L 134.640625 185.402344 L 138.398438 185.402344 C 139.476562 185.402344 140.265625 185.65625 140.769531 186.164062 C 141.269531 186.671875 141.523438 187.484375 141.523438 188.597656 Z M 137.78125 190.140625 C 138.0625 190.140625 138.261719 190.058594 138.378906 189.898438 C 138.5 189.734375 138.558594 189.441406 138.558594 189.011719 C 138.558594 188.585938 138.5 188.289062 138.378906 188.121094 C 138.261719 187.953125 138.066406 187.867188 137.796875 187.867188 L 137.359375 187.867188 L 137.359375 190.140625 Z M 148.242188 193.207031 L 148.082031 195.480469 L 142.640625 195.480469 L 142.640625 185.402344 L 148.242188 185.402344 L 148.082031 187.886719 L 145.410156 187.886719 L 145.410156 189.394531 L 147.722656 189.394531 L 147.722656 191.535156 L 145.410156 191.535156 L 145.410156 193.207031 Z M 155.675781 185.757812 L 155.238281 188.402344 C 154.203125 188.089844 153.445312 187.933594 152.964844 187.933594 C 152.484375 187.933594 152.152344 188.144531 151.976562 188.566406 C 151.796875 188.988281 151.707031 189.65625 151.707031 190.570312 C 151.707031 191.484375 151.792969 192.148438 151.960938 192.566406 C 152.125 192.984375 152.46875 193.191406 152.988281 193.191406 C 153.140625 193.191406 153.429688 193.148438 153.863281 193.0625 L 153.863281 191.828125 L 153.132812 191.828125 L 153.132812 189.914062 L 156.226562 189.914062 L 156.226562 195.480469 L 154.316406 195.480469 L 154.058594 194.960938 L 153.992188 194.960938 C 153.808594 195.109375 153.664062 195.226562 153.554688 195.300781 C 153.253906 195.527344 152.824219 195.640625 152.273438 195.640625 C 150.019531 195.640625 148.890625 193.933594 148.890625 190.511719 C 148.890625 188.804688 149.1875 187.496094 149.78125 186.59375 C 150.375 185.691406 151.375 185.238281 152.777344 185.238281 C 153.898438 185.238281 154.867188 185.414062 155.675781 185.757812 Z M 162.964844 185.402344 L 164.808594 195.480469 L 162.105469 195.480469 L 161.796875 193.890625 L 159.886719 193.890625 L 159.578125 195.480469 L 157.003906 195.480469 L 158.851562 185.402344 Z M 160.242188 191.988281 L 161.488281 191.988281 L 160.921875 188.386719 L 160.808594 188.386719 Z M 172.988281 185.402344 L 172.988281 195.480469 L 170.332031 195.480469 L 168.242188 190.789062 L 168.113281 190.789062 L 168.113281 195.480469 L 165.652344 195.480469 L 165.652344 185.402344 L 168.390625 185.402344 L 170.382812 190.238281 L 170.511719 190.238281 L 170.511719 185.402344 Z M 175.019531 186.457031 C 175.640625 185.644531 176.660156 185.238281 178.074219 185.238281 C 179.488281 185.238281 180.5 185.640625 181.109375 186.441406 C 181.71875 187.242188 182.023438 188.542969 182.023438 190.34375 C 182.023438 192.144531 181.710938 193.476562 181.085938 194.34375 C 180.460938 195.207031 179.445312 195.640625 178.039062 195.640625 C 176.636719 195.640625 175.628906 195.214844 175.011719 194.359375 C 174.398438 193.503906 174.089844 192.175781 174.089844 190.375 C 174.089844 188.574219 174.398438 187.269531 175.019531 186.457031 Z M 179.238281 190.351562 C 179.238281 189.355469 179.160156 188.683594 179.003906 188.332031 C 178.847656 187.980469 178.53125 187.804688 178.050781 187.804688 C 177.570312 187.804688 177.257812 187.980469 177.117188 188.332031 C 176.976562 188.683594 176.90625 189.351562 176.90625 190.335938 L 176.90625 190.722656 C 176.90625 191.773438 176.984375 192.464844 177.140625 192.792969 C 177.296875 193.125 177.617188 193.289062 178.097656 193.289062 C 178.578125 193.289062 178.886719 193.132812 179.027344 192.816406 C 179.167969 192.503906 179.238281 191.855469 179.238281 190.871094 Z M 179.238281 190.351562 " fill-opacity="1" fill-rule="nonzero"/><g fill="#ffffff" fill-opacity="1"><g transform="translate(43.478554, 350.015018)"><g><path d="M 11.75 0.3125 L 11.140625 0.3125 L 10.5625 0.1875 L 9.890625 0.125 L 9.21875 -0.09375 L 8.75 -0.21875 L 8.109375 -0.453125 L 5.9375 -1.625 L 5.453125 -2.015625 L 4.921875 -2.359375 L 3.765625 -3.484375 L 2.484375 -5.328125 L 2.265625 -5.875 L 1.953125 -6.453125 L 1.84375 -7.015625 L 1.59375 -7.625 L 1.28125 -8.875 L 1.28125 -10.15625 L 1.15625 -11.171875 L 1.71875 -15.15625 L 3.1875 -18.03125 L 3.578125 -18.578125 L 4.4375 -19.375 L 4.8125 -19.890625 L 7.0625 -21.328125 L 7.625 -21.546875 L 8.109375 -21.828125 L 8.71875 -22.0625 L 9.953125 -22.3125 L 10.5625 -22.5 L 11.109375 -22.5625 L 14.015625 -22.5625 L 15.609375 -22.34375 L 16.859375 -22 L 18.671875 -21.171875 L 19.375 -20.6875 L 21.03125 -19.1875 L 22.21875 -17.5625 L 22.734375 -16.34375 L 22.828125 -15.765625 L 23.078125 -15.125 L 22.890625 -14.453125 L 22.375 -14.171875 L 21.734375 -14.109375 L 18.515625 -14.171875 L 17.8125 -14.453125 L 17.234375 -15.0625 L 16.953125 -15.609375 L 16.46875 -16.125 L 15.546875 -16.890625 L 14.875 -17.109375 L 13.65625 -17.328125 L 11.6875 -17.390625 L 10.5625 -17.078125 L 9.953125 -16.828125 L 8.90625 -16.0625 L 8.109375 -15.0625 L 7.5625 -13.921875 L 7.375 -13.34375 L 7.34375 -12.703125 L 7.125 -12.125 L 7.09375 -11.109375 L 7.1875 -9.609375 L 7.5625 -8.359375 L 7.828125 -7.828125 L 9 -6.28125 L 9.421875 -5.84375 L 10.03125 -5.546875 L 11.75 -4.921875 L 13.53125 -4.890625 L 14.203125 -4.953125 L 14.84375 -5.140625 L 15.921875 -5.6875 L 17.140625 -6.984375 L 17.390625 -7.53125 L 18.03125 -8.140625 L 18.734375 -8.453125 L 22.15625 -8.421875 L 22.953125 -8.078125 L 23.140625 -7.5 L 23.046875 -6.890625 L 22.828125 -6.25 L 22.671875 -5.65625 L 22.375 -5.078125 L 21.421875 -3.421875 L 20.875 -3 L 20.53125 -2.453125 L 20.109375 -2.046875 L 19.5625 -1.65625 L 19 -1.3125 L 18.515625 -0.984375 L 16.765625 -0.21875 L 13.65625 0.421875 Z M 11.75 0.3125 "/></g></g></g><g fill="#ffffff" fill-opacity="1"><g transform="translate(67.829871, 350.015018)"><g><path d="M 11.9375 0.390625 L 11.265625 0.3125 L 10.125 0.0625 L 9.421875 0 L 8.484375 -0.3125 L 6 -1.59375 L 4.953125 -2.421875 L 4.59375 -2.84375 L 4.125 -3.28125 L 3.703125 -3.796875 L 3.3125 -4.1875 L 1.84375 -7.09375 L 1.5625 -8.296875 L 1.5 -8.90625 L 1.34375 -9.484375 L 1.25 -10.15625 L 1.34375 -12.734375 L 1.890625 -15.1875 L 2.359375 -16.40625 L 3.359375 -18.09375 L 4.921875 -19.921875 L 6 -20.71875 L 6.578125 -21 L 7.0625 -21.359375 L 9.453125 -22.25 L 12.828125 -22.734375 L 13.6875 -22.703125 L 15.546875 -22.375 L 18 -21.609375 L 18.484375 -21.265625 L 19.4375 -20.84375 L 20.171875 -20.328125 L 21.09375 -19.53125 L 22 -18.546875 L 22.703125 -17.59375 L 23.296875 -16.40625 L 24.09375 -14.015625 L 24.328125 -12.703125 L 24.421875 -11.109375 L 24.296875 -10.1875 L 24.265625 -9.515625 L 24.09375 -8.875 L 24.0625 -8.296875 L 23.8125 -7.09375 L 23.328125 -5.875 L 21.9375 -3.734375 L 21.484375 -3.28125 L 21.0625 -2.71875 L 20.171875 -1.953125 L 19.5625 -1.65625 L 19.09375 -1.28125 L 18.03125 -0.703125 L 15.640625 0.09375 L 13.71875 0.34375 Z M 13.71875 -5.265625 L 14.359375 -5.390625 L 14.84375 -5.625 L 15.421875 -5.78125 L 16.953125 -6.828125 L 17.390625 -7.34375 L 17.59375 -7.828125 L 17.9375 -8.390625 L 18.15625 -8.96875 L 18.421875 -10.15625 L 18.484375 -12.09375 L 18.390625 -12.671875 L 18.09375 -13.28125 L 17.71875 -14.5 L 16.46875 -15.796875 L 15.484375 -16.5 L 14.90625 -16.765625 L 14.328125 -16.890625 L 12.796875 -17.078125 L 11.90625 -17.015625 L 10.65625 -16.6875 L 10.25 -16.53125 L 8.65625 -15.453125 L 7.890625 -14.421875 L 7.6875 -13.859375 L 7.4375 -13.28125 L 7.34375 -12.671875 L 7.1875 -12.09375 L 7.1875 -10.15625 L 7.4375 -8.96875 L 7.71875 -8.390625 L 7.890625 -7.890625 L 8.328125 -7.28125 L 8.75 -6.828125 L 9.609375 -6.125 L 10.125 -5.84375 L 11.265625 -5.359375 L 11.96875 -5.265625 Z M 13.71875 -5.265625 "/></g></g></g><g fill="#ffffff" fill-opacity="1"><g transform="translate(93.425892, 350.015018)"><g><path d="M 18.828125 -0.515625 L 18.421875 -0.921875 L 18.03125 -1.40625 L 17.53125 -1.8125 L 17.109375 -2.328125 L 14.015625 -5.421875 L 13.5 -5.84375 L 8.9375 -10.3125 L 8.515625 -10.40625 L 8.203125 -10.03125 L 8.328125 -9.359375 L 8.234375 -1.53125 L 8.328125 -0.890625 L 8.046875 -0.25 L 7.40625 0.0625 L 6.671875 0 L 6 0.09375 L 4.40625 0 L 3.3125 0.0625 L 2.71875 -0.28125 L 2.421875 -0.984375 L 2.421875 -1.59375 L 2.328125 -2.234375 L 2.421875 -3.453125 L 2.359375 -4.09375 L 2.390625 -5.390625 L 2.296875 -6.0625 L 2.296875 -6.671875 L 2.359375 -7.375 L 2.359375 -7.984375 L 2.421875 -8.5625 L 2.296875 -13.125 L 2.390625 -13.796875 L 2.359375 -14.453125 L 2.421875 -15.03125 L 2.328125 -16.34375 L 2.390625 -16.984375 L 2.328125 -21.453125 L 2.75 -22.0625 L 3.515625 -22.4375 L 4.375 -22.1875 L 5.65625 -21.328125 L 7.375 -19.5625 L 7.78125 -19.03125 L 8.328125 -18.640625 L 8.65625 -18.15625 L 9.25 -17.75 L 9.609375 -17.265625 L 10.59375 -16.4375 L 11.265625 -15.734375 L 11.625 -15.296875 L 12.125 -14.90625 L 13.25 -13.765625 L 13.71875 -13.375 L 15.125 -11.9375 L 15.578125 -11.8125 L 15.734375 -12.328125 L 15.703125 -13.59375 L 15.828125 -14.265625 L 15.828125 -14.875 L 15.703125 -15.546875 L 15.734375 -21.359375 L 16.0625 -22.03125 L 16.828125 -22.34375 L 17.46875 -22.3125 L 18.03125 -22.375 L 18.703125 -22.28125 L 19.40625 -22.34375 L 20.015625 -22.34375 L 20.65625 -22.28125 L 21.359375 -21.96875 L 21.734375 -21.390625 L 21.671875 -19.734375 L 21.734375 -18.765625 L 21.609375 -18.125 L 21.609375 -16.859375 L 21.671875 -16.25 L 21.578125 -14.96875 L 21.703125 -11.140625 L 21.640625 -10.4375 L 21.765625 -9.546875 L 21.609375 -0.859375 L 21.328125 -0.1875 L 20.59375 0.15625 L 19.765625 -0.09375 Z M 18.828125 -0.515625 "/></g></g></g><g fill="#ffffff" fill-opacity="1"><g transform="translate(117.48998, 350.015018)"><g><path d="M 2.390625 -0.984375 L 2.453125 -2.203125 L 2.359375 -4.75 L 2.421875 -5.390625 L 2.359375 -7.953125 L 2.453125 -9.1875 L 2.359375 -9.859375 L 2.453125 -10.46875 L 2.359375 -11.84375 L 2.453125 -13.0625 L 2.328125 -15.609375 L 2.421875 -16.25 L 2.328125 -16.890625 L 2.421875 -17.59375 L 2.359375 -18.796875 L 2.390625 -19.4375 L 2.328125 -20.078125 L 2.328125 -21.390625 L 2.8125 -22 L 3.390625 -22.34375 L 4.046875 -22.3125 L 4.625 -22.34375 L 5.265625 -22.28125 L 7.3125 -22.34375 L 7.953125 -22.28125 L 12.484375 -22.25 L 13.796875 -22 L 15.546875 -21.421875 L 16.1875 -21.09375 L 17.359375 -20.359375 L 18.265625 -19.5 L 18.796875 -19.09375 L 19.625 -18.09375 L 19.890625 -17.5625 L 20.625 -16.46875 L 21.09375 -15.1875 L 21.265625 -14.625 L 21.328125 -13.953125 L 21.796875 -12.125 L 21.671875 -10.09375 L 21.703125 -9.546875 L 21.546875 -8.875 L 21.453125 -8.203125 L 21.234375 -7.625 L 21.09375 -6.984375 L 20.78125 -6.390625 L 20.625 -5.78125 L 19.625 -4.1875 L 18.359375 -2.71875 L 15.640625 -0.890625 L 13.796875 -0.3125 L 11.75 -0.03125 L 6 0 L 5.328125 0.09375 L 4.6875 0.09375 L 4.015625 0 L 3.28125 0 L 2.78125 -0.28125 Z M 9.15625 -5.140625 L 11.8125 -5.265625 L 12.953125 -5.59375 L 13.59375 -5.90625 L 14.109375 -6.21875 L 14.5 -6.734375 L 14.90625 -7.1875 L 15.328125 -7.75 L 15.796875 -8.90625 L 16 -9.515625 L 16.15625 -11.078125 L 16.0625 -12.0625 L 15.671875 -13.953125 L 15.265625 -14.453125 L 14.90625 -15.0625 L 14.109375 -15.953125 L 13.03125 -16.65625 L 11.75 -17.046875 L 10.796875 -17.109375 L 10.125 -17.078125 L 9.453125 -17.109375 L 8.515625 -16.765625 L 8.140625 -16.1875 L 8.140625 -7.984375 L 8.046875 -7.34375 L 8.171875 -6.765625 L 8.109375 -6.125 L 8.390625 -5.421875 Z M 9.15625 -5.140625 "/></g></g></g><g fill="#ffffff" fill-opacity="1"><g transform="translate(140.341261, 350.015018)"><g><path d="M 1.53125 -0.921875 L 1.53125 -3.390625 L 1.59375 -3.984375 L 1.984375 -4.59375 L 4.09375 -5.265625 L 4.40625 -5.96875 L 4.46875 -7.21875 L 4.34375 -8.59375 L 4.5 -9.21875 L 4.375 -10.46875 L 4.4375 -11.109375 L 4.46875 -12.421875 L 4.375 -13.15625 L 4.34375 -13.6875 L 4.4375 -16.40625 L 4.015625 -16.984375 L 2.078125 -17.65625 L 1.75 -18.265625 L 1.75 -18.859375 L 1.6875 -19.5 L 1.6875 -20.203125 L 1.75 -20.75 L 1.75 -21.359375 L 2.109375 -22.03125 L 2.8125 -22.34375 L 4.046875 -22.28125 L 4.65625 -22.3125 L 6.609375 -22.28125 L 7.3125 -22.34375 L 11.359375 -22.3125 L 12.390625 -22.03125 L 12.640625 -21.390625 L 12.703125 -20.75 L 12.640625 -20.171875 L 12.640625 -18.296875 L 12.296875 -17.6875 L 11.6875 -17.328125 L 10.984375 -17.296875 L 10.375 -16.953125 L 10.03125 -16.375 L 10.03125 -15.03125 L 10.09375 -14.359375 L 10.03125 -13.71875 L 10.09375 -13.125 L 10.03125 -12.125 L 10.09375 -11.171875 L 9.953125 -9.828125 L 10.09375 -8.5625 L 10.03125 -5.9375 L 10.375 -5.296875 L 12.515625 -4.625 L 12.953125 -4.09375 L 12.859375 -2.140625 L 12.921875 -1.5625 L 12.921875 -0.859375 L 12.578125 -0.28125 L 11.96875 0.03125 L 2.484375 -0.03125 L 1.84375 -0.25 Z M 1.53125 -0.921875 "/></g></g></g><g fill="#ffffff" fill-opacity="1"><g transform="translate(154.830775, 350.015018)"><g><path d="M 2.359375 -0.921875 L 2.421875 -1.53125 L 2.296875 -6.0625 L 2.421875 -6.671875 L 2.328125 -20.75 L 2.390625 -21.421875 L 2.75 -22.0625 L 3.390625 -22.40625 L 4.3125 -22.15625 L 5.234375 -21.484375 L 5.9375 -20.75 L 6.28125 -20.296875 L 6.734375 -19.890625 L 7.09375 -19.40625 L 7.5 -18.96875 L 8.046875 -18.484375 L 8.8125 -17.53125 L 11.015625 -15.265625 L 11.390625 -14.75 L 11.90625 -14.328125 L 12.296875 -13.796875 L 12.703125 -13.375 L 13.28125 -13.1875 L 13.984375 -13.40625 L 18.703125 -18.421875 L 19 -18.890625 L 20.8125 -20.78125 L 21.546875 -21.671875 L 22.34375 -22.125 L 23.296875 -22.40625 L 23.9375 -22.03125 L 24.296875 -21.421875 L 24.265625 -20.75 L 24.328125 -20.203125 L 24.265625 -19.53125 L 24.359375 -10.5 L 24.265625 -9.921875 L 24.328125 -9.296875 L 24.265625 -8.625 L 24.296875 -7.984375 L 24.203125 -7.34375 L 24.265625 -6.09375 L 24.203125 -5.484375 L 24.328125 -1.65625 L 24.234375 -1.015625 L 23.875 -0.34375 L 23.265625 0.03125 L 19.4375 0 L 18.734375 -0.25 L 18.421875 -0.921875 L 18.515625 -5.328125 L 18.421875 -6.515625 L 18.453125 -7.15625 L 18.421875 -7.71875 L 18.515625 -8.328125 L 18.421875 -8.96875 L 18.15625 -9.359375 L 17.78125 -9.296875 L 17.328125 -8.84375 L 16.921875 -8.296875 L 14.234375 -5.59375 L 13.6875 -5.203125 L 12.953125 -5.203125 L 11.90625 -6.0625 L 11.484375 -6.609375 L 9.703125 -8.296875 L 8.90625 -9.296875 L 8.421875 -9.421875 L 8.140625 -8.96875 L 8.265625 -7.125 L 8.171875 -2.8125 L 8.265625 -2.140625 L 8.296875 -1.46875 L 8.234375 -0.859375 L 7.890625 -0.34375 L 6.921875 -0.0625 L 3.421875 0 L 2.65625 -0.34375 Z M 2.359375 -0.921875 "/></g></g></g><g fill="#ffffff" fill-opacity="1"><g transform="translate(181.511908, 350.015018)"><g><path d="M 2.296875 -0.921875 L 2.421875 -1.5625 L 2.453125 -2.203125 L 2.390625 -3.453125 L 2.390625 -4.09375 L 2.328125 -4.8125 L 2.421875 -5.390625 L 2.390625 -6 L 2.453125 -6.703125 L 2.359375 -7.375 L 2.421875 -8.65625 L 2.328125 -9.890625 L 2.421875 -10.5625 L 2.421875 -16.28125 L 2.359375 -16.859375 L 2.421875 -17.53125 L 2.296875 -19.15625 L 2.421875 -20.078125 L 2.359375 -21.359375 L 2.6875 -22.0625 L 3.609375 -22.28125 L 7.78125 -22.375 L 8.359375 -22.3125 L 9.609375 -22.34375 L 10.25 -22.28125 L 11.65625 -22.34375 L 12.296875 -22.25 L 12.859375 -22.3125 L 15.421875 -22.28125 L 16.09375 -22 L 16.40625 -21.359375 L 16.3125 -20.75 L 16.28125 -20.046875 L 16.375 -19.4375 L 16.4375 -18.125 L 16.09375 -17.5625 L 15.421875 -17.203125 L 9.296875 -17.171875 L 8.296875 -16.890625 L 7.984375 -15.953125 L 8.046875 -14.96875 L 8.421875 -14.390625 L 8.96875 -14.046875 L 11.484375 -14.078125 L 12.21875 -14.015625 L 12.890625 -14.015625 L 13.53125 -14.078125 L 14.8125 -14.046875 L 15.359375 -13.6875 L 15.640625 -13.09375 L 15.703125 -12.453125 L 15.640625 -9.921875 L 15.328125 -9.328125 L 14.6875 -8.96875 L 14.109375 -8.9375 L 13.4375 -9 L 12.578125 -8.9375 L 10.890625 -9.03125 L 10.25 -8.96875 L 9 -8.96875 L 8.421875 -8.625 L 8.140625 -7.953125 L 8.109375 -6.390625 L 8.390625 -5.390625 L 9.0625 -5.015625 L 9.765625 -5.078125 L 10.46875 -5.015625 L 11.078125 -5.109375 L 15.296875 -5.046875 L 16.25 -4.71875 L 16.65625 -4.09375 L 16.59375 -3.484375 L 16.625 -1.5 L 16.5625 -0.890625 L 16.28125 -0.28125 L 15.609375 0.03125 L 15 0.09375 L 13.0625 -0.03125 L 11.109375 0.0625 L 10.53125 -0.03125 L 3.3125 0.03125 L 2.71875 -0.3125 Z M 2.296875 -0.921875 "/></g></g></g><g fill="#ffffff" fill-opacity="1"><g transform="translate(199.799331, 350.015018)"><g><path d="M 18.828125 -0.515625 L 18.421875 -0.921875 L 18.03125 -1.40625 L 17.53125 -1.8125 L 17.109375 -2.328125 L 14.015625 -5.421875 L 13.5 -5.84375 L 8.9375 -10.3125 L 8.515625 -10.40625 L 8.203125 -10.03125 L 8.328125 -9.359375 L 8.234375 -1.53125 L 8.328125 -0.890625 L 8.046875 -0.25 L 7.40625 0.0625 L 6.671875 0 L 6 0.09375 L 4.40625 0 L 3.3125 0.0625 L 2.71875 -0.28125 L 2.421875 -0.984375 L 2.421875 -1.59375 L 2.328125 -2.234375 L 2.421875 -3.453125 L 2.359375 -4.09375 L 2.390625 -5.390625 L 2.296875 -6.0625 L 2.296875 -6.671875 L 2.359375 -7.375 L 2.359375 -7.984375 L 2.421875 -8.5625 L 2.296875 -13.125 L 2.390625 -13.796875 L 2.359375 -14.453125 L 2.421875 -15.03125 L 2.328125 -16.34375 L 2.390625 -16.984375 L 2.328125 -21.453125 L 2.75 -22.0625 L 3.515625 -22.4375 L 4.375 -22.1875 L 5.65625 -21.328125 L 7.375 -19.5625 L 7.78125 -19.03125 L 8.328125 -18.640625 L 8.65625 -18.15625 L 9.25 -17.75 L 9.609375 -17.265625 L 10.59375 -16.4375 L 11.265625 -15.734375 L 11.625 -15.296875 L 12.125 -14.90625 L 13.25 -13.765625 L 13.71875 -13.375 L 15.125 -11.9375 L 15.578125 -11.8125 L 15.734375 -12.328125 L 15.703125 -13.59375 L 15.828125 -14.265625 L 15.828125 -14.875 L 15.703125 -15.546875 L 15.734375 -21.359375 L 16.0625 -22.03125 L 16.828125 -22.34375 L 17.46875 -22.3125 L 18.03125 -22.375 L 18.703125 -22.28125 L 19.40625 -22.34375 L 20.015625 -22.34375 L 20.65625 -22.28125 L 21.359375 -21.96875 L 21.734375 -21.390625 L 21.671875 -19.734375 L 21.734375 -18.765625 L 21.609375 -18.125 L 21.609375 -16.859375 L 21.671875 -16.25 L 21.578125 -14.96875 L 21.703125 -11.140625 L 21.640625 -10.4375 L 21.765625 -9.546875 L 21.609375 -0.859375 L 21.328125 -0.1875 L 20.59375 0.15625 L 19.765625 -0.09375 Z M 18.828125 -0.515625 "/></g></g></g><g fill="#ffffff" fill-opacity="1"><g transform="translate(223.863419, 350.015018)"><g><path d="M 6.125 -0.984375 L 6.09375 -3.484375 L 6.15625 -4.125 L 6.0625 -6.0625 L 6.09375 -6.734375 L 6.0625 -7.375 L 6.1875 -8.328125 L 6.09375 -9.25 L 6.09375 -10.53125 L 6.15625 -11.171875 L 6.09375 -11.78125 L 6.1875 -12.765625 L 6.09375 -16.28125 L 5.78125 -16.890625 L 5.203125 -17.234375 L 2.359375 -17.265625 L 1.53125 -17.171875 L 0.890625 -17.5 L 0.546875 -18.203125 L 0.578125 -21.390625 L 0.890625 -22.03125 L 1.59375 -22.34375 L 11.109375 -22.28125 L 11.84375 -22.375 L 12.484375 -22.375 L 13.125 -22.3125 L 13.765625 -22.3125 L 14.453125 -22.40625 L 15.0625 -22.40625 L 15.578125 -22.34375 L 16.34375 -22.40625 L 16.984375 -22.09375 L 17.296875 -21.453125 L 17.234375 -18.828125 L 17.296875 -18.15625 L 16.984375 -17.53125 L 16.25 -17.234375 L 14.5 -17.265625 L 13.921875 -17.203125 L 13.28125 -17.234375 L 12.734375 -17.203125 L 12.03125 -16.921875 L 11.78125 -16.34375 L 11.84375 -15.640625 L 11.75 -15 L 11.875 -8.65625 L 11.78125 -7.3125 L 11.84375 -6.734375 L 11.78125 -4.78125 L 11.6875 -4.125 L 11.78125 -3.578125 L 11.8125 -2.296875 L 11.75 -1.5625 L 11.78125 -0.953125 L 11.53125 -0.3125 L 10.890625 -0.0625 L 8.90625 -0.0625 L 8.296875 0 L 7.65625 -0.0625 L 7.0625 0 L 6.390625 -0.3125 Z M 6.125 -0.984375 "/></g></g></g><g fill="#ffffff" fill-opacity="1"><g transform="translate(240.682646, 350.015018)"><g><path d="M 11.9375 0.390625 L 11.265625 0.3125 L 10.125 0.0625 L 9.421875 0 L 8.484375 -0.3125 L 6 -1.59375 L 4.953125 -2.421875 L 4.59375 -2.84375 L 4.125 -3.28125 L 3.703125 -3.796875 L 3.3125 -4.1875 L 1.84375 -7.09375 L 1.5625 -8.296875 L 1.5 -8.90625 L 1.34375 -9.484375 L 1.25 -10.15625 L 1.34375 -12.734375 L 1.890625 -15.1875 L 2.359375 -16.40625 L 3.359375 -18.09375 L 4.921875 -19.921875 L 6 -20.71875 L 6.578125 -21 L 7.0625 -21.359375 L 9.453125 -22.25 L 12.828125 -22.734375 L 13.6875 -22.703125 L 15.546875 -22.375 L 18 -21.609375 L 18.484375 -21.265625 L 19.4375 -20.84375 L 20.171875 -20.328125 L 21.09375 -19.53125 L 22 -18.546875 L 22.703125 -17.59375 L 23.296875 -16.40625 L 24.09375 -14.015625 L 24.328125 -12.703125 L 24.421875 -11.109375 L 24.296875 -10.1875 L 24.265625 -9.515625 L 24.09375 -8.875 L 24.0625 -8.296875 L 23.8125 -7.09375 L 23.328125 -5.875 L 21.9375 -3.734375 L 21.484375 -3.28125 L 21.0625 -2.71875 L 20.171875 -1.953125 L 19.5625 -1.65625 L 19.09375 -1.28125 L 18.03125 -0.703125 L 15.640625 0.09375 L 13.71875 0.34375 Z M 13.71875 -5.265625 L 14.359375 -5.390625 L 14.84375 -5.625 L 15.421875 -5.78125 L 16.953125 -6.828125 L 17.390625 -7.34375 L 17.59375 -7.828125 L 17.9375 -8.390625 L 18.15625 -8.96875 L 18.421875 -10.15625 L 18.484375 -12.09375 L 18.390625 -12.671875 L 18.09375 -13.28125 L 17.71875 -14.5 L 16.46875 -15.796875 L 15.484375 -16.5 L 14.90625 -16.765625 L 14.328125 -16.890625 L 12.796875 -17.078125 L 11.90625 -17.015625 L 10.65625 -16.6875 L 10.25 -16.53125 L 8.65625 -15.453125 L 7.890625 -14.421875 L 7.6875 -13.859375 L 7.4375 -13.28125 L 7.34375 -12.671875 L 7.1875 -12.09375 L 7.1875 -10.15625 L 7.4375 -8.96875 L 7.71875 -8.390625 L 7.890625 -7.890625 L 8.328125 -7.28125 L 8.75 -6.828125 L 9.609375 -6.125 L 10.125 -5.84375 L 11.265625 -5.359375 L 11.96875 -5.265625 Z M 13.71875 -5.265625 "/></g></g></g></svg>