<svg xmlns="http://www.w3.org/2000/svg" xmlns:xlink="http://www.w3.org/1999/xlink" width="415" zoomAndPan="magnify" viewBox="0 0 311.25 405.749988" height="541" preserveAspectRatio="xMidYMid meet" version="1.0"><defs><g/><clipPath id="150845adcc"><path d="M 12.734375 0.363281 L 294.519531 0.363281 L 294.519531 405.136719 L 12.734375 405.136719 Z M 12.734375 0.363281 " clip-rule="nonzero"/></clipPath><clipPath id="acc83723be"><path d="M 32.308594 0.363281 L 274.945312 0.363281 C 285.753906 0.363281 294.519531 9.125 294.519531 19.9375 L 294.519531 385.449219 C 294.519531 396.257812 285.753906 405.019531 274.945312 405.019531 L 32.308594 405.019531 C 21.496094 405.019531 12.734375 396.257812 12.734375 385.449219 L 12.734375 19.9375 C 12.734375 9.125 21.496094 0.363281 32.308594 0.363281 Z M 32.308594 0.363281 " clip-rule="nonzero"/></clipPath><clipPath id="b1e10c4e5c"><path d="M 0.734375 0.363281 L 282.519531 0.363281 L 282.519531 405.136719 L 0.734375 405.136719 Z M 0.734375 0.363281 " clip-rule="nonzero"/></clipPath><clipPath id="43cf4059ac"><path d="M 20.308594 0.363281 L 262.945312 0.363281 C 273.753906 0.363281 282.519531 9.125 282.519531 19.9375 L 282.519531 385.449219 C 282.519531 396.257812 273.753906 405.019531 262.945312 405.019531 L 20.308594 405.019531 C 9.496094 405.019531 0.734375 396.257812 0.734375 385.449219 L 0.734375 19.9375 C 0.734375 9.125 9.496094 0.363281 20.308594 0.363281 Z M 20.308594 0.363281 " clip-rule="nonzero"/></clipPath><clipPath id="8ea7ce58e1"><rect x="0" width="283" y="0" height="406"/></clipPath><clipPath id="d459f29fb5"><path d="M 22.710938 8.398438 L 285.679688 8.398438 L 285.679688 393 L 22.710938 393 Z M 22.710938 8.398438 " clip-rule="nonzero"/></clipPath><clipPath id="35c0932d58"><path d="M 35.9375 8.398438 L 272.453125 8.398438 C 275.960938 8.398438 279.324219 9.792969 281.804688 12.273438 C 284.285156 14.753906 285.679688 18.117188 285.679688 21.625 L 285.679688 379.710938 C 285.679688 383.21875 284.285156 386.582031 281.804688 389.0625 C 279.324219 391.542969 275.960938 392.933594 272.453125 392.933594 L 35.9375 392.933594 C 32.429688 392.933594 29.0625 391.542969 26.582031 389.0625 C 24.105469 386.582031 22.710938 383.21875 22.710938 379.710938 L 22.710938 21.625 C 22.710938 18.117188 24.105469 14.753906 26.582031 12.273438 C 29.0625 9.792969 32.429688 8.398438 35.9375 8.398438 Z M 35.9375 8.398438 " clip-rule="nonzero"/></clipPath><clipPath id="2759a9001b"><path d="M 0.710938 0.398438 L 263.679688 0.398438 L 263.679688 385 L 0.710938 385 Z M 0.710938 0.398438 " clip-rule="nonzero"/></clipPath><clipPath id="a0d06b2625"><path d="M 13.9375 0.398438 L 250.453125 0.398438 C 253.960938 0.398438 257.324219 1.792969 259.804688 4.273438 C 262.285156 6.753906 263.679688 10.117188 263.679688 13.625 L 263.679688 371.710938 C 263.679688 375.21875 262.285156 378.582031 259.804688 381.0625 C 257.324219 383.542969 253.960938 384.933594 250.453125 384.933594 L 13.9375 384.933594 C 10.429688 384.933594 7.0625 383.542969 4.582031 381.0625 C 2.105469 378.582031 0.710938 375.21875 0.710938 371.710938 L 0.710938 13.625 C 0.710938 10.117188 2.105469 6.753906 4.582031 4.273438 C 7.0625 1.792969 10.429688 0.398438 13.9375 0.398438 Z M 13.9375 0.398438 " clip-rule="nonzero"/></clipPath><clipPath id="9631a131c0"><rect x="0" width="264" y="0" height="385"/></clipPath><clipPath id="679eaca7cf"><path d="M 12.503906 8.398438 L 294.785156 8.398438 L 294.785156 79.59375 L 12.503906 79.59375 Z M 12.503906 8.398438 " clip-rule="nonzero"/></clipPath><clipPath id="0c128c0da4"><path d="M 25.214844 8.398438 L 281.808594 8.398438 C 288.828125 8.398438 294.519531 14.089844 294.519531 21.109375 L 294.519531 66.882812 C 294.519531 73.902344 288.828125 79.59375 281.808594 79.59375 L 25.214844 79.59375 C 18.195312 79.59375 12.503906 73.902344 12.503906 66.882812 L 12.503906 21.109375 C 12.503906 14.089844 18.195312 8.398438 25.214844 8.398438 Z M 25.214844 8.398438 " clip-rule="nonzero"/></clipPath><clipPath id="dd242ccf95"><path d="M 0.503906 0.398438 L 282.730469 0.398438 L 282.730469 71.59375 L 0.503906 71.59375 Z M 0.503906 0.398438 " clip-rule="nonzero"/></clipPath><clipPath id="6ec09bf9ad"><path d="M 13.214844 0.398438 L 269.808594 0.398438 C 276.828125 0.398438 282.519531 6.089844 282.519531 13.109375 L 282.519531 58.882812 C 282.519531 65.902344 276.828125 71.59375 269.808594 71.59375 L 13.214844 71.59375 C 6.195312 71.59375 0.503906 65.902344 0.503906 58.882812 L 0.503906 13.109375 C 0.503906 6.089844 6.195312 0.398438 13.214844 0.398438 Z M 13.214844 0.398438 " clip-rule="nonzero"/></clipPath><clipPath id="4b5cdf198f"><rect x="0" width="283" y="0" height="72"/></clipPath><clipPath id="c658ccea7a"><path d="M 13.855469 272.652344 L 296 272.652344 L 296 392.835938 L 13.855469 392.835938 Z M 13.855469 272.652344 " clip-rule="nonzero"/></clipPath><clipPath id="d4d81d5609"><path d="M 25.492188 272.652344 L 284.277344 272.652344 C 290.703125 272.652344 295.914062 277.863281 295.914062 284.292969 L 295.914062 381.195312 C 295.914062 387.625 290.703125 392.835938 284.277344 392.835938 L 25.492188 392.835938 C 19.066406 392.835938 13.855469 387.625 13.855469 381.195312 L 13.855469 284.292969 C 13.855469 277.863281 19.066406 272.652344 25.492188 272.652344 Z M 25.492188 272.652344 " clip-rule="nonzero"/></clipPath><clipPath id="19d72f6c8c"><path d="M 0.855469 0.652344 L 282.925781 0.652344 L 282.925781 120.835938 L 0.855469 120.835938 Z M 0.855469 0.652344 " clip-rule="nonzero"/></clipPath><clipPath id="624abf76b8"><path d="M 12.492188 0.652344 L 271.277344 0.652344 C 277.703125 0.652344 282.914062 5.863281 282.914062 12.292969 L 282.914062 109.195312 C 282.914062 115.625 277.703125 120.835938 271.277344 120.835938 L 12.492188 120.835938 C 6.066406 120.835938 0.855469 115.625 0.855469 109.195312 L 0.855469 12.292969 C 0.855469 5.863281 6.066406 0.652344 12.492188 0.652344 Z M 12.492188 0.652344 " clip-rule="nonzero"/></clipPath><clipPath id="4509750743"><rect x="0" width="283" y="0" height="121"/></clipPath><clipPath id="e37b20ad17"><path d="M 49 132 L 262.511719 132 L 262.511719 267.832031 L 49 267.832031 Z M 49 132 " clip-rule="nonzero"/></clipPath></defs><g clip-path="url(#150845adcc)"><g clip-path="url(#acc83723be)"><g transform="matrix(1, 0, 0, 1, 12, -0.000000000000060896)"><g clip-path="url(#8ea7ce58e1)"><g clip-path="url(#b1e10c4e5c)"><g clip-path="url(#43cf4059ac)"><path fill="#dc143c" d="M 0.734375 0.363281 L 282.519531 0.363281 L 282.519531 405.429688 L 0.734375 405.429688 Z M 0.734375 0.363281 " fill-opacity="1" fill-rule="nonzero"/></g></g></g></g></g></g><g clip-path="url(#d459f29fb5)"><g clip-path="url(#35c0932d58)"><g transform="matrix(1, 0, 0, 1, 22, 8)"><g clip-path="url(#9631a131c0)"><g clip-path="url(#2759a9001b)"><g clip-path="url(#a0d06b2625)"><path fill="#fffaed" d="M 0.710938 0.398438 L 263.679688 0.398438 L 263.679688 384.582031 L 0.710938 384.582031 Z M 0.710938 0.398438 " fill-opacity="1" fill-rule="nonzero"/></g></g></g></g></g></g><g clip-path="url(#679eaca7cf)"><g clip-path="url(#0c128c0da4)"><g transform="matrix(1, 0, 0, 1, 12, 8)"><g clip-path="url(#4b5cdf198f)"><g clip-path="url(#dd242ccf95)"><g clip-path="url(#6ec09bf9ad)"><path fill="#dc143c" d="M 0.503906 0.398438 L 282.503906 0.398438 L 282.503906 71.59375 L 0.503906 71.59375 Z M 0.503906 0.398438 " fill-opacity="1" fill-rule="nonzero"/></g></g></g></g></g></g><g fill="#ffffff" fill-opacity="1"><g transform="translate(104.626441, 53.290268)"><g><path d="M 10.3125 0.3125 L 9.140625 0.171875 L 8.609375 0.03125 L 8.109375 -0.0625 L 7.015625 -0.359375 L 5.0625 -1.453125 L 3.40625 -2.828125 L 3.046875 -3.265625 L 2.828125 -3.6875 L 2.453125 -4.15625 L 2.15625 -4.671875 L 1.34375 -6.734375 L 1 -8.90625 L 1.03125 -10.53125 L 1.140625 -11.65625 L 1.734375 -13.859375 L 1.953125 -14.390625 L 2.703125 -15.75 L 3.484375 -16.65625 L 4.28125 -17.40625 L 5.5625 -18.359375 L 7.546875 -19.28125 L 9.21875 -19.703125 L 11.140625 -19.859375 L 12.546875 -19.78125 L 14.109375 -19.46875 L 14.609375 -19.328125 L 16.171875 -18.65625 L 16.5625 -18.359375 L 17.09375 -18.046875 L 17.484375 -17.734375 L 18.015625 -17.4375 L 18.75 -16.65625 L 19.046875 -16.171875 L 19.75 -15.359375 L 20.03125 -14.890625 L 20.234375 -14.359375 L 20.359375 -13.828125 L 20.640625 -13.359375 L 21.09375 -11.703125 L 21.171875 -10.59375 L 21.15625 -9.6875 L 21.203125 -8.828125 L 20.453125 -5.5 L 20.203125 -4.9375 L 20.0625 -4.21875 L 20.34375 -3.515625 L 21.375 -2.265625 L 21.84375 -1.875 L 22.515625 -0.953125 L 22.859375 -0.328125 L 22.796875 0.140625 L 22.265625 0.328125 L 18.5 0.3125 L 17.984375 0.359375 L 17.296875 0.171875 L 16.703125 -0.3125 L 16.03125 -0.53125 L 15.3125 -0.53125 L 14.8125 -0.25 L 12.578125 0.28125 L 11.171875 0.328125 Z M 11.875 -4.578125 L 12.453125 -4.6875 L 13.046875 -4.859375 L 13.609375 -5.140625 L 14.46875 -5.8125 L 15.28125 -6.734375 L 15.5625 -7.1875 L 15.75 -7.765625 L 16.015625 -8.90625 L 16.0625 -9.78125 L 15.953125 -10.609375 L 15.921875 -11.171875 L 15.734375 -11.8125 L 15.453125 -12.296875 L 15.21875 -12.828125 L 14.859375 -13.21875 L 14.5625 -13.65625 L 13.515625 -14.390625 L 12.984375 -14.5625 L 12.484375 -14.8125 L 11.953125 -14.953125 L 10.28125 -14.953125 L 9.078125 -14.609375 L 8.546875 -14.359375 L 8.078125 -14.078125 L 7.6875 -13.65625 L 7.203125 -13.296875 L 6.875 -12.765625 L 6.421875 -11.796875 L 6.125 -10.640625 L 6.125 -9.75 L 6.203125 -8.890625 L 6.484375 -7.734375 L 6.671875 -7.203125 L 6.921875 -6.734375 L 7.625 -5.75 L 8.625 -5.109375 L 9.6875 -4.6875 L 11.125 -4.546875 Z M 11.875 -4.578125 "/></g></g></g><g fill="#ffffff" fill-opacity="1"><g transform="translate(126.88576, 53.290268)"><g><path d="M 8.234375 0.21875 L 7.703125 0.078125 L 7.09375 0.0625 L 6.671875 -0.171875 L 6.03125 -0.359375 L 5.5 -0.59375 L 5.078125 -0.921875 L 4.140625 -1.484375 L 3.765625 -1.84375 L 3.015625 -2.765625 L 2.453125 -3.71875 L 2.296875 -4.25 L 2.203125 -4.78125 L 2.046875 -5.34375 L 2.046875 -5.921875 L 1.953125 -6.734375 L 1.984375 -8.75 L 1.90625 -9.859375 L 1.953125 -10.390625 L 1.921875 -10.953125 L 1.984375 -11.484375 L 1.90625 -12.09375 L 2.015625 -12.625 L 1.875 -14.296875 L 1.953125 -15.359375 L 1.84375 -16.53125 L 1.984375 -17.015625 L 1.984375 -18.6875 L 2.234375 -19.25 L 2.796875 -19.5625 L 5.734375 -19.53125 L 6.390625 -19.28125 L 6.703125 -18.75 L 6.703125 -18.15625 L 6.5625 -17.328125 L 6.5625 -16.796875 L 6.65625 -15.984375 L 6.65625 -13.75 L 6.59375 -13.25 L 6.625 -11.515625 L 6.703125 -10.953125 L 6.765625 -6.03125 L 6.921875 -5.453125 L 7.265625 -5.0625 L 7.6875 -4.6875 L 8.296875 -4.390625 L 8.796875 -4.25 L 9.71875 -4.1875 L 10.46875 -4.25 L 11.59375 -4.609375 L 12.046875 -5.03125 L 12.296875 -5.421875 L 12.546875 -5.953125 L 12.65625 -6.84375 L 12.625 -8.265625 L 12.6875 -8.828125 L 12.65625 -9.828125 L 12.71875 -10.453125 L 12.59375 -10.953125 L 12.6875 -13.15625 L 12.59375 -13.75 L 12.65625 -14.328125 L 12.625 -15.421875 L 12.6875 -15.984375 L 12.65625 -18.71875 L 12.9375 -19.328125 L 13.546875 -19.578125 L 16.171875 -19.5625 L 17.0625 -19.3125 L 17.296875 -18.6875 L 17.375 -18.21875 L 17.34375 -15.953125 L 17.4375 -15.390625 L 17.34375 -14.859375 L 17.375 -14.25 L 17.328125 -13.375 L 17.34375 -12.59375 L 17.296875 -12.015625 L 17.328125 -11.484375 L 17.4375 -10.921875 L 17.4375 -10.421875 L 17.328125 -9.828125 L 17.40625 -7.578125 L 17.203125 -4.75 L 17.015625 -4.21875 L 16.734375 -3.75 L 16.5625 -3.1875 L 16.203125 -2.765625 L 15.890625 -2.265625 L 14.640625 -1.140625 L 14.1875 -0.84375 L 13.6875 -0.609375 L 13.25 -0.328125 L 12.6875 -0.203125 L 12.09375 0.03125 L 10.984375 0.28125 L 9.578125 0.328125 Z M 8.234375 0.21875 "/></g></g></g><g fill="#ffffff" fill-opacity="1"><g transform="translate(146.156687, 53.290268)"><g><path d="M 2.015625 -0.8125 L 2.125 -1.375 L 2.15625 -1.921875 L 2.09375 -3.015625 L 2.09375 -3.578125 L 2.046875 -4.21875 L 2.125 -4.71875 L 2.09375 -5.25 L 2.15625 -5.859375 L 2.0625 -6.453125 L 2.125 -7.578125 L 2.046875 -8.65625 L 2.125 -9.25 L 2.125 -14.25 L 2.0625 -14.75 L 2.125 -15.34375 L 2.015625 -16.765625 L 2.125 -17.578125 L 2.0625 -18.6875 L 2.34375 -19.3125 L 3.15625 -19.5 L 6.8125 -19.578125 L 7.3125 -19.53125 L 8.40625 -19.5625 L 8.96875 -19.5 L 10.203125 -19.5625 L 10.75 -19.46875 L 11.265625 -19.53125 L 13.5 -19.5 L 14.078125 -19.25 L 14.359375 -18.6875 L 14.28125 -18.15625 L 14.25 -17.546875 L 14.328125 -17.015625 L 14.390625 -15.875 L 14.078125 -15.359375 L 13.5 -15.0625 L 8.125 -15.03125 L 7.265625 -14.78125 L 6.984375 -13.96875 L 7.046875 -13.109375 L 7.375 -12.59375 L 7.84375 -12.296875 L 10.0625 -12.328125 L 10.703125 -12.265625 L 11.28125 -12.265625 L 11.84375 -12.328125 L 12.96875 -12.296875 L 13.4375 -11.984375 L 13.6875 -11.453125 L 13.75 -10.890625 L 13.6875 -8.6875 L 13.40625 -8.15625 L 12.84375 -7.84375 L 12.34375 -7.828125 L 11.765625 -7.875 L 11 -7.828125 L 9.53125 -7.90625 L 8.96875 -7.84375 L 7.875 -7.84375 L 7.375 -7.546875 L 7.125 -6.953125 L 7.09375 -5.59375 L 7.34375 -4.71875 L 7.9375 -4.390625 L 8.546875 -4.4375 L 9.15625 -4.390625 L 9.6875 -4.46875 L 13.375 -4.421875 L 14.21875 -4.140625 L 14.578125 -3.578125 L 14.53125 -3.046875 L 14.5625 -1.3125 L 14.5 -0.78125 L 14.25 -0.25 L 13.65625 0.03125 L 13.125 0.078125 L 11.421875 -0.03125 L 9.71875 0.0625 L 9.21875 -0.03125 L 2.90625 0.03125 L 2.375 -0.28125 Z M 2.015625 -0.8125 "/></g></g></g><g fill="#ffffff" fill-opacity="1"><g transform="translate(162.159938, 53.290268)"><g><path d="M 8.109375 0.21875 L 6.921875 0.140625 L 6.390625 -0.0625 L 5.78125 -0.140625 L 3.765625 -1.0625 L 3.296875 -1.375 L 2.484375 -2.171875 L 1.78125 -3.046875 L 1.34375 -4.15625 L 1.234375 -4.671875 L 1.171875 -5.28125 L 1.375 -5.859375 L 1.921875 -6.125 L 2.484375 -6.09375 L 3.046875 -6.140625 L 5.171875 -6.09375 L 5.734375 -5.859375 L 6.140625 -5.3125 L 6.5625 -4.921875 L 7.0625 -4.609375 L 7.484375 -4.421875 L 8.125 -4.25 L 8.96875 -4.1875 L 9.75 -4.21875 L 10.78125 -4.53125 L 11.234375 -4.78125 L 11.671875 -5.171875 L 11.84375 -5.890625 L 11.703125 -6.625 L 11.3125 -6.953125 L 10.3125 -7.375 L 9.75 -7.40625 L 9.25 -7.484375 L 6.953125 -7.65625 L 5.953125 -7.875 L 4.359375 -8.40625 L 3.375 -9 L 2.59375 -9.71875 L 1.90625 -10.640625 L 1.53125 -11.625 L 1.34375 -12.40625 L 1.3125 -14.28125 L 1.703125 -15.890625 L 1.984375 -16.34375 L 2.171875 -16.84375 L 2.546875 -17.203125 L 2.84375 -17.6875 L 3.359375 -18.015625 L 3.75 -18.390625 L 4.296875 -18.71875 L 4.75 -18.890625 L 5.203125 -19.171875 L 5.703125 -19.359375 L 7.90625 -19.8125 L 9.46875 -19.828125 L 10.078125 -19.703125 L 10.59375 -19.640625 L 11.171875 -19.53125 L 12.71875 -19 L 14.5 -17.765625 L 14.859375 -17.34375 L 15.140625 -16.90625 L 15.5 -16.453125 L 15.953125 -15.453125 L 16.171875 -14.359375 L 15.921875 -13.828125 L 15.390625 -13.5 L 14.859375 -13.546875 L 14.359375 -13.5 L 12.515625 -13.546875 L 11.65625 -13.828125 L 10.734375 -14.8125 L 10.3125 -15.140625 L 9.6875 -15.359375 L 7.90625 -15.3125 L 7.40625 -15.203125 L 7.015625 -15.03125 L 6.53125 -14.671875 L 6.234375 -14.28125 L 6.140625 -13.546875 L 6.171875 -12.796875 L 6.625 -12.34375 L 7.046875 -12.125 L 8.21875 -11.703125 L 11.03125 -11.34375 L 13.328125 -10.78125 L 14.8125 -10.109375 L 15.28125 -9.71875 L 15.953125 -8.859375 L 16.515625 -7.828125 L 16.65625 -7.296875 L 16.734375 -6.734375 L 16.703125 -5 L 16.625 -4.5 L 16.453125 -3.9375 L 16.234375 -3.4375 L 15.671875 -2.546875 L 14.890625 -1.640625 L 14 -1.03125 L 12.546875 -0.25 L 9.8125 0.28125 L 8.90625 0.3125 Z M 8.109375 0.21875 "/></g></g></g><g fill="#ffffff" fill-opacity="1"><g transform="translate(179.978561, 53.290268)"><g><path d="M 10.453125 0.328125 L 9.859375 0.28125 L 8.859375 0.0625 L 8.234375 0 L 7.4375 -0.28125 L 5.25 -1.390625 L 4.328125 -2.125 L 4.015625 -2.484375 L 3.609375 -2.875 L 3.234375 -3.328125 L 2.90625 -3.65625 L 1.625 -6.203125 L 1.375 -7.265625 L 1.3125 -7.796875 L 1.171875 -8.296875 L 1.09375 -8.890625 L 1.171875 -11.140625 L 1.640625 -13.296875 L 2.0625 -14.359375 L 2.9375 -15.84375 L 4.296875 -17.4375 L 5.25 -18.125 L 5.75 -18.390625 L 6.171875 -18.6875 L 8.265625 -19.46875 L 11.234375 -19.890625 L 11.984375 -19.859375 L 13.609375 -19.578125 L 15.75 -18.90625 L 16.171875 -18.609375 L 17.015625 -18.25 L 17.65625 -17.796875 L 18.46875 -17.09375 L 19.25 -16.234375 L 19.859375 -15.390625 L 20.390625 -14.359375 L 21.09375 -12.265625 L 21.28125 -11.125 L 21.375 -9.71875 L 21.265625 -8.90625 L 21.234375 -8.328125 L 21.09375 -7.765625 L 21.0625 -7.265625 L 20.84375 -6.203125 L 20.421875 -5.140625 L 19.1875 -3.265625 L 18.796875 -2.875 L 18.4375 -2.375 L 17.65625 -1.703125 L 17.125 -1.453125 L 16.703125 -1.125 L 15.78125 -0.609375 L 13.6875 0.078125 L 12.015625 0.3125 Z M 12.015625 -4.609375 L 12.578125 -4.71875 L 12.984375 -4.921875 L 13.5 -5.0625 L 14.828125 -5.984375 L 15.21875 -6.421875 L 15.390625 -6.84375 L 15.703125 -7.34375 L 15.890625 -7.84375 L 16.125 -8.890625 L 16.171875 -10.59375 L 16.09375 -11.09375 L 15.84375 -11.625 L 15.5 -12.6875 L 14.421875 -13.828125 L 13.546875 -14.4375 L 13.046875 -14.671875 L 12.546875 -14.78125 L 11.203125 -14.953125 L 10.421875 -14.890625 L 9.328125 -14.609375 L 8.96875 -14.46875 L 7.578125 -13.515625 L 6.90625 -12.625 L 6.734375 -12.125 L 6.515625 -11.625 L 6.421875 -11.09375 L 6.28125 -10.59375 L 6.28125 -8.890625 L 6.515625 -7.84375 L 6.765625 -7.34375 L 6.90625 -6.90625 L 7.296875 -6.375 L 7.65625 -5.984375 L 8.40625 -5.359375 L 8.859375 -5.109375 L 9.859375 -4.6875 L 10.46875 -4.609375 Z M 12.015625 -4.609375 "/></g></g></g><g clip-path="url(#c658ccea7a)"><g clip-path="url(#d4d81d5609)"><g transform="matrix(1, 0, 0, 1, 13, 272)"><g clip-path="url(#4509750743)"><g clip-path="url(#19d72f6c8c)"><g clip-path="url(#624abf76b8)"><path fill="#dc143c" d="M 0.855469 0.652344 L 283 0.652344 L 283 120.835938 L 0.855469 120.835938 Z M 0.855469 0.652344 " fill-opacity="1" fill-rule="nonzero"/></g></g></g></g></g></g><g fill="#ffffff" fill-opacity="1"><g transform="translate(143.526533, 341.488354)"><g/></g></g><g fill="#ffffff" fill-opacity="1"><g transform="translate(151.095258, 341.488354)"><g/></g></g><g fill="#ffffff" fill-opacity="1"><g transform="translate(158.663983, 341.488354)"><g/></g></g><path fill="#dd991f" d="M 161.28125 254.546875 C 153.230469 255.097656 138.734375 257.402344 130.914062 260.164062 C 123.089844 262.929688 93.089844 266.0625 80.066406 266.382812 C 67.046875 266.707031 55.910156 266.382812 54.761719 264.449219 C 53.609375 262.515625 47.03125 233.5 51.90625 229.539062 C 56.785156 225.578125 58.808594 223.320312 59.039062 214.890625 C 59.269531 206.460938 56.738281 200.84375 55.449219 196.929688 C 54.621094 188.269531 54.300781 169.203125 65.667969 159.621094 C 77.03125 150.042969 154.472656 86.066406 160.589844 85.746094 C 166.710938 85.421875 194.640625 92.792969 206.605469 98.964844 C 218.570312 105.136719 258.460938 121.53125 259.199219 139.816406 C 259.933594 158.101562 262.097656 231.332031 256.117188 236.214844 C 250.132812 241.097656 231.269531 246.808594 217.464844 251.09375 C 203.660156 255.375 193.351562 257.308594 186.636719 257.171875 C 186.679688 257.171875 169.335938 253.992188 161.28125 254.546875 Z M 161.28125 254.546875 " fill-opacity="1" fill-rule="evenodd"/><g clip-path="url(#e37b20ad17)"><path fill="#f8ba1e" d="M 57.566406 169.753906 C 57.84375 169.246094 58.027344 168.878906 58.257812 168.417969 C 58.949219 167.035156 60.050781 166.207031 61.570312 165.976562 C 63.824219 165.65625 66.035156 165.242188 68.289062 165.101562 C 71.417969 164.917969 74.546875 164.550781 77.628906 163.996094 C 83.058594 163.03125 88.488281 162.199219 93.871094 161.234375 C 99.855469 160.128906 105.789062 158.839844 111.726562 157.6875 C 119.085938 156.257812 126.449219 154.785156 133.8125 153.449219 C 137.585938 152.757812 141.402344 152.34375 145.175781 151.746094 C 150.835938 150.824219 156.496094 149.902344 162.15625 148.9375 C 164.503906 148.519531 166.847656 147.875 169.242188 147.554688 C 172.324219 147.140625 175.40625 146.816406 178.492188 146.585938 C 183.828125 146.21875 189.167969 146.035156 194.457031 145.757812 C 198.738281 145.527344 203.0625 145.207031 207.339844 144.976562 C 211.988281 144.699219 216.589844 144.054688 221.144531 143.269531 C 226.253906 142.351562 231.269531 141.152344 236.238281 139.863281 C 238.859375 139.171875 241.484375 138.617188 244.105469 137.929688 C 245.394531 137.605469 246.683594 137.191406 247.925781 136.730469 C 250.132812 135.902344 252.34375 135.027344 254.550781 134.199219 C 255.011719 134.011719 255.332031 133.78125 255.609375 133.324219 C 255.792969 133 256.253906 132.632812 256.621094 132.585938 C 257.3125 132.492188 258.003906 132.585938 258.691406 132.675781 C 259.105469 132.722656 259.335938 133.09375 259.429688 133.550781 C 259.933594 136.269531 260.578125 138.988281 260.902344 141.703125 C 261.5 146.679688 262.234375 151.652344 262.375 156.628906 C 262.464844 158.976562 262.464844 161.324219 262.375 163.628906 C 262.144531 169.523438 262.28125 175.375 262.375 181.269531 C 262.464844 186.105469 262.511719 190.941406 262.417969 195.777344 C 262.375 200.015625 262.097656 204.25 261.914062 208.488281 C 261.820312 210.882812 261.867188 213.277344 261.730469 215.71875 C 261.453125 220.464844 261.132812 225.253906 260.761719 229.996094 C 260.625 231.839844 260.164062 233.636719 259.429688 235.292969 C 258.921875 236.445312 258.230469 237.414062 257.3125 238.289062 C 254.964844 240.589844 252.113281 241.972656 249.074219 243.078125 C 244.015625 244.921875 238.816406 246.210938 233.613281 247.546875 C 226.34375 249.480469 219.074219 251.460938 211.757812 253.304688 C 205.316406 254.960938 198.828125 256.160156 192.203125 256.988281 C 189.71875 257.308594 187.1875 257.402344 184.703125 257.035156 C 183.550781 256.851562 182.402344 256.527344 181.390625 256.019531 C 178.308594 254.546875 175.222656 253.027344 172.1875 251.367188 C 169.195312 249.757812 166.019531 249.296875 162.707031 249.34375 C 157.277344 249.480469 152.078125 250.679688 147.0625 252.703125 C 143.980469 253.949219 140.988281 255.46875 138 256.894531 C 133.859375 258.832031 129.714844 260.8125 125.253906 261.871094 C 121.894531 262.652344 118.535156 263.34375 115.128906 263.804688 C 108.78125 264.679688 102.429688 265.417969 96.082031 266.152344 C 94.839844 266.292969 93.550781 266.335938 92.308594 266.335938 C 89.179688 266.382812 86.050781 266.566406 82.921875 267.027344 C 78.734375 267.628906 74.5 267.71875 70.222656 267.671875 C 66.585938 267.628906 62.953125 267.488281 59.316406 267.628906 C 55.128906 267.71875 51.539062 264.265625 50.941406 260.351562 C 50.34375 256.34375 50.160156 252.335938 50.023438 248.28125 C 49.882812 244.597656 49.882812 240.960938 49.699219 237.273438 C 49.609375 235.292969 49.699219 233.359375 50.296875 231.425781 C 50.4375 230.964844 50.710938 230.503906 50.988281 230.089844 C 51.355469 229.539062 51.90625 229.308594 52.550781 229.167969 C 54.484375 228.753906 56.464844 228.292969 58.351562 227.695312 C 59.453125 227.328125 60.558594 226.726562 61.523438 225.992188 C 62.859375 224.976562 64.054688 223.824219 65.296875 222.722656 C 66.21875 221.84375 66.769531 220.695312 67.183594 219.449219 C 68.105469 216.917969 68.425781 214.292969 68.65625 211.621094 C 68.886719 208.671875 67.691406 206.277344 65.710938 204.25 C 63.503906 201.996094 60.972656 200.152344 58.121094 198.769531 C 57.382812 198.402344 56.695312 197.941406 55.957031 197.480469 C 55.449219 197.160156 55.082031 196.652344 54.992188 196.054688 C 54.808594 194.808594 54.578125 193.566406 54.4375 192.324219 C 54.253906 190.617188 54.207031 188.914062 54.070312 187.210938 C 54.070312 186.886719 54.023438 186.566406 54.023438 186.195312 C 54.023438 182.742188 53.980469 179.335938 54.023438 175.878906 C 54.070312 174.175781 54.253906 172.472656 54.4375 170.8125 C 54.53125 169.847656 55.082031 169.433594 56.050781 169.433594 C 56.554688 169.660156 57.015625 169.707031 57.566406 169.753906 Z M 207.066406 216.6875 C 207.066406 212.863281 206.511719 210.285156 205.269531 207.84375 C 202.097656 201.582031 195.054688 197.847656 187.09375 199.601562 C 180.148438 201.121094 175.316406 205.449219 172.832031 212.082031 C 170.992188 216.964844 171.175781 221.84375 173.707031 226.496094 C 176.835938 232.253906 183.136719 235.433594 189.855469 234.695312 C 199.425781 233.636719 206.972656 225.253906 207.066406 216.6875 Z M 212.402344 180.992188 C 212.585938 182.421875 212.679688 183.847656 213 185.230469 C 214.199219 190.433594 216.957031 194.625 221.652344 197.296875 C 227.863281 200.84375 235.179688 199.414062 239.597656 193.796875 C 241.898438 190.847656 243.09375 187.488281 243.230469 183.800781 C 243.460938 177.492188 241.300781 172.148438 236.46875 168.003906 C 233.660156 165.609375 230.394531 164.410156 226.714844 164.503906 C 222.25 164.640625 218.707031 166.621094 216.039062 170.121094 C 213.597656 173.300781 212.539062 176.984375 212.402344 180.992188 Z M 130.820312 188.363281 C 130.820312 190.574219 131.234375 192.691406 132.203125 194.671875 C 134.777344 199.828125 139.058594 202.546875 144.71875 203.007812 C 152.449219 203.652344 159.71875 198.679688 162.15625 191.308594 C 164.503906 184.125 161.328125 176.617188 154.519531 173.4375 C 149.734375 171.183594 144.808594 171.414062 140.160156 173.808594 C 134.316406 176.847656 131.144531 181.730469 130.820312 188.363281 Z M 112.414062 220.832031 C 107.585938 221.109375 103.628906 223.273438 101.1875 227.832031 C 97.875 233.957031 100.683594 241.234375 107.214844 243.632812 C 112.554688 245.613281 118.949219 243.585938 122.171875 238.796875 C 124.839844 234.878906 125.253906 230.6875 122.859375 226.496094 C 120.652344 222.628906 117.0625 220.96875 112.414062 220.832031 Z M 112.414062 220.832031 " fill-opacity="1" fill-rule="evenodd"/></g><path fill="#ffdd4d" d="M 260.441406 138.34375 C 256.390625 139.863281 251.746094 141.152344 247.601562 142.121094 C 246.683594 142.351562 245.761719 142.671875 244.886719 143.039062 C 240.792969 144.789062 236.515625 145.664062 232.144531 146.402344 C 226.574219 147.277344 221.007812 148.015625 215.394531 148.75 C 210.65625 149.351562 205.914062 149.855469 201.175781 150.410156 C 199.058594 150.6875 196.941406 151.054688 194.824219 151.285156 C 190.179688 151.835938 185.53125 152.296875 180.929688 152.851562 C 178.859375 153.082031 176.789062 153.496094 174.671875 153.726562 C 167.953125 154.417969 161.511719 156.214844 155.023438 157.734375 C 150.652344 158.746094 146.28125 159.757812 141.910156 160.820312 C 134.59375 162.570312 127.277344 164.367188 119.914062 166.023438 C 114.210938 167.3125 108.367188 168.050781 102.570312 168.878906 C 99.898438 169.246094 97.230469 169.800781 94.609375 170.351562 C 89.59375 171.367188 84.578125 172.472656 79.5625 173.53125 C 75.972656 174.269531 72.339844 174.726562 68.65625 175.050781 C 65.804688 175.328125 62.953125 175.511719 60.097656 175.789062 C 58.441406 175.972656 56.921875 175.648438 55.40625 175.050781 C 54.578125 174.726562 54.207031 174.175781 54.164062 173.207031 C 54.023438 170.539062 55.082031 168.371094 56.554688 166.253906 C 59.636719 161.878906 63.367188 158.054688 67.414062 154.507812 C 71.09375 151.285156 74.777344 148.152344 78.503906 144.976562 C 83.980469 140.277344 89.410156 135.441406 94.792969 130.605469 C 101.464844 124.570312 108.273438 118.722656 115.039062 112.871094 C 118.71875 109.695312 122.445312 106.5625 126.21875 103.476562 C 131.050781 99.5625 135.929688 95.738281 141.21875 92.515625 C 145.453125 89.9375 149.824219 87.585938 154.148438 85.101562 C 154.289062 85.007812 154.472656 84.960938 154.609375 84.871094 C 159.257812 81.96875 164.226562 81.644531 169.472656 82.703125 C 172.832031 83.394531 176.050781 84.410156 179.226562 85.605469 C 186.039062 88.183594 192.847656 90.671875 199.609375 93.34375 C 207.066406 96.335938 214.472656 99.421875 221.699219 102.96875 C 227.171875 105.640625 232.511719 108.449219 237.710938 111.628906 C 240.515625 113.332031 243.230469 115.175781 245.902344 116.972656 C 249.535156 119.414062 253.171875 120.839844 255.976562 124.25 C 258.371094 127.195312 259.519531 131.941406 260.027344 135.671875 C 260.164062 136.453125 260.441406 137.558594 260.441406 138.34375 Z M 157.648438 123.605469 C 163.765625 123.511719 169.519531 122.128906 174.949219 119.367188 C 177.109375 118.261719 179.136719 116.878906 180.835938 115.128906 C 181.710938 114.253906 182.449219 113.242188 182.953125 112.136719 C 183.921875 110.0625 183.550781 108.128906 181.804688 106.609375 C 181.113281 106.054688 180.332031 105.550781 179.550781 105.179688 C 177.800781 104.351562 175.867188 103.984375 173.980469 103.753906 C 170.851562 103.382812 167.722656 103.613281 164.640625 104.167969 C 160.132812 104.949219 155.851562 106.425781 151.941406 108.773438 C 150.191406 109.832031 148.582031 111.03125 147.203125 112.597656 C 146.417969 113.515625 145.730469 114.484375 145.316406 115.636719 C 144.671875 117.476562 144.992188 119.136719 146.464844 120.472656 C 147.292969 121.253906 148.214844 121.808594 149.226562 122.222656 C 151.941406 123.28125 154.75 123.605469 157.648438 123.605469 Z M 120.238281 150.316406 C 123.734375 150.316406 126.863281 149.304688 129.488281 147.417969 C 131.144531 146.21875 132.476562 144.746094 133.167969 142.765625 C 134.089844 140.230469 133.445312 137.699219 131.328125 135.992188 C 130.5 135.347656 129.53125 134.75 128.566406 134.425781 C 124.472656 133 120.558594 133.597656 116.785156 135.53125 C 114.992188 136.453125 113.472656 137.742188 112.324219 139.449219 C 109.976562 143.039062 110.941406 146.910156 114.714844 148.9375 C 114.992188 149.074219 115.316406 149.210938 115.636719 149.351562 C 117.15625 150.042969 118.8125 150.316406 120.238281 150.316406 Z M 205.363281 135.488281 C 208.308594 135.488281 211.070312 135.074219 213.828125 134.199219 C 216.082031 133.460938 218.246094 132.492188 219.996094 130.789062 C 222.019531 128.761719 221.789062 126.734375 219.398438 125.171875 C 218.15625 124.386719 216.820312 123.925781 215.394531 123.605469 C 211.988281 122.820312 208.582031 122.914062 205.179688 123.511719 C 202.511719 123.972656 199.933594 124.800781 197.585938 126.183594 C 196.574219 126.78125 195.652344 127.472656 194.964844 128.441406 C 193.722656 130.097656 193.90625 131.664062 195.515625 132.90625 C 196.34375 133.550781 197.308594 134.058594 198.324219 134.425781 C 200.53125 135.304688 202.925781 135.488281 205.363281 135.488281 Z M 205.363281 135.488281 " fill-opacity="1" fill-rule="evenodd"/><path fill="#000000" d="M 44.183594 81.84375 C 34.410156 81.84375 26.414062 89.839844 26.414062 99.613281 C 26.414062 109.386719 34.410156 117.382812 44.183594 117.382812 C 53.957031 117.382812 61.953125 109.386719 61.953125 99.613281 C 61.953125 89.839844 53.957031 81.84375 44.183594 81.84375 Z M 44.003906 107.964844 C 39.738281 107.964844 38.316406 104.945312 38.496094 103.167969 L 41.695312 103.167969 C 41.515625 103.703125 42.050781 105.300781 44.183594 105.300781 C 46.492188 105.300781 46.667969 103.347656 46.667969 102.992188 C 46.667969 100.503906 44.359375 100.503906 44.003906 100.503906 L 42.226562 100.503906 L 42.226562 98.015625 L 44.003906 98.015625 C 44.894531 98.015625 46.492188 97.835938 46.492188 95.703125 C 46.492188 93.75 44.714844 93.574219 44.183594 93.574219 C 42.40625 93.574219 42.050781 94.996094 42.050781 95.351562 L 38.671875 95.351562 C 38.671875 92.152344 41.871094 90.90625 44.003906 90.90625 C 48.980469 90.90625 49.511719 94.285156 49.511719 95.527344 C 49.511719 97.835938 47.378906 98.902344 47.023438 99.082031 C 47.914062 99.4375 49.691406 100.324219 49.691406 102.992188 C 49.867188 106.898438 46.492188 107.964844 44.003906 107.964844 Z M 44.003906 107.964844 " fill-opacity="1" fill-rule="nonzero"/><g fill="#ffffff" fill-opacity="1"><g transform="translate(72.377666, 333.358461)"><g><path d="M 4.28125 0.09375 L 3.703125 0.0625 L 2.71875 -0.25 L 2.359375 -0.859375 L 2.390625 -6.765625 L 2.328125 -7.375 L 2.359375 -15.640625 L 2.296875 -16.25 L 2.421875 -17.53125 L 2.390625 -21.390625 L 2.6875 -21.890625 L 3.359375 -22.25 L 4.015625 -22.375 L 4.59375 -22.28125 L 5.296875 -22.25 L 7.28125 -22.375 L 7.921875 -22.28125 L 9.859375 -22.25 L 10.5625 -22.34375 L 11.59375 -22.375 L 12.546875 -22.34375 L 13.1875 -22.125 L 13.828125 -22.125 L 14.359375 -21.890625 L 15.640625 -21.515625 L 16.6875 -20.8125 L 18.125 -19.5625 L 18.890625 -18.515625 L 19.5 -17.421875 L 19.890625 -16.25 L 19.984375 -15.546875 L 20.109375 -15 L 20.046875 -12.390625 L 19.859375 -11.875 L 19.765625 -11.171875 L 19.21875 -9.921875 L 18.546875 -8.90625 L 18.125 -8.421875 L 17.71875 -8.015625 L 17.265625 -7.5 L 16.796875 -7.125 L 13.765625 -5.90625 L 10.46875 -5.65625 L 9.796875 -5.78125 L 9.09375 -5.71875 L 8.359375 -5.359375 L 8.078125 -4.78125 L 8.109375 -4.046875 L 8.046875 -3.453125 L 8.109375 -2.265625 L 8.078125 -1.5625 L 8.109375 -0.921875 L 7.828125 -0.25 L 7.15625 0 L 6.421875 0.0625 L 5.84375 0.03125 Z M 9.0625 -10.828125 L 9.828125 -10.890625 L 11.453125 -10.859375 L 12.453125 -10.984375 L 12.953125 -11.140625 L 13.46875 -11.53125 L 13.890625 -12.03125 L 14.171875 -12.546875 L 14.390625 -13.125 L 14.453125 -13.984375 L 14.390625 -14.875 L 14.296875 -15.453125 L 13.984375 -16.09375 L 13.5625 -16.5 L 13.0625 -16.859375 L 12.421875 -17.140625 L 9.09375 -17.234375 L 8.421875 -16.921875 L 8.109375 -16.3125 L 8.109375 -15 L 8.046875 -14.328125 L 8.140625 -11.75 L 8.421875 -11.203125 Z M 9.0625 -10.828125 "/></g></g></g><g fill="#ffffff" fill-opacity="1"><g transform="translate(93.377885, 333.358461)"><g><path d="M 2.453125 -1.015625 L 2.359375 -3.515625 L 2.421875 -4.1875 L 2.296875 -6.03125 L 2.390625 -7.34375 L 2.296875 -8.046875 L 2.328125 -9.25 L 2.390625 -9.921875 L 2.390625 -11.53125 L 2.296875 -12.453125 L 2.390625 -21.390625 L 2.65625 -22.0625 L 3.25 -22.34375 L 3.953125 -22.3125 L 4.5625 -22.40625 L 5.875 -22.28125 L 6.484375 -22.375 L 8.390625 -22.3125 L 8.9375 -22.375 L 9.640625 -22.3125 L 10.28125 -22.375 L 10.984375 -22.34375 L 11.90625 -22.375 L 12.703125 -22.3125 L 15.359375 -21.765625 L 16.46875 -21.203125 L 18.0625 -19.984375 L 18.359375 -19.5 L 18.796875 -19.03125 L 19.65625 -17.265625 L 19.828125 -16.625 L 19.921875 -16.03125 L 20.078125 -15.421875 L 20.046875 -12.890625 L 19.703125 -11.6875 L 19.46875 -11.140625 L 19.125 -10.5625 L 18.890625 -9.953125 L 18.515625 -9.421875 L 17.625 -8.5625 L 17.265625 -7.890625 L 17.359375 -7.125 L 18.328125 -5.453125 L 18.734375 -4.953125 L 19.0625 -4.375 L 19.4375 -3.796875 L 19.734375 -3.25 L 20.75 -1.6875 L 21.171875 -0.890625 L 21.03125 -0.21875 L 20.359375 -0.0625 L 19.65625 0 L 18.390625 0 L 17.75 -0.0625 L 17.046875 0 L 15.890625 -0.0625 L 15.09375 -0.25 L 14.453125 -0.828125 L 14.078125 -1.34375 L 13.796875 -1.890625 L 13.375 -2.484375 L 12.484375 -4.09375 L 12.265625 -4.6875 L 11.421875 -5.8125 L 10.921875 -6.359375 L 10.125 -6.609375 L 9.546875 -6.578125 L 8.96875 -6.578125 L 8.328125 -6.25 L 8.046875 -5.625 L 8.109375 -3.640625 L 8.015625 -2.265625 L 8.140625 -1.59375 L 8.078125 -0.921875 L 7.859375 -0.3125 L 6.859375 0 L 5.90625 0 L 5.234375 -0.0625 L 3.921875 0.03125 L 3.3125 0 L 2.6875 -0.3125 Z M 8.96875 -11.75 L 9.671875 -11.75 L 10.3125 -11.65625 L 12.796875 -11.875 L 13.28125 -12.09375 L 13.65625 -12.484375 L 14.015625 -13.03125 L 14.265625 -13.65625 L 14.359375 -14.53125 L 14.296875 -15.453125 L 14.078125 -15.953125 L 13.765625 -16.4375 L 12.765625 -17.046875 L 11.296875 -17.234375 L 9.546875 -17.265625 L 9.03125 -17.234375 L 8.390625 -16.921875 L 8.015625 -16.28125 L 8.109375 -12.703125 L 8.421875 -12.03125 Z M 8.96875 -11.75 "/></g></g></g><g fill="#ffffff" fill-opacity="1"><g transform="translate(115.271714, 333.358461)"><g><path d="M 11.9375 0.390625 L 11.265625 0.3125 L 10.125 0.0625 L 9.421875 0 L 8.484375 -0.3125 L 6 -1.59375 L 4.953125 -2.421875 L 4.59375 -2.84375 L 4.125 -3.28125 L 3.703125 -3.796875 L 3.3125 -4.1875 L 1.84375 -7.09375 L 1.5625 -8.296875 L 1.5 -8.90625 L 1.34375 -9.484375 L 1.25 -10.15625 L 1.34375 -12.734375 L 1.890625 -15.1875 L 2.359375 -16.40625 L 3.359375 -18.09375 L 4.921875 -19.921875 L 6 -20.71875 L 6.578125 -21 L 7.0625 -21.359375 L 9.453125 -22.25 L 12.828125 -22.734375 L 13.6875 -22.703125 L 15.546875 -22.375 L 18 -21.609375 L 18.484375 -21.265625 L 19.4375 -20.84375 L 20.171875 -20.328125 L 21.09375 -19.53125 L 22 -18.546875 L 22.703125 -17.59375 L 23.296875 -16.40625 L 24.09375 -14.015625 L 24.328125 -12.703125 L 24.421875 -11.109375 L 24.296875 -10.1875 L 24.265625 -9.515625 L 24.09375 -8.875 L 24.0625 -8.296875 L 23.8125 -7.09375 L 23.328125 -5.875 L 21.9375 -3.734375 L 21.484375 -3.28125 L 21.0625 -2.71875 L 20.171875 -1.953125 L 19.5625 -1.65625 L 19.09375 -1.28125 L 18.03125 -0.703125 L 15.640625 0.09375 L 13.71875 0.34375 Z M 13.71875 -5.265625 L 14.359375 -5.390625 L 14.84375 -5.625 L 15.421875 -5.78125 L 16.953125 -6.828125 L 17.390625 -7.34375 L 17.59375 -7.828125 L 17.9375 -8.390625 L 18.15625 -8.96875 L 18.421875 -10.15625 L 18.484375 -12.09375 L 18.390625 -12.671875 L 18.09375 -13.28125 L 17.71875 -14.5 L 16.46875 -15.796875 L 15.484375 -16.5 L 14.90625 -16.765625 L 14.328125 -16.890625 L 12.796875 -17.078125 L 11.90625 -17.015625 L 10.65625 -16.6875 L 10.25 -16.53125 L 8.65625 -15.453125 L 7.890625 -14.421875 L 7.6875 -13.859375 L 7.4375 -13.28125 L 7.34375 -12.671875 L 7.1875 -12.09375 L 7.1875 -10.15625 L 7.4375 -8.96875 L 7.71875 -8.390625 L 7.890625 -7.890625 L 8.328125 -7.28125 L 8.75 -6.828125 L 9.609375 -6.125 L 10.125 -5.84375 L 11.265625 -5.359375 L 11.96875 -5.265625 Z M 13.71875 -5.265625 "/></g></g></g><g fill="#ffffff" fill-opacity="1"><g transform="translate(139.846363, 333.358461)"><g><path d="M 6.125 -0.984375 L 6.09375 -3.484375 L 6.15625 -4.125 L 6.0625 -6.0625 L 6.09375 -6.734375 L 6.0625 -7.375 L 6.1875 -8.328125 L 6.09375 -9.25 L 6.09375 -10.53125 L 6.15625 -11.171875 L 6.09375 -11.78125 L 6.1875 -12.765625 L 6.09375 -16.28125 L 5.78125 -16.890625 L 5.203125 -17.234375 L 2.359375 -17.265625 L 1.53125 -17.171875 L 0.890625 -17.5 L 0.546875 -18.203125 L 0.578125 -21.390625 L 0.890625 -22.03125 L 1.59375 -22.34375 L 11.109375 -22.28125 L 11.84375 -22.375 L 12.484375 -22.375 L 13.125 -22.3125 L 13.765625 -22.3125 L 14.453125 -22.40625 L 15.0625 -22.40625 L 15.578125 -22.34375 L 16.34375 -22.40625 L 16.984375 -22.09375 L 17.296875 -21.453125 L 17.234375 -18.828125 L 17.296875 -18.15625 L 16.984375 -17.53125 L 16.25 -17.234375 L 14.5 -17.265625 L 13.921875 -17.203125 L 13.28125 -17.234375 L 12.734375 -17.203125 L 12.03125 -16.921875 L 11.78125 -16.34375 L 11.84375 -15.640625 L 11.75 -15 L 11.875 -8.65625 L 11.78125 -7.3125 L 11.84375 -6.734375 L 11.78125 -4.78125 L 11.6875 -4.125 L 11.78125 -3.578125 L 11.8125 -2.296875 L 11.75 -1.5625 L 11.78125 -0.953125 L 11.53125 -0.3125 L 10.890625 -0.0625 L 8.90625 -0.0625 L 8.296875 0 L 7.65625 -0.0625 L 7.0625 0 L 6.390625 -0.3125 Z M 6.125 -0.984375 "/></g></g></g><g fill="#ffffff" fill-opacity="1"><g transform="translate(157.36779, 333.358461)"><g><path d="M 2.296875 -0.921875 L 2.421875 -1.5625 L 2.453125 -2.203125 L 2.390625 -3.453125 L 2.390625 -4.09375 L 2.328125 -4.8125 L 2.421875 -5.390625 L 2.390625 -6 L 2.453125 -6.703125 L 2.359375 -7.375 L 2.421875 -8.65625 L 2.328125 -9.890625 L 2.421875 -10.5625 L 2.421875 -16.28125 L 2.359375 -16.859375 L 2.421875 -17.53125 L 2.296875 -19.15625 L 2.421875 -20.078125 L 2.359375 -21.359375 L 2.6875 -22.0625 L 3.609375 -22.28125 L 7.78125 -22.375 L 8.359375 -22.3125 L 9.609375 -22.34375 L 10.25 -22.28125 L 11.65625 -22.34375 L 12.296875 -22.25 L 12.859375 -22.3125 L 15.421875 -22.28125 L 16.09375 -22 L 16.40625 -21.359375 L 16.3125 -20.75 L 16.28125 -20.046875 L 16.375 -19.4375 L 16.4375 -18.125 L 16.09375 -17.5625 L 15.421875 -17.203125 L 9.296875 -17.171875 L 8.296875 -16.890625 L 7.984375 -15.953125 L 8.046875 -14.96875 L 8.421875 -14.390625 L 8.96875 -14.046875 L 11.484375 -14.078125 L 12.21875 -14.015625 L 12.890625 -14.015625 L 13.53125 -14.078125 L 14.8125 -14.046875 L 15.359375 -13.6875 L 15.640625 -13.09375 L 15.703125 -12.453125 L 15.640625 -9.921875 L 15.328125 -9.328125 L 14.6875 -8.96875 L 14.109375 -8.9375 L 13.4375 -9 L 12.578125 -8.9375 L 10.890625 -9.03125 L 10.25 -8.96875 L 9 -8.96875 L 8.421875 -8.625 L 8.140625 -7.953125 L 8.109375 -6.390625 L 8.390625 -5.390625 L 9.0625 -5.015625 L 9.765625 -5.078125 L 10.46875 -5.015625 L 11.078125 -5.109375 L 15.296875 -5.046875 L 16.25 -4.71875 L 16.65625 -4.09375 L 16.59375 -3.484375 L 16.625 -1.5 L 16.5625 -0.890625 L 16.28125 -0.28125 L 15.609375 0.03125 L 15 0.09375 L 13.0625 -0.03125 L 11.109375 0.0625 L 10.53125 -0.03125 L 3.3125 0.03125 L 2.71875 -0.3125 Z M 2.296875 -0.921875 "/></g></g></g><g fill="#ffffff" fill-opacity="1"><g transform="translate(175.655213, 333.358461)"><g><path d="M 1.53125 -0.921875 L 1.53125 -3.390625 L 1.59375 -3.984375 L 1.984375 -4.59375 L 4.09375 -5.265625 L 4.40625 -5.96875 L 4.46875 -7.21875 L 4.34375 -8.59375 L 4.5 -9.21875 L 4.375 -10.46875 L 4.4375 -11.109375 L 4.46875 -12.421875 L 4.375 -13.15625 L 4.34375 -13.6875 L 4.4375 -16.40625 L 4.015625 -16.984375 L 2.078125 -17.65625 L 1.75 -18.265625 L 1.75 -18.859375 L 1.6875 -19.5 L 1.6875 -20.203125 L 1.75 -20.75 L 1.75 -21.359375 L 2.109375 -22.03125 L 2.8125 -22.34375 L 4.046875 -22.28125 L 4.65625 -22.3125 L 6.609375 -22.28125 L 7.3125 -22.34375 L 11.359375 -22.3125 L 12.390625 -22.03125 L 12.640625 -21.390625 L 12.703125 -20.75 L 12.640625 -20.171875 L 12.640625 -18.296875 L 12.296875 -17.6875 L 11.6875 -17.328125 L 10.984375 -17.296875 L 10.375 -16.953125 L 10.03125 -16.375 L 10.03125 -15.03125 L 10.09375 -14.359375 L 10.03125 -13.71875 L 10.09375 -13.125 L 10.03125 -12.125 L 10.09375 -11.171875 L 9.953125 -9.828125 L 10.09375 -8.5625 L 10.03125 -5.9375 L 10.375 -5.296875 L 12.515625 -4.625 L 12.953125 -4.09375 L 12.859375 -2.140625 L 12.921875 -1.5625 L 12.921875 -0.859375 L 12.578125 -0.28125 L 11.96875 0.03125 L 2.484375 -0.03125 L 1.84375 -0.25 Z M 1.53125 -0.921875 "/></g></g></g><g fill="#ffffff" fill-opacity="1"><g transform="translate(190.144727, 333.358461)"><g><path d="M 18.828125 -0.515625 L 18.421875 -0.921875 L 18.03125 -1.40625 L 17.53125 -1.8125 L 17.109375 -2.328125 L 14.015625 -5.421875 L 13.5 -5.84375 L 8.9375 -10.3125 L 8.515625 -10.40625 L 8.203125 -10.03125 L 8.328125 -9.359375 L 8.234375 -1.53125 L 8.328125 -0.890625 L 8.046875 -0.25 L 7.40625 0.0625 L 6.671875 0 L 6 0.09375 L 4.40625 0 L 3.3125 0.0625 L 2.71875 -0.28125 L 2.421875 -0.984375 L 2.421875 -1.59375 L 2.328125 -2.234375 L 2.421875 -3.453125 L 2.359375 -4.09375 L 2.390625 -5.390625 L 2.296875 -6.0625 L 2.296875 -6.671875 L 2.359375 -7.375 L 2.359375 -7.984375 L 2.421875 -8.5625 L 2.296875 -13.125 L 2.390625 -13.796875 L 2.359375 -14.453125 L 2.421875 -15.03125 L 2.328125 -16.34375 L 2.390625 -16.984375 L 2.328125 -21.453125 L 2.75 -22.0625 L 3.515625 -22.4375 L 4.375 -22.1875 L 5.65625 -21.328125 L 7.375 -19.5625 L 7.78125 -19.03125 L 8.328125 -18.640625 L 8.65625 -18.15625 L 9.25 -17.75 L 9.609375 -17.265625 L 10.59375 -16.4375 L 11.265625 -15.734375 L 11.625 -15.296875 L 12.125 -14.90625 L 13.25 -13.765625 L 13.71875 -13.375 L 15.125 -11.9375 L 15.578125 -11.8125 L 15.734375 -12.328125 L 15.703125 -13.59375 L 15.828125 -14.265625 L 15.828125 -14.875 L 15.703125 -15.546875 L 15.734375 -21.359375 L 16.0625 -22.03125 L 16.828125 -22.34375 L 17.46875 -22.3125 L 18.03125 -22.375 L 18.703125 -22.28125 L 19.40625 -22.34375 L 20.015625 -22.34375 L 20.65625 -22.28125 L 21.359375 -21.96875 L 21.734375 -21.390625 L 21.671875 -19.734375 L 21.734375 -18.765625 L 21.609375 -18.125 L 21.609375 -16.859375 L 21.671875 -16.25 L 21.578125 -14.96875 L 21.703125 -11.140625 L 21.640625 -10.4375 L 21.765625 -9.546875 L 21.609375 -0.859375 L 21.328125 -0.1875 L 20.59375 0.15625 L 19.765625 -0.09375 Z M 18.828125 -0.515625 "/></g></g></g><g fill="#ffffff" fill-opacity="1"><g transform="translate(214.208815, 333.358461)"><g><path d="M 0.421875 -0.859375 L 0.796875 -2.203125 L 1.078125 -2.84375 L 1.46875 -3.359375 L 2.390625 -5.6875 L 3.28125 -7.34375 L 3.515625 -7.984375 L 3.796875 -8.484375 L 3.984375 -9.15625 L 4.4375 -9.984375 L 4.65625 -10.59375 L 5.140625 -11.421875 L 5.65625 -12.578125 L 6 -13.15625 L 6.15625 -13.6875 L 7.953125 -17.71875 L 8.296875 -18.296875 L 9.671875 -21.171875 L 9.859375 -21.734375 L 10.46875 -22.3125 L 11.484375 -22.625 L 12.578125 -22.34375 L 13.15625 -21.734375 L 13.34375 -21.125 L 13.625 -20.65625 L 14.140625 -19.4375 L 14.78125 -18.265625 L 15.265625 -17.140625 L 15.421875 -16.625 L 16 -15.421875 L 16.1875 -14.8125 L 16.828125 -13.6875 L 16.984375 -13.09375 L 17.296875 -12.546875 L 17.5625 -12 L 17.90625 -11.421875 L 18.09375 -10.796875 L 18.390625 -10.3125 L 18.609375 -9.671875 L 18.890625 -9.125 L 19.15625 -8.484375 L 19.5 -7.984375 L 19.953125 -6.796875 L 20.265625 -6.25 L 20.5 -5.65625 L 21.03125 -4.5 L 21.234375 -3.890625 L 21.546875 -3.421875 L 21.734375 -2.78125 L 22.15625 -2.234375 L 22.375 -1.65625 L 22.5625 -0.859375 L 22.4375 -0.1875 L 21.859375 0 L 19.890625 0.0625 L 18.765625 -0.03125 L 18.203125 0.03125 L 17.359375 -0.28125 L 16.828125 -0.796875 L 16.46875 -1.375 L 16.3125 -1.953125 L 15.640625 -2.453125 L 14.59375 -2.8125 L 13.09375 -2.75 L 12.421875 -2.8125 L 11.84375 -2.8125 L 11.109375 -2.71875 L 10.4375 -2.8125 L 8.65625 -2.78125 L 8.015625 -2.84375 L 7.25 -2.515625 L 6.703125 -1.921875 L 6.15625 -0.828125 L 5.59375 -0.25 L 4.859375 0.0625 L 4.015625 -0.03125 L 1.21875 -0.03125 L 0.578125 -0.1875 Z M 10.28125 -7.890625 L 12.765625 -7.921875 L 13.3125 -8.171875 L 13.375 -8.75 L 13.15625 -9.328125 L 12.828125 -9.953125 L 12.703125 -10.46875 L 12.359375 -11.015625 L 11.9375 -12.265625 L 11.5625 -12.515625 L 11.140625 -12.1875 L 10.859375 -11.6875 L 9.578125 -8.78125 L 9.671875 -8.140625 Z M 10.28125 -7.890625 "/></g></g></g></svg>