<svg xmlns="http://www.w3.org/2000/svg" xmlns:xlink="http://www.w3.org/1999/xlink" width="415" zoomAndPan="magnify" viewBox="0 0 311.25 410.24999" height="547" preserveAspectRatio="xMidYMid meet" version="1.0"><defs><g/><clipPath id="49ce7b50c4"><path d="M 12.148438 0.117188 L 292.769531 0.117188 L 292.769531 408.996094 L 12.148438 408.996094 Z M 12.148438 0.117188 " clip-rule="nonzero"/></clipPath><clipPath id="80de84d4bd"><path d="M 33.523438 0.117188 L 271.394531 0.117188 C 283.199219 0.117188 292.769531 9.6875 292.769531 21.492188 L 292.769531 387.382812 C 292.769531 399.1875 283.199219 408.757812 271.394531 408.757812 L 33.523438 408.757812 C 21.71875 408.757812 12.148438 399.1875 12.148438 387.382812 L 12.148438 21.492188 C 12.148438 9.6875 21.71875 0.117188 33.523438 0.117188 Z M 33.523438 0.117188 " clip-rule="nonzero"/></clipPath><clipPath id="3d83bc3e1e"><path d="M 0.148438 0.117188 L 280.769531 0.117188 L 280.769531 408.8125 L 0.148438 408.8125 Z M 0.148438 0.117188 " clip-rule="nonzero"/></clipPath><clipPath id="886491a0f4"><path d="M 21.523438 0.117188 L 259.394531 0.117188 C 271.199219 0.117188 280.769531 9.6875 280.769531 21.492188 L 280.769531 387.382812 C 280.769531 399.1875 271.199219 408.757812 259.394531 408.757812 L 21.523438 408.757812 C 9.71875 408.757812 0.148438 399.1875 0.148438 387.382812 L 0.148438 21.492188 C 0.148438 9.6875 9.71875 0.117188 21.523438 0.117188 Z M 21.523438 0.117188 " clip-rule="nonzero"/></clipPath><clipPath id="61dfc20aeb"><rect x="0" width="281" y="0" height="409"/></clipPath><clipPath id="46591f428a"><path d="M 20.882812 10.246094 L 283.847656 10.246094 L 283.847656 399 L 20.882812 399 Z M 20.882812 10.246094 " clip-rule="nonzero"/></clipPath><clipPath id="63a7b78eed"><path d="M 35.324219 10.246094 L 269.402344 10.246094 C 277.378906 10.246094 283.847656 16.710938 283.847656 24.6875 L 283.847656 384.121094 C 283.847656 392.097656 277.378906 398.5625 269.402344 398.5625 L 35.324219 398.5625 C 27.347656 398.5625 20.882812 392.097656 20.882812 384.121094 L 20.882812 24.6875 C 20.882812 16.710938 27.347656 10.246094 35.324219 10.246094 Z M 35.324219 10.246094 " clip-rule="nonzero"/></clipPath><clipPath id="852f4a6654"><path d="M 0.882812 0.246094 L 263.847656 0.246094 L 263.847656 388.757812 L 0.882812 388.757812 Z M 0.882812 0.246094 " clip-rule="nonzero"/></clipPath><clipPath id="3484e9eac1"><path d="M 15.324219 0.246094 L 249.402344 0.246094 C 257.378906 0.246094 263.847656 6.710938 263.847656 14.6875 L 263.847656 374.121094 C 263.847656 382.097656 257.378906 388.5625 249.402344 388.5625 L 15.324219 388.5625 C 7.347656 388.5625 0.882812 382.097656 0.882812 374.121094 L 0.882812 14.6875 C 0.882812 6.710938 7.347656 0.246094 15.324219 0.246094 Z M 15.324219 0.246094 " clip-rule="nonzero"/></clipPath><clipPath id="4f54327890"><rect x="0" width="264" y="0" height="389"/></clipPath><clipPath id="57f59a3535"><path d="M 13.855469 278.382812 L 296 278.382812 L 296 398.5625 L 13.855469 398.5625 Z M 13.855469 278.382812 " clip-rule="nonzero"/></clipPath><clipPath id="dffb4308dd"><path d="M 25.492188 278.382812 L 284.277344 278.382812 C 290.703125 278.382812 295.914062 283.59375 295.914062 290.019531 L 295.914062 386.925781 C 295.914062 393.351562 290.703125 398.5625 284.277344 398.5625 L 25.492188 398.5625 C 19.066406 398.5625 13.855469 393.351562 13.855469 386.925781 L 13.855469 290.019531 C 13.855469 283.59375 19.066406 278.382812 25.492188 278.382812 Z M 25.492188 278.382812 " clip-rule="nonzero"/></clipPath><clipPath id="afd645a216"><path d="M 0.855469 0.382812 L 282.925781 0.382812 L 282.925781 120.5625 L 0.855469 120.5625 Z M 0.855469 0.382812 " clip-rule="nonzero"/></clipPath><clipPath id="155b3fab7e"><path d="M 12.492188 0.382812 L 271.277344 0.382812 C 277.703125 0.382812 282.914062 5.59375 282.914062 12.019531 L 282.914062 108.925781 C 282.914062 115.351562 277.703125 120.5625 271.277344 120.5625 L 12.492188 120.5625 C 6.066406 120.5625 0.855469 115.351562 0.855469 108.925781 L 0.855469 12.019531 C 0.855469 5.59375 6.066406 0.382812 12.492188 0.382812 Z M 12.492188 0.382812 " clip-rule="nonzero"/></clipPath><clipPath id="714ddd6323"><rect x="0" width="283" y="0" height="121"/></clipPath><clipPath id="30aea316a1"><path d="M 13.855469 10.277344 L 292.382812 10.277344 L 292.382812 81.441406 L 13.855469 81.441406 Z M 13.855469 10.277344 " clip-rule="nonzero"/></clipPath><clipPath id="4a6d419c4e"><path d="M 26.5625 10.277344 L 279.535156 10.277344 C 286.554688 10.277344 292.246094 15.96875 292.246094 22.988281 L 292.246094 68.730469 C 292.246094 75.75 286.554688 81.441406 279.535156 81.441406 L 26.5625 81.441406 C 19.542969 81.441406 13.855469 75.75 13.855469 68.730469 L 13.855469 22.988281 C 13.855469 15.96875 19.542969 10.277344 26.5625 10.277344 Z M 26.5625 10.277344 " clip-rule="nonzero"/></clipPath><clipPath id="01cbf75cd9"><path d="M 0.855469 0.277344 L 279.335938 0.277344 L 279.335938 71.441406 L 0.855469 71.441406 Z M 0.855469 0.277344 " clip-rule="nonzero"/></clipPath><clipPath id="7a7e818a3d"><path d="M 13.5625 0.277344 L 266.535156 0.277344 C 273.554688 0.277344 279.246094 5.96875 279.246094 12.988281 L 279.246094 58.730469 C 279.246094 65.75 273.554688 71.441406 266.535156 71.441406 L 13.5625 71.441406 C 6.542969 71.441406 0.855469 65.75 0.855469 58.730469 L 0.855469 12.988281 C 0.855469 5.96875 6.542969 0.277344 13.5625 0.277344 Z M 13.5625 0.277344 " clip-rule="nonzero"/></clipPath><clipPath id="416f8b1da3"><rect x="0" width="280" y="0" height="72"/></clipPath><clipPath id="b42bb7bc84"><path d="M 123 91.019531 L 133 91.019531 L 133 102 L 123 102 Z M 123 91.019531 " clip-rule="nonzero"/></clipPath></defs><g clip-path="url(#49ce7b50c4)"><g clip-path="url(#80de84d4bd)"><g transform="matrix(1, 0, 0, 1, 12, 0.000000000000000597)"><g clip-path="url(#61dfc20aeb)"><g clip-path="url(#3d83bc3e1e)"><g clip-path="url(#886491a0f4)"><path fill="#800080" d="M 0.148438 0.117188 L 280.769531 0.117188 L 280.769531 408.996094 L 0.148438 408.996094 Z M 0.148438 0.117188 " fill-opacity="1" fill-rule="nonzero"/></g></g></g></g></g></g><g clip-path="url(#46591f428a)"><g clip-path="url(#63a7b78eed)"><g transform="matrix(1, 0, 0, 1, 20, 10)"><g clip-path="url(#4f54327890)"><g clip-path="url(#852f4a6654)"><g clip-path="url(#3484e9eac1)"><path fill="#fffaed" d="M 0.882812 0.246094 L 263.847656 0.246094 L 263.847656 388.527344 L 0.882812 388.527344 Z M 0.882812 0.246094 " fill-opacity="1" fill-rule="nonzero"/></g></g></g></g></g></g><g clip-path="url(#57f59a3535)"><g clip-path="url(#dffb4308dd)"><g transform="matrix(1, 0, 0, 1, 13, 278)"><g clip-path="url(#714ddd6323)"><g clip-path="url(#afd645a216)"><g clip-path="url(#155b3fab7e)"><path fill="#800080" d="M 0.855469 0.382812 L 283 0.382812 L 283 120.5625 L 0.855469 120.5625 Z M 0.855469 0.382812 " fill-opacity="1" fill-rule="nonzero"/></g></g></g></g></g></g><g fill="#ffffff" fill-opacity="1"><g transform="translate(143.526533, 347.216234)"><g/></g></g><g fill="#ffffff" fill-opacity="1"><g transform="translate(151.095258, 347.216234)"><g/></g></g><g fill="#ffffff" fill-opacity="1"><g transform="translate(158.663983, 347.216234)"><g/></g></g><g clip-path="url(#30aea316a1)"><g clip-path="url(#4a6d419c4e)"><g transform="matrix(1, 0, 0, 1, 13, 10)"><g clip-path="url(#416f8b1da3)"><g clip-path="url(#01cbf75cd9)"><g clip-path="url(#7a7e818a3d)"><path fill="#800080" d="M 0.855469 0.277344 L 279.382812 0.277344 L 279.382812 71.441406 L 0.855469 71.441406 Z M 0.855469 0.277344 " fill-opacity="1" fill-rule="nonzero"/></g></g></g></g></g></g><g fill="#ffffff" fill-opacity="1"><g transform="translate(96.413497, 55.17069)"><g><path d="M 5.359375 -0.859375 L 5.34375 -3.046875 L 5.390625 -3.609375 L 5.3125 -5.3125 L 5.34375 -5.890625 L 5.3125 -6.453125 L 5.421875 -7.296875 L 5.34375 -8.109375 L 5.34375 -9.21875 L 5.390625 -9.78125 L 5.34375 -10.3125 L 5.421875 -11.171875 L 5.34375 -14.25 L 5.0625 -14.78125 L 4.546875 -15.09375 L 2.0625 -15.109375 L 1.34375 -15.03125 L 0.78125 -15.3125 L 0.46875 -15.921875 L 0.5 -18.71875 L 0.78125 -19.28125 L 1.390625 -19.5625 L 9.71875 -19.5 L 10.359375 -19.578125 L 10.921875 -19.578125 L 11.484375 -19.53125 L 12.046875 -19.53125 L 12.65625 -19.609375 L 13.1875 -19.609375 L 13.640625 -19.5625 L 14.296875 -19.609375 L 14.859375 -19.328125 L 15.140625 -18.78125 L 15.09375 -16.484375 L 15.140625 -15.890625 L 14.859375 -15.34375 L 14.21875 -15.09375 L 12.6875 -15.109375 L 12.1875 -15.0625 L 11.625 -15.09375 L 11.140625 -15.0625 L 10.53125 -14.8125 L 10.3125 -14.296875 L 10.359375 -13.6875 L 10.28125 -13.125 L 10.390625 -7.578125 L 10.3125 -6.390625 L 10.359375 -5.890625 L 10.3125 -4.1875 L 10.21875 -3.609375 L 10.3125 -3.125 L 10.34375 -2.015625 L 10.28125 -1.375 L 10.3125 -0.84375 L 10.078125 -0.28125 L 9.53125 -0.0625 L 7.796875 -0.0625 L 7.265625 0 L 6.703125 -0.0625 L 6.171875 0 L 5.59375 -0.28125 Z M 5.359375 -0.859375 "/></g></g></g><g fill="#ffffff" fill-opacity="1"><g transform="translate(112.025741, 55.17069)"><g><path d="M 10.453125 0.328125 L 9.859375 0.28125 L 8.859375 0.0625 L 8.234375 0 L 7.4375 -0.28125 L 5.25 -1.390625 L 4.328125 -2.125 L 4.015625 -2.484375 L 3.609375 -2.875 L 3.234375 -3.328125 L 2.90625 -3.65625 L 1.625 -6.203125 L 1.375 -7.265625 L 1.3125 -7.796875 L 1.171875 -8.296875 L 1.09375 -8.890625 L 1.171875 -11.140625 L 1.640625 -13.296875 L 2.0625 -14.359375 L 2.9375 -15.84375 L 4.296875 -17.4375 L 5.25 -18.125 L 5.75 -18.390625 L 6.171875 -18.6875 L 8.265625 -19.46875 L 11.234375 -19.890625 L 11.984375 -19.859375 L 13.609375 -19.578125 L 15.75 -18.90625 L 16.171875 -18.609375 L 17.015625 -18.25 L 17.65625 -17.796875 L 18.46875 -17.09375 L 19.25 -16.234375 L 19.859375 -15.390625 L 20.390625 -14.359375 L 21.09375 -12.265625 L 21.28125 -11.125 L 21.375 -9.71875 L 21.265625 -8.90625 L 21.234375 -8.328125 L 21.09375 -7.765625 L 21.0625 -7.265625 L 20.84375 -6.203125 L 20.421875 -5.140625 L 19.1875 -3.265625 L 18.796875 -2.875 L 18.4375 -2.375 L 17.65625 -1.703125 L 17.125 -1.453125 L 16.703125 -1.125 L 15.78125 -0.609375 L 13.6875 0.078125 L 12.015625 0.3125 Z M 12.015625 -4.609375 L 12.578125 -4.71875 L 12.984375 -4.921875 L 13.5 -5.0625 L 14.828125 -5.984375 L 15.21875 -6.421875 L 15.390625 -6.84375 L 15.703125 -7.34375 L 15.890625 -7.84375 L 16.125 -8.890625 L 16.171875 -10.59375 L 16.09375 -11.09375 L 15.84375 -11.625 L 15.5 -12.6875 L 14.421875 -13.828125 L 13.546875 -14.4375 L 13.046875 -14.671875 L 12.546875 -14.78125 L 11.203125 -14.953125 L 10.421875 -14.890625 L 9.328125 -14.609375 L 8.96875 -14.46875 L 7.578125 -13.515625 L 6.90625 -12.625 L 6.734375 -12.125 L 6.515625 -11.625 L 6.421875 -11.09375 L 6.28125 -10.59375 L 6.28125 -8.890625 L 6.515625 -7.84375 L 6.765625 -7.34375 L 6.90625 -6.90625 L 7.296875 -6.375 L 7.65625 -5.984375 L 8.40625 -5.359375 L 8.859375 -5.109375 L 9.859375 -4.6875 L 10.46875 -4.609375 Z M 12.015625 -4.609375 "/></g></g></g><g fill="#ffffff" fill-opacity="1"><g transform="translate(134.424709, 55.17069)"><g><path d="M 2.0625 -0.8125 L 2.125 -1.34375 L 2.015625 -5.3125 L 2.125 -5.84375 L 2.046875 -18.15625 L 2.09375 -18.75 L 2.40625 -19.3125 L 2.96875 -19.609375 L 3.765625 -19.390625 L 4.578125 -18.796875 L 5.203125 -18.15625 L 5.5 -17.765625 L 5.890625 -17.40625 L 6.203125 -16.984375 L 6.5625 -16.59375 L 7.046875 -16.171875 L 7.703125 -15.34375 L 9.640625 -13.359375 L 9.96875 -12.90625 L 10.421875 -12.546875 L 10.75 -12.0625 L 11.125 -11.703125 L 11.625 -11.53125 L 12.234375 -11.734375 L 16.375 -16.125 L 16.625 -16.53125 L 18.21875 -18.1875 L 18.859375 -18.96875 L 19.5625 -19.359375 L 20.390625 -19.609375 L 20.953125 -19.28125 L 21.265625 -18.75 L 21.234375 -18.15625 L 21.28125 -17.6875 L 21.234375 -17.09375 L 21.3125 -9.1875 L 21.234375 -8.6875 L 21.28125 -8.125 L 21.234375 -7.546875 L 21.265625 -6.984375 L 21.171875 -6.421875 L 21.234375 -5.34375 L 21.171875 -4.8125 L 21.28125 -1.453125 L 21.203125 -0.890625 L 20.890625 -0.3125 L 20.359375 0.03125 L 17.015625 0 L 16.40625 -0.21875 L 16.125 -0.8125 L 16.203125 -4.671875 L 16.125 -5.703125 L 16.140625 -6.265625 L 16.125 -6.765625 L 16.203125 -7.296875 L 16.125 -7.84375 L 15.890625 -8.1875 L 15.5625 -8.125 L 15.171875 -7.734375 L 14.8125 -7.265625 L 12.453125 -4.890625 L 11.984375 -4.546875 L 11.34375 -4.546875 L 10.421875 -5.3125 L 10.0625 -5.78125 L 8.5 -7.265625 L 7.796875 -8.125 L 7.375 -8.234375 L 7.125 -7.84375 L 7.234375 -6.234375 L 7.15625 -2.453125 L 7.234375 -1.875 L 7.265625 -1.28125 L 7.203125 -0.75 L 6.90625 -0.3125 L 6.0625 -0.0625 L 2.984375 0 L 2.3125 -0.3125 Z M 2.0625 -0.8125 "/></g></g></g><g fill="#ffffff" fill-opacity="1"><g transform="translate(157.773251, 55.17069)"><g><path d="M 0.359375 -0.75 L 0.703125 -1.921875 L 0.953125 -2.484375 L 1.28125 -2.9375 L 2.09375 -4.96875 L 2.875 -6.421875 L 3.078125 -6.984375 L 3.328125 -7.4375 L 3.484375 -8.015625 L 3.890625 -8.75 L 4.078125 -9.28125 L 4.5 -10 L 4.9375 -11 L 5.25 -11.515625 L 5.390625 -11.984375 L 6.953125 -15.5 L 7.265625 -16.015625 L 8.46875 -18.515625 L 8.625 -19.03125 L 9.15625 -19.53125 L 10.0625 -19.8125 L 11 -19.5625 L 11.515625 -19.03125 L 11.671875 -18.5 L 11.921875 -18.078125 L 12.375 -17.015625 L 12.9375 -15.984375 L 13.359375 -15 L 13.5 -14.5625 L 14 -13.5 L 14.171875 -12.96875 L 14.71875 -11.984375 L 14.859375 -11.453125 L 15.140625 -10.984375 L 15.359375 -10.5 L 15.671875 -10 L 15.84375 -9.4375 L 16.09375 -9.03125 L 16.28125 -8.46875 L 16.53125 -7.984375 L 16.765625 -7.4375 L 17.0625 -6.984375 L 17.453125 -5.953125 L 17.734375 -5.46875 L 17.9375 -4.9375 L 18.40625 -3.9375 L 18.578125 -3.40625 L 18.859375 -2.984375 L 19.03125 -2.4375 L 19.390625 -1.953125 L 19.578125 -1.453125 L 19.75 -0.75 L 19.640625 -0.171875 L 19.140625 0 L 17.40625 0.0625 L 16.421875 -0.03125 L 15.921875 0.03125 L 15.203125 -0.25 L 14.71875 -0.703125 L 14.421875 -1.203125 L 14.28125 -1.703125 L 13.6875 -2.15625 L 12.765625 -2.453125 L 11.453125 -2.40625 L 10.875 -2.453125 L 10.359375 -2.453125 L 9.71875 -2.375 L 9.140625 -2.453125 L 7.578125 -2.4375 L 7.015625 -2.484375 L 6.34375 -2.203125 L 5.859375 -1.671875 L 5.390625 -0.71875 L 4.890625 -0.21875 L 4.25 0.0625 L 3.515625 -0.03125 L 1.0625 -0.03125 L 0.5 -0.171875 Z M 9 -6.90625 L 11.171875 -6.921875 L 11.65625 -7.15625 L 11.703125 -7.65625 L 11.515625 -8.15625 L 11.234375 -8.71875 L 11.125 -9.15625 L 10.8125 -9.640625 L 10.453125 -10.734375 L 10.109375 -10.953125 L 9.75 -10.671875 L 9.5 -10.21875 L 8.375 -7.6875 L 8.46875 -7.125 Z M 9 -6.90625 "/></g></g></g><g fill="#ffffff" fill-opacity="1"><g transform="translate(178.049625, 55.17069)"><g><path d="M 5.359375 -0.859375 L 5.34375 -3.046875 L 5.390625 -3.609375 L 5.3125 -5.3125 L 5.34375 -5.890625 L 5.3125 -6.453125 L 5.421875 -7.296875 L 5.34375 -8.109375 L 5.34375 -9.21875 L 5.390625 -9.78125 L 5.34375 -10.3125 L 5.421875 -11.171875 L 5.34375 -14.25 L 5.0625 -14.78125 L 4.546875 -15.09375 L 2.0625 -15.109375 L 1.34375 -15.03125 L 0.78125 -15.3125 L 0.46875 -15.921875 L 0.5 -18.71875 L 0.78125 -19.28125 L 1.390625 -19.5625 L 9.71875 -19.5 L 10.359375 -19.578125 L 10.921875 -19.578125 L 11.484375 -19.53125 L 12.046875 -19.53125 L 12.65625 -19.609375 L 13.1875 -19.609375 L 13.640625 -19.5625 L 14.296875 -19.609375 L 14.859375 -19.328125 L 15.140625 -18.78125 L 15.09375 -16.484375 L 15.140625 -15.890625 L 14.859375 -15.34375 L 14.21875 -15.09375 L 12.6875 -15.109375 L 12.1875 -15.0625 L 11.625 -15.09375 L 11.140625 -15.0625 L 10.53125 -14.8125 L 10.3125 -14.296875 L 10.359375 -13.6875 L 10.28125 -13.125 L 10.390625 -7.578125 L 10.3125 -6.390625 L 10.359375 -5.890625 L 10.3125 -4.1875 L 10.21875 -3.609375 L 10.3125 -3.125 L 10.34375 -2.015625 L 10.28125 -1.375 L 10.3125 -0.84375 L 10.078125 -0.28125 L 9.53125 -0.0625 L 7.796875 -0.0625 L 7.265625 0 L 6.703125 -0.0625 L 6.171875 0 L 5.59375 -0.28125 Z M 5.359375 -0.859375 "/></g></g></g><g fill="#ffffff" fill-opacity="1"><g transform="translate(193.661869, 55.17069)"><g><path d="M 2.015625 -0.8125 L 2.125 -1.375 L 2.15625 -1.921875 L 2.09375 -3.015625 L 2.09375 -3.578125 L 2.046875 -4.21875 L 2.125 -4.71875 L 2.09375 -5.25 L 2.15625 -5.859375 L 2.0625 -6.453125 L 2.125 -7.578125 L 2.046875 -8.65625 L 2.125 -9.25 L 2.125 -14.25 L 2.0625 -14.75 L 2.125 -15.34375 L 2.015625 -16.765625 L 2.125 -17.578125 L 2.0625 -18.6875 L 2.34375 -19.3125 L 3.15625 -19.5 L 6.8125 -19.578125 L 7.3125 -19.53125 L 8.40625 -19.5625 L 8.96875 -19.5 L 10.203125 -19.5625 L 10.75 -19.46875 L 11.265625 -19.53125 L 13.5 -19.5 L 14.078125 -19.25 L 14.359375 -18.6875 L 14.28125 -18.15625 L 14.25 -17.546875 L 14.328125 -17.015625 L 14.390625 -15.875 L 14.078125 -15.359375 L 13.5 -15.0625 L 8.125 -15.03125 L 7.265625 -14.78125 L 6.984375 -13.96875 L 7.046875 -13.109375 L 7.375 -12.59375 L 7.84375 -12.296875 L 10.0625 -12.328125 L 10.703125 -12.265625 L 11.28125 -12.265625 L 11.84375 -12.328125 L 12.96875 -12.296875 L 13.4375 -11.984375 L 13.6875 -11.453125 L 13.75 -10.890625 L 13.6875 -8.6875 L 13.40625 -8.15625 L 12.84375 -7.84375 L 12.34375 -7.828125 L 11.765625 -7.875 L 11 -7.828125 L 9.53125 -7.90625 L 8.96875 -7.84375 L 7.875 -7.84375 L 7.375 -7.546875 L 7.125 -6.953125 L 7.09375 -5.59375 L 7.34375 -4.71875 L 7.9375 -4.390625 L 8.546875 -4.4375 L 9.15625 -4.390625 L 9.6875 -4.46875 L 13.375 -4.421875 L 14.21875 -4.140625 L 14.578125 -3.578125 L 14.53125 -3.046875 L 14.5625 -1.3125 L 14.5 -0.78125 L 14.25 -0.25 L 13.65625 0.03125 L 13.125 0.078125 L 11.421875 -0.03125 L 9.71875 0.0625 L 9.21875 -0.03125 L 2.90625 0.03125 L 2.375 -0.28125 Z M 2.015625 -0.8125 "/></g></g></g><path fill="#000000" d="M 42.207031 84.992188 C 32.433594 84.992188 24.4375 92.988281 24.4375 102.761719 C 24.4375 112.535156 32.433594 120.53125 42.207031 120.53125 C 51.980469 120.53125 59.976562 112.535156 59.976562 102.761719 C 59.976562 92.988281 51.980469 84.992188 42.207031 84.992188 Z M 48.070312 110.9375 L 36.699219 110.9375 L 36.699219 108.628906 C 41.496094 103.296875 44.160156 101.34375 44.160156 99.210938 C 44.160156 98.5 43.804688 96.898438 42.027344 96.898438 C 39.71875 96.898438 39.71875 99.210938 39.71875 99.742188 L 36.34375 99.742188 C 36.34375 98.144531 37.585938 94.410156 42.027344 94.410156 C 46.472656 94.410156 47.359375 97.078125 47.359375 99.03125 C 47.359375 101.699219 45.40625 103.828125 40.785156 108.449219 L 47.890625 108.449219 L 47.890625 110.9375 Z M 48.070312 110.9375 " fill-opacity="1" fill-rule="nonzero"/><g fill="#ffffff" fill-opacity="1"><g transform="translate(104.503378, 351.321586)"><g><path d="M 2.328125 -0.921875 L 2.296875 -10.5 L 2.359375 -11.234375 L 2.296875 -11.84375 L 2.328125 -12.453125 L 2.390625 -13.03125 L 2.328125 -13.765625 L 2.390625 -14.328125 L 2.359375 -15 L 2.296875 -15.546875 L 2.421875 -19.125 L 2.328125 -20.078125 L 2.421875 -21.390625 L 2.625 -21.96875 L 3.3125 -22.3125 L 4.21875 -22.28125 L 4.890625 -22.34375 L 6.515625 -22.34375 L 7.09375 -22.28125 L 8.328125 -22.28125 L 9.328125 -22.34375 L 9.953125 -22.3125 L 10.921875 -22.375 L 11.484375 -22.3125 L 12.734375 -22.375 L 13.4375 -22.28125 L 15.359375 -22.3125 L 15.890625 -21.96875 L 16.28125 -21 L 16.21875 -19.796875 L 16.28125 -18.15625 L 15.953125 -17.53125 L 15.328125 -17.203125 L 12.890625 -17.265625 L 12.21875 -17.203125 L 11.59375 -17.234375 L 11.015625 -17.203125 L 10.09375 -17.265625 L 9.0625 -17.265625 L 8.453125 -16.859375 L 8.140625 -16.21875 L 8.203125 -14.78125 L 8.140625 -14.171875 L 8.140625 -13.28125 L 8.484375 -12.609375 L 9.125 -12.359375 L 9.828125 -12.390625 L 11.078125 -12.21875 L 12.765625 -12.359375 L 14.328125 -12.296875 L 15 -12.03125 L 15.328125 -11.390625 L 15.359375 -8.5625 L 15.03125 -7.5625 L 14.359375 -7.25 L 13.0625 -7.1875 L 12.421875 -7.25 L 11.75 -7.21875 L 11.109375 -7.28125 L 10.46875 -7.15625 L 9.796875 -7.28125 L 9.09375 -7.21875 L 8.453125 -6.921875 L 8.171875 -6.28125 L 8.203125 -2.90625 L 8.140625 -2.296875 L 8.234375 -1.28125 L 7.859375 -0.3125 L 7.1875 -0.03125 L 5.59375 0.09375 L 3.359375 0 L 2.65625 -0.3125 Z M 2.328125 -0.921875 "/></g></g></g><g fill="#ffffff" fill-opacity="1"><g transform="translate(121.89718, 351.321586)"><g><path d="M 2.453125 -1.015625 L 2.359375 -3.515625 L 2.421875 -4.1875 L 2.296875 -6.03125 L 2.390625 -7.34375 L 2.296875 -8.046875 L 2.328125 -9.25 L 2.390625 -9.921875 L 2.390625 -11.53125 L 2.296875 -12.453125 L 2.390625 -21.390625 L 2.65625 -22.0625 L 3.25 -22.34375 L 3.953125 -22.3125 L 4.5625 -22.40625 L 5.875 -22.28125 L 6.484375 -22.375 L 8.390625 -22.3125 L 8.9375 -22.375 L 9.640625 -22.3125 L 10.28125 -22.375 L 10.984375 -22.34375 L 11.90625 -22.375 L 12.703125 -22.3125 L 15.359375 -21.765625 L 16.46875 -21.203125 L 18.0625 -19.984375 L 18.359375 -19.5 L 18.796875 -19.03125 L 19.65625 -17.265625 L 19.828125 -16.625 L 19.921875 -16.03125 L 20.078125 -15.421875 L 20.046875 -12.890625 L 19.703125 -11.6875 L 19.46875 -11.140625 L 19.125 -10.5625 L 18.890625 -9.953125 L 18.515625 -9.421875 L 17.625 -8.5625 L 17.265625 -7.890625 L 17.359375 -7.125 L 18.328125 -5.453125 L 18.734375 -4.953125 L 19.0625 -4.375 L 19.4375 -3.796875 L 19.734375 -3.25 L 20.75 -1.6875 L 21.171875 -0.890625 L 21.03125 -0.21875 L 20.359375 -0.0625 L 19.65625 0 L 18.390625 0 L 17.75 -0.0625 L 17.046875 0 L 15.890625 -0.0625 L 15.09375 -0.25 L 14.453125 -0.828125 L 14.078125 -1.34375 L 13.796875 -1.890625 L 13.375 -2.484375 L 12.484375 -4.09375 L 12.265625 -4.6875 L 11.421875 -5.8125 L 10.921875 -6.359375 L 10.125 -6.609375 L 9.546875 -6.578125 L 8.96875 -6.578125 L 8.328125 -6.25 L 8.046875 -5.625 L 8.109375 -3.640625 L 8.015625 -2.265625 L 8.140625 -1.59375 L 8.078125 -0.921875 L 7.859375 -0.3125 L 6.859375 0 L 5.90625 0 L 5.234375 -0.0625 L 3.921875 0.03125 L 3.3125 0 L 2.6875 -0.3125 Z M 8.96875 -11.75 L 9.671875 -11.75 L 10.3125 -11.65625 L 12.796875 -11.875 L 13.28125 -12.09375 L 13.65625 -12.484375 L 14.015625 -13.03125 L 14.265625 -13.65625 L 14.359375 -14.53125 L 14.296875 -15.453125 L 14.078125 -15.953125 L 13.765625 -16.4375 L 12.765625 -17.046875 L 11.296875 -17.234375 L 9.546875 -17.265625 L 9.03125 -17.234375 L 8.390625 -16.921875 L 8.015625 -16.28125 L 8.109375 -12.703125 L 8.421875 -12.03125 Z M 8.96875 -11.75 "/></g></g></g><g fill="#ffffff" fill-opacity="1"><g transform="translate(144.014432, 351.321586)"><g><path d="M 9.421875 0.25 L 8.8125 0.09375 L 8.109375 0.0625 L 7.625 -0.1875 L 6.890625 -0.421875 L 6.28125 -0.671875 L 5.8125 -1.046875 L 4.71875 -1.6875 L 4.3125 -2.109375 L 3.453125 -3.15625 L 2.8125 -4.25 L 2.625 -4.859375 L 2.515625 -5.453125 L 2.328125 -6.09375 L 2.328125 -6.765625 L 2.234375 -7.6875 L 2.265625 -9.984375 L 2.171875 -11.265625 L 2.234375 -11.875 L 2.203125 -12.515625 L 2.265625 -13.125 L 2.171875 -13.828125 L 2.296875 -14.421875 L 2.140625 -16.34375 L 2.234375 -17.5625 L 2.109375 -18.890625 L 2.265625 -19.4375 L 2.265625 -21.359375 L 2.546875 -22 L 3.1875 -22.34375 L 6.546875 -22.3125 L 7.3125 -22.03125 L 7.65625 -21.421875 L 7.65625 -20.75 L 7.5 -19.796875 L 7.5 -19.1875 L 7.59375 -18.265625 L 7.59375 -15.703125 L 7.53125 -15.125 L 7.5625 -13.15625 L 7.65625 -12.515625 L 7.71875 -6.890625 L 7.921875 -6.21875 L 8.296875 -5.78125 L 8.78125 -5.359375 L 9.484375 -5.015625 L 10.0625 -4.859375 L 11.109375 -4.78125 L 11.96875 -4.859375 L 13.25 -5.265625 L 13.765625 -5.75 L 14.046875 -6.1875 L 14.328125 -6.796875 L 14.453125 -7.828125 L 14.421875 -9.453125 L 14.5 -10.09375 L 14.453125 -11.234375 L 14.53125 -11.9375 L 14.390625 -12.515625 L 14.5 -15.03125 L 14.390625 -15.703125 L 14.453125 -16.375 L 14.421875 -17.625 L 14.5 -18.265625 L 14.453125 -21.390625 L 14.78125 -22.09375 L 15.484375 -22.375 L 18.484375 -22.34375 L 19.5 -22.0625 L 19.765625 -21.359375 L 19.859375 -20.8125 L 19.828125 -18.234375 L 19.921875 -17.59375 L 19.828125 -16.984375 L 19.859375 -16.28125 L 19.796875 -15.296875 L 19.828125 -14.390625 L 19.765625 -13.71875 L 19.796875 -13.125 L 19.921875 -12.484375 L 19.921875 -11.90625 L 19.796875 -11.234375 L 19.890625 -8.65625 L 19.65625 -5.421875 L 19.4375 -4.8125 L 19.125 -4.28125 L 18.921875 -3.640625 L 18.515625 -3.15625 L 18.15625 -2.578125 L 16.734375 -1.3125 L 16.21875 -0.953125 L 15.640625 -0.703125 L 15.125 -0.390625 L 14.5 -0.21875 L 13.828125 0.03125 L 12.546875 0.3125 L 10.953125 0.390625 Z M 9.421875 0.25 "/></g></g></g><g fill="#ffffff" fill-opacity="1"><g transform="translate(166.035945, 351.321586)"><g><path d="M 6.125 -0.984375 L 6.09375 -3.484375 L 6.15625 -4.125 L 6.0625 -6.0625 L 6.09375 -6.734375 L 6.0625 -7.375 L 6.1875 -8.328125 L 6.09375 -9.25 L 6.09375 -10.53125 L 6.15625 -11.171875 L 6.09375 -11.78125 L 6.1875 -12.765625 L 6.09375 -16.28125 L 5.78125 -16.890625 L 5.203125 -17.234375 L 2.359375 -17.265625 L 1.53125 -17.171875 L 0.890625 -17.5 L 0.546875 -18.203125 L 0.578125 -21.390625 L 0.890625 -22.03125 L 1.59375 -22.34375 L 11.109375 -22.28125 L 11.84375 -22.375 L 12.484375 -22.375 L 13.125 -22.3125 L 13.765625 -22.3125 L 14.453125 -22.40625 L 15.0625 -22.40625 L 15.578125 -22.34375 L 16.34375 -22.40625 L 16.984375 -22.09375 L 17.296875 -21.453125 L 17.234375 -18.828125 L 17.296875 -18.15625 L 16.984375 -17.53125 L 16.25 -17.234375 L 14.5 -17.265625 L 13.921875 -17.203125 L 13.28125 -17.234375 L 12.734375 -17.203125 L 12.03125 -16.921875 L 11.78125 -16.34375 L 11.84375 -15.640625 L 11.75 -15 L 11.875 -8.65625 L 11.78125 -7.3125 L 11.84375 -6.734375 L 11.78125 -4.78125 L 11.6875 -4.125 L 11.78125 -3.578125 L 11.8125 -2.296875 L 11.75 -1.5625 L 11.78125 -0.953125 L 11.53125 -0.3125 L 10.890625 -0.0625 L 8.90625 -0.0625 L 8.296875 0 L 7.65625 -0.0625 L 7.0625 0 L 6.390625 -0.3125 Z M 6.125 -0.984375 "/></g></g></g><g fill="#ffffff" fill-opacity="1"><g transform="translate(182.089142, 351.321586)"><g><path d="M 0.421875 -0.859375 L 0.796875 -2.203125 L 1.078125 -2.84375 L 1.46875 -3.359375 L 2.390625 -5.6875 L 3.28125 -7.34375 L 3.515625 -7.984375 L 3.796875 -8.484375 L 3.984375 -9.15625 L 4.4375 -9.984375 L 4.65625 -10.59375 L 5.140625 -11.421875 L 5.65625 -12.578125 L 6 -13.15625 L 6.15625 -13.6875 L 7.953125 -17.71875 L 8.296875 -18.296875 L 9.671875 -21.171875 L 9.859375 -21.734375 L 10.46875 -22.3125 L 11.484375 -22.625 L 12.578125 -22.34375 L 13.15625 -21.734375 L 13.34375 -21.125 L 13.625 -20.65625 L 14.140625 -19.4375 L 14.78125 -18.265625 L 15.265625 -17.140625 L 15.421875 -16.625 L 16 -15.421875 L 16.1875 -14.8125 L 16.828125 -13.6875 L 16.984375 -13.09375 L 17.296875 -12.546875 L 17.5625 -12 L 17.90625 -11.421875 L 18.09375 -10.796875 L 18.390625 -10.3125 L 18.609375 -9.671875 L 18.890625 -9.125 L 19.15625 -8.484375 L 19.5 -7.984375 L 19.953125 -6.796875 L 20.265625 -6.25 L 20.5 -5.65625 L 21.03125 -4.5 L 21.234375 -3.890625 L 21.546875 -3.421875 L 21.734375 -2.78125 L 22.15625 -2.234375 L 22.375 -1.65625 L 22.5625 -0.859375 L 22.4375 -0.1875 L 21.859375 0 L 19.890625 0.0625 L 18.765625 -0.03125 L 18.203125 0.03125 L 17.359375 -0.28125 L 16.828125 -0.796875 L 16.46875 -1.375 L 16.3125 -1.953125 L 15.640625 -2.453125 L 14.59375 -2.8125 L 13.09375 -2.75 L 12.421875 -2.8125 L 11.84375 -2.8125 L 11.109375 -2.71875 L 10.4375 -2.8125 L 8.65625 -2.78125 L 8.015625 -2.84375 L 7.25 -2.515625 L 6.703125 -1.921875 L 6.15625 -0.828125 L 5.59375 -0.25 L 4.859375 0.0625 L 4.015625 -0.03125 L 1.21875 -0.03125 L 0.578125 -0.1875 Z M 10.28125 -7.890625 L 12.765625 -7.921875 L 13.3125 -8.171875 L 13.375 -8.75 L 13.15625 -9.328125 L 12.828125 -9.953125 L 12.703125 -10.46875 L 12.359375 -11.015625 L 11.9375 -12.265625 L 11.5625 -12.515625 L 11.140625 -12.1875 L 10.859375 -11.6875 L 9.578125 -8.78125 L 9.671875 -8.140625 Z M 10.28125 -7.890625 "/></g></g></g><path fill="#f51616" d="M 243.78125 199.050781 C 243.539062 201.574219 243.160156 204.109375 242.675781 206.648438 C 241.84375 210.988281 240.722656 215.128906 239.324219 219.101562 C 237.925781 223.089844 236.234375 226.90625 234.316406 230.5 C 223.609375 250.5 204.9375 263.710938 183.816406 269.097656 C 183.207031 269.269531 182.585938 269.425781 181.964844 269.546875 C 174.589844 271.277344 166.921875 272.035156 159.21875 271.8125 C 158.25 271.792969 157.300781 271.742188 156.332031 271.6875 C 117.371094 269.304688 77.164062 245.285156 69.910156 204.648438 C 69.804688 204.097656 69.71875 203.542969 69.628906 202.988281 C 69.234375 200.382812 68.941406 197.84375 68.800781 195.339844 C 66.554688 162.199219 84.796875 138.902344 110.546875 126.242188 C 113.640625 124.707031 116.851562 123.339844 120.152344 122.132812 C 134.988281 116.65625 151.570312 114.34375 167.855469 115.292969 C 173.210938 115.625 178.546875 116.292969 183.761719 117.332031 C 186.9375 117.953125 190.085938 118.710938 193.171875 119.609375 C 211.949219 125.070312 226.128906 137.382812 234.695312 153.03125 C 242.15625 166.617188 245.402344 182.730469 243.78125 199.050781 " fill-opacity="1" fill-rule="nonzero"/><path fill="#ff3d3d" d="M 111.316406 198.667969 C 100.875 198.667969 86.675781 194.226562 84.761719 183.253906 C 82.273438 169.03125 94.355469 158.578125 106.882812 158.578125 C 109.394531 158.578125 111.921875 159 114.355469 159.890625 C 116.535156 160.6875 118.636719 161.871094 120.582031 163.464844 C 123.789062 166.101562 125.957031 170.355469 126.941406 175.007812 C 124.816406 180.050781 123.304688 185.382812 123.308594 190.417969 C 123.308594 191.53125 123.382812 192.625 123.539062 193.695312 C 121.417969 196.335938 118.417969 198.144531 114.46875 198.523438 C 113.472656 198.621094 112.414062 198.667969 111.316406 198.667969 M 106.15625 167.214844 C 103.640625 167.214844 101.144531 167.933594 99.121094 169.441406 L 98.71875 169.753906 C 93.839844 173.722656 92.96875 181.738281 96.882812 186.664062 C 99.164062 189.53125 102.851562 191.054688 106.503906 191.054688 C 109.109375 191.054688 111.703125 190.28125 113.769531 188.675781 C 118.730469 184.8125 119.769531 176.8125 115.960938 171.808594 C 113.679688 168.820312 109.902344 167.214844 106.15625 167.214844 " fill-opacity="1" fill-rule="nonzero"/><path fill="#ff3d3d" d="M 168.601562 200.539062 C 155.878906 200.539062 141.4375 196.292969 140.359375 182.96875 C 139.375 170.828125 148.785156 165.402344 158.546875 163.582031 C 168.394531 161.75 175.519531 154 185.285156 154 C 186.933594 154 188.65625 154.21875 190.480469 154.726562 C 219.308594 162.738281 200.949219 194.304688 180.503906 199.230469 C 177.152344 200.039062 172.976562 200.539062 168.601562 200.539062 M 174.65625 166.511719 C 160.011719 166.511719 141.722656 176.566406 154.695312 187.628906 C 156.910156 189.519531 159.503906 190.140625 162.246094 190.140625 C 167.207031 190.140625 172.660156 188.109375 177.296875 187.890625 C 181.054688 187.710938 185.128906 187.21875 187.824219 184.589844 C 191.6875 180.8125 190.742188 173.792969 186.75 170.15625 C 183.964844 167.617188 179.507812 166.511719 174.65625 166.511719 " fill-opacity="1" fill-rule="nonzero"/><path fill="#ff5e5e" d="M 162.246094 190.140625 C 159.503906 190.140625 156.910156 189.519531 154.695312 187.628906 C 141.722656 176.566406 160.011719 166.511719 174.65625 166.511719 C 179.507812 166.511719 183.964844 167.617188 186.75 170.15625 C 190.742188 173.792969 191.6875 180.8125 187.824219 184.589844 C 185.128906 187.21875 181.054688 187.710938 177.296875 187.890625 C 172.660156 188.109375 167.207031 190.140625 162.246094 190.140625 M 173.414062 174.761719 C 166.5625 174.761719 158.488281 178.527344 164.410156 183.804688 C 165.71875 184.96875 168.105469 185.542969 170.675781 185.542969 C 175.148438 185.542969 180.175781 183.796875 181.003906 180.382812 C 181.605469 177.894531 180.253906 176.316406 178.042969 175.484375 C 176.726562 174.988281 175.105469 174.761719 173.414062 174.761719 " fill-opacity="1" fill-rule="nonzero"/><path fill="#ff5e5e" d="M 106.503906 191.054688 C 102.851562 191.054688 99.164062 189.53125 96.882812 186.664062 C 92.96875 181.738281 93.839844 173.722656 98.71875 169.753906 L 99.121094 169.441406 C 101.144531 167.933594 103.640625 167.214844 106.15625 167.214844 C 109.902344 167.214844 113.679688 168.820312 115.960938 171.808594 C 119.769531 176.8125 118.730469 184.8125 113.769531 188.675781 C 111.703125 190.28125 109.109375 191.054688 106.503906 191.054688 M 103.152344 175.324219 C 101.6875 175.324219 100.160156 176.390625 99.71875 177.851562 C 99.125 179.820312 100.183594 182.015625 101.847656 183.21875 C 103.449219 184.367188 105.484375 184.738281 107.460938 184.738281 C 107.542969 184.738281 107.628906 184.738281 107.707031 184.738281 C 110.011719 184.703125 112.65625 183.957031 113.539062 181.832031 C 114.390625 179.773438 113.078125 177.332031 111.179688 176.164062 C 109.285156 174.992188 106.96875 174.785156 104.75 174.605469 L 104.609375 175.738281 C 104.160156 175.457031 103.660156 175.324219 103.152344 175.324219 " fill-opacity="1" fill-rule="nonzero"/><path fill="#da0809" d="M 146.335938 158.089844 C 146.175781 158.089844 146.007812 158.089844 145.847656 158.085938 C 146.878906 156.058594 148.136719 154.148438 150.046875 152.496094 C 153.773438 149.277344 158.011719 148.316406 162.417969 148.316406 C 163.882812 148.316406 165.367188 148.421875 166.855469 148.585938 C 163.703125 152.554688 159.875 155.902344 154.734375 157.183594 C 151.988281 157.867188 149.167969 158.089844 146.335938 158.089844 M 136.617188 157.617188 C 129.054688 157.324219 120.421875 157.863281 117.746094 149.59375 C 119.261719 148.960938 120.777344 148.332031 122.296875 147.683594 C 125.8125 146.179688 129.023438 143.65625 132.910156 143.65625 C 133.210938 143.65625 133.515625 143.667969 133.820312 143.703125 C 134.507812 143.851562 135.179688 144.011719 135.84375 144.179688 C 136.917969 144.726562 137.929688 145.4375 138.851562 146.335938 C 139.527344 147.140625 140.066406 148.082031 140.480469 149.105469 C 140.523438 149.355469 140.542969 149.613281 140.542969 149.871094 C 140.542969 150.582031 140.394531 151.320312 140.132812 152.078125 C 139.894531 152.769531 138.503906 154.757812 136.617188 157.617188 M 135.777344 144.144531 C 135.347656 143.988281 134.894531 143.863281 134.414062 143.78125 C 134.210938 143.75 134.019531 143.722656 133.820312 143.703125 C 131.914062 143.285156 129.921875 142.949219 127.90625 142.6875 C 128.273438 142.667969 128.636719 142.660156 129 142.660156 C 129.9375 142.660156 130.863281 142.726562 131.773438 142.875 C 133.167969 143.101562 134.519531 143.511719 135.777344 144.144531 M 119.507812 137.972656 C 120.738281 136.160156 122.351562 134.542969 124.171875 133.167969 C 126.253906 134.628906 128.5625 136.25 130.871094 137.875 C 129.078125 137.617188 127.296875 137.5 125.570312 137.5 C 123.441406 137.5 121.394531 137.675781 119.507812 137.972656 M 172.339844 137.53125 C 170.058594 137.3125 167.757812 137.175781 165.523438 137.105469 C 164.289062 137.066406 163.074219 137.046875 161.898438 137.046875 C 161.894531 137.046875 161.894531 137.046875 161.894531 137.046875 C 161.894531 137.046875 161.890625 137.046875 161.890625 137.046875 C 161.371094 137.046875 160.859375 137.054688 160.359375 137.058594 C 161.851562 133.347656 163.882812 129.796875 166.527344 126.859375 C 167.371094 127.449219 168.160156 128.121094 168.871094 128.878906 C 171.046875 131.183594 172.34375 134.398438 172.339844 137.53125 M 144.582031 134.914062 C 142.839844 133.15625 140.875 131.363281 138.785156 129.609375 C 137.894531 128.855469 136.976562 128.105469 136.042969 127.371094 C 138.496094 126.4375 140.972656 125.578125 143.484375 124.894531 C 144.171875 127.164062 144.59375 129.476562 144.609375 131.769531 C 144.609375 131.867188 144.609375 131.964844 144.609375 132.0625 C 144.609375 133.011719 144.585938 133.964844 144.582031 134.914062 M 155.96875 123.648438 C 155.941406 123.574219 155.914062 123.496094 155.890625 123.421875 C 155.949219 123.425781 156.011719 123.429688 156.070312 123.433594 C 156.035156 123.503906 156.003906 123.578125 155.96875 123.648438 " fill-opacity="1" fill-rule="nonzero"/><path fill="#c11111" d="M 130.152344 199.484375 C 130.496094 197.378906 129.339844 194.148438 129.164062 191.953125 C 128.957031 189.210938 128.90625 186.445312 129.03125 183.683594 C 129.050781 183.125 129.070312 182.574219 129.101562 182.035156 C 132.222656 175.914062 136.484375 170.140625 140.011719 165.429688 C 141.808594 163.042969 143.339844 160.484375 144.972656 158.074219 C 145.265625 158.078125 145.554688 158.085938 145.847656 158.085938 C 144.578125 160.578125 143.652344 163.25 142.257812 165.839844 C 136.558594 176.480469 132.136719 187.535156 130.152344 199.484375 M 83.96875 167.222656 C 85.726562 164.601562 87.167969 161.984375 88.75 159.460938 C 90.34375 159.019531 98.363281 156.585938 111.6875 148.953125 C 113 148.210938 114.382812 147.414062 115.796875 146.550781 C 116.210938 146.304688 116.640625 146.058594 117.082031 145.824219 C 117.113281 146.957031 117.300781 148.128906 117.664062 149.332031 C 117.6875 149.421875 117.714844 149.503906 117.746094 149.59375 C 111.652344 152.128906 105.621094 154.671875 100.101562 158.363281 C 89.734375 165.300781 83.96875 167.222656 83.96875 167.222656 M 207.511719 161.699219 C 203.070312 159.054688 198.199219 155.082031 193.316406 153.511719 C 186.160156 151.234375 178.199219 150.28125 170.808594 149.125 C 169.492188 148.921875 168.171875 148.730469 166.855469 148.585938 C 167.472656 147.8125 168.0625 147.011719 168.632812 146.199219 C 169.269531 146.175781 169.910156 146.164062 170.546875 146.164062 C 174.113281 146.164062 177.675781 146.515625 181.066406 147.125 C 188.339844 148.425781 195.3125 150.988281 201.980469 154.222656 C 203.953125 156.804688 205.222656 160.335938 207.511719 161.699219 M 124.171875 133.167969 C 119.707031 130.023438 116.316406 127.644531 116.316406 127.644531 C 116.316406 127.644531 114.207031 126.949219 110.546875 126.242188 C 113.0625 124.992188 115.65625 123.855469 118.3125 122.824219 C 120.6875 123.78125 121.929688 124.726562 121.929688 124.726562 C 121.929688 124.726562 125.023438 127.179688 128.933594 130.285156 C 127.273438 131.074219 125.65625 132.042969 124.171875 133.167969 M 166.527344 126.859375 C 165.652344 126.253906 164.722656 125.734375 163.75 125.296875 C 166.113281 121.125 169.175781 118.015625 172.546875 115.671875 C 176.324219 116.046875 180.070312 116.597656 183.761719 117.332031 C 179.53125 118.851562 175.261719 120.234375 171.359375 122.71875 C 169.5625 123.871094 167.953125 125.273438 166.527344 126.859375 " fill-opacity="1" fill-rule="nonzero"/><path fill="#ac0607" d="M 145.847656 158.085938 C 145.554688 158.085938 145.265625 158.078125 144.972656 158.074219 C 146.4375 155.910156 147.980469 153.863281 149.859375 152.164062 C 150.171875 151.871094 150.5 151.585938 150.835938 151.316406 C 151.058594 151.144531 151.285156 150.976562 151.515625 150.820312 C 152.605469 150.007812 153.8125 149.347656 155.160156 148.8125 C 157.285156 147.984375 159.527344 147.363281 161.8125 146.933594 C 164.050781 146.515625 166.335938 146.28125 168.632812 146.199219 C 168.0625 147.011719 167.472656 147.8125 166.855469 148.585938 C 165.367188 148.421875 163.882812 148.316406 162.417969 148.316406 C 158.011719 148.316406 153.773438 149.277344 150.046875 152.496094 C 148.136719 154.148438 146.878906 156.058594 145.847656 158.085938 M 117.746094 149.59375 C 117.714844 149.503906 117.6875 149.421875 117.664062 149.332031 C 117.300781 148.128906 117.113281 146.957031 117.082031 145.824219 C 120.21875 144.164062 124.089844 142.898438 127.90625 142.6875 C 129.921875 142.949219 131.914062 143.285156 133.820312 143.703125 C 133.515625 143.667969 133.210938 143.65625 132.910156 143.65625 C 129.023438 143.65625 125.8125 146.179688 122.296875 147.683594 C 120.777344 148.332031 119.261719 148.960938 117.746094 149.59375 M 140.480469 149.105469 C 140.066406 148.082031 139.527344 147.140625 138.851562 146.335938 C 139.027344 146.511719 139.203125 146.695312 139.375 146.878906 C 140 147.566406 140.347656 148.316406 140.480469 149.105469 M 135.84375 144.179688 C 135.179688 144.011719 134.507812 143.851562 133.820312 143.703125 C 134.019531 143.722656 134.210938 143.75 134.414062 143.78125 C 134.894531 143.863281 135.347656 143.988281 135.777344 144.144531 C 135.800781 144.15625 135.820312 144.167969 135.84375 144.179688 M 144.570312 142.664062 C 141.808594 140.59375 137.285156 139.039062 132.359375 138.125 C 131.867188 138.03125 131.371094 137.949219 130.871094 137.875 C 128.5625 136.25 126.253906 134.628906 124.171875 133.167969 C 125.65625 132.042969 127.273438 131.074219 128.933594 130.285156 C 130.609375 131.613281 132.429688 133.058594 134.226562 134.480469 C 135.976562 135.859375 137.699219 137.222656 139.230469 138.429688 C 139.726562 138.824219 140.203125 139.203125 140.652344 139.558594 C 140.820312 139.691406 140.984375 139.820312 141.148438 139.949219 C 142.824219 141.277344 144.082031 142.269531 144.570312 142.664062 M 159.433594 137.074219 C 159.339844 136.578125 159.238281 136.078125 159.132812 135.585938 C 159.050781 135.164062 158.957031 134.746094 158.867188 134.335938 C 159.640625 132.652344 160.554688 131.011719 161.480469 129.367188 C 162.121094 128.246094 162.777344 127.105469 163.378906 125.96875 C 163.5 125.742188 163.625 125.515625 163.75 125.296875 C 164.722656 125.734375 165.652344 126.253906 166.527344 126.859375 C 163.882812 129.796875 161.851562 133.347656 160.359375 137.058594 C 160.042969 137.0625 159.738281 137.066406 159.433594 137.074219 " fill-opacity="1" fill-rule="nonzero"/><path fill="#18a148" d="M 211.191406 159.144531 C 209.339844 158.070312 207.457031 157.015625 205.558594 156.035156 C 197.820312 151.957031 189.652344 148.660156 181.066406 147.125 C 174.882812 146.015625 168.148438 145.757812 161.8125 146.933594 C 159.527344 147.363281 157.285156 147.984375 155.160156 148.8125 C 153.8125 149.347656 152.605469 150.007812 151.515625 150.820312 C 150.925781 151.214844 150.375 151.679688 149.859375 152.164062 C 145.886719 155.757812 143.414062 160.902344 140.011719 165.429688 C 133.433594 174.21875 124.292969 186.703125 124.78125 198.222656 C 124.554688 197.671875 124.347656 197.117188 124.171875 196.550781 C 118.921875 179.378906 139.167969 154.910156 140.132812 152.078125 C 140.792969 150.164062 140.738281 148.382812 139.375 146.878906 C 137.265625 144.566406 134.625 143.339844 131.773438 142.875 C 126.300781 141.992188 120.117188 143.945312 115.796875 146.550781 C 114.382812 147.414062 113 148.210938 111.6875 148.953125 C 96.730469 157.515625 88.457031 159.539062 88.457031 159.539062 C 88.183594 159.730469 87.871094 159.402344 88.042969 159.125 C 93.398438 150.710938 103.554688 143.0625 113.726562 139.402344 C 118.234375 137.796875 125.28125 136.777344 132.359375 138.125 C 137.285156 139.039062 141.808594 140.59375 144.570312 142.664062 C 144.035156 142.234375 142.585938 141.078125 140.652344 139.558594 C 138.820312 138.105469 136.558594 136.3125 134.226562 134.480469 C 128.234375 129.730469 121.929688 124.726562 121.929688 124.726562 C 121.929688 124.726562 120.132812 123.359375 116.730469 122.253906 C 111.929688 120.664062 103.929688 119.578125 93.3125 123.582031 C 92.082031 124.03125 90.839844 124.550781 89.546875 125.15625 C 88.300781 125.726562 104.65625 115.226562 113.292969 115.226562 C 118.648438 115.226562 129.839844 122.046875 138.785156 129.609375 C 144.261719 134.207031 148.890625 139.089844 150.859375 142.855469 C 149.910156 141.023438 152.707031 133.359375 153.257812 131.300781 C 153.988281 128.625 154.851562 125.933594 156.074219 123.429688 C 156.679688 122.164062 157.371094 120.941406 158.199219 119.800781 C 162.722656 113.53125 169.722656 111.617188 176.886719 110.144531 C 179.890625 109.542969 183.625 109.265625 187.214844 108.992188 C 189.390625 108.835938 191.515625 108.679688 193.382812 108.457031 C 184.019531 109.835938 170.359375 112.910156 163.378906 125.96875 C 162.777344 127.105469 162.121094 128.246094 161.480469 129.367188 C 160.046875 131.90625 158.648438 134.445312 157.75 137.125 C 160.132812 137.035156 162.777344 137.019531 165.523438 137.105469 C 172.570312 137.328125 180.273438 138.191406 186.09375 140.246094 C 191.515625 142.164062 197.007812 144.996094 201.707031 148.296875 C 205.578125 150.988281 207.496094 157 211.191406 159.144531 " fill-opacity="1" fill-rule="nonzero"/><path fill="#880506" d="M 149.859375 152.164062 C 150.171875 151.871094 150.496094 151.585938 150.835938 151.316406 C 150.5 151.585938 150.171875 151.871094 149.859375 152.164062 " fill-opacity="1" fill-rule="nonzero"/><path fill="#880506" d="M 144.570312 142.664062 C 144.082031 142.269531 142.824219 141.277344 141.148438 139.949219 C 142.832031 141.277344 144.082031 142.269531 144.570312 142.664062 M 139.230469 138.429688 C 137.699219 137.222656 135.976562 135.859375 134.226562 134.480469 C 135.984375 135.859375 137.703125 137.222656 139.230469 138.429688 " fill-opacity="1" fill-rule="nonzero"/><path fill="#ad0707" d="M 160.359375 137.058594 C 160.859375 137.054688 161.371094 137.046875 161.890625 137.046875 C 161.371094 137.046875 160.859375 137.054688 160.359375 137.058594 " fill-opacity="1" fill-rule="nonzero"/><path fill="#880506" d="M 159.433594 137.074219 C 159.738281 137.066406 160.042969 137.0625 160.359375 137.058594 C 160.046875 137.0625 159.738281 137.066406 159.433594 137.074219 " fill-opacity="1" fill-rule="nonzero"/><path fill="#138c3b" d="M 144.429688 152.507812 C 143.183594 152.507812 141.941406 152.425781 140.71875 152.195312 C 141.019531 151.035156 141.117188 149.851562 140.894531 148.660156 C 140.132812 144.707031 136.003906 142.21875 132.03125 141.597656 C 131.933594 141.578125 131.832031 141.5625 131.730469 141.550781 C 131.761719 140.386719 131.984375 139.242188 132.359375 138.125 C 137.285156 139.039062 141.808594 140.59375 144.570312 142.664062 C 144.082031 142.269531 142.832031 141.277344 141.148438 139.949219 C 140.988281 139.820312 140.828125 139.691406 140.660156 139.5625 C 141.417969 139.90625 145.171875 143.273438 145.570312 143.394531 C 144.6875 142.507812 140.351562 138.382812 134.78125 133.707031 C 135.898438 132.226562 137.269531 130.847656 138.785156 129.609375 C 140.875 131.363281 142.839844 133.15625 144.582031 134.914062 C 144.578125 135.117188 144.578125 135.316406 144.578125 135.515625 C 144.578125 138.144531 144.726562 140.757812 145.710938 143.167969 C 146.300781 144.582031 147.128906 145.691406 148.113281 146.515625 C 148.875 147.15625 149.71875 147.640625 150.617188 147.914062 C 150.925781 148.035156 151.257812 148.125 151.582031 148.175781 C 151.933594 148.230469 152.289062 148.257812 152.648438 148.257812 C 153.890625 148.257812 155.171875 147.925781 156.40625 147.171875 C 157.855469 146.292969 158.75 145.1875 159.253906 143.945312 C 160.082031 141.902344 159.871094 139.46875 159.433594 137.074219 C 159.738281 137.066406 160.046875 137.0625 160.359375 137.058594 C 160.859375 137.054688 161.371094 137.046875 161.890625 137.046875 C 161.890625 137.046875 161.894531 137.046875 161.894531 137.046875 C 161.894531 137.046875 161.894531 137.046875 161.898438 137.046875 C 163.074219 137.046875 164.289062 137.066406 165.523438 137.105469 C 165.332031 137.933594 165.125 138.78125 164.898438 139.578125 C 164.285156 141.820312 163.613281 144.140625 162.386719 146.097656 C 159.492188 146.675781 153.742188 148.050781 151.550781 150.773438 C 151.308594 150.949219 151.070312 151.132812 150.835938 151.316406 C 150.496094 151.585938 150.171875 151.871094 149.859375 152.164062 C 149.425781 152.199219 148.996094 152.25 148.582031 152.285156 C 147.203125 152.40625 145.8125 152.507812 144.429688 152.507812 M 158.84375 134.21875 C 158.792969 134 158.746094 133.78125 158.703125 133.5625 C 158.203125 131.171875 157.589844 128.765625 156.859375 126.375 C 158.046875 127.617188 159.324219 128.777344 160.613281 129.867188 C 160.6875 129.933594 160.777344 129.964844 160.867188 130 C 160.113281 131.375 159.4375 132.789062 158.84375 134.21875 " fill-opacity="1" fill-rule="nonzero"/><path fill="#18a148" d="M 159.253906 143.945312 C 158.75 145.1875 157.855469 146.292969 156.40625 147.171875 C 154.8125 148.140625 153.140625 148.417969 151.582031 148.175781 C 151.257812 148.125 150.925781 148.035156 150.617188 147.914062 C 149.71875 147.640625 148.875 147.15625 148.113281 146.515625 C 147.128906 145.691406 146.300781 144.582031 145.710938 143.167969 C 144.261719 139.609375 144.625 135.621094 144.609375 131.769531 C 144.570312 125.636719 141.617188 119.355469 138.40625 114.1875 C 135.039062 108.78125 127.957031 105.847656 124.003906 101.117188 C 123.777344 100.855469 123.554688 100.597656 123.363281 100.320312 C 123.449219 100.132812 123.535156 99.976562 123.621094 99.785156 C 125.851562 96.523438 128.839844 94.050781 132.238281 92.136719 C 136.230469 93.914062 141.222656 99.542969 143.914062 102.53125 C 151.601562 111.042969 156.386719 122.441406 158.703125 133.5625 C 158.839844 134.21875 158.996094 134.894531 159.132812 135.585938 C 159.738281 138.433594 160.257812 141.476562 159.253906 143.945312 " fill-opacity="1" fill-rule="nonzero"/><path fill="#e32030" d="M 237.90625 222.851562 C 238.40625 221.621094 238.878906 220.371094 239.324219 219.101562 C 240.722656 215.128906 241.84375 210.988281 242.675781 206.648438 C 243.160156 204.109375 243.539062 201.574219 243.78125 199.050781 C 244.054688 196.292969 244.191406 193.542969 244.191406 190.808594 C 244.191406 193.542969 244.054688 196.292969 243.78125 199.050781 C 243.539062 201.574219 243.160156 204.109375 242.675781 206.648438 C 241.84375 210.988281 240.722656 215.128906 239.324219 219.101562 C 238.882812 220.367188 238.410156 221.621094 237.90625 222.851562 " fill-opacity="1" fill-rule="nonzero"/><path fill="#da0304" d="M 158.5 258.964844 C 153.367188 258.964844 148.226562 258.578125 143.136719 257.785156 C 114.417969 253.3125 88.214844 236.078125 71.703125 212.265625 C 70.976562 209.792969 70.375 207.257812 69.910156 204.648438 C 69.804688 204.097656 69.71875 203.542969 69.628906 202.988281 C 69.234375 200.382812 68.941406 197.84375 68.800781 195.339844 C 68.957031 198.050781 80.203125 205.769531 82.738281 208.136719 C 88.613281 213.644531 94.363281 218.894531 101.222656 223.230469 C 115.886719 232.511719 133.847656 237.113281 151.773438 237.113281 C 189.046875 237.113281 226.167969 217.207031 233.175781 178.070312 C 233.410156 176.738281 233.617188 175.40625 233.792969 174.070312 C 235.113281 179.605469 236.132812 185.25 237.503906 190.65625 C 237.605469 191.066406 237.910156 191.246094 238.226562 191.246094 C 238.640625 191.246094 239.074219 190.9375 239.117188 190.433594 C 239.890625 181.1875 238.15625 171.726562 234.65625 163.121094 C 234.769531 159.765625 234.765625 156.394531 234.695312 153.03125 C 240.898438 164.324219 244.1875 177.359375 244.191406 190.808594 C 244.191406 193.542969 244.054688 196.292969 243.78125 199.050781 C 243.539062 201.574219 243.160156 204.109375 242.675781 206.648438 C 241.84375 210.988281 240.722656 215.128906 239.324219 219.101562 C 238.878906 220.371094 238.40625 221.621094 237.90625 222.851562 C 237.5 223.835938 237.074219 224.808594 236.628906 225.769531 C 216.496094 246.652344 187.523438 258.964844 158.5 258.964844 " fill-opacity="1" fill-rule="nonzero"/><path fill="#117e35" d="M 152.648438 148.257812 C 152.289062 148.257812 151.933594 148.230469 151.582031 148.175781 C 151.257812 148.125 150.925781 148.035156 150.617188 147.914062 C 149.71875 147.605469 148.875 147.136719 148.113281 146.515625 C 147.128906 145.691406 146.300781 144.582031 145.710938 143.167969 C 144.726562 140.757812 144.578125 138.144531 144.578125 135.515625 C 144.578125 134.363281 144.609375 133.207031 144.609375 132.0625 C 144.609375 131.964844 144.609375 131.867188 144.609375 131.769531 C 144.570312 125.636719 141.617188 119.355469 138.40625 114.1875 C 135.039062 108.78125 127.957031 105.847656 124.003906 101.117188 C 124.125 101.121094 124.25 101.128906 124.375 101.136719 C 124.542969 101.167969 124.734375 101.1875 124.949219 101.191406 C 124.957031 101.195312 124.960938 101.195312 124.964844 101.195312 C 124.984375 101.195312 125.003906 101.191406 125.023438 101.191406 C 128.332031 101.546875 131.851562 103 134.902344 105.015625 C 141.707031 109.507812 143.535156 116.726562 144.644531 124.34375 C 145.175781 128.089844 145.625 131.855469 146.785156 135.480469 C 148.007812 139.28125 148.320312 143.476562 152.792969 144.875 C 153.511719 145.105469 154.261719 145.21875 155.015625 145.21875 C 156.511719 145.21875 158.007812 144.773438 159.253906 143.945312 C 158.75 145.1875 157.855469 146.292969 156.40625 147.171875 C 155.171875 147.925781 153.890625 148.257812 152.648438 148.257812 " fill-opacity="1" fill-rule="nonzero"/><path fill="#ca0b13" d="M 160.113281 271.832031 C 159.8125 271.824219 159.515625 271.816406 159.21875 271.8125 C 158.25 271.792969 157.300781 271.742188 156.332031 271.6875 C 147.492188 271.148438 138.582031 269.492188 130.011719 266.78125 C 138.582031 269.492188 147.492188 271.148438 156.332031 271.6875 C 157.300781 271.742188 158.25 271.792969 159.21875 271.8125 C 159.515625 271.816406 159.816406 271.824219 160.113281 271.832031 M 130 266.777344 C 129.988281 266.773438 129.984375 266.773438 129.972656 266.765625 C 129.980469 266.773438 129.988281 266.773438 130 266.777344 M 94.605469 247.261719 C 94.601562 247.257812 94.597656 247.257812 94.59375 247.253906 C 94.601562 247.257812 94.601562 247.257812 94.605469 247.261719 M 94.570312 247.226562 C 94.5625 247.222656 94.558594 247.21875 94.550781 247.214844 C 94.558594 247.21875 94.5625 247.226562 94.570312 247.226562 M 94.535156 247.195312 C 94.523438 247.1875 94.511719 247.179688 94.503906 247.171875 C 94.511719 247.179688 94.523438 247.1875 94.535156 247.195312 M 94.496094 247.164062 C 85.683594 239.4375 78.558594 229.992188 74.054688 218.976562 C 78.558594 229.992188 85.6875 239.4375 94.496094 247.164062 " fill-opacity="1" fill-rule="nonzero"/><path fill="#c20102" d="M 161.757812 271.847656 C 161.210938 271.847656 160.660156 271.839844 160.113281 271.832031 C 159.816406 271.824219 159.515625 271.816406 159.21875 271.8125 C 158.25 271.792969 157.300781 271.742188 156.332031 271.6875 C 147.492188 271.148438 138.582031 269.492188 130.011719 266.78125 C 130.007812 266.777344 130 266.777344 130 266.777344 C 129.988281 266.773438 129.980469 266.773438 129.972656 266.765625 C 116.9375 262.640625 104.675781 256.066406 94.605469 247.261719 C 94.601562 247.257812 94.601562 247.257812 94.59375 247.253906 C 94.589844 247.246094 94.578125 247.238281 94.570312 247.226562 C 94.5625 247.226562 94.558594 247.21875 94.550781 247.214844 C 94.546875 247.210938 94.535156 247.199219 94.535156 247.195312 C 94.523438 247.1875 94.511719 247.179688 94.503906 247.171875 C 94.5 247.167969 94.5 247.164062 94.496094 247.164062 C 85.6875 239.4375 78.558594 229.992188 74.054688 218.976562 C 73.167969 216.800781 72.378906 214.5625 71.703125 212.265625 C 88.214844 236.078125 114.417969 253.3125 143.136719 257.785156 C 148.226562 258.578125 153.367188 258.964844 158.5 258.964844 C 187.523438 258.964844 216.496094 246.652344 236.628906 225.769531 C 235.921875 227.394531 235.128906 228.964844 234.316406 230.5 C 223.609375 250.5 204.9375 263.710938 183.816406 269.097656 C 183.207031 269.269531 182.585938 269.425781 181.964844 269.546875 C 175.332031 271.050781 168.550781 271.847656 161.757812 271.847656 " fill-opacity="1" fill-rule="nonzero"/><g clip-path="url(#b42bb7bc84)"><path fill="#1cbd54" d="M 126.160156 100.964844 C 129.738281 100.351562 133 97.085938 132.714844 93.34375 C 132.542969 91.070312 129.246094 92.003906 128 92.625 C 126.261719 93.5 124.925781 95.039062 124.050781 96.691406 C 123.125 98.449219 122.171875 101.136719 124.949219 101.191406 C 125.230469 101.199219 125.875 101.015625 126.160156 100.964844 " fill-opacity="1" fill-rule="nonzero"/></g><path fill="#1cbd54" d="M 157.265625 139.085938 C 156.78125 134.675781 153.996094 131.050781 152.480469 126.992188 C 150.792969 122.445312 149.910156 117.679688 147.921875 113.195312 C 145.816406 108.449219 142.863281 103.714844 138.636719 100.589844 C 137.355469 99.640625 132.742188 96.28125 133.234375 100.269531 C 133.464844 102.121094 135.621094 102.417969 136.902344 103.292969 C 138.605469 104.449219 139.980469 106.449219 141.199219 108.085938 C 143.863281 111.664062 145.867188 115.65625 147.148438 119.929688 C 149.007812 126.148438 148.785156 132.617188 151.050781 138.871094 C 151.46875 140.03125 151.960938 141.222656 152.886719 142.042969 C 153.8125 142.859375 155.296875 143.175781 156.285156 142.4375 C 157.253906 141.714844 157.398438 140.332031 157.265625 139.085938 " fill-opacity="1" fill-rule="nonzero"/><path fill="#117e35" d="M 124.171875 196.550781 C 123.890625 195.621094 123.679688 194.664062 123.539062 193.695312 C 123.382812 192.625 123.308594 191.53125 123.308594 190.417969 C 123.296875 174.070312 139.277344 154.585938 140.132812 152.078125 L 140.21875 152.097656 C 140.382812 152.132812 140.550781 152.164062 140.71875 152.195312 C 140.207031 154.167969 139.117188 156.074219 138.0625 157.847656 C 133.933594 164.703125 129.773438 171.59375 127.058594 179.105469 C 125.058594 184.683594 123.863281 190.675781 124.171875 196.550781 M 111.6875 148.953125 C 112.410156 148.3125 113.15625 147.691406 113.917969 147.105469 C 118.304688 143.734375 123.722656 141.378906 129.195312 141.378906 C 130.039062 141.378906 130.886719 141.433594 131.730469 141.550781 C 131.71875 141.988281 131.734375 142.429688 131.773438 142.875 C 130.863281 142.726562 129.9375 142.660156 129 142.660156 C 128.636719 142.660156 128.273438 142.667969 127.90625 142.6875 C 124.089844 142.898438 120.21875 144.164062 117.082031 145.824219 C 116.640625 146.058594 116.210938 146.304688 115.796875 146.550781 C 114.382812 147.414062 113 148.210938 111.6875 148.953125 " fill-opacity="1" fill-rule="nonzero"/><path fill="#0d6d2b" d="M 140.71875 152.195312 C 140.550781 152.164062 140.382812 152.132812 140.21875 152.097656 L 140.132812 152.078125 C 140.394531 151.320312 140.542969 150.582031 140.542969 149.871094 C 140.542969 148.796875 140.195312 147.785156 139.375 146.878906 C 137.265625 144.566406 134.625 143.339844 131.773438 142.875 C 131.734375 142.429688 131.71875 141.988281 131.730469 141.550781 C 131.832031 141.5625 131.933594 141.578125 132.03125 141.597656 C 136.003906 142.21875 140.132812 144.707031 140.894531 148.660156 C 141.117188 149.851562 141.019531 151.035156 140.71875 152.195312 " fill-opacity="1" fill-rule="nonzero"/><path fill="#117e35" d="M 140.660156 139.5625 C 140.65625 139.558594 140.65625 139.558594 140.652344 139.558594 C 140.203125 139.203125 139.726562 138.824219 139.230469 138.429688 C 139.726562 138.824219 140.207031 139.203125 140.660156 139.5625 M 134.226562 134.480469 C 128.234375 129.730469 121.929688 124.726562 121.929688 124.726562 C 121.929688 124.726562 120.132812 123.359375 116.730469 122.253906 C 114.382812 121.476562 111.269531 120.820312 107.457031 120.820312 C 103.480469 120.820312 98.734375 121.535156 93.3125 123.582031 C 94.5 122.773438 95.730469 122.03125 96.972656 121.355469 C 100.042969 119.6875 104.414062 117.90625 108.054688 117.90625 C 108.21875 117.90625 108.382812 117.910156 108.546875 117.917969 C 114.972656 118.199219 126.308594 126.597656 134.78125 133.707031 C 134.589844 133.960938 134.402344 134.21875 134.226562 134.480469 " fill-opacity="1" fill-rule="nonzero"/><path fill="#0d6d2b" d="M 145.570312 143.394531 C 145.171875 143.273438 141.417969 139.90625 140.660156 139.5625 C 140.207031 139.203125 139.726562 138.824219 139.230469 138.429688 C 137.703125 137.222656 135.984375 135.859375 134.226562 134.480469 C 134.402344 134.21875 134.589844 133.960938 134.78125 133.707031 C 140.351562 138.382812 144.6875 142.507812 145.570312 143.394531 " fill-opacity="1" fill-rule="nonzero"/><path fill="#1cbd54" d="M 193.382812 108.457031 C 184.019531 109.835938 170.359375 112.910156 163.378906 125.96875 C 162.777344 127.105469 162.121094 128.246094 161.480469 129.367188 C 162.121094 125.171875 164.3125 121.234375 167.316406 118.195312 C 171 114.484375 175.800781 112.046875 180.789062 110.527344 C 182.898438 109.871094 185.039062 109.386719 187.214844 108.992188 C 189.390625 108.835938 191.515625 108.679688 193.382812 108.457031 " fill-opacity="1" fill-rule="nonzero"/><path fill="#117e35" d="M 205.558594 156.035156 C 204.375 155.410156 203.183594 154.804688 201.980469 154.222656 C 195.3125 150.988281 188.339844 148.425781 181.066406 147.125 C 177.675781 146.515625 174.113281 146.164062 170.546875 146.164062 C 169.910156 146.164062 169.269531 146.175781 168.632812 146.199219 C 166.335938 146.28125 164.050781 146.515625 161.8125 146.933594 C 162.015625 146.660156 162.207031 146.382812 162.386719 146.097656 C 162.5625 146.058594 162.726562 146.027344 162.878906 146 C 166.121094 145.359375 169.410156 145.050781 172.699219 145.050781 C 184.4375 145.050781 196.171875 148.992188 205.558594 156.035156 M 151.515625 150.820312 C 151.527344 150.804688 151.539062 150.789062 151.550781 150.773438 C 152.632812 149.996094 153.824219 149.335938 155.160156 148.8125 C 153.8125 149.347656 152.605469 150.007812 151.515625 150.820312 " fill-opacity="1" fill-rule="nonzero"/><path fill="#0d6d2b" d="M 151.550781 150.773438 C 153.742188 148.050781 159.492188 146.675781 162.386719 146.097656 C 162.207031 146.382812 162.015625 146.660156 161.8125 146.933594 C 159.527344 147.363281 157.285156 147.984375 155.160156 148.8125 C 153.824219 149.335938 152.632812 149.996094 151.550781 150.773438 " fill-opacity="1" fill-rule="nonzero"/><path fill="#1cbd54" d="M 106.953125 144.144531 C 113.332031 140.484375 120.070312 139.566406 127.332031 139.871094 C 120.296875 142.476562 113.675781 143.722656 107.253906 147.808594 C 102.0625 151.199219 97.058594 155.027344 91.269531 157.246094 C 96.105469 152.417969 100.976562 147.578125 106.953125 144.144531 " fill-opacity="1" fill-rule="nonzero"/><path fill="#1cbd54" d="M 134.152344 168 C 135.636719 165.371094 141.425781 154.121094 144.902344 154.710938 C 139.296875 163.886719 133.472656 172.933594 127.757812 182.042969 C 130.382812 177.730469 131.613281 172.496094 134.152344 168 " fill-opacity="1" fill-rule="nonzero"/><path fill="#1cbd54" d="M 178.855469 143.679688 C 186.089844 144.433594 194.511719 146.371094 201.042969 149.636719 C 190.828125 141.503906 176.695312 138.550781 164.078125 141.902344 C 163.621094 144.828125 168.679688 143.441406 170.046875 143.390625 C 172.988281 143.273438 175.929688 143.371094 178.855469 143.679688 " fill-opacity="1" fill-rule="nonzero"/><path fill="#24d371" d="M 153.84375 140.234375 C 153.292969 140.234375 152.75 139.9375 152.492188 139.21875 C 151.292969 135.832031 151.488281 132.167969 150.664062 128.671875 C 149.726562 124.675781 148.058594 120.902344 146.457031 117.140625 C 143.707031 110.675781 140.753906 105.519531 135.503906 100.761719 L 135.523438 100.742188 C 141.273438 103.191406 144.007812 109.992188 146.796875 115.132812 C 148.5625 118.390625 150.195312 121.730469 151.351562 125.261719 C 152.769531 129.597656 153.027344 133.980469 155.160156 138.097656 C 155.78125 139.304688 154.8125 140.234375 153.84375 140.234375 " fill-opacity="1" fill-rule="nonzero"/><path fill="#24d371" d="M 127.363281 99.457031 C 127.175781 99.457031 126.996094 99.445312 126.816406 99.417969 C 126.027344 99.300781 125.65625 98.1875 126.0625 97.570312 C 126.46875 96.957031 126.804688 96.503906 127.546875 96.3125 L 127.554688 96.3125 C 128.039062 96.042969 128.5625 95.832031 129.054688 95.734375 C 129.222656 95.699219 129.414062 95.675781 129.617188 95.675781 C 130.296875 95.675781 131.085938 95.902344 131.289062 96.558594 C 131.425781 97.007812 131.222656 97.28125 131.027344 97.65625 C 130.96875 97.769531 130.832031 98.023438 130.800781 98.066406 C 130.628906 98.296875 130.363281 98.503906 130.109375 98.652344 C 129.3125 99.132812 128.3125 99.457031 127.363281 99.457031 " fill-opacity="1" fill-rule="nonzero"/><path fill="#ff8d8d" d="M 170.675781 185.542969 C 168.105469 185.542969 165.71875 184.96875 164.410156 183.804688 C 158.488281 178.527344 166.5625 174.761719 173.414062 174.761719 C 175.105469 174.761719 176.726562 174.988281 178.042969 175.484375 C 180.253906 176.316406 181.605469 177.894531 181.003906 180.382812 C 180.175781 183.796875 175.148438 185.542969 170.675781 185.542969 " fill-opacity="1" fill-rule="nonzero"/><path fill="#ff8d8d" d="M 107.460938 184.738281 C 105.484375 184.738281 103.449219 184.367188 101.847656 183.21875 C 100.183594 182.015625 99.125 179.820312 99.71875 177.851562 C 100.160156 176.390625 101.6875 175.324219 103.152344 175.324219 C 103.660156 175.324219 104.160156 175.457031 104.609375 175.738281 L 104.75 174.605469 C 106.96875 174.785156 109.285156 174.992188 111.179688 176.164062 C 113.078125 177.332031 114.390625 179.773438 113.539062 181.832031 C 112.65625 183.957031 110.011719 184.703125 107.707031 184.738281 C 107.628906 184.738281 107.542969 184.738281 107.460938 184.738281 " fill-opacity="1" fill-rule="nonzero"/><path fill="#ff5e5e" d="M 233.792969 174.070312 C 232.785156 169.863281 231.601562 165.71875 229.953125 161.792969 C 226.84375 154.382812 213.605469 145.714844 213.75 138.132812 C 222.128906 138.976562 229.871094 152.804688 233.121094 159.632812 C 233.664062 160.777344 234.175781 161.941406 234.65625 163.121094 C 234.535156 166.785156 234.269531 170.441406 233.792969 174.070312 " fill-opacity="1" fill-rule="nonzero"/><path fill="#ff5152" d="M 238.226562 191.246094 C 237.910156 191.246094 237.605469 191.066406 237.503906 190.65625 C 236.132812 185.25 235.113281 179.605469 233.792969 174.070312 C 234.269531 170.441406 234.535156 166.785156 234.65625 163.121094 C 238.15625 171.726562 239.890625 181.1875 239.117188 190.433594 C 239.074219 190.9375 238.640625 191.246094 238.226562 191.246094 " fill-opacity="1" fill-rule="nonzero"/></svg>