<svg xmlns="http://www.w3.org/2000/svg" xmlns:xlink="http://www.w3.org/1999/xlink" width="415" zoomAndPan="magnify" viewBox="0 0 311.25 405.749988" height="541" preserveAspectRatio="xMidYMid meet" version="1.0"><defs><g/><clipPath id="869a2fa886"><path d="M 13.855469 0.363281 L 293.953125 0.363281 L 293.953125 405.136719 L 13.855469 405.136719 Z M 13.855469 0.363281 " clip-rule="nonzero"/></clipPath><clipPath id="7f7571ef42"><path d="M 35.230469 0.363281 L 272.578125 0.363281 C 284.382812 0.363281 293.953125 9.933594 293.953125 21.738281 L 293.953125 383.648438 C 293.953125 395.453125 284.382812 405.019531 272.578125 405.019531 L 35.230469 405.019531 C 23.425781 405.019531 13.855469 395.453125 13.855469 383.648438 L 13.855469 21.738281 C 13.855469 9.933594 23.425781 0.363281 35.230469 0.363281 Z M 35.230469 0.363281 " clip-rule="nonzero"/></clipPath><clipPath id="d569cc355d"><path d="M 0.855469 0.363281 L 280.953125 0.363281 L 280.953125 405.136719 L 0.855469 405.136719 Z M 0.855469 0.363281 " clip-rule="nonzero"/></clipPath><clipPath id="e6f0eae2ef"><path d="M 22.230469 0.363281 L 259.578125 0.363281 C 271.382812 0.363281 280.953125 9.933594 280.953125 21.738281 L 280.953125 383.648438 C 280.953125 395.453125 271.382812 405.019531 259.578125 405.019531 L 22.230469 405.019531 C 10.425781 405.019531 0.855469 395.453125 0.855469 383.648438 L 0.855469 21.738281 C 0.855469 9.933594 10.425781 0.363281 22.230469 0.363281 Z M 22.230469 0.363281 " clip-rule="nonzero"/></clipPath><clipPath id="43328066b9"><rect x="0" width="281" y="0" height="406"/></clipPath><clipPath id="76302c5690"><path d="M 23.269531 10.425781 L 285.554688 10.425781 L 285.554688 395 L 23.269531 395 Z M 23.269531 10.425781 " clip-rule="nonzero"/></clipPath><clipPath id="dbbc65938f"><path d="M 37.710938 10.425781 L 271.109375 10.425781 C 274.941406 10.425781 278.613281 11.945312 281.324219 14.652344 C 284.03125 17.363281 285.554688 21.035156 285.554688 24.867188 L 285.554688 380.519531 C 285.554688 384.347656 284.03125 388.023438 281.324219 390.730469 C 278.613281 393.4375 274.941406 394.960938 271.109375 394.960938 L 37.710938 394.960938 C 33.882812 394.960938 30.207031 393.4375 27.5 390.730469 C 24.792969 388.023438 23.269531 384.347656 23.269531 380.519531 L 23.269531 24.867188 C 23.269531 21.035156 24.792969 17.363281 27.5 14.652344 C 30.207031 11.945312 33.882812 10.425781 37.710938 10.425781 Z M 37.710938 10.425781 " clip-rule="nonzero"/></clipPath><clipPath id="f58365dd7f"><path d="M 0.269531 0.425781 L 262.554688 0.425781 L 262.554688 385 L 0.269531 385 Z M 0.269531 0.425781 " clip-rule="nonzero"/></clipPath><clipPath id="696276f86b"><path d="M 14.710938 0.425781 L 248.109375 0.425781 C 251.941406 0.425781 255.613281 1.945312 258.324219 4.652344 C 261.03125 7.363281 262.554688 11.035156 262.554688 14.867188 L 262.554688 370.519531 C 262.554688 374.347656 261.03125 378.023438 258.324219 380.730469 C 255.613281 383.4375 251.941406 384.960938 248.109375 384.960938 L 14.710938 384.960938 C 10.882812 384.960938 7.207031 383.4375 4.5 380.730469 C 1.792969 378.023438 0.269531 374.347656 0.269531 370.519531 L 0.269531 14.867188 C 0.269531 11.035156 1.792969 7.363281 4.5 4.652344 C 7.207031 1.945312 10.882812 0.425781 14.710938 0.425781 Z M 14.710938 0.425781 " clip-rule="nonzero"/></clipPath><clipPath id="25b9093472"><rect x="0" width="263" y="0" height="385"/></clipPath><clipPath id="605bb8fa9c"><path d="M 12.417969 274.746094 L 294.5625 274.746094 L 294.5625 394.925781 L 12.417969 394.925781 Z M 12.417969 274.746094 " clip-rule="nonzero"/></clipPath><clipPath id="09bbf1a835"><path d="M 24.054688 274.746094 L 282.839844 274.746094 C 289.265625 274.746094 294.476562 279.957031 294.476562 286.382812 L 294.476562 383.289062 C 294.476562 389.714844 289.265625 394.925781 282.839844 394.925781 L 24.054688 394.925781 C 17.628906 394.925781 12.417969 389.714844 12.417969 383.289062 L 12.417969 286.382812 C 12.417969 279.957031 17.628906 274.746094 24.054688 274.746094 Z M 24.054688 274.746094 " clip-rule="nonzero"/></clipPath><clipPath id="89f14cf3e5"><path d="M 0.417969 0.746094 L 282.492188 0.746094 L 282.492188 120.925781 L 0.417969 120.925781 Z M 0.417969 0.746094 " clip-rule="nonzero"/></clipPath><clipPath id="658e355d17"><path d="M 12.054688 0.746094 L 270.839844 0.746094 C 277.265625 0.746094 282.476562 5.957031 282.476562 12.382812 L 282.476562 109.289062 C 282.476562 115.714844 277.265625 120.925781 270.839844 120.925781 L 12.054688 120.925781 C 5.628906 120.925781 0.417969 115.714844 0.417969 109.289062 L 0.417969 12.382812 C 0.417969 5.957031 5.628906 0.746094 12.054688 0.746094 Z M 12.054688 0.746094 " clip-rule="nonzero"/></clipPath><clipPath id="9691a524ba"><rect x="0" width="283" y="0" height="121"/></clipPath><clipPath id="d32340a63f"><path d="M 13.855469 10.390625 L 292.382812 10.390625 L 292.382812 81.550781 L 13.855469 81.550781 Z M 13.855469 10.390625 " clip-rule="nonzero"/></clipPath><clipPath id="a647148676"><path d="M 26.5625 10.390625 L 279.535156 10.390625 C 286.554688 10.390625 292.246094 16.078125 292.246094 23.097656 L 292.246094 68.839844 C 292.246094 75.859375 286.554688 81.550781 279.535156 81.550781 L 26.5625 81.550781 C 19.542969 81.550781 13.855469 75.859375 13.855469 68.839844 L 13.855469 23.097656 C 13.855469 16.078125 19.542969 10.390625 26.5625 10.390625 Z M 26.5625 10.390625 " clip-rule="nonzero"/></clipPath><clipPath id="1dd438e80c"><path d="M 0.855469 0.390625 L 279.335938 0.390625 L 279.335938 71.550781 L 0.855469 71.550781 Z M 0.855469 0.390625 " clip-rule="nonzero"/></clipPath><clipPath id="44a3b3ad18"><path d="M 13.5625 0.390625 L 266.535156 0.390625 C 273.554688 0.390625 279.246094 6.078125 279.246094 13.097656 L 279.246094 58.839844 C 279.246094 65.859375 273.554688 71.550781 266.535156 71.550781 L 13.5625 71.550781 C 6.542969 71.550781 0.855469 65.859375 0.855469 58.839844 L 0.855469 13.097656 C 0.855469 6.078125 6.542969 0.390625 13.5625 0.390625 Z M 13.5625 0.390625 " clip-rule="nonzero"/></clipPath><clipPath id="4012038759"><rect x="0" width="280" y="0" height="72"/></clipPath><clipPath id="3e6050e293"><path d="M 89.4375 81.585938 L 254.039062 81.585938 L 254.039062 274 L 89.4375 274 Z M 89.4375 81.585938 " clip-rule="nonzero"/></clipPath><clipPath id="5994246a55"><path d="M 219 140 L 254.039062 140 L 254.039062 167 L 219 167 Z M 219 140 " clip-rule="nonzero"/></clipPath><clipPath id="d3dd64ce12"><path d="M 89.4375 140 L 126 140 L 126 167 L 89.4375 167 Z M 89.4375 140 " clip-rule="nonzero"/></clipPath><clipPath id="d1cfe8f6e0"><path d="M 196 119 L 254.039062 119 L 254.039062 147 L 196 147 Z M 196 119 " clip-rule="nonzero"/></clipPath><clipPath id="2d8c3f12ea"><path d="M 171 81.585938 L 199 81.585938 L 199 137 L 171 137 Z M 171 81.585938 " clip-rule="nonzero"/></clipPath><clipPath id="2e12c337ff"><path d="M 89.4375 118 L 158 118 L 158 144 L 89.4375 144 Z M 89.4375 118 " clip-rule="nonzero"/></clipPath><clipPath id="c47ebbbde6"><path d="M 148 81.585938 L 175 81.585938 L 175 135 L 148 135 Z M 148 81.585938 " clip-rule="nonzero"/></clipPath></defs><g clip-path="url(#869a2fa886)"><g clip-path="url(#7f7571ef42)"><g transform="matrix(1, 0, 0, 1, 13, -0.000000000000060896)"><g clip-path="url(#43328066b9)"><g clip-path="url(#d569cc355d)"><g clip-path="url(#e6f0eae2ef)"><path fill="#800080" d="M 0.855469 0.363281 L 280.953125 0.363281 L 280.953125 405.191406 L 0.855469 405.191406 Z M 0.855469 0.363281 " fill-opacity="1" fill-rule="nonzero"/></g></g></g></g></g></g><g clip-path="url(#76302c5690)"><g clip-path="url(#dbbc65938f)"><g transform="matrix(1, 0, 0, 1, 23, 10)"><g clip-path="url(#25b9093472)"><g clip-path="url(#f58365dd7f)"><g clip-path="url(#696276f86b)"><path fill="#fffaed" d="M 0.269531 0.425781 L 262.554688 0.425781 L 262.554688 384.628906 L 0.269531 384.628906 Z M 0.269531 0.425781 " fill-opacity="1" fill-rule="nonzero"/></g></g></g></g></g></g><g clip-path="url(#605bb8fa9c)"><g clip-path="url(#09bbf1a835)"><g transform="matrix(1, 0, 0, 1, 12, 274)"><g clip-path="url(#9691a524ba)"><g clip-path="url(#89f14cf3e5)"><g clip-path="url(#658e355d17)"><path fill="#800080" d="M 0.417969 0.746094 L 282.5625 0.746094 L 282.5625 120.925781 L 0.417969 120.925781 Z M 0.417969 0.746094 " fill-opacity="1" fill-rule="nonzero"/></g></g></g></g></g></g><g fill="#ffffff" fill-opacity="1"><g transform="translate(142.089222, 343.578922)"><g/></g></g><g fill="#ffffff" fill-opacity="1"><g transform="translate(149.657948, 343.578922)"><g/></g></g><g fill="#ffffff" fill-opacity="1"><g transform="translate(157.226673, 343.578922)"><g/></g></g><g clip-path="url(#d32340a63f)"><g clip-path="url(#a647148676)"><g transform="matrix(1, 0, 0, 1, 13, 10)"><g clip-path="url(#4012038759)"><g clip-path="url(#1dd438e80c)"><g clip-path="url(#44a3b3ad18)"><path fill="#800080" d="M 0.855469 0.390625 L 279.382812 0.390625 L 279.382812 71.550781 L 0.855469 71.550781 Z M 0.855469 0.390625 " fill-opacity="1" fill-rule="nonzero"/></g></g></g></g></g></g><g fill="#ffffff" fill-opacity="1"><g transform="translate(114.943066, 55.281533)"><g><path d="M 8.234375 0.21875 L 7.703125 0.078125 L 7.09375 0.0625 L 6.671875 -0.171875 L 6.03125 -0.359375 L 5.5 -0.59375 L 5.078125 -0.921875 L 4.140625 -1.484375 L 3.765625 -1.84375 L 3.015625 -2.765625 L 2.453125 -3.71875 L 2.296875 -4.25 L 2.203125 -4.78125 L 2.046875 -5.34375 L 2.046875 -5.921875 L 1.953125 -6.734375 L 1.984375 -8.75 L 1.90625 -9.859375 L 1.953125 -10.390625 L 1.921875 -10.953125 L 1.984375 -11.484375 L 1.90625 -12.09375 L 2.015625 -12.625 L 1.875 -14.296875 L 1.953125 -15.359375 L 1.84375 -16.53125 L 1.984375 -17.015625 L 1.984375 -18.6875 L 2.234375 -19.25 L 2.796875 -19.5625 L 5.734375 -19.53125 L 6.390625 -19.28125 L 6.703125 -18.75 L 6.703125 -18.15625 L 6.5625 -17.328125 L 6.5625 -16.796875 L 6.65625 -15.984375 L 6.65625 -13.75 L 6.59375 -13.25 L 6.625 -11.515625 L 6.703125 -10.953125 L 6.765625 -6.03125 L 6.921875 -5.453125 L 7.265625 -5.0625 L 7.6875 -4.6875 L 8.296875 -4.390625 L 8.796875 -4.25 L 9.71875 -4.1875 L 10.46875 -4.25 L 11.59375 -4.609375 L 12.046875 -5.03125 L 12.296875 -5.421875 L 12.546875 -5.953125 L 12.65625 -6.84375 L 12.625 -8.265625 L 12.6875 -8.828125 L 12.65625 -9.828125 L 12.71875 -10.453125 L 12.59375 -10.953125 L 12.6875 -13.15625 L 12.59375 -13.75 L 12.65625 -14.328125 L 12.625 -15.421875 L 12.6875 -15.984375 L 12.65625 -18.71875 L 12.9375 -19.328125 L 13.546875 -19.578125 L 16.171875 -19.5625 L 17.0625 -19.3125 L 17.296875 -18.6875 L 17.375 -18.21875 L 17.34375 -15.953125 L 17.4375 -15.390625 L 17.34375 -14.859375 L 17.375 -14.25 L 17.328125 -13.375 L 17.34375 -12.59375 L 17.296875 -12.015625 L 17.328125 -11.484375 L 17.4375 -10.921875 L 17.4375 -10.421875 L 17.328125 -9.828125 L 17.40625 -7.578125 L 17.203125 -4.75 L 17.015625 -4.21875 L 16.734375 -3.75 L 16.5625 -3.1875 L 16.203125 -2.765625 L 15.890625 -2.265625 L 14.640625 -1.140625 L 14.1875 -0.84375 L 13.6875 -0.609375 L 13.25 -0.328125 L 12.6875 -0.203125 L 12.09375 0.03125 L 10.984375 0.28125 L 9.578125 0.328125 Z M 8.234375 0.21875 "/></g></g></g><g fill="#ffffff" fill-opacity="1"><g transform="translate(134.213993, 55.281533)"><g><path d="M 7.875 -0.5 L 7.125 -2.046875 L 6.984375 -2.625 L 6.703125 -3.046875 L 5.984375 -4.671875 L 5.8125 -5.203125 L 5.34375 -6.203125 L 5.203125 -6.671875 L 3.359375 -10.84375 L 3.078125 -11.28125 L 2.234375 -13.328125 L 1.953125 -13.828125 L 1.515625 -14.921875 L 1.203125 -15.453125 L 1.03125 -15.953125 L 0.78125 -16.453125 L 0.359375 -17.515625 L 0.109375 -18.015625 L 0 -18.6875 L 0.0625 -19.3125 L 0.640625 -19.5625 L 1.234375 -19.578125 L 1.734375 -19.53125 L 2.203125 -19.578125 L 3.765625 -19.5 L 4.421875 -19.28125 L 4.890625 -18.71875 L 5.140625 -18.265625 L 5.34375 -17.765625 L 5.609375 -17.234375 L 5.703125 -16.703125 L 6.671875 -14.6875 L 6.78125 -14.140625 L 6.984375 -13.640625 L 7.234375 -13.1875 L 7.578125 -12.0625 L 7.875 -11.5625 L 8.078125 -11.125 L 8.234375 -10.5625 L 8.46875 -10.0625 L 8.828125 -9 L 9.046875 -8.5 L 9.390625 -8.546875 L 9.71875 -9.046875 L 9.859375 -9.546875 L 10.140625 -10.078125 L 13.46875 -18.265625 L 13.609375 -18.78125 L 14.109375 -19.3125 L 14.75 -19.53125 L 18.046875 -19.53125 L 18.515625 -19.359375 L 18.6875 -18.65625 L 18.40625 -17.984375 L 18.296875 -17.515625 L 18.015625 -16.984375 L 17.828125 -16.421875 L 17.515625 -15.953125 L 17.375 -15.453125 L 16.953125 -14.359375 L 16.59375 -13.9375 L 16.453125 -13.40625 L 16.0625 -12.90625 L 15.921875 -12.375 L 15.78125 -11.90625 L 15.484375 -11.34375 L 15.171875 -10.28125 L 14.578125 -9.28125 L 14.25 -8.1875 L 12.578125 -4.609375 L 12.40625 -4.109375 L 11.953125 -3.09375 L 11.671875 -2.625 L 11.421875 -2.09375 L 10.953125 -1 L 10.78125 -0.46875 L 10.3125 -0.03125 L 9.546875 0.3125 L 9 0.25 L 8.328125 0 Z M 7.875 -0.5 "/></g></g></g><g fill="#ffffff" fill-opacity="1"><g transform="translate(153.038064, 55.281533)"><g><path d="M 0.359375 -0.75 L 0.703125 -1.921875 L 0.953125 -2.484375 L 1.28125 -2.9375 L 2.09375 -4.96875 L 2.875 -6.421875 L 3.078125 -6.984375 L 3.328125 -7.4375 L 3.484375 -8.015625 L 3.890625 -8.75 L 4.078125 -9.28125 L 4.5 -10 L 4.9375 -11 L 5.25 -11.515625 L 5.390625 -11.984375 L 6.953125 -15.5 L 7.265625 -16.015625 L 8.46875 -18.515625 L 8.625 -19.03125 L 9.15625 -19.53125 L 10.0625 -19.8125 L 11 -19.5625 L 11.515625 -19.03125 L 11.671875 -18.5 L 11.921875 -18.078125 L 12.375 -17.015625 L 12.9375 -15.984375 L 13.359375 -15 L 13.5 -14.5625 L 14 -13.5 L 14.171875 -12.96875 L 14.71875 -11.984375 L 14.859375 -11.453125 L 15.140625 -10.984375 L 15.359375 -10.5 L 15.671875 -10 L 15.84375 -9.4375 L 16.09375 -9.03125 L 16.28125 -8.46875 L 16.53125 -7.984375 L 16.765625 -7.4375 L 17.0625 -6.984375 L 17.453125 -5.953125 L 17.734375 -5.46875 L 17.9375 -4.9375 L 18.40625 -3.9375 L 18.578125 -3.40625 L 18.859375 -2.984375 L 19.03125 -2.4375 L 19.390625 -1.953125 L 19.578125 -1.453125 L 19.75 -0.75 L 19.640625 -0.171875 L 19.140625 0 L 17.40625 0.0625 L 16.421875 -0.03125 L 15.921875 0.03125 L 15.203125 -0.25 L 14.71875 -0.703125 L 14.421875 -1.203125 L 14.28125 -1.703125 L 13.6875 -2.15625 L 12.765625 -2.453125 L 11.453125 -2.40625 L 10.875 -2.453125 L 10.359375 -2.453125 L 9.71875 -2.375 L 9.140625 -2.453125 L 7.578125 -2.4375 L 7.015625 -2.484375 L 6.34375 -2.203125 L 5.859375 -1.671875 L 5.390625 -0.71875 L 4.890625 -0.21875 L 4.25 0.0625 L 3.515625 -0.03125 L 1.0625 -0.03125 L 0.5 -0.171875 Z M 9 -6.90625 L 11.171875 -6.921875 L 11.65625 -7.15625 L 11.703125 -7.65625 L 11.515625 -8.15625 L 11.234375 -8.71875 L 11.125 -9.15625 L 10.8125 -9.640625 L 10.453125 -10.734375 L 10.109375 -10.953125 L 9.75 -10.671875 L 9.5 -10.21875 L 8.375 -7.6875 L 8.46875 -7.125 Z M 9 -6.90625 "/></g></g></g><g fill="#ffffff" fill-opacity="1"><g transform="translate(173.314437, 55.281533)"><g><path d="M 8.109375 0.21875 L 6.921875 0.140625 L 6.390625 -0.0625 L 5.78125 -0.140625 L 3.765625 -1.0625 L 3.296875 -1.375 L 2.484375 -2.171875 L 1.78125 -3.046875 L 1.34375 -4.15625 L 1.234375 -4.671875 L 1.171875 -5.28125 L 1.375 -5.859375 L 1.921875 -6.125 L 2.484375 -6.09375 L 3.046875 -6.140625 L 5.171875 -6.09375 L 5.734375 -5.859375 L 6.140625 -5.3125 L 6.5625 -4.921875 L 7.0625 -4.609375 L 7.484375 -4.421875 L 8.125 -4.25 L 8.96875 -4.1875 L 9.75 -4.21875 L 10.78125 -4.53125 L 11.234375 -4.78125 L 11.671875 -5.171875 L 11.84375 -5.890625 L 11.703125 -6.625 L 11.3125 -6.953125 L 10.3125 -7.375 L 9.75 -7.40625 L 9.25 -7.484375 L 6.953125 -7.65625 L 5.953125 -7.875 L 4.359375 -8.40625 L 3.375 -9 L 2.59375 -9.71875 L 1.90625 -10.640625 L 1.53125 -11.625 L 1.34375 -12.40625 L 1.3125 -14.28125 L 1.703125 -15.890625 L 1.984375 -16.34375 L 2.171875 -16.84375 L 2.546875 -17.203125 L 2.84375 -17.6875 L 3.359375 -18.015625 L 3.75 -18.390625 L 4.296875 -18.71875 L 4.75 -18.890625 L 5.203125 -19.171875 L 5.703125 -19.359375 L 7.90625 -19.8125 L 9.46875 -19.828125 L 10.078125 -19.703125 L 10.59375 -19.640625 L 11.171875 -19.53125 L 12.71875 -19 L 14.5 -17.765625 L 14.859375 -17.34375 L 15.140625 -16.90625 L 15.5 -16.453125 L 15.953125 -15.453125 L 16.171875 -14.359375 L 15.921875 -13.828125 L 15.390625 -13.5 L 14.859375 -13.546875 L 14.359375 -13.5 L 12.515625 -13.546875 L 11.65625 -13.828125 L 10.734375 -14.8125 L 10.3125 -15.140625 L 9.6875 -15.359375 L 7.90625 -15.3125 L 7.40625 -15.203125 L 7.015625 -15.03125 L 6.53125 -14.671875 L 6.234375 -14.28125 L 6.140625 -13.546875 L 6.171875 -12.796875 L 6.625 -12.34375 L 7.046875 -12.125 L 8.21875 -11.703125 L 11.03125 -11.34375 L 13.328125 -10.78125 L 14.8125 -10.109375 L 15.28125 -9.71875 L 15.953125 -8.859375 L 16.515625 -7.828125 L 16.65625 -7.296875 L 16.734375 -6.734375 L 16.703125 -5 L 16.625 -4.5 L 16.453125 -3.9375 L 16.234375 -3.4375 L 15.671875 -2.546875 L 14.890625 -1.640625 L 14 -1.03125 L 12.546875 -0.25 L 9.8125 0.28125 L 8.90625 0.3125 Z M 8.109375 0.21875 "/></g></g></g><path fill="#000000" d="M 43.914062 85.105469 C 34.140625 85.105469 26.144531 93.101562 26.144531 102.875 C 26.144531 112.648438 34.140625 120.644531 43.914062 120.644531 C 53.6875 120.644531 61.683594 112.648438 61.683594 102.875 C 61.683594 93.101562 53.6875 85.105469 43.914062 85.105469 Z M 49.777344 111.046875 L 38.40625 111.046875 L 38.40625 108.738281 C 43.203125 103.40625 45.867188 101.453125 45.867188 99.320312 C 45.867188 98.609375 45.511719 97.011719 43.734375 97.011719 C 41.425781 97.011719 41.425781 99.320312 41.425781 99.851562 L 38.050781 99.851562 C 38.050781 98.253906 39.292969 94.523438 43.734375 94.523438 C 48.179688 94.523438 49.066406 97.1875 49.066406 99.144531 C 49.066406 101.808594 47.113281 103.941406 42.492188 108.5625 L 49.601562 108.5625 L 49.601562 111.046875 Z M 49.777344 111.046875 " fill-opacity="1" fill-rule="nonzero"/><g clip-path="url(#3e6050e293)"><path fill="#6b1b87" d="M 115.265625 166.96875 C 114.464844 166.597656 113.460938 166.425781 112.617188 166.144531 C 109.679688 165.160156 107.375 163.535156 105.488281 161.074219 C 107.140625 160.609375 108.777344 160.160156 110.351562 159.449219 C 109.984375 159.316406 109.535156 159.304688 109.148438 159.226562 C 108.609375 159.117188 108.082031 158.953125 107.566406 158.765625 C 103.5625 157.320312 100.652344 154.921875 98.84375 151.0625 C 99.929688 150.820312 101.003906 150.589844 102.003906 150.097656 C 101.535156 149.972656 101.042969 149.933594 100.570312 149.820312 C 99.59375 149.582031 98.617188 149.230469 97.707031 148.804688 C 94.273438 147.199219 90.746094 143.96875 89.4375 140.34375 L 89.632812 140.132812 L 89.671875 140.070312 C 90.246094 139.34375 91.046875 138.671875 91.761719 138.085938 C 94.953125 135.484375 98.386719 134.398438 102.421875 133.960938 L 99.167969 132.660156 C 99.949219 131.90625 100.730469 131.179688 101.632812 130.5625 C 104.714844 128.460938 109.328125 126.917969 113.085938 127.644531 L 113.183594 127.664062 C 112.019531 126.644531 111.097656 125.53125 110.199219 124.273438 C 111.730469 123.164062 113.648438 122.464844 115.457031 121.957031 C 119.691406 120.769531 124.570312 121.441406 128.390625 123.601562 L 126.167969 119.011719 C 127.390625 118.625 128.761719 118.5 130.035156 118.363281 C 136.875 118.128906 143.925781 121.167969 148.882812 125.820312 C 149.5 126.398438 150.175781 127.304688 150.882812 127.730469 C 149.328125 125.09375 147.789062 122.472656 147.074219 119.464844 C 145.855469 114.367188 146.0625 108.574219 148.878906 103.996094 C 149.089844 103.332031 149.761719 102.53125 150.171875 101.953125 L 154.027344 105.007812 C 154.027344 102.714844 154.25 100.183594 155.125 98.039062 C 156.316406 95.117188 158.542969 92.640625 161.492188 91.417969 C 162.21875 92.59375 163.085938 93.792969 164.0625 94.769531 C 164 93.347656 163.992188 92.046875 164.386719 90.664062 C 165.222656 87.734375 166.90625 85.558594 169.101562 83.503906 C 169.738281 82.90625 170.523438 82.171875 171.304688 81.773438 C 171.578125 81.636719 171.609375 81.671875 171.886719 81.761719 C 173.347656 82.476562 174.609375 83.570312 175.746094 84.71875 C 177.351562 86.332031 178.863281 88.164062 179.605469 90.351562 C 180.105469 91.835938 180.324219 93.328125 180.316406 94.890625 L 182.140625 91.632812 C 185.664062 93.28125 187.839844 95.828125 189.152344 99.464844 C 189.925781 101.597656 189.890625 103.613281 189.46875 105.816406 C 190.644531 104.773438 192.097656 103.578125 193.507812 102.863281 L 193.808594 102.722656 C 194.402344 103.210938 194.886719 103.890625 195.324219 104.519531 C 196.960938 106.882812 197.875 109.660156 198.136719 112.511719 C 198.667969 118.230469 196.511719 123.527344 193.640625 128.339844 C 194.238281 127.933594 194.785156 127.371094 195.34375 126.902344 C 196.367188 126.050781 197.410156 125.347656 198.511719 124.601562 C 199.171875 124.15625 199.804688 123.652344 200.539062 123.339844 L 208.378906 115.96875 C 213.824219 111.699219 219.816406 108.695312 226.390625 106.578125 C 228.5625 105.878906 230.726562 105.238281 232.96875 104.792969 C 234.058594 104.578125 235.902344 104.019531 236.988281 104.21875 C 237.421875 104.296875 237.875 104.886719 238.125 105.21875 C 238.957031 106.34375 239.78125 108.355469 239.550781 109.769531 L 239.523438 109.914062 C 239.480469 110.148438 239.445312 110.355469 239.324219 110.5625 C 238.800781 111.476562 237.339844 111.175781 236.429688 111.167969 C 229.292969 111.105469 221.9375 112.613281 215.679688 116.136719 C 213.429688 117.402344 211.320312 118.992188 209.378906 120.683594 L 209.539062 120.675781 C 210.328125 120.628906 211.160156 120.308594 211.953125 120.1875 C 215.261719 119.683594 218.207031 120.035156 221.160156 121.652344 C 219.890625 123.082031 218.730469 124.472656 217.710938 126.097656 C 221.238281 123.988281 225.46875 122.757812 229.5625 123.789062 C 231.34375 124.238281 232.925781 125.167969 234.425781 126.203125 C 233.472656 127.097656 232.445312 128.050781 231.660156 129.097656 C 235.335938 128.328125 239.171875 128.605469 242.367188 130.738281 C 243.253906 131.328125 244.050781 132.015625 244.800781 132.769531 C 243.816406 133.136719 242.902344 133.542969 242.023438 134.121094 C 246.167969 134.421875 251.328125 136.746094 253.929688 140.089844 L 254.039062 140.253906 C 253.945312 142.238281 251.066406 145.34375 249.640625 146.648438 C 247.691406 148.421875 245.054688 149.910156 242.371094 149.933594 L 245.476562 151.125 C 243.441406 154.980469 240.671875 157.628906 236.4375 158.925781 L 234.121094 159.410156 L 238.53125 161.207031 C 238.054688 161.804688 237.585938 162.414062 237.019531 162.929688 C 234.53125 165.1875 231.117188 166.335938 227.890625 166.988281 C 231.59375 171.058594 233.796875 176.042969 233.53125 181.597656 C 233.269531 187.164062 230.90625 192.097656 226.757812 195.824219 C 225.398438 197.042969 223.785156 198.078125 222.132812 198.851562 C 221.457031 199.167969 220.753906 199.4375 220.050781 199.691406 C 219.804688 199.777344 219.308594 199.886719 219.128906 200.050781 L 219.203125 200.804688 C 219.382812 201.46875 219.40625 202.171875 219.484375 202.851562 C 219.9375 206.953125 219.015625 211.144531 216.96875 214.714844 C 214.960938 218.222656 211.945312 221.152344 208.324219 222.949219 C 207.382812 223.417969 206.332031 223.667969 205.410156 224.140625 L 205.703125 225.203125 C 206.53125 230.207031 205.929688 235.09375 203.242188 239.480469 C 201.09375 242.988281 197.914062 245.890625 194.121094 247.527344 C 192.921875 248.042969 191.652344 248.363281 190.386719 248.671875 C 190.5625 249.339844 190.792969 250 190.925781 250.675781 C 191.558594 253.871094 191.441406 257.171875 190.40625 260.261719 C 188.714844 265.335938 184.84375 269.601562 180.082031 271.96875 C 175.511719 274.242188 169.976562 274.566406 165.148438 272.957031 C 160.039062 271.25 156.023438 267.679688 153.613281 262.878906 C 151.507812 258.6875 151.046875 253.417969 152.527344 248.953125 C 152.339844 248.804688 151.933594 248.792969 151.699219 248.75 C 151.148438 248.644531 150.617188 248.507812 150.078125 248.347656 C 145.136719 246.847656 141.007812 243.5 138.589844 238.933594 C 136.039062 234.117188 135.632812 228.949219 137.238281 223.75 L 135.691406 223.324219 C 130.5 221.535156 126.480469 217.726562 124.144531 212.800781 C 122.679688 209.710938 122.113281 206.339844 122.449219 202.941406 C 122.546875 201.941406 122.664062 200.898438 122.996094 199.941406 C 118.621094 199.046875 114.855469 196.738281 112.117188 193.203125 C 109.03125 189.226562 107.515625 184.214844 108.171875 179.207031 C 108.808594 174.34375 111.386719 169.941406 115.265625 166.96875 Z M 115.265625 166.96875 " fill-opacity="1" fill-rule="evenodd"/></g><path fill="#6b1b87" d="M 124.019531 163.664062 C 124.234375 163.859375 124.382812 164.011719 124.515625 164.277344 L 124.3125 164.34375 C 123.011719 164.75 121.675781 165.007812 120.394531 165.492188 C 116.816406 166.847656 113.734375 169.769531 111.960938 173.125 C 111.023438 174.894531 110.445312 176.765625 110.128906 178.734375 C 109.582031 183.25 110.566406 186.957031 113.378906 190.554688 C 115.5625 193.351562 119.71875 195.835938 123.253906 196.226562 L 124.441406 196.335938 L 122.996094 199.941406 C 118.621094 199.046875 114.855469 196.738281 112.117188 193.203125 C 109.03125 189.226562 107.515625 184.214844 108.171875 179.207031 C 108.808594 174.34375 111.386719 169.941406 115.265625 166.96875 C 117.945312 165.257812 120.789062 163.847656 124.019531 163.664062 Z M 124.019531 163.664062 " fill-opacity="1" fill-rule="nonzero"/><path fill="#63a50a" d="M 148.878906 103.996094 C 149.214844 104.757812 148.871094 106.136719 148.839844 106.980469 L 148.824219 109.765625 C 148.878906 117.511719 152.242188 124.265625 157.183594 130.058594 C 158.371094 131.449219 159.738281 132.679688 160.953125 134.046875 L 157.613281 136.898438 L 153.976562 132.1875 C 153.871094 132.238281 153.742188 132.410156 153.664062 132.496094 C 153.160156 132.390625 151.253906 129.785156 150.71875 129.210938 C 148.695312 127.046875 146.511719 125.28125 143.960938 123.769531 C 140.945312 121.980469 137.796875 120.683594 134.425781 119.742188 L 131.5 118.992188 C 130.96875 118.847656 130.421875 118.761719 130.035156 118.363281 C 136.875 118.128906 143.925781 121.167969 148.882812 125.820312 C 149.5 126.398438 150.175781 127.304688 150.882812 127.730469 C 149.328125 125.09375 147.789062 122.472656 147.074219 119.464844 C 145.855469 114.367188 146.0625 108.574219 148.878906 103.996094 Z M 148.878906 103.996094 " fill-opacity="1" fill-rule="nonzero"/><path fill="#73600b" d="M 200.542969 123.339844 L 208.378906 115.96875 C 213.824219 111.699219 219.816406 108.695312 226.390625 106.578125 C 228.5625 105.878906 230.726562 105.238281 232.96875 104.792969 C 234.058594 104.578125 235.902344 104.019531 236.988281 104.21875 C 237.421875 104.296875 237.875 104.886719 238.125 105.21875 C 238.957031 106.34375 239.78125 108.355469 239.550781 109.769531 L 239.523438 109.914062 C 239.484375 110.148438 239.445312 110.355469 239.324219 110.5625 C 238.800781 111.476562 237.339844 111.175781 236.429688 111.167969 C 229.292969 111.105469 221.9375 112.613281 215.679688 116.136719 C 213.429688 117.402344 211.320312 118.992188 209.378906 120.683594 C 206.734375 123.050781 204.226562 125.492188 201.988281 128.253906 C 200.070312 130.621094 198.398438 133.179688 196.707031 135.710938 L 192.050781 137.613281 C 190.914062 138.230469 189.863281 138.910156 188.851562 139.714844 C 188.046875 138.480469 187.078125 137.433594 186.058594 136.378906 C 187.273438 135.695312 188.320312 134.433594 189.265625 133.429688 C 190.65625 131.949219 192.15625 130.414062 193.308594 128.742188 C 193.414062 128.585938 193.5 128.460938 193.640625 128.339844 C 194.238281 127.933594 194.785156 127.367188 195.34375 126.902344 C 196.367188 126.050781 197.414062 125.347656 198.511719 124.601562 C 199.171875 124.15625 199.804688 123.652344 200.542969 123.339844 Z M 200.542969 123.339844 " fill-opacity="1" fill-rule="nonzero"/><path fill="#77b90e" d="M 193.640625 128.339844 C 194.238281 127.933594 194.78125 127.371094 195.34375 126.902344 C 196.367188 126.050781 197.410156 125.347656 198.511719 124.601562 C 199.171875 124.15625 199.804688 123.652344 200.539062 123.339844 C 199.929688 124.460938 198.917969 125.484375 198.164062 126.53125 C 195.761719 129.859375 193.289062 133.691406 192.050781 137.613281 C 190.914062 138.230469 189.863281 138.910156 188.851562 139.714844 C 188.046875 138.480469 187.074219 137.433594 186.058594 136.378906 C 187.273438 135.695312 188.320312 134.433594 189.265625 133.429688 C 190.65625 131.949219 192.15625 130.414062 193.308594 128.742188 C 193.414062 128.585938 193.496094 128.460938 193.640625 128.339844 Z M 193.640625 128.339844 " fill-opacity="1" fill-rule="nonzero"/><g clip-path="url(#5994246a55)"><path fill="#509108" d="M 219.523438 146.667969 C 220.886719 146.746094 222.5 146.367188 223.871094 146.183594 C 231.628906 145.128906 239.246094 143.300781 246.886719 141.628906 L 251.214844 140.667969 C 252.121094 140.472656 253.109375 140.21875 254.039062 140.253906 C 253.945312 142.238281 251.066406 145.34375 249.636719 146.648438 C 247.691406 148.421875 245.054688 149.910156 242.371094 149.933594 L 245.476562 151.125 C 243.441406 154.980469 240.667969 157.628906 236.4375 158.925781 L 234.121094 159.410156 L 238.53125 161.207031 C 238.054688 161.804688 237.585938 162.414062 237.019531 162.929688 C 234.527344 165.1875 231.113281 166.335938 227.890625 166.988281 C 225.539062 164.828125 222.976562 163.378906 220.113281 162.011719 C 220.566406 160.703125 220.925781 159.410156 221.164062 158.046875 C 221.574219 155.675781 221.496094 152.925781 220.921875 150.597656 C 220.582031 149.238281 220.050781 147.957031 219.523438 146.667969 Z M 219.523438 146.667969 " fill-opacity="1" fill-rule="nonzero"/></g><g clip-path="url(#d3dd64ce12)"><path fill="#77b90e" d="M 89.632812 140.132812 C 90.292969 140.234375 90.933594 140.160156 91.601562 140.148438 L 94.570312 140.136719 C 98.039062 140.144531 101.578125 140.203125 105.03125 140.519531 L 119.167969 142.277344 L 122.832031 143.015625 C 123.667969 143.203125 124.554688 143.453125 125.40625 143.507812 C 122.414062 147.964844 121.210938 153.007812 122.269531 158.320312 C 122.457031 159.25 122.707031 160.171875 123.019531 161.070312 C 123.273438 161.796875 123.972656 162.9375 124.019531 163.664062 C 120.789062 163.847656 117.945312 165.257812 115.265625 166.96875 C 114.464844 166.597656 113.460938 166.425781 112.617188 166.144531 C 109.679688 165.160156 107.375 163.535156 105.488281 161.074219 C 107.140625 160.609375 108.777344 160.160156 110.351562 159.449219 C 109.984375 159.316406 109.535156 159.304688 109.148438 159.222656 C 108.609375 159.117188 108.082031 158.953125 107.566406 158.765625 C 103.5625 157.320312 100.652344 154.921875 98.84375 151.0625 C 99.929688 150.820312 101.003906 150.589844 102.003906 150.097656 C 101.53125 149.972656 101.042969 149.933594 100.570312 149.820312 C 99.59375 149.582031 98.617188 149.230469 97.707031 148.804688 C 94.273438 147.199219 90.746094 143.96875 89.4375 140.34375 Z M 89.632812 140.132812 " fill-opacity="1" fill-rule="nonzero"/></g><path fill="#9e50b8" d="M 110.128906 178.734375 C 110.445312 176.765625 111.023438 174.894531 111.960938 173.125 C 113.734375 169.769531 116.816406 166.847656 120.394531 165.492188 C 121.675781 165.007812 123.011719 164.75 124.3125 164.34375 L 124.515625 164.277344 C 127.007812 168.242188 129.996094 170.765625 134.4375 172.296875 C 134.84375 172.378906 135.355469 172.417969 135.722656 172.605469 C 135.105469 176.09375 134.949219 179.578125 136.050781 182.988281 C 136.441406 184.203125 137.027344 185.371094 137.617188 186.5 C 136.40625 186.753906 135.183594 187.039062 134.027344 187.492188 C 130.621094 188.828125 127.542969 191.398438 125.5625 194.460938 L 124.441406 196.335938 L 123.253906 196.226562 C 119.71875 195.835938 115.5625 193.351562 113.378906 190.554688 C 110.566406 186.957031 109.582031 183.25 110.128906 178.734375 Z M 110.128906 178.734375 " fill-opacity="1" fill-rule="nonzero"/><path fill="#d9a2e0" d="M 120.925781 167.472656 C 121.492188 167.421875 122.148438 167.558594 122.628906 167.867188 C 123.21875 168.246094 123.675781 168.828125 123.820312 169.523438 C 124.023438 170.507812 123.789062 171.472656 123.238281 172.304688 C 122.324219 173.683594 121.050781 174.40625 119.453125 174.722656 C 118.707031 174.734375 118.050781 174.695312 117.382812 174.335938 C 116.808594 174.03125 116.371094 173.421875 116.230469 172.785156 C 116.007812 171.796875 116.433594 170.65625 116.996094 169.855469 C 117.953125 168.480469 119.308594 167.761719 120.925781 167.472656 Z M 120.925781 167.472656 " fill-opacity="1" fill-rule="nonzero"/><path fill="#82359e" d="M 134.4375 172.296875 C 134.84375 172.378906 135.355469 172.417969 135.722656 172.605469 C 135.105469 176.09375 134.949219 179.578125 136.050781 182.988281 C 136.441406 184.203125 137.027344 185.371094 137.617188 186.5 C 136.40625 186.753906 135.183594 187.039062 134.027344 187.492188 C 130.621094 188.828125 127.542969 191.398438 125.5625 194.460938 L 124.441406 196.335938 L 123.253906 196.226562 C 119.71875 195.835938 115.5625 193.351562 113.378906 190.554688 C 110.566406 186.957031 109.582031 183.25 110.128906 178.734375 C 110.832031 179.976562 111.082031 181.4375 111.980469 182.585938 C 112.671875 183.464844 113.332031 184.164062 114.21875 184.855469 C 116.613281 186.726562 120.050781 187.511719 123.046875 187.125 C 126.402344 186.695312 129.734375 184.984375 131.785156 182.253906 C 133.527344 179.9375 134.21875 177.207031 134.398438 174.359375 C 134.441406 173.683594 134.535156 172.96875 134.4375 172.296875 Z M 134.4375 172.296875 " fill-opacity="1" fill-rule="nonzero"/><g clip-path="url(#d1cfe8f6e0)"><path fill="#63a50a" d="M 209.378906 120.683594 L 209.539062 120.675781 C 210.328125 120.628906 211.160156 120.308594 211.953125 120.1875 C 215.261719 119.683594 218.207031 120.035156 221.160156 121.652344 C 219.890625 123.082031 218.730469 124.472656 217.710938 126.097656 C 221.238281 123.988281 225.46875 122.757812 229.5625 123.789062 C 231.34375 124.238281 232.925781 125.167969 234.425781 126.203125 C 233.472656 127.097656 232.445312 128.050781 231.660156 129.097656 C 235.335938 128.328125 239.171875 128.605469 242.371094 130.738281 C 243.253906 131.328125 244.050781 132.015625 244.800781 132.769531 C 243.820312 133.136719 242.902344 133.542969 242.023438 134.121094 C 246.167969 134.421875 251.328125 136.746094 253.929688 140.089844 L 254.039062 140.253906 C 253.109375 140.21875 252.121094 140.472656 251.214844 140.667969 L 246.886719 141.628906 C 239.25 143.300781 231.628906 145.128906 223.871094 146.183594 C 222.5 146.367188 220.886719 146.746094 219.523438 146.667969 C 217.867188 143.269531 215.570312 140.574219 212.394531 138.484375 C 207.675781 135.382812 202.191406 134.570312 196.707031 135.710938 C 198.398438 133.179688 200.070312 130.621094 201.988281 128.253906 C 204.226562 125.492188 206.734375 123.050781 209.378906 120.683594 Z M 209.378906 120.683594 " fill-opacity="1" fill-rule="nonzero"/></g><g clip-path="url(#2d8c3f12ea)"><path fill="#63a50a" d="M 173.164062 130.421875 L 173.519531 130.335938 C 173.917969 127.90625 174.066406 125.40625 174.195312 122.949219 C 174.535156 116.421875 174.320312 109.976562 173.890625 103.464844 L 173.410156 97.332031 C 173.355469 96.644531 173.363281 95.953125 173.285156 95.265625 L 172.164062 86.027344 C 172 84.671875 171.691406 83.25 171.695312 81.890625 L 171.886719 81.761719 C 173.347656 82.476562 174.609375 83.570312 175.746094 84.71875 C 177.351562 86.332031 178.863281 88.164062 179.605469 90.351562 C 180.105469 91.835938 180.324219 93.328125 180.316406 94.890625 L 182.140625 91.632812 C 185.664062 93.28125 187.839844 95.828125 189.152344 99.464844 C 189.925781 101.597656 189.890625 103.613281 189.46875 105.816406 C 190.644531 104.773438 192.097656 103.578125 193.507812 102.863281 L 193.808594 102.722656 C 194.402344 103.210938 194.886719 103.890625 195.324219 104.519531 C 196.960938 106.882812 197.875 109.660156 198.136719 112.511719 C 198.667969 118.230469 196.511719 123.527344 193.640625 128.339844 C 193.5 128.460938 193.414062 128.585938 193.308594 128.742188 C 192.15625 130.414062 190.65625 131.949219 189.265625 133.429688 C 188.320312 134.433594 187.273438 135.695312 186.058594 136.378906 C 185 135.324219 183.894531 134.386719 182.664062 133.535156 C 179.707031 131.710938 176.609375 130.738281 173.164062 130.421875 Z M 173.164062 130.421875 " fill-opacity="1" fill-rule="nonzero"/></g><path fill="#509108" d="M 193.511719 102.863281 L 193.808594 102.722656 C 194.402344 103.210938 194.886719 103.890625 195.324219 104.519531 C 196.960938 106.882812 197.875 109.660156 198.136719 112.511719 C 198.667969 118.230469 196.511719 123.527344 193.640625 128.339844 C 193.5 128.460938 193.414062 128.585938 193.308594 128.742188 C 192.15625 130.414062 190.65625 131.949219 189.265625 133.429688 C 188.320312 134.433594 187.273438 135.695312 186.058594 136.378906 C 185 135.324219 183.894531 134.386719 182.664062 133.535156 L 183.070312 133.238281 C 183.5625 132.78125 183.992188 132.160156 184.410156 131.632812 L 186.988281 128.089844 C 189.34375 124.570312 191.289062 120.761719 192.28125 116.628906 C 193.359375 112.136719 193.414062 107.457031 193.507812 102.863281 Z M 193.511719 102.863281 " fill-opacity="1" fill-rule="nonzero"/><g clip-path="url(#2e12c337ff)"><path fill="#89cc0f" d="M 89.632812 140.132812 L 89.671875 140.070312 C 90.246094 139.34375 91.046875 138.671875 91.761719 138.085938 C 94.953125 135.484375 98.386719 134.398438 102.421875 133.960938 L 99.167969 132.660156 C 99.949219 131.90625 100.730469 131.179688 101.632812 130.5625 C 104.714844 128.460938 109.328125 126.917969 113.085938 127.644531 L 113.183594 127.664062 C 112.019531 126.644531 111.097656 125.53125 110.199219 124.273438 C 111.730469 123.164062 113.648438 122.464844 115.457031 121.957031 C 119.691406 120.769531 124.570312 121.441406 128.390625 123.601562 L 126.167969 119.011719 C 127.390625 118.625 128.761719 118.5 130.035156 118.363281 C 130.421875 118.761719 130.96875 118.847656 131.5 118.992188 L 134.425781 119.742188 C 137.796875 120.683594 140.945312 121.980469 143.960938 123.769531 C 146.511719 125.28125 148.695312 127.046875 150.71875 129.210938 C 151.253906 129.785156 153.160156 132.390625 153.664062 132.496094 C 153.742188 132.410156 153.871094 132.238281 153.976562 132.1875 L 157.613281 136.898438 C 156.523438 138.105469 155.605469 139.347656 154.785156 140.757812 C 151.316406 137.21875 146.484375 135.199219 141.535156 135.167969 C 136.234375 135.128906 131.253906 137.28125 127.515625 141.015625 C 126.753906 141.777344 126.023438 142.621094 125.40625 143.507812 C 124.554688 143.453125 123.667969 143.203125 122.832031 143.015625 L 119.167969 142.277344 L 105.03125 140.519531 C 101.578125 140.203125 98.039062 140.144531 94.570312 140.136719 L 91.601562 140.148438 C 90.933594 140.160156 90.292969 140.234375 89.632812 140.132812 Z M 89.632812 140.132812 " fill-opacity="1" fill-rule="nonzero"/></g><g clip-path="url(#c47ebbbde6)"><path fill="#77b90e" d="M 148.878906 103.996094 C 149.089844 103.332031 149.761719 102.53125 150.171875 101.953125 L 154.027344 105.007812 C 154.027344 102.714844 154.25 100.183594 155.125 98.039062 C 156.316406 95.117188 158.542969 92.640625 161.492188 91.417969 C 162.21875 92.59375 163.085938 93.792969 164.0625 94.769531 C 164 93.347656 163.992188 92.046875 164.386719 90.664062 C 165.222656 87.734375 166.90625 85.558594 169.101562 83.503906 C 169.738281 82.90625 170.523438 82.171875 171.304688 81.773438 C 171.578125 81.636719 171.609375 81.671875 171.886719 81.761719 L 171.695312 81.890625 C 171.691406 83.25 172 84.671875 172.164062 86.027344 L 173.285156 95.265625 C 173.363281 95.953125 173.355469 96.644531 173.410156 97.332031 L 173.890625 103.464844 C 174.320312 109.976562 174.535156 116.421875 174.195312 122.949219 C 174.066406 125.40625 173.917969 127.90625 173.519531 130.335938 L 173.164062 130.421875 C 168.632812 130.382812 164.707031 131.457031 160.953125 134.046875 C 159.738281 132.679688 158.371094 131.449219 157.183594 130.058594 C 152.242188 124.265625 148.878906 117.511719 148.824219 109.765625 L 148.839844 106.980469 C 148.871094 106.136719 149.214844 104.757812 148.878906 103.996094 Z M 148.878906 103.996094 " fill-opacity="1" fill-rule="nonzero"/></g><path fill="#6b1b87" d="M 173.164062 130.421875 C 176.609375 130.738281 179.707031 131.710938 182.664062 133.535156 C 183.894531 134.386719 185 135.324219 186.058594 136.378906 C 187.074219 137.433594 188.046875 138.480469 188.851562 139.714844 C 189.863281 138.910156 190.914062 138.230469 192.050781 137.613281 L 196.707031 135.710938 C 202.191406 134.570312 207.675781 135.382812 212.394531 138.484375 C 215.570312 140.574219 217.867188 143.269531 219.523438 146.667969 C 220.050781 147.957031 220.585938 149.238281 220.921875 150.597656 C 221.496094 152.925781 221.578125 155.675781 221.164062 158.046875 C 220.929688 159.410156 220.566406 160.703125 220.117188 162.011719 C 222.976562 163.378906 225.539062 164.828125 227.890625 166.988281 C 231.59375 171.058594 233.796875 176.042969 233.53125 181.597656 C 233.269531 187.164062 230.90625 192.097656 226.757812 195.824219 C 225.398438 197.042969 223.789062 198.078125 222.132812 198.851562 C 221.457031 199.167969 220.753906 199.4375 220.050781 199.691406 C 219.804688 199.777344 219.3125 199.886719 219.128906 200.050781 L 219.203125 200.804688 C 219.382812 201.46875 219.40625 202.171875 219.484375 202.851562 C 219.9375 206.953125 219.015625 211.144531 216.96875 214.714844 C 214.960938 218.222656 211.945312 221.152344 208.324219 222.949219 C 207.382812 223.417969 206.332031 223.667969 205.410156 224.140625 L 205.703125 225.203125 C 206.53125 230.207031 205.929688 235.09375 203.242188 239.480469 C 201.09375 242.988281 197.914062 245.890625 194.121094 247.527344 C 192.921875 248.042969 191.652344 248.363281 190.386719 248.671875 C 190.5625 249.335938 190.792969 250 190.925781 250.675781 C 191.558594 253.871094 191.441406 257.171875 190.40625 260.261719 C 188.714844 265.335938 184.84375 269.601562 180.082031 271.96875 C 175.511719 274.242188 169.976562 274.566406 165.148438 272.953125 C 160.039062 271.25 156.023438 267.679688 153.613281 262.878906 C 151.507812 258.6875 151.046875 253.417969 152.527344 248.953125 C 152.339844 248.804688 151.933594 248.792969 151.699219 248.75 C 151.148438 248.644531 150.617188 248.507812 150.078125 248.347656 C 145.136719 246.847656 141.007812 243.5 138.589844 238.933594 C 136.039062 234.117188 135.632812 228.949219 137.238281 223.75 L 135.691406 223.324219 C 130.5 221.535156 126.480469 217.726562 124.144531 212.800781 C 122.679688 209.710938 122.113281 206.339844 122.449219 202.941406 C 122.546875 201.9375 122.664062 200.894531 122.996094 199.941406 L 124.441406 196.335938 L 125.5625 194.460938 C 127.542969 191.398438 130.621094 188.828125 134.027344 187.492188 C 135.183594 187.039062 136.40625 186.753906 137.617188 186.5 C 137.027344 185.367188 136.441406 184.203125 136.050781 182.988281 C 134.949219 179.578125 135.105469 176.09375 135.722656 172.605469 C 135.355469 172.417969 134.84375 172.378906 134.441406 172.296875 C 129.996094 170.765625 127.007812 168.242188 124.515625 164.277344 C 124.382812 164.011719 124.234375 163.859375 124.019531 163.664062 C 123.972656 162.9375 123.273438 161.796875 123.023438 161.070312 C 122.710938 160.171875 122.457031 159.25 122.273438 158.320312 C 121.210938 153.007812 122.414062 147.964844 125.40625 143.507812 C 126.023438 142.621094 126.753906 141.777344 127.515625 141.015625 C 131.253906 137.28125 136.234375 135.128906 141.535156 135.167969 C 146.484375 135.199219 151.316406 137.21875 154.785156 140.757812 C 155.605469 139.347656 156.523438 138.105469 157.613281 136.898438 L 160.953125 134.046875 C 164.707031 131.457031 168.632812 130.382812 173.164062 130.421875 Z M 173.164062 130.421875 " fill-opacity="1" fill-rule="nonzero"/><path fill="#4d0d6d" d="M 214.984375 200.960938 C 215.453125 200.710938 216.417969 200.699219 216.957031 200.597656 C 217.695312 200.457031 218.40625 200.261719 219.128906 200.050781 L 219.203125 200.804688 L 219.097656 201.027344 L 218.980469 201.035156 C 218.820312 201.050781 218.703125 201.082031 218.554688 201.125 C 217.425781 201.4375 216.1875 201.535156 215.019531 201.488281 Z M 214.984375 200.960938 " fill-opacity="1" fill-rule="nonzero"/><path fill="#4d0d6d" d="M 201.457031 225.425781 C 201.476562 225.179688 201.472656 225.070312 201.597656 224.855469 L 203.574219 224.554688 L 205.410156 224.140625 L 205.703125 225.203125 C 204.320312 225.613281 202.917969 225.683594 201.484375 225.714844 Z M 201.457031 225.425781 " fill-opacity="1" fill-rule="nonzero"/><path fill="#82359e" d="M 201.644531 186.46875 C 202.269531 184.855469 202.957031 183.265625 203.335938 181.566406 C 203.886719 179.109375 203.777344 176.691406 203.546875 174.207031 C 204.242188 174.019531 204.945312 173.820312 205.664062 173.730469 L 205.65625 173.90625 C 205.636719 174.707031 205.945312 175.59375 205.976562 176.429688 C 206.105469 179.90625 204.738281 183.554688 202.289062 186.074219 C 202.089844 186.277344 201.910156 186.371094 201.644531 186.46875 Z M 201.644531 186.46875 " fill-opacity="1" fill-rule="nonzero"/><path fill="#82359e" d="M 140.472656 137.414062 C 141.617188 137.191406 143.230469 137.472656 144.363281 137.769531 C 147.726562 138.660156 151.125 141.25 152.792969 144.289062 C 152.835938 144.371094 152.949219 144.5625 152.964844 144.652344 C 153 144.863281 152.789062 145.417969 152.730469 145.65625 C 152.527344 146.492188 152.355469 147.296875 152.234375 148.148438 C 151.972656 150.039062 152.066406 152.066406 152.445312 153.933594 L 152.863281 155.605469 C 152.902344 155.757812 153.039062 156.125 153.027344 156.273438 C 153.019531 156.359375 152.859375 156.609375 152.820312 156.6875 C 152.46875 157.34375 151.988281 157.964844 151.554688 158.570312 C 150.539062 158.808594 149.5 158.878906 148.488281 159.144531 C 145.257812 159.996094 141.808594 162.140625 139.722656 164.761719 C 139.175781 165.453125 138.675781 166.140625 138.203125 166.886719 C 137.929688 167.320312 137.699219 167.820312 137.371094 168.210938 C 135.113281 167.921875 133.011719 167.410156 131.039062 166.234375 C 127.664062 164.226562 125.09375 161.3125 124.078125 157.464844 C 123.597656 155.644531 123.417969 153.6875 123.65625 151.816406 C 123.84375 150.351562 124.136719 149.050781 124.695312 147.679688 C 124.910156 147.144531 125.089844 146.675781 125.507812 146.261719 C 125.417969 146.894531 125.105469 147.460938 124.957031 148.078125 C 124.519531 149.921875 124.558594 151.695312 125.039062 153.53125 C 125.71875 156.109375 127.058594 158.199219 129.417969 159.542969 C 132.085938 161.058594 135.371094 161.34375 138.3125 160.542969 C 142.058594 159.523438 145.832031 156.789062 147.710938 153.359375 C 149.070312 150.878906 149.605469 147.757812 148.785156 145.015625 L 148.371094 143.71875 C 147.40625 141.179688 145.289062 139.164062 142.777344 138.179688 C 142.050781 137.890625 141.257812 137.773438 140.554688 137.453125 Z M 140.472656 137.414062 " fill-opacity="1" fill-rule="nonzero"/><path fill="#9e50b8" d="M 189.363281 212.203125 C 190.488281 210.097656 191.148438 207.953125 191.550781 205.605469 C 191.882812 203.6875 191.921875 201.476562 191.605469 199.554688 C 191.398438 198.304688 191.007812 197.066406 190.675781 195.84375 C 193.390625 194.953125 195.578125 193.71875 197.738281 191.84375 C 198.34375 192.777344 198.949219 193.710938 199.679688 194.554688 C 201.714844 196.910156 204.238281 198.601562 207.074219 199.832031 C 205.945312 204.09375 203.773438 207.976562 199.851562 210.261719 C 197.136719 211.847656 194.035156 212.675781 190.890625 212.429688 C 190.464844 212.394531 189.882812 212.398438 189.488281 212.261719 Z M 189.363281 212.203125 " fill-opacity="1" fill-rule="nonzero"/><path fill="#9e50b8" d="M 201.699219 136.898438 C 205.441406 136.980469 209.425781 138.871094 211.996094 141.578125 C 214.828125 144.558594 216.167969 149.003906 216.023438 153.066406 C 215.851562 157.949219 213.539062 162.316406 209.960938 165.574219 C 207.765625 167.570312 205.046875 168.792969 202.226562 169.628906 C 201.347656 167.917969 200.480469 166.304688 199.257812 164.800781 C 198.414062 163.765625 197.457031 162.882812 196.476562 161.988281 C 200.242188 161.042969 203.640625 159.308594 206 156.097656 C 208.066406 153.292969 209.265625 149.605469 208.707031 146.109375 L 208.597656 145.375 C 208.101562 142.394531 206.640625 139.820312 204.046875 138.21875 C 203.351562 137.789062 202.492188 137.5 201.851562 137.019531 Z M 201.699219 136.898438 " fill-opacity="1" fill-rule="nonzero"/><path fill="#82359e" d="M 207.074219 199.835938 C 209.335938 200.589844 211.351562 201.03125 213.75 201.015625 C 214.066406 201.015625 214.710938 201.074219 214.984375 200.960938 L 215.019531 201.488281 C 215.015625 203.085938 214.9375 204.632812 214.582031 206.195312 C 213.839844 209.457031 211.976562 212.671875 209.597656 215.003906 C 206.296875 218.234375 201.664062 220.1875 197.027344 220.152344 C 193.851562 220.125 190.667969 219.269531 187.988281 217.550781 C 187.511719 217.242188 186.855469 216.859375 186.472656 216.445312 L 186.363281 216.308594 C 187.390625 214.917969 188.441406 213.691406 189.355469 212.199219 L 189.359375 212.203125 L 189.488281 212.261719 C 189.878906 212.398438 190.464844 212.394531 190.890625 212.429688 C 194.035156 212.675781 197.136719 211.847656 199.851562 210.261719 C 203.769531 207.976562 205.945312 204.09375 207.074219 199.835938 Z M 207.074219 199.835938 " fill-opacity="1" fill-rule="nonzero"/><path fill="#82359e" d="M 153.773438 160.496094 C 154.53125 160.339844 155.207031 160.472656 155.957031 160.589844 C 158.246094 160.945312 160.324219 161.785156 162.261719 163.050781 C 164.523438 164.523438 166.046875 166.300781 167.648438 168.433594 C 165.472656 171.972656 164.636719 176.769531 165.597656 180.820312 L 166.359375 183.382812 C 163.691406 184.328125 161.234375 185.132812 158.933594 186.855469 C 157.929688 187.605469 157 188.457031 156.179688 189.40625 L 154.863281 191.050781 C 154.808594 191.121094 154.554688 191.496094 154.488281 191.523438 C 154.257812 191.613281 153.652344 191.574219 153.382812 191.589844 C 150.921875 191.726562 148.675781 191.410156 146.433594 190.34375 C 142.398438 188.421875 139.433594 185.0625 138 180.835938 L 137.644531 179.621094 C 136.597656 175.714844 137.410156 171.445312 139.460938 168.015625 C 139.738281 167.550781 140.613281 166.066406 141.074219 165.835938 C 141.230469 165.816406 141.15625 165.839844 141.324219 165.742188 L 141.457031 165.660156 C 141.460938 165.878906 141.375 165.941406 141.25 166.121094 L 141.042969 166.433594 C 140.464844 167.894531 139.707031 169.289062 139.273438 170.820312 C 138.753906 172.664062 138.621094 174.589844 138.953125 176.480469 C 139.339844 178.699219 140.738281 180.957031 142.613281 182.21875 L 142.777344 182.328125 L 143.914062 182.996094 C 146.90625 184.445312 150.773438 184.285156 153.847656 183.183594 C 157.132812 182.003906 159.652344 179.699219 161.109375 176.539062 C 162.445312 173.652344 162.714844 170.132812 161.578125 167.132812 C 160.636719 164.644531 158.699219 162.332031 156.226562 161.285156 Z M 153.773438 160.496094 " fill-opacity="1" fill-rule="nonzero"/><path fill="#82359e" d="M 172.816406 132.113281 C 176.09375 131.859375 180.320312 133.910156 182.726562 135.976562 C 184.542969 137.539062 185.875 139.527344 186.90625 141.667969 C 184.925781 143.996094 183.65625 146.710938 182.949219 149.675781 C 182.320312 152.3125 182.519531 155.027344 182.953125 157.667969 C 181.835938 157.792969 180.691406 157.910156 179.597656 158.1875 C 176.617188 158.9375 173.96875 160.441406 171.636719 162.421875 C 171.09375 162.882812 170.621094 163.410156 170.144531 163.941406 C 170.027344 164.070312 169.757812 164.457031 169.613281 164.539062 C 169.375 164.667969 166.789062 164.359375 166.324219 164.273438 C 164.445312 162.484375 162.449219 160.988281 160.050781 159.964844 C 159.363281 159.671875 158.632812 159.484375 157.945312 159.207031 C 157.636719 159.082031 157.382812 158.671875 157.183594 158.414062 C 155.992188 156.882812 155.164062 155.230469 154.628906 153.363281 C 153.609375 149.816406 153.972656 145.160156 155.855469 141.917969 L 155.945312 141.769531 C 156.046875 142.679688 155.792969 143.449219 155.660156 144.351562 C 155.527344 145.265625 155.511719 146.273438 155.59375 147.195312 C 155.8125 149.636719 157.3125 152.273438 159.199219 153.816406 C 161.082031 155.355469 163.308594 156.304688 165.710938 156.671875 C 167.25 156.90625 169.140625 156.769531 170.632812 156.289062 C 172.21875 155.777344 173.601562 155.210938 174.984375 154.242188 C 177.921875 152.183594 179.925781 148.867188 180.511719 145.351562 C 181.035156 142.191406 180.363281 139.015625 178.519531 136.402344 C 177.015625 134.28125 175.109375 133.210938 172.816406 132.113281 Z M 172.816406 132.113281 " fill-opacity="1" fill-rule="nonzero"/><path fill="#82359e" d="M 148.386719 195.800781 C 149.601562 196.316406 151.109375 196.585938 152.402344 196.859375 C 150.953125 201.597656 151.410156 206.183594 153.59375 210.59375 C 153.433594 211.253906 152.800781 212.089844 152.414062 212.65625 C 149.835938 216.417969 145.742188 218.789062 141.308594 219.570312 C 137.433594 220.253906 132.835938 218.953125 129.664062 216.699219 C 126.410156 214.386719 124.371094 210.777344 123.664062 206.90625 L 123.539062 206.125 C 123.179688 202.683594 123.820312 199.390625 125.628906 196.417969 C 125.914062 195.953125 126.226562 195.359375 126.597656 194.964844 C 126.726562 194.828125 126.898438 194.722656 127.058594 194.628906 L 126.980469 194.804688 C 126.726562 195.375 126.390625 195.902344 126.152344 196.476562 C 124.957031 199.359375 124.515625 202.335938 125.640625 205.3125 C 126.023438 206.328125 126.589844 207.230469 127.28125 208.066406 L 127.40625 208.21875 C 128.941406 210.0625 131.382812 211.222656 133.71875 211.589844 L 133.886719 211.617188 C 137.363281 212.152344 140.847656 211.230469 143.636719 209.113281 C 146.15625 207.207031 147.8125 204.777344 148.578125 201.71875 C 149.046875 199.839844 148.890625 197.660156 148.386719 195.800781 Z M 148.386719 195.800781 " fill-opacity="1" fill-rule="nonzero"/><path fill="#82359e" d="M 178.132812 195.25 C 180.835938 196.28125 183.488281 196.796875 186.390625 196.695312 C 186.757812 198.691406 187 200.617188 186.765625 202.648438 C 186.25 207.109375 184.105469 211.351562 180.582031 214.191406 C 176.769531 217.269531 171.894531 218.933594 166.980469 218.378906 C 163.648438 218.003906 160.710938 216.613281 158.117188 214.515625 C 157.300781 213.855469 156.527344 213.046875 155.917969 212.191406 C 153.570312 208.890625 151.9375 204.734375 152.550781 200.605469 L 152.664062 199.925781 C 152.65625 200.34375 152.648438 200.761719 152.726562 201.175781 C 153.003906 202.644531 153.234375 204.066406 153.941406 205.410156 L 154.015625 205.554688 L 154.34375 206.128906 C 155.957031 208.550781 158.597656 210.050781 161.425781 210.539062 C 165.324219 211.210938 169.25 210.046875 172.441406 207.792969 C 175.25 205.804688 177.34375 202.453125 177.945312 199.066406 C 178.175781 197.785156 178.152344 196.542969 178.132812 195.25 Z M 178.132812 195.25 " fill-opacity="1" fill-rule="nonzero"/><path fill="#82359e" d="M 184.4375 159.527344 C 185.058594 159.453125 185.6875 159.574219 186.300781 159.664062 C 188.957031 160.050781 191.746094 161.417969 193.835938 163.074219 C 194.710938 163.765625 195.511719 164.578125 196.175781 165.476562 C 198.625 168.800781 199.496094 172.933594 198.929688 177.007812 C 198.296875 181.539062 195.902344 185.441406 192.242188 188.175781 C 188.738281 190.796875 184.261719 192.199219 179.886719 191.550781 C 175.226562 190.859375 171.144531 188.460938 168.355469 184.644531 C 166.363281 181.917969 165.960938 178.042969 166.476562 174.777344 C 166.601562 173.96875 166.789062 173.144531 167.136719 172.398438 C 167.265625 173.148438 167.175781 173.929688 167.285156 174.691406 C 167.535156 176.40625 168.023438 177.988281 169.117188 179.371094 L 169.210938 179.492188 C 169.746094 180.175781 170.402344 180.808594 171.097656 181.332031 C 173.695312 183.28125 176.695312 184.195312 179.933594 183.714844 C 183.542969 183.179688 187.007812 181.042969 189.144531 178.097656 C 191.183594 175.285156 192.046875 171.746094 191.457031 168.3125 C 190.972656 165.484375 189.386719 162.6875 187.003906 161.035156 C 186.195312 160.476562 185.335938 160.105469 184.523438 159.582031 Z M 184.4375 159.527344 " fill-opacity="1" fill-rule="nonzero"/><path fill="#9e50b8" d="M 127.058594 194.628906 C 128.078125 193.4375 129.027344 192.257812 130.21875 191.21875 C 132.53125 189.195312 135.171875 188.164062 138.140625 187.535156 C 140.21875 190.53125 142.449219 192.917969 145.730469 194.597656 C 146.597656 195.042969 147.527344 195.351562 148.386719 195.800781 C 148.890625 197.660156 149.046875 199.839844 148.578125 201.71875 C 147.8125 204.777344 146.15625 207.207031 143.636719 209.117188 C 140.847656 211.230469 137.363281 212.152344 133.886719 211.617188 L 133.71875 211.589844 C 131.382812 211.222656 128.941406 210.0625 127.40625 208.21875 L 127.28125 208.066406 C 126.589844 207.230469 126.023438 206.328125 125.640625 205.3125 C 124.515625 202.335938 124.957031 199.359375 126.152344 196.476562 C 126.390625 195.902344 126.726562 195.375 126.980469 194.804688 Z M 127.058594 194.628906 " fill-opacity="1" fill-rule="nonzero"/><path fill="#d9a2e0" d="M 133.449219 192.175781 C 134.328125 192.070312 135.179688 192.113281 135.984375 192.515625 C 136.691406 192.871094 137.230469 193.613281 137.4375 194.371094 C 137.707031 195.355469 137.363281 196.554688 136.84375 197.402344 C 136.03125 198.726562 134.976562 199.464844 133.484375 199.828125 C 132.601562 199.921875 131.53125 199.894531 130.777344 199.359375 C 130.140625 198.90625 129.660156 198.226562 129.515625 197.457031 L 129.492188 197.300781 C 129.332031 196.40625 129.519531 195.488281 129.949219 194.691406 C 130.722656 193.265625 131.953125 192.625 133.449219 192.175781 Z M 133.449219 192.175781 " fill-opacity="1" fill-rule="nonzero"/><path fill="#af68c5" d="M 141.074219 165.835938 C 141.75 164.957031 142.617188 164.128906 143.46875 163.425781 C 146.359375 161.042969 150.097656 160.128906 153.773438 160.496094 L 156.226562 161.285156 C 158.699219 162.332031 160.636719 164.644531 161.578125 167.132812 C 162.714844 170.132812 162.445312 173.652344 161.109375 176.539062 C 159.652344 179.699219 157.132812 182.003906 153.847656 183.183594 C 150.773438 184.285156 146.90625 184.445312 143.914062 182.996094 L 142.777344 182.328125 L 142.617188 182.21875 C 140.738281 180.957031 139.339844 178.699219 138.953125 176.480469 C 138.621094 174.589844 138.753906 172.664062 139.277344 170.820312 C 139.707031 169.289062 140.464844 167.894531 141.042969 166.433594 L 141.25 166.121094 C 141.375 165.941406 141.460938 165.878906 141.457031 165.660156 L 141.328125 165.742188 C 141.15625 165.839844 141.230469 165.816406 141.074219 165.835938 Z M 141.074219 165.835938 " fill-opacity="1" fill-rule="nonzero"/><path fill="#d9a2e0" d="M 146.792969 164.253906 C 147.445312 164.199219 148.257812 164.34375 148.835938 164.636719 C 149.300781 164.875 149.804688 165.316406 149.957031 165.835938 C 150.210938 166.714844 149.988281 167.859375 149.515625 168.636719 C 148.644531 170.070312 147.351562 170.796875 145.746094 171.179688 C 144.941406 171.238281 144.085938 171.261719 143.386719 170.792969 C 142.832031 170.417969 142.421875 169.769531 142.320312 169.105469 C 142.175781 168.1875 142.605469 167.066406 143.15625 166.34375 C 144.078125 165.136719 145.304688 164.476562 146.792969 164.253906 Z M 146.792969 164.253906 " fill-opacity="1" fill-rule="nonzero"/><path fill="#9e50b8" d="M 125.507812 146.261719 C 126.539062 144.175781 127.988281 141.988281 129.917969 140.628906 C 132.308594 138.945312 134.886719 137.746094 137.820312 137.453125 C 138.695312 137.367188 139.597656 137.410156 140.472656 137.414062 L 140.554688 137.453125 C 141.257812 137.773438 142.050781 137.890625 142.777344 138.179688 C 145.289062 139.164062 147.40625 141.179688 148.371094 143.71875 L 148.785156 145.015625 C 149.605469 147.757812 149.070312 150.878906 147.710938 153.359375 C 145.832031 156.789062 142.058594 159.523438 138.3125 160.542969 C 135.371094 161.34375 132.085938 161.058594 129.417969 159.542969 C 127.058594 158.199219 125.71875 156.109375 125.039062 153.53125 C 124.558594 151.695312 124.519531 149.921875 124.957031 148.078125 C 125.105469 147.460938 125.417969 146.894531 125.507812 146.261719 Z M 125.507812 146.261719 " fill-opacity="1" fill-rule="nonzero"/><path fill="#d9a2e0" d="M 134.4375 141.109375 C 135.015625 141.144531 135.601562 141.1875 136.109375 141.5 C 136.6875 141.855469 137.160156 142.523438 137.269531 143.199219 C 137.492188 144.53125 136.988281 145.992188 136.175781 147.03125 C 135.1875 148.292969 133.980469 148.914062 132.410156 149.097656 L 131.796875 149.066406 C 131.132812 149 130.328125 148.691406 129.921875 148.140625 C 129.34375 147.351562 129.207031 146.546875 129.367188 145.589844 L 129.394531 145.429688 C 129.550781 144.503906 129.914062 143.808594 130.507812 143.085938 C 131.515625 141.855469 132.898438 141.265625 134.4375 141.109375 Z M 134.4375 141.109375 " fill-opacity="1" fill-rule="nonzero"/><path fill="#9e50b8" d="M 167.136719 172.398438 C 168.222656 168.429688 170.273438 165.363281 173.515625 162.8125 C 176.640625 160.355469 180.445312 159.046875 184.4375 159.527344 L 184.523438 159.582031 C 185.335938 160.105469 186.195312 160.476562 187.003906 161.035156 C 189.386719 162.6875 190.972656 165.484375 191.457031 168.3125 C 192.046875 171.746094 191.183594 175.285156 189.144531 178.097656 C 187.007812 181.042969 183.542969 183.179688 179.933594 183.714844 C 176.695312 184.195312 173.695312 183.28125 171.097656 181.332031 C 170.402344 180.808594 169.746094 180.175781 169.210938 179.492188 L 169.117188 179.371094 C 168.023438 177.988281 167.535156 176.40625 167.285156 174.691406 C 167.175781 173.929688 167.265625 173.148438 167.136719 172.398438 Z M 167.136719 172.398438 " fill-opacity="1" fill-rule="nonzero"/><path fill="#d9a2e0" d="M 176.347656 162.988281 C 177.179688 162.933594 177.964844 162.933594 178.714844 163.351562 C 179.339844 163.699219 179.832031 164.320312 180.035156 165.003906 C 180.324219 165.988281 180.199219 167.03125 179.667969 167.914062 C 178.921875 169.164062 177.71875 169.8125 176.34375 170.128906 L 175.1875 170.128906 C 174.433594 170.046875 173.601562 169.644531 173.148438 169.023438 C 172.691406 168.40625 172.480469 167.632812 172.582031 166.867188 L 172.605469 166.71875 C 172.671875 166.242188 172.8125 165.847656 173.039062 165.421875 C 173.730469 164.117188 174.984375 163.398438 176.347656 162.988281 Z M 176.347656 162.988281 " fill-opacity="1" fill-rule="nonzero"/><path fill="#9e50b8" d="M 152.664062 199.925781 C 152.6875 199.15625 152.839844 198.339844 153.039062 197.59375 C 153.304688 196.582031 153.628906 195.601562 154.09375 194.65625 C 156.101562 190.59375 159.65625 187.476562 163.960938 186.042969 C 165.113281 185.660156 166.246094 185.5 167.445312 185.363281 C 167.46875 185.363281 167.679688 185.335938 167.679688 185.335938 C 167.792969 185.421875 167.976562 185.84375 168.050781 185.980469 C 168.363281 186.539062 168.6875 187.085938 169.050781 187.617188 C 171.464844 191.125 174.371094 193.351562 178.132812 195.25 C 178.152344 196.542969 178.175781 197.785156 177.945312 199.066406 C 177.34375 202.453125 175.25 205.804688 172.441406 207.792969 C 169.25 210.046875 165.324219 211.210938 161.425781 210.539062 C 158.597656 210.050781 155.957031 208.550781 154.34375 206.128906 L 154.015625 205.554688 L 153.941406 205.410156 C 153.234375 204.066406 153.003906 202.644531 152.726562 201.175781 C 152.648438 200.761719 152.65625 200.34375 152.664062 199.925781 Z M 152.664062 199.925781 " fill-opacity="1" fill-rule="nonzero"/><path fill="#d9a2e0" d="M 162.800781 190.207031 C 163.632812 190.132812 164.417969 190.140625 165.171875 190.527344 C 165.773438 190.839844 166.40625 191.441406 166.609375 192.109375 C 166.914062 193.121094 166.667969 194.234375 166.152344 195.132812 C 165.371094 196.484375 164.011719 197.28125 162.539062 197.65625 C 161.625 197.777344 160.6875 197.777344 159.851562 197.335938 C 159.21875 197 158.714844 196.339844 158.542969 195.644531 C 158.269531 194.554688 158.472656 193.476562 159.074219 192.53125 C 159.957031 191.136719 161.246094 190.539062 162.800781 190.207031 Z M 162.800781 190.207031 " fill-opacity="1" fill-rule="nonzero"/><path fill="#af68c5" d="M 196.476562 161.988281 C 192.972656 159.449219 189.15625 157.722656 184.757812 157.679688 C 184.253906 155.675781 184.074219 153.726562 184.25 151.660156 C 184.613281 147.3125 186.816406 143.238281 190.160156 140.449219 C 193.535156 137.636719 197.355469 136.511719 201.699219 136.898438 L 201.851562 137.019531 C 202.492188 137.5 203.351562 137.789062 204.046875 138.21875 C 206.640625 139.820312 208.101562 142.394531 208.597656 145.375 L 208.707031 146.109375 C 209.265625 149.605469 208.066406 153.292969 206 156.097656 C 203.640625 159.308594 200.242188 161.042969 196.476562 161.988281 Z M 196.476562 161.988281 " fill-opacity="1" fill-rule="nonzero"/><path fill="#d9a2e0" d="M 193.953125 140.875 C 194.53125 140.851562 195.054688 140.824219 195.613281 141 C 196.351562 141.234375 196.855469 141.6875 197.191406 142.378906 C 197.527344 143.070312 197.546875 143.933594 197.296875 144.660156 L 197.246094 144.808594 C 197.160156 145.050781 197.066406 145.265625 196.933594 145.488281 C 196.203125 146.738281 195.042969 147.359375 193.683594 147.722656 C 192.839844 147.855469 191.949219 147.875 191.1875 147.429688 C 190.648438 147.109375 190.167969 146.410156 190.027344 145.800781 C 189.828125 144.949219 190.019531 143.996094 190.472656 143.261719 C 191.246094 141.992188 192.527344 141.195312 193.953125 140.875 Z M 193.953125 140.875 " fill-opacity="1" fill-rule="nonzero"/><path fill="#af68c5" d="M 155.945312 141.769531 C 157.320312 139.414062 158.5625 137.429688 160.691406 135.667969 C 164.085938 132.851562 168.472656 131.691406 172.816406 132.113281 C 175.109375 133.210938 177.015625 134.28125 178.519531 136.402344 C 180.363281 139.015625 181.035156 142.191406 180.511719 145.351562 C 179.925781 148.867188 177.921875 152.183594 174.984375 154.242188 C 173.601562 155.210938 172.21875 155.78125 170.632812 156.289062 C 169.140625 156.769531 167.25 156.90625 165.710938 156.671875 C 163.308594 156.304688 161.082031 155.355469 159.199219 153.816406 C 157.3125 152.273438 155.8125 149.636719 155.59375 147.195312 C 155.511719 146.273438 155.527344 145.265625 155.660156 144.351562 C 155.792969 143.449219 156.046875 142.679688 155.945312 141.769531 Z M 155.945312 141.769531 " fill-opacity="1" fill-rule="nonzero"/><path fill="#d9a2e0" d="M 164.304688 135.582031 C 165.1875 135.488281 166.117188 135.46875 166.9375 135.859375 C 167.527344 136.140625 168.082031 136.628906 168.257812 137.277344 C 168.480469 138.117188 168.324219 139.222656 167.902344 139.980469 C 167.144531 141.332031 165.753906 142.230469 164.28125 142.605469 C 163.292969 142.75 162.414062 142.765625 161.5 142.285156 C 160.84375 141.941406 160.316406 141.351562 160.101562 140.636719 C 159.867188 139.847656 160.085938 138.960938 160.484375 138.257812 C 161.28125 136.851562 162.789062 135.984375 164.304688 135.582031 Z M 164.304688 135.582031 " fill-opacity="1" fill-rule="nonzero"/><path fill="#82359e" d="M 137.914062 225.261719 L 138.394531 224 C 140.078125 224.40625 142.101562 224.574219 143.824219 224.402344 C 147.683594 224.011719 151.371094 222.5 154.375 220.035156 C 155.625 219.011719 156.691406 217.800781 157.714844 216.558594 C 158.222656 216.847656 158.699219 217.363281 159.144531 217.742188 L 161.121094 219.363281 C 161.855469 219.707031 162.542969 220.132812 163.285156 220.460938 C 164.566406 221.03125 165.863281 221.40625 167.234375 221.683594 C 166.671875 223.234375 166.1875 224.808594 166.007812 226.453125 C 165.71875 229.082031 166.140625 231.667969 166.859375 234.1875 C 166.992188 234.652344 167.570312 235.804688 167.53125 236.21875 C 167.515625 236.382812 167.042969 236.984375 166.925781 237.140625 C 165.21875 239.449219 162.734375 241.480469 160.136719 242.699219 C 156.035156 244.621094 151.140625 244.980469 146.863281 243.421875 C 143.457031 242.175781 140.300781 239.535156 138.769531 236.222656 C 137.519531 233.523438 137.007812 230.78125 137.300781 227.820312 C 137.371094 227.136719 137.453125 226.289062 137.710938 225.648438 Z M 137.914062 225.261719 " fill-opacity="1" fill-rule="nonzero"/><path fill="#af68c5" d="M 137.914062 225.261719 L 138.394531 224 C 140.078125 224.40625 142.101562 224.574219 143.824219 224.402344 C 147.683594 224.011719 151.371094 222.5 154.375 220.035156 C 155.625 219.011719 156.691406 217.800781 157.714844 216.558594 C 158.222656 216.847656 158.699219 217.363281 159.144531 217.742188 L 161.121094 219.363281 C 162.246094 222.824219 162.539062 226.003906 160.828125 229.335938 C 159.230469 232.449219 156.21875 234.628906 152.929688 235.664062 C 152.167969 235.902344 151.421875 236.011719 150.636719 236.128906 C 147.714844 236.5625 144.34375 235.753906 141.976562 233.988281 C 139.695312 232.289062 138.484375 229.769531 138.09375 226.988281 Z M 137.914062 225.261719 " fill-opacity="1" fill-rule="nonzero"/><path fill="#82359e" d="M 218.574219 164.996094 C 218.710938 164.617188 219.035156 163.75 219.378906 163.574219 C 223.273438 165.484375 226.128906 168.960938 227.542969 173.035156 C 229.074219 177.4375 228.738281 182.578125 226.683594 186.75 C 224.539062 191.105469 220.632812 194.0625 216.089844 195.585938 C 211.710938 197.050781 206.941406 196.691406 202.816406 194.636719 C 201.160156 193.8125 199.515625 192.6875 198.382812 191.203125 L 200.828125 187.964844 L 201.644531 186.46875 C 201.910156 186.371094 202.089844 186.277344 202.289062 186.074219 C 204.738281 183.554688 206.105469 179.90625 205.976562 176.429688 C 205.945312 175.59375 205.636719 174.707031 205.65625 173.90625 L 205.664062 173.730469 L 206.738281 173.464844 C 211.492188 172.207031 216.066406 169.320312 218.574219 164.996094 Z M 218.574219 164.996094 " fill-opacity="1" fill-rule="nonzero"/><path fill="#9e50b8" d="M 218.574219 164.996094 C 219.132812 165.148438 219.6875 166.160156 219.976562 166.65625 C 221.464844 169.234375 221.980469 172.742188 221.363281 175.648438 L 221.324219 175.835938 C 220.496094 179.722656 217.875 183.285156 214.5625 185.429688 L 214.15625 185.6875 C 210.542969 187.972656 205.347656 188.996094 201.152344 188.046875 L 200.828125 187.964844 L 201.644531 186.46875 C 201.910156 186.371094 202.089844 186.277344 202.289062 186.074219 C 204.738281 183.554688 206.105469 179.90625 205.976562 176.429688 C 205.945312 175.59375 205.636719 174.707031 205.65625 173.90625 L 205.664062 173.730469 L 206.738281 173.464844 C 211.492188 172.207031 216.066406 169.320312 218.574219 164.996094 Z M 218.574219 164.996094 " fill-opacity="1" fill-rule="nonzero"/><path fill="#82359e" d="M 152.941406 251.300781 C 153.082031 250.515625 153.238281 249.789062 153.511719 249.039062 L 157.511719 249.148438 C 161.519531 248.890625 165.605469 247.144531 168.648438 244.542969 C 169.5625 243.761719 170.359375 242.855469 171.144531 241.949219 C 172.460938 243.378906 173.820312 244.617188 175.472656 245.652344 L 178.03125 247.117188 C 180.429688 248.175781 183.160156 249.015625 185.796875 249.085938 C 186.4375 254.042969 185.316406 258.8125 182.226562 262.777344 C 179.304688 266.527344 174.71875 269.132812 169.980469 269.6875 C 165.84375 270.171875 161.628906 269.414062 158.273438 266.796875 C 154.929688 264.1875 153.222656 260.199219 152.644531 256.089844 C 152.425781 254.527344 152.59375 252.828125 152.941406 251.300781 Z M 152.941406 251.300781 " fill-opacity="1" fill-rule="nonzero"/><path fill="#af68c5" d="M 152.941406 251.300781 C 153.082031 250.515625 153.238281 249.789062 153.511719 249.039062 L 157.511719 249.148438 C 161.519531 248.890625 165.605469 247.144531 168.648438 244.542969 C 169.5625 243.761719 170.359375 242.855469 171.144531 241.949219 C 172.460938 243.378906 173.820312 244.617188 175.472656 245.652344 L 178.03125 247.117188 C 178.035156 248.027344 178.066406 248.941406 177.945312 249.84375 C 177.492188 253.199219 175.78125 256.472656 173.070312 258.558594 C 169.960938 260.957031 166.113281 262.246094 162.175781 261.683594 C 160.675781 261.46875 159.429688 261.035156 158.09375 260.332031 C 156.023438 259.238281 154.296875 257.183594 153.609375 254.941406 C 153.238281 253.738281 153.097656 252.542969 152.941406 251.300781 Z M 152.941406 251.300781 " fill-opacity="1" fill-rule="nonzero"/><path fill="#82359e" d="M 184.367188 218.167969 L 185.257812 217.292969 C 187.441406 219.746094 189.792969 221.597656 192.726562 223.09375 C 195.507812 224.246094 197.949219 224.894531 200.988281 224.878906 C 201.253906 224.875 201.234375 224.808594 201.40625 225.027344 L 201.457031 225.425781 L 201.484375 225.714844 C 201.398438 227.078125 201.308594 228.441406 201.027344 229.78125 C 200.195312 233.742188 198.089844 237.410156 195.042969 240.082031 C 191.496094 243.191406 186.757812 244.761719 182.0625 244.449219 C 177.953125 244.175781 173.851562 242.230469 171.15625 239.105469 C 168.3125 235.816406 166.453125 231.375 166.84375 226.964844 C 166.878906 226.542969 166.9375 226.15625 167.132812 225.773438 C 167.238281 224.636719 167.394531 223.226562 167.851562 222.179688 L 167.859375 222.140625 C 167.886719 222.054688 167.871094 221.933594 167.945312 221.882812 C 167.976562 221.859375 168.847656 222.019531 168.988281 222.042969 C 170.367188 222.273438 171.785156 222.433594 173.1875 222.371094 C 176.261719 222.230469 179.351562 221.320312 181.996094 219.75 C 182.75 219.304688 183.425781 218.65625 184.191406 218.257812 Z M 184.367188 218.167969 " fill-opacity="1" fill-rule="nonzero"/><path fill="#9e50b8" d="M 184.367188 218.167969 L 185.257812 217.292969 C 187.441406 219.746094 189.792969 221.597656 192.726562 223.09375 C 192.4375 224.464844 192.136719 225.816406 191.617188 227.125 C 190.574219 229.757812 188.636719 232.167969 186.265625 233.726562 C 182.921875 235.921875 179.199219 236.855469 175.234375 235.996094 C 172.441406 235.390625 170.199219 233.714844 168.675781 231.332031 C 168.058594 230.363281 167.726562 229.40625 167.464844 228.304688 C 167.261719 227.464844 167.28125 226.617188 167.132812 225.773438 C 167.238281 224.636719 167.394531 223.226562 167.851562 222.179688 L 167.859375 222.140625 C 167.886719 222.054688 167.871094 221.933594 167.945312 221.882812 C 167.976562 221.859375 168.847656 222.019531 168.988281 222.042969 C 170.367188 222.273438 171.785156 222.433594 173.1875 222.371094 C 176.261719 222.230469 179.351562 221.320312 181.996094 219.75 C 182.75 219.304688 183.425781 218.65625 184.191406 218.257812 Z M 184.367188 218.167969 " fill-opacity="1" fill-rule="nonzero"/><path fill="#82359e" d="M 167.851562 222.179688 L 167.859375 222.140625 C 167.886719 222.054688 167.871094 221.933594 167.945312 221.882812 C 167.976562 221.859375 168.847656 222.019531 168.988281 222.042969 C 170.367188 222.273438 171.785156 222.433594 173.1875 222.371094 C 176.261719 222.230469 179.351562 221.320312 181.996094 219.75 C 182.75 219.304688 183.425781 218.65625 184.191406 218.257812 L 184.367188 218.167969 C 184.09375 218.753906 183.675781 219.203125 183.238281 219.667969 C 181.808594 221.1875 179.863281 222.375 177.910156 223.085938 C 175.128906 224.105469 171.96875 224.261719 169.238281 223.003906 C 168.941406 222.867188 168.695312 222.703125 168.433594 222.515625 C 168.253906 222.386719 168.066406 222.230469 167.851562 222.179688 Z M 167.851562 222.179688 " fill-opacity="1" fill-rule="nonzero"/><g fill="#ffffff" fill-opacity="1"><g transform="translate(104.503378, 335.973761)"><g><path d="M 2.328125 -0.921875 L 2.296875 -10.5 L 2.359375 -11.234375 L 2.296875 -11.84375 L 2.328125 -12.453125 L 2.390625 -13.03125 L 2.328125 -13.765625 L 2.390625 -14.328125 L 2.359375 -15 L 2.296875 -15.546875 L 2.421875 -19.125 L 2.328125 -20.078125 L 2.421875 -21.390625 L 2.625 -21.96875 L 3.3125 -22.3125 L 4.21875 -22.28125 L 4.890625 -22.34375 L 6.515625 -22.34375 L 7.09375 -22.28125 L 8.328125 -22.28125 L 9.328125 -22.34375 L 9.953125 -22.3125 L 10.921875 -22.375 L 11.484375 -22.3125 L 12.734375 -22.375 L 13.4375 -22.28125 L 15.359375 -22.3125 L 15.890625 -21.96875 L 16.28125 -21 L 16.21875 -19.796875 L 16.28125 -18.15625 L 15.953125 -17.53125 L 15.328125 -17.203125 L 12.890625 -17.265625 L 12.21875 -17.203125 L 11.59375 -17.234375 L 11.015625 -17.203125 L 10.09375 -17.265625 L 9.0625 -17.265625 L 8.453125 -16.859375 L 8.140625 -16.21875 L 8.203125 -14.78125 L 8.140625 -14.171875 L 8.140625 -13.28125 L 8.484375 -12.609375 L 9.125 -12.359375 L 9.828125 -12.390625 L 11.078125 -12.21875 L 12.765625 -12.359375 L 14.328125 -12.296875 L 15 -12.03125 L 15.328125 -11.390625 L 15.359375 -8.5625 L 15.03125 -7.5625 L 14.359375 -7.25 L 13.0625 -7.1875 L 12.421875 -7.25 L 11.75 -7.21875 L 11.109375 -7.28125 L 10.46875 -7.15625 L 9.796875 -7.28125 L 9.09375 -7.21875 L 8.453125 -6.921875 L 8.171875 -6.28125 L 8.203125 -2.90625 L 8.140625 -2.296875 L 8.234375 -1.28125 L 7.859375 -0.3125 L 7.1875 -0.03125 L 5.59375 0.09375 L 3.359375 0 L 2.65625 -0.3125 Z M 2.328125 -0.921875 "/></g></g></g><g fill="#ffffff" fill-opacity="1"><g transform="translate(121.89718, 335.973761)"><g><path d="M 2.453125 -1.015625 L 2.359375 -3.515625 L 2.421875 -4.1875 L 2.296875 -6.03125 L 2.390625 -7.34375 L 2.296875 -8.046875 L 2.328125 -9.25 L 2.390625 -9.921875 L 2.390625 -11.53125 L 2.296875 -12.453125 L 2.390625 -21.390625 L 2.65625 -22.0625 L 3.25 -22.34375 L 3.953125 -22.3125 L 4.5625 -22.40625 L 5.875 -22.28125 L 6.484375 -22.375 L 8.390625 -22.3125 L 8.9375 -22.375 L 9.640625 -22.3125 L 10.28125 -22.375 L 10.984375 -22.34375 L 11.90625 -22.375 L 12.703125 -22.3125 L 15.359375 -21.765625 L 16.46875 -21.203125 L 18.0625 -19.984375 L 18.359375 -19.5 L 18.796875 -19.03125 L 19.65625 -17.265625 L 19.828125 -16.625 L 19.921875 -16.03125 L 20.078125 -15.421875 L 20.046875 -12.890625 L 19.703125 -11.6875 L 19.46875 -11.140625 L 19.125 -10.5625 L 18.890625 -9.953125 L 18.515625 -9.421875 L 17.625 -8.5625 L 17.265625 -7.890625 L 17.359375 -7.125 L 18.328125 -5.453125 L 18.734375 -4.953125 L 19.0625 -4.375 L 19.4375 -3.796875 L 19.734375 -3.25 L 20.75 -1.6875 L 21.171875 -0.890625 L 21.03125 -0.21875 L 20.359375 -0.0625 L 19.65625 0 L 18.390625 0 L 17.75 -0.0625 L 17.046875 0 L 15.890625 -0.0625 L 15.09375 -0.25 L 14.453125 -0.828125 L 14.078125 -1.34375 L 13.796875 -1.890625 L 13.375 -2.484375 L 12.484375 -4.09375 L 12.265625 -4.6875 L 11.421875 -5.8125 L 10.921875 -6.359375 L 10.125 -6.609375 L 9.546875 -6.578125 L 8.96875 -6.578125 L 8.328125 -6.25 L 8.046875 -5.625 L 8.109375 -3.640625 L 8.015625 -2.265625 L 8.140625 -1.59375 L 8.078125 -0.921875 L 7.859375 -0.3125 L 6.859375 0 L 5.90625 0 L 5.234375 -0.0625 L 3.921875 0.03125 L 3.3125 0 L 2.6875 -0.3125 Z M 8.96875 -11.75 L 9.671875 -11.75 L 10.3125 -11.65625 L 12.796875 -11.875 L 13.28125 -12.09375 L 13.65625 -12.484375 L 14.015625 -13.03125 L 14.265625 -13.65625 L 14.359375 -14.53125 L 14.296875 -15.453125 L 14.078125 -15.953125 L 13.765625 -16.4375 L 12.765625 -17.046875 L 11.296875 -17.234375 L 9.546875 -17.265625 L 9.03125 -17.234375 L 8.390625 -16.921875 L 8.015625 -16.28125 L 8.109375 -12.703125 L 8.421875 -12.03125 Z M 8.96875 -11.75 "/></g></g></g><g fill="#ffffff" fill-opacity="1"><g transform="translate(144.014432, 335.973761)"><g><path d="M 9.421875 0.25 L 8.8125 0.09375 L 8.109375 0.0625 L 7.625 -0.1875 L 6.890625 -0.421875 L 6.28125 -0.671875 L 5.8125 -1.046875 L 4.71875 -1.6875 L 4.3125 -2.109375 L 3.453125 -3.15625 L 2.8125 -4.25 L 2.625 -4.859375 L 2.515625 -5.453125 L 2.328125 -6.09375 L 2.328125 -6.765625 L 2.234375 -7.6875 L 2.265625 -9.984375 L 2.171875 -11.265625 L 2.234375 -11.875 L 2.203125 -12.515625 L 2.265625 -13.125 L 2.171875 -13.828125 L 2.296875 -14.421875 L 2.140625 -16.34375 L 2.234375 -17.5625 L 2.109375 -18.890625 L 2.265625 -19.4375 L 2.265625 -21.359375 L 2.546875 -22 L 3.1875 -22.34375 L 6.546875 -22.3125 L 7.3125 -22.03125 L 7.65625 -21.421875 L 7.65625 -20.75 L 7.5 -19.796875 L 7.5 -19.1875 L 7.59375 -18.265625 L 7.59375 -15.703125 L 7.53125 -15.125 L 7.5625 -13.15625 L 7.65625 -12.515625 L 7.71875 -6.890625 L 7.921875 -6.21875 L 8.296875 -5.78125 L 8.78125 -5.359375 L 9.484375 -5.015625 L 10.0625 -4.859375 L 11.109375 -4.78125 L 11.96875 -4.859375 L 13.25 -5.265625 L 13.765625 -5.75 L 14.046875 -6.1875 L 14.328125 -6.796875 L 14.453125 -7.828125 L 14.421875 -9.453125 L 14.5 -10.09375 L 14.453125 -11.234375 L 14.53125 -11.9375 L 14.390625 -12.515625 L 14.5 -15.03125 L 14.390625 -15.703125 L 14.453125 -16.375 L 14.421875 -17.625 L 14.5 -18.265625 L 14.453125 -21.390625 L 14.78125 -22.09375 L 15.484375 -22.375 L 18.484375 -22.34375 L 19.5 -22.0625 L 19.765625 -21.359375 L 19.859375 -20.8125 L 19.828125 -18.234375 L 19.921875 -17.59375 L 19.828125 -16.984375 L 19.859375 -16.28125 L 19.796875 -15.296875 L 19.828125 -14.390625 L 19.765625 -13.71875 L 19.796875 -13.125 L 19.921875 -12.484375 L 19.921875 -11.90625 L 19.796875 -11.234375 L 19.890625 -8.65625 L 19.65625 -5.421875 L 19.4375 -4.8125 L 19.125 -4.28125 L 18.921875 -3.640625 L 18.515625 -3.15625 L 18.15625 -2.578125 L 16.734375 -1.3125 L 16.21875 -0.953125 L 15.640625 -0.703125 L 15.125 -0.390625 L 14.5 -0.21875 L 13.828125 0.03125 L 12.546875 0.3125 L 10.953125 0.390625 Z M 9.421875 0.25 "/></g></g></g><g fill="#ffffff" fill-opacity="1"><g transform="translate(166.035945, 335.973761)"><g><path d="M 6.125 -0.984375 L 6.09375 -3.484375 L 6.15625 -4.125 L 6.0625 -6.0625 L 6.09375 -6.734375 L 6.0625 -7.375 L 6.1875 -8.328125 L 6.09375 -9.25 L 6.09375 -10.53125 L 6.15625 -11.171875 L 6.09375 -11.78125 L 6.1875 -12.765625 L 6.09375 -16.28125 L 5.78125 -16.890625 L 5.203125 -17.234375 L 2.359375 -17.265625 L 1.53125 -17.171875 L 0.890625 -17.5 L 0.546875 -18.203125 L 0.578125 -21.390625 L 0.890625 -22.03125 L 1.59375 -22.34375 L 11.109375 -22.28125 L 11.84375 -22.375 L 12.484375 -22.375 L 13.125 -22.3125 L 13.765625 -22.3125 L 14.453125 -22.40625 L 15.0625 -22.40625 L 15.578125 -22.34375 L 16.34375 -22.40625 L 16.984375 -22.09375 L 17.296875 -21.453125 L 17.234375 -18.828125 L 17.296875 -18.15625 L 16.984375 -17.53125 L 16.25 -17.234375 L 14.5 -17.265625 L 13.921875 -17.203125 L 13.28125 -17.234375 L 12.734375 -17.203125 L 12.03125 -16.921875 L 11.78125 -16.34375 L 11.84375 -15.640625 L 11.75 -15 L 11.875 -8.65625 L 11.78125 -7.3125 L 11.84375 -6.734375 L 11.78125 -4.78125 L 11.6875 -4.125 L 11.78125 -3.578125 L 11.8125 -2.296875 L 11.75 -1.5625 L 11.78125 -0.953125 L 11.53125 -0.3125 L 10.890625 -0.0625 L 8.90625 -0.0625 L 8.296875 0 L 7.65625 -0.0625 L 7.0625 0 L 6.390625 -0.3125 Z M 6.125 -0.984375 "/></g></g></g><g fill="#ffffff" fill-opacity="1"><g transform="translate(182.089142, 335.973761)"><g><path d="M 0.421875 -0.859375 L 0.796875 -2.203125 L 1.078125 -2.84375 L 1.46875 -3.359375 L 2.390625 -5.6875 L 3.28125 -7.34375 L 3.515625 -7.984375 L 3.796875 -8.484375 L 3.984375 -9.15625 L 4.4375 -9.984375 L 4.65625 -10.59375 L 5.140625 -11.421875 L 5.65625 -12.578125 L 6 -13.15625 L 6.15625 -13.6875 L 7.953125 -17.71875 L 8.296875 -18.296875 L 9.671875 -21.171875 L 9.859375 -21.734375 L 10.46875 -22.3125 L 11.484375 -22.625 L 12.578125 -22.34375 L 13.15625 -21.734375 L 13.34375 -21.125 L 13.625 -20.65625 L 14.140625 -19.4375 L 14.78125 -18.265625 L 15.265625 -17.140625 L 15.421875 -16.625 L 16 -15.421875 L 16.1875 -14.8125 L 16.828125 -13.6875 L 16.984375 -13.09375 L 17.296875 -12.546875 L 17.5625 -12 L 17.90625 -11.421875 L 18.09375 -10.796875 L 18.390625 -10.3125 L 18.609375 -9.671875 L 18.890625 -9.125 L 19.15625 -8.484375 L 19.5 -7.984375 L 19.953125 -6.796875 L 20.265625 -6.25 L 20.5 -5.65625 L 21.03125 -4.5 L 21.234375 -3.890625 L 21.546875 -3.421875 L 21.734375 -2.78125 L 22.15625 -2.234375 L 22.375 -1.65625 L 22.5625 -0.859375 L 22.4375 -0.1875 L 21.859375 0 L 19.890625 0.0625 L 18.765625 -0.03125 L 18.203125 0.03125 L 17.359375 -0.28125 L 16.828125 -0.796875 L 16.46875 -1.375 L 16.3125 -1.953125 L 15.640625 -2.453125 L 14.59375 -2.8125 L 13.09375 -2.75 L 12.421875 -2.8125 L 11.84375 -2.8125 L 11.109375 -2.71875 L 10.4375 -2.8125 L 8.65625 -2.78125 L 8.015625 -2.84375 L 7.25 -2.515625 L 6.703125 -1.921875 L 6.15625 -0.828125 L 5.59375 -0.25 L 4.859375 0.0625 L 4.015625 -0.03125 L 1.21875 -0.03125 L 0.578125 -0.1875 Z M 10.28125 -7.890625 L 12.765625 -7.921875 L 13.3125 -8.171875 L 13.375 -8.75 L 13.15625 -9.328125 L 12.828125 -9.953125 L 12.703125 -10.46875 L 12.359375 -11.015625 L 11.9375 -12.265625 L 11.5625 -12.515625 L 11.140625 -12.1875 L 10.859375 -11.6875 L 9.578125 -8.78125 L 9.671875 -8.140625 Z M 10.28125 -7.890625 "/></g></g></g></svg>