<svg xmlns="http://www.w3.org/2000/svg" xmlns:xlink="http://www.w3.org/1999/xlink" width="415" zoomAndPan="magnify" viewBox="0 0 311.25 410.24999" height="547" preserveAspectRatio="xMidYMid meet" version="1.0"><defs><g/><clipPath id="3802a9221e"><path d="M 12.828125 0.117188 L 295.5 0.117188 L 295.5 409 L 12.828125 409 Z M 12.828125 0.117188 " clip-rule="nonzero"/></clipPath><clipPath id="1290948b17"><path d="M 32.402344 0.117188 L 275.925781 0.117188 C 281.117188 0.117188 286.09375 2.179688 289.765625 5.851562 C 293.4375 9.523438 295.5 14.5 295.5 19.691406 L 295.5 389.183594 C 295.5 394.375 293.4375 399.355469 289.765625 403.023438 C 286.09375 406.695312 281.117188 408.757812 275.925781 408.757812 L 32.402344 408.757812 C 27.210938 408.757812 22.234375 406.695312 18.5625 403.023438 C 14.890625 399.355469 12.828125 394.375 12.828125 389.183594 L 12.828125 19.691406 C 12.828125 14.5 14.890625 9.523438 18.5625 5.851562 C 22.234375 2.179688 27.210938 0.117188 32.402344 0.117188 Z M 32.402344 0.117188 " clip-rule="nonzero"/></clipPath><clipPath id="9d782c557b"><path d="M 0.828125 0.117188 L 283.5 0.117188 L 283.5 408.8125 L 0.828125 408.8125 Z M 0.828125 0.117188 " clip-rule="nonzero"/></clipPath><clipPath id="52f24c57b7"><path d="M 20.402344 0.117188 L 263.925781 0.117188 C 269.117188 0.117188 274.09375 2.179688 277.765625 5.851562 C 281.4375 9.523438 283.5 14.5 283.5 19.691406 L 283.5 389.183594 C 283.5 394.375 281.4375 399.355469 277.765625 403.023438 C 274.09375 406.695312 269.117188 408.757812 263.925781 408.757812 L 20.402344 408.757812 C 15.210938 408.757812 10.234375 406.695312 6.5625 403.023438 C 2.890625 399.355469 0.828125 394.375 0.828125 389.183594 L 0.828125 19.691406 C 0.828125 14.5 2.890625 9.523438 6.5625 5.851562 C 10.234375 2.179688 15.210938 0.117188 20.402344 0.117188 Z M 20.402344 0.117188 " clip-rule="nonzero"/></clipPath><clipPath id="b537cfbeac"><rect x="0" width="284" y="0" height="409"/></clipPath><clipPath id="12f2f920bf"><path d="M 22.953125 10.246094 L 285.917969 10.246094 L 285.917969 399 L 22.953125 399 Z M 22.953125 10.246094 " clip-rule="nonzero"/></clipPath><clipPath id="c8116b8cb4"><path d="M 36.179688 10.246094 L 272.691406 10.246094 C 276.199219 10.246094 279.5625 11.636719 282.042969 14.117188 C 284.523438 16.597656 285.917969 19.960938 285.917969 23.46875 L 285.917969 385.339844 C 285.917969 388.84375 284.523438 392.210938 282.042969 394.691406 C 279.5625 397.171875 276.199219 398.5625 272.691406 398.5625 L 36.179688 398.5625 C 32.671875 398.5625 29.308594 397.171875 26.828125 394.691406 C 24.347656 392.210938 22.953125 388.84375 22.953125 385.339844 L 22.953125 23.46875 C 22.953125 19.960938 24.347656 16.597656 26.828125 14.117188 C 29.308594 11.636719 32.671875 10.246094 36.179688 10.246094 Z M 36.179688 10.246094 " clip-rule="nonzero"/></clipPath><clipPath id="e7b70d5478"><path d="M 0.953125 0.246094 L 263.917969 0.246094 L 263.917969 388.757812 L 0.953125 388.757812 Z M 0.953125 0.246094 " clip-rule="nonzero"/></clipPath><clipPath id="80facf4c76"><path d="M 14.179688 0.246094 L 250.691406 0.246094 C 254.199219 0.246094 257.5625 1.636719 260.042969 4.117188 C 262.523438 6.597656 263.917969 9.960938 263.917969 13.46875 L 263.917969 375.339844 C 263.917969 378.84375 262.523438 382.210938 260.042969 384.691406 C 257.5625 387.171875 254.199219 388.5625 250.691406 388.5625 L 14.179688 388.5625 C 10.671875 388.5625 7.308594 387.171875 4.828125 384.691406 C 2.347656 382.210938 0.953125 378.84375 0.953125 375.339844 L 0.953125 13.46875 C 0.953125 9.960938 2.347656 6.597656 4.828125 4.117188 C 7.308594 1.636719 10.671875 0.246094 14.179688 0.246094 Z M 14.179688 0.246094 " clip-rule="nonzero"/></clipPath><clipPath id="26f1510ff1"><rect x="0" width="264" y="0" height="389"/></clipPath><clipPath id="4c50b54b4b"><path d="M 13.4375 10.246094 L 295.738281 10.246094 L 295.738281 80.136719 L 13.4375 80.136719 Z M 13.4375 10.246094 " clip-rule="nonzero"/></clipPath><clipPath id="2963b5a682"><path d="M 25.078125 10.246094 L 283.859375 10.246094 C 290.289062 10.246094 295.5 15.457031 295.5 21.882812 L 295.5 68.496094 C 295.5 74.925781 290.289062 80.136719 283.859375 80.136719 L 25.078125 80.136719 C 18.648438 80.136719 13.4375 74.925781 13.4375 68.496094 L 13.4375 21.882812 C 13.4375 15.457031 18.648438 10.246094 25.078125 10.246094 Z M 25.078125 10.246094 " clip-rule="nonzero"/></clipPath><clipPath id="22b89f54cc"><path d="M 0.4375 0.246094 L 282.6875 0.246094 L 282.6875 70.136719 L 0.4375 70.136719 Z M 0.4375 0.246094 " clip-rule="nonzero"/></clipPath><clipPath id="bf7b3e6f5a"><path d="M 12.078125 0.246094 L 270.859375 0.246094 C 277.289062 0.246094 282.5 5.457031 282.5 11.882812 L 282.5 58.496094 C 282.5 64.925781 277.289062 70.136719 270.859375 70.136719 L 12.078125 70.136719 C 5.648438 70.136719 0.4375 64.925781 0.4375 58.496094 L 0.4375 11.882812 C 0.4375 5.457031 5.648438 0.246094 12.078125 0.246094 Z M 12.078125 0.246094 " clip-rule="nonzero"/></clipPath><clipPath id="cc4f4234df"><rect x="0" width="283" y="0" height="71"/></clipPath><clipPath id="866fadc70b"><path d="M 13.4375 278.382812 L 295.582031 278.382812 L 295.582031 398.5625 L 13.4375 398.5625 Z M 13.4375 278.382812 " clip-rule="nonzero"/></clipPath><clipPath id="d9ff3a1fb9"><path d="M 25.078125 278.382812 L 283.859375 278.382812 C 290.289062 278.382812 295.5 283.59375 295.5 290.019531 L 295.5 386.925781 C 295.5 393.351562 290.289062 398.5625 283.859375 398.5625 L 25.078125 398.5625 C 18.648438 398.5625 13.4375 393.351562 13.4375 386.925781 L 13.4375 290.019531 C 13.4375 283.59375 18.648438 278.382812 25.078125 278.382812 Z M 25.078125 278.382812 " clip-rule="nonzero"/></clipPath><clipPath id="661623b146"><path d="M 0.4375 0.382812 L 282.582031 0.382812 L 282.582031 120.5625 L 0.4375 120.5625 Z M 0.4375 0.382812 " clip-rule="nonzero"/></clipPath><clipPath id="2195295933"><path d="M 12.078125 0.382812 L 270.859375 0.382812 C 277.289062 0.382812 282.5 5.59375 282.5 12.019531 L 282.5 108.925781 C 282.5 115.351562 277.289062 120.5625 270.859375 120.5625 L 12.078125 120.5625 C 5.648438 120.5625 0.4375 115.351562 0.4375 108.925781 L 0.4375 12.019531 C 0.4375 5.59375 5.648438 0.382812 12.078125 0.382812 Z M 12.078125 0.382812 " clip-rule="nonzero"/></clipPath><clipPath id="387eb1b9e5"><rect x="0" width="283" y="0" height="121"/></clipPath><clipPath id="a2254ecbb3"><path d="M 22.953125 80.136719 L 65.601562 80.136719 L 65.601562 122.785156 L 22.953125 122.785156 Z M 22.953125 80.136719 " clip-rule="nonzero"/></clipPath><clipPath id="f0ca3d61fe"><path d="M 115 131 L 200 131 L 200 273 L 115 273 Z M 115 131 " clip-rule="nonzero"/></clipPath><clipPath id="42c1bf8c72"><path d="M 158.144531 131.816406 C 158.136719 131.816406 158.136719 131.816406 158.136719 131.816406 L 158.128906 131.8125 C 121.015625 130.277344 111.132812 147.292969 117.015625 180.976562 C 122.894531 214.652344 140.671875 272.210938 154.273438 272.625 C 154.273438 272.625 154.277344 272.625 154.28125 272.625 C 154.28125 272.625 154.285156 272.625 154.289062 272.625 C 167.882812 272.960938 188.789062 216.460938 196.507812 183.15625 C 204.222656 149.847656 195.28125 132.316406 158.144531 131.816406 Z M 169.105469 162.855469 C 171.058594 163.28125 172.976562 163.925781 174.722656 164.894531 C 172.730469 164.730469 170.804688 164.535156 168.882812 164.414062 C 166.964844 164.292969 165.050781 164.25 163.132812 164.238281 C 159.296875 164.222656 155.484375 164.460938 151.511719 164.726562 C 153.289062 163.789062 155.226562 163.214844 157.179688 162.816406 C 159.140625 162.425781 161.132812 162.21875 163.144531 162.21875 C 165.140625 162.214844 167.144531 162.429688 169.105469 162.855469 Z M 139.535156 144.140625 C 141.949219 143.699219 144.410156 143.480469 146.867188 143.539062 C 149.667969 143.59375 151.78125 143.902344 154.179688 144.492188 C 156.574219 145.0625 158.910156 145.925781 161.019531 147.1875 C 158.578125 146.917969 156.222656 146.621094 153.867188 146.425781 C 151.515625 146.214844 149.167969 146.105469 146.820312 146.046875 C 142.109375 145.929688 137.429688 146.148438 132.542969 146.386719 C 134.742188 145.257812 137.132812 144.597656 139.535156 144.140625 Z M 118.542969 177.015625 C 119.871094 176.019531 121.414062 175.421875 122.984375 175.011719 C 124.5625 174.609375 126.242188 175.582031 127.871094 175.59375 C 129.503906 175.605469 131.078125 174.679688 132.644531 175.105469 C 134.207031 175.53125 135.726562 176.160156 137.078125 177.089844 C 135.4375 177.078125 133.886719 176.96875 132.355469 176.886719 C 130.824219 176.808594 129.3125 176.769531 127.800781 176.746094 C 124.761719 176.695312 121.785156 176.84375 118.542969 177.015625 Z M 130.558594 203.074219 C 131.773438 202.277344 133.132812 201.855469 134.492188 201.546875 C 135.851562 201.257812 137.246094 201.132812 138.628906 201.152344 C 140.011719 201.175781 141.398438 201.339844 142.746094 201.664062 C 144.105469 202 145.425781 202.457031 146.65625 203.21875 C 145.234375 203.488281 143.886719 203.5625 142.558594 203.628906 C 141.214844 203.671875 139.160156 203.917969 137.847656 203.894531 C 135.207031 203.835938 133.375 203.511719 130.558594 203.074219 Z M 150.324219 243.339844 C 149.339844 243.625 148.328125 243.753906 147.320312 243.753906 C 146.308594 243.761719 145.296875 243.628906 144.328125 243.367188 C 143.359375 243.085938 142.410156 242.714844 141.546875 242.078125 C 142.585938 241.832031 143.554688 241.765625 144.507812 241.699219 C 145.464844 241.640625 146.394531 241.621094 147.320312 241.628906 C 148.246094 241.625 149.164062 241.644531 150.105469 241.679688 C 151.058594 241.722656 151.992188 241.773438 153.046875 241.867188 C 152.269531 242.613281 151.296875 243.03125 150.324219 243.339844 Z M 153.664062 216.882812 C 152.019531 216.148438 150.457031 215.203125 149.179688 213.867188 C 151.023438 213.980469 152.6875 214.238281 154.355469 214.449219 L 159.269531 214.617188 C 162.53125 215.046875 165.742188 215.828125 169.324219 216.453125 C 167.757812 217.457031 165.988281 217.929688 164.222656 218.222656 C 162.449219 218.492188 160.632812 218.507812 158.851562 218.28125 C 157.070312 218.066406 155.316406 217.589844 153.664062 216.882812 Z M 162.777344 253.550781 C 162.097656 253.742188 161.410156 253.839844 160.714844 253.839844 C 160.03125 253.839844 159.34375 253.75 158.671875 253.570312 C 158.011719 253.378906 157.363281 253.125 156.773438 252.691406 C 157.484375 252.523438 158.140625 252.476562 158.796875 252.429688 C 159.449219 252.394531 160.085938 252.382812 160.71875 252.382812 C 161.351562 252.382812 161.984375 252.394531 162.628906 252.417969 C 163.273438 252.449219 163.914062 252.484375 164.636719 252.550781 C 164.109375 253.054688 163.4375 253.34375 162.777344 253.550781 Z M 175.648438 235.015625 C 174.464844 234.859375 173.296875 234.730469 172.121094 234.597656 C 169.746094 234.316406 167.375 234.140625 164.777344 233.550781 C 165.933594 232.832031 167.199219 232.472656 168.480469 232.246094 C 169.765625 232.019531 170.988281 233.234375 172.292969 233.371094 C 173.597656 233.515625 174.996094 232.589844 176.207031 233.148438 C 177.421875 233.710938 178.558594 234.492188 179.355469 235.597656 C 178.015625 235.386719 176.839844 235.175781 175.648438 235.015625 Z M 176.394531 191.742188 C 174.738281 191.941406 173.070312 191.988281 171.402344 191.875 C 169.738281 191.769531 168.085938 191.5 166.464844 191.066406 C 164.851562 190.648438 163.265625 190.046875 161.816406 189.15625 C 163.519531 189.109375 165.132812 189.195312 166.746094 189.28125 C 168.359375 189.359375 169.953125 189.4375 171.554688 189.550781 C 173.152344 189.652344 174.753906 189.785156 176.363281 189.929688 C 177.976562 190.070312 179.59375 190.242188 181.269531 190.53125 C 179.695312 191.199219 178.046875 191.539062 176.394531 191.742188 Z M 193.503906 174.140625 C 192.039062 173.972656 190.582031 173.863281 189.125 173.753906 C 186.195312 173.550781 183.292969 173.5 180.09375 173.242188 C 181.449219 172.320312 182.980469 171.820312 184.53125 171.476562 C 186.097656 171.152344 187.90625 172.351562 189.496094 172.449219 C 191.105469 172.558594 192.480469 171.582031 193.980469 172.140625 C 195.488281 172.707031 196.910156 173.5 198.078125 174.628906 C 196.46875 174.5 194.984375 174.277344 193.503906 174.140625 Z M 193.503906 174.140625 " clip-rule="nonzero"/></clipPath><linearGradient x1="-2.186998" gradientTransform="matrix(0.978182, 0, 0, 0.979522, 113.273173, 81.957275)" y1="122.727997" x2="92.977998" gradientUnits="userSpaceOnUse" y2="122.727997" id="093a723edc"><stop stop-opacity="1" stop-color="rgb(93.328857%, 54.119873%, 2.349854%)" offset="0"/><stop stop-opacity="1" stop-color="rgb(93.363953%, 54.016113%, 2.349854%)" offset="0.0625"/><stop stop-opacity="1" stop-color="rgb(93.434143%, 53.813171%, 2.349854%)" offset="0.078125"/><stop stop-opacity="1" stop-color="rgb(93.502808%, 53.616333%, 2.349854%)" offset="0.09375"/><stop stop-opacity="1" stop-color="rgb(93.569946%, 53.417969%, 2.349854%)" offset="0.109375"/><stop stop-opacity="1" stop-color="rgb(93.638611%, 53.22113%, 2.349854%)" offset="0.125"/><stop stop-opacity="1" stop-color="rgb(93.707275%, 53.022766%, 2.349854%)" offset="0.140625"/><stop stop-opacity="1" stop-color="rgb(93.774414%, 52.824402%, 2.349854%)" offset="0.15625"/><stop stop-opacity="1" stop-color="rgb(93.843079%, 52.627563%, 2.349854%)" offset="0.171875"/><stop stop-opacity="1" stop-color="rgb(93.911743%, 52.429199%, 2.349854%)" offset="0.1875"/><stop stop-opacity="1" stop-color="rgb(93.978882%, 52.232361%, 2.349854%)" offset="0.203125"/><stop stop-opacity="1" stop-color="rgb(94.047546%, 52.033997%, 2.349854%)" offset="0.21875"/><stop stop-opacity="1" stop-color="rgb(94.116211%, 51.835632%, 2.349854%)" offset="0.234375"/><stop stop-opacity="1" stop-color="rgb(94.18335%, 51.638794%, 2.349854%)" offset="0.25"/><stop stop-opacity="1" stop-color="rgb(94.252014%, 51.44043%, 2.349854%)" offset="0.265625"/><stop stop-opacity="1" stop-color="rgb(94.320679%, 51.243591%, 2.349854%)" offset="0.28125"/><stop stop-opacity="1" stop-color="rgb(94.387817%, 51.045227%, 2.349854%)" offset="0.296875"/><stop stop-opacity="1" stop-color="rgb(94.456482%, 50.846863%, 2.349854%)" offset="0.3125"/><stop stop-opacity="1" stop-color="rgb(94.525146%, 50.650024%, 2.349854%)" offset="0.328125"/><stop stop-opacity="1" stop-color="rgb(94.592285%, 50.45166%, 2.349854%)" offset="0.34375"/><stop stop-opacity="1" stop-color="rgb(94.66095%, 50.254822%, 2.349854%)" offset="0.359375"/><stop stop-opacity="1" stop-color="rgb(94.729614%, 50.056458%, 2.349854%)" offset="0.375"/><stop stop-opacity="1" stop-color="rgb(94.798279%, 49.858093%, 2.349854%)" offset="0.390625"/><stop stop-opacity="1" stop-color="rgb(94.865417%, 49.661255%, 2.349854%)" offset="0.40625"/><stop stop-opacity="1" stop-color="rgb(94.934082%, 49.462891%, 2.349854%)" offset="0.421875"/><stop stop-opacity="1" stop-color="rgb(95.002747%, 49.266052%, 2.349854%)" offset="0.4375"/><stop stop-opacity="1" stop-color="rgb(95.069885%, 49.067688%, 2.349854%)" offset="0.453125"/><stop stop-opacity="1" stop-color="rgb(95.13855%, 48.869324%, 2.349854%)" offset="0.46875"/><stop stop-opacity="1" stop-color="rgb(95.207214%, 48.672485%, 2.349854%)" offset="0.484375"/><stop stop-opacity="1" stop-color="rgb(95.274353%, 48.474121%, 2.349854%)" offset="0.5"/><stop stop-opacity="1" stop-color="rgb(95.343018%, 48.277283%, 2.349854%)" offset="0.515625"/><stop stop-opacity="1" stop-color="rgb(95.411682%, 48.078918%, 2.349854%)" offset="0.53125"/><stop stop-opacity="1" stop-color="rgb(95.478821%, 47.880554%, 2.349854%)" offset="0.546875"/><stop stop-opacity="1" stop-color="rgb(95.547485%, 47.683716%, 2.349854%)" offset="0.5625"/><stop stop-opacity="1" stop-color="rgb(95.61615%, 47.485352%, 2.349854%)" offset="0.578125"/><stop stop-opacity="1" stop-color="rgb(95.683289%, 47.286987%, 2.349854%)" offset="0.59375"/><stop stop-opacity="1" stop-color="rgb(95.751953%, 47.090149%, 2.349854%)" offset="0.609375"/><stop stop-opacity="1" stop-color="rgb(95.820618%, 46.891785%, 2.349854%)" offset="0.625"/><stop stop-opacity="1" stop-color="rgb(95.887756%, 46.694946%, 2.349854%)" offset="0.640625"/><stop stop-opacity="1" stop-color="rgb(95.956421%, 46.496582%, 2.349854%)" offset="0.65625"/><stop stop-opacity="1" stop-color="rgb(96.025085%, 46.298218%, 2.349854%)" offset="0.671875"/><stop stop-opacity="1" stop-color="rgb(96.09375%, 46.101379%, 2.349854%)" offset="0.6875"/><stop stop-opacity="1" stop-color="rgb(96.160889%, 45.903015%, 2.349854%)" offset="0.703125"/><stop stop-opacity="1" stop-color="rgb(96.229553%, 45.706177%, 2.349854%)" offset="0.71875"/><stop stop-opacity="1" stop-color="rgb(96.298218%, 45.507812%, 2.349854%)" offset="0.734375"/><stop stop-opacity="1" stop-color="rgb(96.365356%, 45.309448%, 2.349854%)" offset="0.75"/><stop stop-opacity="1" stop-color="rgb(96.434021%, 45.11261%, 2.349854%)" offset="0.765625"/><stop stop-opacity="1" stop-color="rgb(96.502686%, 44.914246%, 2.349854%)" offset="0.78125"/><stop stop-opacity="1" stop-color="rgb(96.569824%, 44.717407%, 2.349854%)" offset="0.796875"/><stop stop-opacity="1" stop-color="rgb(96.638489%, 44.519043%, 2.349854%)" offset="0.8125"/><stop stop-opacity="1" stop-color="rgb(96.707153%, 44.320679%, 2.349854%)" offset="0.828125"/><stop stop-opacity="1" stop-color="rgb(96.774292%, 44.12384%, 2.349854%)" offset="0.84375"/><stop stop-opacity="1" stop-color="rgb(96.842957%, 43.925476%, 2.349854%)" offset="0.859375"/><stop stop-opacity="1" stop-color="rgb(96.911621%, 43.728638%, 2.349854%)" offset="0.875"/><stop stop-opacity="1" stop-color="rgb(96.97876%, 43.530273%, 2.349854%)" offset="0.890625"/><stop stop-opacity="1" stop-color="rgb(97.047424%, 43.331909%, 2.349854%)" offset="0.90625"/><stop stop-opacity="1" stop-color="rgb(97.116089%, 43.135071%, 2.349854%)" offset="0.921875"/><stop stop-opacity="1" stop-color="rgb(97.183228%, 42.936707%, 2.349854%)" offset="0.9375"/><stop stop-opacity="1" stop-color="rgb(97.233582%, 42.793274%, 2.349854%)" offset="1"/></linearGradient><clipPath id="6d660010e5"><path d="M 148 131 L 200 131 L 200 273 L 148 273 Z M 148 131 " clip-rule="nonzero"/></clipPath><clipPath id="4a2acfa5c3"><path d="M 196.769531 183.273438 C 189.046875 216.578125 168.140625 273.070312 154.542969 272.738281 L 154.546875 272.742188 C 154.539062 272.738281 154.539062 272.738281 154.539062 272.738281 C 154.539062 272.742188 154.53125 272.738281 154.53125 272.738281 L 154.53125 272.734375 C 152.707031 272.683594 150.800781 271.570312 148.867188 269.648438 C 152.457031 266.460938 155.894531 260.789062 159.132812 253.664062 C 159.65625 253.769531 160.1875 253.84375 160.714844 253.84375 C 161.40625 253.839844 162.097656 253.742188 162.773438 253.554688 C 163.4375 253.34375 164.105469 253.058594 164.632812 252.550781 C 163.914062 252.488281 163.273438 252.449219 162.625 252.417969 C 161.980469 252.394531 161.347656 252.382812 160.71875 252.382812 C 160.378906 252.382812 160.035156 252.398438 159.695312 252.410156 C 162.121094 246.902344 164.429688 240.59375 166.601562 233.90625 C 168.507812 234.230469 170.3125 234.382812 172.117188 234.597656 C 173.296875 234.730469 174.464844 234.859375 175.648438 235.015625 C 176.839844 235.175781 178.015625 235.390625 179.351562 235.601562 C 178.558594 234.492188 177.417969 233.714844 176.207031 233.148438 C 174.992188 232.59375 173.59375 233.519531 172.292969 233.371094 C 170.984375 233.234375 169.761719 232.019531 168.480469 232.246094 C 167.992188 232.332031 167.507812 232.449219 167.03125 232.589844 C 172.160156 216.554688 176.507812 198.5625 179.789062 184.398438 C 180.6875 180.53125 181.4375 176.855469 182.011719 173.378906 C 184.46875 173.527344 186.792969 173.59375 189.125 173.757812 C 190.582031 173.867188 192.039062 173.976562 193.503906 174.144531 C 194.984375 174.28125 196.464844 174.503906 198.078125 174.632812 C 196.910156 173.503906 195.488281 172.710938 193.980469 172.144531 C 192.480469 171.585938 191.105469 172.5625 189.496094 172.453125 C 187.90625 172.351562 186.097656 171.15625 184.535156 171.480469 C 183.742188 171.65625 182.957031 171.875 182.199219 172.167969 C 185.921875 148.042969 180.503906 133.761719 152.640625 131.855469 C 154.480469 131.832031 156.386719 131.851562 158.390625 131.933594 C 158.390625 131.933594 158.390625 131.933594 158.398438 131.933594 C 158.398438 131.933594 158.398438 131.933594 158.40625 131.933594 C 195.542969 132.429688 204.484375 149.960938 196.769531 183.273438 Z M 196.769531 183.273438 " clip-rule="nonzero"/></clipPath><linearGradient x1="36.386007" gradientTransform="matrix(0.978182, 0, 0, 0.979522, 113.273173, 81.957275)" y1="122.850998" x2="93.244004" gradientUnits="userSpaceOnUse" y2="122.850998" id="4a818032d4"><stop stop-opacity="1" stop-color="rgb(97.24884%, 42.749023%, 2.349854%)" offset="0"/><stop stop-opacity="1" stop-color="rgb(97.171021%, 42.607117%, 2.349854%)" offset="0.015625"/><stop stop-opacity="1" stop-color="rgb(97.016907%, 42.323303%, 2.349854%)" offset="0.03125"/><stop stop-opacity="1" stop-color="rgb(96.861267%, 42.03949%, 2.349854%)" offset="0.046875"/><stop stop-opacity="1" stop-color="rgb(96.705627%, 41.755676%, 2.349854%)" offset="0.0625"/><stop stop-opacity="1" stop-color="rgb(96.551514%, 41.471863%, 2.349854%)" offset="0.078125"/><stop stop-opacity="1" stop-color="rgb(96.395874%, 41.188049%, 2.349854%)" offset="0.09375"/><stop stop-opacity="1" stop-color="rgb(96.240234%, 40.904236%, 2.349854%)" offset="0.109375"/><stop stop-opacity="1" stop-color="rgb(96.084595%, 40.620422%, 2.349854%)" offset="0.125"/><stop stop-opacity="1" stop-color="rgb(95.930481%, 40.336609%, 2.349854%)" offset="0.140625"/><stop stop-opacity="1" stop-color="rgb(95.774841%, 40.052795%, 2.349854%)" offset="0.15625"/><stop stop-opacity="1" stop-color="rgb(95.619202%, 39.768982%, 2.349854%)" offset="0.171875"/><stop stop-opacity="1" stop-color="rgb(95.465088%, 39.485168%, 2.349854%)" offset="0.1875"/><stop stop-opacity="1" stop-color="rgb(95.309448%, 39.201355%, 2.349854%)" offset="0.203125"/><stop stop-opacity="1" stop-color="rgb(95.153809%, 38.917542%, 2.349854%)" offset="0.21875"/><stop stop-opacity="1" stop-color="rgb(94.999695%, 38.633728%, 2.349854%)" offset="0.234375"/><stop stop-opacity="1" stop-color="rgb(94.844055%, 38.349915%, 2.349854%)" offset="0.25"/><stop stop-opacity="1" stop-color="rgb(94.688416%, 38.066101%, 2.349854%)" offset="0.265625"/><stop stop-opacity="1" stop-color="rgb(94.532776%, 37.782288%, 2.349854%)" offset="0.28125"/><stop stop-opacity="1" stop-color="rgb(94.378662%, 37.498474%, 2.349854%)" offset="0.296875"/><stop stop-opacity="1" stop-color="rgb(94.223022%, 37.214661%, 2.349854%)" offset="0.3125"/><stop stop-opacity="1" stop-color="rgb(94.067383%, 36.930847%, 2.349854%)" offset="0.328125"/><stop stop-opacity="1" stop-color="rgb(93.913269%, 36.647034%, 2.349854%)" offset="0.34375"/><stop stop-opacity="1" stop-color="rgb(93.757629%, 36.36322%, 2.349854%)" offset="0.359375"/><stop stop-opacity="1" stop-color="rgb(93.60199%, 36.079407%, 2.349854%)" offset="0.375"/><stop stop-opacity="1" stop-color="rgb(93.44635%, 35.795593%, 2.349854%)" offset="0.390625"/><stop stop-opacity="1" stop-color="rgb(93.292236%, 35.51178%, 2.349854%)" offset="0.40625"/><stop stop-opacity="1" stop-color="rgb(93.136597%, 35.227966%, 2.349854%)" offset="0.421875"/><stop stop-opacity="1" stop-color="rgb(92.980957%, 34.944153%, 2.349854%)" offset="0.4375"/><stop stop-opacity="1" stop-color="rgb(92.826843%, 34.660339%, 2.349854%)" offset="0.453125"/><stop stop-opacity="1" stop-color="rgb(92.671204%, 34.376526%, 2.349854%)" offset="0.46875"/><stop stop-opacity="1" stop-color="rgb(92.515564%, 34.092712%, 2.349854%)" offset="0.484375"/><stop stop-opacity="1" stop-color="rgb(92.36145%, 33.808899%, 2.349854%)" offset="0.5"/><stop stop-opacity="1" stop-color="rgb(92.205811%, 33.525085%, 2.349854%)" offset="0.515625"/><stop stop-opacity="1" stop-color="rgb(92.050171%, 33.241272%, 2.349854%)" offset="0.53125"/><stop stop-opacity="1" stop-color="rgb(91.894531%, 32.957458%, 2.349854%)" offset="0.546875"/><stop stop-opacity="1" stop-color="rgb(91.740417%, 32.673645%, 2.349854%)" offset="0.5625"/><stop stop-opacity="1" stop-color="rgb(91.584778%, 32.388306%, 2.349854%)" offset="0.578125"/><stop stop-opacity="1" stop-color="rgb(91.429138%, 32.104492%, 2.349854%)" offset="0.59375"/><stop stop-opacity="1" stop-color="rgb(91.275024%, 31.820679%, 2.349854%)" offset="0.609375"/><stop stop-opacity="1" stop-color="rgb(91.119385%, 31.536865%, 2.349854%)" offset="0.625"/><stop stop-opacity="1" stop-color="rgb(90.963745%, 31.253052%, 2.349854%)" offset="0.640625"/><stop stop-opacity="1" stop-color="rgb(90.809631%, 30.969238%, 2.349854%)" offset="0.65625"/><stop stop-opacity="1" stop-color="rgb(90.653992%, 30.685425%, 2.349854%)" offset="0.671875"/><stop stop-opacity="1" stop-color="rgb(90.498352%, 30.401611%, 2.349854%)" offset="0.6875"/><stop stop-opacity="1" stop-color="rgb(90.342712%, 30.117798%, 2.349854%)" offset="0.703125"/><stop stop-opacity="1" stop-color="rgb(90.188599%, 29.833984%, 2.349854%)" offset="0.71875"/><stop stop-opacity="1" stop-color="rgb(90.032959%, 29.550171%, 2.349854%)" offset="0.734375"/><stop stop-opacity="1" stop-color="rgb(89.877319%, 29.266357%, 2.349854%)" offset="0.75"/><stop stop-opacity="1" stop-color="rgb(89.723206%, 28.982544%, 2.349854%)" offset="0.765625"/><stop stop-opacity="1" stop-color="rgb(89.567566%, 28.69873%, 2.349854%)" offset="0.78125"/><stop stop-opacity="1" stop-color="rgb(89.411926%, 28.414917%, 2.349854%)" offset="0.796875"/><stop stop-opacity="1" stop-color="rgb(89.257812%, 28.131104%, 2.349854%)" offset="0.8125"/><stop stop-opacity="1" stop-color="rgb(89.102173%, 27.84729%, 2.349854%)" offset="0.828125"/><stop stop-opacity="1" stop-color="rgb(88.946533%, 27.563477%, 2.349854%)" offset="0.84375"/><stop stop-opacity="1" stop-color="rgb(88.790894%, 27.279663%, 2.349854%)" offset="0.859375"/><stop stop-opacity="1" stop-color="rgb(88.63678%, 26.99585%, 2.349854%)" offset="0.875"/><stop stop-opacity="1" stop-color="rgb(88.48114%, 26.712036%, 2.349854%)" offset="0.890625"/><stop stop-opacity="1" stop-color="rgb(88.3255%, 26.428223%, 2.349854%)" offset="0.90625"/><stop stop-opacity="1" stop-color="rgb(88.243103%, 26.277161%, 2.349854%)" offset="0.9375"/><stop stop-opacity="1" stop-color="rgb(88.238525%, 26.269531%, 2.349854%)" offset="1"/></linearGradient></defs><g clip-path="url(#3802a9221e)"><g clip-path="url(#1290948b17)"><g transform="matrix(1, 0, 0, 1, 12, 0.000000000000000597)"><g clip-path="url(#b537cfbeac)"><g clip-path="url(#9d782c557b)"><g clip-path="url(#52f24c57b7)"><path fill="#008000" d="M 0.828125 0.117188 L 283.5 0.117188 L 283.5 408.664062 L 0.828125 408.664062 Z M 0.828125 0.117188 " fill-opacity="1" fill-rule="nonzero"/></g></g></g></g></g></g><g clip-path="url(#12f2f920bf)"><g clip-path="url(#c8116b8cb4)"><g transform="matrix(1, 0, 0, 1, 22, 10)"><g clip-path="url(#26f1510ff1)"><g clip-path="url(#e7b70d5478)"><g clip-path="url(#80facf4c76)"><path fill="#fffaed" d="M 0.953125 0.246094 L 263.917969 0.246094 L 263.917969 388.527344 L 0.953125 388.527344 Z M 0.953125 0.246094 " fill-opacity="1" fill-rule="nonzero"/></g></g></g></g></g></g><g clip-path="url(#4c50b54b4b)"><g clip-path="url(#2963b5a682)"><g transform="matrix(1, 0, 0, 1, 13, 10)"><g clip-path="url(#cc4f4234df)"><g clip-path="url(#22b89f54cc)"><g clip-path="url(#bf7b3e6f5a)"><path fill="#008000" d="M 0.4375 0.246094 L 282.464844 0.246094 L 282.464844 70.136719 L 0.4375 70.136719 Z M 0.4375 0.246094 " fill-opacity="1" fill-rule="nonzero"/></g></g></g></g></g></g><g fill="#ffffff" fill-opacity="1"><g transform="translate(63.672762, 54.38798)"><g><path d="M 0.703125 -0.84375 L 0.984375 -1.53125 L 1.3125 -2.015625 L 3.765625 -6.375 L 4.015625 -6.953125 L 4.359375 -7.484375 L 4.53125 -7.90625 L 4.828125 -8.4375 L 5.0625 -8.9375 L 5.734375 -9.890625 L 6.28125 -11.140625 L 7.046875 -12.34375 L 7.796875 -13.859375 L 8.109375 -14.296875 L 8.15625 -14.859375 L 7.453125 -15.0625 L 6.515625 -15.03125 L 6 -15.109375 L 5 -15.03125 L 3.234375 -15.0625 L 2.65625 -15.140625 L 2.15625 -15.09375 L 1.625 -15.359375 L 1.3125 -15.890625 L 1.390625 -17.0625 L 1.3125 -17.578125 L 1.375 -18.1875 L 1.25 -18.75 L 1.59375 -19.28125 L 2.40625 -19.53125 L 12.0625 -19.578125 L 12.625 -19.53125 L 15.34375 -19.5625 L 15.890625 -19.390625 L 16.015625 -18.6875 L 12.375 -12.0625 L 11.984375 -11.125 L 11.59375 -10.609375 L 11.3125 -10.171875 L 11.140625 -9.671875 L 8.578125 -5.171875 L 8.625 -4.71875 L 9.421875 -4.46875 L 14.28125 -4.4375 L 14.78125 -4.5 L 15.34375 -4.4375 L 15.953125 -4.15625 L 16.234375 -3.65625 L 16.265625 -3.046875 L 16.203125 -2.546875 L 16.3125 -1.953125 L 16.234375 -1.390625 L 16.28125 -0.859375 L 15.953125 -0.328125 L 15.421875 0 L 1.421875 -0.03125 L 0.84375 -0.171875 Z M 0.703125 -0.84375 "/></g></g></g><g fill="#ffffff" fill-opacity="1"><g transform="translate(80.904882, 54.38798)"><g><path d="M 0.359375 -0.75 L 0.703125 -1.921875 L 0.953125 -2.484375 L 1.28125 -2.9375 L 2.09375 -4.96875 L 2.875 -6.421875 L 3.078125 -6.984375 L 3.328125 -7.4375 L 3.484375 -8.015625 L 3.890625 -8.75 L 4.078125 -9.28125 L 4.5 -10 L 4.9375 -11 L 5.25 -11.515625 L 5.390625 -11.984375 L 6.953125 -15.5 L 7.265625 -16.015625 L 8.46875 -18.515625 L 8.625 -19.03125 L 9.15625 -19.53125 L 10.0625 -19.8125 L 11 -19.5625 L 11.515625 -19.03125 L 11.671875 -18.5 L 11.921875 -18.078125 L 12.375 -17.015625 L 12.9375 -15.984375 L 13.359375 -15 L 13.5 -14.5625 L 14 -13.5 L 14.171875 -12.96875 L 14.71875 -11.984375 L 14.859375 -11.453125 L 15.140625 -10.984375 L 15.359375 -10.5 L 15.671875 -10 L 15.84375 -9.4375 L 16.09375 -9.03125 L 16.28125 -8.46875 L 16.53125 -7.984375 L 16.765625 -7.4375 L 17.0625 -6.984375 L 17.453125 -5.953125 L 17.734375 -5.46875 L 17.9375 -4.9375 L 18.40625 -3.9375 L 18.578125 -3.40625 L 18.859375 -2.984375 L 19.03125 -2.4375 L 19.390625 -1.953125 L 19.578125 -1.453125 L 19.75 -0.75 L 19.640625 -0.171875 L 19.140625 0 L 17.40625 0.0625 L 16.421875 -0.03125 L 15.921875 0.03125 L 15.203125 -0.25 L 14.71875 -0.703125 L 14.421875 -1.203125 L 14.28125 -1.703125 L 13.6875 -2.15625 L 12.765625 -2.453125 L 11.453125 -2.40625 L 10.875 -2.453125 L 10.359375 -2.453125 L 9.71875 -2.375 L 9.140625 -2.453125 L 7.578125 -2.4375 L 7.015625 -2.484375 L 6.34375 -2.203125 L 5.859375 -1.671875 L 5.390625 -0.71875 L 4.890625 -0.21875 L 4.25 0.0625 L 3.515625 -0.03125 L 1.0625 -0.03125 L 0.5 -0.171875 Z M 9 -6.90625 L 11.171875 -6.921875 L 11.65625 -7.15625 L 11.703125 -7.65625 L 11.515625 -8.15625 L 11.234375 -8.71875 L 11.125 -9.15625 L 10.8125 -9.640625 L 10.453125 -10.734375 L 10.109375 -10.953125 L 9.75 -10.671875 L 9.5 -10.21875 L 8.375 -7.6875 L 8.46875 -7.125 Z M 9 -6.90625 "/></g></g></g><g fill="#ffffff" fill-opacity="1"><g transform="translate(101.181255, 54.38798)"><g><path d="M 16.484375 -0.453125 L 16.125 -0.8125 L 15.78125 -1.234375 L 15.34375 -1.59375 L 14.96875 -2.046875 L 12.265625 -4.75 L 11.8125 -5.109375 L 7.828125 -9.03125 L 7.453125 -9.109375 L 7.1875 -8.765625 L 7.296875 -8.1875 L 7.203125 -1.34375 L 7.296875 -0.78125 L 7.046875 -0.21875 L 6.484375 0.0625 L 5.84375 0 L 5.25 0.078125 L 3.859375 0 L 2.90625 0.0625 L 2.375 -0.25 L 2.125 -0.859375 L 2.125 -1.390625 L 2.046875 -1.953125 L 2.125 -3.015625 L 2.0625 -3.578125 L 2.09375 -4.71875 L 2.015625 -5.3125 L 2.015625 -5.84375 L 2.0625 -6.453125 L 2.0625 -6.984375 L 2.125 -7.484375 L 2.015625 -11.484375 L 2.09375 -12.0625 L 2.0625 -12.65625 L 2.125 -13.15625 L 2.046875 -14.296875 L 2.09375 -14.859375 L 2.046875 -18.78125 L 2.40625 -19.3125 L 3.078125 -19.640625 L 3.828125 -19.421875 L 4.9375 -18.65625 L 6.453125 -17.125 L 6.8125 -16.65625 L 7.296875 -16.3125 L 7.578125 -15.890625 L 8.109375 -15.53125 L 8.40625 -15.109375 L 9.28125 -14.390625 L 9.859375 -13.765625 L 10.171875 -13.375 L 10.609375 -13.046875 L 11.59375 -12.046875 L 12.015625 -11.703125 L 13.25 -10.453125 L 13.640625 -10.34375 L 13.765625 -10.78125 L 13.75 -11.90625 L 13.859375 -12.484375 L 13.859375 -13.015625 L 13.75 -13.609375 L 13.765625 -18.6875 L 14.046875 -19.28125 L 14.71875 -19.5625 L 15.28125 -19.53125 L 15.78125 -19.578125 L 16.375 -19.5 L 16.984375 -19.5625 L 17.515625 -19.5625 L 18.078125 -19.5 L 18.6875 -19.21875 L 19.03125 -18.71875 L 18.96875 -17.265625 L 19.03125 -16.421875 L 18.90625 -15.875 L 18.90625 -14.75 L 18.96875 -14.21875 L 18.890625 -13.109375 L 19 -9.75 L 18.9375 -9.140625 L 19.046875 -8.359375 L 18.90625 -0.75 L 18.65625 -0.171875 L 18.015625 0.140625 L 17.296875 -0.078125 Z M 16.484375 -0.453125 "/></g></g></g><g fill="#ffffff" fill-opacity="1"><g transform="translate(122.239631, 54.38798)"><g><path d="M 0.359375 -0.75 L 0.703125 -1.921875 L 0.953125 -2.484375 L 1.28125 -2.9375 L 2.09375 -4.96875 L 2.875 -6.421875 L 3.078125 -6.984375 L 3.328125 -7.4375 L 3.484375 -8.015625 L 3.890625 -8.75 L 4.078125 -9.28125 L 4.5 -10 L 4.9375 -11 L 5.25 -11.515625 L 5.390625 -11.984375 L 6.953125 -15.5 L 7.265625 -16.015625 L 8.46875 -18.515625 L 8.625 -19.03125 L 9.15625 -19.53125 L 10.0625 -19.8125 L 11 -19.5625 L 11.515625 -19.03125 L 11.671875 -18.5 L 11.921875 -18.078125 L 12.375 -17.015625 L 12.9375 -15.984375 L 13.359375 -15 L 13.5 -14.5625 L 14 -13.5 L 14.171875 -12.96875 L 14.71875 -11.984375 L 14.859375 -11.453125 L 15.140625 -10.984375 L 15.359375 -10.5 L 15.671875 -10 L 15.84375 -9.4375 L 16.09375 -9.03125 L 16.28125 -8.46875 L 16.53125 -7.984375 L 16.765625 -7.4375 L 17.0625 -6.984375 L 17.453125 -5.953125 L 17.734375 -5.46875 L 17.9375 -4.9375 L 18.40625 -3.9375 L 18.578125 -3.40625 L 18.859375 -2.984375 L 19.03125 -2.4375 L 19.390625 -1.953125 L 19.578125 -1.453125 L 19.75 -0.75 L 19.640625 -0.171875 L 19.140625 0 L 17.40625 0.0625 L 16.421875 -0.03125 L 15.921875 0.03125 L 15.203125 -0.25 L 14.71875 -0.703125 L 14.421875 -1.203125 L 14.28125 -1.703125 L 13.6875 -2.15625 L 12.765625 -2.453125 L 11.453125 -2.40625 L 10.875 -2.453125 L 10.359375 -2.453125 L 9.71875 -2.375 L 9.140625 -2.453125 L 7.578125 -2.4375 L 7.015625 -2.484375 L 6.34375 -2.203125 L 5.859375 -1.671875 L 5.390625 -0.71875 L 4.890625 -0.21875 L 4.25 0.0625 L 3.515625 -0.03125 L 1.0625 -0.03125 L 0.5 -0.171875 Z M 9 -6.90625 L 11.171875 -6.921875 L 11.65625 -7.15625 L 11.703125 -7.65625 L 11.515625 -8.15625 L 11.234375 -8.71875 L 11.125 -9.15625 L 10.8125 -9.640625 L 10.453125 -10.734375 L 10.109375 -10.953125 L 9.75 -10.671875 L 9.5 -10.21875 L 8.375 -7.6875 L 8.46875 -7.125 Z M 9 -6.90625 "/></g></g></g><g fill="#ffffff" fill-opacity="1"><g transform="translate(142.516005, 54.38798)"><g><path d="M 2.125 -0.78125 L 2.0625 -3.625 L 2.125 -4.1875 L 2.046875 -4.6875 L 2.125 -5.25 L 2.0625 -5.859375 L 2.15625 -7.1875 L 2.09375 -7.828125 L 2.15625 -8.6875 L 2.0625 -9.21875 L 2.0625 -10.84375 L 2.125 -11.421875 L 2.015625 -13.125 L 2.125 -13.6875 L 2.0625 -14.171875 L 2.15625 -14.78125 L 2.015625 -16.453125 L 2.09375 -16.984375 L 2.046875 -17.59375 L 2.046875 -18.125 L 2.125 -18.75 L 2.4375 -19.21875 L 3.296875 -19.46875 L 3.828125 -19.53125 L 4.390625 -19.46875 L 6.03125 -19.53125 L 6.90625 -19.25 L 7.234375 -18.65625 L 7.203125 -18.1875 L 7.296875 -15.421875 L 7.234375 -14.921875 L 7.234375 -13.25 L 7.453125 -12.71875 L 8.046875 -12.453125 L 10.75 -12.484375 L 11.265625 -12.4375 L 12.375 -12.4375 L 12.84375 -12.71875 L 13.15625 -13.265625 L 13.15625 -14.890625 L 13.265625 -15.359375 L 13.21875 -18.40625 L 13.4375 -19.21875 L 14.28125 -19.46875 L 14.828125 -19.46875 L 15.734375 -19.5625 L 17.15625 -19.53125 L 18.015625 -19.25 L 18.296875 -18.6875 L 18.359375 -18.125 L 18.25 -17.578125 L 18.296875 -17.046875 L 18.40625 -16.515625 L 18.265625 -14.1875 L 18.359375 -11.453125 L 18.296875 -10.84375 L 18.328125 -9.78125 L 18.25 -9.1875 L 18.25 -8.625 L 18.296875 -8.046875 L 18.265625 -7.484375 L 18.390625 -6.421875 L 18.390625 -1.921875 L 18.265625 -0.78125 L 17.96875 -0.25 L 17.40625 0.0625 L 15.484375 0.0625 L 14.640625 -0.03125 L 14.078125 0.03125 L 13.515625 -0.25 L 13.25 -0.84375 L 13.15625 -1.921875 L 13.265625 -2.765625 L 13.15625 -4.75 L 13.25 -5.28125 L 13.15625 -6.984375 L 12.875 -7.546875 L 12.375 -7.828125 L 11.84375 -7.828125 L 11.28125 -7.875 L 10.734375 -7.828125 L 9.078125 -7.828125 L 8.578125 -7.875 L 7.984375 -7.875 L 7.4375 -7.546875 L 7.15625 -6.953125 L 7.234375 -4.75 L 7.1875 -4.15625 L 7.203125 -3.546875 L 7.15625 -3.015625 L 7.203125 -2.453125 L 7.15625 -1.953125 L 7.234375 -1.34375 L 7.203125 -0.78125 L 6.984375 -0.21875 L 6.375 0.03125 L 5.78125 0.078125 L 5.203125 0 L 4.390625 -0.03125 L 3.515625 0.0625 L 2.984375 0.0625 L 2.34375 -0.203125 Z M 2.125 -0.78125 "/></g></g></g><g fill="#ffffff" fill-opacity="1"><g transform="translate(162.959951, 54.38798)"><g><path d="M 10.453125 0.328125 L 9.859375 0.28125 L 8.859375 0.0625 L 8.234375 0 L 7.4375 -0.28125 L 5.25 -1.390625 L 4.328125 -2.125 L 4.015625 -2.484375 L 3.609375 -2.875 L 3.234375 -3.328125 L 2.90625 -3.65625 L 1.625 -6.203125 L 1.375 -7.265625 L 1.3125 -7.796875 L 1.171875 -8.296875 L 1.09375 -8.890625 L 1.171875 -11.140625 L 1.640625 -13.296875 L 2.0625 -14.359375 L 2.9375 -15.84375 L 4.296875 -17.4375 L 5.25 -18.125 L 5.75 -18.390625 L 6.171875 -18.6875 L 8.265625 -19.46875 L 11.234375 -19.890625 L 11.984375 -19.859375 L 13.609375 -19.578125 L 15.75 -18.90625 L 16.171875 -18.609375 L 17.015625 -18.25 L 17.65625 -17.796875 L 18.46875 -17.09375 L 19.25 -16.234375 L 19.859375 -15.390625 L 20.390625 -14.359375 L 21.09375 -12.265625 L 21.28125 -11.125 L 21.375 -9.71875 L 21.265625 -8.90625 L 21.234375 -8.328125 L 21.09375 -7.765625 L 21.0625 -7.265625 L 20.84375 -6.203125 L 20.421875 -5.140625 L 19.1875 -3.265625 L 18.796875 -2.875 L 18.4375 -2.375 L 17.65625 -1.703125 L 17.125 -1.453125 L 16.703125 -1.125 L 15.78125 -0.609375 L 13.6875 0.078125 L 12.015625 0.3125 Z M 12.015625 -4.609375 L 12.578125 -4.71875 L 12.984375 -4.921875 L 13.5 -5.0625 L 14.828125 -5.984375 L 15.21875 -6.421875 L 15.390625 -6.84375 L 15.703125 -7.34375 L 15.890625 -7.84375 L 16.125 -8.890625 L 16.171875 -10.59375 L 16.09375 -11.09375 L 15.84375 -11.625 L 15.5 -12.6875 L 14.421875 -13.828125 L 13.546875 -14.4375 L 13.046875 -14.671875 L 12.546875 -14.78125 L 11.203125 -14.953125 L 10.421875 -14.890625 L 9.328125 -14.609375 L 8.96875 -14.46875 L 7.578125 -13.515625 L 6.90625 -12.625 L 6.734375 -12.125 L 6.515625 -11.625 L 6.421875 -11.09375 L 6.28125 -10.59375 L 6.28125 -8.890625 L 6.515625 -7.84375 L 6.765625 -7.34375 L 6.90625 -6.90625 L 7.296875 -6.375 L 7.65625 -5.984375 L 8.40625 -5.359375 L 8.859375 -5.109375 L 9.859375 -4.6875 L 10.46875 -4.609375 Z M 12.015625 -4.609375 "/></g></g></g><g fill="#ffffff" fill-opacity="1"><g transform="translate(185.358919, 54.38798)"><g><path d="M 2.15625 -0.890625 L 2.0625 -3.078125 L 2.125 -3.65625 L 2.015625 -5.28125 L 2.09375 -6.421875 L 2.015625 -7.046875 L 2.046875 -8.109375 L 2.09375 -8.6875 L 2.09375 -10.078125 L 2.015625 -10.890625 L 2.09375 -18.71875 L 2.3125 -19.3125 L 2.84375 -19.5625 L 3.46875 -19.53125 L 4 -19.609375 L 5.140625 -19.5 L 5.671875 -19.578125 L 7.34375 -19.53125 L 7.828125 -19.578125 L 8.4375 -19.53125 L 9 -19.578125 L 9.609375 -19.5625 L 10.421875 -19.578125 L 11.125 -19.53125 L 13.4375 -19.046875 L 14.421875 -18.546875 L 15.8125 -17.484375 L 16.0625 -17.0625 L 16.453125 -16.65625 L 17.203125 -15.109375 L 17.34375 -14.5625 L 17.4375 -14.03125 L 17.578125 -13.5 L 17.546875 -11.28125 L 17.234375 -10.21875 L 17.046875 -9.75 L 16.734375 -9.25 L 16.53125 -8.71875 L 16.203125 -8.234375 L 15.421875 -7.484375 L 15.109375 -6.90625 L 15.203125 -6.234375 L 16.03125 -4.78125 L 16.40625 -4.328125 L 16.671875 -3.828125 L 17.015625 -3.328125 L 17.265625 -2.84375 L 18.15625 -1.484375 L 18.515625 -0.78125 L 18.40625 -0.203125 L 17.828125 -0.0625 L 17.203125 0 L 16.09375 0 L 15.53125 -0.0625 L 14.921875 0 L 13.90625 -0.0625 L 13.21875 -0.21875 L 12.65625 -0.71875 L 12.328125 -1.171875 L 12.0625 -1.640625 L 11.703125 -2.171875 L 10.921875 -3.578125 L 10.734375 -4.109375 L 10 -5.078125 L 9.546875 -5.5625 L 8.859375 -5.78125 L 8.359375 -5.75 L 7.84375 -5.75 L 7.296875 -5.46875 L 7.046875 -4.921875 L 7.09375 -3.1875 L 7.015625 -1.984375 L 7.125 -1.390625 L 7.0625 -0.8125 L 6.875 -0.28125 L 6 0 L 5.171875 0 L 4.578125 -0.0625 L 3.4375 0.03125 L 2.90625 0 L 2.34375 -0.28125 Z M 7.84375 -10.28125 L 8.46875 -10.28125 L 9.03125 -10.203125 L 11.203125 -10.390625 L 11.625 -10.59375 L 11.953125 -10.921875 L 12.265625 -11.40625 L 12.484375 -11.953125 L 12.578125 -12.71875 L 12.515625 -13.515625 L 12.328125 -13.96875 L 12.046875 -14.390625 L 11.171875 -14.921875 L 9.890625 -15.09375 L 8.359375 -15.109375 L 7.90625 -15.09375 L 7.34375 -14.8125 L 7.015625 -14.25 L 7.09375 -11.125 L 7.375 -10.53125 Z M 7.84375 -10.28125 "/></g></g></g><g fill="#ffffff" fill-opacity="1"><g transform="translate(204.713632, 54.38798)"><g><path d="M 1.34375 -0.8125 L 1.34375 -2.96875 L 1.390625 -3.484375 L 1.734375 -4.015625 L 3.578125 -4.609375 L 3.859375 -5.21875 L 3.90625 -6.3125 L 3.796875 -7.515625 L 3.9375 -8.078125 L 3.828125 -9.15625 L 3.890625 -9.71875 L 3.90625 -10.875 L 3.828125 -11.515625 L 3.796875 -11.984375 L 3.890625 -14.359375 L 3.515625 -14.859375 L 1.8125 -15.453125 L 1.53125 -15.984375 L 1.53125 -16.515625 L 1.484375 -17.0625 L 1.484375 -17.6875 L 1.53125 -18.15625 L 1.53125 -18.6875 L 1.84375 -19.28125 L 2.453125 -19.5625 L 3.546875 -19.5 L 4.078125 -19.53125 L 5.78125 -19.5 L 6.390625 -19.5625 L 9.953125 -19.53125 L 10.84375 -19.28125 L 11.0625 -18.71875 L 11.125 -18.15625 L 11.0625 -17.65625 L 11.0625 -16.015625 L 10.75 -15.484375 L 10.21875 -15.171875 L 9.609375 -15.140625 L 9.078125 -14.828125 L 8.765625 -14.328125 L 8.765625 -13.15625 L 8.828125 -12.578125 L 8.765625 -12.015625 L 8.828125 -11.484375 L 8.765625 -10.609375 L 8.828125 -9.78125 L 8.71875 -8.609375 L 8.828125 -7.484375 L 8.765625 -5.203125 L 9.078125 -4.640625 L 10.953125 -4.046875 L 11.34375 -3.578125 L 11.265625 -1.875 L 11.3125 -1.375 L 11.3125 -0.75 L 11 -0.25 L 10.46875 0.03125 L 2.171875 -0.03125 L 1.625 -0.21875 Z M 1.34375 -0.8125 "/></g></g></g><g fill="#ffffff" fill-opacity="1"><g transform="translate(217.393344, 54.38798)"><g><path d="M 0.359375 -0.75 L 0.703125 -1.921875 L 0.953125 -2.484375 L 1.28125 -2.9375 L 2.09375 -4.96875 L 2.875 -6.421875 L 3.078125 -6.984375 L 3.328125 -7.4375 L 3.484375 -8.015625 L 3.890625 -8.75 L 4.078125 -9.28125 L 4.5 -10 L 4.9375 -11 L 5.25 -11.515625 L 5.390625 -11.984375 L 6.953125 -15.5 L 7.265625 -16.015625 L 8.46875 -18.515625 L 8.625 -19.03125 L 9.15625 -19.53125 L 10.0625 -19.8125 L 11 -19.5625 L 11.515625 -19.03125 L 11.671875 -18.5 L 11.921875 -18.078125 L 12.375 -17.015625 L 12.9375 -15.984375 L 13.359375 -15 L 13.5 -14.5625 L 14 -13.5 L 14.171875 -12.96875 L 14.71875 -11.984375 L 14.859375 -11.453125 L 15.140625 -10.984375 L 15.359375 -10.5 L 15.671875 -10 L 15.84375 -9.4375 L 16.09375 -9.03125 L 16.28125 -8.46875 L 16.53125 -7.984375 L 16.765625 -7.4375 L 17.0625 -6.984375 L 17.453125 -5.953125 L 17.734375 -5.46875 L 17.9375 -4.9375 L 18.40625 -3.9375 L 18.578125 -3.40625 L 18.859375 -2.984375 L 19.03125 -2.4375 L 19.390625 -1.953125 L 19.578125 -1.453125 L 19.75 -0.75 L 19.640625 -0.171875 L 19.140625 0 L 17.40625 0.0625 L 16.421875 -0.03125 L 15.921875 0.03125 L 15.203125 -0.25 L 14.71875 -0.703125 L 14.421875 -1.203125 L 14.28125 -1.703125 L 13.6875 -2.15625 L 12.765625 -2.453125 L 11.453125 -2.40625 L 10.875 -2.453125 L 10.359375 -2.453125 L 9.71875 -2.375 L 9.140625 -2.453125 L 7.578125 -2.4375 L 7.015625 -2.484375 L 6.34375 -2.203125 L 5.859375 -1.671875 L 5.390625 -0.71875 L 4.890625 -0.21875 L 4.25 0.0625 L 3.515625 -0.03125 L 1.0625 -0.03125 L 0.5 -0.171875 Z M 9 -6.90625 L 11.171875 -6.921875 L 11.65625 -7.15625 L 11.703125 -7.65625 L 11.515625 -8.15625 L 11.234375 -8.71875 L 11.125 -9.15625 L 10.8125 -9.640625 L 10.453125 -10.734375 L 10.109375 -10.953125 L 9.75 -10.671875 L 9.5 -10.21875 L 8.375 -7.6875 L 8.46875 -7.125 Z M 9 -6.90625 "/></g></g></g><g fill="#ffffff" fill-opacity="1"><g transform="translate(237.67535, 54.38798)"><g/></g></g><g clip-path="url(#866fadc70b)"><g clip-path="url(#d9ff3a1fb9)"><g transform="matrix(1, 0, 0, 1, 13, 278)"><g clip-path="url(#387eb1b9e5)"><g clip-path="url(#661623b146)"><g clip-path="url(#2195295933)"><path fill="#008000" d="M 0.4375 0.382812 L 282.582031 0.382812 L 282.582031 120.5625 L 0.4375 120.5625 Z M 0.4375 0.382812 " fill-opacity="1" fill-rule="nonzero"/></g></g></g></g></g></g><g fill="#ffffff" fill-opacity="1"><g transform="translate(143.110249, 347.216234)"><g/></g></g><g fill="#ffffff" fill-opacity="1"><g transform="translate(150.678975, 347.216234)"><g/></g></g><g fill="#ffffff" fill-opacity="1"><g transform="translate(158.2477, 347.216234)"><g/></g></g><g clip-path="url(#a2254ecbb3)"><path fill="#000000" d="M 44.277344 80.136719 C 32.550781 80.136719 22.953125 89.730469 22.953125 101.460938 C 22.953125 113.1875 32.550781 122.785156 44.277344 122.785156 C 56.003906 122.785156 65.601562 113.1875 65.601562 101.460938 C 65.601562 89.730469 56.003906 80.136719 44.277344 80.136719 Z M 47.050781 111.269531 L 43.210938 111.269531 L 43.210938 96.128906 L 38.519531 97.621094 L 38.519531 94.421875 L 46.625 91.4375 L 47.050781 91.4375 Z M 47.050781 111.269531 " fill-opacity="1" fill-rule="nonzero"/></g><path fill="#4b8c00" d="M 135.820312 131.300781 C 135.820312 131.300781 110.234375 117.796875 119.28125 107.699219 C 123.207031 103.316406 130.492188 105.917969 134.789062 110.21875 C 141.503906 116.960938 146.007812 128.863281 146.007812 128.863281 C 146.007812 128.863281 125.171875 83.835938 143.804688 82 C 161.125 80.296875 158.242188 128.085938 158.242188 128.085938 C 158.242188 128.085938 158.375 85.042969 175.046875 87.882812 C 191.726562 90.71875 166.640625 128.527344 166.640625 128.527344 C 166.640625 128.527344 173.257812 119.652344 180.3125 115.53125 C 184.550781 113.054688 191.164062 112.191406 193.558594 115.371094 C 199.347656 123.039062 180.671875 131.324219 180.671875 131.324219 Z M 135.820312 131.300781 " fill-opacity="1" fill-rule="nonzero"/><path fill="#3b570d" d="M 177.847656 88.914062 C 188.464844 95.628906 166.644531 128.527344 166.644531 128.527344 C 166.644531 128.527344 167.230469 127.75 168.210938 126.570312 C 166.917969 128.277344 165.769531 129.871094 164.75 131.316406 C 164.75 131.316406 175.109375 109.621094 177.351562 99.308594 C 178.222656 95.3125 178.488281 91.75 177.847656 88.914062 Z M 154.066406 99.191406 C 156.746094 111.085938 158.113281 131.3125 158.113281 131.3125 L 158.398438 117.675781 C 158.140625 103.722656 155.890625 80.8125 143.804688 82 C 143.503906 82.03125 143.246094 82.101562 142.964844 82.152344 C 147.8125 84.304688 151.992188 90.019531 154.066406 99.191406 Z M 194.324219 116.722656 C 191.703125 121.628906 187.890625 125.558594 179.40625 131.320312 L 180.671875 131.320312 C 180.671875 131.324219 197.214844 123.984375 194.324219 116.722656 C 194.085938 117.128906 194.324219 116.722656 194.324219 116.722656 Z M 140.277344 120.0625 C 143.238281 124.105469 146.148438 128.878906 147.789062 131.304688 L 143.460938 122.855469 C 143.730469 123.515625 143.980469 124.144531 144.21875 124.714844 C 142.304688 120.636719 138.976562 114.425781 134.789062 110.21875 C 131.480469 106.90625 126.398438 104.617188 122.445312 105.734375 C 125.972656 107.101562 133.078125 110.246094 140.277344 120.0625 Z M 140.277344 120.0625 " fill-opacity="1" fill-rule="nonzero"/><path fill="#78b31a" d="M 133.792969 127.40625 C 133.792969 127.40625 117.957031 116.625 120.359375 110.769531 C 121.34375 108.367188 124.820312 109.335938 127.570312 114.039062 C 130.78125 119.535156 133.792969 127.40625 133.792969 127.40625 Z M 146.136719 101.976562 C 145.765625 96.464844 145.027344 85.1875 141.171875 85.777344 C 137.3125 86.367188 138.296875 98.269531 140.199219 105.308594 C 142.101562 112.347656 147.140625 125.664062 147.140625 125.664062 C 147.140625 125.664062 146.507812 107.488281 146.136719 101.976562 Z M 171.640625 97.789062 C 173.59375 93.214844 173.875 86.152344 168.390625 92.109375 C 162.90625 98.070312 160.988281 116.984375 160.988281 116.984375 C 160.988281 116.984375 169.679688 102.363281 171.640625 97.789062 Z M 187.382812 118.5625 C 190.871094 115.515625 188.933594 113.335938 183.5 115.761719 C 178.078125 118.179688 168.644531 127.476562 168.644531 127.476562 C 168.644531 127.476562 183.894531 121.605469 187.382812 118.5625 Z M 187.382812 118.5625 " fill-opacity="1" fill-rule="nonzero"/><path fill="#e14306" d="M 198.613281 182.683594 C 190.484375 218.113281 168.460938 278.210938 154.148438 277.855469 L 154.148438 277.863281 C 154.140625 277.863281 154.136719 277.855469 154.136719 277.855469 L 154.132812 277.863281 L 154.128906 277.855469 C 139.816406 277.425781 121.113281 216.203125 114.929688 180.390625 C 108.75 144.5625 119.160156 126.460938 158.230469 128.089844 L 158.238281 128.089844 L 158.242188 128.085938 C 197.347656 128.605469 206.75 147.253906 198.613281 182.683594 Z M 198.613281 182.683594 " fill-opacity="1" fill-rule="nonzero"/><g clip-path="url(#f0ca3d61fe)"><g clip-path="url(#42c1bf8c72)"><path fill="url(#093a723edc)" d="M 111.132812 130.277344 L 111.132812 272.960938 L 204.222656 272.960938 L 204.222656 130.277344 Z M 111.132812 130.277344 " fill-rule="nonzero"/></g></g><path fill="#f1a138" d="M 139.164062 203.855469 C 139.082031 214.710938 138.328125 222.9375 135.707031 222.902344 C 131.683594 222.84375 127.097656 193.210938 126.21875 184.6875 C 126.039062 182.941406 125.523438 180.125 124.964844 176.757812 C 125.910156 176.738281 126.855469 176.730469 127.804688 176.746094 C 129.3125 176.769531 130.824219 176.808594 132.355469 176.882812 C 133.886719 176.96875 135.4375 177.078125 137.078125 177.089844 C 135.726562 176.15625 134.207031 175.53125 132.644531 175.105469 C 131.082031 174.679688 129.507812 175.605469 127.875 175.59375 C 126.816406 175.585938 125.738281 175.179688 124.679688 175 C 122.574219 161.835938 120.519531 142.105469 133.34375 141.453125 C 136.113281 141.308594 137.828125 142.355469 138.855469 144.285156 C 136.6875 144.734375 134.535156 145.363281 132.542969 146.386719 C 134.925781 146.269531 137.253906 146.160156 139.5625 146.089844 C 141.496094 153.039062 138.4375 166.78125 138.777344 180.46875 C 138.949219 187.371094 139.15625 194.640625 139.167969 201.175781 C 138.988281 201.167969 138.808594 201.15625 138.628906 201.152344 C 137.246094 201.132812 135.855469 201.261719 134.492188 201.550781 C 133.132812 201.855469 131.773438 202.277344 130.558594 203.074219 C 133.375 203.511719 135.207031 203.835938 137.847656 203.894531 C 138.234375 203.902344 138.6875 203.886719 139.164062 203.855469 Z M 144.328125 243.367188 C 143.359375 243.085938 142.410156 242.714844 141.546875 242.078125 C 142.585938 241.832031 143.554688 241.765625 144.507812 241.699219 C 144.53125 241.699219 144.550781 241.699219 144.574219 241.695312 C 143.730469 238.660156 142.953125 236.015625 142.660156 234.863281 C 141.789062 231.414062 140.769531 226.519531 136.847656 227.148438 C 132.96875 227.773438 139.660156 242.265625 140.714844 245.25 C 141.769531 248.234375 145.519531 256.425781 147.136719 255.789062 C 148.109375 255.40625 146.613281 249.179688 145.074219 243.519531 C 144.824219 243.46875 144.570312 243.433594 144.328125 243.367188 Z M 144.328125 243.367188 " fill-opacity="1" fill-rule="nonzero"/><g clip-path="url(#6d660010e5)"><g clip-path="url(#4a2acfa5c3)"><path fill="url(#4a818032d4)" d="M 148.867188 131.832031 L 148.867188 273.070312 L 204.484375 273.070312 L 204.484375 131.832031 Z M 148.867188 131.832031 " fill-rule="nonzero"/></g></g><g fill="#ffffff" fill-opacity="1"><g transform="translate(78.667198, 349.321766)"><g><path d="M 9 -0.578125 L 8.140625 -2.328125 L 7.984375 -3 L 7.65625 -3.484375 L 6.828125 -5.328125 L 6.640625 -5.9375 L 6.09375 -7.09375 L 5.9375 -7.625 L 3.828125 -12.390625 L 3.515625 -12.890625 L 2.546875 -15.234375 L 2.234375 -15.796875 L 1.71875 -17.046875 L 1.375 -17.65625 L 1.1875 -18.234375 L 0.890625 -18.796875 L 0.421875 -20.015625 L 0.125 -20.59375 L 0 -21.359375 L 0.0625 -22.0625 L 0.734375 -22.34375 L 1.40625 -22.375 L 1.984375 -22.3125 L 2.515625 -22.375 L 4.3125 -22.28125 L 5.046875 -22.03125 L 5.59375 -21.390625 L 5.875 -20.875 L 6.09375 -20.296875 L 6.421875 -19.703125 L 6.515625 -19.09375 L 7.625 -16.796875 L 7.75 -16.15625 L 7.984375 -15.578125 L 8.265625 -15.0625 L 8.65625 -13.796875 L 9 -13.21875 L 9.21875 -12.703125 L 9.421875 -12.0625 L 9.671875 -11.484375 L 10.09375 -10.28125 L 10.34375 -9.703125 L 10.71875 -9.765625 L 11.109375 -10.34375 L 11.265625 -10.921875 L 11.59375 -11.53125 L 15.390625 -20.875 L 15.546875 -21.453125 L 16.125 -22.0625 L 16.859375 -22.3125 L 20.625 -22.3125 L 21.171875 -22.125 L 21.359375 -21.328125 L 21.03125 -20.5625 L 20.90625 -20.015625 L 20.59375 -19.40625 L 20.359375 -18.765625 L 20.015625 -18.234375 L 19.859375 -17.65625 L 19.375 -16.40625 L 18.96875 -15.921875 L 18.796875 -15.328125 L 18.359375 -14.75 L 18.203125 -14.140625 L 18.03125 -13.59375 L 17.6875 -12.953125 L 17.328125 -11.75 L 16.65625 -10.59375 L 16.28125 -9.359375 L 14.359375 -5.265625 L 14.171875 -4.6875 L 13.65625 -3.546875 L 13.34375 -3 L 13.0625 -2.390625 L 12.515625 -1.15625 L 12.328125 -0.546875 L 11.78125 -0.03125 L 10.921875 0.34375 L 10.28125 0.28125 L 9.515625 0 Z M 9 -0.578125 "/></g></g></g><g fill="#ffffff" fill-opacity="1"><g transform="translate(100.17807, 349.321766)"><g><path d="M 2.296875 -0.921875 L 2.421875 -1.5625 L 2.453125 -2.203125 L 2.390625 -3.453125 L 2.390625 -4.09375 L 2.328125 -4.8125 L 2.421875 -5.390625 L 2.390625 -6 L 2.453125 -6.703125 L 2.359375 -7.375 L 2.421875 -8.65625 L 2.328125 -9.890625 L 2.421875 -10.5625 L 2.421875 -16.28125 L 2.359375 -16.859375 L 2.421875 -17.53125 L 2.296875 -19.15625 L 2.421875 -20.078125 L 2.359375 -21.359375 L 2.6875 -22.0625 L 3.609375 -22.28125 L 7.78125 -22.375 L 8.359375 -22.3125 L 9.609375 -22.34375 L 10.25 -22.28125 L 11.65625 -22.34375 L 12.296875 -22.25 L 12.859375 -22.3125 L 15.421875 -22.28125 L 16.09375 -22 L 16.40625 -21.359375 L 16.3125 -20.75 L 16.28125 -20.046875 L 16.375 -19.4375 L 16.4375 -18.125 L 16.09375 -17.5625 L 15.421875 -17.203125 L 9.296875 -17.171875 L 8.296875 -16.890625 L 7.984375 -15.953125 L 8.046875 -14.96875 L 8.421875 -14.390625 L 8.96875 -14.046875 L 11.484375 -14.078125 L 12.21875 -14.015625 L 12.890625 -14.015625 L 13.53125 -14.078125 L 14.8125 -14.046875 L 15.359375 -13.6875 L 15.640625 -13.09375 L 15.703125 -12.453125 L 15.640625 -9.921875 L 15.328125 -9.328125 L 14.6875 -8.96875 L 14.109375 -8.9375 L 13.4375 -9 L 12.578125 -8.9375 L 10.890625 -9.03125 L 10.25 -8.96875 L 9 -8.96875 L 8.421875 -8.625 L 8.140625 -7.953125 L 8.109375 -6.390625 L 8.390625 -5.390625 L 9.0625 -5.015625 L 9.765625 -5.078125 L 10.46875 -5.015625 L 11.078125 -5.109375 L 15.296875 -5.046875 L 16.25 -4.71875 L 16.65625 -4.09375 L 16.59375 -3.484375 L 16.625 -1.5 L 16.5625 -0.890625 L 16.28125 -0.28125 L 15.609375 0.03125 L 15 0.09375 L 13.0625 -0.03125 L 11.109375 0.0625 L 10.53125 -0.03125 L 3.3125 0.03125 L 2.71875 -0.3125 Z M 2.296875 -0.921875 "/></g></g></g><g fill="#ffffff" fill-opacity="1"><g transform="translate(118.465492, 349.321766)"><g><path d="M 2.453125 -1.015625 L 2.359375 -3.515625 L 2.421875 -4.1875 L 2.296875 -6.03125 L 2.390625 -7.34375 L 2.296875 -8.046875 L 2.328125 -9.25 L 2.390625 -9.921875 L 2.390625 -11.53125 L 2.296875 -12.453125 L 2.390625 -21.390625 L 2.65625 -22.0625 L 3.25 -22.34375 L 3.953125 -22.3125 L 4.5625 -22.40625 L 5.875 -22.28125 L 6.484375 -22.375 L 8.390625 -22.3125 L 8.9375 -22.375 L 9.640625 -22.3125 L 10.28125 -22.375 L 10.984375 -22.34375 L 11.90625 -22.375 L 12.703125 -22.3125 L 15.359375 -21.765625 L 16.46875 -21.203125 L 18.0625 -19.984375 L 18.359375 -19.5 L 18.796875 -19.03125 L 19.65625 -17.265625 L 19.828125 -16.625 L 19.921875 -16.03125 L 20.078125 -15.421875 L 20.046875 -12.890625 L 19.703125 -11.6875 L 19.46875 -11.140625 L 19.125 -10.5625 L 18.890625 -9.953125 L 18.515625 -9.421875 L 17.625 -8.5625 L 17.265625 -7.890625 L 17.359375 -7.125 L 18.328125 -5.453125 L 18.734375 -4.953125 L 19.0625 -4.375 L 19.4375 -3.796875 L 19.734375 -3.25 L 20.75 -1.6875 L 21.171875 -0.890625 L 21.03125 -0.21875 L 20.359375 -0.0625 L 19.65625 0 L 18.390625 0 L 17.75 -0.0625 L 17.046875 0 L 15.890625 -0.0625 L 15.09375 -0.25 L 14.453125 -0.828125 L 14.078125 -1.34375 L 13.796875 -1.890625 L 13.375 -2.484375 L 12.484375 -4.09375 L 12.265625 -4.6875 L 11.421875 -5.8125 L 10.921875 -6.359375 L 10.125 -6.609375 L 9.546875 -6.578125 L 8.96875 -6.578125 L 8.328125 -6.25 L 8.046875 -5.625 L 8.109375 -3.640625 L 8.015625 -2.265625 L 8.140625 -1.59375 L 8.078125 -0.921875 L 7.859375 -0.3125 L 6.859375 0 L 5.90625 0 L 5.234375 -0.0625 L 3.921875 0.03125 L 3.3125 0 L 2.6875 -0.3125 Z M 8.96875 -11.75 L 9.671875 -11.75 L 10.3125 -11.65625 L 12.796875 -11.875 L 13.28125 -12.09375 L 13.65625 -12.484375 L 14.015625 -13.03125 L 14.265625 -13.65625 L 14.359375 -14.53125 L 14.296875 -15.453125 L 14.078125 -15.953125 L 13.765625 -16.4375 L 12.765625 -17.046875 L 11.296875 -17.234375 L 9.546875 -17.265625 L 9.03125 -17.234375 L 8.390625 -16.921875 L 8.015625 -16.28125 L 8.109375 -12.703125 L 8.421875 -12.03125 Z M 8.96875 -11.75 "/></g></g></g><g fill="#ffffff" fill-opacity="1"><g transform="translate(140.582744, 349.321766)"><g><path d="M 2.390625 -0.984375 L 2.453125 -2.203125 L 2.359375 -4.75 L 2.421875 -5.390625 L 2.359375 -7.953125 L 2.453125 -9.1875 L 2.359375 -9.859375 L 2.453125 -10.46875 L 2.359375 -11.84375 L 2.453125 -13.0625 L 2.328125 -15.609375 L 2.421875 -16.25 L 2.328125 -16.890625 L 2.421875 -17.59375 L 2.359375 -18.796875 L 2.390625 -19.4375 L 2.328125 -20.078125 L 2.328125 -21.390625 L 2.8125 -22 L 3.390625 -22.34375 L 4.046875 -22.3125 L 4.625 -22.34375 L 5.265625 -22.28125 L 7.3125 -22.34375 L 7.953125 -22.28125 L 12.484375 -22.25 L 13.796875 -22 L 15.546875 -21.421875 L 16.1875 -21.09375 L 17.359375 -20.359375 L 18.265625 -19.5 L 18.796875 -19.09375 L 19.625 -18.09375 L 19.890625 -17.5625 L 20.625 -16.46875 L 21.09375 -15.1875 L 21.265625 -14.625 L 21.328125 -13.953125 L 21.796875 -12.125 L 21.671875 -10.09375 L 21.703125 -9.546875 L 21.546875 -8.875 L 21.453125 -8.203125 L 21.234375 -7.625 L 21.09375 -6.984375 L 20.78125 -6.390625 L 20.625 -5.78125 L 19.625 -4.1875 L 18.359375 -2.71875 L 15.640625 -0.890625 L 13.796875 -0.3125 L 11.75 -0.03125 L 6 0 L 5.328125 0.09375 L 4.6875 0.09375 L 4.015625 0 L 3.28125 0 L 2.78125 -0.28125 Z M 9.15625 -5.140625 L 11.8125 -5.265625 L 12.953125 -5.59375 L 13.59375 -5.90625 L 14.109375 -6.21875 L 14.5 -6.734375 L 14.90625 -7.1875 L 15.328125 -7.75 L 15.796875 -8.90625 L 16 -9.515625 L 16.15625 -11.078125 L 16.0625 -12.0625 L 15.671875 -13.953125 L 15.265625 -14.453125 L 14.90625 -15.0625 L 14.109375 -15.953125 L 13.03125 -16.65625 L 11.75 -17.046875 L 10.796875 -17.109375 L 10.125 -17.078125 L 9.453125 -17.109375 L 8.515625 -16.765625 L 8.140625 -16.1875 L 8.140625 -7.984375 L 8.046875 -7.34375 L 8.171875 -6.765625 L 8.109375 -6.125 L 8.390625 -5.421875 Z M 9.15625 -5.140625 "/></g></g></g><g fill="#ffffff" fill-opacity="1"><g transform="translate(163.785119, 349.321766)"><g><path d="M 9.421875 0.25 L 8.8125 0.09375 L 8.109375 0.0625 L 7.625 -0.1875 L 6.890625 -0.421875 L 6.28125 -0.671875 L 5.8125 -1.046875 L 4.71875 -1.6875 L 4.3125 -2.109375 L 3.453125 -3.15625 L 2.8125 -4.25 L 2.625 -4.859375 L 2.515625 -5.453125 L 2.328125 -6.09375 L 2.328125 -6.765625 L 2.234375 -7.6875 L 2.265625 -9.984375 L 2.171875 -11.265625 L 2.234375 -11.875 L 2.203125 -12.515625 L 2.265625 -13.125 L 2.171875 -13.828125 L 2.296875 -14.421875 L 2.140625 -16.34375 L 2.234375 -17.5625 L 2.109375 -18.890625 L 2.265625 -19.4375 L 2.265625 -21.359375 L 2.546875 -22 L 3.1875 -22.34375 L 6.546875 -22.3125 L 7.3125 -22.03125 L 7.65625 -21.421875 L 7.65625 -20.75 L 7.5 -19.796875 L 7.5 -19.1875 L 7.59375 -18.265625 L 7.59375 -15.703125 L 7.53125 -15.125 L 7.5625 -13.15625 L 7.65625 -12.515625 L 7.71875 -6.890625 L 7.921875 -6.21875 L 8.296875 -5.78125 L 8.78125 -5.359375 L 9.484375 -5.015625 L 10.0625 -4.859375 L 11.109375 -4.78125 L 11.96875 -4.859375 L 13.25 -5.265625 L 13.765625 -5.75 L 14.046875 -6.1875 L 14.328125 -6.796875 L 14.453125 -7.828125 L 14.421875 -9.453125 L 14.5 -10.09375 L 14.453125 -11.234375 L 14.53125 -11.9375 L 14.390625 -12.515625 L 14.5 -15.03125 L 14.390625 -15.703125 L 14.453125 -16.375 L 14.421875 -17.625 L 14.5 -18.265625 L 14.453125 -21.390625 L 14.78125 -22.09375 L 15.484375 -22.375 L 18.484375 -22.34375 L 19.5 -22.0625 L 19.765625 -21.359375 L 19.859375 -20.8125 L 19.828125 -18.234375 L 19.921875 -17.59375 L 19.828125 -16.984375 L 19.859375 -16.28125 L 19.796875 -15.296875 L 19.828125 -14.390625 L 19.765625 -13.71875 L 19.796875 -13.125 L 19.921875 -12.484375 L 19.921875 -11.90625 L 19.796875 -11.234375 L 19.890625 -8.65625 L 19.65625 -5.421875 L 19.4375 -4.8125 L 19.125 -4.28125 L 18.921875 -3.640625 L 18.515625 -3.15625 L 18.15625 -2.578125 L 16.734375 -1.3125 L 16.21875 -0.953125 L 15.640625 -0.703125 L 15.125 -0.390625 L 14.5 -0.21875 L 13.828125 0.03125 L 12.546875 0.3125 L 10.953125 0.390625 Z M 9.421875 0.25 "/></g></g></g><g fill="#ffffff" fill-opacity="1"><g transform="translate(185.806632, 349.321766)"><g><path d="M 2.453125 -1.015625 L 2.359375 -3.515625 L 2.421875 -4.1875 L 2.296875 -6.03125 L 2.390625 -7.34375 L 2.296875 -8.046875 L 2.328125 -9.25 L 2.390625 -9.921875 L 2.390625 -11.53125 L 2.296875 -12.453125 L 2.390625 -21.390625 L 2.65625 -22.0625 L 3.25 -22.34375 L 3.953125 -22.3125 L 4.5625 -22.40625 L 5.875 -22.28125 L 6.484375 -22.375 L 8.390625 -22.3125 L 8.9375 -22.375 L 9.640625 -22.3125 L 10.28125 -22.375 L 10.984375 -22.34375 L 11.90625 -22.375 L 12.703125 -22.3125 L 15.359375 -21.765625 L 16.46875 -21.203125 L 18.0625 -19.984375 L 18.359375 -19.5 L 18.796875 -19.03125 L 19.65625 -17.265625 L 19.828125 -16.625 L 19.921875 -16.03125 L 20.078125 -15.421875 L 20.046875 -12.890625 L 19.703125 -11.6875 L 19.46875 -11.140625 L 19.125 -10.5625 L 18.890625 -9.953125 L 18.515625 -9.421875 L 17.625 -8.5625 L 17.265625 -7.890625 L 17.359375 -7.125 L 18.328125 -5.453125 L 18.734375 -4.953125 L 19.0625 -4.375 L 19.4375 -3.796875 L 19.734375 -3.25 L 20.75 -1.6875 L 21.171875 -0.890625 L 21.03125 -0.21875 L 20.359375 -0.0625 L 19.65625 0 L 18.390625 0 L 17.75 -0.0625 L 17.046875 0 L 15.890625 -0.0625 L 15.09375 -0.25 L 14.453125 -0.828125 L 14.078125 -1.34375 L 13.796875 -1.890625 L 13.375 -2.484375 L 12.484375 -4.09375 L 12.265625 -4.6875 L 11.421875 -5.8125 L 10.921875 -6.359375 L 10.125 -6.609375 L 9.546875 -6.578125 L 8.96875 -6.578125 L 8.328125 -6.25 L 8.046875 -5.625 L 8.109375 -3.640625 L 8.015625 -2.265625 L 8.140625 -1.59375 L 8.078125 -0.921875 L 7.859375 -0.3125 L 6.859375 0 L 5.90625 0 L 5.234375 -0.0625 L 3.921875 0.03125 L 3.3125 0 L 2.6875 -0.3125 Z M 8.96875 -11.75 L 9.671875 -11.75 L 10.3125 -11.65625 L 12.796875 -11.875 L 13.28125 -12.09375 L 13.65625 -12.484375 L 14.015625 -13.03125 L 14.265625 -13.65625 L 14.359375 -14.53125 L 14.296875 -15.453125 L 14.078125 -15.953125 L 13.765625 -16.4375 L 12.765625 -17.046875 L 11.296875 -17.234375 L 9.546875 -17.265625 L 9.03125 -17.234375 L 8.390625 -16.921875 L 8.015625 -16.28125 L 8.109375 -12.703125 L 8.421875 -12.03125 Z M 8.96875 -11.75 "/></g></g></g><g fill="#ffffff" fill-opacity="1"><g transform="translate(207.923884, 349.321766)"><g><path d="M 0.421875 -0.859375 L 0.796875 -2.203125 L 1.078125 -2.84375 L 1.46875 -3.359375 L 2.390625 -5.6875 L 3.28125 -7.34375 L 3.515625 -7.984375 L 3.796875 -8.484375 L 3.984375 -9.15625 L 4.4375 -9.984375 L 4.65625 -10.59375 L 5.140625 -11.421875 L 5.65625 -12.578125 L 6 -13.15625 L 6.15625 -13.6875 L 7.953125 -17.71875 L 8.296875 -18.296875 L 9.671875 -21.171875 L 9.859375 -21.734375 L 10.46875 -22.3125 L 11.484375 -22.625 L 12.578125 -22.34375 L 13.15625 -21.734375 L 13.34375 -21.125 L 13.625 -20.65625 L 14.140625 -19.4375 L 14.78125 -18.265625 L 15.265625 -17.140625 L 15.421875 -16.625 L 16 -15.421875 L 16.1875 -14.8125 L 16.828125 -13.6875 L 16.984375 -13.09375 L 17.296875 -12.546875 L 17.5625 -12 L 17.90625 -11.421875 L 18.09375 -10.796875 L 18.390625 -10.3125 L 18.609375 -9.671875 L 18.890625 -9.125 L 19.15625 -8.484375 L 19.5 -7.984375 L 19.953125 -6.796875 L 20.265625 -6.25 L 20.5 -5.65625 L 21.03125 -4.5 L 21.234375 -3.890625 L 21.546875 -3.421875 L 21.734375 -2.78125 L 22.15625 -2.234375 L 22.375 -1.65625 L 22.5625 -0.859375 L 22.4375 -0.1875 L 21.859375 0 L 19.890625 0.0625 L 18.765625 -0.03125 L 18.203125 0.03125 L 17.359375 -0.28125 L 16.828125 -0.796875 L 16.46875 -1.375 L 16.3125 -1.953125 L 15.640625 -2.453125 L 14.59375 -2.8125 L 13.09375 -2.75 L 12.421875 -2.8125 L 11.84375 -2.8125 L 11.109375 -2.71875 L 10.4375 -2.8125 L 8.65625 -2.78125 L 8.015625 -2.84375 L 7.25 -2.515625 L 6.703125 -1.921875 L 6.15625 -0.828125 L 5.59375 -0.25 L 4.859375 0.0625 L 4.015625 -0.03125 L 1.21875 -0.03125 L 0.578125 -0.1875 Z M 10.28125 -7.890625 L 12.765625 -7.921875 L 13.3125 -8.171875 L 13.375 -8.75 L 13.15625 -9.328125 L 12.828125 -9.953125 L 12.703125 -10.46875 L 12.359375 -11.015625 L 11.9375 -12.265625 L 11.5625 -12.515625 L 11.140625 -12.1875 L 10.859375 -11.6875 L 9.578125 -8.78125 L 9.671875 -8.140625 Z M 10.28125 -7.890625 "/></g></g></g></svg>