<svg xmlns="http://www.w3.org/2000/svg" xmlns:xlink="http://www.w3.org/1999/xlink" width="415" zoomAndPan="magnify" viewBox="0 0 311.25 410.24999" height="547" preserveAspectRatio="xMidYMid meet" version="1.0"><defs><g/><clipPath id="5e508e2b17"><path d="M 12.148438 0.117188 L 292.769531 0.117188 L 292.769531 408.996094 L 12.148438 408.996094 Z M 12.148438 0.117188 " clip-rule="nonzero"/></clipPath><clipPath id="e2c76e44d3"><path d="M 33.523438 0.117188 L 271.394531 0.117188 C 283.199219 0.117188 292.769531 9.6875 292.769531 21.492188 L 292.769531 387.382812 C 292.769531 399.1875 283.199219 408.757812 271.394531 408.757812 L 33.523438 408.757812 C 21.71875 408.757812 12.148438 399.1875 12.148438 387.382812 L 12.148438 21.492188 C 12.148438 9.6875 21.71875 0.117188 33.523438 0.117188 Z M 33.523438 0.117188 " clip-rule="nonzero"/></clipPath><clipPath id="0571652ceb"><path d="M 0.148438 0.117188 L 280.769531 0.117188 L 280.769531 408.8125 L 0.148438 408.8125 Z M 0.148438 0.117188 " clip-rule="nonzero"/></clipPath><clipPath id="4ab2bfda78"><path d="M 21.523438 0.117188 L 259.394531 0.117188 C 271.199219 0.117188 280.769531 9.6875 280.769531 21.492188 L 280.769531 387.382812 C 280.769531 399.1875 271.199219 408.757812 259.394531 408.757812 L 21.523438 408.757812 C 9.71875 408.757812 0.148438 399.1875 0.148438 387.382812 L 0.148438 21.492188 C 0.148438 9.6875 9.71875 0.117188 21.523438 0.117188 Z M 21.523438 0.117188 " clip-rule="nonzero"/></clipPath><clipPath id="eae5315c50"><rect x="0" width="281" y="0" height="409"/></clipPath><clipPath id="276431556e"><path d="M 20.882812 10.246094 L 283.847656 10.246094 L 283.847656 399 L 20.882812 399 Z M 20.882812 10.246094 " clip-rule="nonzero"/></clipPath><clipPath id="ba86bbf346"><path d="M 35.324219 10.246094 L 269.402344 10.246094 C 277.378906 10.246094 283.847656 16.710938 283.847656 24.6875 L 283.847656 384.121094 C 283.847656 392.097656 277.378906 398.5625 269.402344 398.5625 L 35.324219 398.5625 C 27.347656 398.5625 20.882812 392.097656 20.882812 384.121094 L 20.882812 24.6875 C 20.882812 16.710938 27.347656 10.246094 35.324219 10.246094 Z M 35.324219 10.246094 " clip-rule="nonzero"/></clipPath><clipPath id="c1f9aa6c2c"><path d="M 0.882812 0.246094 L 263.847656 0.246094 L 263.847656 388.757812 L 0.882812 388.757812 Z M 0.882812 0.246094 " clip-rule="nonzero"/></clipPath><clipPath id="6075478c4f"><path d="M 15.324219 0.246094 L 249.402344 0.246094 C 257.378906 0.246094 263.847656 6.710938 263.847656 14.6875 L 263.847656 374.121094 C 263.847656 382.097656 257.378906 388.5625 249.402344 388.5625 L 15.324219 388.5625 C 7.347656 388.5625 0.882812 382.097656 0.882812 374.121094 L 0.882812 14.6875 C 0.882812 6.710938 7.347656 0.246094 15.324219 0.246094 Z M 15.324219 0.246094 " clip-rule="nonzero"/></clipPath><clipPath id="6ec8cf96ea"><rect x="0" width="264" y="0" height="389"/></clipPath><clipPath id="8e69d2ac46"><path d="M 13.855469 278.382812 L 296 278.382812 L 296 398.5625 L 13.855469 398.5625 Z M 13.855469 278.382812 " clip-rule="nonzero"/></clipPath><clipPath id="188ba9cc20"><path d="M 25.492188 278.382812 L 284.277344 278.382812 C 290.703125 278.382812 295.914062 283.59375 295.914062 290.019531 L 295.914062 386.925781 C 295.914062 393.351562 290.703125 398.5625 284.277344 398.5625 L 25.492188 398.5625 C 19.066406 398.5625 13.855469 393.351562 13.855469 386.925781 L 13.855469 290.019531 C 13.855469 283.59375 19.066406 278.382812 25.492188 278.382812 Z M 25.492188 278.382812 " clip-rule="nonzero"/></clipPath><clipPath id="349101436f"><path d="M 0.855469 0.382812 L 282.925781 0.382812 L 282.925781 120.5625 L 0.855469 120.5625 Z M 0.855469 0.382812 " clip-rule="nonzero"/></clipPath><clipPath id="1f18ec07d6"><path d="M 12.492188 0.382812 L 271.277344 0.382812 C 277.703125 0.382812 282.914062 5.59375 282.914062 12.019531 L 282.914062 108.925781 C 282.914062 115.351562 277.703125 120.5625 271.277344 120.5625 L 12.492188 120.5625 C 6.066406 120.5625 0.855469 115.351562 0.855469 108.925781 L 0.855469 12.019531 C 0.855469 5.59375 6.066406 0.382812 12.492188 0.382812 Z M 12.492188 0.382812 " clip-rule="nonzero"/></clipPath><clipPath id="0944f902cb"><rect x="0" width="283" y="0" height="121"/></clipPath><clipPath id="8b78682485"><path d="M 13.855469 10.277344 L 292.382812 10.277344 L 292.382812 81.441406 L 13.855469 81.441406 Z M 13.855469 10.277344 " clip-rule="nonzero"/></clipPath><clipPath id="607947d504"><path d="M 26.5625 10.277344 L 279.535156 10.277344 C 286.554688 10.277344 292.246094 15.96875 292.246094 22.988281 L 292.246094 68.730469 C 292.246094 75.75 286.554688 81.441406 279.535156 81.441406 L 26.5625 81.441406 C 19.542969 81.441406 13.855469 75.75 13.855469 68.730469 L 13.855469 22.988281 C 13.855469 15.96875 19.542969 10.277344 26.5625 10.277344 Z M 26.5625 10.277344 " clip-rule="nonzero"/></clipPath><clipPath id="fe5561cc26"><path d="M 0.855469 0.277344 L 279.335938 0.277344 L 279.335938 71.441406 L 0.855469 71.441406 Z M 0.855469 0.277344 " clip-rule="nonzero"/></clipPath><clipPath id="89a92a0087"><path d="M 13.5625 0.277344 L 266.535156 0.277344 C 273.554688 0.277344 279.246094 5.96875 279.246094 12.988281 L 279.246094 58.730469 C 279.246094 65.75 273.554688 71.441406 266.535156 71.441406 L 13.5625 71.441406 C 6.542969 71.441406 0.855469 65.75 0.855469 58.730469 L 0.855469 12.988281 C 0.855469 5.96875 6.542969 0.277344 13.5625 0.277344 Z M 13.5625 0.277344 " clip-rule="nonzero"/></clipPath><clipPath id="078b0b1865"><rect x="0" width="280" y="0" height="72"/></clipPath><clipPath id="5345860460"><path d="M 71.242188 81.441406 L 231.355469 81.441406 L 231.355469 276.71875 L 71.242188 276.71875 Z M 71.242188 81.441406 " clip-rule="nonzero"/></clipPath></defs><g clip-path="url(#5e508e2b17)"><g clip-path="url(#e2c76e44d3)"><g transform="matrix(1, 0, 0, 1, 12, 0.000000000000000597)"><g clip-path="url(#eae5315c50)"><g clip-path="url(#0571652ceb)"><g clip-path="url(#4ab2bfda78)"><path fill="#800080" d="M 0.148438 0.117188 L 280.769531 0.117188 L 280.769531 408.996094 L 0.148438 408.996094 Z M 0.148438 0.117188 " fill-opacity="1" fill-rule="nonzero"/></g></g></g></g></g></g><g clip-path="url(#276431556e)"><g clip-path="url(#ba86bbf346)"><g transform="matrix(1, 0, 0, 1, 20, 10)"><g clip-path="url(#6ec8cf96ea)"><g clip-path="url(#c1f9aa6c2c)"><g clip-path="url(#6075478c4f)"><path fill="#fffaed" d="M 0.882812 0.246094 L 263.847656 0.246094 L 263.847656 388.527344 L 0.882812 388.527344 Z M 0.882812 0.246094 " fill-opacity="1" fill-rule="nonzero"/></g></g></g></g></g></g><g clip-path="url(#8e69d2ac46)"><g clip-path="url(#188ba9cc20)"><g transform="matrix(1, 0, 0, 1, 13, 278)"><g clip-path="url(#0944f902cb)"><g clip-path="url(#349101436f)"><g clip-path="url(#1f18ec07d6)"><path fill="#800080" d="M 0.855469 0.382812 L 283 0.382812 L 283 120.5625 L 0.855469 120.5625 Z M 0.855469 0.382812 " fill-opacity="1" fill-rule="nonzero"/></g></g></g></g></g></g><g fill="#ffffff" fill-opacity="1"><g transform="translate(143.526533, 347.216234)"><g/></g></g><g fill="#ffffff" fill-opacity="1"><g transform="translate(151.095258, 347.216234)"><g/></g></g><g fill="#ffffff" fill-opacity="1"><g transform="translate(158.663983, 347.216234)"><g/></g></g><g clip-path="url(#8b78682485)"><g clip-path="url(#607947d504)"><g transform="matrix(1, 0, 0, 1, 13, 10)"><g clip-path="url(#078b0b1865)"><g clip-path="url(#fe5561cc26)"><g clip-path="url(#89a92a0087)"><path fill="#800080" d="M 0.855469 0.277344 L 279.382812 0.277344 L 279.382812 71.441406 L 0.855469 71.441406 Z M 0.855469 0.277344 " fill-opacity="1" fill-rule="nonzero"/></g></g></g></g></g></g><g fill="#ffffff" fill-opacity="1"><g transform="translate(91.082593, 55.17069)"><g><path d="M 10.28125 0.28125 L 9.75 0.28125 L 9.25 0.171875 L 8.65625 0.109375 L 8.078125 -0.078125 L 7.65625 -0.203125 L 7.09375 -0.390625 L 5.203125 -1.421875 L 4.78125 -1.765625 L 4.296875 -2.0625 L 3.296875 -3.046875 L 2.171875 -4.671875 L 1.984375 -5.140625 L 1.703125 -5.640625 L 1.625 -6.140625 L 1.390625 -6.671875 L 1.125 -7.765625 L 1.125 -8.890625 L 1 -9.78125 L 1.515625 -13.265625 L 2.796875 -15.78125 L 3.125 -16.265625 L 3.890625 -16.953125 L 4.21875 -17.40625 L 6.171875 -18.65625 L 6.671875 -18.859375 L 7.09375 -19.109375 L 7.625 -19.3125 L 8.71875 -19.53125 L 9.25 -19.703125 L 9.71875 -19.75 L 12.265625 -19.75 L 13.65625 -19.5625 L 14.75 -19.25 L 16.34375 -18.515625 L 16.953125 -18.109375 L 18.40625 -16.796875 L 19.4375 -15.359375 L 19.890625 -14.296875 L 19.96875 -13.796875 L 20.203125 -13.25 L 20.03125 -12.65625 L 19.578125 -12.40625 L 19.03125 -12.34375 L 16.203125 -12.40625 L 15.59375 -12.65625 L 15.09375 -13.1875 L 14.828125 -13.65625 L 14.421875 -14.109375 L 13.609375 -14.78125 L 13.015625 -14.96875 L 11.953125 -15.171875 L 10.21875 -15.21875 L 9.25 -14.953125 L 8.71875 -14.71875 L 7.796875 -14.046875 L 7.09375 -13.1875 L 6.625 -12.1875 L 6.453125 -11.671875 L 6.421875 -11.125 L 6.234375 -10.609375 L 6.203125 -9.71875 L 6.28125 -8.40625 L 6.625 -7.3125 L 6.84375 -6.84375 L 7.875 -5.5 L 8.234375 -5.109375 L 8.765625 -4.859375 L 10.28125 -4.296875 L 11.84375 -4.28125 L 12.4375 -4.328125 L 12.984375 -4.5 L 13.9375 -4.96875 L 15 -6.125 L 15.21875 -6.59375 L 15.78125 -7.125 L 16.40625 -7.40625 L 19.390625 -7.375 L 20.09375 -7.0625 L 20.25 -6.5625 L 20.171875 -6.03125 L 19.96875 -5.46875 L 19.828125 -4.9375 L 19.578125 -4.4375 L 18.75 -2.984375 L 18.265625 -2.625 L 17.96875 -2.15625 L 17.59375 -1.78125 L 17.125 -1.453125 L 16.625 -1.140625 L 16.203125 -0.859375 L 14.671875 -0.203125 L 11.953125 0.359375 Z M 10.28125 0.28125 "/></g></g></g><g fill="#ffffff" fill-opacity="1"><g transform="translate(112.392327, 55.17069)"><g><path d="M 1.34375 -0.8125 L 1.34375 -2.96875 L 1.390625 -3.484375 L 1.734375 -4.015625 L 3.578125 -4.609375 L 3.859375 -5.21875 L 3.90625 -6.3125 L 3.796875 -7.515625 L 3.9375 -8.078125 L 3.828125 -9.15625 L 3.890625 -9.71875 L 3.90625 -10.875 L 3.828125 -11.515625 L 3.796875 -11.984375 L 3.890625 -14.359375 L 3.515625 -14.859375 L 1.8125 -15.453125 L 1.53125 -15.984375 L 1.53125 -16.515625 L 1.484375 -17.0625 L 1.484375 -17.6875 L 1.53125 -18.15625 L 1.53125 -18.6875 L 1.84375 -19.28125 L 2.453125 -19.5625 L 3.546875 -19.5 L 4.078125 -19.53125 L 5.78125 -19.5 L 6.390625 -19.5625 L 9.953125 -19.53125 L 10.84375 -19.28125 L 11.0625 -18.71875 L 11.125 -18.15625 L 11.0625 -17.65625 L 11.0625 -16.015625 L 10.75 -15.484375 L 10.21875 -15.171875 L 9.609375 -15.140625 L 9.078125 -14.828125 L 8.765625 -14.328125 L 8.765625 -13.15625 L 8.828125 -12.578125 L 8.765625 -12.015625 L 8.828125 -11.484375 L 8.765625 -10.609375 L 8.828125 -9.78125 L 8.71875 -8.609375 L 8.828125 -7.484375 L 8.765625 -5.203125 L 9.078125 -4.640625 L 10.953125 -4.046875 L 11.34375 -3.578125 L 11.265625 -1.875 L 11.3125 -1.375 L 11.3125 -0.75 L 11 -0.25 L 10.46875 0.03125 L 2.171875 -0.03125 L 1.625 -0.21875 Z M 1.34375 -0.8125 "/></g></g></g><g fill="#ffffff" fill-opacity="1"><g transform="translate(125.072039, 55.17069)"><g><path d="M 2.15625 -0.890625 L 2.0625 -3.078125 L 2.125 -3.65625 L 2.015625 -5.28125 L 2.09375 -6.421875 L 2.015625 -7.046875 L 2.046875 -8.109375 L 2.09375 -8.6875 L 2.09375 -10.078125 L 2.015625 -10.890625 L 2.09375 -18.71875 L 2.3125 -19.3125 L 2.84375 -19.5625 L 3.46875 -19.53125 L 4 -19.609375 L 5.140625 -19.5 L 5.671875 -19.578125 L 7.34375 -19.53125 L 7.828125 -19.578125 L 8.4375 -19.53125 L 9 -19.578125 L 9.609375 -19.5625 L 10.421875 -19.578125 L 11.125 -19.53125 L 13.4375 -19.046875 L 14.421875 -18.546875 L 15.8125 -17.484375 L 16.0625 -17.0625 L 16.453125 -16.65625 L 17.203125 -15.109375 L 17.34375 -14.5625 L 17.4375 -14.03125 L 17.578125 -13.5 L 17.546875 -11.28125 L 17.234375 -10.21875 L 17.046875 -9.75 L 16.734375 -9.25 L 16.53125 -8.71875 L 16.203125 -8.234375 L 15.421875 -7.484375 L 15.109375 -6.90625 L 15.203125 -6.234375 L 16.03125 -4.78125 L 16.40625 -4.328125 L 16.671875 -3.828125 L 17.015625 -3.328125 L 17.265625 -2.84375 L 18.15625 -1.484375 L 18.515625 -0.78125 L 18.40625 -0.203125 L 17.828125 -0.0625 L 17.203125 0 L 16.09375 0 L 15.53125 -0.0625 L 14.921875 0 L 13.90625 -0.0625 L 13.21875 -0.21875 L 12.65625 -0.71875 L 12.328125 -1.171875 L 12.0625 -1.640625 L 11.703125 -2.171875 L 10.921875 -3.578125 L 10.734375 -4.109375 L 10 -5.078125 L 9.546875 -5.5625 L 8.859375 -5.78125 L 8.359375 -5.75 L 7.84375 -5.75 L 7.296875 -5.46875 L 7.046875 -4.921875 L 7.09375 -3.1875 L 7.015625 -1.984375 L 7.125 -1.390625 L 7.0625 -0.8125 L 6.875 -0.28125 L 6 0 L 5.171875 0 L 4.578125 -0.0625 L 3.4375 0.03125 L 2.90625 0 L 2.34375 -0.28125 Z M 7.84375 -10.28125 L 8.46875 -10.28125 L 9.03125 -10.203125 L 11.203125 -10.390625 L 11.625 -10.59375 L 11.953125 -10.921875 L 12.265625 -11.40625 L 12.484375 -11.953125 L 12.578125 -12.71875 L 12.515625 -13.515625 L 12.328125 -13.96875 L 12.046875 -14.390625 L 11.171875 -14.921875 L 9.890625 -15.09375 L 8.359375 -15.109375 L 7.90625 -15.09375 L 7.34375 -14.8125 L 7.015625 -14.25 L 7.09375 -11.125 L 7.375 -10.53125 Z M 7.84375 -10.28125 "/></g></g></g><g fill="#ffffff" fill-opacity="1"><g transform="translate(144.426752, 55.17069)"><g><path d="M 8.234375 0.21875 L 7.703125 0.078125 L 7.09375 0.0625 L 6.671875 -0.171875 L 6.03125 -0.359375 L 5.5 -0.59375 L 5.078125 -0.921875 L 4.140625 -1.484375 L 3.765625 -1.84375 L 3.015625 -2.765625 L 2.453125 -3.71875 L 2.296875 -4.25 L 2.203125 -4.78125 L 2.046875 -5.34375 L 2.046875 -5.921875 L 1.953125 -6.734375 L 1.984375 -8.75 L 1.90625 -9.859375 L 1.953125 -10.390625 L 1.921875 -10.953125 L 1.984375 -11.484375 L 1.90625 -12.09375 L 2.015625 -12.625 L 1.875 -14.296875 L 1.953125 -15.359375 L 1.84375 -16.53125 L 1.984375 -17.015625 L 1.984375 -18.6875 L 2.234375 -19.25 L 2.796875 -19.5625 L 5.734375 -19.53125 L 6.390625 -19.28125 L 6.703125 -18.75 L 6.703125 -18.15625 L 6.5625 -17.328125 L 6.5625 -16.796875 L 6.65625 -15.984375 L 6.65625 -13.75 L 6.59375 -13.25 L 6.625 -11.515625 L 6.703125 -10.953125 L 6.765625 -6.03125 L 6.921875 -5.453125 L 7.265625 -5.0625 L 7.6875 -4.6875 L 8.296875 -4.390625 L 8.796875 -4.25 L 9.71875 -4.1875 L 10.46875 -4.25 L 11.59375 -4.609375 L 12.046875 -5.03125 L 12.296875 -5.421875 L 12.546875 -5.953125 L 12.65625 -6.84375 L 12.625 -8.265625 L 12.6875 -8.828125 L 12.65625 -9.828125 L 12.71875 -10.453125 L 12.59375 -10.953125 L 12.6875 -13.15625 L 12.59375 -13.75 L 12.65625 -14.328125 L 12.625 -15.421875 L 12.6875 -15.984375 L 12.65625 -18.71875 L 12.9375 -19.328125 L 13.546875 -19.578125 L 16.171875 -19.5625 L 17.0625 -19.3125 L 17.296875 -18.6875 L 17.375 -18.21875 L 17.34375 -15.953125 L 17.4375 -15.390625 L 17.34375 -14.859375 L 17.375 -14.25 L 17.328125 -13.375 L 17.34375 -12.59375 L 17.296875 -12.015625 L 17.328125 -11.484375 L 17.4375 -10.921875 L 17.4375 -10.421875 L 17.328125 -9.828125 L 17.40625 -7.578125 L 17.203125 -4.75 L 17.015625 -4.21875 L 16.734375 -3.75 L 16.5625 -3.1875 L 16.203125 -2.765625 L 15.890625 -2.265625 L 14.640625 -1.140625 L 14.1875 -0.84375 L 13.6875 -0.609375 L 13.25 -0.328125 L 12.6875 -0.203125 L 12.09375 0.03125 L 10.984375 0.28125 L 9.578125 0.328125 Z M 8.234375 0.21875 "/></g></g></g><g fill="#ffffff" fill-opacity="1"><g transform="translate(163.697679, 55.17069)"><g><path d="M 2.015625 -0.8125 L 2.125 -1.375 L 2.15625 -1.921875 L 2.09375 -3.015625 L 2.09375 -3.578125 L 2.046875 -4.21875 L 2.125 -4.71875 L 2.09375 -5.25 L 2.15625 -5.859375 L 2.0625 -6.453125 L 2.125 -7.578125 L 2.046875 -8.65625 L 2.125 -9.25 L 2.125 -14.25 L 2.0625 -14.75 L 2.125 -15.34375 L 2.015625 -16.765625 L 2.125 -17.578125 L 2.0625 -18.6875 L 2.34375 -19.3125 L 3.15625 -19.5 L 6.8125 -19.578125 L 7.3125 -19.53125 L 8.40625 -19.5625 L 8.96875 -19.5 L 10.203125 -19.5625 L 10.75 -19.46875 L 11.265625 -19.53125 L 13.5 -19.5 L 14.078125 -19.25 L 14.359375 -18.6875 L 14.28125 -18.15625 L 14.25 -17.546875 L 14.328125 -17.015625 L 14.390625 -15.875 L 14.078125 -15.359375 L 13.5 -15.0625 L 8.125 -15.03125 L 7.265625 -14.78125 L 6.984375 -13.96875 L 7.046875 -13.109375 L 7.375 -12.59375 L 7.84375 -12.296875 L 10.0625 -12.328125 L 10.703125 -12.265625 L 11.28125 -12.265625 L 11.84375 -12.328125 L 12.96875 -12.296875 L 13.4375 -11.984375 L 13.6875 -11.453125 L 13.75 -10.890625 L 13.6875 -8.6875 L 13.40625 -8.15625 L 12.84375 -7.84375 L 12.34375 -7.828125 L 11.765625 -7.875 L 11 -7.828125 L 9.53125 -7.90625 L 8.96875 -7.84375 L 7.875 -7.84375 L 7.375 -7.546875 L 7.125 -6.953125 L 7.09375 -5.59375 L 7.34375 -4.71875 L 7.9375 -4.390625 L 8.546875 -4.4375 L 9.15625 -4.390625 L 9.6875 -4.46875 L 13.375 -4.421875 L 14.21875 -4.140625 L 14.578125 -3.578125 L 14.53125 -3.046875 L 14.5625 -1.3125 L 14.5 -0.78125 L 14.25 -0.25 L 13.65625 0.03125 L 13.125 0.078125 L 11.421875 -0.03125 L 9.71875 0.0625 L 9.21875 -0.03125 L 2.90625 0.03125 L 2.375 -0.28125 Z M 2.015625 -0.8125 "/></g></g></g><g fill="#ffffff" fill-opacity="1"><g transform="translate(179.700929, 55.17069)"><g><path d="M 2.09375 -0.8125 L 2.046875 -1.390625 L 2.15625 -1.921875 L 2.09375 -2.484375 L 2.125 -5.890625 L 2.0625 -6.390625 L 2.046875 -7.515625 L 2.125 -8.078125 L 2.046875 -9.1875 L 2.125 -9.71875 L 2.046875 -10.921875 L 2.125 -11.453125 L 2.0625 -12.015625 L 2.15625 -12.515625 L 2.0625 -13.109375 L 2.125 -13.65625 L 2.09375 -14.1875 L 2.171875 -14.8125 L 2.125 -15.34375 L 2.046875 -15.890625 L 2.125 -16.484375 L 2.171875 -17.015625 L 2.015625 -18.46875 L 2.375 -19.21875 L 3.1875 -19.53125 L 6.09375 -19.578125 L 6.8125 -19.25 L 7.09375 -18.40625 L 7.15625 -17.046875 L 7.09375 -16.421875 L 7.1875 -12.0625 L 7.09375 -11.484375 L 7.1875 -10.875 L 7.09375 -10.078125 L 7.125 -8.6875 L 7.0625 -8.109375 L 7.125 -7.546875 L 7.09375 -6.921875 L 7.1875 -6.390625 L 7.15625 -5.359375 L 7.3125 -4.75 L 7.90625 -4.5 L 12.828125 -4.4375 L 13.4375 -4.53125 L 13.890625 -4.25 L 14.25 -3.625 L 14.171875 -3.09375 L 14.25 -2.484375 L 14.1875 -1.984375 L 14.171875 -1.421875 L 14.21875 -0.8125 L 13.90625 -0.3125 L 13.125 -0.03125 L 3.234375 0.03125 L 2.34375 -0.3125 Z M 2.09375 -0.8125 "/></g></g></g><g fill="#ffffff" fill-opacity="1"><g transform="translate(194.726669, 55.17069)"><g><path d="M 0.359375 -0.75 L 0.703125 -1.921875 L 0.953125 -2.484375 L 1.28125 -2.9375 L 2.09375 -4.96875 L 2.875 -6.421875 L 3.078125 -6.984375 L 3.328125 -7.4375 L 3.484375 -8.015625 L 3.890625 -8.75 L 4.078125 -9.28125 L 4.5 -10 L 4.9375 -11 L 5.25 -11.515625 L 5.390625 -11.984375 L 6.953125 -15.5 L 7.265625 -16.015625 L 8.46875 -18.515625 L 8.625 -19.03125 L 9.15625 -19.53125 L 10.0625 -19.8125 L 11 -19.5625 L 11.515625 -19.03125 L 11.671875 -18.5 L 11.921875 -18.078125 L 12.375 -17.015625 L 12.9375 -15.984375 L 13.359375 -15 L 13.5 -14.5625 L 14 -13.5 L 14.171875 -12.96875 L 14.71875 -11.984375 L 14.859375 -11.453125 L 15.140625 -10.984375 L 15.359375 -10.5 L 15.671875 -10 L 15.84375 -9.4375 L 16.09375 -9.03125 L 16.28125 -8.46875 L 16.53125 -7.984375 L 16.765625 -7.4375 L 17.0625 -6.984375 L 17.453125 -5.953125 L 17.734375 -5.46875 L 17.9375 -4.9375 L 18.40625 -3.9375 L 18.578125 -3.40625 L 18.859375 -2.984375 L 19.03125 -2.4375 L 19.390625 -1.953125 L 19.578125 -1.453125 L 19.75 -0.75 L 19.640625 -0.171875 L 19.140625 0 L 17.40625 0.0625 L 16.421875 -0.03125 L 15.921875 0.03125 L 15.203125 -0.25 L 14.71875 -0.703125 L 14.421875 -1.203125 L 14.28125 -1.703125 L 13.6875 -2.15625 L 12.765625 -2.453125 L 11.453125 -2.40625 L 10.875 -2.453125 L 10.359375 -2.453125 L 9.71875 -2.375 L 9.140625 -2.453125 L 7.578125 -2.4375 L 7.015625 -2.484375 L 6.34375 -2.203125 L 5.859375 -1.671875 L 5.390625 -0.71875 L 4.890625 -0.21875 L 4.25 0.0625 L 3.515625 -0.03125 L 1.0625 -0.03125 L 0.5 -0.171875 Z M 9 -6.90625 L 11.171875 -6.921875 L 11.65625 -7.15625 L 11.703125 -7.65625 L 11.515625 -8.15625 L 11.234375 -8.71875 L 11.125 -9.15625 L 10.8125 -9.640625 L 10.453125 -10.734375 L 10.109375 -10.953125 L 9.75 -10.671875 L 9.5 -10.21875 L 8.375 -7.6875 L 8.46875 -7.125 Z M 9 -6.90625 "/></g></g></g><path fill="#000000" d="M 42.207031 84.992188 C 32.433594 84.992188 24.4375 92.988281 24.4375 102.761719 C 24.4375 112.535156 32.433594 120.53125 42.207031 120.53125 C 51.980469 120.53125 59.976562 112.535156 59.976562 102.761719 C 59.976562 92.988281 51.980469 84.992188 42.207031 84.992188 Z M 48.070312 110.9375 L 36.699219 110.9375 L 36.699219 108.628906 C 41.496094 103.296875 44.160156 101.34375 44.160156 99.210938 C 44.160156 98.5 43.804688 96.898438 42.027344 96.898438 C 39.71875 96.898438 39.71875 99.210938 39.71875 99.742188 L 36.34375 99.742188 C 36.34375 98.144531 37.585938 94.410156 42.027344 94.410156 C 46.472656 94.410156 47.359375 97.078125 47.359375 99.03125 C 47.359375 101.699219 45.40625 103.828125 40.785156 108.449219 L 47.890625 108.449219 L 47.890625 110.9375 Z M 48.070312 110.9375 " fill-opacity="1" fill-rule="nonzero"/><path fill="#733063" d="M 150.738281 274.460938 C 148.152344 274.296875 144.042969 273.886719 143.183594 273.683594 C 142.648438 273.558594 141.621094 273.355469 140.882812 273.273438 C 138.664062 272.941406 131.804688 271.464844 129.21875 270.765625 C 125.441406 269.78125 117.226562 266.535156 114.96875 265.222656 C 114.679688 265.015625 113.203125 264.316406 111.722656 263.660156 C 110.683594 263.191406 109.667969 262.671875 108.683594 262.097656 C 108.300781 261.828125 107.890625 261.605469 107.453125 261.441406 C 106.261719 260.949219 103.140625 258.730469 101.375 257.089844 C 100.300781 256.058594 99.175781 255.089844 98.003906 254.171875 C 93.199219 250.3125 92.253906 249.488281 90.613281 247.683594 C 89.125 246.027344 87.785156 244.261719 86.589844 242.382812 C 85.355469 240.535156 84.042969 238.5625 83.671875 238.03125 C 82.605469 236.386719 78.621094 228.335938 77.757812 225.914062 C 76.648438 222.996094 76.402344 221.96875 76.566406 221.355469 C 76.691406 220.984375 76.609375 220.613281 76.320312 219.835938 C 75.785156 218.5625 75.292969 216.632812 74.347656 212.398438 C 73.9375 210.511719 73.40625 208.085938 73.160156 207.0625 C 72.878906 205.761719 72.726562 204.445312 72.707031 203.117188 C 72.707031 201.96875 72.582031 199.296875 72.5 197.121094 C 72.296875 193.425781 72.417969 188.371094 72.746094 186.769531 C 72.828125 186.238281 73.242188 185.703125 73.527344 185.703125 C 73.683594 185.691406 73.808594 185.625 73.898438 185.496094 C 74.144531 185.210938 74.882812 180.898438 75.089844 178.554688 C 75.828125 170.832031 76.484375 166.683594 77.222656 164.507812 C 78.660156 160.238281 81.496094 154.320312 83.550781 151.199219 C 84.988281 149.023438 88.683594 144.628906 91.1875 142.121094 C 93.734375 139.492188 96.609375 137.316406 98.746094 136.289062 C 99.605469 135.921875 100.59375 135.429688 100.960938 135.222656 C 104.78125 133.210938 107.246094 132.304688 109.875 131.894531 C 111.914062 131.566406 113.953125 131.566406 115.996094 131.894531 C 116.773438 132.019531 118.5 132.265625 119.8125 132.390625 C 124.699219 132.882812 127.410156 133.539062 132.21875 135.386719 C 135.667969 136.742188 136.078125 136.867188 138.335938 137.03125 C 141.128906 137.234375 144.621094 136.660156 149.261719 135.304688 C 153.039062 134.195312 153.039062 134.195312 153.574219 134.402344 C 153.929688 134.589844 154.207031 134.863281 154.394531 135.222656 C 154.847656 136.042969 156.570312 137.6875 157.722656 138.425781 C 159.503906 139.480469 161.367188 140.371094 163.308594 141.097656 C 168.605469 142.945312 179.242188 142.984375 187.90625 141.179688 C 189.015625 140.921875 190.140625 140.757812 191.277344 140.6875 C 192.835938 140.6875 201.171875 139.578125 202.488281 139.207031 C 203.320312 138.984375 204.171875 138.875 205.035156 138.878906 C 206.429688 138.878906 206.511719 138.878906 207.417969 139.496094 C 208.8125 140.398438 212.632812 144.382812 213.988281 146.355469 C 214.644531 147.214844 215.628906 148.488281 216.207031 149.148438 C 217.195312 150.355469 218.070312 151.644531 218.832031 153.007812 C 223.0625 160.402344 224.953125 164.550781 225.652344 168.082031 C 225.917969 169.21875 226.273438 170.328125 226.71875 171.410156 C 227.539062 173.421875 229.019531 178.84375 229.019531 179.746094 C 229 180.039062 228.917969 180.3125 228.773438 180.566406 C 228.484375 180.980469 228.484375 181.019531 229.058594 182.5 C 229.390625 183.402344 229.429688 183.855469 229.511719 187.511719 C 229.59375 189.726562 229.71875 191.90625 229.800781 192.355469 C 229.921875 192.929688 229.921875 194.328125 229.757812 197.367188 C 229.308594 205.292969 229.058594 207.636719 228.199219 211.046875 C 227.949219 212.042969 227.785156 213.058594 227.703125 214.085938 C 227.582031 215.851562 227.007812 218.152344 225.324219 223.902344 C 224.007812 228.5 223.433594 230.101562 222.652344 231.785156 C 221.378906 234.332031 217.476562 240 213.945312 244.316406 C 213.207031 245.21875 212.917969 245.710938 212.835938 246.203125 C 212.753906 246.820312 212.507812 247.109375 210.90625 248.667969 C 205.730469 253.679688 198.667969 259.390625 193.082031 262.960938 C 190.699219 264.480469 190.496094 264.605469 189.714844 264.480469 C 189.097656 264.398438 188.894531 264.441406 188.03125 264.976562 C 186.46875 265.917969 185.894531 266.164062 183.636719 266.945312 C 181.132812 267.808594 177.433594 269.535156 176.285156 270.398438 C 175.011719 271.339844 173.863281 271.753906 171.929688 272.039062 C 170.945312 272.164062 168.644531 272.492188 166.839844 272.777344 C 161.789062 273.519531 158.832031 273.886719 156.734375 274.09375 C 155.710938 274.175781 154.519531 274.339844 154.105469 274.421875 C 152.988281 274.570312 151.863281 274.585938 150.738281 274.460938 Z M 150.738281 274.460938 " fill-opacity="1" fill-rule="nonzero"/><path fill="#602952" d="M 152.054688 274.792969 C 151.808594 274.75 150.453125 274.542969 149.097656 274.296875 C 145.359375 273.683594 143.796875 273.558594 141.910156 273.847656 C 140.679688 274.066406 139.449219 274.09375 138.214844 273.929688 C 135.789062 273.722656 135.542969 273.683594 133.984375 273.230469 C 132.585938 272.820312 131.601562 272.246094 131.601562 271.792969 C 131.601562 271.382812 131.519531 271.382812 133.902344 271.667969 C 136.476562 271.980469 139.050781 271.953125 141.621094 271.585938 C 148.933594 270.027344 150.371094 269.617188 154.269531 267.933594 C 157.269531 266.660156 157.96875 266.289062 161.664062 264.113281 C 168.933594 259.800781 173.574219 256.347656 178.503906 251.585938 C 181.984375 248.003906 185.160156 244.167969 188.03125 240.082031 C 188.566406 239.304688 189.550781 237.949219 190.167969 237.085938 C 192.632812 233.800781 194.5625 230.183594 196.777344 224.640625 C 199.324219 218.273438 200.722656 212.359375 201.503906 204.347656 C 201.871094 200.980469 201.914062 192.808594 201.585938 188.988281 C 200.515625 174.777344 196.53125 162.207031 190.660156 154.238281 C 190.207031 153.625 189.675781 152.964844 189.550781 152.84375 C 189.304688 152.679688 188.523438 152.597656 186.101562 152.554688 C 181.109375 152.453125 176.277344 151.523438 171.601562 149.761719 C 165.769531 147.585938 161.210938 144.75 158.460938 141.546875 C 157.925781 140.929688 156.980469 139.90625 156.367188 139.246094 C 155.625 138.425781 155.257812 137.933594 155.257812 137.644531 C 155.257812 137.359375 155.339844 137.234375 155.542969 137.234375 C 156.078125 137.234375 158.296875 138.671875 159.609375 139.863281 C 162.113281 142.195312 164.933594 144.042969 168.070312 145.410156 C 170.289062 146.433594 175.339844 148.242188 175.996094 148.242188 C 176.25 148.226562 176.46875 148.128906 176.65625 147.953125 C 176.941406 147.667969 177.433594 147.667969 183.101562 147.707031 C 188.933594 147.789062 189.179688 147.75 189.589844 147.460938 C 190.988281 146.351562 193 145.777344 196.164062 145.613281 L 198.710938 145.449219 L 200.269531 146.1875 C 203.304688 147.589844 205.835938 149.617188 207.867188 152.269531 C 209.421875 154.03125 210.640625 156.003906 211.523438 158.183594 C 212.015625 159.25 212.671875 160.769531 213.042969 161.550781 C 213.414062 162.332031 214.316406 164.589844 215.015625 166.5625 C 215.753906 168.535156 216.699219 170.996094 217.109375 171.984375 C 218.171875 174.425781 218.992188 176.941406 219.574219 179.542969 C 219.984375 181.882812 219.984375 186.523438 219.53125 191.535156 C 219.324219 193.710938 219.121094 196.421875 219.078125 197.613281 C 219.039062 198.765625 218.875 200.652344 218.75 201.804688 C 218.503906 203.941406 218.136719 208.664062 217.847656 213.632812 C 217.722656 215.195312 217.558594 217.164062 217.4375 217.988281 C 216.945312 220.617188 216.179688 223.164062 215.136719 225.625 C 214.644531 226.734375 214.027344 228.214844 213.78125 228.914062 C 212.386719 232.363281 208.277344 239.835938 205.648438 243.65625 C 202.117188 248.792969 193.125 257.992188 188.195312 261.484375 C 184.949219 263.824219 176.777344 267.851562 172.257812 269.328125 C 171.644531 269.535156 170.082031 270.148438 168.808594 270.726562 C 167.71875 271.234375 166.597656 271.660156 165.441406 272 C 164.867188 272.164062 163.554688 272.53125 162.566406 272.902344 C 161.371094 273.339844 160.152344 273.695312 158.910156 273.96875 C 157.144531 274.421875 153.078125 274.875 152.054688 274.792969 Z M 111.722656 264.152344 C 107.945312 262.796875 104.742188 260.910156 100.714844 257.621094 C 96.988281 254.464844 93.664062 250.933594 90.734375 247.027344 C 89.890625 245.910156 88.972656 244.855469 87.984375 243.863281 C 85.808594 241.605469 85.4375 241.109375 83.464844 237.703125 C 81.628906 234.554688 80.164062 231.238281 79.070312 227.761719 C 78.75 226.660156 78.339844 225.59375 77.839844 224.558594 C 77.304688 223.777344 76.894531 222.503906 75.621094 217.410156 C 74.59375 213.46875 74.347656 212.03125 73.855469 206.976562 C 73.609375 204.761719 73.570312 202.746094 73.570312 197.367188 C 73.570312 188.578125 74.019531 182.496094 74.679688 181.757812 C 74.933594 181.285156 75.085938 180.777344 75.128906 180.238281 C 75.210938 179.582031 75.457031 178.183594 75.664062 177.160156 C 75.867188 176.132812 76.117188 174.777344 76.238281 174.203125 C 76.953125 170.820312 77.894531 167.507812 79.074219 164.261719 C 80.222656 161.222656 81.414062 158.59375 81.660156 158.59375 C 81.863281 158.59375 82.152344 157.976562 84.042969 153.910156 C 86.425781 148.695312 89.011719 144.914062 93.199219 140.480469 C 95.417969 138.136719 95.910156 137.726562 98.210938 136.578125 C 100.265625 135.550781 101.414062 135.179688 101.785156 135.34375 C 102.070312 135.425781 102.070312 135.511719 101.539062 135.960938 C 101.210938 136.207031 100.265625 136.945312 99.402344 137.5625 C 97.65625 138.679688 96.191406 140.089844 95.007812 141.792969 C 94.390625 142.617188 93.242188 144.175781 92.378906 145.242188 C 90.421875 147.8125 88.710938 150.539062 87.246094 153.417969 C 84.453125 159.332031 81.578125 166.929688 81.371094 168.945312 C 81.253906 169.804688 81.074219 170.652344 80.839844 171.492188 C 79.433594 176.472656 78.488281 181.535156 78.003906 186.6875 C 77.757812 189.398438 77.757812 199.503906 78.003906 202.542969 C 79.441406 217.78125 84.328125 232.074219 92.050781 243.453125 C 97.472656 251.421875 103.261719 256.800781 112.011719 261.933594 C 113.324219 262.675781 114.433594 263.414062 114.554688 263.621094 C 114.804688 264.070312 114.308594 264.726562 113.734375 264.726562 C 113.042969 264.613281 112.371094 264.421875 111.722656 264.152344 Z M 111.722656 264.152344 " fill-opacity="1" fill-rule="nonzero"/><path fill="#451c3a" d="M 144.742188 274.914062 C 144.496094 274.832031 144.332031 274.710938 144.332031 274.503906 C 144.332031 274.050781 144.785156 273.929688 148.808594 273.105469 C 158.953125 270.972656 165.648438 268.753906 172.792969 265.097656 C 178.097656 262.382812 183.042969 259.125 187.628906 255.320312 C 192.21875 251.519531 196.335938 247.261719 199.980469 242.546875 C 204.542969 236.632812 208.8125 228.953125 210.539062 223.449219 C 210.949219 222.175781 211.398438 220.65625 211.605469 220.121094 C 211.894531 219.175781 212.34375 217.371094 213.328125 213.179688 C 214.851562 206.730469 215.300781 197.859375 214.480469 191.042969 C 213.082031 179.335938 212.796875 178.144531 207.621094 164.671875 C 204.789062 157.238281 203.390625 154.527344 199.53125 148.859375 C 199.0625 148.109375 198.53125 147.410156 197.929688 146.765625 C 197.4375 146.851562 196.957031 146.992188 196.492188 147.175781 C 195.667969 147.441406 194.832031 147.660156 193.984375 147.832031 C 193.289062 147.957031 192.628906 148.121094 192.507812 148.160156 C 192.136719 148.40625 188.03125 148.898438 185.730469 148.980469 C 178.011719 149.3125 168.933594 147.132812 162.648438 143.4375 C 160.019531 141.875 157.433594 139.90625 157.308594 139.410156 C 157.164062 138.949219 156.945312 138.523438 156.652344 138.136719 C 156.121094 137.398438 155.957031 136.90625 156.160156 136.90625 C 156.582031 137.175781 156.964844 137.492188 157.308594 137.851562 C 157.882812 138.417969 158.550781 138.8125 159.324219 139.042969 C 159.855469 139.207031 161.128906 139.742188 162.15625 140.191406 C 163.464844 140.757812 164.804688 141.222656 166.179688 141.589844 C 167.332031 141.917969 168.359375 142.203125 168.398438 142.246094 C 168.6875 142.410156 174.601562 143.640625 176.121094 143.890625 C 177.722656 144.09375 180.84375 144.011719 185.648438 143.640625 C 187.660156 143.476562 187.949219 143.4375 188.933594 142.945312 C 191.164062 141.859375 193.460938 140.953125 195.835938 140.234375 C 196.859375 140.027344 197.023438 140.027344 197.476562 140.234375 C 197.96875 140.480469 198.050781 140.480469 198.421875 140.191406 C 198.691406 140.003906 198.992188 139.894531 199.324219 139.863281 C 199.652344 139.835938 199.96875 139.890625 200.269531 140.027344 C 200.667969 140.117188 201.0625 140.117188 201.460938 140.027344 C 201.914062 139.945312 203.515625 139.824219 204.992188 139.78125 L 207.621094 139.660156 L 208.523438 140.480469 C 208.976562 140.929688 209.878906 141.710938 210.453125 142.203125 C 212.058594 143.519531 214.5625 146.519531 216.449219 149.394531 C 222.859375 159.085938 227.746094 172.433594 229.386719 184.757812 C 229.757812 187.589844 229.757812 188.90625 229.632812 200.078125 C 229.59375 206.117188 229.550781 206.402344 227.292969 217.328125 C 226.347656 221.96875 226.183594 222.585938 225.320312 224.3125 C 225.035156 224.886719 224.542969 226.117188 224.171875 227.023438 C 223.597656 228.625 222.734375 230.347656 220.761719 233.675781 C 216.082031 241.769531 216.082031 241.769531 214.152344 243.820312 C 213.578125 244.480469 212.425781 245.875 211.644531 246.941406 C 208.8125 250.804688 207.496094 251.996094 201.007812 256.636719 C 196 260.25 193.535156 261.851562 191.070312 263.085938 C 190.332031 263.453125 189.304688 264.03125 188.730469 264.359375 C 186.628906 265.65625 184.425781 266.738281 182.117188 267.601562 C 180.761719 268.097656 178.707031 268.875 177.515625 269.328125 C 175.058594 270.273438 172.539062 271.015625 169.960938 271.546875 C 169.179688 271.652344 168.414062 271.816406 167.660156 272.039062 C 164.660156 272.902344 159.324219 274.257812 158.828125 274.257812 C 158.382812 274.242188 157.945312 274.175781 157.515625 274.050781 C 156.941406 273.886719 156.40625 273.929688 154.269531 274.296875 C 150.328125 274.996094 145.976562 275.242188 144.742188 274.914062 Z M 144.742188 274.914062 " fill-opacity="1" fill-rule="nonzero"/><path fill="#913d7b" d="M 116.488281 257.992188 C 99.195312 252.035156 85.683594 225.996094 84.984375 197.203125 C 84.574219 179.171875 89.050781 163.480469 97.59375 153.292969 C 99.6875 150.832031 101.125 149.597656 106.300781 146.148438 C 108.519531 144.667969 111.148438 143.972656 114.597656 143.972656 C 124.535156 143.972656 133.488281 150.707031 136.078125 160.113281 C 136.40625 161.304688 136.445312 161.839844 136.445312 164.34375 C 136.445312 166.972656 136.40625 167.34375 135.996094 168.699219 C 135.035156 171.40625 133.773438 173.964844 132.214844 176.378906 C 130.695312 178.636719 128.601562 181.144531 122.402344 188.371094 C 120.800781 190.179688 118.949219 192.355469 118.292969 193.175781 C 117.144531 194.613281 114.144531 199.050781 112.75 201.390625 C 111.351562 203.773438 109.914062 207.511719 108.808594 211.660156 C 107.820312 215.273438 107.699219 216.300781 107.738281 220.613281 C 107.738281 224.886719 107.945312 226.734375 108.683594 229.734375 C 109.792969 234.167969 110.574219 235.976562 114.226562 243.164062 C 116.773438 248.132812 116.9375 248.421875 118.292969 249.941406 C 120.71875 252.613281 121.414062 253.84375 121.414062 255.363281 C 121.414062 256.71875 121.046875 257.292969 119.773438 257.949219 C 119.308594 258.199219 118.816406 258.363281 118.292969 258.445312 C 117.679688 258.34375 117.074219 258.195312 116.488281 257.992188 Z M 116.488281 257.992188 " fill-opacity="1" fill-rule="nonzero"/><path fill="#c772b0" d="M 94.308594 217.042969 C 93.414062 215.285156 92.730469 213.449219 92.253906 211.539062 C 89.875 202.914062 89.542969 192.027344 91.351562 182.128906 C 92.625 175.1875 95.460938 167.710938 98.828125 162.617188 C 100.878906 159.429688 103.398438 156.664062 106.382812 154.320312 C 109.011719 152.351562 113.117188 150.625 115.746094 150.417969 C 117.226562 150.296875 117.511719 150.460938 118.128906 151.691406 C 118.582031 152.554688 118.621094 152.84375 118.621094 154.035156 C 118.671875 154.957031 118.496094 155.832031 118.089844 156.664062 C 116.609375 159.949219 113.816406 162.699219 107.78125 166.683594 C 104.90625 168.574219 103.671875 169.683594 101.660156 172.1875 C 97.757812 177.035156 96.484375 179.582031 95.046875 185.539062 C 93.816406 190.671875 93.488281 193.011719 93.363281 196.957031 C 93.324219 198.929688 93.363281 202.089844 93.488281 203.9375 C 93.652344 207.183594 93.816406 208.539062 94.71875 212.730469 C 95.171875 214.945312 95.335938 217.738281 95.007812 217.863281 C 94.925781 217.902344 94.597656 217.535156 94.308594 217.042969 Z M 94.308594 217.042969 " fill-opacity="1" fill-rule="nonzero"/><path fill="#684326" d="M 138.253906 136.988281 C 138.023438 136.761719 137.886719 136.488281 137.84375 136.167969 C 137.929688 135.523438 138.175781 134.949219 138.582031 134.441406 C 138.828125 134.15625 139.199219 131.9375 139.566406 128.527344 C 139.734375 127.296875 139.9375 125.859375 140.0625 125.324219 C 140.347656 124.132812 140.71875 116.535156 140.59375 113.660156 C 140.511719 111.769531 140.511719 111.644531 139.898438 110.453125 C 139.527344 109.757812 138.953125 108.566406 138.582031 107.742188 C 138.117188 106.753906 137.597656 105.796875 137.023438 104.867188 C 136.550781 104.199219 136.128906 103.5 135.75 102.773438 C 134.988281 101.425781 134.152344 100.125 133.242188 98.871094 C 132.335938 97.492188 131.640625 96.011719 131.148438 94.4375 C 130.820312 93.367188 130.902344 92.339844 131.4375 90.617188 C 131.707031 89.832031 131.855469 89.023438 131.886719 88.191406 C 131.886719 87.25 132.132812 86.714844 133.53125 84.660156 C 134.640625 83.058594 135.214844 82.6875 136.527344 82.6875 C 138.664062 82.6875 140.472656 83.386719 141.621094 84.578125 C 141.828125 84.84375 142.089844 85.035156 142.402344 85.152344 C 142.8125 85.152344 143.429688 85.933594 143.429688 86.46875 C 143.429688 86.878906 143.632812 87.207031 144.25 87.90625 C 145.441406 89.21875 145.8125 90.371094 145.769531 93.039062 C 145.757812 94.375 145.660156 95.703125 145.480469 97.023438 C 145.378906 97.703125 145.324219 98.390625 145.316406 99.078125 C 145.359375 99.160156 145.480469 100.71875 145.648438 102.570312 C 145.894531 106.390625 145.894531 114.070312 145.5625 117.273438 C 145.070312 122.859375 144.785156 124.871094 144.003906 128.28125 C 143.46875 130.621094 143.46875 130.828125 143.675781 131.28125 C 143.921875 131.773438 143.921875 131.855469 143.386719 133.414062 C 143.058594 134.320312 142.6875 135.265625 142.566406 135.550781 C 142.167969 136.242188 141.59375 136.722656 140.839844 136.988281 C 140.59375 137.03125 140.183594 137.152344 139.898438 137.234375 C 139.074219 137.480469 138.707031 137.441406 138.253906 136.988281 Z M 138.253906 136.988281 " fill-opacity="1" fill-rule="nonzero"/><path fill="#875b2a" d="M 141.046875 127.089844 C 140.964844 126.882812 141.046875 124.871094 141.210938 122.695312 C 141.703125 115.917969 141.703125 116.246094 141.417969 115.671875 C 140.878906 114.527344 140.480469 113.335938 140.226562 112.097656 C 139.753906 110.027344 139.015625 108.054688 138.007812 106.183594 C 137.597656 105.320312 136.898438 103.800781 136.445312 102.816406 C 135.089844 99.695312 134.3125 98.257812 133.242188 96.984375 C 131.722656 95.175781 131.558594 94.683594 131.640625 92.464844 C 131.644531 91.316406 131.851562 90.210938 132.257812 89.136719 C 133.613281 85.070312 134.722656 83.101562 135.953125 82.484375 C 136.527344 82.15625 136.609375 82.15625 137.023438 82.359375 C 137.433594 82.605469 137.433594 82.6875 137.433594 83.960938 C 137.433594 84.949219 137.515625 85.359375 137.71875 85.605469 C 137.972656 85.953125 138.191406 86.324219 138.378906 86.714844 C 138.625 87.167969 139.15625 88.070312 139.566406 88.6875 C 139.980469 89.300781 140.71875 90.65625 141.210938 91.644531 C 142.773438 94.804688 143.386719 98.132812 143.59375 105.035156 C 143.757812 111.277344 143.59375 116.738281 143.019531 120.230469 C 142.609375 122.980469 142.03125 126.433594 141.867188 127.171875 C 141.746094 127.707031 141.171875 127.664062 141.046875 127.089844 Z M 141.046875 127.089844 " fill-opacity="1" fill-rule="nonzero"/><path fill="#b0924a" d="M 135.953125 103.84375 C 135.953125 103.71875 135.75 103.019531 135.542969 102.28125 C 135.355469 101.523438 135.054688 100.808594 134.640625 100.144531 C 133.078125 97.96875 131.851562 97.527344 131.398438 95.476562 C 131.109375 93.996094 131.480469 90.988281 131.726562 89.386719 C 131.976562 87.828125 133.367188 85.234375 133.902344 84.660156 C 134.515625 84.003906 135.089844 84.003906 135.707031 84.660156 C 136.324219 85.234375 136.324219 85.769531 135.789062 88.191406 C 135.050781 91.398438 135.296875 93.410156 136.695312 96.488281 C 137.84375 98.953125 138.253906 100.597656 138.132812 102.238281 C 138.046875 104.007812 137.597656 104.539062 137.105469 103.511719 C 136.980469 103.226562 136.898438 103.101562 136.859375 103.265625 C 136.859375 103.554688 136.445312 104.046875 136.199219 104.046875 C 136.074219 104.03125 135.992188 103.960938 135.953125 103.84375 Z M 135.953125 103.84375 " fill-opacity="1" fill-rule="nonzero"/><path fill="#779c19" d="M 174.558594 142.492188 C 174.113281 142.40625 173.660156 142.351562 173.203125 142.328125 C 171.273438 142.289062 165.441406 140.808594 161.746094 139.410156 C 160.1875 138.835938 157.558594 137.070312 156.160156 135.675781 C 154.640625 134.195312 151.765625 130.335938 151.148438 128.980469 C 149.710938 125.734375 149.507812 123.722656 150.492188 121.710938 C 151.527344 119.882812 152.9375 118.417969 154.722656 117.3125 C 155.503906 116.863281 156.203125 116.328125 156.285156 116.121094 C 156.417969 115.6875 156.429688 115.25 156.324219 114.808594 C 156.078125 112.917969 156.160156 111.113281 156.53125 110.207031 C 156.742188 109.765625 156.863281 109.300781 156.898438 108.8125 C 156.898438 107.703125 157.640625 106.140625 159.199219 103.84375 C 161.171875 100.886719 162.199219 99.941406 164.910156 98.585938 C 167.621094 97.230469 168.605469 96.859375 171.273438 96.488281 C 174.3125 95.996094 175.75 96.039062 178.460938 96.652344 C 181.378906 97.269531 183.101562 97.84375 186.636719 99.28125 C 189.53125 100.386719 192.242188 101.839844 194.765625 103.636719 C 196.113281 104.460938 197.347656 105.433594 198.460938 106.554688 C 199.160156 107.292969 201.050781 109.222656 202.691406 110.824219 C 205.566406 113.742188 206.882812 115.382812 207.085938 116.371094 C 207.230469 116.738281 207.464844 117.042969 207.785156 117.273438 C 209.550781 118.585938 211.03125 120.683594 212.222656 123.476562 C 212.542969 124.28125 212.941406 125.046875 213.414062 125.777344 C 214.273438 127.128906 217.230469 133.25 217.640625 134.605469 C 218.503906 137.316406 218.710938 138.261719 218.628906 139.492188 C 218.585938 140.355469 218.464844 140.808594 218.257812 140.972656 C 218.011719 141.21875 217.972656 141.21875 217.808594 140.972656 C 217.683594 140.808594 217.4375 140.765625 217.066406 140.808594 C 216.65625 140.847656 216.492188 140.808594 216.164062 140.355469 C 215.929688 140.054688 215.65625 139.792969 215.34375 139.574219 C 214.601562 139.207031 212.304688 138.753906 210.125 138.550781 C 208.945312 138.351562 207.769531 138.363281 206.59375 138.589844 C 205.773438 138.753906 203.679688 139 201.953125 139.125 C 197.683594 139.453125 196.410156 139.660156 190.78125 140.847656 C 189.480469 141.117188 188.164062 141.308594 186.839844 141.425781 C 185.976562 141.464844 184.375 141.671875 183.347656 141.835938 C 180.789062 142.226562 178.214844 142.488281 175.628906 142.617188 C 175.265625 142.617188 174.910156 142.578125 174.558594 142.492188 Z M 174.558594 142.492188 " fill-opacity="1" fill-rule="nonzero"/><path fill="#a4c602" d="M 217.765625 140.890625 C 217.683594 139.945312 217.476562 139.453125 216.617188 137.769531 C 216.039062 136.660156 215.179688 135.097656 214.683594 134.320312 C 214.191406 133.539062 213.246094 131.855469 212.589844 130.582031 C 211.933594 129.347656 210.988281 127.707031 210.496094 127.007812 C 210.035156 126.339844 209.625 125.640625 209.265625 124.914062 C 207.851562 122.285156 206.304688 119.738281 204.625 117.273438 C 202.855469 114.890625 200.558594 113.042969 196.367188 110.621094 C 195.75 110.285156 195.203125 109.859375 194.726562 109.347656 C 193.976562 108.347656 193.113281 107.457031 192.136719 106.675781 C 191.234375 106.019531 189.46875 105.527344 187.496094 105.320312 C 185.277344 105.117188 184.992188 105.199219 181.664062 106.882812 C 180.1875 107.621094 178.625 108.402344 178.214844 108.605469 C 177.328125 109.078125 176.382812 109.367188 175.382812 109.46875 C 174.683594 109.46875 173.65625 109.058594 173.449219 108.730469 C 173.246094 108.402344 174.230469 106.921875 175.09375 106.222656 C 176.957031 104.957031 178.929688 103.886719 181.007812 103.019531 C 183.019531 102.199219 183.144531 102.363281 179.488281 101.132812 C 177.433594 100.472656 177.023438 100.390625 175.710938 100.351562 C 173 100.351562 170.289062 101.253906 166.960938 103.265625 C 164.519531 104.675781 162.441406 106.496094 160.71875 108.730469 C 160.039062 109.625 159.410156 110.558594 158.832031 111.523438 C 158.585938 112.019531 158.3125 112.5 158.007812 112.960938 C 157.757812 113.335938 157.605469 113.746094 157.558594 114.191406 C 157.433594 115.300781 157.023438 115.261719 156.40625 114.070312 C 155.789062 112.878906 155.789062 112.140625 156.40625 110.414062 C 156.695312 109.675781 157.144531 108.441406 157.394531 107.660156 C 158.050781 105.8125 158.625 104.992188 160.390625 103.265625 C 162.246094 101.417969 164.339844 99.898438 166.675781 98.707031 C 169.054688 97.515625 170.535156 97.148438 172.589844 97.066406 C 173.53125 97.023438 174.96875 96.941406 175.875 96.816406 C 177.597656 96.613281 178.585938 96.734375 181.378906 97.515625 C 185.8125 98.707031 188.316406 99.652344 189.671875 100.597656 C 190.183594 100.925781 190.730469 101.171875 191.316406 101.335938 C 192.835938 101.789062 194.109375 102.488281 194.726562 103.226562 C 195.421875 104.128906 195.667969 104.335938 197.3125 105.566406 C 198.03125 106.085938 198.6875 106.675781 199.285156 107.332031 C 199.820312 107.988281 200.40625 108.589844 201.050781 109.140625 C 202.570312 110.453125 205.691406 114.273438 205.691406 114.808594 C 205.691406 115.054688 206.058594 115.589844 206.59375 116.164062 C 207.085938 116.699219 207.746094 117.4375 208.03125 117.765625 C 209.371094 119.578125 210.589844 121.464844 211.6875 123.433594 C 212.007812 124.082031 212.363281 124.714844 212.753906 125.324219 C 213.738281 126.875 214.53125 128.519531 215.136719 130.253906 C 215.464844 131.15625 215.957031 132.429688 216.285156 133.128906 C 218.011719 136.949219 218.585938 138.917969 218.421875 140.4375 C 218.21875 142.371094 217.972656 142.535156 217.765625 140.890625 Z M 173.328125 141.097656 C 173.285156 141.054688 171.972656 140.972656 170.371094 140.847656 C 166.140625 140.601562 164.375 140.152344 160.351562 138.261719 C 159.078125 137.644531 156.695312 135.222656 156.039062 133.824219 C 155.800781 133.328125 155.636719 132.808594 155.542969 132.265625 C 155.503906 131.363281 155.957031 131.527344 157.1875 132.757812 C 159.117188 134.6875 160.515625 135.714844 161.5 136.003906 C 161.992188 136.167969 162.976562 136.453125 163.636719 136.660156 C 164.332031 136.90625 165.605469 137.195312 166.511719 137.398438 C 168.316406 137.726562 171.519531 138.015625 171.519531 137.808594 C 171.410156 137.5625 171.257812 137.34375 171.070312 137.152344 C 170.453125 136.453125 169.222656 134.03125 169.222656 133.496094 C 169.222656 132.71875 170.042969 133.128906 171.929688 134.933594 C 172.378906 135.386719 172.871094 135.785156 173.410156 136.125 C 173.699219 136.289062 175.464844 136.660156 177.3125 136.988281 C 179.25 137.390625 181.207031 137.582031 183.183594 137.5625 C 184.035156 137.582031 184.886719 137.542969 185.730469 137.441406 C 185.773438 137.359375 185.363281 136.949219 184.785156 136.578125 C 183.269531 135.347656 181.941406 133.9375 180.804688 132.347656 C 179.933594 130.925781 179.371094 129.394531 179.117188 127.746094 C 179.035156 126.761719 179.324219 126.226562 180.023438 126.226562 C 180.554688 126.226562 181.050781 126.800781 182.074219 128.734375 C 182.773438 130.128906 183.226562 130.703125 184.582031 132.101562 C 186.019531 133.707031 187.730469 134.921875 189.714844 135.757812 C 191.316406 136.535156 191.234375 136.496094 195.753906 136.085938 C 198.707031 135.789062 201.648438 135.871094 204.582031 136.332031 C 206.675781 136.699219 210.292969 137.6875 211.316406 138.222656 C 211.851562 138.507812 212.753906 139.371094 212.753906 139.660156 C 212.753906 139.90625 212.753906 139.90625 211.730469 139.617188 C 209.921875 139.125 205.238281 138.632812 202.078125 138.632812 C 198.214844 138.632812 192.507812 139.289062 190.003906 140.027344 C 187.210938 140.847656 183.800781 141.179688 178.214844 141.179688 C 175.585938 141.179688 173.371094 141.136719 173.328125 141.097656 Z M 173.328125 141.097656 " fill-opacity="1" fill-rule="nonzero"/><path fill="#5b7404" d="M 202.242188 131.9375 C 201.171875 130.253906 200.433594 128.691406 200.1875 127.378906 C 199.898438 125.941406 199.980469 125.199219 200.515625 124.625 C 201.050781 124.089844 201.582031 124.335938 201.582031 125.117188 C 201.582031 125.859375 202.28125 128.28125 203.0625 130.375 C 203.84375 132.511719 203.882812 132.964844 203.308594 132.964844 C 202.980469 132.964844 202.773438 132.757812 202.242188 131.9375 Z M 188.195312 132.140625 C 187.128906 130.949219 185.402344 127.910156 184.539062 125.691406 C 183.019531 121.914062 182.773438 116.207031 184.171875 116.78125 C 184.378906 116.878906 184.597656 116.949219 184.828125 116.984375 C 185.402344 117.109375 185.484375 117.273438 185.484375 118.667969 C 185.484375 119.328125 185.648438 120.96875 185.8125 122.285156 C 186.140625 124.871094 186.101562 124.789062 188.113281 129.511719 C 188.539062 130.4375 188.90625 131.382812 189.222656 132.347656 C 189.34375 133.003906 188.933594 132.921875 188.195312 132.140625 Z M 175.09375 130.375 C 172.835938 128.074219 171.070312 124.378906 170.371094 120.394531 C 169.714844 116.65625 170.082031 113.90625 171.316406 113.90625 C 171.890625 113.90625 172.136719 114.480469 172.261719 116.207031 C 172.453125 118.730469 172.945312 121.195312 173.738281 123.597656 C 175.132812 127.789062 175.667969 129.226562 176.121094 129.964844 C 176.65625 130.828125 176.777344 131.484375 176.40625 131.484375 C 175.914062 131.179688 175.476562 130.8125 175.09375 130.375 Z M 160.964844 128.898438 C 159.265625 126.738281 158.078125 124.328125 157.394531 121.667969 C 156.695312 119.285156 156.488281 117.398438 156.816406 116.617188 C 157.023438 116.121094 157.148438 116.042969 157.515625 116.042969 C 158.089844 116.042969 158.214844 116.289062 158.707031 118.421875 C 159.433594 121.886719 160.527344 125.226562 161.992188 128.445312 C 162.273438 128.976562 162.464844 129.539062 162.566406 130.128906 C 162.402344 130.582031 161.992188 130.253906 160.964844 128.898438 Z M 205.035156 127.171875 C 205.035156 126.882812 206.675781 126.0625 207.582031 125.941406 C 208.484375 125.816406 209.757812 126.144531 210.25 126.597656 C 210.398438 126.726562 210.519531 126.878906 210.621094 127.050781 C 210.621094 127.128906 209.796875 127.171875 208.773438 127.128906 C 207.746094 127.128906 206.511719 127.214844 205.980469 127.253906 C 205.199219 127.378906 205.035156 127.378906 205.035156 127.171875 Z M 192.796875 119.65625 C 192.097656 118.875 193 117.3125 194.644531 116.617188 C 197.109375 115.507812 202.242188 115.382812 202.242188 116.492188 C 202.242188 116.738281 201.953125 116.820312 200.269531 117.027344 C 197.96875 117.3125 195.546875 118.21875 194.316406 119.285156 C 193.410156 120.066406 193.207031 120.105469 192.796875 119.65625 Z M 178.871094 114.5625 C 178.421875 114.273438 178.503906 113.289062 179.117188 112.261719 C 180.472656 110.003906 185.28125 107.578125 188.894531 107.375 C 190.167969 107.292969 190.496094 107.332031 190.824219 107.578125 C 191.191406 107.828125 191.234375 107.90625 191.027344 108.074219 C 190.660156 108.296875 190.265625 108.433594 189.839844 108.484375 C 187.128906 108.976562 183.226562 111.152344 180.515625 113.699219 C 179.363281 114.808594 179.324219 114.808594 178.871094 114.5625 Z M 163.71875 113.660156 C 163.101562 113 163.308594 111.808594 164.375 110.042969 C 166.265625 106.964844 169.386719 104.375 172.546875 103.308594 C 175.054688 102.488281 178.707031 102.40625 178.542969 103.183594 C 178.542969 103.347656 178.257812 103.511719 177.925781 103.554688 C 177.597656 103.636719 176.941406 103.761719 176.449219 103.882812 C 174.601562 104.253906 171.972656 105.8125 169.796875 107.867188 C 168.308594 109.382812 166.980469 111.023438 165.8125 112.796875 C 165.15625 113.863281 164.292969 114.191406 163.71875 113.660156 Z M 163.71875 113.660156 " fill-opacity="1" fill-rule="nonzero"/><g clip-path="url(#5345860460)"><path fill="#000000" d="M 147.453125 276.515625 C 146.304688 276.476562 144.867188 276.3125 144.332031 276.230469 C 143.796875 276.148438 142.566406 275.941406 141.582031 275.816406 C 140.929688 275.75 140.285156 275.640625 139.648438 275.488281 C 138.828125 275.25 137.992188 275.058594 137.144531 274.914062 C 126.949219 272.699219 117.382812 268.90625 108.4375 263.539062 C 102.347656 259.894531 96.816406 255.542969 91.84375 250.476562 C 86.382812 244.890625 83.34375 240.742188 79.648438 233.511719 C 75.210938 224.886719 72.746094 216.054688 71.597656 204.679688 C 71.269531 201.351562 71.351562 190.097656 71.679688 186.769531 C 72.992188 175.023438 75.582031 165.410156 79.933594 156.539062 C 84.492188 147.214844 90.734375 139.90625 97.675781 135.839844 C 99.605469 134.6875 100.796875 134.15625 103.878906 133.046875 C 107.289062 131.855469 107.246094 131.855469 109.914062 131.445312 C 112.914062 130.992188 115.910156 130.992188 120.019531 131.445312 C 123.796875 131.894531 125.523438 132.304688 132.050781 134.195312 C 137.0625 135.675781 137.84375 135.878906 137.84375 135.675781 C 137.84375 135.632812 138.089844 134.402344 138.417969 132.921875 C 139.097656 130.019531 139.453125 127.074219 139.484375 124.089844 C 139.734375 118.546875 139.445312 115.425781 138.335938 111.152344 C 137.761719 108.769531 135.585938 104.253906 134.1875 102.488281 C 133.695312 101.828125 132.667969 100.351562 131.886719 99.160156 C 130.203125 96.53125 129.875 95.546875 129.875 92.875 C 129.863281 91.003906 130.230469 89.210938 130.984375 87.496094 C 132.011719 84.703125 132.257812 84.332031 133.820312 83.015625 C 135.214844 81.910156 136.035156 81.457031 136.160156 81.828125 C 136.199219 81.949219 136.488281 81.992188 136.980469 81.910156 C 138.289062 81.792969 139.496094 82.09375 140.59375 82.8125 C 143.511719 84.703125 145.566406 86.507812 146.097656 87.660156 C 146.46875 88.480469 146.46875 88.644531 146.507812 93.039062 C 146.507812 97.515625 146.589844 98.585938 147.289062 103.390625 C 147.699219 106.058594 147.863281 110.867188 147.699219 114.644531 C 147.535156 118.421875 147.414062 119.984375 147.207031 120.230469 C 147.105469 120.46875 147.035156 120.714844 147.003906 120.96875 C 146.878906 121.503906 146.917969 121.460938 148.441406 120.023438 C 150.109375 118.382812 151.996094 117.054688 154.105469 116.042969 C 154.847656 115.710938 155.503906 115.382812 155.585938 115.34375 C 155.667969 115.34375 155.542969 114.890625 155.296875 114.398438 C 154.886719 113.578125 154.847656 113.289062 154.804688 111.398438 C 154.722656 108.769531 154.886719 107.992188 156.078125 105.648438 C 158.378906 101.089844 160.308594 99.078125 164.085938 97.1875 C 166.183594 96.121094 169.054688 95.175781 170.78125 95.011719 C 174.503906 94.691406 178.183594 94.9375 181.828125 95.75 C 183.808594 96.078125 185.683594 96.707031 187.457031 97.640625 C 192.835938 100.226562 199.324219 104.703125 202.980469 108.402344 C 206.101562 111.523438 209.921875 116.699219 212.425781 121.257812 C 213.863281 123.84375 217.191406 131.03125 218.175781 133.660156 C 219.242188 136.535156 219.328125 136.867188 220.929688 143.601562 C 220.96875 143.847656 220.929688 143.972656 220.679688 144.054688 C 220.433594 144.136719 220.148438 143.929688 219.449219 143.273438 C 218.421875 142.203125 216.410156 141.179688 214.726562 140.765625 C 213.535156 140.519531 211.113281 140.191406 211.113281 140.316406 C 211.113281 140.355469 211.894531 141.21875 212.878906 142.246094 C 216.78125 146.230469 219.902344 150.789062 222.695312 156.539062 C 227.046875 165.410156 229.675781 175.023438 230.949219 186.769531 C 231.320312 190.097656 231.359375 201.351562 231.03125 204.679688 C 229.882812 216.054688 227.417969 224.886719 222.980469 233.511719 C 219.285156 240.742188 216.289062 244.890625 210.785156 250.476562 C 205.8125 255.542969 200.28125 259.894531 194.191406 263.539062 C 185.527344 268.792969 174.230469 273.230469 165.113281 274.996094 C 164.503906 275.09375 163.898438 275.230469 163.308594 275.40625 C 162.648438 275.652344 157.351562 276.394531 154.929688 276.558594 C 152.4375 276.726562 149.945312 276.714844 147.453125 276.515625 Z M 158.542969 273.519531 C 165.34375 272.574219 171.957031 270.882812 178.375 268.441406 C 184.796875 266 190.863281 262.875 196.574219 259.058594 C 201.238281 256.03125 205.507812 252.527344 209.386719 248.546875 C 215.015625 242.917969 218.339844 238.277344 221.339844 231.953125 C 223.382812 227.804688 224.984375 223.488281 226.144531 219.011719 C 230.003906 204.351562 229.921875 187.46875 225.898438 172.148438 C 222.449219 159.046875 216 147.503906 208.402344 140.972656 L 207.292969 139.988281 L 205.28125 140.109375 C 202.082031 140.242188 198.933594 140.707031 195.835938 141.507812 C 185.855469 143.890625 184.664062 144.054688 177.351562 144.054688 C 169.960938 144.054688 168.234375 143.847656 164.457031 142.617188 C 163.058594 142.164062 161.457031 141.589844 160.84375 141.300781 C 158.589844 140.167969 156.5625 138.71875 154.765625 136.949219 L 153.082031 135.265625 L 151.3125 135.921875 C 148.367188 136.929688 145.34375 137.546875 142.238281 137.769531 C 138.828125 137.972656 138.460938 137.933594 131.722656 136.125 C 123.59375 133.988281 123.140625 133.90625 116.9375 133.414062 C 115.171875 133.292969 114.390625 133.292969 114.144531 133.414062 C 113.570312 133.601562 112.984375 133.699219 112.378906 133.703125 C 110.234375 133.792969 108.125 134.121094 106.054688 134.6875 C 103.390625 135.5625 100.859375 136.726562 98.457031 138.179688 C 97.933594 138.515625 97.386719 138.800781 96.8125 139.042969 C 96.402344 139.042969 93.691406 141.382812 91.761719 143.355469 C 82.191406 153.210938 75.582031 169.886719 74.019531 187.839844 C 72.828125 201.84375 74.636719 215.769531 79.070312 226.941406 C 82.644531 235.894531 86.503906 241.808594 93.242188 248.546875 C 97.128906 252.515625 101.402344 256.023438 106.054688 259.058594 C 118.210938 267.109375 132.175781 272.246094 146.058594 273.765625 C 148.234375 273.96875 156.324219 273.847656 158.542969 273.519531 Z M 185.730469 141.21875 C 186.921875 141.015625 190.289062 140.355469 193.207031 139.78125 C 199.121094 138.589844 201.953125 138.222656 205.773438 138.222656 C 211.316406 138.222656 215.464844 138.960938 217.890625 140.355469 C 218.382812 140.683594 218.667969 140.765625 218.628906 140.644531 C 218.585938 140.519531 218.382812 139.863281 218.175781 139.164062 C 217.3125 136.332031 213.699219 128.28125 210.949219 123.269531 C 209.195312 120.1875 207.253906 117.230469 205.117188 114.398438 C 201.5 109.714844 197.023438 105.894531 190.742188 102.15625 C 186.058594 99.363281 184.5 98.707031 180.800781 97.925781 C 178.257812 97.433594 178.050781 97.394531 173.984375 97.394531 L 169.796875 97.394531 L 168.070312 98.007812 C 165.648438 98.914062 163.101562 100.269531 161.871094 101.296875 C 160.472656 102.445312 159.160156 104.292969 157.925781 106.71875 C 157.023438 108.441406 156.859375 108.933594 156.695312 110.125 C 156.570312 111.359375 156.613281 114.644531 156.777344 114.808594 C 157.238281 114.742188 157.691406 114.632812 158.132812 114.480469 C 164.539062 112.425781 172.589844 112.425781 180.761719 114.480469 C 189.179688 116.617188 198.132812 121.175781 205.363281 127.007812 C 207.621094 128.855469 213.90625 135.097656 213.90625 135.550781 C 213.910156 135.730469 213.855469 135.886719 213.734375 136.023438 C 213.617188 136.15625 213.46875 136.234375 213.289062 136.25 C 213.167969 136.25 211.8125 134.976562 210.25 133.414062 C 200.886719 123.96875 188.851562 117.765625 176.285156 115.835938 C 172.917969 115.34375 166.058594 115.300781 163.390625 115.753906 C 160.425781 116.238281 157.578125 117.101562 154.847656 118.339844 C 153.492188 119 153 119.328125 152.300781 120.105469 C 151.152344 121.339844 150.820312 122.039062 150.65625 123.558594 C 150.488281 125.054688 150.707031 126.492188 151.316406 127.871094 C 152.464844 130.785156 156.449219 135.511719 159.445312 137.5625 C 160.980469 138.613281 162.636719 139.40625 164.414062 139.945312 C 166.390625 140.699219 168.429688 141.164062 170.535156 141.34375 C 173.65625 141.628906 173.902344 141.628906 178.832031 141.589844 C 182.691406 141.546875 184.007812 141.464844 185.730469 141.21875 Z M 142.277344 135.140625 C 143.261719 131.667969 144.027344 128.148438 144.578125 124.585938 C 144.703125 123.722656 144.949219 121.996094 145.113281 120.722656 C 145.441406 118.628906 145.480469 117.765625 145.480469 111.769531 C 145.480469 107.085938 145.398438 104.621094 145.277344 103.472656 C 145.152344 102.570312 145.03125 100.023438 144.988281 97.84375 C 144.90625 92.21875 144.578125 88.890625 143.960938 87.742188 C 143.632812 87.042969 141.335938 84.867188 140.019531 83.960938 C 138.953125 83.183594 138.789062 83.140625 137.554688 83.058594 L 136.242188 82.976562 L 135.585938 83.59375 C 134.351562 84.703125 133.613281 85.851562 132.832031 87.824219 C 132.433594 88.835938 132.132812 89.875 131.929688 90.945312 C 131.730469 92.433594 131.785156 93.910156 132.09375 95.378906 C 132.300781 96.078125 134.597656 99.570312 135.871094 101.171875 C 137.363281 103.191406 138.664062 105.328125 139.773438 107.578125 C 140.429688 108.976562 141.5 113.164062 141.785156 115.464844 C 142.074219 117.519531 141.910156 123.515625 141.539062 126.472656 C 141.15625 129.191406 140.515625 131.847656 139.609375 134.441406 C 139.28125 135.265625 139.035156 136.042969 139.117188 136.125 C 139.589844 136.226562 140.070312 136.265625 140.554688 136.25 L 141.910156 136.25 Z M 146.058594 136.085938 C 147.535156 135.878906 149.054688 135.386719 148.851562 135.261719 C 148.6875 135.140625 149.875 134.8125 151.519531 134.523438 C 151.773438 134.484375 152.007812 134.386719 152.21875 134.238281 C 152.300781 134.15625 151.847656 133.457031 151.273438 132.675781 C 150.035156 131.191406 149.203125 129.507812 148.769531 127.625 C 148.335938 126.164062 148.253906 124.6875 148.523438 123.1875 C 148.605469 122.652344 148.644531 122.203125 148.644531 122.160156 C 148.304688 122.335938 147.976562 122.527344 147.660156 122.734375 C 146.796875 123.3125 146.714844 123.394531 146.632812 124.089844 C 146.140625 127.992188 144.988281 133.003906 144.085938 135.140625 L 143.632812 136.25 L 144.332031 136.25 C 144.910156 136.226562 145.484375 136.171875 146.058594 136.085938 Z M 146.058594 136.085938 " fill-opacity="1" fill-rule="nonzero"/></g><g fill="#ffffff" fill-opacity="1"><g transform="translate(104.503378, 351.321586)"><g><path d="M 2.328125 -0.921875 L 2.296875 -10.5 L 2.359375 -11.234375 L 2.296875 -11.84375 L 2.328125 -12.453125 L 2.390625 -13.03125 L 2.328125 -13.765625 L 2.390625 -14.328125 L 2.359375 -15 L 2.296875 -15.546875 L 2.421875 -19.125 L 2.328125 -20.078125 L 2.421875 -21.390625 L 2.625 -21.96875 L 3.3125 -22.3125 L 4.21875 -22.28125 L 4.890625 -22.34375 L 6.515625 -22.34375 L 7.09375 -22.28125 L 8.328125 -22.28125 L 9.328125 -22.34375 L 9.953125 -22.3125 L 10.921875 -22.375 L 11.484375 -22.3125 L 12.734375 -22.375 L 13.4375 -22.28125 L 15.359375 -22.3125 L 15.890625 -21.96875 L 16.28125 -21 L 16.21875 -19.796875 L 16.28125 -18.15625 L 15.953125 -17.53125 L 15.328125 -17.203125 L 12.890625 -17.265625 L 12.21875 -17.203125 L 11.59375 -17.234375 L 11.015625 -17.203125 L 10.09375 -17.265625 L 9.0625 -17.265625 L 8.453125 -16.859375 L 8.140625 -16.21875 L 8.203125 -14.78125 L 8.140625 -14.171875 L 8.140625 -13.28125 L 8.484375 -12.609375 L 9.125 -12.359375 L 9.828125 -12.390625 L 11.078125 -12.21875 L 12.765625 -12.359375 L 14.328125 -12.296875 L 15 -12.03125 L 15.328125 -11.390625 L 15.359375 -8.5625 L 15.03125 -7.5625 L 14.359375 -7.25 L 13.0625 -7.1875 L 12.421875 -7.25 L 11.75 -7.21875 L 11.109375 -7.28125 L 10.46875 -7.15625 L 9.796875 -7.28125 L 9.09375 -7.21875 L 8.453125 -6.921875 L 8.171875 -6.28125 L 8.203125 -2.90625 L 8.140625 -2.296875 L 8.234375 -1.28125 L 7.859375 -0.3125 L 7.1875 -0.03125 L 5.59375 0.09375 L 3.359375 0 L 2.65625 -0.3125 Z M 2.328125 -0.921875 "/></g></g></g><g fill="#ffffff" fill-opacity="1"><g transform="translate(121.89718, 351.321586)"><g><path d="M 2.453125 -1.015625 L 2.359375 -3.515625 L 2.421875 -4.1875 L 2.296875 -6.03125 L 2.390625 -7.34375 L 2.296875 -8.046875 L 2.328125 -9.25 L 2.390625 -9.921875 L 2.390625 -11.53125 L 2.296875 -12.453125 L 2.390625 -21.390625 L 2.65625 -22.0625 L 3.25 -22.34375 L 3.953125 -22.3125 L 4.5625 -22.40625 L 5.875 -22.28125 L 6.484375 -22.375 L 8.390625 -22.3125 L 8.9375 -22.375 L 9.640625 -22.3125 L 10.28125 -22.375 L 10.984375 -22.34375 L 11.90625 -22.375 L 12.703125 -22.3125 L 15.359375 -21.765625 L 16.46875 -21.203125 L 18.0625 -19.984375 L 18.359375 -19.5 L 18.796875 -19.03125 L 19.65625 -17.265625 L 19.828125 -16.625 L 19.921875 -16.03125 L 20.078125 -15.421875 L 20.046875 -12.890625 L 19.703125 -11.6875 L 19.46875 -11.140625 L 19.125 -10.5625 L 18.890625 -9.953125 L 18.515625 -9.421875 L 17.625 -8.5625 L 17.265625 -7.890625 L 17.359375 -7.125 L 18.328125 -5.453125 L 18.734375 -4.953125 L 19.0625 -4.375 L 19.4375 -3.796875 L 19.734375 -3.25 L 20.75 -1.6875 L 21.171875 -0.890625 L 21.03125 -0.21875 L 20.359375 -0.0625 L 19.65625 0 L 18.390625 0 L 17.75 -0.0625 L 17.046875 0 L 15.890625 -0.0625 L 15.09375 -0.25 L 14.453125 -0.828125 L 14.078125 -1.34375 L 13.796875 -1.890625 L 13.375 -2.484375 L 12.484375 -4.09375 L 12.265625 -4.6875 L 11.421875 -5.8125 L 10.921875 -6.359375 L 10.125 -6.609375 L 9.546875 -6.578125 L 8.96875 -6.578125 L 8.328125 -6.25 L 8.046875 -5.625 L 8.109375 -3.640625 L 8.015625 -2.265625 L 8.140625 -1.59375 L 8.078125 -0.921875 L 7.859375 -0.3125 L 6.859375 0 L 5.90625 0 L 5.234375 -0.0625 L 3.921875 0.03125 L 3.3125 0 L 2.6875 -0.3125 Z M 8.96875 -11.75 L 9.671875 -11.75 L 10.3125 -11.65625 L 12.796875 -11.875 L 13.28125 -12.09375 L 13.65625 -12.484375 L 14.015625 -13.03125 L 14.265625 -13.65625 L 14.359375 -14.53125 L 14.296875 -15.453125 L 14.078125 -15.953125 L 13.765625 -16.4375 L 12.765625 -17.046875 L 11.296875 -17.234375 L 9.546875 -17.265625 L 9.03125 -17.234375 L 8.390625 -16.921875 L 8.015625 -16.28125 L 8.109375 -12.703125 L 8.421875 -12.03125 Z M 8.96875 -11.75 "/></g></g></g><g fill="#ffffff" fill-opacity="1"><g transform="translate(144.014432, 351.321586)"><g><path d="M 9.421875 0.25 L 8.8125 0.09375 L 8.109375 0.0625 L 7.625 -0.1875 L 6.890625 -0.421875 L 6.28125 -0.671875 L 5.8125 -1.046875 L 4.71875 -1.6875 L 4.3125 -2.109375 L 3.453125 -3.15625 L 2.8125 -4.25 L 2.625 -4.859375 L 2.515625 -5.453125 L 2.328125 -6.09375 L 2.328125 -6.765625 L 2.234375 -7.6875 L 2.265625 -9.984375 L 2.171875 -11.265625 L 2.234375 -11.875 L 2.203125 -12.515625 L 2.265625 -13.125 L 2.171875 -13.828125 L 2.296875 -14.421875 L 2.140625 -16.34375 L 2.234375 -17.5625 L 2.109375 -18.890625 L 2.265625 -19.4375 L 2.265625 -21.359375 L 2.546875 -22 L 3.1875 -22.34375 L 6.546875 -22.3125 L 7.3125 -22.03125 L 7.65625 -21.421875 L 7.65625 -20.75 L 7.5 -19.796875 L 7.5 -19.1875 L 7.59375 -18.265625 L 7.59375 -15.703125 L 7.53125 -15.125 L 7.5625 -13.15625 L 7.65625 -12.515625 L 7.71875 -6.890625 L 7.921875 -6.21875 L 8.296875 -5.78125 L 8.78125 -5.359375 L 9.484375 -5.015625 L 10.0625 -4.859375 L 11.109375 -4.78125 L 11.96875 -4.859375 L 13.25 -5.265625 L 13.765625 -5.75 L 14.046875 -6.1875 L 14.328125 -6.796875 L 14.453125 -7.828125 L 14.421875 -9.453125 L 14.5 -10.09375 L 14.453125 -11.234375 L 14.53125 -11.9375 L 14.390625 -12.515625 L 14.5 -15.03125 L 14.390625 -15.703125 L 14.453125 -16.375 L 14.421875 -17.625 L 14.5 -18.265625 L 14.453125 -21.390625 L 14.78125 -22.09375 L 15.484375 -22.375 L 18.484375 -22.34375 L 19.5 -22.0625 L 19.765625 -21.359375 L 19.859375 -20.8125 L 19.828125 -18.234375 L 19.921875 -17.59375 L 19.828125 -16.984375 L 19.859375 -16.28125 L 19.796875 -15.296875 L 19.828125 -14.390625 L 19.765625 -13.71875 L 19.796875 -13.125 L 19.921875 -12.484375 L 19.921875 -11.90625 L 19.796875 -11.234375 L 19.890625 -8.65625 L 19.65625 -5.421875 L 19.4375 -4.8125 L 19.125 -4.28125 L 18.921875 -3.640625 L 18.515625 -3.15625 L 18.15625 -2.578125 L 16.734375 -1.3125 L 16.21875 -0.953125 L 15.640625 -0.703125 L 15.125 -0.390625 L 14.5 -0.21875 L 13.828125 0.03125 L 12.546875 0.3125 L 10.953125 0.390625 Z M 9.421875 0.25 "/></g></g></g><g fill="#ffffff" fill-opacity="1"><g transform="translate(166.035945, 351.321586)"><g><path d="M 6.125 -0.984375 L 6.09375 -3.484375 L 6.15625 -4.125 L 6.0625 -6.0625 L 6.09375 -6.734375 L 6.0625 -7.375 L 6.1875 -8.328125 L 6.09375 -9.25 L 6.09375 -10.53125 L 6.15625 -11.171875 L 6.09375 -11.78125 L 6.1875 -12.765625 L 6.09375 -16.28125 L 5.78125 -16.890625 L 5.203125 -17.234375 L 2.359375 -17.265625 L 1.53125 -17.171875 L 0.890625 -17.5 L 0.546875 -18.203125 L 0.578125 -21.390625 L 0.890625 -22.03125 L 1.59375 -22.34375 L 11.109375 -22.28125 L 11.84375 -22.375 L 12.484375 -22.375 L 13.125 -22.3125 L 13.765625 -22.3125 L 14.453125 -22.40625 L 15.0625 -22.40625 L 15.578125 -22.34375 L 16.34375 -22.40625 L 16.984375 -22.09375 L 17.296875 -21.453125 L 17.234375 -18.828125 L 17.296875 -18.15625 L 16.984375 -17.53125 L 16.25 -17.234375 L 14.5 -17.265625 L 13.921875 -17.203125 L 13.28125 -17.234375 L 12.734375 -17.203125 L 12.03125 -16.921875 L 11.78125 -16.34375 L 11.84375 -15.640625 L 11.75 -15 L 11.875 -8.65625 L 11.78125 -7.3125 L 11.84375 -6.734375 L 11.78125 -4.78125 L 11.6875 -4.125 L 11.78125 -3.578125 L 11.8125 -2.296875 L 11.75 -1.5625 L 11.78125 -0.953125 L 11.53125 -0.3125 L 10.890625 -0.0625 L 8.90625 -0.0625 L 8.296875 0 L 7.65625 -0.0625 L 7.0625 0 L 6.390625 -0.3125 Z M 6.125 -0.984375 "/></g></g></g><g fill="#ffffff" fill-opacity="1"><g transform="translate(182.089142, 351.321586)"><g><path d="M 0.421875 -0.859375 L 0.796875 -2.203125 L 1.078125 -2.84375 L 1.46875 -3.359375 L 2.390625 -5.6875 L 3.28125 -7.34375 L 3.515625 -7.984375 L 3.796875 -8.484375 L 3.984375 -9.15625 L 4.4375 -9.984375 L 4.65625 -10.59375 L 5.140625 -11.421875 L 5.65625 -12.578125 L 6 -13.15625 L 6.15625 -13.6875 L 7.953125 -17.71875 L 8.296875 -18.296875 L 9.671875 -21.171875 L 9.859375 -21.734375 L 10.46875 -22.3125 L 11.484375 -22.625 L 12.578125 -22.34375 L 13.15625 -21.734375 L 13.34375 -21.125 L 13.625 -20.65625 L 14.140625 -19.4375 L 14.78125 -18.265625 L 15.265625 -17.140625 L 15.421875 -16.625 L 16 -15.421875 L 16.1875 -14.8125 L 16.828125 -13.6875 L 16.984375 -13.09375 L 17.296875 -12.546875 L 17.5625 -12 L 17.90625 -11.421875 L 18.09375 -10.796875 L 18.390625 -10.3125 L 18.609375 -9.671875 L 18.890625 -9.125 L 19.15625 -8.484375 L 19.5 -7.984375 L 19.953125 -6.796875 L 20.265625 -6.25 L 20.5 -5.65625 L 21.03125 -4.5 L 21.234375 -3.890625 L 21.546875 -3.421875 L 21.734375 -2.78125 L 22.15625 -2.234375 L 22.375 -1.65625 L 22.5625 -0.859375 L 22.4375 -0.1875 L 21.859375 0 L 19.890625 0.0625 L 18.765625 -0.03125 L 18.203125 0.03125 L 17.359375 -0.28125 L 16.828125 -0.796875 L 16.46875 -1.375 L 16.3125 -1.953125 L 15.640625 -2.453125 L 14.59375 -2.8125 L 13.09375 -2.75 L 12.421875 -2.8125 L 11.84375 -2.8125 L 11.109375 -2.71875 L 10.4375 -2.8125 L 8.65625 -2.78125 L 8.015625 -2.84375 L 7.25 -2.515625 L 6.703125 -1.921875 L 6.15625 -0.828125 L 5.59375 -0.25 L 4.859375 0.0625 L 4.015625 -0.03125 L 1.21875 -0.03125 L 0.578125 -0.1875 Z M 10.28125 -7.890625 L 12.765625 -7.921875 L 13.3125 -8.171875 L 13.375 -8.75 L 13.15625 -9.328125 L 12.828125 -9.953125 L 12.703125 -10.46875 L 12.359375 -11.015625 L 11.9375 -12.265625 L 11.5625 -12.515625 L 11.140625 -12.1875 L 10.859375 -11.6875 L 9.578125 -8.78125 L 9.671875 -8.140625 Z M 10.28125 -7.890625 "/></g></g></g></svg>