<svg xmlns="http://www.w3.org/2000/svg" xmlns:xlink="http://www.w3.org/1999/xlink" width="415" zoomAndPan="magnify" viewBox="0 0 311.25 405.749988" height="541" preserveAspectRatio="xMidYMid meet" version="1.0"><defs><g/><clipPath id="1a8840412a"><path d="M 13.855469 0.363281 L 293.953125 0.363281 L 293.953125 405.136719 L 13.855469 405.136719 Z M 13.855469 0.363281 " clip-rule="nonzero"/></clipPath><clipPath id="0ee23adf4e"><path d="M 35.230469 0.363281 L 272.578125 0.363281 C 284.382812 0.363281 293.953125 9.933594 293.953125 21.738281 L 293.953125 383.648438 C 293.953125 395.453125 284.382812 405.019531 272.578125 405.019531 L 35.230469 405.019531 C 23.425781 405.019531 13.855469 395.453125 13.855469 383.648438 L 13.855469 21.738281 C 13.855469 9.933594 23.425781 0.363281 35.230469 0.363281 Z M 35.230469 0.363281 " clip-rule="nonzero"/></clipPath><clipPath id="92ee8d0c5e"><path d="M 0.855469 0.363281 L 280.953125 0.363281 L 280.953125 405.136719 L 0.855469 405.136719 Z M 0.855469 0.363281 " clip-rule="nonzero"/></clipPath><clipPath id="5b7174def8"><path d="M 22.230469 0.363281 L 259.578125 0.363281 C 271.382812 0.363281 280.953125 9.933594 280.953125 21.738281 L 280.953125 383.648438 C 280.953125 395.453125 271.382812 405.019531 259.578125 405.019531 L 22.230469 405.019531 C 10.425781 405.019531 0.855469 395.453125 0.855469 383.648438 L 0.855469 21.738281 C 0.855469 9.933594 10.425781 0.363281 22.230469 0.363281 Z M 22.230469 0.363281 " clip-rule="nonzero"/></clipPath><clipPath id="18af19dc8c"><rect x="0" width="281" y="0" height="406"/></clipPath><clipPath id="5793bb05fc"><path d="M 23.269531 10.425781 L 285.554688 10.425781 L 285.554688 395 L 23.269531 395 Z M 23.269531 10.425781 " clip-rule="nonzero"/></clipPath><clipPath id="88e520eb1d"><path d="M 37.710938 10.425781 L 271.109375 10.425781 C 274.941406 10.425781 278.613281 11.945312 281.324219 14.652344 C 284.03125 17.363281 285.554688 21.035156 285.554688 24.867188 L 285.554688 380.519531 C 285.554688 384.347656 284.03125 388.023438 281.324219 390.730469 C 278.613281 393.4375 274.941406 394.960938 271.109375 394.960938 L 37.710938 394.960938 C 33.882812 394.960938 30.207031 393.4375 27.5 390.730469 C 24.792969 388.023438 23.269531 384.347656 23.269531 380.519531 L 23.269531 24.867188 C 23.269531 21.035156 24.792969 17.363281 27.5 14.652344 C 30.207031 11.945312 33.882812 10.425781 37.710938 10.425781 Z M 37.710938 10.425781 " clip-rule="nonzero"/></clipPath><clipPath id="3b71f44472"><path d="M 0.269531 0.425781 L 262.554688 0.425781 L 262.554688 385 L 0.269531 385 Z M 0.269531 0.425781 " clip-rule="nonzero"/></clipPath><clipPath id="1277f0f637"><path d="M 14.710938 0.425781 L 248.109375 0.425781 C 251.941406 0.425781 255.613281 1.945312 258.324219 4.652344 C 261.03125 7.363281 262.554688 11.035156 262.554688 14.867188 L 262.554688 370.519531 C 262.554688 374.347656 261.03125 378.023438 258.324219 380.730469 C 255.613281 383.4375 251.941406 384.960938 248.109375 384.960938 L 14.710938 384.960938 C 10.882812 384.960938 7.207031 383.4375 4.5 380.730469 C 1.792969 378.023438 0.269531 374.347656 0.269531 370.519531 L 0.269531 14.867188 C 0.269531 11.035156 1.792969 7.363281 4.5 4.652344 C 7.207031 1.945312 10.882812 0.425781 14.710938 0.425781 Z M 14.710938 0.425781 " clip-rule="nonzero"/></clipPath><clipPath id="38ab09ea97"><rect x="0" width="263" y="0" height="385"/></clipPath><clipPath id="3cbe57aa2c"><path d="M 12.417969 274.746094 L 294.5625 274.746094 L 294.5625 394.925781 L 12.417969 394.925781 Z M 12.417969 274.746094 " clip-rule="nonzero"/></clipPath><clipPath id="71b180c68d"><path d="M 24.054688 274.746094 L 282.839844 274.746094 C 289.265625 274.746094 294.476562 279.957031 294.476562 286.382812 L 294.476562 383.289062 C 294.476562 389.714844 289.265625 394.925781 282.839844 394.925781 L 24.054688 394.925781 C 17.628906 394.925781 12.417969 389.714844 12.417969 383.289062 L 12.417969 286.382812 C 12.417969 279.957031 17.628906 274.746094 24.054688 274.746094 Z M 24.054688 274.746094 " clip-rule="nonzero"/></clipPath><clipPath id="0f892b63b4"><path d="M 0.417969 0.746094 L 282.492188 0.746094 L 282.492188 120.925781 L 0.417969 120.925781 Z M 0.417969 0.746094 " clip-rule="nonzero"/></clipPath><clipPath id="85f5b96279"><path d="M 12.054688 0.746094 L 270.839844 0.746094 C 277.265625 0.746094 282.476562 5.957031 282.476562 12.382812 L 282.476562 109.289062 C 282.476562 115.714844 277.265625 120.925781 270.839844 120.925781 L 12.054688 120.925781 C 5.628906 120.925781 0.417969 115.714844 0.417969 109.289062 L 0.417969 12.382812 C 0.417969 5.957031 5.628906 0.746094 12.054688 0.746094 Z M 12.054688 0.746094 " clip-rule="nonzero"/></clipPath><clipPath id="299bc49590"><rect x="0" width="283" y="0" height="121"/></clipPath><clipPath id="943df4304e"><path d="M 13.855469 10.390625 L 292.382812 10.390625 L 292.382812 81.550781 L 13.855469 81.550781 Z M 13.855469 10.390625 " clip-rule="nonzero"/></clipPath><clipPath id="6f153aae80"><path d="M 26.5625 10.390625 L 279.535156 10.390625 C 286.554688 10.390625 292.246094 16.078125 292.246094 23.097656 L 292.246094 68.839844 C 292.246094 75.859375 286.554688 81.550781 279.535156 81.550781 L 26.5625 81.550781 C 19.542969 81.550781 13.855469 75.859375 13.855469 68.839844 L 13.855469 23.097656 C 13.855469 16.078125 19.542969 10.390625 26.5625 10.390625 Z M 26.5625 10.390625 " clip-rule="nonzero"/></clipPath><clipPath id="2767c33a02"><path d="M 0.855469 0.390625 L 279.335938 0.390625 L 279.335938 71.550781 L 0.855469 71.550781 Z M 0.855469 0.390625 " clip-rule="nonzero"/></clipPath><clipPath id="d6a4a79a9f"><path d="M 13.5625 0.390625 L 266.535156 0.390625 C 273.554688 0.390625 279.246094 6.078125 279.246094 13.097656 L 279.246094 58.839844 C 279.246094 65.859375 273.554688 71.550781 266.535156 71.550781 L 13.5625 71.550781 C 6.542969 71.550781 0.855469 65.859375 0.855469 58.839844 L 0.855469 13.097656 C 0.855469 6.078125 6.542969 0.390625 13.5625 0.390625 Z M 13.5625 0.390625 " clip-rule="nonzero"/></clipPath><clipPath id="b790c416ef"><rect x="0" width="280" y="0" height="72"/></clipPath><clipPath id="f9e2996bfb"><path d="M 79 101 L 230.742188 101 L 230.742188 263 L 79 263 Z M 79 101 " clip-rule="nonzero"/></clipPath></defs><g clip-path="url(#1a8840412a)"><g clip-path="url(#0ee23adf4e)"><g transform="matrix(1, 0, 0, 1, 13, -0.000000000000060896)"><g clip-path="url(#18af19dc8c)"><g clip-path="url(#92ee8d0c5e)"><g clip-path="url(#5b7174def8)"><path fill="#800080" d="M 0.855469 0.363281 L 280.953125 0.363281 L 280.953125 405.191406 L 0.855469 405.191406 Z M 0.855469 0.363281 " fill-opacity="1" fill-rule="nonzero"/></g></g></g></g></g></g><g clip-path="url(#5793bb05fc)"><g clip-path="url(#88e520eb1d)"><g transform="matrix(1, 0, 0, 1, 23, 10)"><g clip-path="url(#38ab09ea97)"><g clip-path="url(#3b71f44472)"><g clip-path="url(#1277f0f637)"><path fill="#fffaed" d="M 0.269531 0.425781 L 262.554688 0.425781 L 262.554688 384.628906 L 0.269531 384.628906 Z M 0.269531 0.425781 " fill-opacity="1" fill-rule="nonzero"/></g></g></g></g></g></g><g clip-path="url(#3cbe57aa2c)"><g clip-path="url(#71b180c68d)"><g transform="matrix(1, 0, 0, 1, 12, 274)"><g clip-path="url(#299bc49590)"><g clip-path="url(#0f892b63b4)"><g clip-path="url(#85f5b96279)"><path fill="#800080" d="M 0.417969 0.746094 L 282.5625 0.746094 L 282.5625 120.925781 L 0.417969 120.925781 Z M 0.417969 0.746094 " fill-opacity="1" fill-rule="nonzero"/></g></g></g></g></g></g><g fill="#ffffff" fill-opacity="1"><g transform="translate(142.089222, 343.578922)"><g/></g></g><g fill="#ffffff" fill-opacity="1"><g transform="translate(149.657948, 343.578922)"><g/></g></g><g fill="#ffffff" fill-opacity="1"><g transform="translate(157.226673, 343.578922)"><g/></g></g><g clip-path="url(#943df4304e)"><g clip-path="url(#6f153aae80)"><g transform="matrix(1, 0, 0, 1, 13, 10)"><g clip-path="url(#b790c416ef)"><g clip-path="url(#2767c33a02)"><g clip-path="url(#d6a4a79a9f)"><path fill="#800080" d="M 0.855469 0.390625 L 279.382812 0.390625 L 279.382812 71.550781 L 0.855469 71.550781 Z M 0.855469 0.390625 " fill-opacity="1" fill-rule="nonzero"/></g></g></g></g></g></g><g fill="#ffffff" fill-opacity="1"><g transform="translate(81.274197, 55.281533)"><g><path d="M 2.0625 -0.8125 L 2.125 -1.34375 L 2.015625 -5.3125 L 2.125 -5.84375 L 2.046875 -18.15625 L 2.09375 -18.75 L 2.40625 -19.3125 L 2.96875 -19.609375 L 3.765625 -19.390625 L 4.578125 -18.796875 L 5.203125 -18.15625 L 5.5 -17.765625 L 5.890625 -17.40625 L 6.203125 -16.984375 L 6.5625 -16.59375 L 7.046875 -16.171875 L 7.703125 -15.34375 L 9.640625 -13.359375 L 9.96875 -12.90625 L 10.421875 -12.546875 L 10.75 -12.0625 L 11.125 -11.703125 L 11.625 -11.53125 L 12.234375 -11.734375 L 16.375 -16.125 L 16.625 -16.53125 L 18.21875 -18.1875 L 18.859375 -18.96875 L 19.5625 -19.359375 L 20.390625 -19.609375 L 20.953125 -19.28125 L 21.265625 -18.75 L 21.234375 -18.15625 L 21.28125 -17.6875 L 21.234375 -17.09375 L 21.3125 -9.1875 L 21.234375 -8.6875 L 21.28125 -8.125 L 21.234375 -7.546875 L 21.265625 -6.984375 L 21.171875 -6.421875 L 21.234375 -5.34375 L 21.171875 -4.8125 L 21.28125 -1.453125 L 21.203125 -0.890625 L 20.890625 -0.3125 L 20.359375 0.03125 L 17.015625 0 L 16.40625 -0.21875 L 16.125 -0.8125 L 16.203125 -4.671875 L 16.125 -5.703125 L 16.140625 -6.265625 L 16.125 -6.765625 L 16.203125 -7.296875 L 16.125 -7.84375 L 15.890625 -8.1875 L 15.5625 -8.125 L 15.171875 -7.734375 L 14.8125 -7.265625 L 12.453125 -4.890625 L 11.984375 -4.546875 L 11.34375 -4.546875 L 10.421875 -5.3125 L 10.0625 -5.78125 L 8.5 -7.265625 L 7.796875 -8.125 L 7.375 -8.234375 L 7.125 -7.84375 L 7.234375 -6.234375 L 7.15625 -2.453125 L 7.234375 -1.875 L 7.265625 -1.28125 L 7.203125 -0.75 L 6.90625 -0.3125 L 6.0625 -0.0625 L 2.984375 0 L 2.3125 -0.3125 Z M 2.0625 -0.8125 "/></g></g></g><g fill="#ffffff" fill-opacity="1"><g transform="translate(104.622739, 55.281533)"><g><path d="M 0.359375 -0.75 L 0.703125 -1.921875 L 0.953125 -2.484375 L 1.28125 -2.9375 L 2.09375 -4.96875 L 2.875 -6.421875 L 3.078125 -6.984375 L 3.328125 -7.4375 L 3.484375 -8.015625 L 3.890625 -8.75 L 4.078125 -9.28125 L 4.5 -10 L 4.9375 -11 L 5.25 -11.515625 L 5.390625 -11.984375 L 6.953125 -15.5 L 7.265625 -16.015625 L 8.46875 -18.515625 L 8.625 -19.03125 L 9.15625 -19.53125 L 10.0625 -19.8125 L 11 -19.5625 L 11.515625 -19.03125 L 11.671875 -18.5 L 11.921875 -18.078125 L 12.375 -17.015625 L 12.9375 -15.984375 L 13.359375 -15 L 13.5 -14.5625 L 14 -13.5 L 14.171875 -12.96875 L 14.71875 -11.984375 L 14.859375 -11.453125 L 15.140625 -10.984375 L 15.359375 -10.5 L 15.671875 -10 L 15.84375 -9.4375 L 16.09375 -9.03125 L 16.28125 -8.46875 L 16.53125 -7.984375 L 16.765625 -7.4375 L 17.0625 -6.984375 L 17.453125 -5.953125 L 17.734375 -5.46875 L 17.9375 -4.9375 L 18.40625 -3.9375 L 18.578125 -3.40625 L 18.859375 -2.984375 L 19.03125 -2.4375 L 19.390625 -1.953125 L 19.578125 -1.453125 L 19.75 -0.75 L 19.640625 -0.171875 L 19.140625 0 L 17.40625 0.0625 L 16.421875 -0.03125 L 15.921875 0.03125 L 15.203125 -0.25 L 14.71875 -0.703125 L 14.421875 -1.203125 L 14.28125 -1.703125 L 13.6875 -2.15625 L 12.765625 -2.453125 L 11.453125 -2.40625 L 10.875 -2.453125 L 10.359375 -2.453125 L 9.71875 -2.375 L 9.140625 -2.453125 L 7.578125 -2.4375 L 7.015625 -2.484375 L 6.34375 -2.203125 L 5.859375 -1.671875 L 5.390625 -0.71875 L 4.890625 -0.21875 L 4.25 0.0625 L 3.515625 -0.03125 L 1.0625 -0.03125 L 0.5 -0.171875 Z M 9 -6.90625 L 11.171875 -6.921875 L 11.65625 -7.15625 L 11.703125 -7.65625 L 11.515625 -8.15625 L 11.234375 -8.71875 L 11.125 -9.15625 L 10.8125 -9.640625 L 10.453125 -10.734375 L 10.109375 -10.953125 L 9.75 -10.671875 L 9.5 -10.21875 L 8.375 -7.6875 L 8.46875 -7.125 Z M 9 -6.90625 "/></g></g></g><g fill="#ffffff" fill-opacity="1"><g transform="translate(124.899113, 55.281533)"><g><path d="M 16.484375 -0.453125 L 16.125 -0.8125 L 15.78125 -1.234375 L 15.34375 -1.59375 L 14.96875 -2.046875 L 12.265625 -4.75 L 11.8125 -5.109375 L 7.828125 -9.03125 L 7.453125 -9.109375 L 7.1875 -8.765625 L 7.296875 -8.1875 L 7.203125 -1.34375 L 7.296875 -0.78125 L 7.046875 -0.21875 L 6.484375 0.0625 L 5.84375 0 L 5.25 0.078125 L 3.859375 0 L 2.90625 0.0625 L 2.375 -0.25 L 2.125 -0.859375 L 2.125 -1.390625 L 2.046875 -1.953125 L 2.125 -3.015625 L 2.0625 -3.578125 L 2.09375 -4.71875 L 2.015625 -5.3125 L 2.015625 -5.84375 L 2.0625 -6.453125 L 2.0625 -6.984375 L 2.125 -7.484375 L 2.015625 -11.484375 L 2.09375 -12.0625 L 2.0625 -12.65625 L 2.125 -13.15625 L 2.046875 -14.296875 L 2.09375 -14.859375 L 2.046875 -18.78125 L 2.40625 -19.3125 L 3.078125 -19.640625 L 3.828125 -19.421875 L 4.9375 -18.65625 L 6.453125 -17.125 L 6.8125 -16.65625 L 7.296875 -16.3125 L 7.578125 -15.890625 L 8.109375 -15.53125 L 8.40625 -15.109375 L 9.28125 -14.390625 L 9.859375 -13.765625 L 10.171875 -13.375 L 10.609375 -13.046875 L 11.59375 -12.046875 L 12.015625 -11.703125 L 13.25 -10.453125 L 13.640625 -10.34375 L 13.765625 -10.78125 L 13.75 -11.90625 L 13.859375 -12.484375 L 13.859375 -13.015625 L 13.75 -13.609375 L 13.765625 -18.6875 L 14.046875 -19.28125 L 14.71875 -19.5625 L 15.28125 -19.53125 L 15.78125 -19.578125 L 16.375 -19.5 L 16.984375 -19.5625 L 17.515625 -19.5625 L 18.078125 -19.5 L 18.6875 -19.21875 L 19.03125 -18.71875 L 18.96875 -17.265625 L 19.03125 -16.421875 L 18.90625 -15.875 L 18.90625 -14.75 L 18.96875 -14.21875 L 18.890625 -13.109375 L 19 -9.75 L 18.9375 -9.140625 L 19.046875 -8.359375 L 18.90625 -0.75 L 18.65625 -0.171875 L 18.015625 0.140625 L 17.296875 -0.078125 Z M 16.484375 -0.453125 "/></g></g></g><g fill="#ffffff" fill-opacity="1"><g transform="translate(145.957489, 55.281533)"><g><path d="M 0.703125 -0.84375 L 0.984375 -1.53125 L 1.3125 -2.015625 L 3.765625 -6.375 L 4.015625 -6.953125 L 4.359375 -7.484375 L 4.53125 -7.90625 L 4.828125 -8.4375 L 5.0625 -8.9375 L 5.734375 -9.890625 L 6.28125 -11.140625 L 7.046875 -12.34375 L 7.796875 -13.859375 L 8.109375 -14.296875 L 8.15625 -14.859375 L 7.453125 -15.0625 L 6.515625 -15.03125 L 6 -15.109375 L 5 -15.03125 L 3.234375 -15.0625 L 2.65625 -15.140625 L 2.15625 -15.09375 L 1.625 -15.359375 L 1.3125 -15.890625 L 1.390625 -17.0625 L 1.3125 -17.578125 L 1.375 -18.1875 L 1.25 -18.75 L 1.59375 -19.28125 L 2.40625 -19.53125 L 12.0625 -19.578125 L 12.625 -19.53125 L 15.34375 -19.5625 L 15.890625 -19.390625 L 16.015625 -18.6875 L 12.375 -12.0625 L 11.984375 -11.125 L 11.59375 -10.609375 L 11.3125 -10.171875 L 11.140625 -9.671875 L 8.578125 -5.171875 L 8.625 -4.71875 L 9.421875 -4.46875 L 14.28125 -4.4375 L 14.78125 -4.5 L 15.34375 -4.4375 L 15.953125 -4.15625 L 16.234375 -3.65625 L 16.265625 -3.046875 L 16.203125 -2.546875 L 16.3125 -1.953125 L 16.234375 -1.390625 L 16.28125 -0.859375 L 15.953125 -0.328125 L 15.421875 0 L 1.421875 -0.03125 L 0.84375 -0.171875 Z M 0.703125 -0.84375 "/></g></g></g><g fill="#ffffff" fill-opacity="1"><g transform="translate(163.189608, 55.281533)"><g><path d="M 0.359375 -0.75 L 0.703125 -1.921875 L 0.953125 -2.484375 L 1.28125 -2.9375 L 2.09375 -4.96875 L 2.875 -6.421875 L 3.078125 -6.984375 L 3.328125 -7.4375 L 3.484375 -8.015625 L 3.890625 -8.75 L 4.078125 -9.28125 L 4.5 -10 L 4.9375 -11 L 5.25 -11.515625 L 5.390625 -11.984375 L 6.953125 -15.5 L 7.265625 -16.015625 L 8.46875 -18.515625 L 8.625 -19.03125 L 9.15625 -19.53125 L 10.0625 -19.8125 L 11 -19.5625 L 11.515625 -19.03125 L 11.671875 -18.5 L 11.921875 -18.078125 L 12.375 -17.015625 L 12.9375 -15.984375 L 13.359375 -15 L 13.5 -14.5625 L 14 -13.5 L 14.171875 -12.96875 L 14.71875 -11.984375 L 14.859375 -11.453125 L 15.140625 -10.984375 L 15.359375 -10.5 L 15.671875 -10 L 15.84375 -9.4375 L 16.09375 -9.03125 L 16.28125 -8.46875 L 16.53125 -7.984375 L 16.765625 -7.4375 L 17.0625 -6.984375 L 17.453125 -5.953125 L 17.734375 -5.46875 L 17.9375 -4.9375 L 18.40625 -3.9375 L 18.578125 -3.40625 L 18.859375 -2.984375 L 19.03125 -2.4375 L 19.390625 -1.953125 L 19.578125 -1.453125 L 19.75 -0.75 L 19.640625 -0.171875 L 19.140625 0 L 17.40625 0.0625 L 16.421875 -0.03125 L 15.921875 0.03125 L 15.203125 -0.25 L 14.71875 -0.703125 L 14.421875 -1.203125 L 14.28125 -1.703125 L 13.6875 -2.15625 L 12.765625 -2.453125 L 11.453125 -2.40625 L 10.875 -2.453125 L 10.359375 -2.453125 L 9.71875 -2.375 L 9.140625 -2.453125 L 7.578125 -2.4375 L 7.015625 -2.484375 L 6.34375 -2.203125 L 5.859375 -1.671875 L 5.390625 -0.71875 L 4.890625 -0.21875 L 4.25 0.0625 L 3.515625 -0.03125 L 1.0625 -0.03125 L 0.5 -0.171875 Z M 9 -6.90625 L 11.171875 -6.921875 L 11.65625 -7.15625 L 11.703125 -7.65625 L 11.515625 -8.15625 L 11.234375 -8.71875 L 11.125 -9.15625 L 10.8125 -9.640625 L 10.453125 -10.734375 L 10.109375 -10.953125 L 9.75 -10.671875 L 9.5 -10.21875 L 8.375 -7.6875 L 8.46875 -7.125 Z M 9 -6.90625 "/></g></g></g><g fill="#ffffff" fill-opacity="1"><g transform="translate(183.465982, 55.281533)"><g><path d="M 16.484375 -0.453125 L 16.125 -0.8125 L 15.78125 -1.234375 L 15.34375 -1.59375 L 14.96875 -2.046875 L 12.265625 -4.75 L 11.8125 -5.109375 L 7.828125 -9.03125 L 7.453125 -9.109375 L 7.1875 -8.765625 L 7.296875 -8.1875 L 7.203125 -1.34375 L 7.296875 -0.78125 L 7.046875 -0.21875 L 6.484375 0.0625 L 5.84375 0 L 5.25 0.078125 L 3.859375 0 L 2.90625 0.0625 L 2.375 -0.25 L 2.125 -0.859375 L 2.125 -1.390625 L 2.046875 -1.953125 L 2.125 -3.015625 L 2.0625 -3.578125 L 2.09375 -4.71875 L 2.015625 -5.3125 L 2.015625 -5.84375 L 2.0625 -6.453125 L 2.0625 -6.984375 L 2.125 -7.484375 L 2.015625 -11.484375 L 2.09375 -12.0625 L 2.0625 -12.65625 L 2.125 -13.15625 L 2.046875 -14.296875 L 2.09375 -14.859375 L 2.046875 -18.78125 L 2.40625 -19.3125 L 3.078125 -19.640625 L 3.828125 -19.421875 L 4.9375 -18.65625 L 6.453125 -17.125 L 6.8125 -16.65625 L 7.296875 -16.3125 L 7.578125 -15.890625 L 8.109375 -15.53125 L 8.40625 -15.109375 L 9.28125 -14.390625 L 9.859375 -13.765625 L 10.171875 -13.375 L 10.609375 -13.046875 L 11.59375 -12.046875 L 12.015625 -11.703125 L 13.25 -10.453125 L 13.640625 -10.34375 L 13.765625 -10.78125 L 13.75 -11.90625 L 13.859375 -12.484375 L 13.859375 -13.015625 L 13.75 -13.609375 L 13.765625 -18.6875 L 14.046875 -19.28125 L 14.71875 -19.5625 L 15.28125 -19.53125 L 15.78125 -19.578125 L 16.375 -19.5 L 16.984375 -19.5625 L 17.515625 -19.5625 L 18.078125 -19.5 L 18.6875 -19.21875 L 19.03125 -18.71875 L 18.96875 -17.265625 L 19.03125 -16.421875 L 18.90625 -15.875 L 18.90625 -14.75 L 18.96875 -14.21875 L 18.890625 -13.109375 L 19 -9.75 L 18.9375 -9.140625 L 19.046875 -8.359375 L 18.90625 -0.75 L 18.65625 -0.171875 L 18.015625 0.140625 L 17.296875 -0.078125 Z M 16.484375 -0.453125 "/></g></g></g><g fill="#ffffff" fill-opacity="1"><g transform="translate(204.524358, 55.281533)"><g><path d="M 0.359375 -0.75 L 0.703125 -1.921875 L 0.953125 -2.484375 L 1.28125 -2.9375 L 2.09375 -4.96875 L 2.875 -6.421875 L 3.078125 -6.984375 L 3.328125 -7.4375 L 3.484375 -8.015625 L 3.890625 -8.75 L 4.078125 -9.28125 L 4.5 -10 L 4.9375 -11 L 5.25 -11.515625 L 5.390625 -11.984375 L 6.953125 -15.5 L 7.265625 -16.015625 L 8.46875 -18.515625 L 8.625 -19.03125 L 9.15625 -19.53125 L 10.0625 -19.8125 L 11 -19.5625 L 11.515625 -19.03125 L 11.671875 -18.5 L 11.921875 -18.078125 L 12.375 -17.015625 L 12.9375 -15.984375 L 13.359375 -15 L 13.5 -14.5625 L 14 -13.5 L 14.171875 -12.96875 L 14.71875 -11.984375 L 14.859375 -11.453125 L 15.140625 -10.984375 L 15.359375 -10.5 L 15.671875 -10 L 15.84375 -9.4375 L 16.09375 -9.03125 L 16.28125 -8.46875 L 16.53125 -7.984375 L 16.765625 -7.4375 L 17.0625 -6.984375 L 17.453125 -5.953125 L 17.734375 -5.46875 L 17.9375 -4.9375 L 18.40625 -3.9375 L 18.578125 -3.40625 L 18.859375 -2.984375 L 19.03125 -2.4375 L 19.390625 -1.953125 L 19.578125 -1.453125 L 19.75 -0.75 L 19.640625 -0.171875 L 19.140625 0 L 17.40625 0.0625 L 16.421875 -0.03125 L 15.921875 0.03125 L 15.203125 -0.25 L 14.71875 -0.703125 L 14.421875 -1.203125 L 14.28125 -1.703125 L 13.6875 -2.15625 L 12.765625 -2.453125 L 11.453125 -2.40625 L 10.875 -2.453125 L 10.359375 -2.453125 L 9.71875 -2.375 L 9.140625 -2.453125 L 7.578125 -2.4375 L 7.015625 -2.484375 L 6.34375 -2.203125 L 5.859375 -1.671875 L 5.390625 -0.71875 L 4.890625 -0.21875 L 4.25 0.0625 L 3.515625 -0.03125 L 1.0625 -0.03125 L 0.5 -0.171875 Z M 9 -6.90625 L 11.171875 -6.921875 L 11.65625 -7.15625 L 11.703125 -7.65625 L 11.515625 -8.15625 L 11.234375 -8.71875 L 11.125 -9.15625 L 10.8125 -9.640625 L 10.453125 -10.734375 L 10.109375 -10.953125 L 9.75 -10.671875 L 9.5 -10.21875 L 8.375 -7.6875 L 8.46875 -7.125 Z M 9 -6.90625 "/></g></g></g><g clip-path="url(#f9e2996bfb)"><path fill="#010101" d="M 202.921875 145.609375 C 202.886719 145.628906 202.871094 145.671875 202.890625 145.707031 C 202.894531 145.71875 202.902344 145.726562 202.910156 145.730469 C 212.710938 153.53125 217.832031 165.496094 219.222656 177.902344 C 221.210938 195.675781 216.644531 213.8125 208.523438 229.679688 C 204.9375 236.691406 200.53125 243.34375 195.097656 249.117188 C 190.558594 253.949219 184.921875 258.246094 178.804688 260.746094 C 174.003906 262.707031 169.082031 263.351562 164.039062 262.683594 C 162.589844 262.492188 160.535156 262.054688 157.875 261.367188 C 155.628906 260.789062 153.484375 260.226562 151.433594 259.683594 C 149.628906 259.203125 147.894531 258.992188 146.238281 259.050781 C 143.539062 259.140625 141.046875 259.453125 138.765625 259.984375 C 135.339844 260.789062 133.164062 261.28125 132.234375 261.464844 C 128.707031 262.164062 125.222656 261.929688 121.785156 260.773438 C 119.457031 259.988281 117.242188 258.921875 115.140625 257.574219 C 109.03125 253.652344 104.125 248.699219 99.644531 243.074219 C 91.128906 232.375 84.640625 220.007812 81.65625 206.71875 C 80.625 202.136719 79.914062 197.554688 79.519531 192.972656 C 78.871094 185.453125 79.371094 178.117188 81.023438 170.96875 C 83.144531 161.773438 87.832031 153.261719 95.039062 147.011719 C 104.792969 138.558594 118.230469 134.882812 131.113281 135.5 C 132.257812 135.554688 134.628906 135.714844 138.226562 135.980469 C 140.644531 136.160156 143.183594 136.222656 145.84375 136.164062 C 145.9375 136.164062 146.015625 136.082031 146.011719 135.984375 C 146.011719 135.976562 146.011719 135.972656 146.011719 135.964844 C 145.054688 129.78125 142.859375 123.898438 139.566406 118.519531 C 139.488281 118.394531 139.433594 118.257812 139.40625 118.113281 C 138.875 115.574219 140.652344 113.5 142.789062 112.402344 C 145.277344 111.125 148.28125 111.128906 150.515625 112.921875 C 150.929688 113.253906 151.074219 113.429688 151.238281 114 C 153.109375 120.503906 154.253906 127.027344 154.679688 133.566406 C 154.683594 133.625 154.734375 133.671875 154.796875 133.671875 C 154.832031 133.667969 154.863281 133.648438 154.882812 133.621094 C 154.988281 133.460938 155.058594 133.328125 155.101562 133.21875 C 155.746094 131.433594 156.378906 129.796875 157 128.304688 C 159.03125 123.421875 161.714844 119.007812 165.050781 115.070312 C 170.621094 108.492188 177.546875 104.328125 185.828125 102.578125 C 200.359375 99.507812 215.144531 103.316406 227.832031 110.566406 C 228.859375 111.152344 229.578125 111.613281 229.988281 111.953125 C 230.714844 112.546875 230.535156 113.34375 230.214844 114.226562 C 228.3125 119.519531 225.507812 124.671875 221.804688 129.679688 C 216.730469 136.535156 210.4375 141.847656 202.921875 145.609375 Z M 202.921875 145.609375 " fill-opacity="1" fill-rule="nonzero"/></g><path fill="#5e9739" d="M 210.785156 125.179688 L 210.476562 124.980469 C 211.019531 124.140625 211.691406 123.402344 212.476562 122.792969 C 213.285156 122.164062 214.433594 121.242188 215.085938 120.472656 C 215.964844 119.4375 216.609375 118.789062 217.0625 118.484375 C 219.320312 116.960938 222.078125 115.75 224.945312 114.542969 C 225.171875 114.445312 225.582031 114.167969 226.160156 113.722656 L 226.382812 114.011719 C 225.773438 114.484375 225.347656 114.769531 225.085938 114.878906 C 222.238281 116.082031 219.496094 117.285156 217.265625 118.789062 C 216.847656 119.070312 216.210938 119.714844 215.363281 120.710938 C 214.699219 121.496094 213.589844 122.390625 212.703125 123.082031 C 211.949219 123.667969 211.304688 124.375 210.785156 125.179688 Z M 210.785156 125.179688 " fill-opacity="1" fill-rule="nonzero"/><path fill="#5e9739" d="M 176.375 141.511719 C 175.433594 141.511719 174.574219 141.410156 173.5625 141.183594 C 172.203125 140.875 170.804688 140.601562 169.410156 140.367188 C 169.082031 140.3125 168.691406 140.230469 168.273438 140.144531 C 167.15625 139.914062 165.765625 139.621094 164.527344 139.621094 L 164.527344 139.253906 C 165.800781 139.253906 167.214844 139.550781 168.351562 139.785156 C 168.761719 139.871094 169.148438 139.953125 169.46875 140.007812 C 170.871094 140.242188 172.277344 140.519531 173.644531 140.828125 C 174.722656 141.070312 175.621094 141.164062 176.644531 141.144531 C 179.507812 141.085938 182.414062 140.777344 185.28125 140.222656 L 185.351562 140.582031 C 182.460938 141.140625 179.535156 141.453125 176.652344 141.511719 C 176.558594 141.511719 176.46875 141.511719 176.375 141.511719 Z M 176.375 141.511719 " fill-opacity="1" fill-rule="nonzero"/><path fill="#5e9739" d="M 187.140625 140.1875 L 187.121094 139.820312 C 189.421875 139.703125 191.335938 138.816406 193.359375 137.878906 C 193.808594 137.671875 194.253906 137.464844 194.710938 137.265625 C 195.359375 136.980469 195.972656 136.65625 196.535156 136.296875 C 196.695312 136.191406 196.863281 136.089844 197.03125 135.980469 C 197.78125 135.515625 198.554688 135.03125 199.121094 134.449219 L 199.382812 134.707031 C 198.789062 135.320312 197.957031 135.835938 197.226562 136.292969 C 197.058594 136.398438 196.890625 136.5 196.730469 136.605469 C 196.15625 136.972656 195.523438 137.308594 194.855469 137.601562 C 194.40625 137.800781 193.960938 138.007812 193.515625 138.210938 C 191.546875 139.121094 189.511719 140.0625 187.140625 140.1875 Z M 187.140625 140.1875 " fill-opacity="1" fill-rule="nonzero"/><path fill="#5e9739" d="M 201.359375 133.378906 L 201.144531 133.078125 C 203.015625 131.757812 204.414062 130.519531 205.890625 129.210938 C 206.378906 128.78125 206.867188 128.34375 207.382812 127.902344 C 207.765625 127.570312 208.1875 127.097656 208.636719 126.496094 L 208.929688 126.714844 C 208.46875 127.335938 208.027344 127.832031 207.621094 128.179688 C 207.109375 128.621094 206.617188 129.054688 206.132812 129.484375 C 204.648438 130.800781 203.246094 132.042969 201.359375 133.378906 Z M 201.359375 133.378906 " fill-opacity="1" fill-rule="nonzero"/><path fill="#c92928" d="M 143.6875 144.910156 C 142.839844 144.910156 142.25 144.890625 141.902344 144.851562 C 140.300781 144.667969 139.109375 144.476562 138.355469 144.28125 C 135.976562 143.664062 134.027344 143.300781 131.640625 143.394531 C 130.757812 143.425781 129.898438 143.734375 129.085938 144.3125 L 128.871094 144.011719 C 129.746094 143.394531 130.671875 143.0625 131.628906 143.027344 C 134.054688 142.933594 136.039062 143.300781 138.449219 143.925781 C 139.183594 144.117188 140.359375 144.304688 141.945312 144.488281 C 142.609375 144.5625 144.296875 144.5625 146.964844 144.484375 L 146.972656 144.851562 C 145.621094 144.890625 144.527344 144.910156 143.6875 144.910156 Z M 143.6875 144.910156 " fill-opacity="1" fill-rule="nonzero"/><path fill="#c92928" d="M 166.398438 146.359375 L 166.292969 146.007812 C 167.144531 145.757812 168.019531 145.632812 168.890625 145.644531 L 168.886719 146.007812 C 168.058594 146 167.214844 146.117188 166.398438 146.359375 Z M 166.398438 146.359375 " fill-opacity="1" fill-rule="nonzero"/><path fill="#c92928" d="M 123.03125 251.667969 C 122.015625 251.667969 120.871094 251.59375 119.785156 251.351562 C 119.292969 251.246094 118.78125 251.160156 118.289062 251.078125 C 117.5625 250.957031 116.8125 250.832031 116.113281 250.632812 C 113.8125 249.976562 111.648438 248.925781 109.683594 247.503906 C 109.292969 247.222656 108.269531 246.679688 106.640625 245.886719 L 106.800781 245.558594 C 108.46875 246.367188 109.484375 246.910156 109.898438 247.207031 C 111.828125 248.601562 113.953125 249.636719 116.214844 250.28125 C 116.890625 250.472656 117.601562 250.59375 118.351562 250.714844 C 118.847656 250.800781 119.359375 250.886719 119.863281 250.996094 C 121.4375 251.339844 123.609375 251.394531 125.671875 251.136719 C 127.679688 250.890625 129.742188 250.5625 131.734375 250.246094 C 133.765625 249.925781 135.683594 249.621094 137.511719 249.402344 C 140.667969 249.023438 143.730469 249.0625 146.613281 249.519531 C 149.800781 250.023438 152.660156 250.351562 155.113281 250.492188 C 160.640625 250.804688 165.933594 249.816406 170.847656 247.554688 C 173.277344 246.441406 175.6875 244.964844 178.019531 243.164062 C 184.03125 238.523438 189.390625 232 193.953125 223.769531 C 201.167969 210.75 204.789062 196.671875 204.421875 183.054688 C 204.234375 176.113281 202.886719 170.066406 200.308594 164.574219 C 197.933594 159.523438 194.078125 155.253906 189.15625 152.230469 C 188.824219 152.023438 188.089844 151.636719 186.96875 151.082031 C 186.238281 150.71875 185.5 150.320312 184.773438 149.890625 L 184.960938 149.574219 C 185.679688 150 186.410156 150.394531 187.132812 150.753906 C 188.277344 151.324219 189.003906 151.703125 189.351562 151.917969 C 194.332031 154.980469 198.234375 159.300781 200.640625 164.421875 C 203.242188 169.957031 204.597656 176.050781 204.785156 183.046875 C 205.15625 196.726562 201.519531 210.871094 194.273438 223.945312 C 189.6875 232.21875 184.292969 238.785156 178.242188 243.457031 C 175.890625 245.269531 173.453125 246.761719 171.003906 247.890625 C 166.03125 250.171875 160.679688 251.171875 155.09375 250.859375 C 152.628906 250.71875 149.753906 250.390625 146.558594 249.882812 C 143.707031 249.429688 140.679688 249.390625 137.554688 249.765625 C 135.734375 249.984375 133.820312 250.289062 131.792969 250.609375 C 129.796875 250.925781 127.730469 251.253906 125.71875 251.503906 C 125.179688 251.570312 124.191406 251.667969 123.03125 251.667969 Z M 123.03125 251.667969 " fill-opacity="1" fill-rule="nonzero"/><path fill="#c92928" d="M 154.96875 143.933594 C 154.773438 143.933594 154.601562 143.78125 154.582031 143.578125 L 154.582031 143.558594 L 154.554688 142.617188 L 154.917969 142.605469 L 154.949219 143.546875 C 154.949219 143.558594 154.960938 143.570312 154.972656 143.566406 C 157.34375 143.382812 159.707031 142.824219 161.992188 141.90625 L 162.128906 142.246094 C 159.808594 143.175781 157.410156 143.746094 155.003906 143.933594 C 154.992188 143.933594 154.980469 143.933594 154.96875 143.933594 Z M 154.96875 143.933594 " fill-opacity="1" fill-rule="nonzero"/><path fill="#d63433" d="M 146.96875 144.667969 C 144.28125 144.746094 142.597656 144.746094 141.921875 144.667969 C 140.324219 144.484375 139.152344 144.296875 138.402344 144.101562 C 135.992188 143.480469 134.042969 143.117188 131.632812 143.210938 C 130.710938 143.246094 129.828125 143.5625 128.980469 144.164062 C 128.078125 144.480469 127.738281 145.066406 127.957031 145.914062 C 128.03125 146.191406 128.226562 146.394531 128.542969 146.527344 C 131.902344 147.929688 133.972656 148.421875 138.886719 149.804688 C 140.664062 150.304688 142.941406 150.6875 145.710938 150.953125 C 147.613281 151.132812 149.648438 151.109375 151.820312 150.882812 C 154.457031 150.605469 156.46875 150.292969 157.859375 149.949219 C 159.171875 149.621094 161.246094 149.035156 164.082031 148.191406 C 165.410156 147.796875 166.425781 147.664062 166.34375 146.183594 C 167.183594 145.9375 168.03125 145.816406 168.886719 145.824219 C 171.566406 146.859375 174.433594 148.007812 177.050781 148.613281 C 178.472656 148.941406 179.914062 149.1875 181.371094 149.347656 C 182.578125 149.480469 183.746094 149.609375 184.867188 149.730469 C 185.59375 150.160156 186.320312 150.554688 187.050781 150.917969 C 188.179688 151.480469 188.914062 151.863281 189.253906 152.074219 C 194.089844 155.042969 198.046875 159.324219 200.472656 164.496094 C 203.210938 170.328125 204.425781 176.53125 204.605469 183.050781 C 204.984375 197.226562 200.964844 211.496094 194.113281 223.855469 C 190 231.285156 184.796875 238.164062 178.128906 243.308594 C 175.777344 245.125 173.375 246.597656 170.925781 247.722656 C 165.960938 250.003906 160.6875 250.988281 155.105469 250.675781 C 152.632812 250.535156 149.792969 250.210938 146.585938 249.699219 C 143.707031 249.246094 140.6875 249.207031 137.53125 249.582031 C 133.878906 250.023438 129.707031 250.824219 125.695312 251.320312 C 123.945312 251.539062 121.671875 251.582031 119.824219 251.171875 C 118.597656 250.90625 117.320312 250.785156 116.164062 250.457031 C 113.871094 249.804688 111.746094 248.769531 109.789062 247.355469 C 109.386719 247.066406 108.367188 246.523438 106.71875 245.722656 C 103.238281 242.066406 99.992188 237.925781 96.984375 233.304688 C 92.699219 226.734375 89.394531 219.980469 87.070312 213.046875 C 86.902344 212.558594 86.457031 211.023438 85.730469 208.441406 C 85.316406 206.972656 84.960938 205.417969 84.660156 203.773438 C 83.945312 199.839844 83.550781 197.566406 83.480469 196.953125 C 82.730469 190.484375 82.453125 183.84375 83.453125 177.464844 C 83.933594 174.390625 84.3125 172.292969 84.585938 171.171875 C 84.972656 169.601562 85.753906 167.3125 86.929688 164.304688 C 87.910156 161.792969 89.347656 159.183594 91.238281 156.476562 C 92.621094 154.5 93.816406 153.011719 94.832031 152.007812 C 95.542969 151.300781 97.058594 149.96875 99.375 148.011719 C 99.933594 147.542969 101.097656 146.707031 101.933594 146.242188 C 104.230469 144.960938 106.078125 143.824219 108.367188 142.890625 C 113.515625 140.792969 118.8125 139.542969 124.261719 139.140625 C 127.351562 138.914062 130.527344 138.859375 133.542969 139.136719 C 136.457031 139.40625 139.101562 139.722656 141.957031 139.773438 C 143.417969 139.796875 144.914062 139.792969 146.4375 139.757812 C 146.605469 139.753906 146.742188 139.882812 146.75 140.046875 Z M 146.96875 144.667969 " fill-opacity="1" fill-rule="nonzero"/><path fill="#d63433" d="M 162.0625 142.074219 C 159.746094 143.003906 157.390625 143.5625 154.988281 143.75 C 154.875 143.761719 154.777344 143.675781 154.765625 143.5625 C 154.765625 143.558594 154.765625 143.554688 154.765625 143.550781 L 154.734375 142.609375 L 154.835938 139.734375 C 154.835938 139.671875 154.882812 139.617188 154.949219 139.609375 L 157.679688 139.238281 C 157.78125 139.222656 157.882812 139.246094 157.964844 139.304688 Z M 162.0625 142.074219 " fill-opacity="1" fill-rule="nonzero"/><path fill="#6ca744" d="M 226.273438 113.867188 C 225.679688 114.324219 225.257812 114.605469 225.015625 114.710938 C 222.195312 115.898438 219.4375 117.101562 217.164062 118.636719 C 216.730469 118.925781 216.085938 119.578125 215.222656 120.589844 C 214.597656 121.332031 213.542969 122.195312 212.589844 122.9375 C 211.816406 123.539062 211.164062 124.253906 210.632812 125.082031 L 205.027344 121.902344 C 204.972656 121.871094 204.953125 121.804688 204.984375 121.75 C 205 121.722656 205.023438 121.703125 205.050781 121.695312 L 212.058594 119.808594 C 212.558594 119.671875 212.855469 119.15625 212.722656 118.65625 L 212.699219 118.574219 C 212.566406 118.082031 212.066406 117.789062 211.574219 117.910156 L 204.757812 119.605469 C 204.660156 119.632812 204.558594 119.570312 204.535156 119.472656 C 204.527344 119.445312 204.527344 119.414062 204.53125 119.386719 C 204.554688 119.285156 204.671875 119.085938 204.886719 118.785156 C 205.128906 118.445312 205.933594 117.28125 207.304688 115.289062 C 207.796875 114.578125 208.902344 113.746094 208.40625 112.765625 C 208.011719 111.980469 206.984375 112.132812 206.53125 112.816406 C 204.757812 115.492188 203.019531 117.953125 201.316406 120.191406 C 201.183594 120.367188 200.996094 120.496094 200.78125 120.550781 L 189.609375 123.5625 C 189.523438 123.585938 189.4375 123.535156 189.417969 123.453125 C 189.414062 123.445312 189.414062 123.4375 189.410156 123.429688 C 189.40625 123.378906 189.410156 123.339844 189.429688 123.3125 C 189.757812 122.75 190.164062 122.023438 190.640625 121.132812 C 191.371094 119.777344 192.351562 118.390625 193.039062 117.078125 C 193.683594 115.847656 194.5625 114.578125 195.042969 113.699219 C 195.804688 112.304688 194.085938 111.171875 193.285156 112.453125 C 192.824219 113.191406 192.40625 114.140625 191.839844 114.972656 C 190.949219 116.28125 190.066406 118.074219 189.140625 119.648438 C 187.828125 121.886719 186.929688 123.394531 186.445312 124.164062 C 186.363281 124.289062 186.242188 124.382812 186.101562 124.429688 L 174.152344 128.238281 C 174.105469 128.253906 174.050781 128.226562 174.03125 128.179688 C 174.023438 128.15625 174.023438 128.128906 174.035156 128.105469 C 174.535156 126.894531 175.199219 125.867188 175.761719 124.59375 C 176.6875 122.5 177.792969 120.285156 179.078125 117.949219 C 179.375 117.40625 179.609375 116.625 179.113281 116.117188 C 178.542969 115.527344 177.640625 115.84375 177.308594 116.554688 C 175.902344 119.582031 175.035156 121.40625 174.707031 122.027344 C 173.527344 124.261719 172.402344 126.566406 171.335938 128.941406 C 171.230469 129.179688 171.03125 129.359375 170.785156 129.445312 C 168.105469 130.378906 165.171875 131.304688 162.367188 132.53125 C 161.410156 132.949219 160.242188 133.414062 158.875 133.917969 C 158.832031 133.933594 158.789062 133.914062 158.773438 133.875 C 158.765625 133.859375 158.765625 133.839844 158.769531 133.824219 C 159.085938 132.609375 159.539062 131.347656 160.121094 130.042969 C 161.226562 127.585938 162.167969 125.625 162.941406 124.171875 C 164.132812 121.945312 165.941406 119.644531 167.394531 117.804688 C 168.25 116.726562 169.285156 115.585938 170.507812 114.386719 C 170.921875 113.980469 172.136719 112.976562 174.148438 111.375 C 175.214844 110.523438 176.386719 109.796875 177.671875 109.1875 C 180.40625 107.894531 182.277344 107.109375 183.277344 106.835938 C 185.84375 106.132812 189.394531 105.332031 192.523438 105.160156 C 197.421875 104.890625 201.914062 105.15625 205.996094 105.953125 C 206.847656 106.117188 208.84375 106.644531 211.992188 107.53125 C 214.019531 108.101562 215.957031 108.800781 217.804688 109.625 C 221.300781 111.183594 223.546875 112.171875 226.273438 113.867188 Z M 226.273438 113.867188 " fill-opacity="1" fill-rule="nonzero"/><path fill="#6ca744" d="M 208.785156 126.605469 C 208.328125 127.21875 207.898438 127.699219 207.503906 128.039062 C 205.433594 129.824219 203.753906 131.460938 201.253906 133.230469 C 200.117188 132.496094 198.9375 131.871094 197.785156 131.105469 C 196.195312 130.042969 195.355469 129.488281 195.265625 129.441406 C 194.523438 129.023438 193.464844 128.398438 192.097656 127.570312 C 191.265625 127.070312 190.613281 126.585938 189.683594 125.9375 C 189.628906 125.898438 189.617188 125.824219 189.65625 125.769531 C 189.671875 125.746094 189.695312 125.726562 189.726562 125.71875 C 190.804688 125.449219 192.003906 125.097656 193.332031 124.671875 C 194.277344 124.371094 195.484375 124.042969 196.945312 123.695312 C 197.671875 123.519531 199.253906 123.15625 201.6875 122.601562 C 201.734375 122.59375 201.78125 122.597656 201.824219 122.625 Z M 208.785156 126.605469 " fill-opacity="1" fill-rule="nonzero"/><path fill="#6ca744" d="M 199.25 134.578125 C 198.539062 135.3125 197.492188 135.898438 196.632812 136.449219 C 196.0625 136.816406 195.445312 137.144531 194.78125 137.433594 C 192.300781 138.523438 189.988281 139.855469 187.128906 140.003906 C 187.300781 139.40625 187.125 138.9375 186.605469 138.59375 C 184.128906 136.949219 182.445312 135.972656 179.972656 134.175781 C 178.242188 132.921875 176.558594 131.800781 174.917969 130.8125 C 174.773438 130.726562 174.660156 130.640625 174.578125 130.550781 C 174.503906 130.46875 174.511719 130.34375 174.589844 130.265625 C 174.613281 130.246094 174.640625 130.230469 174.671875 130.222656 C 176.609375 129.71875 178.464844 129.140625 180.242188 128.496094 C 182.382812 127.71875 184.359375 127.332031 186.492188 126.699219 C 186.601562 126.667969 186.722656 126.683594 186.816406 126.746094 Z M 199.25 134.578125 " fill-opacity="1" fill-rule="nonzero"/><path fill="#6ca744" d="M 185.316406 140.402344 C 182.425781 140.960938 179.535156 141.269531 176.648438 141.328125 C 175.613281 141.347656 174.707031 141.253906 173.601562 141.007812 C 172.234375 140.695312 170.847656 140.421875 169.441406 140.1875 C 168.238281 139.988281 166.25 139.4375 164.527344 139.4375 C 163.984375 139.144531 163.453125 138.816406 162.933594 138.453125 C 161.519531 137.453125 160.4375 136.667969 159.683594 136.097656 C 159.628906 136.054688 159.617188 135.976562 159.660156 135.921875 C 159.675781 135.902344 159.695312 135.886719 159.714844 135.878906 C 160.304688 135.65625 161.140625 135.304688 162.234375 134.824219 C 162.824219 134.5625 163.671875 134.226562 164.777344 133.820312 C 167.835938 132.699219 169.941406 131.914062 171.09375 131.472656 C 171.402344 131.355469 171.640625 131.304688 171.8125 131.320312 C 171.898438 131.324219 171.972656 131.347656 172.023438 131.382812 Z M 185.316406 140.402344 " fill-opacity="1" fill-rule="nonzero"/><path fill="#bb1e1d" d="M 168.886719 145.824219 C 168.03125 145.816406 167.183594 145.9375 166.34375 146.183594 C 166.042969 145.390625 165.472656 145.070312 164.636719 145.222656 C 162.636719 145.585938 160.207031 146.378906 158.285156 146.679688 C 156.925781 146.890625 155.71875 147.066406 154.65625 147.203125 C 154.582031 147.210938 154.511719 147.160156 154.503906 147.085938 C 154.503906 147.074219 154.5 147.066406 154.503906 147.058594 L 154.734375 142.609375 L 154.765625 143.550781 C 154.769531 143.664062 154.863281 143.753906 154.976562 143.75 C 154.980469 143.75 154.984375 143.75 154.988281 143.75 C 157.390625 143.5625 159.746094 143.003906 162.0625 142.074219 C 162.394531 142.367188 162.644531 142.558594 162.808594 142.652344 C 164.804688 143.796875 166.832031 144.855469 168.886719 145.824219 Z M 168.886719 145.824219 " fill-opacity="1" fill-rule="nonzero"/><path fill="#bb1e1d" d="M 146.96875 144.667969 L 146.996094 147.441406 C 147 147.5625 146.902344 147.660156 146.78125 147.664062 C 143.988281 147.695312 141.21875 147.441406 138.46875 146.898438 C 137.496094 146.710938 135.90625 146.28125 133.703125 145.609375 C 132.109375 145.125 130.535156 144.644531 128.980469 144.164062 C 129.828125 143.5625 130.710938 143.246094 131.632812 143.210938 C 134.042969 143.117188 135.992188 143.480469 138.402344 144.101562 C 139.152344 144.296875 140.324219 144.484375 141.921875 144.667969 C 142.597656 144.746094 144.28125 144.746094 146.96875 144.667969 Z M 146.96875 144.667969 " fill-opacity="1" fill-rule="nonzero"/><path fill="#bb1e1d" d="M 106.71875 245.722656 C 108.367188 246.523438 109.386719 247.066406 109.789062 247.355469 C 111.746094 248.769531 113.871094 249.804688 116.164062 250.457031 C 117.320312 250.785156 118.597656 250.90625 119.824219 251.171875 C 121.671875 251.582031 123.945312 251.539062 125.695312 251.320312 C 129.707031 250.824219 133.878906 250.023438 137.53125 249.582031 C 140.6875 249.207031 143.707031 249.246094 146.585938 249.699219 C 149.792969 250.210938 152.632812 250.535156 155.105469 250.675781 C 160.6875 250.988281 165.960938 250.003906 170.925781 247.722656 C 173.375 246.597656 175.777344 245.125 178.128906 243.308594 C 184.796875 238.164062 190 231.285156 194.113281 223.855469 C 200.964844 211.496094 204.984375 197.226562 204.605469 183.050781 C 204.425781 176.53125 203.210938 170.328125 200.472656 164.496094 C 198.046875 159.324219 194.089844 155.042969 189.253906 152.074219 C 188.914062 151.863281 188.179688 151.480469 187.050781 150.917969 C 186.320312 150.554688 185.59375 150.160156 184.867188 149.730469 C 187.214844 149.738281 189.515625 149.558594 191.773438 149.191406 C 194.203125 148.800781 196.449219 148.070312 198.867188 147.398438 C 198.984375 147.363281 199.109375 147.382812 199.207031 147.449219 C 201.101562 148.660156 202.316406 149.890625 204.261719 151.816406 C 205.085938 152.632812 205.8125 153.453125 206.445312 154.28125 C 209.261719 157.984375 211.582031 162.179688 213.027344 166.550781 C 213.898438 169.195312 214.578125 171.652344 215.0625 173.929688 C 215.234375 174.742188 215.484375 176.640625 215.808594 179.632812 C 216.445312 185.503906 216.113281 191.820312 215.304688 197.652344 C 214.882812 200.699219 214.230469 203.90625 213.34375 207.261719 C 212.316406 211.144531 210.984375 215.148438 209.339844 219.277344 C 206.472656 226.476562 202.839844 233.191406 198.453125 239.414062 C 198.039062 240 197.074219 241.238281 195.5625 243.125 C 192.203125 247.320312 188.230469 251.015625 183.875 254.042969 C 183.582031 254.25 182.644531 254.808594 181.066406 255.714844 C 179.921875 256.375 178.949219 256.867188 178.152344 257.199219 C 175.761719 258.1875 172.621094 259.171875 169.917969 259.320312 C 166.644531 259.5 163.484375 259.179688 160.425781 258.351562 C 155.265625 256.953125 151.839844 256.089844 150.15625 255.761719 C 148.3125 255.40625 146.152344 255.359375 143.667969 255.625 C 140.457031 255.96875 136.988281 256.640625 133.269531 257.636719 C 131.652344 258.070312 129.773438 258.28125 127.636719 258.273438 C 126.335938 258.269531 124.929688 258.019531 123.414062 257.523438 C 121.199219 256.800781 119.179688 255.875 117.355469 254.746094 C 115.53125 253.625 113.402344 252.007812 110.964844 249.898438 C 109.203125 248.371094 107.785156 246.980469 106.71875 245.722656 Z M 106.71875 245.722656 " fill-opacity="1" fill-rule="nonzero"/><path fill="#4f872e" d="M 164.527344 139.4375 C 166.25 139.4375 168.238281 139.988281 169.441406 140.1875 C 170.847656 140.421875 172.234375 140.695312 173.601562 141.007812 C 174.707031 141.253906 175.613281 141.347656 176.648438 141.328125 C 179.535156 141.269531 182.425781 140.960938 185.316406 140.402344 C 186.167969 140.851562 186.773438 140.71875 187.128906 140.003906 C 189.988281 139.855469 192.300781 138.523438 194.78125 137.433594 C 195.445312 137.144531 196.0625 136.816406 196.632812 136.449219 C 197.492188 135.898438 198.539062 135.3125 199.25 134.578125 C 199.699219 134.914062 200.382812 135.328125 200.914062 135.070312 C 201.609375 134.730469 201.660156 133.832031 201.253906 133.230469 C 203.753906 131.460938 205.433594 129.824219 207.503906 128.039062 C 207.898438 127.699219 208.328125 127.21875 208.785156 126.605469 C 209.40625 126.945312 210.027344 127.277344 210.644531 127.601562 C 211.375 127.992188 212.136719 127.738281 212.332031 126.890625 C 212.546875 125.96875 211.273438 125.453125 210.632812 125.082031 C 211.164062 124.253906 211.816406 123.539062 212.589844 122.9375 C 213.542969 122.195312 214.597656 121.332031 215.222656 120.589844 C 216.085938 119.578125 216.730469 118.925781 217.164062 118.636719 C 219.4375 117.101562 222.195312 115.898438 225.015625 114.710938 C 225.257812 114.605469 225.679688 114.324219 226.273438 113.867188 C 226.394531 113.882812 226.46875 113.941406 226.503906 114.039062 C 226.511719 114.066406 226.511719 114.097656 226.5 114.128906 C 225.90625 115.515625 225.382812 116.765625 224.925781 117.878906 C 224.257812 119.515625 223.269531 120.917969 222.261719 122.585938 C 220.742188 125.109375 219.640625 127.125 217.960938 129 C 216.210938 130.949219 214.757812 132.5625 213.589844 133.847656 C 213.128906 134.359375 212.539062 134.914062 211.820312 135.511719 C 209.675781 137.296875 208.109375 138.496094 207.125 139.113281 C 204.96875 140.46875 203.46875 141.378906 202.636719 141.84375 C 200.984375 142.765625 199.316406 143.292969 197.425781 144.042969 C 196.117188 144.5625 195.125 144.90625 194.449219 145.074219 C 191.386719 145.832031 187.910156 146.292969 184.5625 146.21875 C 183.261719 146.1875 181.691406 145.972656 179.847656 145.578125 C 178.371094 145.261719 176.824219 144.886719 175.207031 144.460938 C 174.015625 144.144531 172.875 143.730469 171.792969 143.210938 C 169.003906 141.878906 166.824219 140.828125 164.527344 139.4375 Z M 164.527344 139.4375 " fill-opacity="1" fill-rule="nonzero"/><path fill="#8f5d31" d="M 150.699219 147.535156 L 150.6875 147.539062 C 150.59375 147.554688 150.503906 147.488281 150.488281 147.394531 C 150.488281 147.382812 150.488281 147.371094 150.488281 147.359375 C 150.523438 146.507812 150.539062 145.769531 150.527344 145.136719 C 150.46875 141.28125 150.035156 137.300781 149.230469 133.199219 C 148.625 130.101562 147.683594 127.570312 146.589844 124.453125 C 146.074219 122.992188 145.398438 121.519531 144.507812 119.984375 C 144.039062 119.167969 143.566406 118.289062 143.09375 117.351562 C 142.953125 117.074219 143.007812 116.738281 143.226562 116.523438 C 144.4375 115.332031 145.859375 114.914062 147.492188 115.273438 C 147.738281 115.328125 147.929688 115.515625 147.992188 115.761719 C 148.855469 119.324219 149.882812 122.84375 150.214844 125.617188 C 150.347656 126.746094 150.484375 127.871094 150.621094 128.992188 C 151.132812 133.207031 151.347656 137.160156 151.265625 140.84375 C 151.230469 142.367188 151.117188 144.519531 150.917969 147.292969 C 150.910156 147.417969 150.820312 147.519531 150.699219 147.535156 Z M 150.699219 147.535156 " fill-opacity="1" fill-rule="nonzero"/><path fill="#ffffff" d="M 101.175781 155.945312 C 102.96875 154.539062 104.757812 153.292969 106.855469 152.9375 C 109.210938 152.539062 111.761719 153.390625 111.84375 156.179688 C 111.914062 158.5625 110.148438 159.617188 108.339844 160.894531 C 106.03125 162.523438 104.019531 164.496094 102.359375 166.765625 C 101.410156 168.070312 100.601562 169.691406 99.75 170.894531 C 98.800781 172.238281 96.941406 173.320312 95.347656 172.550781 C 94.675781 172.230469 94.234375 171.613281 94.023438 170.707031 C 93.519531 168.519531 93.960938 166.242188 94.929688 164.105469 C 95.910156 161.949219 97.128906 160.023438 98.589844 158.335938 C 99.226562 157.597656 100.089844 156.800781 101.175781 155.945312 Z M 101.175781 155.945312 " fill-opacity="1" fill-rule="nonzero"/><path fill="#ffffff" d="M 119.46875 154.0625 C 119.855469 154.171875 120.210938 154.355469 120.527344 154.613281 C 120.84375 154.867188 121.097656 155.175781 121.292969 155.535156 C 121.488281 155.894531 121.609375 156.277344 121.652344 156.6875 C 121.695312 157.097656 121.660156 157.5 121.546875 157.898438 C 121.433594 158.292969 121.25 158.65625 120.996094 158.976562 C 120.742188 159.300781 120.4375 159.566406 120.082031 159.765625 C 119.726562 159.96875 119.34375 160.09375 118.941406 160.140625 C 118.539062 160.191406 118.140625 160.160156 117.753906 160.046875 C 117.363281 159.933594 117.011719 159.75 116.695312 159.496094 C 116.378906 159.242188 116.121094 158.933594 115.925781 158.574219 C 115.730469 158.214844 115.613281 157.832031 115.566406 157.421875 C 115.523438 157.011719 115.558594 156.609375 115.671875 156.210938 C 115.785156 155.816406 115.96875 155.453125 116.222656 155.128906 C 116.476562 154.808594 116.78125 154.542969 117.140625 154.34375 C 117.496094 154.140625 117.875 154.015625 118.277344 153.96875 C 118.679688 153.917969 119.078125 153.949219 119.46875 154.0625 Z M 119.46875 154.0625 " fill-opacity="1" fill-rule="nonzero"/><path fill="#ffffff" d="M 95.398438 177.183594 C 95.671875 177.34375 95.902344 177.546875 96.089844 177.800781 C 96.28125 178.054688 96.414062 178.335938 96.492188 178.648438 C 96.570312 178.957031 96.589844 179.273438 96.542969 179.589844 C 96.496094 179.910156 96.390625 180.207031 96.230469 180.488281 C 96.066406 180.765625 95.859375 181.003906 95.605469 181.203125 C 95.351562 181.398438 95.070312 181.542969 94.761719 181.625 C 94.453125 181.710938 94.140625 181.734375 93.828125 181.695312 C 93.511719 181.65625 93.21875 181.554688 92.945312 181.394531 C 92.675781 181.238281 92.441406 181.03125 92.253906 180.777344 C 92.0625 180.523438 91.929688 180.242188 91.851562 179.933594 C 91.773438 179.621094 91.757812 179.308594 91.800781 178.988281 C 91.847656 178.667969 91.953125 178.371094 92.113281 178.089844 C 92.277344 177.8125 92.484375 177.574219 92.738281 177.375 C 92.996094 177.179688 93.277344 177.039062 93.582031 176.953125 C 93.890625 176.867188 94.203125 176.84375 94.515625 176.886719 C 94.832031 176.925781 95.125 177.023438 95.398438 177.183594 Z M 95.398438 177.183594 " fill-opacity="1" fill-rule="nonzero"/><path fill="#000000" d="M 43.914062 85.105469 C 34.140625 85.105469 26.144531 93.101562 26.144531 102.875 C 26.144531 112.648438 34.140625 120.644531 43.914062 120.644531 C 53.6875 120.644531 61.683594 112.648438 61.683594 102.875 C 61.683594 93.101562 53.6875 85.105469 43.914062 85.105469 Z M 49.777344 111.046875 L 38.40625 111.046875 L 38.40625 108.738281 C 43.203125 103.40625 45.867188 101.453125 45.867188 99.320312 C 45.867188 98.609375 45.511719 97.011719 43.734375 97.011719 C 41.425781 97.011719 41.425781 99.320312 41.425781 99.851562 L 38.050781 99.851562 C 38.050781 98.253906 39.292969 94.523438 43.734375 94.523438 C 48.179688 94.523438 49.066406 97.1875 49.066406 99.144531 C 49.066406 101.808594 47.113281 103.941406 42.492188 108.5625 L 49.601562 108.5625 L 49.601562 111.046875 Z M 49.777344 111.046875 " fill-opacity="1" fill-rule="nonzero"/><g fill="#ffffff" fill-opacity="1"><g transform="translate(104.503378, 335.973761)"><g><path d="M 2.328125 -0.921875 L 2.296875 -10.5 L 2.359375 -11.234375 L 2.296875 -11.84375 L 2.328125 -12.453125 L 2.390625 -13.03125 L 2.328125 -13.765625 L 2.390625 -14.328125 L 2.359375 -15 L 2.296875 -15.546875 L 2.421875 -19.125 L 2.328125 -20.078125 L 2.421875 -21.390625 L 2.625 -21.96875 L 3.3125 -22.3125 L 4.21875 -22.28125 L 4.890625 -22.34375 L 6.515625 -22.34375 L 7.09375 -22.28125 L 8.328125 -22.28125 L 9.328125 -22.34375 L 9.953125 -22.3125 L 10.921875 -22.375 L 11.484375 -22.3125 L 12.734375 -22.375 L 13.4375 -22.28125 L 15.359375 -22.3125 L 15.890625 -21.96875 L 16.28125 -21 L 16.21875 -19.796875 L 16.28125 -18.15625 L 15.953125 -17.53125 L 15.328125 -17.203125 L 12.890625 -17.265625 L 12.21875 -17.203125 L 11.59375 -17.234375 L 11.015625 -17.203125 L 10.09375 -17.265625 L 9.0625 -17.265625 L 8.453125 -16.859375 L 8.140625 -16.21875 L 8.203125 -14.78125 L 8.140625 -14.171875 L 8.140625 -13.28125 L 8.484375 -12.609375 L 9.125 -12.359375 L 9.828125 -12.390625 L 11.078125 -12.21875 L 12.765625 -12.359375 L 14.328125 -12.296875 L 15 -12.03125 L 15.328125 -11.390625 L 15.359375 -8.5625 L 15.03125 -7.5625 L 14.359375 -7.25 L 13.0625 -7.1875 L 12.421875 -7.25 L 11.75 -7.21875 L 11.109375 -7.28125 L 10.46875 -7.15625 L 9.796875 -7.28125 L 9.09375 -7.21875 L 8.453125 -6.921875 L 8.171875 -6.28125 L 8.203125 -2.90625 L 8.140625 -2.296875 L 8.234375 -1.28125 L 7.859375 -0.3125 L 7.1875 -0.03125 L 5.59375 0.09375 L 3.359375 0 L 2.65625 -0.3125 Z M 2.328125 -0.921875 "/></g></g></g><g fill="#ffffff" fill-opacity="1"><g transform="translate(121.89718, 335.973761)"><g><path d="M 2.453125 -1.015625 L 2.359375 -3.515625 L 2.421875 -4.1875 L 2.296875 -6.03125 L 2.390625 -7.34375 L 2.296875 -8.046875 L 2.328125 -9.25 L 2.390625 -9.921875 L 2.390625 -11.53125 L 2.296875 -12.453125 L 2.390625 -21.390625 L 2.65625 -22.0625 L 3.25 -22.34375 L 3.953125 -22.3125 L 4.5625 -22.40625 L 5.875 -22.28125 L 6.484375 -22.375 L 8.390625 -22.3125 L 8.9375 -22.375 L 9.640625 -22.3125 L 10.28125 -22.375 L 10.984375 -22.34375 L 11.90625 -22.375 L 12.703125 -22.3125 L 15.359375 -21.765625 L 16.46875 -21.203125 L 18.0625 -19.984375 L 18.359375 -19.5 L 18.796875 -19.03125 L 19.65625 -17.265625 L 19.828125 -16.625 L 19.921875 -16.03125 L 20.078125 -15.421875 L 20.046875 -12.890625 L 19.703125 -11.6875 L 19.46875 -11.140625 L 19.125 -10.5625 L 18.890625 -9.953125 L 18.515625 -9.421875 L 17.625 -8.5625 L 17.265625 -7.890625 L 17.359375 -7.125 L 18.328125 -5.453125 L 18.734375 -4.953125 L 19.0625 -4.375 L 19.4375 -3.796875 L 19.734375 -3.25 L 20.75 -1.6875 L 21.171875 -0.890625 L 21.03125 -0.21875 L 20.359375 -0.0625 L 19.65625 0 L 18.390625 0 L 17.75 -0.0625 L 17.046875 0 L 15.890625 -0.0625 L 15.09375 -0.25 L 14.453125 -0.828125 L 14.078125 -1.34375 L 13.796875 -1.890625 L 13.375 -2.484375 L 12.484375 -4.09375 L 12.265625 -4.6875 L 11.421875 -5.8125 L 10.921875 -6.359375 L 10.125 -6.609375 L 9.546875 -6.578125 L 8.96875 -6.578125 L 8.328125 -6.25 L 8.046875 -5.625 L 8.109375 -3.640625 L 8.015625 -2.265625 L 8.140625 -1.59375 L 8.078125 -0.921875 L 7.859375 -0.3125 L 6.859375 0 L 5.90625 0 L 5.234375 -0.0625 L 3.921875 0.03125 L 3.3125 0 L 2.6875 -0.3125 Z M 8.96875 -11.75 L 9.671875 -11.75 L 10.3125 -11.65625 L 12.796875 -11.875 L 13.28125 -12.09375 L 13.65625 -12.484375 L 14.015625 -13.03125 L 14.265625 -13.65625 L 14.359375 -14.53125 L 14.296875 -15.453125 L 14.078125 -15.953125 L 13.765625 -16.4375 L 12.765625 -17.046875 L 11.296875 -17.234375 L 9.546875 -17.265625 L 9.03125 -17.234375 L 8.390625 -16.921875 L 8.015625 -16.28125 L 8.109375 -12.703125 L 8.421875 -12.03125 Z M 8.96875 -11.75 "/></g></g></g><g fill="#ffffff" fill-opacity="1"><g transform="translate(144.014432, 335.973761)"><g><path d="M 9.421875 0.25 L 8.8125 0.09375 L 8.109375 0.0625 L 7.625 -0.1875 L 6.890625 -0.421875 L 6.28125 -0.671875 L 5.8125 -1.046875 L 4.71875 -1.6875 L 4.3125 -2.109375 L 3.453125 -3.15625 L 2.8125 -4.25 L 2.625 -4.859375 L 2.515625 -5.453125 L 2.328125 -6.09375 L 2.328125 -6.765625 L 2.234375 -7.6875 L 2.265625 -9.984375 L 2.171875 -11.265625 L 2.234375 -11.875 L 2.203125 -12.515625 L 2.265625 -13.125 L 2.171875 -13.828125 L 2.296875 -14.421875 L 2.140625 -16.34375 L 2.234375 -17.5625 L 2.109375 -18.890625 L 2.265625 -19.4375 L 2.265625 -21.359375 L 2.546875 -22 L 3.1875 -22.34375 L 6.546875 -22.3125 L 7.3125 -22.03125 L 7.65625 -21.421875 L 7.65625 -20.75 L 7.5 -19.796875 L 7.5 -19.1875 L 7.59375 -18.265625 L 7.59375 -15.703125 L 7.53125 -15.125 L 7.5625 -13.15625 L 7.65625 -12.515625 L 7.71875 -6.890625 L 7.921875 -6.21875 L 8.296875 -5.78125 L 8.78125 -5.359375 L 9.484375 -5.015625 L 10.0625 -4.859375 L 11.109375 -4.78125 L 11.96875 -4.859375 L 13.25 -5.265625 L 13.765625 -5.75 L 14.046875 -6.1875 L 14.328125 -6.796875 L 14.453125 -7.828125 L 14.421875 -9.453125 L 14.5 -10.09375 L 14.453125 -11.234375 L 14.53125 -11.9375 L 14.390625 -12.515625 L 14.5 -15.03125 L 14.390625 -15.703125 L 14.453125 -16.375 L 14.421875 -17.625 L 14.5 -18.265625 L 14.453125 -21.390625 L 14.78125 -22.09375 L 15.484375 -22.375 L 18.484375 -22.34375 L 19.5 -22.0625 L 19.765625 -21.359375 L 19.859375 -20.8125 L 19.828125 -18.234375 L 19.921875 -17.59375 L 19.828125 -16.984375 L 19.859375 -16.28125 L 19.796875 -15.296875 L 19.828125 -14.390625 L 19.765625 -13.71875 L 19.796875 -13.125 L 19.921875 -12.484375 L 19.921875 -11.90625 L 19.796875 -11.234375 L 19.890625 -8.65625 L 19.65625 -5.421875 L 19.4375 -4.8125 L 19.125 -4.28125 L 18.921875 -3.640625 L 18.515625 -3.15625 L 18.15625 -2.578125 L 16.734375 -1.3125 L 16.21875 -0.953125 L 15.640625 -0.703125 L 15.125 -0.390625 L 14.5 -0.21875 L 13.828125 0.03125 L 12.546875 0.3125 L 10.953125 0.390625 Z M 9.421875 0.25 "/></g></g></g><g fill="#ffffff" fill-opacity="1"><g transform="translate(166.035945, 335.973761)"><g><path d="M 6.125 -0.984375 L 6.09375 -3.484375 L 6.15625 -4.125 L 6.0625 -6.0625 L 6.09375 -6.734375 L 6.0625 -7.375 L 6.1875 -8.328125 L 6.09375 -9.25 L 6.09375 -10.53125 L 6.15625 -11.171875 L 6.09375 -11.78125 L 6.1875 -12.765625 L 6.09375 -16.28125 L 5.78125 -16.890625 L 5.203125 -17.234375 L 2.359375 -17.265625 L 1.53125 -17.171875 L 0.890625 -17.5 L 0.546875 -18.203125 L 0.578125 -21.390625 L 0.890625 -22.03125 L 1.59375 -22.34375 L 11.109375 -22.28125 L 11.84375 -22.375 L 12.484375 -22.375 L 13.125 -22.3125 L 13.765625 -22.3125 L 14.453125 -22.40625 L 15.0625 -22.40625 L 15.578125 -22.34375 L 16.34375 -22.40625 L 16.984375 -22.09375 L 17.296875 -21.453125 L 17.234375 -18.828125 L 17.296875 -18.15625 L 16.984375 -17.53125 L 16.25 -17.234375 L 14.5 -17.265625 L 13.921875 -17.203125 L 13.28125 -17.234375 L 12.734375 -17.203125 L 12.03125 -16.921875 L 11.78125 -16.34375 L 11.84375 -15.640625 L 11.75 -15 L 11.875 -8.65625 L 11.78125 -7.3125 L 11.84375 -6.734375 L 11.78125 -4.78125 L 11.6875 -4.125 L 11.78125 -3.578125 L 11.8125 -2.296875 L 11.75 -1.5625 L 11.78125 -0.953125 L 11.53125 -0.3125 L 10.890625 -0.0625 L 8.90625 -0.0625 L 8.296875 0 L 7.65625 -0.0625 L 7.0625 0 L 6.390625 -0.3125 Z M 6.125 -0.984375 "/></g></g></g><g fill="#ffffff" fill-opacity="1"><g transform="translate(182.089142, 335.973761)"><g><path d="M 0.421875 -0.859375 L 0.796875 -2.203125 L 1.078125 -2.84375 L 1.46875 -3.359375 L 2.390625 -5.6875 L 3.28125 -7.34375 L 3.515625 -7.984375 L 3.796875 -8.484375 L 3.984375 -9.15625 L 4.4375 -9.984375 L 4.65625 -10.59375 L 5.140625 -11.421875 L 5.65625 -12.578125 L 6 -13.15625 L 6.15625 -13.6875 L 7.953125 -17.71875 L 8.296875 -18.296875 L 9.671875 -21.171875 L 9.859375 -21.734375 L 10.46875 -22.3125 L 11.484375 -22.625 L 12.578125 -22.34375 L 13.15625 -21.734375 L 13.34375 -21.125 L 13.625 -20.65625 L 14.140625 -19.4375 L 14.78125 -18.265625 L 15.265625 -17.140625 L 15.421875 -16.625 L 16 -15.421875 L 16.1875 -14.8125 L 16.828125 -13.6875 L 16.984375 -13.09375 L 17.296875 -12.546875 L 17.5625 -12 L 17.90625 -11.421875 L 18.09375 -10.796875 L 18.390625 -10.3125 L 18.609375 -9.671875 L 18.890625 -9.125 L 19.15625 -8.484375 L 19.5 -7.984375 L 19.953125 -6.796875 L 20.265625 -6.25 L 20.5 -5.65625 L 21.03125 -4.5 L 21.234375 -3.890625 L 21.546875 -3.421875 L 21.734375 -2.78125 L 22.15625 -2.234375 L 22.375 -1.65625 L 22.5625 -0.859375 L 22.4375 -0.1875 L 21.859375 0 L 19.890625 0.0625 L 18.765625 -0.03125 L 18.203125 0.03125 L 17.359375 -0.28125 L 16.828125 -0.796875 L 16.46875 -1.375 L 16.3125 -1.953125 L 15.640625 -2.453125 L 14.59375 -2.8125 L 13.09375 -2.75 L 12.421875 -2.8125 L 11.84375 -2.8125 L 11.109375 -2.71875 L 10.4375 -2.8125 L 8.65625 -2.78125 L 8.015625 -2.84375 L 7.25 -2.515625 L 6.703125 -1.921875 L 6.15625 -0.828125 L 5.59375 -0.25 L 4.859375 0.0625 L 4.015625 -0.03125 L 1.21875 -0.03125 L 0.578125 -0.1875 Z M 10.28125 -7.890625 L 12.765625 -7.921875 L 13.3125 -8.171875 L 13.375 -8.75 L 13.15625 -9.328125 L 12.828125 -9.953125 L 12.703125 -10.46875 L 12.359375 -11.015625 L 11.9375 -12.265625 L 11.5625 -12.515625 L 11.140625 -12.1875 L 10.859375 -11.6875 L 9.578125 -8.78125 L 9.671875 -8.140625 Z M 10.28125 -7.890625 "/></g></g></g></svg>