<svg xmlns="http://www.w3.org/2000/svg" xmlns:xlink="http://www.w3.org/1999/xlink" width="415" zoomAndPan="magnify" viewBox="0 0 311.25 405.749988" height="541" preserveAspectRatio="xMidYMid meet" version="1.0"><defs><g/><clipPath id="0ecb780d9a"><path d="M 14.65625 0.363281 L 296.671875 0.363281 L 296.671875 405.136719 L 14.65625 405.136719 Z M 14.65625 0.363281 " clip-rule="nonzero"/></clipPath><clipPath id="d93a6dcb63"><path d="M 36.03125 0.363281 L 275.296875 0.363281 C 287.101562 0.363281 296.671875 9.933594 296.671875 21.738281 L 296.671875 383.648438 C 296.671875 395.453125 287.101562 405.019531 275.296875 405.019531 L 36.03125 405.019531 C 24.226562 405.019531 14.65625 395.453125 14.65625 383.648438 L 14.65625 21.738281 C 14.65625 9.933594 24.226562 0.363281 36.03125 0.363281 Z M 36.03125 0.363281 " clip-rule="nonzero"/></clipPath><clipPath id="44e25b8c6d"><path d="M 0.65625 0.363281 L 282.671875 0.363281 L 282.671875 405 L 0.65625 405 Z M 0.65625 0.363281 " clip-rule="nonzero"/></clipPath><clipPath id="1eb788e1fd"><path d="M 22.03125 0.363281 L 261.296875 0.363281 C 273.101562 0.363281 282.671875 9.933594 282.671875 21.738281 L 282.671875 383.648438 C 282.671875 395.453125 273.101562 405.019531 261.296875 405.019531 L 22.03125 405.019531 C 10.226562 405.019531 0.65625 395.453125 0.65625 383.648438 L 0.65625 21.738281 C 0.65625 9.933594 10.226562 0.363281 22.03125 0.363281 Z M 22.03125 0.363281 " clip-rule="nonzero"/></clipPath><clipPath id="4655a26972"><rect x="0" width="283" y="0" height="406"/></clipPath><clipPath id="379a028a3e"><path d="M 24.683594 10.390625 L 285.085938 10.390625 L 285.085938 395 L 24.683594 395 Z M 24.683594 10.390625 " clip-rule="nonzero"/></clipPath><clipPath id="369e993fca"><path d="M 39.125 10.390625 L 270.644531 10.390625 C 274.472656 10.390625 278.148438 11.910156 280.855469 14.621094 C 283.5625 17.328125 285.085938 21 285.085938 24.832031 L 285.085938 380.484375 C 285.085938 384.3125 283.5625 387.988281 280.855469 390.695312 C 278.148438 393.40625 274.472656 394.925781 270.644531 394.925781 L 39.125 394.925781 C 35.296875 394.925781 31.621094 393.40625 28.914062 390.695312 C 26.207031 387.988281 24.683594 384.3125 24.683594 380.484375 L 24.683594 24.832031 C 24.683594 21 26.207031 17.328125 28.914062 14.621094 C 31.621094 11.910156 35.296875 10.390625 39.125 10.390625 Z M 39.125 10.390625 " clip-rule="nonzero"/></clipPath><clipPath id="7023884be0"><path d="M 0.683594 0.390625 L 261.085938 0.390625 L 261.085938 384.933594 L 0.683594 384.933594 Z M 0.683594 0.390625 " clip-rule="nonzero"/></clipPath><clipPath id="1ee1afb83f"><path d="M 15.125 0.390625 L 246.644531 0.390625 C 250.472656 0.390625 254.148438 1.910156 256.855469 4.621094 C 259.5625 7.328125 261.085938 11 261.085938 14.832031 L 261.085938 370.484375 C 261.085938 374.3125 259.5625 377.988281 256.855469 380.695312 C 254.148438 383.40625 250.472656 384.925781 246.644531 384.925781 L 15.125 384.925781 C 11.296875 384.925781 7.621094 383.40625 4.914062 380.695312 C 2.207031 377.988281 0.683594 374.3125 0.683594 370.484375 L 0.683594 14.832031 C 0.683594 11 2.207031 7.328125 4.914062 4.621094 C 7.621094 1.910156 11.296875 0.390625 15.125 0.390625 Z M 15.125 0.390625 " clip-rule="nonzero"/></clipPath><clipPath id="ad70bc6cf2"><rect x="0" width="262" y="0" height="385"/></clipPath><clipPath id="f39a0a9cb6"><path d="M 13.855469 274.746094 L 296 274.746094 L 296 394.925781 L 13.855469 394.925781 Z M 13.855469 274.746094 " clip-rule="nonzero"/></clipPath><clipPath id="3c2f8806c8"><path d="M 25.492188 274.746094 L 284.277344 274.746094 C 290.703125 274.746094 295.914062 279.957031 295.914062 286.382812 L 295.914062 383.289062 C 295.914062 389.714844 290.703125 394.925781 284.277344 394.925781 L 25.492188 394.925781 C 19.066406 394.925781 13.855469 389.714844 13.855469 383.289062 L 13.855469 286.382812 C 13.855469 279.957031 19.066406 274.746094 25.492188 274.746094 Z M 25.492188 274.746094 " clip-rule="nonzero"/></clipPath><clipPath id="7049e5bd3a"><path d="M 0.855469 0.746094 L 282.925781 0.746094 L 282.925781 120.925781 L 0.855469 120.925781 Z M 0.855469 0.746094 " clip-rule="nonzero"/></clipPath><clipPath id="e02ff81f14"><path d="M 12.492188 0.746094 L 271.277344 0.746094 C 277.703125 0.746094 282.914062 5.957031 282.914062 12.382812 L 282.914062 109.289062 C 282.914062 115.714844 277.703125 120.925781 271.277344 120.925781 L 12.492188 120.925781 C 6.066406 120.925781 0.855469 115.714844 0.855469 109.289062 L 0.855469 12.382812 C 0.855469 5.957031 6.066406 0.746094 12.492188 0.746094 Z M 12.492188 0.746094 " clip-rule="nonzero"/></clipPath><clipPath id="01a5835376"><rect x="0" width="283" y="0" height="121"/></clipPath><clipPath id="8d2ec20c92"><path d="M 13.902344 10.390625 L 296 10.390625 L 296 81.585938 L 13.902344 81.585938 Z M 13.902344 10.390625 " clip-rule="nonzero"/></clipPath><clipPath id="b554611670"><path d="M 26.609375 10.390625 L 283.207031 10.390625 C 290.226562 10.390625 295.914062 16.078125 295.914062 23.097656 L 295.914062 68.875 C 295.914062 75.894531 290.226562 81.585938 283.207031 81.585938 L 26.609375 81.585938 C 19.59375 81.585938 13.902344 75.894531 13.902344 68.875 L 13.902344 23.097656 C 13.902344 16.078125 19.59375 10.390625 26.609375 10.390625 Z M 26.609375 10.390625 " clip-rule="nonzero"/></clipPath><clipPath id="bd4abc0b23"><path d="M 0.902344 0.390625 L 282.925781 0.390625 L 282.925781 71.585938 L 0.902344 71.585938 Z M 0.902344 0.390625 " clip-rule="nonzero"/></clipPath><clipPath id="7d75ad9e86"><path d="M 13.609375 0.390625 L 270.207031 0.390625 C 277.226562 0.390625 282.914062 6.078125 282.914062 13.097656 L 282.914062 58.875 C 282.914062 65.894531 277.226562 71.585938 270.207031 71.585938 L 13.609375 71.585938 C 6.59375 71.585938 0.902344 65.894531 0.902344 58.875 L 0.902344 13.097656 C 0.902344 6.078125 6.59375 0.390625 13.609375 0.390625 Z M 13.609375 0.390625 " clip-rule="nonzero"/></clipPath><clipPath id="13add70980"><rect x="0" width="283" y="0" height="72"/></clipPath><clipPath id="00076ec2d5"><path d="M 25.917969 81.585938 L 68.566406 81.585938 L 68.566406 124.234375 L 25.917969 124.234375 Z M 25.917969 81.585938 " clip-rule="nonzero"/></clipPath><clipPath id="cb3a2adde6"><path d="M 102 140 L 193 140 L 193 274.855469 L 102 274.855469 Z M 102 140 " clip-rule="nonzero"/></clipPath><clipPath id="e7373c5f17"><path d="M 100.875 120 L 193.648438 120 L 193.648438 274.855469 L 100.875 274.855469 Z M 100.875 120 " clip-rule="nonzero"/></clipPath><clipPath id="970d42bd14"><path d="M 100.875 106 L 193.648438 106 L 193.648438 175 L 100.875 175 Z M 100.875 106 " clip-rule="nonzero"/></clipPath><clipPath id="79c44dca94"><path d="M 100.875 99 L 193.648438 99 L 193.648438 159 L 100.875 159 Z M 100.875 99 " clip-rule="nonzero"/></clipPath><clipPath id="863fa422fd"><path d="M 100.875 90 L 193.648438 90 L 193.648438 149 L 100.875 149 Z M 100.875 90 " clip-rule="nonzero"/></clipPath><clipPath id="64256027a9"><path d="M 119 78.828125 L 175 78.828125 L 175 135 L 119 135 Z M 119 78.828125 " clip-rule="nonzero"/></clipPath><clipPath id="57a86f2d9f"><path d="M 100.875 177 L 193.648438 177 L 193.648438 266 L 100.875 266 Z M 100.875 177 " clip-rule="nonzero"/></clipPath></defs><g clip-path="url(#0ecb780d9a)"><g clip-path="url(#d93a6dcb63)"><g transform="matrix(1, 0, 0, 1, 14, -0.000000000000060896)"><g clip-path="url(#4655a26972)"><g clip-path="url(#44e25b8c6d)"><g clip-path="url(#1eb788e1fd)"><path fill="#ffd700" d="M 0.65625 0.363281 L 282.671875 0.363281 L 282.671875 404.65625 L 0.65625 404.65625 Z M 0.65625 0.363281 " fill-opacity="1" fill-rule="nonzero"/></g></g></g></g></g></g><g clip-path="url(#379a028a3e)"><g clip-path="url(#369e993fca)"><g transform="matrix(1, 0, 0, 1, 24, 10)"><g clip-path="url(#ad70bc6cf2)"><g clip-path="url(#7023884be0)"><g clip-path="url(#1ee1afb83f)"><path fill="#fffaed" d="M 0.683594 0.390625 L 261.085938 0.390625 L 261.085938 384.890625 L 0.683594 384.890625 Z M 0.683594 0.390625 " fill-opacity="1" fill-rule="nonzero"/></g></g></g></g></g></g><g clip-path="url(#f39a0a9cb6)"><g clip-path="url(#3c2f8806c8)"><g transform="matrix(1, 0, 0, 1, 13, 274)"><g clip-path="url(#01a5835376)"><g clip-path="url(#7049e5bd3a)"><g clip-path="url(#e02ff81f14)"><path fill="#ffd700" d="M 0.855469 0.746094 L 283 0.746094 L 283 120.925781 L 0.855469 120.925781 Z M 0.855469 0.746094 " fill-opacity="1" fill-rule="nonzero"/></g></g></g></g></g></g><g fill="#ffffff" fill-opacity="1"><g transform="translate(143.526533, 343.578922)"><g/></g></g><g fill="#ffffff" fill-opacity="1"><g transform="translate(151.095258, 343.578922)"><g/></g></g><g fill="#ffffff" fill-opacity="1"><g transform="translate(158.663983, 343.578922)"><g/></g></g><g clip-path="url(#8d2ec20c92)"><g clip-path="url(#b554611670)"><g transform="matrix(1, 0, 0, 1, 13, 10)"><g clip-path="url(#13add70980)"><g clip-path="url(#bd4abc0b23)"><g clip-path="url(#7d75ad9e86)"><path fill="#ffd700" d="M 0.902344 0.390625 L 282.902344 0.390625 L 282.902344 71.585938 L 0.902344 71.585938 Z M 0.902344 0.390625 " fill-opacity="1" fill-rule="nonzero"/></g></g></g></g></g></g><g fill="#ffffff" fill-opacity="1"><g transform="translate(86.418516, 55.281533)"><g><path d="M 2.0625 -0.8125 L 2.125 -1.34375 L 2.015625 -5.3125 L 2.125 -5.84375 L 2.046875 -18.15625 L 2.09375 -18.75 L 2.40625 -19.3125 L 2.96875 -19.609375 L 3.765625 -19.390625 L 4.578125 -18.796875 L 5.203125 -18.15625 L 5.5 -17.765625 L 5.890625 -17.40625 L 6.203125 -16.984375 L 6.5625 -16.59375 L 7.046875 -16.171875 L 7.703125 -15.34375 L 9.640625 -13.359375 L 9.96875 -12.90625 L 10.421875 -12.546875 L 10.75 -12.0625 L 11.125 -11.703125 L 11.625 -11.53125 L 12.234375 -11.734375 L 16.375 -16.125 L 16.625 -16.53125 L 18.21875 -18.1875 L 18.859375 -18.96875 L 19.5625 -19.359375 L 20.390625 -19.609375 L 20.953125 -19.28125 L 21.265625 -18.75 L 21.234375 -18.15625 L 21.28125 -17.6875 L 21.234375 -17.09375 L 21.3125 -9.1875 L 21.234375 -8.6875 L 21.28125 -8.125 L 21.234375 -7.546875 L 21.265625 -6.984375 L 21.171875 -6.421875 L 21.234375 -5.34375 L 21.171875 -4.8125 L 21.28125 -1.453125 L 21.203125 -0.890625 L 20.890625 -0.3125 L 20.359375 0.03125 L 17.015625 0 L 16.40625 -0.21875 L 16.125 -0.8125 L 16.203125 -4.671875 L 16.125 -5.703125 L 16.140625 -6.265625 L 16.125 -6.765625 L 16.203125 -7.296875 L 16.125 -7.84375 L 15.890625 -8.1875 L 15.5625 -8.125 L 15.171875 -7.734375 L 14.8125 -7.265625 L 12.453125 -4.890625 L 11.984375 -4.546875 L 11.34375 -4.546875 L 10.421875 -5.3125 L 10.0625 -5.78125 L 8.5 -7.265625 L 7.796875 -8.125 L 7.375 -8.234375 L 7.125 -7.84375 L 7.234375 -6.234375 L 7.15625 -2.453125 L 7.234375 -1.875 L 7.265625 -1.28125 L 7.203125 -0.75 L 6.90625 -0.3125 L 6.0625 -0.0625 L 2.984375 0 L 2.3125 -0.3125 Z M 2.0625 -0.8125 "/></g></g></g><g fill="#ffffff" fill-opacity="1"><g transform="translate(109.767058, 55.281533)"><g><path d="M 10.453125 0.328125 L 9.859375 0.28125 L 8.859375 0.0625 L 8.234375 0 L 7.4375 -0.28125 L 5.25 -1.390625 L 4.328125 -2.125 L 4.015625 -2.484375 L 3.609375 -2.875 L 3.234375 -3.328125 L 2.90625 -3.65625 L 1.625 -6.203125 L 1.375 -7.265625 L 1.3125 -7.796875 L 1.171875 -8.296875 L 1.09375 -8.890625 L 1.171875 -11.140625 L 1.640625 -13.296875 L 2.0625 -14.359375 L 2.9375 -15.84375 L 4.296875 -17.4375 L 5.25 -18.125 L 5.75 -18.390625 L 6.171875 -18.6875 L 8.265625 -19.46875 L 11.234375 -19.890625 L 11.984375 -19.859375 L 13.609375 -19.578125 L 15.75 -18.90625 L 16.171875 -18.609375 L 17.015625 -18.25 L 17.65625 -17.796875 L 18.46875 -17.09375 L 19.25 -16.234375 L 19.859375 -15.390625 L 20.390625 -14.359375 L 21.09375 -12.265625 L 21.28125 -11.125 L 21.375 -9.71875 L 21.265625 -8.90625 L 21.234375 -8.328125 L 21.09375 -7.765625 L 21.0625 -7.265625 L 20.84375 -6.203125 L 20.421875 -5.140625 L 19.1875 -3.265625 L 18.796875 -2.875 L 18.4375 -2.375 L 17.65625 -1.703125 L 17.125 -1.453125 L 16.703125 -1.125 L 15.78125 -0.609375 L 13.6875 0.078125 L 12.015625 0.3125 Z M 12.015625 -4.609375 L 12.578125 -4.71875 L 12.984375 -4.921875 L 13.5 -5.0625 L 14.828125 -5.984375 L 15.21875 -6.421875 L 15.390625 -6.84375 L 15.703125 -7.34375 L 15.890625 -7.84375 L 16.125 -8.890625 L 16.171875 -10.59375 L 16.09375 -11.09375 L 15.84375 -11.625 L 15.5 -12.6875 L 14.421875 -13.828125 L 13.546875 -14.4375 L 13.046875 -14.671875 L 12.546875 -14.78125 L 11.203125 -14.953125 L 10.421875 -14.890625 L 9.328125 -14.609375 L 8.96875 -14.46875 L 7.578125 -13.515625 L 6.90625 -12.625 L 6.734375 -12.125 L 6.515625 -11.625 L 6.421875 -11.09375 L 6.28125 -10.59375 L 6.28125 -8.890625 L 6.515625 -7.84375 L 6.765625 -7.34375 L 6.90625 -6.90625 L 7.296875 -6.375 L 7.65625 -5.984375 L 8.40625 -5.359375 L 8.859375 -5.109375 L 9.859375 -4.6875 L 10.46875 -4.609375 Z M 12.015625 -4.609375 "/></g></g></g><g fill="#ffffff" fill-opacity="1"><g transform="translate(132.166026, 55.281533)"><g><path d="M 8.109375 0.21875 L 6.921875 0.140625 L 6.390625 -0.0625 L 5.78125 -0.140625 L 3.765625 -1.0625 L 3.296875 -1.375 L 2.484375 -2.171875 L 1.78125 -3.046875 L 1.34375 -4.15625 L 1.234375 -4.671875 L 1.171875 -5.28125 L 1.375 -5.859375 L 1.921875 -6.125 L 2.484375 -6.09375 L 3.046875 -6.140625 L 5.171875 -6.09375 L 5.734375 -5.859375 L 6.140625 -5.3125 L 6.5625 -4.921875 L 7.0625 -4.609375 L 7.484375 -4.421875 L 8.125 -4.25 L 8.96875 -4.1875 L 9.75 -4.21875 L 10.78125 -4.53125 L 11.234375 -4.78125 L 11.671875 -5.171875 L 11.84375 -5.890625 L 11.703125 -6.625 L 11.3125 -6.953125 L 10.3125 -7.375 L 9.75 -7.40625 L 9.25 -7.484375 L 6.953125 -7.65625 L 5.953125 -7.875 L 4.359375 -8.40625 L 3.375 -9 L 2.59375 -9.71875 L 1.90625 -10.640625 L 1.53125 -11.625 L 1.34375 -12.40625 L 1.3125 -14.28125 L 1.703125 -15.890625 L 1.984375 -16.34375 L 2.171875 -16.84375 L 2.546875 -17.203125 L 2.84375 -17.6875 L 3.359375 -18.015625 L 3.75 -18.390625 L 4.296875 -18.71875 L 4.75 -18.890625 L 5.203125 -19.171875 L 5.703125 -19.359375 L 7.90625 -19.8125 L 9.46875 -19.828125 L 10.078125 -19.703125 L 10.59375 -19.640625 L 11.171875 -19.53125 L 12.71875 -19 L 14.5 -17.765625 L 14.859375 -17.34375 L 15.140625 -16.90625 L 15.5 -16.453125 L 15.953125 -15.453125 L 16.171875 -14.359375 L 15.921875 -13.828125 L 15.390625 -13.5 L 14.859375 -13.546875 L 14.359375 -13.5 L 12.515625 -13.546875 L 11.65625 -13.828125 L 10.734375 -14.8125 L 10.3125 -15.140625 L 9.6875 -15.359375 L 7.90625 -15.3125 L 7.40625 -15.203125 L 7.015625 -15.03125 L 6.53125 -14.671875 L 6.234375 -14.28125 L 6.140625 -13.546875 L 6.171875 -12.796875 L 6.625 -12.34375 L 7.046875 -12.125 L 8.21875 -11.703125 L 11.03125 -11.34375 L 13.328125 -10.78125 L 14.8125 -10.109375 L 15.28125 -9.71875 L 15.953125 -8.859375 L 16.515625 -7.828125 L 16.65625 -7.296875 L 16.734375 -6.734375 L 16.703125 -5 L 16.625 -4.5 L 16.453125 -3.9375 L 16.234375 -3.4375 L 15.671875 -2.546875 L 14.890625 -1.640625 L 14 -1.03125 L 12.546875 -0.25 L 9.8125 0.28125 L 8.90625 0.3125 Z M 8.109375 0.21875 "/></g></g></g><g fill="#ffffff" fill-opacity="1"><g transform="translate(149.984649, 55.281533)"><g><path d="M 5.359375 -0.859375 L 5.34375 -3.046875 L 5.390625 -3.609375 L 5.3125 -5.3125 L 5.34375 -5.890625 L 5.3125 -6.453125 L 5.421875 -7.296875 L 5.34375 -8.109375 L 5.34375 -9.21875 L 5.390625 -9.78125 L 5.34375 -10.3125 L 5.421875 -11.171875 L 5.34375 -14.25 L 5.0625 -14.78125 L 4.546875 -15.09375 L 2.0625 -15.109375 L 1.34375 -15.03125 L 0.78125 -15.3125 L 0.46875 -15.921875 L 0.5 -18.71875 L 0.78125 -19.28125 L 1.390625 -19.5625 L 9.71875 -19.5 L 10.359375 -19.578125 L 10.921875 -19.578125 L 11.484375 -19.53125 L 12.046875 -19.53125 L 12.65625 -19.609375 L 13.1875 -19.609375 L 13.640625 -19.5625 L 14.296875 -19.609375 L 14.859375 -19.328125 L 15.140625 -18.78125 L 15.09375 -16.484375 L 15.140625 -15.890625 L 14.859375 -15.34375 L 14.21875 -15.09375 L 12.6875 -15.109375 L 12.1875 -15.0625 L 11.625 -15.09375 L 11.140625 -15.0625 L 10.53125 -14.8125 L 10.3125 -14.296875 L 10.359375 -13.6875 L 10.28125 -13.125 L 10.390625 -7.578125 L 10.3125 -6.390625 L 10.359375 -5.890625 L 10.3125 -4.1875 L 10.21875 -3.609375 L 10.3125 -3.125 L 10.34375 -2.015625 L 10.28125 -1.375 L 10.3125 -0.84375 L 10.078125 -0.28125 L 9.53125 -0.0625 L 7.796875 -0.0625 L 7.265625 0 L 6.703125 -0.0625 L 6.171875 0 L 5.59375 -0.28125 Z M 5.359375 -0.859375 "/></g></g></g><g fill="#ffffff" fill-opacity="1"><g transform="translate(165.596893, 55.281533)"><g><path d="M 0.359375 -0.75 L 0.703125 -1.921875 L 0.953125 -2.484375 L 1.28125 -2.9375 L 2.09375 -4.96875 L 2.875 -6.421875 L 3.078125 -6.984375 L 3.328125 -7.4375 L 3.484375 -8.015625 L 3.890625 -8.75 L 4.078125 -9.28125 L 4.5 -10 L 4.9375 -11 L 5.25 -11.515625 L 5.390625 -11.984375 L 6.953125 -15.5 L 7.265625 -16.015625 L 8.46875 -18.515625 L 8.625 -19.03125 L 9.15625 -19.53125 L 10.0625 -19.8125 L 11 -19.5625 L 11.515625 -19.03125 L 11.671875 -18.5 L 11.921875 -18.078125 L 12.375 -17.015625 L 12.9375 -15.984375 L 13.359375 -15 L 13.5 -14.5625 L 14 -13.5 L 14.171875 -12.96875 L 14.71875 -11.984375 L 14.859375 -11.453125 L 15.140625 -10.984375 L 15.359375 -10.5 L 15.671875 -10 L 15.84375 -9.4375 L 16.09375 -9.03125 L 16.28125 -8.46875 L 16.53125 -7.984375 L 16.765625 -7.4375 L 17.0625 -6.984375 L 17.453125 -5.953125 L 17.734375 -5.46875 L 17.9375 -4.9375 L 18.40625 -3.9375 L 18.578125 -3.40625 L 18.859375 -2.984375 L 19.03125 -2.4375 L 19.390625 -1.953125 L 19.578125 -1.453125 L 19.75 -0.75 L 19.640625 -0.171875 L 19.140625 0 L 17.40625 0.0625 L 16.421875 -0.03125 L 15.921875 0.03125 L 15.203125 -0.25 L 14.71875 -0.703125 L 14.421875 -1.203125 L 14.28125 -1.703125 L 13.6875 -2.15625 L 12.765625 -2.453125 L 11.453125 -2.40625 L 10.875 -2.453125 L 10.359375 -2.453125 L 9.71875 -2.375 L 9.140625 -2.453125 L 7.578125 -2.4375 L 7.015625 -2.484375 L 6.34375 -2.203125 L 5.859375 -1.671875 L 5.390625 -0.71875 L 4.890625 -0.21875 L 4.25 0.0625 L 3.515625 -0.03125 L 1.0625 -0.03125 L 0.5 -0.171875 Z M 9 -6.90625 L 11.171875 -6.921875 L 11.65625 -7.15625 L 11.703125 -7.65625 L 11.515625 -8.15625 L 11.234375 -8.71875 L 11.125 -9.15625 L 10.8125 -9.640625 L 10.453125 -10.734375 L 10.109375 -10.953125 L 9.75 -10.671875 L 9.5 -10.21875 L 8.375 -7.6875 L 8.46875 -7.125 Z M 9 -6.90625 "/></g></g></g><g fill="#ffffff" fill-opacity="1"><g transform="translate(185.873266, 55.281533)"><g><path d="M 0.703125 -0.84375 L 0.984375 -1.53125 L 1.3125 -2.015625 L 3.765625 -6.375 L 4.015625 -6.953125 L 4.359375 -7.484375 L 4.53125 -7.90625 L 4.828125 -8.4375 L 5.0625 -8.9375 L 5.734375 -9.890625 L 6.28125 -11.140625 L 7.046875 -12.34375 L 7.796875 -13.859375 L 8.109375 -14.296875 L 8.15625 -14.859375 L 7.453125 -15.0625 L 6.515625 -15.03125 L 6 -15.109375 L 5 -15.03125 L 3.234375 -15.0625 L 2.65625 -15.140625 L 2.15625 -15.09375 L 1.625 -15.359375 L 1.3125 -15.890625 L 1.390625 -17.0625 L 1.3125 -17.578125 L 1.375 -18.1875 L 1.25 -18.75 L 1.59375 -19.28125 L 2.40625 -19.53125 L 12.0625 -19.578125 L 12.625 -19.53125 L 15.34375 -19.5625 L 15.890625 -19.390625 L 16.015625 -18.6875 L 12.375 -12.0625 L 11.984375 -11.125 L 11.59375 -10.609375 L 11.3125 -10.171875 L 11.140625 -9.671875 L 8.578125 -5.171875 L 8.625 -4.71875 L 9.421875 -4.46875 L 14.28125 -4.4375 L 14.78125 -4.5 L 15.34375 -4.4375 L 15.953125 -4.15625 L 16.234375 -3.65625 L 16.265625 -3.046875 L 16.203125 -2.546875 L 16.3125 -1.953125 L 16.234375 -1.390625 L 16.28125 -0.859375 L 15.953125 -0.328125 L 15.421875 0 L 1.421875 -0.03125 L 0.84375 -0.171875 Z M 0.703125 -0.84375 "/></g></g></g><g fill="#ffffff" fill-opacity="1"><g transform="translate(203.105386, 55.281533)"><g><path d="M 0.359375 -0.75 L 0.703125 -1.921875 L 0.953125 -2.484375 L 1.28125 -2.9375 L 2.09375 -4.96875 L 2.875 -6.421875 L 3.078125 -6.984375 L 3.328125 -7.4375 L 3.484375 -8.015625 L 3.890625 -8.75 L 4.078125 -9.28125 L 4.5 -10 L 4.9375 -11 L 5.25 -11.515625 L 5.390625 -11.984375 L 6.953125 -15.5 L 7.265625 -16.015625 L 8.46875 -18.515625 L 8.625 -19.03125 L 9.15625 -19.53125 L 10.0625 -19.8125 L 11 -19.5625 L 11.515625 -19.03125 L 11.671875 -18.5 L 11.921875 -18.078125 L 12.375 -17.015625 L 12.9375 -15.984375 L 13.359375 -15 L 13.5 -14.5625 L 14 -13.5 L 14.171875 -12.96875 L 14.71875 -11.984375 L 14.859375 -11.453125 L 15.140625 -10.984375 L 15.359375 -10.5 L 15.671875 -10 L 15.84375 -9.4375 L 16.09375 -9.03125 L 16.28125 -8.46875 L 16.53125 -7.984375 L 16.765625 -7.4375 L 17.0625 -6.984375 L 17.453125 -5.953125 L 17.734375 -5.46875 L 17.9375 -4.9375 L 18.40625 -3.9375 L 18.578125 -3.40625 L 18.859375 -2.984375 L 19.03125 -2.4375 L 19.390625 -1.953125 L 19.578125 -1.453125 L 19.75 -0.75 L 19.640625 -0.171875 L 19.140625 0 L 17.40625 0.0625 L 16.421875 -0.03125 L 15.921875 0.03125 L 15.203125 -0.25 L 14.71875 -0.703125 L 14.421875 -1.203125 L 14.28125 -1.703125 L 13.6875 -2.15625 L 12.765625 -2.453125 L 11.453125 -2.40625 L 10.875 -2.453125 L 10.359375 -2.453125 L 9.71875 -2.375 L 9.140625 -2.453125 L 7.578125 -2.4375 L 7.015625 -2.484375 L 6.34375 -2.203125 L 5.859375 -1.671875 L 5.390625 -0.71875 L 4.890625 -0.21875 L 4.25 0.0625 L 3.515625 -0.03125 L 1.0625 -0.03125 L 0.5 -0.171875 Z M 9 -6.90625 L 11.171875 -6.921875 L 11.65625 -7.15625 L 11.703125 -7.65625 L 11.515625 -8.15625 L 11.234375 -8.71875 L 11.125 -9.15625 L 10.8125 -9.640625 L 10.453125 -10.734375 L 10.109375 -10.953125 L 9.75 -10.671875 L 9.5 -10.21875 L 8.375 -7.6875 L 8.46875 -7.125 Z M 9 -6.90625 "/></g></g></g><g clip-path="url(#00076ec2d5)"><path fill="#000000" d="M 47.242188 81.585938 C 35.515625 81.585938 25.917969 91.179688 25.917969 102.910156 C 25.917969 114.636719 35.515625 124.234375 47.242188 124.234375 C 58.96875 124.234375 68.566406 114.636719 68.566406 102.910156 C 68.566406 91.179688 58.96875 81.585938 47.242188 81.585938 Z M 50.015625 112.71875 L 46.175781 112.71875 L 46.175781 97.578125 L 41.484375 99.070312 L 41.484375 95.871094 L 49.589844 92.886719 L 50.015625 92.886719 Z M 50.015625 112.71875 " fill-opacity="1" fill-rule="nonzero"/></g><g clip-path="url(#cb3a2adde6)"><path fill="#f2b844" d="M 102.160156 140.382812 L 102.160156 259.882812 C 102.160156 259.882812 103.542969 274.164062 147.332031 274.164062 C 191.117188 274.164062 192.5 259.882812 192.5 259.882812 L 192.5 140.382812 Z M 102.160156 140.382812 " fill-opacity="1" fill-rule="nonzero"/></g><g clip-path="url(#e7373c5f17)"><path stroke-linecap="butt" transform="matrix(1.38133, 0, 0, 1.386334, 101.056095, 78.829003)" fill="none" stroke-linejoin="miter" d="M 0.799274 44.400415 L 0.799274 130.598974 C 0.799274 130.598974 1.800347 140.900423 33.501003 140.900423 C 65.198831 140.900423 66.199905 130.598974 66.199905 130.598974 L 66.199905 44.400415 Z M 0.799274 44.400415 " stroke="#000000" stroke-width="1" stroke-opacity="1" stroke-miterlimit="10"/></g><path fill="#e5a330" d="M 107.546875 154.660156 L 109.34375 254.0625 C 109.34375 254.0625 109.34375 264.875 143.738281 265.566406 C 178.132812 266.261719 178.6875 260.4375 178.6875 260.4375 C 178.6875 260.4375 124.675781 258.496094 120.257812 249.210938 C 115.835938 240.058594 107.546875 154.660156 107.546875 154.660156 Z M 107.546875 154.660156 " fill-opacity="1" fill-rule="nonzero"/><path fill="#f2b844" d="M 192.363281 140.382812 C 192.363281 140.851562 192.289062 141.316406 192.144531 141.78125 C 192 142.246094 191.78125 142.710938 191.492188 143.167969 C 191.207031 143.625 190.847656 144.078125 190.417969 144.527344 C 189.988281 144.976562 189.488281 145.414062 188.921875 145.847656 C 188.359375 146.277344 187.726562 146.699219 187.027344 147.113281 C 186.332031 147.527344 185.570312 147.925781 184.75 148.316406 C 183.925781 148.703125 183.046875 149.078125 182.109375 149.441406 C 181.171875 149.800781 180.179688 150.148438 179.132812 150.480469 C 178.085938 150.808594 176.992188 151.125 175.847656 151.421875 C 174.703125 151.71875 173.515625 151.996094 172.289062 152.253906 C 171.058594 152.515625 169.789062 152.753906 168.484375 152.976562 C 167.179688 153.195312 165.84375 153.394531 164.476562 153.574219 C 163.113281 153.753906 161.71875 153.910156 160.304688 154.046875 C 158.890625 154.183594 157.457031 154.296875 156.003906 154.386719 C 154.554688 154.476562 153.09375 154.546875 151.621094 154.59375 C 150.148438 154.636719 148.671875 154.660156 147.191406 154.660156 C 145.714844 154.660156 144.238281 154.636719 142.765625 154.59375 C 141.292969 154.546875 139.832031 154.476562 138.378906 154.386719 C 136.929688 154.296875 135.496094 154.183594 134.082031 154.046875 C 132.664062 153.910156 131.273438 153.753906 129.90625 153.574219 C 128.539062 153.394531 127.203125 153.195312 125.898438 152.976562 C 124.59375 152.753906 123.328125 152.515625 122.097656 152.253906 C 120.867188 151.996094 119.679688 151.71875 118.539062 151.421875 C 117.394531 151.125 116.300781 150.808594 115.253906 150.480469 C 114.207031 150.148438 113.214844 149.800781 112.277344 149.441406 C 111.335938 149.078125 110.457031 148.703125 109.636719 148.316406 C 108.8125 147.925781 108.054688 147.527344 107.355469 147.113281 C 106.660156 146.699219 106.027344 146.277344 105.460938 145.847656 C 104.894531 145.414062 104.398438 144.976562 103.96875 144.527344 C 103.539062 144.078125 103.179688 143.625 102.890625 143.167969 C 102.601562 142.710938 102.386719 142.246094 102.242188 141.78125 C 102.09375 141.316406 102.023438 140.851562 102.023438 140.382812 C 102.023438 139.914062 102.09375 139.449219 102.242188 138.984375 C 102.386719 138.515625 102.601562 138.054688 102.890625 137.597656 C 103.179688 137.136719 103.539062 136.683594 103.96875 136.238281 C 104.398438 135.789062 104.894531 135.351562 105.460938 134.917969 C 106.027344 134.484375 106.660156 134.0625 107.355469 133.652344 C 108.054688 133.238281 108.8125 132.839844 109.636719 132.449219 C 110.457031 132.058594 111.335938 131.683594 112.277344 131.324219 C 113.214844 130.960938 114.207031 130.617188 115.253906 130.285156 C 116.300781 129.953125 117.394531 129.640625 118.539062 129.34375 C 119.679688 129.046875 120.867188 128.769531 122.097656 128.507812 C 123.328125 128.25 124.59375 128.007812 125.898438 127.789062 C 127.203125 127.570312 128.539062 127.367188 129.90625 127.191406 C 131.273438 127.011719 132.664062 126.855469 134.082031 126.71875 C 135.496094 126.582031 136.929688 126.46875 138.378906 126.378906 C 139.832031 126.285156 141.292969 126.21875 142.765625 126.171875 C 144.238281 126.125 145.714844 126.101562 147.191406 126.101562 C 148.671875 126.101562 150.148438 126.125 151.621094 126.171875 C 153.09375 126.21875 154.554688 126.285156 156.003906 126.378906 C 157.457031 126.46875 158.890625 126.582031 160.304688 126.71875 C 161.71875 126.855469 163.113281 127.011719 164.476562 127.191406 C 165.84375 127.367188 167.179688 127.570312 168.484375 127.789062 C 169.789062 128.007812 171.058594 128.25 172.289062 128.507812 C 173.515625 128.769531 174.703125 129.046875 175.847656 129.34375 C 176.992188 129.640625 178.085938 129.953125 179.132812 130.285156 C 180.179688 130.617188 181.171875 130.960938 182.109375 131.324219 C 183.046875 131.683594 183.925781 132.058594 184.75 132.449219 C 185.570312 132.839844 186.332031 133.238281 187.027344 133.652344 C 187.726562 134.0625 188.359375 134.484375 188.921875 134.917969 C 189.488281 135.351562 189.988281 135.789062 190.417969 136.238281 C 190.847656 136.683594 191.207031 137.136719 191.492188 137.597656 C 191.78125 138.054688 192 138.515625 192.144531 138.984375 C 192.289062 139.449219 192.363281 139.914062 192.363281 140.382812 Z M 192.363281 140.382812 " fill-opacity="1" fill-rule="nonzero"/><g clip-path="url(#970d42bd14)"><path stroke-linecap="butt" transform="matrix(1.38133, 0, 0, 1.386334, 101.056095, 78.829003)" fill="none" stroke-linejoin="miter" d="M 66.100928 44.400415 C 66.100928 44.738537 66.047198 45.073842 65.942566 45.409146 C 65.837934 45.74445 65.679573 46.079754 65.470309 46.409423 C 65.263873 46.739092 65.003707 47.065943 64.692639 47.389977 C 64.381571 47.714011 64.019601 48.029591 63.609557 48.342354 C 63.20234 48.652299 62.744222 48.956609 62.23803 49.255283 C 61.734665 49.553958 61.183226 49.841361 60.589369 50.12313 C 59.992684 50.40208 59.356409 50.672578 58.677715 50.934622 C 57.999021 51.193849 57.280737 51.444623 56.522862 51.684126 C 55.764987 51.920811 54.973178 52.149044 54.144606 52.363187 C 53.316034 52.577331 52.456355 52.777387 51.568398 52.963354 C 50.677612 53.152139 49.758547 53.324017 48.814032 53.484625 C 47.869516 53.642416 46.902378 53.786117 45.912616 53.915731 C 44.925682 54.045344 43.916125 54.158052 42.892429 54.25667 C 41.868732 54.355289 40.830896 54.437002 39.778921 54.501809 C 38.729773 54.566616 37.672142 54.617334 36.606027 54.651146 C 35.539913 54.682141 34.47097 54.699047 33.399199 54.699047 C 32.330256 54.699047 31.261314 54.682141 30.195199 54.651146 C 29.129084 54.617334 28.071453 54.566616 27.019478 54.501809 C 25.97033 54.437002 24.932494 54.355289 23.908798 54.25667 C 22.882273 54.158052 21.875544 54.045344 20.885782 53.915731 C 19.896021 53.786117 18.928882 53.642416 17.984366 53.484625 C 17.039851 53.324017 16.123614 53.152139 15.232829 52.963354 C 14.342043 52.777387 13.482364 52.577331 12.65662 52.363187 C 11.828048 52.149044 11.036239 51.920811 10.278364 51.684126 C 9.520489 51.444623 8.802205 51.193849 8.123511 50.934622 C 7.44199 50.672578 6.805714 50.40208 6.211857 50.12313 C 5.615172 49.841361 5.066561 49.553958 4.560369 49.255283 C 4.057004 48.956609 3.598886 48.652299 3.188842 48.342354 C 2.778798 48.029591 2.419655 47.714011 2.108588 47.389977 C 1.79752 47.065943 1.537354 46.739092 1.32809 46.409423 C 1.118826 46.079754 0.963292 45.74445 0.85866 45.409146 C 0.7512 45.073842 0.700298 44.738537 0.700298 44.400415 C 0.700298 44.062293 0.7512 43.726989 0.85866 43.391685 C 0.963292 43.053563 1.118826 42.721076 1.32809 42.391407 C 1.537354 42.058921 1.79752 41.73207 2.108588 41.410854 C 2.419655 41.08682 2.778798 40.77124 3.188842 40.458477 C 3.598886 40.145714 4.057004 39.841404 4.560369 39.545548 C 5.066561 39.246873 5.615172 38.959469 6.211857 38.677701 C 6.805714 38.395933 7.44199 38.125435 8.123511 37.866208 C 8.802205 37.604164 9.520489 37.356208 10.278364 37.116705 C 11.036239 36.877202 11.828048 36.651787 12.65662 36.437643 C 13.482364 36.223499 14.342043 36.023444 15.232829 35.834659 C 16.123614 35.648692 17.039851 35.473996 17.984366 35.316205 C 18.928882 35.158415 19.896021 35.011896 20.885782 34.8851 C 21.875544 34.755486 22.882273 34.642779 23.908798 34.54416 C 24.932494 34.445541 25.97033 34.363828 27.019478 34.299022 C 28.071453 34.231397 29.129084 34.183497 30.195199 34.149685 C 31.261314 34.115872 32.330256 34.098966 33.399199 34.098966 C 34.47097 34.098966 35.539913 34.115872 36.606027 34.149685 C 37.672142 34.183497 38.729773 34.231397 39.778921 34.299022 C 40.830896 34.363828 41.868732 34.445541 42.892429 34.54416 C 43.916125 34.642779 44.925682 34.755486 45.912616 34.8851 C 46.902378 35.011896 47.869516 35.158415 48.814032 35.316205 C 49.758547 35.473996 50.677612 35.648692 51.568398 35.834659 C 52.456355 36.023444 53.316034 36.223499 54.144606 36.437643 C 54.973178 36.651787 55.764987 36.877202 56.522862 37.116705 C 57.280737 37.356208 57.999021 37.604164 58.677715 37.866208 C 59.356409 38.125435 59.992684 38.395933 60.589369 38.677701 C 61.183226 38.959469 61.734665 39.246873 62.23803 39.545548 C 62.744222 39.841404 63.20234 40.145714 63.609557 40.458477 C 64.019601 40.77124 64.381571 41.08682 64.692639 41.410854 C 65.003707 41.73207 65.263873 42.058921 65.470309 42.391407 C 65.679573 42.721076 65.837934 43.053563 65.942566 43.391685 C 66.047198 43.726989 66.100928 44.062293 66.100928 44.400415 Z M 66.100928 44.400415 " stroke="#000000" stroke-width="1" stroke-opacity="1" stroke-miterlimit="10"/></g><path fill="#f2b844" d="M 115.835938 119.449219 L 115.835938 134.144531 C 115.835938 134.144531 122.328125 139.273438 147.332031 139.273438 C 172.332031 139.273438 178.824219 133.589844 178.824219 133.589844 L 178.824219 119.449219 Z M 115.835938 119.449219 " fill-opacity="1" fill-rule="nonzero"/><g clip-path="url(#79c44dca94)"><path stroke-linecap="butt" transform="matrix(1.38133, 0, 0, 1.386334, 101.056095, 78.829003)" fill="none" stroke-linejoin="miter" d="M 10.69972 29.300452 L 10.69972 39.900576 C 10.69972 39.900576 15.399674 43.600193 33.501003 43.600193 C 51.599504 43.600193 56.299459 39.500465 56.299459 39.500465 L 56.299459 29.300452 Z M 10.69972 29.300452 " stroke="#000000" stroke-width="1" stroke-opacity="1" stroke-miterlimit="10"/></g><path fill="#f2b844" d="M 178.6875 119.449219 C 178.6875 119.75 178.636719 120.046875 178.535156 120.34375 C 178.433594 120.644531 178.28125 120.941406 178.082031 121.234375 C 177.878906 121.527344 177.628906 121.816406 177.332031 122.105469 C 177.03125 122.390625 176.683594 122.671875 176.289062 122.949219 C 175.894531 123.226562 175.453125 123.496094 174.96875 123.761719 C 174.480469 124.027344 173.953125 124.28125 173.378906 124.53125 C 172.804688 124.78125 172.191406 125.023438 171.539062 125.253906 C 170.882812 125.484375 170.191406 125.707031 169.460938 125.917969 C 168.734375 126.128906 167.96875 126.332031 167.171875 126.519531 C 166.375 126.710938 165.546875 126.890625 164.691406 127.054688 C 163.832031 127.222656 162.949219 127.375 162.039062 127.519531 C 161.128906 127.660156 160.199219 127.789062 159.246094 127.902344 C 158.292969 128.015625 157.320312 128.117188 156.335938 128.203125 C 155.347656 128.292969 154.347656 128.363281 153.335938 128.421875 C 152.324219 128.480469 151.304688 128.523438 150.28125 128.554688 C 149.253906 128.582031 148.222656 128.597656 147.191406 128.597656 C 146.160156 128.597656 145.132812 128.582031 144.105469 128.554688 C 143.078125 128.523438 142.058594 128.480469 141.046875 128.421875 C 140.035156 128.363281 139.039062 128.292969 138.050781 128.203125 C 137.0625 128.117188 136.09375 128.015625 135.140625 127.902344 C 134.1875 127.789062 133.257812 127.660156 132.347656 127.519531 C 131.4375 127.375 130.554688 127.222656 129.695312 127.054688 C 128.835938 126.890625 128.011719 126.710938 127.210938 126.519531 C 126.414062 126.332031 125.652344 126.128906 124.921875 125.917969 C 124.191406 125.707031 123.5 125.484375 122.847656 125.253906 C 122.191406 125.023438 121.578125 124.78125 121.007812 124.53125 C 120.433594 124.28125 119.902344 124.027344 119.417969 123.761719 C 118.929688 123.496094 118.492188 123.226562 118.09375 122.949219 C 117.699219 122.671875 117.355469 122.390625 117.054688 122.105469 C 116.753906 121.816406 116.503906 121.527344 116.304688 121.234375 C 116.101562 120.941406 115.949219 120.644531 115.851562 120.34375 C 115.75 120.046875 115.699219 119.75 115.699219 119.449219 C 115.699219 119.148438 115.75 118.851562 115.851562 118.550781 C 115.949219 118.253906 116.101562 117.957031 116.304688 117.664062 C 116.503906 117.371094 116.753906 117.078125 117.054688 116.792969 C 117.355469 116.503906 117.699219 116.222656 118.09375 115.945312 C 118.492188 115.671875 118.929688 115.398438 119.417969 115.136719 C 119.902344 114.871094 120.433594 114.613281 121.007812 114.363281 C 121.578125 114.117188 122.191406 113.875 122.847656 113.644531 C 123.5 113.414062 124.191406 113.191406 124.921875 112.980469 C 125.652344 112.765625 126.414062 112.566406 127.210938 112.375 C 128.011719 112.1875 128.835938 112.007812 129.695312 111.839844 C 130.554688 111.675781 131.4375 111.519531 132.347656 111.378906 C 133.257812 111.238281 134.1875 111.109375 135.140625 110.996094 C 136.09375 110.878906 137.0625 110.78125 138.050781 110.691406 C 139.039062 110.605469 140.035156 110.53125 141.046875 110.472656 C 142.058594 110.417969 143.078125 110.371094 144.105469 110.34375 C 145.132812 110.3125 146.160156 110.296875 147.191406 110.296875 C 148.222656 110.296875 149.253906 110.3125 150.28125 110.34375 C 151.304688 110.371094 152.324219 110.417969 153.335938 110.472656 C 154.347656 110.53125 155.347656 110.605469 156.335938 110.691406 C 157.320312 110.78125 158.292969 110.878906 159.246094 110.996094 C 160.199219 111.109375 161.128906 111.238281 162.039062 111.378906 C 162.949219 111.519531 163.832031 111.675781 164.691406 111.839844 C 165.546875 112.007812 166.375 112.1875 167.171875 112.375 C 167.96875 112.566406 168.734375 112.765625 169.460938 112.980469 C 170.191406 113.191406 170.882812 113.414062 171.539062 113.644531 C 172.191406 113.875 172.804688 114.117188 173.378906 114.363281 C 173.953125 114.613281 174.480469 114.871094 174.96875 115.136719 C 175.453125 115.398438 175.894531 115.671875 176.289062 115.945312 C 176.683594 116.222656 177.03125 116.503906 177.332031 116.792969 C 177.628906 117.078125 177.878906 117.371094 178.082031 117.664062 C 178.28125 117.957031 178.433594 118.253906 178.535156 118.550781 C 178.636719 118.851562 178.6875 119.148438 178.6875 119.449219 Z M 178.6875 119.449219 " fill-opacity="1" fill-rule="nonzero"/><g clip-path="url(#863fa422fd)"><path stroke-linecap="butt" transform="matrix(1.38133, 0, 0, 1.386334, 101.056095, 78.829003)" fill="none" stroke-linejoin="miter" d="M 56.200483 29.300452 C 56.200483 29.517414 56.16372 29.731558 56.090195 29.945702 C 56.01667 30.162663 55.906382 30.376807 55.76216 30.588133 C 55.615109 30.799459 55.434124 31.007968 55.219205 31.216477 C 55.001457 31.422167 54.749775 31.625041 54.464158 31.825096 C 54.178541 32.025152 53.858989 32.219572 53.508331 32.411174 C 53.154844 32.602777 52.773079 32.785926 52.357379 32.966258 C 51.941679 33.146589 51.4977 33.321286 51.025443 33.487529 C 50.550357 33.653772 50.04982 33.81438 49.521005 33.966535 C 48.995017 34.11869 48.44075 34.26521 47.863861 34.400458 C 47.286971 34.538525 46.687458 34.668138 46.06815 34.786481 C 45.446014 34.907641 44.806911 35.017531 44.148012 35.121785 C 43.489114 35.223222 42.816076 35.316205 42.12607 35.397918 C 41.436065 35.479631 40.73192 35.552891 40.019292 35.61488 C 39.303835 35.679686 38.579895 35.730405 37.847471 35.77267 C 37.115048 35.814935 36.376968 35.84593 35.636061 35.868471 C 34.892326 35.888195 34.145762 35.899466 33.399199 35.899466 C 32.652636 35.899466 31.908901 35.888195 31.165165 35.868471 C 30.42143 35.84593 29.683351 35.814935 28.950927 35.77267 C 28.218503 35.730405 27.497391 35.679686 26.781935 35.61488 C 26.066478 35.552891 25.365161 35.479631 24.675156 35.397918 C 23.985151 35.316205 23.312113 35.223222 22.653214 35.121785 C 21.994316 35.017531 21.355212 34.907641 20.733076 34.786481 C 20.11094 34.668138 19.514255 34.538525 18.934538 34.400458 C 18.357648 34.26521 17.806209 34.11869 17.277394 33.966535 C 16.748578 33.81438 16.248041 33.653772 15.775784 33.487529 C 15.300698 33.321286 14.856719 33.146589 14.443847 32.966258 C 14.028147 32.785926 13.643554 32.602777 13.292896 32.411174 C 12.939409 32.219572 12.622685 32.025152 12.334241 31.825096 C 12.048624 31.625041 11.799769 31.422167 11.582022 31.216477 C 11.364274 31.007968 11.183289 30.799459 11.039067 30.588133 C 10.892016 30.376807 10.781729 30.162663 10.711031 29.945702 C 10.637506 29.731558 10.600744 29.517414 10.600744 29.300452 C 10.600744 29.083491 10.637506 28.869347 10.711031 28.652385 C 10.781729 28.438241 10.892016 28.224097 11.039067 28.012771 C 11.183289 27.801445 11.364274 27.590119 11.582022 27.384428 C 11.799769 27.175919 12.048624 26.973046 12.334241 26.77299 C 12.622685 26.575753 12.939409 26.378515 13.292896 26.18973 C 13.643554 25.998128 14.028147 25.812161 14.443847 25.631829 C 14.856719 25.454315 15.300698 25.279618 15.775784 25.113375 C 16.248041 24.947132 16.748578 24.786524 17.277394 24.634369 C 17.806209 24.479397 18.357648 24.335695 18.934538 24.197628 C 19.514255 24.062379 20.11094 23.932766 20.733076 23.811606 C 21.355212 23.693263 21.994316 23.580556 22.653214 23.479119 C 23.312113 23.377682 23.985151 23.284699 24.675156 23.202986 C 25.365161 23.118456 26.066478 23.048014 26.781935 22.983207 C 27.497391 22.921218 28.218503 22.867682 28.950927 22.825417 C 29.683351 22.785969 30.42143 22.752157 31.165165 22.732433 C 31.908901 22.709892 32.652636 22.698621 33.399199 22.698621 C 34.145762 22.698621 34.892326 22.709892 35.636061 22.732433 C 36.376968 22.752157 37.115048 22.785969 37.847471 22.825417 C 38.579895 22.867682 39.303835 22.921218 40.019292 22.983207 C 40.73192 23.048014 41.436065 23.118456 42.12607 23.202986 C 42.816076 23.284699 43.489114 23.377682 44.148012 23.479119 C 44.806911 23.580556 45.446014 23.693263 46.06815 23.811606 C 46.687458 23.932766 47.286971 24.062379 47.863861 24.197628 C 48.44075 24.335695 48.995017 24.479397 49.521005 24.634369 C 50.04982 24.786524 50.550357 24.947132 51.025443 25.113375 C 51.4977 25.279618 51.941679 25.454315 52.357379 25.631829 C 52.773079 25.812161 53.154844 25.998128 53.508331 26.18973 C 53.858989 26.378515 54.178541 26.575753 54.464158 26.77299 C 54.749775 26.973046 55.001457 27.175919 55.219205 27.384428 C 55.434124 27.590119 55.615109 27.801445 55.76216 28.012771 C 55.906382 28.224097 56.01667 28.438241 56.090195 28.652385 C 56.16372 28.869347 56.200483 29.083491 56.200483 29.300452 Z M 56.200483 29.300452 " stroke="#000000" stroke-width="1" stroke-opacity="1" stroke-miterlimit="10"/></g><path fill="#f2b844" d="M 144.707031 82.15625 C 144.707031 82.15625 145.121094 79.523438 147.054688 79.523438 C 148.988281 79.523438 149.679688 82.15625 149.679688 82.15625 L 154.929688 114.875 L 138.90625 114.875 Z M 144.707031 82.15625 " fill-opacity="1" fill-rule="nonzero"/><g clip-path="url(#64256027a9)"><path stroke-linecap="butt" transform="matrix(1.38133, 0, 0, 1.386334, 101.056095, 78.829003)" fill="none" stroke-linejoin="miter" d="M 31.600661 2.400033 C 31.600661 2.400033 31.900417 0.500914 33.300223 0.500914 C 34.700029 0.500914 35.200566 2.400033 35.200566 2.400033 L 39.001251 26.000945 L 27.401243 26.000945 Z M 31.600661 2.400033 " stroke="#000000" stroke-width="1" stroke-opacity="1" stroke-miterlimit="10"/></g><path stroke-linecap="butt" transform="matrix(1.38133, 0, 0, 1.386334, 101.056095, 78.829003)" fill-opacity="1" fill="#f2b844" fill-rule="nonzero" stroke-linejoin="miter" d="M 38.59969 23.800335 C 41.00057 24.299065 42.499352 25.099287 42.499352 26.000945 C 42.499352 27.499953 38.39891 28.598849 33.399199 28.598849 C 28.399488 28.598849 24.299047 27.401334 24.299047 26.000945 C 24.299047 25.200723 25.698853 24.400501 27.700999 23.898954 C 27.700999 23.898954 29.100805 25.600834 33.099443 25.600834 C 37.100908 25.600834 38.59969 23.800335 38.59969 23.800335 Z M 38.59969 23.800335 " stroke="#000000" stroke-width="1" stroke-opacity="1" stroke-miterlimit="10"/><path fill="#ffffff" d="M 102.160156 232.433594 C 102.160156 232.433594 108.515625 245.742188 146.917969 245.742188 C 185.316406 245.742188 192.5 232.433594 192.5 232.433594 L 192.5 196.667969 C 192.5 196.667969 174.820312 207.203125 146.917969 207.203125 C 119.011719 207.203125 102.160156 196.667969 102.160156 196.667969 Z M 102.160156 232.433594 " fill-opacity="1" fill-rule="nonzero"/><g clip-path="url(#57a86f2d9f)"><path stroke-linecap="butt" transform="matrix(1.38133, 0, 0, 1.386334, 101.056095, 78.829003)" fill="none" stroke-linejoin="miter" d="M 0.799274 110.799115 C 0.799274 110.799115 5.400252 120.398961 33.201247 120.398961 C 60.999413 120.398961 66.199905 110.799115 66.199905 110.799115 L 66.199905 85.00041 C 66.199905 85.00041 53.400871 92.599701 33.201247 92.599701 C 12.998795 92.599701 0.799274 85.00041 0.799274 85.00041 Z M 0.799274 110.799115 " stroke="#000000" stroke-width="1" stroke-opacity="1" stroke-miterlimit="10"/></g><path fill="#000000" d="M 121.363281 230.632812 C 121.222656 230.632812 121.085938 230.492188 120.945312 230.355469 C 120.808594 230.355469 120.671875 230.214844 120.53125 230.214844 C 120.394531 230.214844 120.257812 230.078125 120.257812 230.078125 C 119.980469 229.9375 119.566406 229.800781 119.289062 229.800781 C 119.011719 229.664062 118.597656 229.664062 118.324219 229.523438 C 118.460938 228.96875 118.460938 228.414062 118.597656 227.859375 C 118.738281 227.304688 118.738281 226.75 118.875 226.195312 C 119.011719 225.226562 119.152344 224.253906 119.289062 223.144531 C 119.429688 222.175781 119.566406 221.207031 119.566406 220.234375 C 118.046875 223.699219 117.21875 225.363281 115.699219 228.691406 C 115.558594 226.890625 115.421875 225.085938 115.144531 223.285156 C 115.007812 221.484375 114.730469 219.679688 114.59375 217.878906 C 114.039062 221.761719 113.765625 223.839844 113.210938 227.722656 C 113.074219 227.722656 113.074219 227.582031 112.933594 227.582031 C 112.796875 227.582031 112.796875 227.445312 112.660156 227.445312 C 112.382812 227.304688 111.96875 227.167969 111.691406 227.027344 C 111.417969 226.890625 111.140625 226.75 110.726562 226.75 C 111 225.503906 111.277344 224.394531 111.417969 223.144531 C 111.691406 221.898438 111.832031 220.789062 112.105469 219.542969 C 112.382812 218.15625 112.519531 216.628906 112.796875 215.246094 C 113.074219 213.859375 113.210938 212.332031 113.488281 210.945312 C 114.039062 211.222656 114.59375 211.5 115.144531 211.640625 C 115.699219 211.777344 116.25 212.054688 116.804688 212.195312 C 116.804688 213.304688 116.804688 214.414062 116.941406 215.523438 C 116.941406 216.628906 117.078125 217.738281 117.078125 218.847656 C 117.492188 218.015625 117.910156 217.183594 118.324219 216.351562 C 118.738281 215.523438 119.152344 214.691406 119.703125 213.859375 C 120.257812 213.996094 120.808594 214.273438 121.222656 214.414062 C 121.777344 214.550781 122.328125 214.691406 122.742188 214.96875 C 122.605469 216.214844 122.464844 217.324219 122.464844 218.570312 C 122.328125 219.820312 122.191406 220.929688 122.191406 222.175781 C 122.050781 223.144531 122.050781 224.117188 121.914062 225.085938 C 121.777344 226.058594 121.777344 227.027344 121.636719 228 C 121.5 228.691406 121.5 228.96875 121.5 229.664062 C 121.5 230.078125 121.5 230.355469 121.363281 230.632812 Z M 121.363281 230.632812 " fill-opacity="1" fill-rule="nonzero"/><path fill="#000000" d="M 133.101562 226.613281 C 133.101562 227.445312 132.964844 228.136719 132.964844 228.96875 C 132.828125 229.664062 132.964844 230.769531 132.6875 231.1875 C 132.6875 231.324219 132.414062 231.464844 132.273438 231.601562 C 132.136719 231.742188 131.996094 231.878906 131.859375 232.019531 C 131.722656 232.15625 131.582031 232.296875 131.445312 232.296875 C 131.308594 232.433594 131.167969 232.574219 131.03125 232.710938 C 130.894531 232.851562 130.753906 232.988281 130.476562 232.988281 C 130.339844 233.128906 130.203125 233.128906 130.0625 233.128906 C 129.925781 233.128906 129.789062 233.128906 129.511719 233.128906 C 129.234375 233.128906 129.097656 232.988281 128.957031 232.988281 C 128.683594 232.988281 128.269531 232.851562 127.855469 232.851562 C 127.441406 232.710938 127.164062 232.710938 126.75 232.574219 C 126.609375 232.574219 126.335938 232.433594 126.195312 232.433594 C 125.921875 232.433594 125.78125 232.296875 125.644531 232.15625 C 125.644531 232.15625 125.503906 232.019531 125.367188 231.878906 C 125.230469 231.742188 125.089844 231.601562 124.953125 231.324219 C 124.816406 231.046875 124.675781 230.910156 124.539062 230.632812 C 124.402344 230.355469 124.261719 230.214844 124.125 229.9375 C 123.984375 229.664062 123.847656 229.523438 123.847656 229.386719 C 123.710938 229.246094 123.710938 229.109375 123.710938 228.96875 C 123.710938 228.277344 123.847656 227.582031 123.847656 226.75 C 123.847656 226.058594 123.984375 225.363281 123.984375 224.671875 C 124.125 223.285156 124.261719 221.898438 124.539062 220.652344 C 124.675781 219.265625 124.953125 218.015625 125.230469 216.628906 C 126.195312 216.90625 126.75 217.046875 127.714844 217.183594 C 127.578125 218.015625 127.441406 218.988281 127.300781 219.820312 C 127.164062 220.789062 127.023438 221.761719 127.023438 222.59375 C 127.023438 222.730469 127.023438 223.007812 127.023438 223.421875 C 127.023438 223.839844 127.023438 224.253906 127.023438 224.671875 C 127.023438 225.085938 127.023438 225.503906 127.023438 225.78125 C 127.023438 226.195312 127.023438 226.335938 127.164062 226.472656 C 127.164062 226.472656 127.300781 226.613281 127.300781 226.613281 C 127.441406 226.613281 127.578125 226.75 127.714844 226.75 C 127.855469 226.75 127.992188 226.890625 128.128906 226.890625 C 128.269531 226.890625 128.40625 227.027344 128.542969 227.027344 C 128.683594 227.027344 128.820312 227.167969 128.957031 227.167969 C 129.097656 227.167969 129.097656 227.167969 129.234375 227.304688 C 129.234375 227.304688 129.375 227.304688 129.511719 227.304688 C 129.648438 227.304688 129.648438 227.304688 129.789062 227.304688 C 129.925781 227.304688 129.925781 227.304688 130.0625 227.304688 C 130.203125 227.304688 130.203125 227.304688 130.203125 227.304688 C 130.339844 227.167969 130.339844 227.027344 130.476562 226.613281 C 130.617188 226.195312 130.617188 225.78125 130.753906 225.226562 C 130.753906 224.671875 130.894531 224.253906 130.894531 223.839844 C 130.894531 223.421875 130.894531 223.007812 131.03125 222.867188 C 131.03125 222.59375 131.03125 222.316406 131.167969 221.898438 C 131.308594 221.484375 131.167969 221.34375 131.308594 220.929688 C 131.308594 220.234375 131.445312 219.679688 131.445312 218.988281 C 131.445312 218.433594 131.582031 217.738281 131.582031 217.046875 C 131.722656 217.046875 131.859375 217.183594 132.136719 217.183594 C 132.273438 217.183594 132.414062 217.324219 132.6875 217.324219 C 132.828125 217.324219 133.101562 217.460938 133.242188 217.460938 C 133.378906 217.460938 133.65625 217.460938 133.792969 217.460938 C 133.792969 218.988281 133.933594 220.375 133.933594 221.898438 C 133.242188 223.5625 133.242188 225.085938 133.101562 226.613281 Z M 133.101562 226.613281 " fill-opacity="1" fill-rule="nonzero"/><path fill="#000000" d="M 144.152344 231.046875 C 144.152344 231.742188 144.015625 232.296875 143.878906 232.574219 C 143.738281 232.988281 143.464844 233.265625 143.046875 233.542969 C 142.773438 233.683594 142.359375 233.820312 141.945312 233.960938 C 141.527344 234.097656 140.976562 234.097656 140.5625 234.097656 C 140.007812 234.097656 139.59375 234.097656 139.179688 234.097656 C 138.765625 234.097656 138.351562 233.960938 138.074219 233.960938 C 137.523438 233.960938 136.96875 233.820312 136.554688 233.683594 C 136.003906 233.542969 135.453125 233.40625 135.035156 233.265625 C 135.175781 231.878906 135.175781 230.492188 135.175781 229.109375 C 135.726562 229.246094 136.417969 229.386719 136.96875 229.523438 C 137.523438 229.664062 138.214844 229.664062 138.765625 229.800781 C 139.042969 229.800781 139.179688 229.9375 139.457031 229.9375 C 139.734375 229.9375 140.007812 229.9375 140.148438 230.078125 C 140.148438 230.078125 140.285156 230.078125 140.285156 230.078125 C 140.425781 230.078125 140.425781 230.078125 140.5625 230.078125 C 140.699219 230.078125 140.699219 230.078125 140.839844 230.078125 C 140.976562 230.078125 140.976562 230.078125 140.976562 229.9375 C 140.976562 229.9375 140.976562 229.800781 140.976562 229.664062 C 140.976562 229.523438 140.976562 229.523438 140.976562 229.386719 C 140.976562 229.246094 140.976562 229.109375 140.976562 228.832031 C 140.976562 228.554688 140.976562 228.414062 140.839844 228.277344 C 140.839844 228.277344 140.839844 228.277344 140.699219 228.277344 C 140.699219 228.277344 140.5625 228.277344 140.5625 228.277344 C 140.5625 228.277344 140.425781 228.277344 140.425781 228.277344 C 140.425781 228.277344 140.285156 228.277344 140.285156 228.277344 C 139.734375 228.136719 139.179688 228 138.765625 228 C 138.214844 227.859375 137.660156 227.859375 137.246094 227.722656 C 136.96875 227.722656 136.832031 227.582031 136.554688 227.445312 C 136.28125 227.304688 136.140625 227.304688 135.867188 227.167969 C 135.726562 227.027344 135.453125 226.75 135.3125 226.472656 C 135.175781 226.058594 135.035156 225.78125 135.035156 225.226562 C 135.035156 224.808594 134.898438 224.394531 134.898438 223.839844 C 134.898438 223.421875 134.898438 223.007812 134.898438 222.730469 C 134.898438 222.175781 135.035156 221.761719 135.035156 221.34375 C 135.175781 220.929688 135.175781 220.511719 135.3125 220.097656 C 135.453125 219.679688 135.589844 219.402344 135.867188 219.125 C 136.003906 218.847656 136.28125 218.710938 136.554688 218.570312 C 137.109375 218.292969 137.523438 218.15625 138.074219 218.15625 C 138.628906 218.15625 139.179688 218.15625 139.59375 218.15625 C 140.148438 218.15625 140.699219 218.292969 141.253906 218.433594 C 141.804688 218.570312 142.359375 218.847656 142.910156 218.988281 C 142.910156 219.402344 142.910156 219.820312 142.910156 220.097656 C 142.910156 220.511719 142.910156 220.929688 142.910156 221.207031 C 142.910156 221.621094 142.910156 222.039062 142.910156 222.453125 C 142.910156 222.867188 142.910156 223.285156 142.910156 223.699219 C 142.082031 223.699219 141.390625 223.699219 140.5625 223.5625 C 139.734375 223.5625 139.042969 223.421875 138.214844 223.421875 C 138.074219 223.421875 137.9375 223.421875 137.800781 223.421875 C 137.660156 223.421875 137.523438 223.421875 137.386719 223.421875 C 137.246094 223.421875 136.832031 223.421875 136.832031 223.421875 C 136.832031 223.421875 136.695312 223.699219 136.695312 223.839844 C 136.695312 223.976562 136.695312 224.117188 136.695312 224.253906 C 136.695312 224.394531 136.695312 224.394531 136.695312 224.53125 C 136.695312 224.671875 136.695312 224.808594 136.695312 224.808594 C 136.695312 224.808594 136.832031 224.808594 136.832031 224.949219 C 136.96875 224.949219 137.109375 225.085938 137.246094 225.085938 C 137.386719 225.085938 137.523438 225.226562 137.660156 225.226562 C 137.800781 225.226562 137.9375 225.226562 137.9375 225.363281 C 138.214844 225.503906 138.488281 225.503906 138.90625 225.640625 C 139.320312 225.78125 139.59375 225.78125 140.007812 225.917969 C 140.425781 226.058594 140.699219 226.195312 141.113281 226.195312 C 141.527344 226.335938 141.804688 226.472656 142.082031 226.613281 C 142.359375 226.75 142.496094 227.027344 142.773438 227.304688 C 142.910156 227.582031 143.1875 228 143.324219 228.414062 C 143.464844 228.832031 143.601562 229.246094 143.601562 229.664062 C 144.152344 230.214844 144.152344 230.632812 144.152344 231.046875 Z M 144.152344 231.046875 " fill-opacity="1" fill-rule="nonzero"/><path fill="#000000" d="M 152.304688 222.453125 C 152.304688 223.007812 152.304688 223.285156 152.304688 223.839844 C 151.335938 223.976562 150.921875 224.117188 149.957031 224.253906 C 149.957031 225.085938 149.957031 225.78125 149.957031 226.613281 C 149.957031 227.445312 149.957031 228.136719 149.957031 228.96875 C 149.957031 229.9375 149.957031 230.910156 149.957031 231.878906 C 149.957031 232.851562 149.957031 233.820312 149.957031 234.652344 C 149.679688 234.652344 149.402344 234.792969 148.988281 234.792969 C 148.710938 234.792969 148.4375 234.792969 148.019531 234.792969 C 147.882812 234.792969 147.746094 234.792969 147.746094 234.792969 C 147.605469 234.792969 147.46875 234.792969 147.46875 234.792969 C 147.46875 233.960938 147.46875 233.128906 147.46875 232.296875 C 147.46875 231.464844 147.46875 230.632812 147.46875 229.800781 C 147.46875 228.96875 147.46875 228.136719 147.46875 227.304688 C 147.46875 226.472656 147.46875 225.640625 147.332031 224.808594 C 147.054688 224.808594 146.917969 224.808594 146.640625 224.808594 C 146.363281 224.808594 146.226562 224.808594 145.949219 224.808594 C 145.8125 224.808594 145.671875 224.808594 145.535156 224.808594 C 145.398438 224.808594 145.257812 224.808594 145.121094 224.808594 C 145.121094 223.839844 145.121094 222.730469 145.121094 221.761719 C 145.121094 220.789062 145.121094 219.820312 145.121094 218.710938 C 146.363281 218.710938 147.46875 218.847656 148.574219 218.847656 C 149.679688 218.847656 150.921875 218.847656 152.027344 218.847656 C 152.027344 219.402344 152.164062 219.957031 152.164062 220.511719 C 152.304688 221.34375 152.304688 221.898438 152.304688 222.453125 Z M 152.304688 222.453125 " fill-opacity="1" fill-rule="nonzero"/><path fill="#000000" d="M 161.972656 232.988281 C 161.28125 233.265625 160.867188 233.542969 160.039062 233.820312 C 159.902344 233.128906 159.625 232.433594 159.488281 231.878906 C 159.347656 231.1875 159.210938 230.492188 158.933594 229.9375 C 157.691406 230.214844 157.136719 230.355469 155.894531 230.632812 C 155.757812 231.742188 155.757812 232.296875 155.617188 233.40625 C 154.789062 233.542969 154.511719 233.542969 153.683594 233.683594 C 153.683594 231.324219 153.824219 229.109375 153.824219 226.75 C 153.824219 224.394531 153.960938 222.175781 153.960938 219.820312 C 154.511719 219.542969 155.066406 219.402344 155.617188 219.265625 C 156.171875 219.125 156.722656 218.988281 157.277344 218.847656 C 157.96875 218.710938 158.65625 218.710938 159.347656 218.570312 C 159.625 219.957031 159.761719 221.34375 160.039062 222.730469 C 160.316406 224.117188 160.453125 225.503906 160.730469 226.890625 C 160.867188 228 161.144531 229.109375 161.28125 230.078125 C 161.558594 230.910156 161.835938 231.878906 161.972656 232.988281 Z M 158.519531 227.167969 C 158.519531 227.027344 158.519531 226.890625 158.382812 226.472656 C 158.382812 226.195312 158.242188 225.78125 158.242188 225.363281 C 158.242188 224.949219 158.105469 224.671875 158.105469 224.394531 C 157.96875 224.117188 157.96875 223.976562 157.96875 223.839844 C 157.96875 223.839844 157.96875 223.839844 157.828125 223.839844 C 157.828125 223.839844 157.691406 223.839844 157.691406 223.839844 C 157.691406 223.839844 157.550781 223.839844 157.550781 223.839844 C 157.550781 223.839844 157.414062 223.839844 157.414062 223.839844 C 157.414062 223.839844 157.277344 223.839844 157.277344 223.839844 C 157.277344 223.839844 157.136719 223.839844 157 223.839844 C 156.863281 223.839844 156.863281 223.839844 156.722656 223.976562 C 156.722656 223.976562 156.585938 224.117188 156.585938 224.117188 C 156.585938 224.117188 156.585938 224.253906 156.585938 224.394531 C 156.585938 224.53125 156.585938 224.808594 156.585938 224.949219 C 156.585938 225.226562 156.585938 225.503906 156.449219 225.78125 C 156.449219 226.058594 156.449219 226.335938 156.449219 226.613281 C 156.449219 226.890625 156.449219 227.027344 156.449219 227.304688 C 156.449219 227.445312 156.449219 227.582031 156.449219 227.582031 C 157 227.445312 157.550781 227.304688 158.519531 227.167969 Z M 158.519531 227.167969 " fill-opacity="1" fill-rule="nonzero"/><path fill="#000000" d="M 171.226562 220.097656 C 171.367188 221.207031 171.226562 222.175781 170.953125 222.867188 C 170.675781 223.699219 170.121094 224.117188 169.433594 224.394531 C 170.535156 226.335938 171.503906 228.414062 172.332031 230.492188 C 170.8125 231.046875 170.121094 231.324219 168.742188 231.878906 C 168.601562 230.769531 168.328125 229.800781 168.1875 228.96875 C 168.050781 228.136719 167.636719 227.167969 167.359375 226.195312 C 167.082031 226.335938 166.808594 226.472656 166.53125 226.472656 C 166.253906 226.613281 165.980469 226.75 165.703125 226.75 C 165.839844 228.554688 165.980469 229.523438 166.117188 231.324219 C 165.703125 231.464844 165.148438 231.601562 164.734375 231.742188 C 164.460938 231.742188 164.320312 231.878906 164.042969 231.878906 C 163.769531 231.878906 163.628906 231.878906 163.355469 232.019531 C 163.355469 230.769531 163.214844 229.523438 163.214844 228.277344 C 163.214844 227.027344 163.078125 225.78125 163.078125 224.53125 C 162.941406 222.316406 162.800781 220.097656 162.664062 217.878906 C 163.355469 217.601562 164.183594 217.324219 164.875 217.183594 C 165.5625 216.90625 166.394531 216.628906 167.082031 216.492188 C 167.222656 216.492188 167.5 216.351562 167.636719 216.351562 C 167.914062 216.351562 168.050781 216.214844 168.328125 216.214844 C 168.601562 216.214844 168.742188 216.214844 169.015625 216.214844 C 169.292969 216.214844 169.433594 216.351562 169.570312 216.492188 C 169.984375 216.769531 170.398438 217.324219 170.675781 217.878906 C 170.8125 218.570312 171.089844 219.265625 171.226562 220.097656 Z M 168.328125 220.652344 C 168.328125 220.511719 168.328125 220.375 168.328125 220.234375 C 168.328125 220.097656 168.328125 219.820312 168.1875 219.679688 C 168.1875 219.542969 168.050781 219.265625 168.050781 219.125 C 168.050781 218.988281 167.914062 218.847656 167.914062 218.847656 C 167.914062 218.847656 167.773438 218.847656 167.636719 218.847656 C 167.5 218.847656 167.5 218.847656 167.359375 218.847656 C 167.222656 218.847656 167.082031 218.847656 167.082031 218.847656 C 166.945312 218.847656 166.945312 218.847656 166.808594 218.847656 C 166.53125 218.988281 166.117188 218.988281 165.839844 219.125 C 165.5625 219.265625 165.289062 219.402344 165.011719 219.542969 C 165.289062 221.066406 165.425781 221.898438 165.703125 223.421875 C 165.839844 223.421875 166.117188 223.421875 166.253906 223.421875 C 166.394531 223.421875 166.667969 223.421875 166.808594 223.285156 C 166.945312 223.285156 166.945312 223.285156 167.222656 223.144531 C 167.359375 223.144531 167.5 223.007812 167.636719 222.867188 C 167.773438 222.730469 167.914062 222.730469 168.050781 222.59375 C 168.1875 222.453125 168.328125 222.316406 168.328125 222.175781 C 168.328125 222.175781 168.328125 222.039062 168.328125 221.898438 C 168.328125 221.761719 168.328125 221.621094 168.328125 221.34375 C 168.328125 221.207031 168.328125 221.066406 168.328125 220.789062 C 168.328125 220.929688 168.328125 220.789062 168.328125 220.652344 Z M 168.328125 220.652344 " fill-opacity="1" fill-rule="nonzero"/><path fill="#000000" d="M 181.3125 218.847656 C 181.3125 219.265625 181.449219 219.679688 181.449219 220.097656 C 181.585938 220.511719 181.585938 220.929688 181.585938 221.34375 C 181.585938 221.621094 181.585938 221.898438 181.585938 222.175781 C 181.585938 222.453125 181.585938 222.59375 181.449219 222.867188 C 181.449219 223.144531 181.3125 223.285156 181.3125 223.421875 C 181.171875 223.5625 181.171875 223.839844 181.035156 224.117188 C 181.035156 224.253906 180.898438 224.394531 180.621094 224.53125 C 180.484375 224.671875 180.207031 224.949219 179.929688 225.226562 C 179.652344 225.503906 179.238281 225.78125 178.964844 226.058594 C 178.6875 226.335938 178.273438 226.613281 177.859375 227.027344 C 177.445312 227.304688 177.027344 227.582031 176.753906 227.859375 C 176.339844 228.136719 176.0625 228.414062 175.648438 228.691406 C 175.371094 228.96875 175.09375 229.109375 174.820312 229.246094 C 174.542969 229.386719 174.40625 229.523438 174.40625 229.523438 C 173.992188 227.167969 173.574219 224.808594 173.023438 222.453125 C 172.609375 220.097656 172.195312 217.738281 171.78125 215.246094 C 172.472656 215.105469 173.023438 214.828125 173.714844 214.691406 C 174.40625 214.414062 175.09375 214.273438 175.648438 214.136719 C 175.785156 214.136719 176.0625 213.996094 176.476562 213.859375 C 176.753906 213.71875 177.167969 213.71875 177.582031 213.582031 C 177.996094 213.441406 178.273438 213.441406 178.6875 213.441406 C 178.964844 213.441406 179.238281 213.441406 179.378906 213.582031 C 179.652344 213.71875 179.792969 213.996094 180.066406 214.273438 C 180.207031 214.550781 180.484375 214.96875 180.621094 215.246094 C 180.621094 215.382812 180.757812 215.660156 180.757812 215.9375 C 180.898438 216.351562 180.898438 216.628906 181.035156 217.046875 C 181.171875 217.460938 181.171875 217.878906 181.3125 218.15625 C 181.171875 218.433594 181.3125 218.710938 181.3125 218.847656 Z M 178.410156 220.511719 C 178.410156 220.375 178.410156 220.234375 178.273438 220.097656 C 178.273438 219.957031 178.273438 219.820312 178.132812 219.679688 C 178.132812 219.542969 177.996094 219.265625 177.996094 218.988281 C 177.996094 218.710938 177.859375 218.570312 177.71875 218.433594 C 177.582031 218.292969 177.582031 218.015625 177.445312 217.878906 C 177.304688 217.738281 177.167969 217.601562 177.167969 217.460938 C 177.167969 217.460938 176.890625 217.460938 176.753906 217.460938 C 176.476562 217.460938 176.339844 217.601562 176.0625 217.601562 C 175.785156 217.738281 175.511719 217.738281 175.371094 217.878906 C 175.09375 218.015625 174.957031 218.015625 174.957031 218.015625 C 174.820312 218.15625 174.679688 218.15625 174.40625 218.15625 C 174.542969 219.125 174.820312 220.097656 174.957031 221.207031 C 175.09375 222.175781 175.371094 223.144531 175.511719 224.253906 C 175.648438 224.117188 175.925781 224.117188 176.199219 223.839844 C 176.476562 223.699219 176.753906 223.421875 177.027344 223.285156 C 177.304688 223.007812 177.582031 222.867188 177.859375 222.59375 C 178.132812 222.316406 178.273438 222.039062 178.273438 221.761719 C 178.273438 221.621094 178.410156 221.34375 178.410156 221.207031 C 178.410156 220.929688 178.410156 220.789062 178.410156 220.511719 Z M 178.410156 220.511719 " fill-opacity="1" fill-rule="nonzero"/><g fill="#ffffff" fill-opacity="1"><g transform="translate(43.478554, 335.973761)"><g><path d="M 11.75 0.3125 L 11.140625 0.3125 L 10.5625 0.1875 L 9.890625 0.125 L 9.21875 -0.09375 L 8.75 -0.21875 L 8.109375 -0.453125 L 5.9375 -1.625 L 5.453125 -2.015625 L 4.921875 -2.359375 L 3.765625 -3.484375 L 2.484375 -5.328125 L 2.265625 -5.875 L 1.953125 -6.453125 L 1.84375 -7.015625 L 1.59375 -7.625 L 1.28125 -8.875 L 1.28125 -10.15625 L 1.15625 -11.171875 L 1.71875 -15.15625 L 3.1875 -18.03125 L 3.578125 -18.578125 L 4.4375 -19.375 L 4.8125 -19.890625 L 7.0625 -21.328125 L 7.625 -21.546875 L 8.109375 -21.828125 L 8.71875 -22.0625 L 9.953125 -22.3125 L 10.5625 -22.5 L 11.109375 -22.5625 L 14.015625 -22.5625 L 15.609375 -22.34375 L 16.859375 -22 L 18.671875 -21.171875 L 19.375 -20.6875 L 21.03125 -19.1875 L 22.21875 -17.5625 L 22.734375 -16.34375 L 22.828125 -15.765625 L 23.078125 -15.125 L 22.890625 -14.453125 L 22.375 -14.171875 L 21.734375 -14.109375 L 18.515625 -14.171875 L 17.8125 -14.453125 L 17.234375 -15.0625 L 16.953125 -15.609375 L 16.46875 -16.125 L 15.546875 -16.890625 L 14.875 -17.109375 L 13.65625 -17.328125 L 11.6875 -17.390625 L 10.5625 -17.078125 L 9.953125 -16.828125 L 8.90625 -16.0625 L 8.109375 -15.0625 L 7.5625 -13.921875 L 7.375 -13.34375 L 7.34375 -12.703125 L 7.125 -12.125 L 7.09375 -11.109375 L 7.1875 -9.609375 L 7.5625 -8.359375 L 7.828125 -7.828125 L 9 -6.28125 L 9.421875 -5.84375 L 10.03125 -5.546875 L 11.75 -4.921875 L 13.53125 -4.890625 L 14.203125 -4.953125 L 14.84375 -5.140625 L 15.921875 -5.6875 L 17.140625 -6.984375 L 17.390625 -7.53125 L 18.03125 -8.140625 L 18.734375 -8.453125 L 22.15625 -8.421875 L 22.953125 -8.078125 L 23.140625 -7.5 L 23.046875 -6.890625 L 22.828125 -6.25 L 22.671875 -5.65625 L 22.375 -5.078125 L 21.421875 -3.421875 L 20.875 -3 L 20.53125 -2.453125 L 20.109375 -2.046875 L 19.5625 -1.65625 L 19 -1.3125 L 18.515625 -0.984375 L 16.765625 -0.21875 L 13.65625 0.421875 Z M 11.75 0.3125 "/></g></g></g><g fill="#ffffff" fill-opacity="1"><g transform="translate(67.829871, 335.973761)"><g><path d="M 11.9375 0.390625 L 11.265625 0.3125 L 10.125 0.0625 L 9.421875 0 L 8.484375 -0.3125 L 6 -1.59375 L 4.953125 -2.421875 L 4.59375 -2.84375 L 4.125 -3.28125 L 3.703125 -3.796875 L 3.3125 -4.1875 L 1.84375 -7.09375 L 1.5625 -8.296875 L 1.5 -8.90625 L 1.34375 -9.484375 L 1.25 -10.15625 L 1.34375 -12.734375 L 1.890625 -15.1875 L 2.359375 -16.40625 L 3.359375 -18.09375 L 4.921875 -19.921875 L 6 -20.71875 L 6.578125 -21 L 7.0625 -21.359375 L 9.453125 -22.25 L 12.828125 -22.734375 L 13.6875 -22.703125 L 15.546875 -22.375 L 18 -21.609375 L 18.484375 -21.265625 L 19.4375 -20.84375 L 20.171875 -20.328125 L 21.09375 -19.53125 L 22 -18.546875 L 22.703125 -17.59375 L 23.296875 -16.40625 L 24.09375 -14.015625 L 24.328125 -12.703125 L 24.421875 -11.109375 L 24.296875 -10.1875 L 24.265625 -9.515625 L 24.09375 -8.875 L 24.0625 -8.296875 L 23.8125 -7.09375 L 23.328125 -5.875 L 21.9375 -3.734375 L 21.484375 -3.28125 L 21.0625 -2.71875 L 20.171875 -1.953125 L 19.5625 -1.65625 L 19.09375 -1.28125 L 18.03125 -0.703125 L 15.640625 0.09375 L 13.71875 0.34375 Z M 13.71875 -5.265625 L 14.359375 -5.390625 L 14.84375 -5.625 L 15.421875 -5.78125 L 16.953125 -6.828125 L 17.390625 -7.34375 L 17.59375 -7.828125 L 17.9375 -8.390625 L 18.15625 -8.96875 L 18.421875 -10.15625 L 18.484375 -12.09375 L 18.390625 -12.671875 L 18.09375 -13.28125 L 17.71875 -14.5 L 16.46875 -15.796875 L 15.484375 -16.5 L 14.90625 -16.765625 L 14.328125 -16.890625 L 12.796875 -17.078125 L 11.90625 -17.015625 L 10.65625 -16.6875 L 10.25 -16.53125 L 8.65625 -15.453125 L 7.890625 -14.421875 L 7.6875 -13.859375 L 7.4375 -13.28125 L 7.34375 -12.671875 L 7.1875 -12.09375 L 7.1875 -10.15625 L 7.4375 -8.96875 L 7.71875 -8.390625 L 7.890625 -7.890625 L 8.328125 -7.28125 L 8.75 -6.828125 L 9.609375 -6.125 L 10.125 -5.84375 L 11.265625 -5.359375 L 11.96875 -5.265625 Z M 13.71875 -5.265625 "/></g></g></g><g fill="#ffffff" fill-opacity="1"><g transform="translate(93.425892, 335.973761)"><g><path d="M 18.828125 -0.515625 L 18.421875 -0.921875 L 18.03125 -1.40625 L 17.53125 -1.8125 L 17.109375 -2.328125 L 14.015625 -5.421875 L 13.5 -5.84375 L 8.9375 -10.3125 L 8.515625 -10.40625 L 8.203125 -10.03125 L 8.328125 -9.359375 L 8.234375 -1.53125 L 8.328125 -0.890625 L 8.046875 -0.25 L 7.40625 0.0625 L 6.671875 0 L 6 0.09375 L 4.40625 0 L 3.3125 0.0625 L 2.71875 -0.28125 L 2.421875 -0.984375 L 2.421875 -1.59375 L 2.328125 -2.234375 L 2.421875 -3.453125 L 2.359375 -4.09375 L 2.390625 -5.390625 L 2.296875 -6.0625 L 2.296875 -6.671875 L 2.359375 -7.375 L 2.359375 -7.984375 L 2.421875 -8.5625 L 2.296875 -13.125 L 2.390625 -13.796875 L 2.359375 -14.453125 L 2.421875 -15.03125 L 2.328125 -16.34375 L 2.390625 -16.984375 L 2.328125 -21.453125 L 2.75 -22.0625 L 3.515625 -22.4375 L 4.375 -22.1875 L 5.65625 -21.328125 L 7.375 -19.5625 L 7.78125 -19.03125 L 8.328125 -18.640625 L 8.65625 -18.15625 L 9.25 -17.75 L 9.609375 -17.265625 L 10.59375 -16.4375 L 11.265625 -15.734375 L 11.625 -15.296875 L 12.125 -14.90625 L 13.25 -13.765625 L 13.71875 -13.375 L 15.125 -11.9375 L 15.578125 -11.8125 L 15.734375 -12.328125 L 15.703125 -13.59375 L 15.828125 -14.265625 L 15.828125 -14.875 L 15.703125 -15.546875 L 15.734375 -21.359375 L 16.0625 -22.03125 L 16.828125 -22.34375 L 17.46875 -22.3125 L 18.03125 -22.375 L 18.703125 -22.28125 L 19.40625 -22.34375 L 20.015625 -22.34375 L 20.65625 -22.28125 L 21.359375 -21.96875 L 21.734375 -21.390625 L 21.671875 -19.734375 L 21.734375 -18.765625 L 21.609375 -18.125 L 21.609375 -16.859375 L 21.671875 -16.25 L 21.578125 -14.96875 L 21.703125 -11.140625 L 21.640625 -10.4375 L 21.765625 -9.546875 L 21.609375 -0.859375 L 21.328125 -0.1875 L 20.59375 0.15625 L 19.765625 -0.09375 Z M 18.828125 -0.515625 "/></g></g></g><g fill="#ffffff" fill-opacity="1"><g transform="translate(117.48998, 335.973761)"><g><path d="M 2.390625 -0.984375 L 2.453125 -2.203125 L 2.359375 -4.75 L 2.421875 -5.390625 L 2.359375 -7.953125 L 2.453125 -9.1875 L 2.359375 -9.859375 L 2.453125 -10.46875 L 2.359375 -11.84375 L 2.453125 -13.0625 L 2.328125 -15.609375 L 2.421875 -16.25 L 2.328125 -16.890625 L 2.421875 -17.59375 L 2.359375 -18.796875 L 2.390625 -19.4375 L 2.328125 -20.078125 L 2.328125 -21.390625 L 2.8125 -22 L 3.390625 -22.34375 L 4.046875 -22.3125 L 4.625 -22.34375 L 5.265625 -22.28125 L 7.3125 -22.34375 L 7.953125 -22.28125 L 12.484375 -22.25 L 13.796875 -22 L 15.546875 -21.421875 L 16.1875 -21.09375 L 17.359375 -20.359375 L 18.265625 -19.5 L 18.796875 -19.09375 L 19.625 -18.09375 L 19.890625 -17.5625 L 20.625 -16.46875 L 21.09375 -15.1875 L 21.265625 -14.625 L 21.328125 -13.953125 L 21.796875 -12.125 L 21.671875 -10.09375 L 21.703125 -9.546875 L 21.546875 -8.875 L 21.453125 -8.203125 L 21.234375 -7.625 L 21.09375 -6.984375 L 20.78125 -6.390625 L 20.625 -5.78125 L 19.625 -4.1875 L 18.359375 -2.71875 L 15.640625 -0.890625 L 13.796875 -0.3125 L 11.75 -0.03125 L 6 0 L 5.328125 0.09375 L 4.6875 0.09375 L 4.015625 0 L 3.28125 0 L 2.78125 -0.28125 Z M 9.15625 -5.140625 L 11.8125 -5.265625 L 12.953125 -5.59375 L 13.59375 -5.90625 L 14.109375 -6.21875 L 14.5 -6.734375 L 14.90625 -7.1875 L 15.328125 -7.75 L 15.796875 -8.90625 L 16 -9.515625 L 16.15625 -11.078125 L 16.0625 -12.0625 L 15.671875 -13.953125 L 15.265625 -14.453125 L 14.90625 -15.0625 L 14.109375 -15.953125 L 13.03125 -16.65625 L 11.75 -17.046875 L 10.796875 -17.109375 L 10.125 -17.078125 L 9.453125 -17.109375 L 8.515625 -16.765625 L 8.140625 -16.1875 L 8.140625 -7.984375 L 8.046875 -7.34375 L 8.171875 -6.765625 L 8.109375 -6.125 L 8.390625 -5.421875 Z M 9.15625 -5.140625 "/></g></g></g><g fill="#ffffff" fill-opacity="1"><g transform="translate(140.341261, 335.973761)"><g><path d="M 1.53125 -0.921875 L 1.53125 -3.390625 L 1.59375 -3.984375 L 1.984375 -4.59375 L 4.09375 -5.265625 L 4.40625 -5.96875 L 4.46875 -7.21875 L 4.34375 -8.59375 L 4.5 -9.21875 L 4.375 -10.46875 L 4.4375 -11.109375 L 4.46875 -12.421875 L 4.375 -13.15625 L 4.34375 -13.6875 L 4.4375 -16.40625 L 4.015625 -16.984375 L 2.078125 -17.65625 L 1.75 -18.265625 L 1.75 -18.859375 L 1.6875 -19.5 L 1.6875 -20.203125 L 1.75 -20.75 L 1.75 -21.359375 L 2.109375 -22.03125 L 2.8125 -22.34375 L 4.046875 -22.28125 L 4.65625 -22.3125 L 6.609375 -22.28125 L 7.3125 -22.34375 L 11.359375 -22.3125 L 12.390625 -22.03125 L 12.640625 -21.390625 L 12.703125 -20.75 L 12.640625 -20.171875 L 12.640625 -18.296875 L 12.296875 -17.6875 L 11.6875 -17.328125 L 10.984375 -17.296875 L 10.375 -16.953125 L 10.03125 -16.375 L 10.03125 -15.03125 L 10.09375 -14.359375 L 10.03125 -13.71875 L 10.09375 -13.125 L 10.03125 -12.125 L 10.09375 -11.171875 L 9.953125 -9.828125 L 10.09375 -8.5625 L 10.03125 -5.9375 L 10.375 -5.296875 L 12.515625 -4.625 L 12.953125 -4.09375 L 12.859375 -2.140625 L 12.921875 -1.5625 L 12.921875 -0.859375 L 12.578125 -0.28125 L 11.96875 0.03125 L 2.484375 -0.03125 L 1.84375 -0.25 Z M 1.53125 -0.921875 "/></g></g></g><g fill="#ffffff" fill-opacity="1"><g transform="translate(154.830775, 335.973761)"><g><path d="M 2.359375 -0.921875 L 2.421875 -1.53125 L 2.296875 -6.0625 L 2.421875 -6.671875 L 2.328125 -20.75 L 2.390625 -21.421875 L 2.75 -22.0625 L 3.390625 -22.40625 L 4.3125 -22.15625 L 5.234375 -21.484375 L 5.9375 -20.75 L 6.28125 -20.296875 L 6.734375 -19.890625 L 7.09375 -19.40625 L 7.5 -18.96875 L 8.046875 -18.484375 L 8.8125 -17.53125 L 11.015625 -15.265625 L 11.390625 -14.75 L 11.90625 -14.328125 L 12.296875 -13.796875 L 12.703125 -13.375 L 13.28125 -13.1875 L 13.984375 -13.40625 L 18.703125 -18.421875 L 19 -18.890625 L 20.8125 -20.78125 L 21.546875 -21.671875 L 22.34375 -22.125 L 23.296875 -22.40625 L 23.9375 -22.03125 L 24.296875 -21.421875 L 24.265625 -20.75 L 24.328125 -20.203125 L 24.265625 -19.53125 L 24.359375 -10.5 L 24.265625 -9.921875 L 24.328125 -9.296875 L 24.265625 -8.625 L 24.296875 -7.984375 L 24.203125 -7.34375 L 24.265625 -6.09375 L 24.203125 -5.484375 L 24.328125 -1.65625 L 24.234375 -1.015625 L 23.875 -0.34375 L 23.265625 0.03125 L 19.4375 0 L 18.734375 -0.25 L 18.421875 -0.921875 L 18.515625 -5.328125 L 18.421875 -6.515625 L 18.453125 -7.15625 L 18.421875 -7.71875 L 18.515625 -8.328125 L 18.421875 -8.96875 L 18.15625 -9.359375 L 17.78125 -9.296875 L 17.328125 -8.84375 L 16.921875 -8.296875 L 14.234375 -5.59375 L 13.6875 -5.203125 L 12.953125 -5.203125 L 11.90625 -6.0625 L 11.484375 -6.609375 L 9.703125 -8.296875 L 8.90625 -9.296875 L 8.421875 -9.421875 L 8.140625 -8.96875 L 8.265625 -7.125 L 8.171875 -2.8125 L 8.265625 -2.140625 L 8.296875 -1.46875 L 8.234375 -0.859375 L 7.890625 -0.34375 L 6.921875 -0.0625 L 3.421875 0 L 2.65625 -0.34375 Z M 2.359375 -0.921875 "/></g></g></g><g fill="#ffffff" fill-opacity="1"><g transform="translate(181.511908, 335.973761)"><g><path d="M 2.296875 -0.921875 L 2.421875 -1.5625 L 2.453125 -2.203125 L 2.390625 -3.453125 L 2.390625 -4.09375 L 2.328125 -4.8125 L 2.421875 -5.390625 L 2.390625 -6 L 2.453125 -6.703125 L 2.359375 -7.375 L 2.421875 -8.65625 L 2.328125 -9.890625 L 2.421875 -10.5625 L 2.421875 -16.28125 L 2.359375 -16.859375 L 2.421875 -17.53125 L 2.296875 -19.15625 L 2.421875 -20.078125 L 2.359375 -21.359375 L 2.6875 -22.0625 L 3.609375 -22.28125 L 7.78125 -22.375 L 8.359375 -22.3125 L 9.609375 -22.34375 L 10.25 -22.28125 L 11.65625 -22.34375 L 12.296875 -22.25 L 12.859375 -22.3125 L 15.421875 -22.28125 L 16.09375 -22 L 16.40625 -21.359375 L 16.3125 -20.75 L 16.28125 -20.046875 L 16.375 -19.4375 L 16.4375 -18.125 L 16.09375 -17.5625 L 15.421875 -17.203125 L 9.296875 -17.171875 L 8.296875 -16.890625 L 7.984375 -15.953125 L 8.046875 -14.96875 L 8.421875 -14.390625 L 8.96875 -14.046875 L 11.484375 -14.078125 L 12.21875 -14.015625 L 12.890625 -14.015625 L 13.53125 -14.078125 L 14.8125 -14.046875 L 15.359375 -13.6875 L 15.640625 -13.09375 L 15.703125 -12.453125 L 15.640625 -9.921875 L 15.328125 -9.328125 L 14.6875 -8.96875 L 14.109375 -8.9375 L 13.4375 -9 L 12.578125 -8.9375 L 10.890625 -9.03125 L 10.25 -8.96875 L 9 -8.96875 L 8.421875 -8.625 L 8.140625 -7.953125 L 8.109375 -6.390625 L 8.390625 -5.390625 L 9.0625 -5.015625 L 9.765625 -5.078125 L 10.46875 -5.015625 L 11.078125 -5.109375 L 15.296875 -5.046875 L 16.25 -4.71875 L 16.65625 -4.09375 L 16.59375 -3.484375 L 16.625 -1.5 L 16.5625 -0.890625 L 16.28125 -0.28125 L 15.609375 0.03125 L 15 0.09375 L 13.0625 -0.03125 L 11.109375 0.0625 L 10.53125 -0.03125 L 3.3125 0.03125 L 2.71875 -0.3125 Z M 2.296875 -0.921875 "/></g></g></g><g fill="#ffffff" fill-opacity="1"><g transform="translate(199.799331, 335.973761)"><g><path d="M 18.828125 -0.515625 L 18.421875 -0.921875 L 18.03125 -1.40625 L 17.53125 -1.8125 L 17.109375 -2.328125 L 14.015625 -5.421875 L 13.5 -5.84375 L 8.9375 -10.3125 L 8.515625 -10.40625 L 8.203125 -10.03125 L 8.328125 -9.359375 L 8.234375 -1.53125 L 8.328125 -0.890625 L 8.046875 -0.25 L 7.40625 0.0625 L 6.671875 0 L 6 0.09375 L 4.40625 0 L 3.3125 0.0625 L 2.71875 -0.28125 L 2.421875 -0.984375 L 2.421875 -1.59375 L 2.328125 -2.234375 L 2.421875 -3.453125 L 2.359375 -4.09375 L 2.390625 -5.390625 L 2.296875 -6.0625 L 2.296875 -6.671875 L 2.359375 -7.375 L 2.359375 -7.984375 L 2.421875 -8.5625 L 2.296875 -13.125 L 2.390625 -13.796875 L 2.359375 -14.453125 L 2.421875 -15.03125 L 2.328125 -16.34375 L 2.390625 -16.984375 L 2.328125 -21.453125 L 2.75 -22.0625 L 3.515625 -22.4375 L 4.375 -22.1875 L 5.65625 -21.328125 L 7.375 -19.5625 L 7.78125 -19.03125 L 8.328125 -18.640625 L 8.65625 -18.15625 L 9.25 -17.75 L 9.609375 -17.265625 L 10.59375 -16.4375 L 11.265625 -15.734375 L 11.625 -15.296875 L 12.125 -14.90625 L 13.25 -13.765625 L 13.71875 -13.375 L 15.125 -11.9375 L 15.578125 -11.8125 L 15.734375 -12.328125 L 15.703125 -13.59375 L 15.828125 -14.265625 L 15.828125 -14.875 L 15.703125 -15.546875 L 15.734375 -21.359375 L 16.0625 -22.03125 L 16.828125 -22.34375 L 17.46875 -22.3125 L 18.03125 -22.375 L 18.703125 -22.28125 L 19.40625 -22.34375 L 20.015625 -22.34375 L 20.65625 -22.28125 L 21.359375 -21.96875 L 21.734375 -21.390625 L 21.671875 -19.734375 L 21.734375 -18.765625 L 21.609375 -18.125 L 21.609375 -16.859375 L 21.671875 -16.25 L 21.578125 -14.96875 L 21.703125 -11.140625 L 21.640625 -10.4375 L 21.765625 -9.546875 L 21.609375 -0.859375 L 21.328125 -0.1875 L 20.59375 0.15625 L 19.765625 -0.09375 Z M 18.828125 -0.515625 "/></g></g></g><g fill="#ffffff" fill-opacity="1"><g transform="translate(223.863419, 335.973761)"><g><path d="M 6.125 -0.984375 L 6.09375 -3.484375 L 6.15625 -4.125 L 6.0625 -6.0625 L 6.09375 -6.734375 L 6.0625 -7.375 L 6.1875 -8.328125 L 6.09375 -9.25 L 6.09375 -10.53125 L 6.15625 -11.171875 L 6.09375 -11.78125 L 6.1875 -12.765625 L 6.09375 -16.28125 L 5.78125 -16.890625 L 5.203125 -17.234375 L 2.359375 -17.265625 L 1.53125 -17.171875 L 0.890625 -17.5 L 0.546875 -18.203125 L 0.578125 -21.390625 L 0.890625 -22.03125 L 1.59375 -22.34375 L 11.109375 -22.28125 L 11.84375 -22.375 L 12.484375 -22.375 L 13.125 -22.3125 L 13.765625 -22.3125 L 14.453125 -22.40625 L 15.0625 -22.40625 L 15.578125 -22.34375 L 16.34375 -22.40625 L 16.984375 -22.09375 L 17.296875 -21.453125 L 17.234375 -18.828125 L 17.296875 -18.15625 L 16.984375 -17.53125 L 16.25 -17.234375 L 14.5 -17.265625 L 13.921875 -17.203125 L 13.28125 -17.234375 L 12.734375 -17.203125 L 12.03125 -16.921875 L 11.78125 -16.34375 L 11.84375 -15.640625 L 11.75 -15 L 11.875 -8.65625 L 11.78125 -7.3125 L 11.84375 -6.734375 L 11.78125 -4.78125 L 11.6875 -4.125 L 11.78125 -3.578125 L 11.8125 -2.296875 L 11.75 -1.5625 L 11.78125 -0.953125 L 11.53125 -0.3125 L 10.890625 -0.0625 L 8.90625 -0.0625 L 8.296875 0 L 7.65625 -0.0625 L 7.0625 0 L 6.390625 -0.3125 Z M 6.125 -0.984375 "/></g></g></g><g fill="#ffffff" fill-opacity="1"><g transform="translate(240.682646, 335.973761)"><g><path d="M 11.9375 0.390625 L 11.265625 0.3125 L 10.125 0.0625 L 9.421875 0 L 8.484375 -0.3125 L 6 -1.59375 L 4.953125 -2.421875 L 4.59375 -2.84375 L 4.125 -3.28125 L 3.703125 -3.796875 L 3.3125 -4.1875 L 1.84375 -7.09375 L 1.5625 -8.296875 L 1.5 -8.90625 L 1.34375 -9.484375 L 1.25 -10.15625 L 1.34375 -12.734375 L 1.890625 -15.1875 L 2.359375 -16.40625 L 3.359375 -18.09375 L 4.921875 -19.921875 L 6 -20.71875 L 6.578125 -21 L 7.0625 -21.359375 L 9.453125 -22.25 L 12.828125 -22.734375 L 13.6875 -22.703125 L 15.546875 -22.375 L 18 -21.609375 L 18.484375 -21.265625 L 19.4375 -20.84375 L 20.171875 -20.328125 L 21.09375 -19.53125 L 22 -18.546875 L 22.703125 -17.59375 L 23.296875 -16.40625 L 24.09375 -14.015625 L 24.328125 -12.703125 L 24.421875 -11.109375 L 24.296875 -10.1875 L 24.265625 -9.515625 L 24.09375 -8.875 L 24.0625 -8.296875 L 23.8125 -7.09375 L 23.328125 -5.875 L 21.9375 -3.734375 L 21.484375 -3.28125 L 21.0625 -2.71875 L 20.171875 -1.953125 L 19.5625 -1.65625 L 19.09375 -1.28125 L 18.03125 -0.703125 L 15.640625 0.09375 L 13.71875 0.34375 Z M 13.71875 -5.265625 L 14.359375 -5.390625 L 14.84375 -5.625 L 15.421875 -5.78125 L 16.953125 -6.828125 L 17.390625 -7.34375 L 17.59375 -7.828125 L 17.9375 -8.390625 L 18.15625 -8.96875 L 18.421875 -10.15625 L 18.484375 -12.09375 L 18.390625 -12.671875 L 18.09375 -13.28125 L 17.71875 -14.5 L 16.46875 -15.796875 L 15.484375 -16.5 L 14.90625 -16.765625 L 14.328125 -16.890625 L 12.796875 -17.078125 L 11.90625 -17.015625 L 10.65625 -16.6875 L 10.25 -16.53125 L 8.65625 -15.453125 L 7.890625 -14.421875 L 7.6875 -13.859375 L 7.4375 -13.28125 L 7.34375 -12.671875 L 7.1875 -12.09375 L 7.1875 -10.15625 L 7.4375 -8.96875 L 7.71875 -8.390625 L 7.890625 -7.890625 L 8.328125 -7.28125 L 8.75 -6.828125 L 9.609375 -6.125 L 10.125 -5.84375 L 11.265625 -5.359375 L 11.96875 -5.265625 Z M 13.71875 -5.265625 "/></g></g></g></svg>