<svg xmlns="http://www.w3.org/2000/svg" xmlns:xlink="http://www.w3.org/1999/xlink" width="415" zoomAndPan="magnify" viewBox="0 0 311.25 410.24999" height="547" preserveAspectRatio="xMidYMid meet" version="1.0"><defs><g/><clipPath id="1f0f7ba8f2"><path d="M 12.828125 0.117188 L 295.5 0.117188 L 295.5 409 L 12.828125 409 Z M 12.828125 0.117188 " clip-rule="nonzero"/></clipPath><clipPath id="c8e5d5f3b6"><path d="M 32.402344 0.117188 L 275.925781 0.117188 C 281.117188 0.117188 286.09375 2.179688 289.765625 5.851562 C 293.4375 9.523438 295.5 14.5 295.5 19.691406 L 295.5 389.183594 C 295.5 394.375 293.4375 399.355469 289.765625 403.023438 C 286.09375 406.695312 281.117188 408.757812 275.925781 408.757812 L 32.402344 408.757812 C 27.210938 408.757812 22.234375 406.695312 18.5625 403.023438 C 14.890625 399.355469 12.828125 394.375 12.828125 389.183594 L 12.828125 19.691406 C 12.828125 14.5 14.890625 9.523438 18.5625 5.851562 C 22.234375 2.179688 27.210938 0.117188 32.402344 0.117188 Z M 32.402344 0.117188 " clip-rule="nonzero"/></clipPath><clipPath id="3b5155b4b5"><path d="M 0.828125 0.117188 L 283.5 0.117188 L 283.5 408.8125 L 0.828125 408.8125 Z M 0.828125 0.117188 " clip-rule="nonzero"/></clipPath><clipPath id="2bf9d957a5"><path d="M 20.402344 0.117188 L 263.925781 0.117188 C 269.117188 0.117188 274.09375 2.179688 277.765625 5.851562 C 281.4375 9.523438 283.5 14.5 283.5 19.691406 L 283.5 389.183594 C 283.5 394.375 281.4375 399.355469 277.765625 403.023438 C 274.09375 406.695312 269.117188 408.757812 263.925781 408.757812 L 20.402344 408.757812 C 15.210938 408.757812 10.234375 406.695312 6.5625 403.023438 C 2.890625 399.355469 0.828125 394.375 0.828125 389.183594 L 0.828125 19.691406 C 0.828125 14.5 2.890625 9.523438 6.5625 5.851562 C 10.234375 2.179688 15.210938 0.117188 20.402344 0.117188 Z M 20.402344 0.117188 " clip-rule="nonzero"/></clipPath><clipPath id="e6e57b0702"><rect x="0" width="284" y="0" height="409"/></clipPath><clipPath id="dcc4f97658"><path d="M 22.953125 10.246094 L 285.917969 10.246094 L 285.917969 399 L 22.953125 399 Z M 22.953125 10.246094 " clip-rule="nonzero"/></clipPath><clipPath id="fcae53e094"><path d="M 36.179688 10.246094 L 272.691406 10.246094 C 276.199219 10.246094 279.5625 11.636719 282.042969 14.117188 C 284.523438 16.597656 285.917969 19.960938 285.917969 23.46875 L 285.917969 385.339844 C 285.917969 388.84375 284.523438 392.210938 282.042969 394.691406 C 279.5625 397.171875 276.199219 398.5625 272.691406 398.5625 L 36.179688 398.5625 C 32.671875 398.5625 29.308594 397.171875 26.828125 394.691406 C 24.347656 392.210938 22.953125 388.84375 22.953125 385.339844 L 22.953125 23.46875 C 22.953125 19.960938 24.347656 16.597656 26.828125 14.117188 C 29.308594 11.636719 32.671875 10.246094 36.179688 10.246094 Z M 36.179688 10.246094 " clip-rule="nonzero"/></clipPath><clipPath id="3dc94fbc0a"><path d="M 0.953125 0.246094 L 263.917969 0.246094 L 263.917969 388.757812 L 0.953125 388.757812 Z M 0.953125 0.246094 " clip-rule="nonzero"/></clipPath><clipPath id="1870da2c11"><path d="M 14.179688 0.246094 L 250.691406 0.246094 C 254.199219 0.246094 257.5625 1.636719 260.042969 4.117188 C 262.523438 6.597656 263.917969 9.960938 263.917969 13.46875 L 263.917969 375.339844 C 263.917969 378.84375 262.523438 382.210938 260.042969 384.691406 C 257.5625 387.171875 254.199219 388.5625 250.691406 388.5625 L 14.179688 388.5625 C 10.671875 388.5625 7.308594 387.171875 4.828125 384.691406 C 2.347656 382.210938 0.953125 378.84375 0.953125 375.339844 L 0.953125 13.46875 C 0.953125 9.960938 2.347656 6.597656 4.828125 4.117188 C 7.308594 1.636719 10.671875 0.246094 14.179688 0.246094 Z M 14.179688 0.246094 " clip-rule="nonzero"/></clipPath><clipPath id="df7e8275b6"><rect x="0" width="264" y="0" height="389"/></clipPath><clipPath id="7d20e48e24"><path d="M 13.4375 10.246094 L 295.738281 10.246094 L 295.738281 80.136719 L 13.4375 80.136719 Z M 13.4375 10.246094 " clip-rule="nonzero"/></clipPath><clipPath id="05d54a05ff"><path d="M 25.078125 10.246094 L 283.859375 10.246094 C 290.289062 10.246094 295.5 15.457031 295.5 21.882812 L 295.5 68.496094 C 295.5 74.925781 290.289062 80.136719 283.859375 80.136719 L 25.078125 80.136719 C 18.648438 80.136719 13.4375 74.925781 13.4375 68.496094 L 13.4375 21.882812 C 13.4375 15.457031 18.648438 10.246094 25.078125 10.246094 Z M 25.078125 10.246094 " clip-rule="nonzero"/></clipPath><clipPath id="a569fc765e"><path d="M 0.4375 0.246094 L 282.6875 0.246094 L 282.6875 70.136719 L 0.4375 70.136719 Z M 0.4375 0.246094 " clip-rule="nonzero"/></clipPath><clipPath id="fe6f7bc95f"><path d="M 12.078125 0.246094 L 270.859375 0.246094 C 277.289062 0.246094 282.5 5.457031 282.5 11.882812 L 282.5 58.496094 C 282.5 64.925781 277.289062 70.136719 270.859375 70.136719 L 12.078125 70.136719 C 5.648438 70.136719 0.4375 64.925781 0.4375 58.496094 L 0.4375 11.882812 C 0.4375 5.457031 5.648438 0.246094 12.078125 0.246094 Z M 12.078125 0.246094 " clip-rule="nonzero"/></clipPath><clipPath id="62c8e5bb99"><rect x="0" width="283" y="0" height="71"/></clipPath><clipPath id="34df791f28"><path d="M 13.4375 278.382812 L 295.582031 278.382812 L 295.582031 398.5625 L 13.4375 398.5625 Z M 13.4375 278.382812 " clip-rule="nonzero"/></clipPath><clipPath id="0538dfb925"><path d="M 25.078125 278.382812 L 283.859375 278.382812 C 290.289062 278.382812 295.5 283.59375 295.5 290.019531 L 295.5 386.925781 C 295.5 393.351562 290.289062 398.5625 283.859375 398.5625 L 25.078125 398.5625 C 18.648438 398.5625 13.4375 393.351562 13.4375 386.925781 L 13.4375 290.019531 C 13.4375 283.59375 18.648438 278.382812 25.078125 278.382812 Z M 25.078125 278.382812 " clip-rule="nonzero"/></clipPath><clipPath id="a8219f87d5"><path d="M 0.4375 0.382812 L 282.582031 0.382812 L 282.582031 120.5625 L 0.4375 120.5625 Z M 0.4375 0.382812 " clip-rule="nonzero"/></clipPath><clipPath id="19e3fce1ca"><path d="M 12.078125 0.382812 L 270.859375 0.382812 C 277.289062 0.382812 282.5 5.59375 282.5 12.019531 L 282.5 108.925781 C 282.5 115.351562 277.289062 120.5625 270.859375 120.5625 L 12.078125 120.5625 C 5.648438 120.5625 0.4375 115.351562 0.4375 108.925781 L 0.4375 12.019531 C 0.4375 5.59375 5.648438 0.382812 12.078125 0.382812 Z M 12.078125 0.382812 " clip-rule="nonzero"/></clipPath><clipPath id="9ad208911b"><rect x="0" width="283" y="0" height="121"/></clipPath><clipPath id="74ae0e3a1f"><path d="M 22.953125 80.136719 L 65.601562 80.136719 L 65.601562 122.785156 L 22.953125 122.785156 Z M 22.953125 80.136719 " clip-rule="nonzero"/></clipPath><clipPath id="cd7535964e"><path d="M 116 82.617188 L 158 82.617188 L 158 119 L 116 119 Z M 116 82.617188 " clip-rule="nonzero"/></clipPath><clipPath id="b3f4fdf3c1"><path d="M 116 82.617188 L 132 82.617188 L 132 99 L 116 99 Z M 116 82.617188 " clip-rule="nonzero"/></clipPath><clipPath id="adf9bc1bf0"><path d="M 169.421875 177.164062 L 227.949219 177.164062 L 227.949219 275.570312 L 169.421875 275.570312 Z M 169.421875 177.164062 " clip-rule="nonzero"/></clipPath><clipPath id="f019cbfa82"><path d="M 169.421875 191.273438 L 227.949219 191.273438 L 227.949219 275.570312 L 169.421875 275.570312 Z M 169.421875 191.273438 " clip-rule="nonzero"/></clipPath></defs><g clip-path="url(#1f0f7ba8f2)"><g clip-path="url(#c8e5d5f3b6)"><g transform="matrix(1, 0, 0, 1, 12, 0.000000000000000597)"><g clip-path="url(#e6e57b0702)"><g clip-path="url(#3b5155b4b5)"><g clip-path="url(#2bf9d957a5)"><path fill="#008000" d="M 0.828125 0.117188 L 283.5 0.117188 L 283.5 408.664062 L 0.828125 408.664062 Z M 0.828125 0.117188 " fill-opacity="1" fill-rule="nonzero"/></g></g></g></g></g></g><g clip-path="url(#dcc4f97658)"><g clip-path="url(#fcae53e094)"><g transform="matrix(1, 0, 0, 1, 22, 10)"><g clip-path="url(#df7e8275b6)"><g clip-path="url(#3dc94fbc0a)"><g clip-path="url(#1870da2c11)"><path fill="#fffaed" d="M 0.953125 0.246094 L 263.917969 0.246094 L 263.917969 388.527344 L 0.953125 388.527344 Z M 0.953125 0.246094 " fill-opacity="1" fill-rule="nonzero"/></g></g></g></g></g></g><g clip-path="url(#7d20e48e24)"><g clip-path="url(#05d54a05ff)"><g transform="matrix(1, 0, 0, 1, 13, 10)"><g clip-path="url(#62c8e5bb99)"><g clip-path="url(#a569fc765e)"><g clip-path="url(#fe6f7bc95f)"><path fill="#008000" d="M 0.4375 0.246094 L 282.464844 0.246094 L 282.464844 70.136719 L 0.4375 70.136719 Z M 0.4375 0.246094 " fill-opacity="1" fill-rule="nonzero"/></g></g></g></g></g></g><g fill="#ffffff" fill-opacity="1"><g transform="translate(83.383079, 54.38798)"><g><path d="M 2.0625 -0.859375 L 2.046875 -1.390625 L 2.125 -1.921875 L 2.015625 -2.453125 L 2.15625 -3.015625 L 2.0625 -4.78125 L 2.15625 -5.890625 L 2.0625 -6.421875 L 2.0625 -7.59375 L 2.125 -8.125 L 2.046875 -8.96875 L 2.15625 -9.71875 L 2.0625 -10.875 L 2.125 -11.484375 L 2.0625 -11.984375 L 2.125 -12.546875 L 2.125 -15.390625 L 2.046875 -15.984375 L 2.046875 -16.515625 L 2.125 -17.015625 L 2.125 -18.15625 L 2.171875 -18.75 L 2.453125 -19.28125 L 3.21875 -19.53125 L 11.5625 -19.5 L 12.0625 -19.390625 L 12.625 -19.171875 L 13.21875 -19.046875 L 14.21875 -18.515625 L 15.0625 -17.96875 L 15.53125 -17.546875 L 15.84375 -17.125 L 16.203125 -16.734375 L 16.5625 -16.265625 L 17.125 -15.25 L 17.625 -13.078125 L 17.59375 -11.421875 L 17.546875 -10.921875 L 17.296875 -9.78125 L 17.09375 -9.28125 L 16.84375 -8.765625 L 15.953125 -7.4375 L 15.109375 -6.625 L 14.671875 -6.28125 L 13.71875 -5.703125 L 12.09375 -5.21875 L 10.953125 -5 L 9.5 -4.96875 L 8.65625 -5.0625 L 8.046875 -4.96875 L 7.296875 -4.6875 L 7.09375 -4.21875 L 7.09375 -3.625 L 7.15625 -3.015625 L 7.0625 -2.515625 L 7.125 -1.984375 L 7.09375 -0.859375 L 6.84375 -0.28125 L 6.28125 0.03125 L 5.703125 0.03125 L 5.078125 -0.03125 L 3.4375 0 L 2.875 -0.0625 L 2.296875 -0.28125 Z M 7.984375 -9.53125 L 8.625 -9.46875 L 10.921875 -9.609375 L 11.375 -9.859375 L 11.8125 -10.171875 L 12.453125 -10.953125 L 12.765625 -12.234375 L 12.515625 -13.546875 L 12.234375 -14.03125 L 11.796875 -14.4375 L 11.375 -14.75 L 10.890625 -15 L 8.65625 -15.109375 L 7.96875 -15.0625 L 7.40625 -14.828125 L 7.0625 -14.21875 L 7.125 -10.34375 L 7.453125 -9.78125 Z M 7.984375 -9.53125 "/></g></g></g><g fill="#ffffff" fill-opacity="1"><g transform="translate(101.760281, 54.38798)"><g><path d="M 1.34375 -0.8125 L 1.34375 -2.96875 L 1.390625 -3.484375 L 1.734375 -4.015625 L 3.578125 -4.609375 L 3.859375 -5.21875 L 3.90625 -6.3125 L 3.796875 -7.515625 L 3.9375 -8.078125 L 3.828125 -9.15625 L 3.890625 -9.71875 L 3.90625 -10.875 L 3.828125 -11.515625 L 3.796875 -11.984375 L 3.890625 -14.359375 L 3.515625 -14.859375 L 1.8125 -15.453125 L 1.53125 -15.984375 L 1.53125 -16.515625 L 1.484375 -17.0625 L 1.484375 -17.6875 L 1.53125 -18.15625 L 1.53125 -18.6875 L 1.84375 -19.28125 L 2.453125 -19.5625 L 3.546875 -19.5 L 4.078125 -19.53125 L 5.78125 -19.5 L 6.390625 -19.5625 L 9.953125 -19.53125 L 10.84375 -19.28125 L 11.0625 -18.71875 L 11.125 -18.15625 L 11.0625 -17.65625 L 11.0625 -16.015625 L 10.75 -15.484375 L 10.21875 -15.171875 L 9.609375 -15.140625 L 9.078125 -14.828125 L 8.765625 -14.328125 L 8.765625 -13.15625 L 8.828125 -12.578125 L 8.765625 -12.015625 L 8.828125 -11.484375 L 8.765625 -10.609375 L 8.828125 -9.78125 L 8.71875 -8.609375 L 8.828125 -7.484375 L 8.765625 -5.203125 L 9.078125 -4.640625 L 10.953125 -4.046875 L 11.34375 -3.578125 L 11.265625 -1.875 L 11.3125 -1.375 L 11.3125 -0.75 L 11 -0.25 L 10.46875 0.03125 L 2.171875 -0.03125 L 1.625 -0.21875 Z M 1.34375 -0.8125 "/></g></g></g><g fill="#ffffff" fill-opacity="1"><g transform="translate(114.439993, 54.38798)"><g><path d="M 2.0625 -0.8125 L 2.125 -1.34375 L 2.015625 -5.3125 L 2.125 -5.84375 L 2.046875 -18.15625 L 2.09375 -18.75 L 2.40625 -19.3125 L 2.96875 -19.609375 L 3.765625 -19.390625 L 4.578125 -18.796875 L 5.203125 -18.15625 L 5.5 -17.765625 L 5.890625 -17.40625 L 6.203125 -16.984375 L 6.5625 -16.59375 L 7.046875 -16.171875 L 7.703125 -15.34375 L 9.640625 -13.359375 L 9.96875 -12.90625 L 10.421875 -12.546875 L 10.75 -12.0625 L 11.125 -11.703125 L 11.625 -11.53125 L 12.234375 -11.734375 L 16.375 -16.125 L 16.625 -16.53125 L 18.21875 -18.1875 L 18.859375 -18.96875 L 19.5625 -19.359375 L 20.390625 -19.609375 L 20.953125 -19.28125 L 21.265625 -18.75 L 21.234375 -18.15625 L 21.28125 -17.6875 L 21.234375 -17.09375 L 21.3125 -9.1875 L 21.234375 -8.6875 L 21.28125 -8.125 L 21.234375 -7.546875 L 21.265625 -6.984375 L 21.171875 -6.421875 L 21.234375 -5.34375 L 21.171875 -4.8125 L 21.28125 -1.453125 L 21.203125 -0.890625 L 20.890625 -0.3125 L 20.359375 0.03125 L 17.015625 0 L 16.40625 -0.21875 L 16.125 -0.8125 L 16.203125 -4.671875 L 16.125 -5.703125 L 16.140625 -6.265625 L 16.125 -6.765625 L 16.203125 -7.296875 L 16.125 -7.84375 L 15.890625 -8.1875 L 15.5625 -8.125 L 15.171875 -7.734375 L 14.8125 -7.265625 L 12.453125 -4.890625 L 11.984375 -4.546875 L 11.34375 -4.546875 L 10.421875 -5.3125 L 10.0625 -5.78125 L 8.5 -7.265625 L 7.796875 -8.125 L 7.375 -8.234375 L 7.125 -7.84375 L 7.234375 -6.234375 L 7.15625 -2.453125 L 7.234375 -1.875 L 7.265625 -1.28125 L 7.203125 -0.75 L 6.90625 -0.3125 L 6.0625 -0.0625 L 2.984375 0 L 2.3125 -0.3125 Z M 2.0625 -0.8125 "/></g></g></g><g fill="#ffffff" fill-opacity="1"><g transform="translate(137.788535, 54.38798)"><g><path d="M 1.34375 -0.8125 L 1.34375 -2.96875 L 1.390625 -3.484375 L 1.734375 -4.015625 L 3.578125 -4.609375 L 3.859375 -5.21875 L 3.90625 -6.3125 L 3.796875 -7.515625 L 3.9375 -8.078125 L 3.828125 -9.15625 L 3.890625 -9.71875 L 3.90625 -10.875 L 3.828125 -11.515625 L 3.796875 -11.984375 L 3.890625 -14.359375 L 3.515625 -14.859375 L 1.8125 -15.453125 L 1.53125 -15.984375 L 1.53125 -16.515625 L 1.484375 -17.0625 L 1.484375 -17.6875 L 1.53125 -18.15625 L 1.53125 -18.6875 L 1.84375 -19.28125 L 2.453125 -19.5625 L 3.546875 -19.5 L 4.078125 -19.53125 L 5.78125 -19.5 L 6.390625 -19.5625 L 9.953125 -19.53125 L 10.84375 -19.28125 L 11.0625 -18.71875 L 11.125 -18.15625 L 11.0625 -17.65625 L 11.0625 -16.015625 L 10.75 -15.484375 L 10.21875 -15.171875 L 9.609375 -15.140625 L 9.078125 -14.828125 L 8.765625 -14.328125 L 8.765625 -13.15625 L 8.828125 -12.578125 L 8.765625 -12.015625 L 8.828125 -11.484375 L 8.765625 -10.609375 L 8.828125 -9.78125 L 8.71875 -8.609375 L 8.828125 -7.484375 L 8.765625 -5.203125 L 9.078125 -4.640625 L 10.953125 -4.046875 L 11.34375 -3.578125 L 11.265625 -1.875 L 11.3125 -1.375 L 11.3125 -0.75 L 11 -0.25 L 10.46875 0.03125 L 2.171875 -0.03125 L 1.625 -0.21875 Z M 1.34375 -0.8125 "/></g></g></g><g fill="#ffffff" fill-opacity="1"><g transform="translate(150.468247, 54.38798)"><g><path d="M 2.015625 -0.8125 L 2.125 -1.375 L 2.15625 -1.921875 L 2.09375 -3.015625 L 2.09375 -3.578125 L 2.046875 -4.21875 L 2.125 -4.71875 L 2.09375 -5.25 L 2.15625 -5.859375 L 2.0625 -6.453125 L 2.125 -7.578125 L 2.046875 -8.65625 L 2.125 -9.25 L 2.125 -14.25 L 2.0625 -14.75 L 2.125 -15.34375 L 2.015625 -16.765625 L 2.125 -17.578125 L 2.0625 -18.6875 L 2.34375 -19.3125 L 3.15625 -19.5 L 6.8125 -19.578125 L 7.3125 -19.53125 L 8.40625 -19.5625 L 8.96875 -19.5 L 10.203125 -19.5625 L 10.75 -19.46875 L 11.265625 -19.53125 L 13.5 -19.5 L 14.078125 -19.25 L 14.359375 -18.6875 L 14.28125 -18.15625 L 14.25 -17.546875 L 14.328125 -17.015625 L 14.390625 -15.875 L 14.078125 -15.359375 L 13.5 -15.0625 L 8.125 -15.03125 L 7.265625 -14.78125 L 6.984375 -13.96875 L 7.046875 -13.109375 L 7.375 -12.59375 L 7.84375 -12.296875 L 10.0625 -12.328125 L 10.703125 -12.265625 L 11.28125 -12.265625 L 11.84375 -12.328125 L 12.96875 -12.296875 L 13.4375 -11.984375 L 13.6875 -11.453125 L 13.75 -10.890625 L 13.6875 -8.6875 L 13.40625 -8.15625 L 12.84375 -7.84375 L 12.34375 -7.828125 L 11.765625 -7.875 L 11 -7.828125 L 9.53125 -7.90625 L 8.96875 -7.84375 L 7.875 -7.84375 L 7.375 -7.546875 L 7.125 -6.953125 L 7.09375 -5.59375 L 7.34375 -4.71875 L 7.9375 -4.390625 L 8.546875 -4.4375 L 9.15625 -4.390625 L 9.6875 -4.46875 L 13.375 -4.421875 L 14.21875 -4.140625 L 14.578125 -3.578125 L 14.53125 -3.046875 L 14.5625 -1.3125 L 14.5 -0.78125 L 14.25 -0.25 L 13.65625 0.03125 L 13.125 0.078125 L 11.421875 -0.03125 L 9.71875 0.0625 L 9.21875 -0.03125 L 2.90625 0.03125 L 2.375 -0.28125 Z M 2.015625 -0.8125 "/></g></g></g><g fill="#ffffff" fill-opacity="1"><g transform="translate(166.471497, 54.38798)"><g><path d="M 16.484375 -0.453125 L 16.125 -0.8125 L 15.78125 -1.234375 L 15.34375 -1.59375 L 14.96875 -2.046875 L 12.265625 -4.75 L 11.8125 -5.109375 L 7.828125 -9.03125 L 7.453125 -9.109375 L 7.1875 -8.765625 L 7.296875 -8.1875 L 7.203125 -1.34375 L 7.296875 -0.78125 L 7.046875 -0.21875 L 6.484375 0.0625 L 5.84375 0 L 5.25 0.078125 L 3.859375 0 L 2.90625 0.0625 L 2.375 -0.25 L 2.125 -0.859375 L 2.125 -1.390625 L 2.046875 -1.953125 L 2.125 -3.015625 L 2.0625 -3.578125 L 2.09375 -4.71875 L 2.015625 -5.3125 L 2.015625 -5.84375 L 2.0625 -6.453125 L 2.0625 -6.984375 L 2.125 -7.484375 L 2.015625 -11.484375 L 2.09375 -12.0625 L 2.0625 -12.65625 L 2.125 -13.15625 L 2.046875 -14.296875 L 2.09375 -14.859375 L 2.046875 -18.78125 L 2.40625 -19.3125 L 3.078125 -19.640625 L 3.828125 -19.421875 L 4.9375 -18.65625 L 6.453125 -17.125 L 6.8125 -16.65625 L 7.296875 -16.3125 L 7.578125 -15.890625 L 8.109375 -15.53125 L 8.40625 -15.109375 L 9.28125 -14.390625 L 9.859375 -13.765625 L 10.171875 -13.375 L 10.609375 -13.046875 L 11.59375 -12.046875 L 12.015625 -11.703125 L 13.25 -10.453125 L 13.640625 -10.34375 L 13.765625 -10.78125 L 13.75 -11.90625 L 13.859375 -12.484375 L 13.859375 -13.015625 L 13.75 -13.609375 L 13.765625 -18.6875 L 14.046875 -19.28125 L 14.71875 -19.5625 L 15.28125 -19.53125 L 15.78125 -19.578125 L 16.375 -19.5 L 16.984375 -19.5625 L 17.515625 -19.5625 L 18.078125 -19.5 L 18.6875 -19.21875 L 19.03125 -18.71875 L 18.96875 -17.265625 L 19.03125 -16.421875 L 18.90625 -15.875 L 18.90625 -14.75 L 18.96875 -14.21875 L 18.890625 -13.109375 L 19 -9.75 L 18.9375 -9.140625 L 19.046875 -8.359375 L 18.90625 -0.75 L 18.65625 -0.171875 L 18.015625 0.140625 L 17.296875 -0.078125 Z M 16.484375 -0.453125 "/></g></g></g><g fill="#ffffff" fill-opacity="1"><g transform="translate(187.529873, 54.38798)"><g><path d="M 5.359375 -0.859375 L 5.34375 -3.046875 L 5.390625 -3.609375 L 5.3125 -5.3125 L 5.34375 -5.890625 L 5.3125 -6.453125 L 5.421875 -7.296875 L 5.34375 -8.109375 L 5.34375 -9.21875 L 5.390625 -9.78125 L 5.34375 -10.3125 L 5.421875 -11.171875 L 5.34375 -14.25 L 5.0625 -14.78125 L 4.546875 -15.09375 L 2.0625 -15.109375 L 1.34375 -15.03125 L 0.78125 -15.3125 L 0.46875 -15.921875 L 0.5 -18.71875 L 0.78125 -19.28125 L 1.390625 -19.5625 L 9.71875 -19.5 L 10.359375 -19.578125 L 10.921875 -19.578125 L 11.484375 -19.53125 L 12.046875 -19.53125 L 12.65625 -19.609375 L 13.1875 -19.609375 L 13.640625 -19.5625 L 14.296875 -19.609375 L 14.859375 -19.328125 L 15.140625 -18.78125 L 15.09375 -16.484375 L 15.140625 -15.890625 L 14.859375 -15.34375 L 14.21875 -15.09375 L 12.6875 -15.109375 L 12.1875 -15.0625 L 11.625 -15.09375 L 11.140625 -15.0625 L 10.53125 -14.8125 L 10.3125 -14.296875 L 10.359375 -13.6875 L 10.28125 -13.125 L 10.390625 -7.578125 L 10.3125 -6.390625 L 10.359375 -5.890625 L 10.3125 -4.1875 L 10.21875 -3.609375 L 10.3125 -3.125 L 10.34375 -2.015625 L 10.28125 -1.375 L 10.3125 -0.84375 L 10.078125 -0.28125 L 9.53125 -0.0625 L 7.796875 -0.0625 L 7.265625 0 L 6.703125 -0.0625 L 6.171875 0 L 5.59375 -0.28125 Z M 5.359375 -0.859375 "/></g></g></g><g fill="#ffffff" fill-opacity="1"><g transform="translate(203.142117, 54.38798)"><g><path d="M 10.453125 0.328125 L 9.859375 0.28125 L 8.859375 0.0625 L 8.234375 0 L 7.4375 -0.28125 L 5.25 -1.390625 L 4.328125 -2.125 L 4.015625 -2.484375 L 3.609375 -2.875 L 3.234375 -3.328125 L 2.90625 -3.65625 L 1.625 -6.203125 L 1.375 -7.265625 L 1.3125 -7.796875 L 1.171875 -8.296875 L 1.09375 -8.890625 L 1.171875 -11.140625 L 1.640625 -13.296875 L 2.0625 -14.359375 L 2.9375 -15.84375 L 4.296875 -17.4375 L 5.25 -18.125 L 5.75 -18.390625 L 6.171875 -18.6875 L 8.265625 -19.46875 L 11.234375 -19.890625 L 11.984375 -19.859375 L 13.609375 -19.578125 L 15.75 -18.90625 L 16.171875 -18.609375 L 17.015625 -18.25 L 17.65625 -17.796875 L 18.46875 -17.09375 L 19.25 -16.234375 L 19.859375 -15.390625 L 20.390625 -14.359375 L 21.09375 -12.265625 L 21.28125 -11.125 L 21.375 -9.71875 L 21.265625 -8.90625 L 21.234375 -8.328125 L 21.09375 -7.765625 L 21.0625 -7.265625 L 20.84375 -6.203125 L 20.421875 -5.140625 L 19.1875 -3.265625 L 18.796875 -2.875 L 18.4375 -2.375 L 17.65625 -1.703125 L 17.125 -1.453125 L 16.703125 -1.125 L 15.78125 -0.609375 L 13.6875 0.078125 L 12.015625 0.3125 Z M 12.015625 -4.609375 L 12.578125 -4.71875 L 12.984375 -4.921875 L 13.5 -5.0625 L 14.828125 -5.984375 L 15.21875 -6.421875 L 15.390625 -6.84375 L 15.703125 -7.34375 L 15.890625 -7.84375 L 16.125 -8.890625 L 16.171875 -10.59375 L 16.09375 -11.09375 L 15.84375 -11.625 L 15.5 -12.6875 L 14.421875 -13.828125 L 13.546875 -14.4375 L 13.046875 -14.671875 L 12.546875 -14.78125 L 11.203125 -14.953125 L 10.421875 -14.890625 L 9.328125 -14.609375 L 8.96875 -14.46875 L 7.578125 -13.515625 L 6.90625 -12.625 L 6.734375 -12.125 L 6.515625 -11.625 L 6.421875 -11.09375 L 6.28125 -10.59375 L 6.28125 -8.890625 L 6.515625 -7.84375 L 6.765625 -7.34375 L 6.90625 -6.90625 L 7.296875 -6.375 L 7.65625 -5.984375 L 8.40625 -5.359375 L 8.859375 -5.109375 L 9.859375 -4.6875 L 10.46875 -4.609375 Z M 12.015625 -4.609375 "/></g></g></g><g clip-path="url(#34df791f28)"><g clip-path="url(#0538dfb925)"><g transform="matrix(1, 0, 0, 1, 13, 278)"><g clip-path="url(#9ad208911b)"><g clip-path="url(#a8219f87d5)"><g clip-path="url(#19e3fce1ca)"><path fill="#008000" d="M 0.4375 0.382812 L 282.582031 0.382812 L 282.582031 120.5625 L 0.4375 120.5625 Z M 0.4375 0.382812 " fill-opacity="1" fill-rule="nonzero"/></g></g></g></g></g></g><g fill="#ffffff" fill-opacity="1"><g transform="translate(143.110249, 347.216234)"><g/></g></g><g fill="#ffffff" fill-opacity="1"><g transform="translate(150.678975, 347.216234)"><g/></g></g><g fill="#ffffff" fill-opacity="1"><g transform="translate(158.2477, 347.216234)"><g/></g></g><g clip-path="url(#74ae0e3a1f)"><path fill="#000000" d="M 44.277344 80.136719 C 32.550781 80.136719 22.953125 89.730469 22.953125 101.460938 C 22.953125 113.1875 32.550781 122.785156 44.277344 122.785156 C 56.003906 122.785156 65.601562 113.1875 65.601562 101.460938 C 65.601562 89.730469 56.003906 80.136719 44.277344 80.136719 Z M 47.050781 111.269531 L 43.210938 111.269531 L 43.210938 96.128906 L 38.519531 97.621094 L 38.519531 94.421875 L 46.625 91.4375 L 47.050781 91.4375 Z M 47.050781 111.269531 " fill-opacity="1" fill-rule="nonzero"/></g><path fill="#5b7a0d" d="M 145.121094 102.984375 C 138.375 105.070312 132.542969 110.160156 129.898438 116.707031 C 127.25 123.25 127.976562 131.136719 132.054688 136.898438 C 136.136719 142.660156 143.542969 145.980469 150.515625 144.867188 C 155.632812 144.050781 160.246094 141.007812 163.527344 136.996094 C 167.972656 131.554688 169.832031 124.253906 169.054688 117.316406 C 168.65625 113.765625 167.433594 110.664062 165.960938 107.449219 C 164.515625 104.28125 162.898438 103.5 159.414062 102.65625 C 154.730469 101.515625 149.738281 101.5625 145.121094 102.984375 " fill-opacity="1" fill-rule="nonzero"/><path fill="#5b7a0d" d="M 202.644531 131.308594 C 202.675781 120.699219 196.023438 110.78125 186.808594 105.511719 C 166.15625 93.695312 142.375 108.65625 140.09375 132.589844 C 138.816406 146.042969 157.894531 152.917969 171.410156 152.722656 C 184.929688 152.523438 202.601562 144.824219 202.644531 131.308594 " fill-opacity="1" fill-rule="nonzero"/><path fill="#75a81e" d="M 185.847656 107.191406 C 184.496094 106.359375 183.039062 105.730469 181.449219 105.132812 C 178.355469 103.964844 175.066406 103.339844 171.753906 103.339844 C 168.90625 103.339844 166.0625 103.800781 163.355469 104.683594 C 162.34375 105.015625 157.492188 106.617188 158.757812 108.542969 C 159.160156 109.15625 160.089844 109.277344 160.742188 109.308594 C 163.445312 109.429688 165.785156 108.003906 168.417969 107.878906 C 168.882812 107.859375 169.375 107.976562 169.707031 108.300781 C 170.726562 109.289062 169.976562 111.496094 169.828125 112.710938 C 169.738281 113.449219 169.660156 114.25 170.054688 114.882812 C 171.632812 117.429688 174.757812 114.90625 176.503906 114.121094 C 179.035156 112.984375 181.957031 112.21875 184.75 112.265625 C 186.082031 112.285156 188.792969 112.847656 189.167969 110.953125 C 189.496094 109.292969 186.945312 107.863281 185.847656 107.191406 " fill-opacity="1" fill-rule="nonzero"/><path fill="#5b7a0d" d="M 145.71875 118.148438 C 145.113281 114.71875 142.84375 112.277344 139.320312 110.21875 C 124.988281 101.855469 111.367188 113.21875 112.597656 125.152344 C 112.957031 128.675781 116.179688 130.964844 119.523438 132.132812 C 125.769531 134.3125 132.972656 133.542969 138.617188 130.097656 C 144.265625 126.648438 146.867188 124.660156 145.71875 118.148438 " fill-opacity="1" fill-rule="nonzero"/><path fill="#75a81e" d="M 123.800781 112.566406 C 127.671875 112.441406 128.976562 113.792969 130.464844 113.675781 C 131.578125 113.585938 132.527344 112.824219 135.476562 113.335938 C 136.300781 113.476562 138.015625 113.441406 137.933594 112.175781 C 137.816406 110.367188 129.738281 107.929688 123.679688 110.414062 C 123.246094 110.589844 119.964844 111.785156 120.621094 112.625 C 121.175781 113.335938 122.976562 112.601562 123.71875 112.570312 C 123.746094 112.566406 123.773438 112.566406 123.800781 112.566406 " fill-opacity="1" fill-rule="nonzero"/><path fill="#546e12" d="M 175.839844 119.152344 C 170.410156 121.363281 165.953125 116.765625 167.140625 111.609375 C 167.222656 111.261719 166.871094 110.941406 166.542969 111.082031 C 157.792969 114.890625 154.578125 109.605469 153.316406 106.710938 C 152.34375 109.808594 149.117188 112.628906 146.097656 112.152344 C 144.265625 111.859375 143.121094 111.257812 142.816406 111.148438 C 141.394531 110.65625 142.863281 113.886719 140.808594 115.152344 C 139.347656 116.050781 133.027344 114.894531 133.597656 116.191406 C 134.84375 119.019531 135.683594 122.027344 136.074219 125.09375 C 134.824219 127.277344 135.515625 130.386719 136.945312 132.457031 C 138.378906 134.523438 140.613281 135.902344 142.914062 136.921875 C 147.871094 139.117188 153.449219 139.886719 158.816406 139.113281 C 164.183594 138.339844 169.316406 136.027344 173.453125 132.523438 C 175.167969 131.070312 176.738281 129.378906 177.644531 127.324219 C 178.550781 125.269531 178.71875 122.800781 177.683594 120.808594 C 177.144531 119.769531 176.925781 118.710938 175.839844 119.152344 " fill-opacity="1" fill-rule="nonzero"/><path fill="#648c0e" d="M 168.285156 122.089844 C 168.570312 121.425781 168.886719 120.769531 169.234375 120.128906 C 168.472656 119.675781 167.789062 119.082031 167.222656 118.367188 C 166.59375 117.582031 166.132812 116.691406 165.839844 115.738281 C 162.394531 116.433594 158.9375 117.078125 155.597656 118.199219 C 155.378906 118.273438 155.226562 118.132812 155.183594 117.957031 C 155.160156 117.933594 155.136719 117.902344 155.117188 117.863281 C 154.050781 115.652344 153.179688 113.335938 152.402344 110.988281 C 150.914062 112.554688 148.921875 113.671875 146.78125 113.671875 C 146.472656 113.671875 146.164062 113.648438 145.867188 113.601562 C 146.339844 115.414062 148.574219 122.214844 147.683594 120.710938 C 146.191406 118.457031 144.992188 116.011719 143.332031 113.871094 C 143.117188 114.761719 142.652344 115.738281 141.582031 116.402344 C 140.765625 116.902344 139.542969 117.003906 137.835938 117.003906 C 137.601562 117.003906 137.363281 117 137.125 116.996094 C 140.222656 119.851562 142.605469 123.503906 143.972656 127.492188 C 144.925781 127.292969 145.917969 127.285156 146.882812 127.195312 C 148.085938 127.082031 149.292969 127.035156 150.503906 127.019531 C 154.917969 126.960938 159.425781 127.398438 163.796875 126.609375 C 164.945312 126.402344 166.019531 126.046875 167.027344 125.542969 C 167.390625 124.371094 167.800781 123.21875 168.285156 122.089844 " fill-opacity="1" fill-rule="nonzero"/><g clip-path="url(#cd7535964e)"><path fill="#648c0e" d="M 123.394531 98.242188 C 140.410156 97.601562 148.757812 110.246094 149.546875 116.574219 C 149.605469 117.050781 149.894531 117.464844 150.320312 117.683594 C 151.945312 118.535156 155.589844 118.914062 157.074219 116.710938 C 157.222656 116.488281 157.3125 116.226562 157.320312 115.957031 C 157.878906 100.566406 143.585938 84.355469 125.648438 82.988281 C 121.378906 82.664062 117.378906 86.191406 116.871094 90.003906 C 116.332031 94.046875 119.519531 98.390625 123.394531 98.242188 " fill-opacity="1" fill-rule="nonzero"/><path fill="#546e12" d="M 125.210938 93.460938 C 128.039062 93.730469 130.875 94.457031 133.570312 95.351562 C 137.382812 96.617188 140.976562 98.5 144.082031 101.058594 C 146.988281 103.449219 149.402344 106.398438 151.324219 109.628906 C 152.914062 112.300781 154.179688 115.140625 155.226562 118.066406 C 155.964844 117.816406 156.621094 117.386719 157.074219 116.710938 C 157.222656 116.488281 157.3125 116.226562 157.320312 115.957031 C 157.878906 100.566406 143.585938 84.355469 125.648438 82.988281 C 121.378906 82.664062 117.378906 86.191406 116.871094 90.003906 C 116.660156 91.558594 117.007812 93.164062 117.734375 94.535156 C 120.09375 93.542969 122.628906 93.214844 125.210938 93.460938 " fill-opacity="1" fill-rule="nonzero"/></g><g clip-path="url(#b3f4fdf3c1)"><path fill="#648c0e" d="M 130.882812 91.085938 C 131.796875 86.394531 128.339844 82.96875 125.648438 82.988281 C 121.378906 82.664062 117.378906 86.191406 116.871094 90.003906 C 116.332031 94.046875 119.519531 98.390625 123.394531 98.242188 C 126.300781 98.132812 129.972656 95.777344 130.882812 91.085938 " fill-opacity="1" fill-rule="nonzero"/></g><path fill="#75a81e" d="M 149.097656 209.691406 C 145.605469 214.328125 136.382812 215.382812 128.617188 209.902344 C 125.542969 207.734375 123.394531 201.605469 122.242188 198.21875 C 108.199219 156.890625 98.398438 127.105469 114.984375 117.289062 C 126.507812 110.460938 140.519531 118.832031 145.625 130.0625 C 145.976562 130.839844 146.476562 132.410156 147.058594 134.597656 C 151.152344 150.023438 159.335938 196.089844 149.097656 209.691406 " fill-opacity="1" fill-rule="nonzero"/><path fill="#5b7a0d" d="M 149.097656 209.691406 C 145.605469 214.328125 136.382812 215.382812 128.617188 209.902344 C 125.542969 207.734375 123.394531 201.605469 122.242188 198.21875 C 129.378906 213.605469 132.707031 195.675781 131.03125 183.023438 C 129.070312 168.191406 124.804688 144.378906 135.550781 133.355469 C 139.980469 130.734375 143.773438 131.734375 147.058594 134.597656 C 151.152344 150.023438 159.335938 196.089844 149.097656 209.691406 " fill-opacity="1" fill-rule="nonzero"/><path fill="#bce87d" d="M 117.648438 119.683594 C 113.964844 121.882812 111.53125 125.679688 110.320312 129.730469 C 109.71875 131.734375 109.5 133.839844 109.507812 135.925781 C 109.511719 138.808594 109.308594 142.210938 110.523438 144.984375 C 111.785156 147.855469 115.863281 150.539062 119.082031 148.960938 C 121.890625 147.589844 121.105469 142.164062 121.320312 139.546875 C 121.671875 135.300781 122.832031 131.109375 127.179688 129.351562 C 129.554688 128.390625 132.238281 128.171875 133.277344 125.457031 C 134.753906 121.589844 131.085938 119.621094 128.042969 118.578125 C 124.488281 117.359375 120.773438 117.824219 117.648438 119.683594 " fill-opacity="1" fill-rule="nonzero"/><path fill="#5b7a0d" d="M 128.316406 187.582031 C 128.242188 184.574219 128.003906 181.578125 127.710938 178.59375 C 127.117188 172.582031 126.15625 166.636719 125.777344 160.59375 C 125.671875 158.910156 125.601562 157.226562 125.609375 155.539062 C 125.609375 154.695312 125.640625 153.859375 125.667969 153.019531 C 125.695312 152.1875 125.628906 151.351562 125.644531 150.515625 C 125.652344 150.238281 125.355469 150.222656 125.300781 150.464844 C 125.148438 151.140625 124.96875 151.820312 124.84375 152.507812 C 124.707031 153.246094 124.671875 154.03125 124.617188 154.785156 C 124.511719 156.269531 124.453125 157.761719 124.4375 159.257812 C 124.414062 162.253906 124.582031 165.257812 124.804688 168.246094 C 125.246094 174.261719 126.101562 180.222656 126.34375 186.257812 C 126.414062 187.949219 126.390625 189.632812 126.40625 191.320312 C 126.410156 192.160156 126.390625 193 126.417969 193.839844 C 126.445312 194.675781 126.609375 195.507812 126.632812 196.34375 C 126.648438 196.941406 127.222656 196.957031 127.355469 196.457031 C 127.535156 195.78125 127.769531 195.136719 127.949219 194.453125 C 128.140625 193.699219 128.1875 192.855469 128.246094 192.058594 C 128.355469 190.570312 128.351562 189.078125 128.316406 187.582031 " fill-opacity="1" fill-rule="nonzero"/><path fill="#75a81e" d="M 139.761719 209.757812 C 139.40625 209.613281 138.957031 209.601562 138.585938 209.535156 C 138.171875 209.46875 137.769531 209.445312 137.351562 209.410156 C 136.515625 209.335938 135.691406 209.207031 134.882812 208.96875 C 133.296875 208.496094 131.855469 207.597656 130.382812 206.863281 C 130.203125 206.773438 130.027344 206.957031 130.113281 207.136719 C 130.957031 208.890625 132.703125 209.882812 134.488281 210.46875 C 135.386719 210.765625 136.335938 210.96875 137.277344 210.988281 C 138.128906 211.007812 139.234375 210.867188 139.902344 210.273438 C 140.097656 210.101562 139.960938 209.835938 139.761719 209.757812 " fill-opacity="1" fill-rule="nonzero"/><path fill="#75a81e" d="M 170.234375 208.492188 C 176.132812 211.234375 192.964844 211.941406 197.75 196.53125 C 201.394531 182.714844 215.855469 137.269531 208.6875 124.277344 C 201.992188 112.148438 185.339844 111.476562 174.441406 117.820312 C 170.976562 119.835938 168.242188 122.65625 166.625 126.359375 C 163.554688 133.394531 163.203125 140.445312 164.566406 147.996094 C 168.203125 168.078125 163.046875 189.386719 170.234375 208.492188 " fill-opacity="1" fill-rule="nonzero"/><path fill="#5b7a0d" d="M 170.234375 208.492188 C 176.132812 211.234375 192.964844 211.941406 197.75 196.53125 C 200.519531 186.03125 209.535156 157.261719 210.558594 138.355469 C 206.992188 161.375 195.796875 188.445312 188.488281 189.839844 C 177.296875 192.121094 189.863281 153.808594 181.484375 135.328125 C 175.066406 124.035156 166.058594 175.300781 170.234375 208.492188 " fill-opacity="1" fill-rule="nonzero"/><path fill="#bce87d" d="M 202 125.078125 C 199.230469 128.492188 193.78125 127.488281 190.132812 126.394531 C 188.847656 126.011719 187.652344 125.230469 186.398438 124.859375 C 185.050781 124.460938 183.355469 124.617188 181.949219 124.539062 C 181.375 124.503906 180.792969 124.472656 180.246094 124.292969 C 179.699219 124.109375 179.183594 123.761719 178.929688 123.242188 C 177.539062 120.40625 180.722656 118.738281 182.925781 117.925781 C 193.097656 114.171875 206.164062 119.960938 202 125.078125 " fill-opacity="1" fill-rule="nonzero"/><path fill="#75a81e" d="M 199.011719 180.15625 C 197.976562 183.621094 196.785156 187.039062 195.679688 190.480469 C 195.132812 192.183594 194.546875 193.878906 193.925781 195.558594 C 193.617188 196.394531 193.320312 197.238281 193.082031 198.09375 C 192.832031 198.972656 192.539062 199.863281 192.414062 200.769531 C 192.382812 200.992188 192.679688 201.261719 192.859375 201.023438 C 193.9375 199.617188 194.714844 197.863281 195.328125 196.210938 C 195.957031 194.503906 196.550781 192.78125 197.105469 191.042969 C 198.230469 187.523438 198.945312 183.933594 199.507812 180.285156 C 199.554688 179.96875 199.109375 179.835938 199.011719 180.15625 " fill-opacity="1" fill-rule="nonzero"/><path fill="#75a81e" d="M 179.046875 130.980469 C 185.699219 138.546875 183.457031 158.011719 176.03125 203.199219 C 173.933594 215.96875 167.726562 219.53125 158.171875 219.53125 C 146.324219 219.53125 141.421875 211.085938 139.957031 203.371094 C 136.953125 187.546875 134.308594 170.195312 132.9375 155.59375 C 132.1875 147.601562 131.78125 136.964844 137.585938 130.519531 C 140.117188 127.707031 144.710938 125.863281 148.382812 125.371094 C 154.257812 124.589844 159.707031 124.117188 165.609375 124.511719 C 171.28125 124.886719 175.15625 126.550781 179.046875 130.980469 " fill-opacity="1" fill-rule="nonzero"/><path fill="#5b7a0d" d="M 179.046875 130.980469 C 185.699219 138.546875 183.457031 158.011719 176.03125 203.199219 C 173.933594 215.96875 167.726562 219.53125 158.171875 219.53125 C 146.324219 219.53125 141.421875 211.085938 139.957031 203.371094 C 136.953125 187.546875 134.308594 170.195312 132.9375 155.59375 C 153.089844 250.0625 188.804688 179.734375 179.046875 130.980469 " fill-opacity="1" fill-rule="nonzero"/><path fill="#bce87d" d="M 161.816406 145.796875 C 163.9375 144.824219 166.121094 143.992188 168.183594 142.898438 C 170.253906 141.800781 171.027344 140.859375 171.925781 138.640625 C 173.382812 135.050781 171.375 131.277344 168.109375 129.8125 C 163.652344 127.816406 158.71875 127.136719 153.882812 127.675781 C 149.253906 128.1875 144.601562 129.726562 141.074219 132.871094 C 138.300781 135.339844 137.40625 140.753906 137.171875 144.238281 C 136.960938 147.421875 136.820312 150.773438 137.78125 153.855469 C 139.488281 159.316406 146.679688 163.367188 151.253906 158.328125 C 152.445312 157.011719 152.433594 155.570312 152.847656 153.996094 C 153.847656 150.164062 157.828125 147.625 161.816406 145.796875 " fill-opacity="1" fill-rule="nonzero"/><path fill="#5b7a0d" d="M 177.367188 151.679688 C 177.328125 148.390625 177.296875 144.976562 176.445312 141.785156 C 176.347656 141.414062 175.839844 141.515625 175.808594 141.867188 C 175.558594 144.773438 175.742188 147.703125 175.664062 150.621094 C 175.585938 153.542969 175.472656 156.464844 175.207031 159.375 C 174.683594 165.136719 173.558594 170.78125 172.183594 176.390625 C 171.398438 179.597656 170.585938 182.800781 169.628906 185.960938 C 169.535156 186.277344 170.03125 186.492188 170.175781 186.183594 C 171.414062 183.535156 172.574219 180.828125 173.453125 178.035156 C 174.34375 175.207031 175.039062 172.34375 175.59375 169.429688 C 176.707031 163.617188 177.441406 157.601562 177.367188 151.679688 " fill-opacity="1" fill-rule="nonzero"/><path fill="#5b7a0d" d="M 172.152344 155.746094 C 172.144531 155.375 172.105469 155.007812 172.074219 154.636719 C 172.027344 154.160156 171.851562 153.828125 171.722656 153.382812 C 171.5625 152.835938 170.738281 152.800781 170.59375 153.382812 C 170.496094 153.785156 170.328125 154.101562 170.289062 154.527344 C 170.253906 154.933594 170.222656 155.339844 170.210938 155.746094 C 170.183594 156.523438 170.179688 157.296875 170.144531 158.074219 C 170.078125 159.664062 169.941406 161.246094 169.839844 162.832031 C 169.742188 164.371094 169.644531 165.914062 169.527344 167.453125 C 169.402344 169.054688 169.191406 170.648438 169.066406 172.25 C 169.042969 172.59375 169.523438 172.601562 169.628906 172.320312 C 170.183594 170.8125 170.582031 169.195312 170.953125 167.636719 C 171.316406 166.089844 171.601562 164.535156 171.800781 162.957031 C 172.003906 161.375 172.082031 159.78125 172.125 158.183594 C 172.144531 157.375 172.171875 156.558594 172.152344 155.746094 " fill-opacity="1" fill-rule="nonzero"/><path fill="#75a81e" d="M 174.507812 189.40625 C 173.933594 192.625 173.324219 195.835938 172.734375 199.046875 C 172.4375 200.664062 172.09375 202.269531 171.8125 203.890625 C 171.671875 204.703125 171.5625 205.519531 171.449219 206.339844 C 171.34375 207.109375 171.183594 207.882812 171.121094 208.660156 C 171.105469 208.875 171.445312 208.96875 171.535156 208.769531 C 171.855469 208.0625 172.078125 207.300781 172.328125 206.566406 C 172.59375 205.789062 172.851562 205.011719 173.058594 204.214844 C 173.480469 202.59375 173.773438 200.949219 174.050781 199.296875 C 174.601562 196.035156 174.871094 192.765625 174.917969 189.460938 C 174.925781 189.226562 174.546875 189.167969 174.507812 189.40625 " fill-opacity="1" fill-rule="nonzero"/><path fill="#ffaa00" d="M 73.257812 227.453125 C 68.453125 224.867188 64.820312 220.195312 63.496094 214.902344 C 61.855469 208.351562 63.757812 201.230469 67.628906 195.695312 C 71.5 190.160156 77.171875 186.085938 83.246094 183.132812 C 89.992188 184.324219 96.003906 187.222656 100.742188 192.164062 C 105.484375 197.105469 108.605469 203.578125 109.519531 210.363281 C 110.242188 215.769531 109.539062 221.480469 106.816406 226.203125 C 103.40625 232.109375 96.835938 236.058594 90.019531 236.289062 C 83.203125 236.523438 79.257812 230.6875 73.257812 227.453125 " fill-opacity="1" fill-rule="nonzero"/><path fill="#ffcc26" d="M 66.859375 214.226562 C 63.378906 214.15625 66.113281 197.6875 69.84375 201.605469 C 76.054688 208.132812 77.253906 209.828125 74.449219 210.347656 C 69.125 211.34375 68.355469 214.257812 66.859375 214.226562 " fill-opacity="1" fill-rule="nonzero"/><path fill="#ffaa00" d="M 122.476562 225.945312 C 115.6875 227.605469 108.402344 226.417969 102.039062 223.539062 C 95.671875 220.660156 90.144531 216.171875 85.257812 211.179688 C 78.789062 204.570312 73.136719 196.570312 71.933594 187.40625 C 71.050781 180.664062 72.734375 173.613281 76.570312 167.996094 C 80.40625 162.375 86.359375 158.242188 92.964844 156.609375 C 103.621094 153.976562 114.15625 162.734375 122.15625 170.25 C 127.386719 175.167969 131.714844 181.324219 133.207031 188.347656 C 134.621094 194.996094 133.402344 201.988281 130.9375 208.324219 C 128.476562 214.660156 126.109375 220.203125 122.476562 225.945312 " fill-opacity="1" fill-rule="nonzero"/><path fill="#ffcc26" d="M 79.058594 191.707031 C 78.160156 192.128906 77.1875 192.316406 76.410156 192.015625 C 74.714844 191.359375 74.632812 188.574219 74.4375 187.078125 C 73.785156 182.125 74.664062 176.988281 76.859375 172.507812 C 77.574219 171.042969 78.367188 169.582031 79.316406 168.257812 C 80.308594 166.867188 82.398438 165.242188 81.9375 168.054688 C 81.527344 170.566406 81.148438 173.078125 81.210938 175.632812 C 81.289062 178.679688 81.96875 181.671875 82.273438 184.699219 C 82.445312 186.445312 82.308594 188.300781 81.378906 189.792969 C 80.949219 190.488281 80.050781 191.242188 79.058594 191.707031 " fill-opacity="1" fill-rule="nonzero"/><path fill="#64931b" d="M 95.832031 188.648438 C 92.816406 189.617188 89.398438 189.25 86.65625 187.664062 C 86.4375 190.089844 85.273438 192.554688 83.679688 194.398438 C 82.082031 196.238281 79.898438 197.5625 77.523438 198.125 C 79.988281 200.339844 81.078125 204.082031 80.988281 207.394531 C 80.898438 210.707031 79.296875 213.949219 76.714844 216.03125 C 78.84375 217.050781 80.394531 218.851562 81.46875 220.949219 C 82.546875 223.054688 82.914062 225.507812 82.496094 227.832031 C 87.996094 226.328125 93.527344 224.011719 97.824219 220.261719 C 102.121094 216.511719 105.351562 211.40625 106.269531 205.777344 C 107.1875 200.152344 105.621094 194.039062 101.648438 189.945312 C 100.75 189.015625 99.695312 188.175781 98.449219 187.832031 C 97.199219 187.488281 96.683594 187.671875 95.832031 188.648438 " fill-opacity="1" fill-rule="nonzero"/><path fill="#8cc63f" d="M 88.953125 192.414062 C 88.582031 191.980469 88.1875 191.507812 87.824219 191.003906 C 87.226562 192.664062 86.296875 194.265625 85.109375 195.636719 C 83.890625 197.042969 82.371094 198.191406 80.691406 198.996094 C 82.019531 201.105469 82.65625 203.585938 82.832031 205.785156 C 83.230469 205.917969 83.613281 206.097656 83.992188 206.300781 C 84.097656 206.351562 84.199219 206.40625 84.300781 206.460938 C 86.441406 200.011719 88.152344 194.84375 88.953125 192.414062 " fill-opacity="1" fill-rule="nonzero"/><path fill="#8cc63f" d="M 104.402344 205.472656 C 105.261719 200.207031 103.6875 194.761719 100.292969 191.261719 C 99.710938 190.660156 89.171875 208.03125 86.429688 208.921875 C 85.007812 208.398438 83.878906 207.132812 82.878906 206.738281 C 82.886719 206.976562 82.886719 207.214844 82.878906 207.445312 C 82.824219 209.523438 82.261719 211.570312 81.28125 213.398438 C 81.585938 213.441406 81.882812 213.496094 82.179688 213.5625 C 85.867188 214.375 89.03125 216.839844 90.925781 220.078125 C 91.300781 220.726562 91.628906 221.394531 91.917969 222.082031 C 93.667969 221.101562 95.226562 220.019531 96.582031 218.839844 C 100.820312 215.136719 103.597656 210.390625 104.402344 205.472656 " fill-opacity="1" fill-rule="nonzero"/><path fill="#ffcc26" d="M 117.628906 263.207031 C 93.972656 261.519531 75.792969 253.8125 66.890625 244.21875 C 66.039062 243.300781 65.285156 242.285156 64.648438 241.207031 C 60.894531 234.808594 60.980469 225.792969 65.871094 220.222656 C 72.917969 212.191406 80.46875 212.953125 109.414062 224.371094 C 118.074219 227.785156 125.917969 230.792969 135.128906 232.308594 C 142.4375 233.507812 177.066406 227.742188 176.839844 235.144531 C 176.3125 252.320312 161.527344 266.339844 117.628906 263.207031 " fill-opacity="1" fill-rule="nonzero"/><path fill="#ffaa00" d="M 176.839844 235.144531 C 176.3125 252.320312 161.527344 266.339844 117.628906 263.207031 C 93.972656 261.519531 75.792969 253.8125 66.890625 244.21875 C 100.046875 269.699219 182.957031 257.953125 128.363281 236.511719 C 138.722656 230.847656 176.839844 235.144531 176.839844 235.144531 " fill-opacity="1" fill-rule="nonzero"/><path fill="#ffe8a6" d="M 82.796875 229.804688 C 81.050781 231.113281 78.9375 231.644531 76.824219 232.011719 C 75 232.332031 73.035156 232.898438 71.183594 232.914062 C 68.207031 232.941406 64.605469 230.847656 65.191406 227.441406 C 65.695312 224.539062 67.902344 221.472656 70.203125 219.679688 C 73.585938 217.042969 80.132812 216.832031 83.898438 218.8125 C 87.257812 220.582031 86.832031 224.953125 84.933594 227.617188 C 84.316406 228.488281 83.59375 229.210938 82.796875 229.804688 " fill-opacity="1" fill-rule="nonzero"/><path fill="#ffaa00" d="M 125.082031 253.816406 C 123.523438 253.625 121.914062 253.457031 120.351562 253.359375 C 118.835938 253.269531 117.332031 253.0625 115.816406 252.949219 C 112.753906 252.730469 109.679688 252.417969 106.636719 251.996094 C 100.527344 251.148438 94.527344 249.800781 88.613281 248.0625 C 82.445312 246.25 74.90625 244.039062 78.148438 245.902344 C 80.910156 247.484375 83.878906 248.671875 86.851562 249.785156 C 89.769531 250.878906 92.734375 251.792969 95.757812 252.558594 C 101.894531 254.113281 108.191406 255.152344 114.523438 255.359375 C 116.289062 255.417969 118.027344 255.320312 119.785156 255.230469 C 121.550781 255.140625 123.382812 254.921875 125.113281 254.550781 C 125.527344 254.464844 125.503906 253.871094 125.082031 253.816406 " fill-opacity="1" fill-rule="nonzero"/><path fill="#ffaa00" d="M 135.707031 249.140625 C 134.601562 249.066406 133.5 249.042969 132.390625 249.03125 C 130.164062 249.003906 127.9375 249.007812 125.710938 248.953125 C 120.683594 248.824219 110.445312 248.890625 112.308594 249.613281 C 113.367188 250.023438 114.523438 250.167969 115.660156 250.308594 C 116.808594 250.449219 117.960938 250.578125 119.113281 250.683594 C 121.332031 250.894531 123.570312 250.964844 125.796875 251.015625 C 128.039062 251.070312 130.269531 251.066406 132.503906 250.929688 C 133.613281 250.863281 134.707031 250.757812 135.796875 250.578125 C 136.894531 250.394531 138.09375 250.320312 139.144531 249.96875 C 140.863281 249.390625 136.792969 249.210938 135.707031 249.140625 " fill-opacity="1" fill-rule="nonzero"/><path fill="#ffcc26" d="M 181.261719 211.398438 C 181.230469 211.570312 181.191406 211.738281 181.15625 211.90625 C 181.136719 211.988281 181.117188 212.074219 181.097656 212.15625 C 181.023438 212.5 180.941406 212.84375 180.855469 213.191406 C 180.589844 214.253906 150.804688 205.941406 149.253906 205.636719 C 144.289062 204.667969 139.339844 203.589844 134.421875 202.410156 C 122.84375 199.632812 98.667969 194.675781 95.355469 193.195312 C 94.007812 192.589844 92.746094 191.808594 91.601562 190.882812 C 80.828125 182.148438 70.890625 131.84375 136.980469 162.4375 C 155.910156 171.199219 179.898438 179.796875 181.929688 200.957031 C 182.234375 204.136719 182.042969 207.605469 181.261719 211.398438 " fill-opacity="1" fill-rule="nonzero"/><path fill="#ffaa00" d="M 180.636719 214.078125 C 180.371094 215.144531 150.582031 206.832031 149.03125 206.527344 C 144.066406 205.558594 139.121094 204.480469 134.203125 203.296875 C 122.621094 200.523438 98.445312 195.5625 95.132812 194.082031 C 93.785156 193.480469 94.203125 192.867188 93.058594 191.941406 C 94.515625 184.09375 98.625 176.0625 112.558594 176.632812 C 120.140625 176.949219 130.542969 179.851562 148.390625 183.457031 C 167.441406 187.308594 173.285156 197.140625 181.707031 201.847656 C 182.0625 205.523438 181.75 209.578125 180.636719 214.078125 " fill-opacity="1" fill-rule="nonzero"/><path fill="#ffaa00" d="M 181.261719 211.398438 C 181.230469 211.570312 181.191406 211.738281 181.15625 211.90625 C 181.136719 211.988281 181.117188 212.074219 181.097656 212.15625 C 181.023438 212.5 180.941406 212.84375 180.855469 213.191406 C 152.175781 207.519531 119.421875 188.351562 120.644531 177.808594 C 137.265625 180.253906 131.882812 160.171875 140.28125 163.941406 C 158.585938 172.226562 180.015625 181.007812 181.929688 200.957031 C 182.234375 204.136719 182.042969 207.605469 181.261719 211.398438 " fill-opacity="1" fill-rule="nonzero"/><path fill="#ffe8a6" d="M 93.957031 157.496094 C 101.023438 153.207031 116.65625 157.371094 125.539062 161.121094 C 131.457031 163.621094 128.875 169.332031 124.011719 170.289062 C 120.414062 171 109.136719 167.484375 102.351562 171.617188 C 99.308594 173.46875 95.199219 178.363281 91.152344 176.75 C 85.738281 174.59375 86.898438 161.78125 93.957031 157.496094 " fill-opacity="1" fill-rule="nonzero"/><path fill="#ffcc26" d="M 98.535156 227.585938 C 116.457031 236.566406 183.90625 258.140625 190.371094 228.488281 C 194.316406 210.398438 160.140625 194.78125 146.046875 189.335938 C 141.65625 187.636719 137.164062 186.257812 132.613281 185.066406 C 124.882812 183.039062 116.996094 181.550781 109.160156 179.941406 C 86.335938 175.648438 82.335938 221.464844 98.535156 227.585938 " fill-opacity="1" fill-rule="nonzero"/><path fill="#ffaa00" d="M 98.535156 227.585938 C 116.457031 236.566406 183.90625 258.140625 190.371094 228.488281 C 194.316406 210.398438 160.140625 194.78125 146.046875 189.335938 C 141.65625 187.636719 137.164062 186.257812 132.613281 185.066406 C 121.863281 190.644531 162.144531 247.316406 98.535156 227.585938 " fill-opacity="1" fill-rule="nonzero"/><path fill="#ffe8a6" d="M 92.792969 201.414062 C 92.039062 206.714844 93.710938 210.054688 99.625 210.007812 C 102.683594 209.984375 106.675781 208.707031 109.117188 206.816406 C 111.535156 204.941406 112.910156 203.574219 116.238281 203.320312 C 118.921875 203.117188 121.785156 203.265625 124.09375 201.878906 C 128.144531 199.449219 128.855469 193.730469 124.96875 191.195312 C 121.617188 189.011719 118.203125 187.105469 114.347656 185.945312 C 107.132812 183.78125 98.074219 184.199219 94.898438 192.25 C 93.804688 195.035156 93.214844 198.457031 92.792969 201.414062 " fill-opacity="1" fill-rule="nonzero"/><path fill="#ffaa00" d="M 123.59375 227.566406 C 122.605469 227.429688 121.59375 227.4375 120.597656 227.347656 C 119.664062 227.261719 118.722656 227.210938 117.789062 227.160156 C 115.863281 227.050781 113.953125 226.910156 112.046875 226.609375 C 110.148438 226.3125 108.257812 225.929688 106.402344 225.421875 C 104.546875 224.914062 102.726562 224.089844 100.820312 223.804688 C 100.300781 223.726562 100.058594 224.433594 100.457031 224.734375 C 102.042969 225.925781 104.128906 226.480469 106.007812 227.03125 C 107.925781 227.589844 109.875 228.039062 111.847656 228.335938 C 113.8125 228.628906 115.824219 228.855469 117.8125 228.839844 C 119.742188 228.824219 121.820312 228.660156 123.664062 228.046875 C 123.914062 227.964844 123.824219 227.597656 123.59375 227.566406 " fill-opacity="1" fill-rule="nonzero"/><path fill="#64931b" d="M 87.621094 207.765625 C 87.105469 208.65625 86.402344 209.191406 85.609375 208.941406 C 82.558594 207.980469 64.332031 199.078125 56.074219 177.496094 C 55.808594 176.796875 55.550781 176.082031 55.308594 175.359375 C 51.507812 171.683594 56.769531 160.941406 62.976562 161.425781 C 64.636719 161.558594 65.605469 162.316406 66.101562 163.292969 C 66.65625 164.382812 66.625 165.742188 66.320312 166.796875 C 69.136719 188.320312 86.03125 200.675781 87.492188 201.464844 C 88.421875 201.96875 88.683594 203.488281 88.492188 205.035156 C 88.371094 206.023438 88.0625 207.019531 87.621094 207.765625 " fill-opacity="1" fill-rule="nonzero"/><path fill="#8cc63f" d="M 85.609375 208.941406 C 82.558594 207.980469 64.332031 199.078125 56.074219 177.496094 C 55.808594 176.796875 55.550781 176.082031 55.308594 175.359375 C 51.507812 171.683594 56.769531 160.941406 62.976562 161.425781 C 64.636719 161.558594 65.605469 162.316406 66.101562 163.292969 C 57.992188 167.976562 60.496094 177.25 61.257812 179.179688 C 66.28125 193.101562 81.082031 206.652344 87.621094 207.765625 C 87.703125 207.78125 87.785156 207.792969 87.867188 207.804688 C 89.46875 211.898438 86.652344 211.203125 85.609375 208.941406 " fill-opacity="1" fill-rule="nonzero"/><path fill="#c11f1b" d="M 216.53125 221.738281 C 220.6875 215.210938 222.039062 207.160156 221.285156 199.460938 C 220.535156 191.761719 217.792969 184.375 214.296875 177.472656 C 209.671875 168.34375 203.296875 159.566406 194.113281 155.042969 C 187.355469 151.714844 179.363281 150.96875 172.109375 152.988281 C 164.851562 155.007812 158.394531 159.773438 154.328125 166.117188 C 147.769531 176.347656 153.203125 190.503906 158.238281 201.5625 C 161.527344 208.796875 166.449219 215.527344 173.28125 219.589844 C 179.75 223.441406 187.515625 224.652344 195.039062 224.332031 C 202.558594 224.007812 209.210938 223.5 216.53125 221.738281 " fill-opacity="1" fill-rule="nonzero"/><path fill="#c11f1b" d="M 235.640625 170.691406 C 234.636719 164.734375 231.03125 159.265625 225.953125 155.992188 C 219.667969 151.941406 211.523438 151.398438 204.339844 153.484375 C 197.15625 155.570312 190.863281 160.0625 185.601562 165.375 C 184.449219 172.871094 185.351562 180.203125 188.84375 186.929688 C 192.335938 193.660156 198.011719 199.234375 204.804688 202.605469 C 210.214844 205.292969 216.453125 206.589844 222.378906 205.414062 C 229.785156 203.949219 236.265625 198.464844 238.9375 191.40625 C 241.609375 184.34375 236.894531 178.136719 235.640625 170.691406 " fill-opacity="1" fill-rule="nonzero"/><path fill="#e0392d" d="M 209.613281 155.53125 C 208.230469 156.867188 212.417969 164.675781 213.652344 167.082031 C 214.070312 167.894531 214.320312 169.046875 215.300781 169.351562 C 217.367188 169.984375 218.640625 167.359375 219.292969 165.890625 C 220.429688 163.34375 222.019531 162.085938 224.347656 160.738281 C 229.796875 157.585938 212.742188 152.519531 209.613281 155.53125 " fill-opacity="1" fill-rule="nonzero"/><path fill="#e0392d" d="M 180.855469 161.746094 C 183.53125 163.199219 195.117188 173.8125 192.640625 162.53125 C 189.496094 148.238281 165.226562 156.527344 165.035156 159.488281 C 164.816406 162.859375 175.433594 158.804688 180.855469 161.746094 " fill-opacity="1" fill-rule="nonzero"/><path fill="#64931b" d="M 186.902344 180.53125 C 187.4375 180.308594 188.015625 178.75 188.242188 178.25 C 188.644531 177.355469 188.945312 176.414062 189.132812 175.453125 C 189.316406 174.539062 189.398438 173.601562 189.375 172.671875 C 189.359375 172.097656 189.386719 171.363281 189.90625 170.980469 C 190.417969 170.609375 191.042969 170.859375 191.636719 170.882812 C 193.539062 170.953125 195.503906 170.558594 197.261719 169.839844 C 198.660156 169.273438 199.957031 168.453125 201.074219 167.4375 C 201.734375 166.847656 202.277344 165.664062 203.210938 165.453125 C 204.214844 165.226562 204.496094 166.722656 205.050781 167.359375 C 206.824219 169.398438 209.28125 170.855469 211.851562 171.648438 C 213.695312 172.222656 215.667969 172.347656 217.578125 172.050781 C 218.558594 171.898438 219.507812 171.628906 220.433594 171.269531 C 220.972656 171.058594 221.703125 170.730469 222.261719 171.0625 C 222.855469 171.417969 222.914062 172.386719 223.167969 172.988281 C 223.800781 174.484375 224.769531 175.824219 225.894531 176.984375 C 226.976562 178.09375 228.273438 178.988281 229.691406 179.617188 C 230.195312 179.839844 231.207031 179.960938 231.554688 180.386719 C 232.382812 181.414062 230.859375 183.171875 230.28125 183.914062 C 229.25 185.238281 228.15625 186.519531 227 187.734375 C 224.730469 190.101562 222.191406 192.230469 219.351562 193.878906 C 213.886719 197.046875 207.378906 198.609375 201.152344 197.570312 C 194.925781 196.527344 189.070312 192.710938 186.195312 187.089844 C 185.539062 185.8125 185.03125 184.410156 185.117188 182.980469 C 185.203125 181.546875 185.578125 181.078125 186.902344 180.53125 " fill-opacity="1" fill-rule="nonzero"/><path fill="#8cc63f" d="M 192.347656 184.296875 C 193.863281 185.125 195.394531 185.9375 196.988281 186.601562 C 197.769531 186.925781 198.5625 187.21875 199.363281 187.484375 C 200.921875 184.925781 202.8125 182.175781 204.828125 180.925781 C 205.105469 180.75 205.445312 181.027344 205.332031 181.335938 C 204.59375 183.320312 204.015625 186.070312 203.628906 188.59375 C 207.570312 189.355469 211.648438 189.441406 215.613281 188.804688 C 219.105469 188.246094 222.484375 187.113281 225.558594 185.429688 C 226.550781 184.359375 227.527344 183.199219 228.488281 181.949219 C 227.980469 181.71875 227.488281 181.457031 227.011719 181.171875 C 224.441406 182.695312 222.140625 184.039062 222.140625 184.039062 L 208.992188 178.851562 L 209.476562 175.90625 L 223.476562 176.824219 C 222.746094 175.90625 221.199219 174.933594 221.199219 174.933594 C 220.449219 173.746094 219.402344 174.394531 218.257812 174.59375 C 216.9375 174.824219 215.589844 174.882812 214.257812 174.769531 C 213.167969 174.675781 212.097656 174.46875 211.074219 174.152344 C 208.542969 173.367188 206.152344 172.039062 204.210938 170.230469 C 203.621094 169.679688 203.492188 169.535156 202.691406 169.816406 C 202.148438 170.003906 203.8125 176.0625 203.316406 176.355469 C 202.292969 173.777344 199.785156 171.4375 199.308594 171.734375 C 198.835938 172.03125 198.773438 172.054688 198.25 172.265625 C 196.796875 172.859375 195.257812 173.242188 193.699219 173.40625 C 198.703125 175.285156 200.054688 178.175781 198.332031 177.316406 C 196.609375 176.457031 194.589844 175.214844 191.800781 175.378906 C 191.675781 176.1875 191.484375 176.980469 191.230469 177.757812 C 190.734375 179.285156 190 180.742188 189.046875 182.035156 C 190 182.964844 191.191406 183.667969 192.347656 184.296875 " fill-opacity="1" fill-rule="nonzero"/><path fill="#e0392d" d="M 185.699219 242.566406 C 185.460938 244.296875 184.773438 262.671875 183.597656 262.960938 C 183.296875 263.03125 183 263.101562 182.707031 263.167969 C 152.34375 269.730469 145.824219 225.648438 143.929688 212.824219 C 143.285156 208.453125 142.882812 204.039062 142.78125 199.617188 C 142.585938 190.785156 143.476562 181.582031 146.816406 173.324219 C 155.433594 152.039062 182.472656 166.113281 186.726562 175.65625 C 191.382812 186.101562 190.5625 198.152344 189.335938 209.191406 C 188.71875 214.746094 188.105469 220.304688 187.59375 225.875 C 187.078125 231.449219 186.445312 237.015625 185.699219 242.566406 " fill-opacity="1" fill-rule="nonzero"/><path fill="#c11f1b" d="M 183.597656 262.960938 C 183.296875 263.03125 183 263.101562 182.707031 263.167969 C 152.34375 269.730469 145.824219 225.648438 143.929688 212.824219 C 156.996094 258.996094 170.289062 252.738281 169.683594 225.246094 C 180.609375 221.011719 186.445312 237.015625 185.699219 242.566406 C 185.460938 244.296875 184.773438 262.671875 183.597656 262.960938 " fill-opacity="1" fill-rule="nonzero"/><path fill="#e0392d" d="M 257.332031 229.925781 C 248.265625 264.515625 229.566406 269.429688 218.363281 267.160156 C 214.304688 266.335938 211.234375 264.570312 209.960938 262.929688 C 204.929688 256.453125 217.355469 245.351562 218.695312 237.261719 C 220.386719 227.070312 220.027344 217.78125 219.527344 207.488281 C 219.273438 202.203125 218.015625 196.296875 218.703125 190.605469 C 219.121094 187.167969 220.246094 183.808594 222.738281 180.710938 C 221.878906 180.875 220.953125 179.867188 220.382812 178.1875 C 218.886719 173.8125 219.8125 164.878906 230.6875 160.375 C 238.273438 157.234375 247.757812 160.359375 253.125 166.570312 C 254.035156 167.621094 254.828125 168.769531 255.488281 169.992188 C 262.378906 182.738281 263.988281 204.535156 257.332031 229.925781 " fill-opacity="1" fill-rule="nonzero"/><path fill="#c11f1b" d="M 257.332031 229.925781 C 248.265625 264.515625 229.566406 269.429688 218.363281 267.160156 C 214.304688 266.335938 211.234375 264.570312 209.960938 262.929688 C 217.542969 264.109375 223.257812 257.207031 228.882812 243.097656 C 241.652344 240.121094 263.449219 210.039062 255.488281 169.992188 C 262.378906 182.738281 263.988281 204.535156 257.332031 229.925781 " fill-opacity="1" fill-rule="nonzero"/><g clip-path="url(#adf9bc1bf0)"><path fill="#e0392d" d="M 173.027344 191.398438 C 171.28125 205.351562 169.15625 219.347656 169.742188 233.398438 C 170.433594 250.105469 174.367188 273.089844 194.746094 275.398438 C 228.144531 279.183594 229.8125 219.214844 226.777344 197.230469 C 225.070312 184.871094 209.707031 182.074219 202.882812 184.714844 C 196.644531 173.367188 175.121094 174.667969 173.027344 191.398438 " fill-opacity="1" fill-rule="nonzero"/></g><g clip-path="url(#f019cbfa82)"><path fill="#c11f1b" d="M 173.027344 191.398438 C 171.28125 205.351562 169.15625 219.347656 169.742188 233.398438 C 170.433594 250.105469 174.367188 273.089844 194.746094 275.398438 C 228.144531 279.183594 229.8125 219.214844 226.777344 197.230469 C 226.511719 273.492188 163.59375 293.425781 173.027344 191.398438 " fill-opacity="1" fill-rule="nonzero"/></g><path fill="#64931b" d="M 209.003906 178.851562 C 211.355469 179.132812 214.433594 178.351562 214.816406 176.699219 C 215.234375 174.910156 223.488281 153.261719 245.65625 143.957031 C 247.964844 143.992188 251.148438 142.648438 250.414062 138.816406 C 249.113281 132.046875 236.101562 129.574219 233.285156 134.707031 C 210.867188 149.832031 206.421875 173.226562 206.28125 176.878906 C 206.238281 178.023438 207.464844 178.664062 209.003906 178.851562 " fill-opacity="1" fill-rule="nonzero"/><path fill="#8cc63f" d="M 209.003906 178.851562 C 213.175781 156.234375 235.886719 133.367188 250.414062 138.816406 C 249.113281 132.046875 236.101562 129.574219 233.285156 134.707031 C 210.867188 149.832031 206.421875 173.226562 206.28125 176.878906 C 206.238281 178.023438 207.464844 178.664062 209.003906 178.851562 " fill-opacity="1" fill-rule="nonzero"/><path fill="#c11f1b" d="M 235.914062 176.777344 C 235.914062 176.777344 228.320312 175.421875 222.738281 180.710938 C 221.878906 180.875 220.953125 179.867188 220.382812 178.1875 C 226.042969 171.921875 235.914062 176.777344 235.914062 176.777344 " fill-opacity="1" fill-rule="nonzero"/><path fill="#ff8c7d" d="M 160.503906 176.757812 C 164.53125 178.5625 169.753906 178.886719 173.210938 178.28125 C 177.203125 177.585938 178.652344 173.925781 175.722656 170.929688 C 172.65625 167.792969 168.089844 165.675781 163.71875 165.339844 C 159.859375 165.039062 152.84375 166.898438 155.386719 172.21875 C 156.367188 174.265625 158.246094 175.746094 160.503906 176.757812 " fill-opacity="1" fill-rule="nonzero"/><path fill="#ff8c7d" d="M 226.191406 170.644531 C 229.433594 174.453125 245.484375 172.90625 242.398438 165.355469 C 238.773438 156.480469 222.078125 165.816406 226.191406 170.644531 " fill-opacity="1" fill-rule="nonzero"/><path fill="#ff8c7d" d="M 152.609375 183.613281 C 157.902344 185.34375 157.839844 220.765625 153.203125 222.347656 C 147.570312 224.273438 144.417969 180.9375 152.609375 183.613281 " fill-opacity="1" fill-rule="nonzero"/><path fill="#ff8c7d" d="M 180.945312 183.613281 C 179.433594 186.507812 180.867188 190.332031 183.785156 192.226562 C 190.960938 196.894531 199.875 198.84375 208.351562 197.808594 C 211.136719 197.46875 214.3125 196.136719 215.152344 193.242188 C 215.660156 191.507812 215.121094 189.839844 213.746094 188.671875 C 211.976562 187.160156 208.253906 187.289062 206.097656 187.523438 C 203.832031 187.769531 201.246094 189.257812 198.976562 188.273438 C 196.746094 187.308594 195.941406 184.503906 194.042969 183.015625 C 191.265625 180.835938 186.191406 179.386719 183.011719 181.417969 C 182.058594 182.027344 181.378906 182.78125 180.945312 183.613281 " fill-opacity="1" fill-rule="nonzero"/><path fill="#ff8c7d" d="M 232.214844 188.1875 C 237.433594 187.765625 240.074219 179.757812 233.628906 179.5625 C 230.617188 179.472656 224.703125 181.171875 224.308594 184.609375 C 223.996094 187.304688 230.6875 188.3125 232.214844 188.1875 " fill-opacity="1" fill-rule="nonzero"/><path fill="#c11f1b" d="M 222.976562 205.398438 C 222.957031 202.46875 222.855469 199.511719 222.222656 196.640625 C 222.128906 196.207031 221.433594 196.195312 221.417969 196.675781 C 221.332031 199.238281 221.429688 201.800781 221.363281 204.363281 C 221.292969 206.941406 221.089844 209.511719 220.820312 212.074219 C 220.292969 217.132812 219.222656 222.09375 217.96875 227.015625 C 217.621094 228.382812 217.292969 229.769531 216.886719 231.121094 C 216.6875 231.800781 216.511719 232.484375 216.292969 233.15625 C 216.0625 233.878906 215.789062 234.59375 215.605469 235.328125 C 215.527344 235.640625 215.953125 235.925781 216.144531 235.605469 C 216.800781 234.527344 217.3125 233.300781 217.816406 232.144531 C 218.335938 230.945312 218.839844 229.746094 219.285156 228.519531 C 220.179688 226.070312 220.839844 223.554688 221.390625 221.007812 C 222.5 215.890625 223.011719 210.632812 222.976562 205.398438 " fill-opacity="1" fill-rule="nonzero"/><path fill="#c11f1b" d="M 252.265625 197.519531 C 252.632812 191.683594 252.597656 185.847656 252.117188 180.019531 C 251.984375 178.402344 251.816406 176.789062 251.613281 175.175781 C 251.410156 173.566406 251.207031 171.953125 250.621094 170.429688 C 250.53125 170.191406 250.171875 170.273438 250.152344 170.511719 C 250.03125 171.917969 250.175781 173.320312 250.300781 174.722656 C 250.433594 176.175781 250.535156 177.632812 250.628906 179.089844 C 250.804688 181.9375 250.855469 184.78125 250.878906 187.632812 C 250.933594 193.378906 250.574219 199.117188 249.984375 204.832031 C 249.648438 208.058594 249.417969 211.296875 248.949219 214.503906 C 248.90625 214.800781 249.394531 214.914062 249.46875 214.617188 C 250.167969 211.800781 250.832031 208.988281 251.339844 206.128906 C 251.839844 203.289062 252.082031 200.394531 252.265625 197.519531 " fill-opacity="1" fill-rule="nonzero"/><path fill="#c11f1b" d="M 245.800781 207.214844 C 245.949219 204.957031 246.058594 202.679688 245.796875 200.429688 C 245.769531 200.175781 245.429688 200.230469 245.386719 200.449219 C 245.003906 202.421875 244.816406 204.429688 244.578125 206.425781 C 244.339844 208.394531 244.078125 210.363281 243.789062 212.324219 C 243.203125 216.269531 242.371094 220.171875 241.585938 224.082031 C 241.363281 225.199219 241.148438 226.316406 240.890625 227.425781 C 240.644531 228.492188 240.335938 229.582031 240.1875 230.664062 C 240.144531 230.976562 240.566406 231.015625 240.683594 230.773438 C 241.132812 229.871094 241.441406 228.867188 241.761719 227.914062 C 242.089844 226.953125 242.410156 225.988281 242.703125 225.015625 C 243.285156 223.082031 243.773438 221.128906 244.175781 219.152344 C 244.976562 215.226562 245.539062 211.210938 245.800781 207.214844 " fill-opacity="1" fill-rule="nonzero"/><path fill="#c11f1b" d="M 210.75 242.949219 C 209.808594 243.953125 209.050781 245.136719 208.289062 246.277344 C 207.5 247.457031 206.660156 248.613281 205.742188 249.695312 C 203.929688 251.851562 201.777344 253.59375 199.574219 255.328125 C 198.960938 255.8125 198.316406 256.257812 197.6875 256.722656 C 197.054688 257.195312 196.320312 257.574219 195.726562 258.085938 C 195.519531 258.265625 195.679688 258.613281 195.953125 258.570312 C 196.632812 258.457031 197.308594 258.125 197.945312 257.871094 C 198.636719 257.59375 199.289062 257.261719 199.941406 256.902344 C 201.242188 256.175781 202.460938 255.292969 203.574219 254.304688 C 205.757812 252.375 207.777344 250.117188 209.277344 247.613281 C 210.101562 246.234375 210.867188 244.695312 210.996094 243.078125 C 211.003906 242.957031 210.84375 242.851562 210.75 242.949219 " fill-opacity="1" fill-rule="nonzero"/><path fill="#e0392d" d="M 236.417969 258.417969 C 234.390625 260.160156 231.886719 261.277344 229.375 262.128906 C 228.15625 262.542969 226.894531 262.816406 225.613281 262.953125 C 224.9375 263.023438 224.257812 263.027344 223.582031 263.085938 C 222.921875 263.140625 222.273438 263.230469 221.617188 263.316406 C 221.21875 263.371094 221.234375 263.902344 221.554688 264.042969 C 224.210938 265.21875 227.378906 264.621094 230.054688 263.765625 C 232.796875 262.882812 235.066406 261.023438 236.898438 258.851562 C 237.140625 258.566406 236.691406 258.183594 236.417969 258.417969 " fill-opacity="1" fill-rule="nonzero"/><path fill="#e0392d" d="M 256.648438 216.625 C 256.648438 216.371094 256.25 216.261719 256.183594 216.539062 C 255.539062 219.253906 255.03125 222 254.367188 224.710938 C 253.699219 227.433594 252.9375 230.140625 252.027344 232.792969 C 250.203125 238.101562 247.800781 243.199219 244.867188 247.980469 C 244.035156 249.335938 243.191406 250.683594 242.296875 251.996094 C 241.429688 253.277344 240.523438 254.542969 239.964844 255.992188 C 239.933594 256.070312 240.035156 256.167969 240.109375 256.117188 C 241.253906 255.34375 242.167969 254.296875 242.988281 253.195312 C 243.84375 252.046875 244.675781 250.878906 245.453125 249.679688 C 246.988281 247.300781 248.363281 244.808594 249.613281 242.265625 C 252.117188 237.167969 254.183594 231.761719 255.417969 226.210938 C 256.113281 223.089844 256.675781 219.835938 256.648438 216.625 " fill-opacity="1" fill-rule="nonzero"/><path fill="#e0392d" d="M 201.375 270.28125 C 200.546875 270.296875 199.71875 270.257812 198.886719 270.242188 C 198.058594 270.230469 197.230469 270.277344 196.402344 270.25 C 194.730469 270.195312 193.074219 269.957031 191.476562 269.457031 C 188.628906 268.570312 185.984375 266.910156 183.855469 264.832031 C 183.265625 264.253906 182.714844 263.644531 182.203125 262.996094 C 181.9375 262.65625 181.664062 262.320312 181.382812 261.996094 C 181.253906 261.851562 181.125 261.671875 180.980469 261.542969 C 180.835938 261.414062 180.65625 261.375 180.53125 261.21875 C 180.484375 261.164062 180.371094 261.207031 180.390625 261.285156 C 180.4375 261.449219 180.398438 261.5625 180.402344 261.726562 C 180.40625 261.890625 180.484375 262.0625 180.539062 262.21875 C 180.667969 262.605469 180.839844 262.976562 181.035156 263.335938 C 181.402344 264.023438 181.882812 264.667969 182.359375 265.28125 C 183.34375 266.539062 184.496094 267.695312 185.796875 268.628906 C 188.601562 270.640625 192.105469 271.847656 195.542969 272.023438 C 196.542969 272.074219 197.589844 272.085938 198.574219 271.894531 C 199.605469 271.695312 200.546875 271.296875 201.46875 270.808594 C 201.691406 270.691406 201.675781 270.277344 201.375 270.28125 " fill-opacity="1" fill-rule="nonzero"/><path fill="#e0392d" d="M 213.949219 262.097656 C 212.941406 263.046875 211.894531 263.949219 210.894531 264.910156 C 210.40625 265.375 209.890625 265.820312 209.355469 266.234375 C 209.085938 266.441406 208.824219 266.644531 208.574219 266.875 C 208.292969 267.128906 208.109375 267.421875 207.863281 267.703125 C 207.710938 267.875 207.914062 268.167969 208.128906 268.117188 C 208.492188 268.027344 208.832031 267.988281 209.175781 267.820312 C 209.488281 267.671875 209.773438 267.488281 210.054688 267.285156 C 210.664062 266.847656 211.246094 266.375 211.800781 265.871094 C 212.90625 264.859375 213.660156 263.671875 214.25 262.300781 C 214.320312 262.132812 214.082031 261.96875 213.949219 262.097656 " fill-opacity="1" fill-rule="nonzero"/><g fill="#ffffff" fill-opacity="1"><g transform="translate(78.667198, 349.321766)"><g><path d="M 9 -0.578125 L 8.140625 -2.328125 L 7.984375 -3 L 7.65625 -3.484375 L 6.828125 -5.328125 L 6.640625 -5.9375 L 6.09375 -7.09375 L 5.9375 -7.625 L 3.828125 -12.390625 L 3.515625 -12.890625 L 2.546875 -15.234375 L 2.234375 -15.796875 L 1.71875 -17.046875 L 1.375 -17.65625 L 1.1875 -18.234375 L 0.890625 -18.796875 L 0.421875 -20.015625 L 0.125 -20.59375 L 0 -21.359375 L 0.0625 -22.0625 L 0.734375 -22.34375 L 1.40625 -22.375 L 1.984375 -22.3125 L 2.515625 -22.375 L 4.3125 -22.28125 L 5.046875 -22.03125 L 5.59375 -21.390625 L 5.875 -20.875 L 6.09375 -20.296875 L 6.421875 -19.703125 L 6.515625 -19.09375 L 7.625 -16.796875 L 7.75 -16.15625 L 7.984375 -15.578125 L 8.265625 -15.0625 L 8.65625 -13.796875 L 9 -13.21875 L 9.21875 -12.703125 L 9.421875 -12.0625 L 9.671875 -11.484375 L 10.09375 -10.28125 L 10.34375 -9.703125 L 10.71875 -9.765625 L 11.109375 -10.34375 L 11.265625 -10.921875 L 11.59375 -11.53125 L 15.390625 -20.875 L 15.546875 -21.453125 L 16.125 -22.0625 L 16.859375 -22.3125 L 20.625 -22.3125 L 21.171875 -22.125 L 21.359375 -21.328125 L 21.03125 -20.5625 L 20.90625 -20.015625 L 20.59375 -19.40625 L 20.359375 -18.765625 L 20.015625 -18.234375 L 19.859375 -17.65625 L 19.375 -16.40625 L 18.96875 -15.921875 L 18.796875 -15.328125 L 18.359375 -14.75 L 18.203125 -14.140625 L 18.03125 -13.59375 L 17.6875 -12.953125 L 17.328125 -11.75 L 16.65625 -10.59375 L 16.28125 -9.359375 L 14.359375 -5.265625 L 14.171875 -4.6875 L 13.65625 -3.546875 L 13.34375 -3 L 13.0625 -2.390625 L 12.515625 -1.15625 L 12.328125 -0.546875 L 11.78125 -0.03125 L 10.921875 0.34375 L 10.28125 0.28125 L 9.515625 0 Z M 9 -0.578125 "/></g></g></g><g fill="#ffffff" fill-opacity="1"><g transform="translate(100.17807, 349.321766)"><g><path d="M 2.296875 -0.921875 L 2.421875 -1.5625 L 2.453125 -2.203125 L 2.390625 -3.453125 L 2.390625 -4.09375 L 2.328125 -4.8125 L 2.421875 -5.390625 L 2.390625 -6 L 2.453125 -6.703125 L 2.359375 -7.375 L 2.421875 -8.65625 L 2.328125 -9.890625 L 2.421875 -10.5625 L 2.421875 -16.28125 L 2.359375 -16.859375 L 2.421875 -17.53125 L 2.296875 -19.15625 L 2.421875 -20.078125 L 2.359375 -21.359375 L 2.6875 -22.0625 L 3.609375 -22.28125 L 7.78125 -22.375 L 8.359375 -22.3125 L 9.609375 -22.34375 L 10.25 -22.28125 L 11.65625 -22.34375 L 12.296875 -22.25 L 12.859375 -22.3125 L 15.421875 -22.28125 L 16.09375 -22 L 16.40625 -21.359375 L 16.3125 -20.75 L 16.28125 -20.046875 L 16.375 -19.4375 L 16.4375 -18.125 L 16.09375 -17.5625 L 15.421875 -17.203125 L 9.296875 -17.171875 L 8.296875 -16.890625 L 7.984375 -15.953125 L 8.046875 -14.96875 L 8.421875 -14.390625 L 8.96875 -14.046875 L 11.484375 -14.078125 L 12.21875 -14.015625 L 12.890625 -14.015625 L 13.53125 -14.078125 L 14.8125 -14.046875 L 15.359375 -13.6875 L 15.640625 -13.09375 L 15.703125 -12.453125 L 15.640625 -9.921875 L 15.328125 -9.328125 L 14.6875 -8.96875 L 14.109375 -8.9375 L 13.4375 -9 L 12.578125 -8.9375 L 10.890625 -9.03125 L 10.25 -8.96875 L 9 -8.96875 L 8.421875 -8.625 L 8.140625 -7.953125 L 8.109375 -6.390625 L 8.390625 -5.390625 L 9.0625 -5.015625 L 9.765625 -5.078125 L 10.46875 -5.015625 L 11.078125 -5.109375 L 15.296875 -5.046875 L 16.25 -4.71875 L 16.65625 -4.09375 L 16.59375 -3.484375 L 16.625 -1.5 L 16.5625 -0.890625 L 16.28125 -0.28125 L 15.609375 0.03125 L 15 0.09375 L 13.0625 -0.03125 L 11.109375 0.0625 L 10.53125 -0.03125 L 3.3125 0.03125 L 2.71875 -0.3125 Z M 2.296875 -0.921875 "/></g></g></g><g fill="#ffffff" fill-opacity="1"><g transform="translate(118.465492, 349.321766)"><g><path d="M 2.453125 -1.015625 L 2.359375 -3.515625 L 2.421875 -4.1875 L 2.296875 -6.03125 L 2.390625 -7.34375 L 2.296875 -8.046875 L 2.328125 -9.25 L 2.390625 -9.921875 L 2.390625 -11.53125 L 2.296875 -12.453125 L 2.390625 -21.390625 L 2.65625 -22.0625 L 3.25 -22.34375 L 3.953125 -22.3125 L 4.5625 -22.40625 L 5.875 -22.28125 L 6.484375 -22.375 L 8.390625 -22.3125 L 8.9375 -22.375 L 9.640625 -22.3125 L 10.28125 -22.375 L 10.984375 -22.34375 L 11.90625 -22.375 L 12.703125 -22.3125 L 15.359375 -21.765625 L 16.46875 -21.203125 L 18.0625 -19.984375 L 18.359375 -19.5 L 18.796875 -19.03125 L 19.65625 -17.265625 L 19.828125 -16.625 L 19.921875 -16.03125 L 20.078125 -15.421875 L 20.046875 -12.890625 L 19.703125 -11.6875 L 19.46875 -11.140625 L 19.125 -10.5625 L 18.890625 -9.953125 L 18.515625 -9.421875 L 17.625 -8.5625 L 17.265625 -7.890625 L 17.359375 -7.125 L 18.328125 -5.453125 L 18.734375 -4.953125 L 19.0625 -4.375 L 19.4375 -3.796875 L 19.734375 -3.25 L 20.75 -1.6875 L 21.171875 -0.890625 L 21.03125 -0.21875 L 20.359375 -0.0625 L 19.65625 0 L 18.390625 0 L 17.75 -0.0625 L 17.046875 0 L 15.890625 -0.0625 L 15.09375 -0.25 L 14.453125 -0.828125 L 14.078125 -1.34375 L 13.796875 -1.890625 L 13.375 -2.484375 L 12.484375 -4.09375 L 12.265625 -4.6875 L 11.421875 -5.8125 L 10.921875 -6.359375 L 10.125 -6.609375 L 9.546875 -6.578125 L 8.96875 -6.578125 L 8.328125 -6.25 L 8.046875 -5.625 L 8.109375 -3.640625 L 8.015625 -2.265625 L 8.140625 -1.59375 L 8.078125 -0.921875 L 7.859375 -0.3125 L 6.859375 0 L 5.90625 0 L 5.234375 -0.0625 L 3.921875 0.03125 L 3.3125 0 L 2.6875 -0.3125 Z M 8.96875 -11.75 L 9.671875 -11.75 L 10.3125 -11.65625 L 12.796875 -11.875 L 13.28125 -12.09375 L 13.65625 -12.484375 L 14.015625 -13.03125 L 14.265625 -13.65625 L 14.359375 -14.53125 L 14.296875 -15.453125 L 14.078125 -15.953125 L 13.765625 -16.4375 L 12.765625 -17.046875 L 11.296875 -17.234375 L 9.546875 -17.265625 L 9.03125 -17.234375 L 8.390625 -16.921875 L 8.015625 -16.28125 L 8.109375 -12.703125 L 8.421875 -12.03125 Z M 8.96875 -11.75 "/></g></g></g><g fill="#ffffff" fill-opacity="1"><g transform="translate(140.582744, 349.321766)"><g><path d="M 2.390625 -0.984375 L 2.453125 -2.203125 L 2.359375 -4.75 L 2.421875 -5.390625 L 2.359375 -7.953125 L 2.453125 -9.1875 L 2.359375 -9.859375 L 2.453125 -10.46875 L 2.359375 -11.84375 L 2.453125 -13.0625 L 2.328125 -15.609375 L 2.421875 -16.25 L 2.328125 -16.890625 L 2.421875 -17.59375 L 2.359375 -18.796875 L 2.390625 -19.4375 L 2.328125 -20.078125 L 2.328125 -21.390625 L 2.8125 -22 L 3.390625 -22.34375 L 4.046875 -22.3125 L 4.625 -22.34375 L 5.265625 -22.28125 L 7.3125 -22.34375 L 7.953125 -22.28125 L 12.484375 -22.25 L 13.796875 -22 L 15.546875 -21.421875 L 16.1875 -21.09375 L 17.359375 -20.359375 L 18.265625 -19.5 L 18.796875 -19.09375 L 19.625 -18.09375 L 19.890625 -17.5625 L 20.625 -16.46875 L 21.09375 -15.1875 L 21.265625 -14.625 L 21.328125 -13.953125 L 21.796875 -12.125 L 21.671875 -10.09375 L 21.703125 -9.546875 L 21.546875 -8.875 L 21.453125 -8.203125 L 21.234375 -7.625 L 21.09375 -6.984375 L 20.78125 -6.390625 L 20.625 -5.78125 L 19.625 -4.1875 L 18.359375 -2.71875 L 15.640625 -0.890625 L 13.796875 -0.3125 L 11.75 -0.03125 L 6 0 L 5.328125 0.09375 L 4.6875 0.09375 L 4.015625 0 L 3.28125 0 L 2.78125 -0.28125 Z M 9.15625 -5.140625 L 11.8125 -5.265625 L 12.953125 -5.59375 L 13.59375 -5.90625 L 14.109375 -6.21875 L 14.5 -6.734375 L 14.90625 -7.1875 L 15.328125 -7.75 L 15.796875 -8.90625 L 16 -9.515625 L 16.15625 -11.078125 L 16.0625 -12.0625 L 15.671875 -13.953125 L 15.265625 -14.453125 L 14.90625 -15.0625 L 14.109375 -15.953125 L 13.03125 -16.65625 L 11.75 -17.046875 L 10.796875 -17.109375 L 10.125 -17.078125 L 9.453125 -17.109375 L 8.515625 -16.765625 L 8.140625 -16.1875 L 8.140625 -7.984375 L 8.046875 -7.34375 L 8.171875 -6.765625 L 8.109375 -6.125 L 8.390625 -5.421875 Z M 9.15625 -5.140625 "/></g></g></g><g fill="#ffffff" fill-opacity="1"><g transform="translate(163.785119, 349.321766)"><g><path d="M 9.421875 0.25 L 8.8125 0.09375 L 8.109375 0.0625 L 7.625 -0.1875 L 6.890625 -0.421875 L 6.28125 -0.671875 L 5.8125 -1.046875 L 4.71875 -1.6875 L 4.3125 -2.109375 L 3.453125 -3.15625 L 2.8125 -4.25 L 2.625 -4.859375 L 2.515625 -5.453125 L 2.328125 -6.09375 L 2.328125 -6.765625 L 2.234375 -7.6875 L 2.265625 -9.984375 L 2.171875 -11.265625 L 2.234375 -11.875 L 2.203125 -12.515625 L 2.265625 -13.125 L 2.171875 -13.828125 L 2.296875 -14.421875 L 2.140625 -16.34375 L 2.234375 -17.5625 L 2.109375 -18.890625 L 2.265625 -19.4375 L 2.265625 -21.359375 L 2.546875 -22 L 3.1875 -22.34375 L 6.546875 -22.3125 L 7.3125 -22.03125 L 7.65625 -21.421875 L 7.65625 -20.75 L 7.5 -19.796875 L 7.5 -19.1875 L 7.59375 -18.265625 L 7.59375 -15.703125 L 7.53125 -15.125 L 7.5625 -13.15625 L 7.65625 -12.515625 L 7.71875 -6.890625 L 7.921875 -6.21875 L 8.296875 -5.78125 L 8.78125 -5.359375 L 9.484375 -5.015625 L 10.0625 -4.859375 L 11.109375 -4.78125 L 11.96875 -4.859375 L 13.25 -5.265625 L 13.765625 -5.75 L 14.046875 -6.1875 L 14.328125 -6.796875 L 14.453125 -7.828125 L 14.421875 -9.453125 L 14.5 -10.09375 L 14.453125 -11.234375 L 14.53125 -11.9375 L 14.390625 -12.515625 L 14.5 -15.03125 L 14.390625 -15.703125 L 14.453125 -16.375 L 14.421875 -17.625 L 14.5 -18.265625 L 14.453125 -21.390625 L 14.78125 -22.09375 L 15.484375 -22.375 L 18.484375 -22.34375 L 19.5 -22.0625 L 19.765625 -21.359375 L 19.859375 -20.8125 L 19.828125 -18.234375 L 19.921875 -17.59375 L 19.828125 -16.984375 L 19.859375 -16.28125 L 19.796875 -15.296875 L 19.828125 -14.390625 L 19.765625 -13.71875 L 19.796875 -13.125 L 19.921875 -12.484375 L 19.921875 -11.90625 L 19.796875 -11.234375 L 19.890625 -8.65625 L 19.65625 -5.421875 L 19.4375 -4.8125 L 19.125 -4.28125 L 18.921875 -3.640625 L 18.515625 -3.15625 L 18.15625 -2.578125 L 16.734375 -1.3125 L 16.21875 -0.953125 L 15.640625 -0.703125 L 15.125 -0.390625 L 14.5 -0.21875 L 13.828125 0.03125 L 12.546875 0.3125 L 10.953125 0.390625 Z M 9.421875 0.25 "/></g></g></g><g fill="#ffffff" fill-opacity="1"><g transform="translate(185.806632, 349.321766)"><g><path d="M 2.453125 -1.015625 L 2.359375 -3.515625 L 2.421875 -4.1875 L 2.296875 -6.03125 L 2.390625 -7.34375 L 2.296875 -8.046875 L 2.328125 -9.25 L 2.390625 -9.921875 L 2.390625 -11.53125 L 2.296875 -12.453125 L 2.390625 -21.390625 L 2.65625 -22.0625 L 3.25 -22.34375 L 3.953125 -22.3125 L 4.5625 -22.40625 L 5.875 -22.28125 L 6.484375 -22.375 L 8.390625 -22.3125 L 8.9375 -22.375 L 9.640625 -22.3125 L 10.28125 -22.375 L 10.984375 -22.34375 L 11.90625 -22.375 L 12.703125 -22.3125 L 15.359375 -21.765625 L 16.46875 -21.203125 L 18.0625 -19.984375 L 18.359375 -19.5 L 18.796875 -19.03125 L 19.65625 -17.265625 L 19.828125 -16.625 L 19.921875 -16.03125 L 20.078125 -15.421875 L 20.046875 -12.890625 L 19.703125 -11.6875 L 19.46875 -11.140625 L 19.125 -10.5625 L 18.890625 -9.953125 L 18.515625 -9.421875 L 17.625 -8.5625 L 17.265625 -7.890625 L 17.359375 -7.125 L 18.328125 -5.453125 L 18.734375 -4.953125 L 19.0625 -4.375 L 19.4375 -3.796875 L 19.734375 -3.25 L 20.75 -1.6875 L 21.171875 -0.890625 L 21.03125 -0.21875 L 20.359375 -0.0625 L 19.65625 0 L 18.390625 0 L 17.75 -0.0625 L 17.046875 0 L 15.890625 -0.0625 L 15.09375 -0.25 L 14.453125 -0.828125 L 14.078125 -1.34375 L 13.796875 -1.890625 L 13.375 -2.484375 L 12.484375 -4.09375 L 12.265625 -4.6875 L 11.421875 -5.8125 L 10.921875 -6.359375 L 10.125 -6.609375 L 9.546875 -6.578125 L 8.96875 -6.578125 L 8.328125 -6.25 L 8.046875 -5.625 L 8.109375 -3.640625 L 8.015625 -2.265625 L 8.140625 -1.59375 L 8.078125 -0.921875 L 7.859375 -0.3125 L 6.859375 0 L 5.90625 0 L 5.234375 -0.0625 L 3.921875 0.03125 L 3.3125 0 L 2.6875 -0.3125 Z M 8.96875 -11.75 L 9.671875 -11.75 L 10.3125 -11.65625 L 12.796875 -11.875 L 13.28125 -12.09375 L 13.65625 -12.484375 L 14.015625 -13.03125 L 14.265625 -13.65625 L 14.359375 -14.53125 L 14.296875 -15.453125 L 14.078125 -15.953125 L 13.765625 -16.4375 L 12.765625 -17.046875 L 11.296875 -17.234375 L 9.546875 -17.265625 L 9.03125 -17.234375 L 8.390625 -16.921875 L 8.015625 -16.28125 L 8.109375 -12.703125 L 8.421875 -12.03125 Z M 8.96875 -11.75 "/></g></g></g><g fill="#ffffff" fill-opacity="1"><g transform="translate(207.923884, 349.321766)"><g><path d="M 0.421875 -0.859375 L 0.796875 -2.203125 L 1.078125 -2.84375 L 1.46875 -3.359375 L 2.390625 -5.6875 L 3.28125 -7.34375 L 3.515625 -7.984375 L 3.796875 -8.484375 L 3.984375 -9.15625 L 4.4375 -9.984375 L 4.65625 -10.59375 L 5.140625 -11.421875 L 5.65625 -12.578125 L 6 -13.15625 L 6.15625 -13.6875 L 7.953125 -17.71875 L 8.296875 -18.296875 L 9.671875 -21.171875 L 9.859375 -21.734375 L 10.46875 -22.3125 L 11.484375 -22.625 L 12.578125 -22.34375 L 13.15625 -21.734375 L 13.34375 -21.125 L 13.625 -20.65625 L 14.140625 -19.4375 L 14.78125 -18.265625 L 15.265625 -17.140625 L 15.421875 -16.625 L 16 -15.421875 L 16.1875 -14.8125 L 16.828125 -13.6875 L 16.984375 -13.09375 L 17.296875 -12.546875 L 17.5625 -12 L 17.90625 -11.421875 L 18.09375 -10.796875 L 18.390625 -10.3125 L 18.609375 -9.671875 L 18.890625 -9.125 L 19.15625 -8.484375 L 19.5 -7.984375 L 19.953125 -6.796875 L 20.265625 -6.25 L 20.5 -5.65625 L 21.03125 -4.5 L 21.234375 -3.890625 L 21.546875 -3.421875 L 21.734375 -2.78125 L 22.15625 -2.234375 L 22.375 -1.65625 L 22.5625 -0.859375 L 22.4375 -0.1875 L 21.859375 0 L 19.890625 0.0625 L 18.765625 -0.03125 L 18.203125 0.03125 L 17.359375 -0.28125 L 16.828125 -0.796875 L 16.46875 -1.375 L 16.3125 -1.953125 L 15.640625 -2.453125 L 14.59375 -2.8125 L 13.09375 -2.75 L 12.421875 -2.8125 L 11.84375 -2.8125 L 11.109375 -2.71875 L 10.4375 -2.8125 L 8.65625 -2.78125 L 8.015625 -2.84375 L 7.25 -2.515625 L 6.703125 -1.921875 L 6.15625 -0.828125 L 5.59375 -0.25 L 4.859375 0.0625 L 4.015625 -0.03125 L 1.21875 -0.03125 L 0.578125 -0.1875 Z M 10.28125 -7.890625 L 12.765625 -7.921875 L 13.3125 -8.171875 L 13.375 -8.75 L 13.15625 -9.328125 L 12.828125 -9.953125 L 12.703125 -10.46875 L 12.359375 -11.015625 L 11.9375 -12.265625 L 11.5625 -12.515625 L 11.140625 -12.1875 L 10.859375 -11.6875 L 9.578125 -8.78125 L 9.671875 -8.140625 Z M 10.28125 -7.890625 "/></g></g></g></svg>