<svg xmlns="http://www.w3.org/2000/svg" xmlns:xlink="http://www.w3.org/1999/xlink" width="415" zoomAndPan="magnify" viewBox="0 0 311.25 405.749988" height="541" preserveAspectRatio="xMidYMid meet" version="1.0"><defs><g/><clipPath id="bee2935b16"><path d="M 14.65625 0.363281 L 296.671875 0.363281 L 296.671875 405.136719 L 14.65625 405.136719 Z M 14.65625 0.363281 " clip-rule="nonzero"/></clipPath><clipPath id="2d77fa1ae2"><path d="M 36.03125 0.363281 L 275.296875 0.363281 C 287.101562 0.363281 296.671875 9.933594 296.671875 21.738281 L 296.671875 383.648438 C 296.671875 395.453125 287.101562 405.019531 275.296875 405.019531 L 36.03125 405.019531 C 24.226562 405.019531 14.65625 395.453125 14.65625 383.648438 L 14.65625 21.738281 C 14.65625 9.933594 24.226562 0.363281 36.03125 0.363281 Z M 36.03125 0.363281 " clip-rule="nonzero"/></clipPath><clipPath id="a0a83e3434"><path d="M 0.65625 0.363281 L 282.671875 0.363281 L 282.671875 405 L 0.65625 405 Z M 0.65625 0.363281 " clip-rule="nonzero"/></clipPath><clipPath id="82616523b3"><path d="M 22.03125 0.363281 L 261.296875 0.363281 C 273.101562 0.363281 282.671875 9.933594 282.671875 21.738281 L 282.671875 383.648438 C 282.671875 395.453125 273.101562 405.019531 261.296875 405.019531 L 22.03125 405.019531 C 10.226562 405.019531 0.65625 395.453125 0.65625 383.648438 L 0.65625 21.738281 C 0.65625 9.933594 10.226562 0.363281 22.03125 0.363281 Z M 22.03125 0.363281 " clip-rule="nonzero"/></clipPath><clipPath id="0d9311f047"><rect x="0" width="283" y="0" height="406"/></clipPath><clipPath id="d61ebf2c89"><path d="M 24.683594 10.390625 L 285.085938 10.390625 L 285.085938 395 L 24.683594 395 Z M 24.683594 10.390625 " clip-rule="nonzero"/></clipPath><clipPath id="6774807ba7"><path d="M 39.125 10.390625 L 270.644531 10.390625 C 274.472656 10.390625 278.148438 11.910156 280.855469 14.621094 C 283.5625 17.328125 285.085938 21 285.085938 24.832031 L 285.085938 380.484375 C 285.085938 384.3125 283.5625 387.988281 280.855469 390.695312 C 278.148438 393.40625 274.472656 394.925781 270.644531 394.925781 L 39.125 394.925781 C 35.296875 394.925781 31.621094 393.40625 28.914062 390.695312 C 26.207031 387.988281 24.683594 384.3125 24.683594 380.484375 L 24.683594 24.832031 C 24.683594 21 26.207031 17.328125 28.914062 14.621094 C 31.621094 11.910156 35.296875 10.390625 39.125 10.390625 Z M 39.125 10.390625 " clip-rule="nonzero"/></clipPath><clipPath id="1fa2132296"><path d="M 0.683594 0.390625 L 261.085938 0.390625 L 261.085938 384.933594 L 0.683594 384.933594 Z M 0.683594 0.390625 " clip-rule="nonzero"/></clipPath><clipPath id="1b89a344f2"><path d="M 15.125 0.390625 L 246.644531 0.390625 C 250.472656 0.390625 254.148438 1.910156 256.855469 4.621094 C 259.5625 7.328125 261.085938 11 261.085938 14.832031 L 261.085938 370.484375 C 261.085938 374.3125 259.5625 377.988281 256.855469 380.695312 C 254.148438 383.40625 250.472656 384.925781 246.644531 384.925781 L 15.125 384.925781 C 11.296875 384.925781 7.621094 383.40625 4.914062 380.695312 C 2.207031 377.988281 0.683594 374.3125 0.683594 370.484375 L 0.683594 14.832031 C 0.683594 11 2.207031 7.328125 4.914062 4.621094 C 7.621094 1.910156 11.296875 0.390625 15.125 0.390625 Z M 15.125 0.390625 " clip-rule="nonzero"/></clipPath><clipPath id="ca32306664"><rect x="0" width="262" y="0" height="385"/></clipPath><clipPath id="b45d7878c3"><path d="M 13.855469 274.746094 L 296 274.746094 L 296 394.925781 L 13.855469 394.925781 Z M 13.855469 274.746094 " clip-rule="nonzero"/></clipPath><clipPath id="c7ff08f0fd"><path d="M 25.492188 274.746094 L 284.277344 274.746094 C 290.703125 274.746094 295.914062 279.957031 295.914062 286.382812 L 295.914062 383.289062 C 295.914062 389.714844 290.703125 394.925781 284.277344 394.925781 L 25.492188 394.925781 C 19.066406 394.925781 13.855469 389.714844 13.855469 383.289062 L 13.855469 286.382812 C 13.855469 279.957031 19.066406 274.746094 25.492188 274.746094 Z M 25.492188 274.746094 " clip-rule="nonzero"/></clipPath><clipPath id="f02cd30300"><path d="M 0.855469 0.746094 L 282.925781 0.746094 L 282.925781 120.925781 L 0.855469 120.925781 Z M 0.855469 0.746094 " clip-rule="nonzero"/></clipPath><clipPath id="2ec82b3e4f"><path d="M 12.492188 0.746094 L 271.277344 0.746094 C 277.703125 0.746094 282.914062 5.957031 282.914062 12.382812 L 282.914062 109.289062 C 282.914062 115.714844 277.703125 120.925781 271.277344 120.925781 L 12.492188 120.925781 C 6.066406 120.925781 0.855469 115.714844 0.855469 109.289062 L 0.855469 12.382812 C 0.855469 5.957031 6.066406 0.746094 12.492188 0.746094 Z M 12.492188 0.746094 " clip-rule="nonzero"/></clipPath><clipPath id="0902954404"><rect x="0" width="283" y="0" height="121"/></clipPath><clipPath id="9fa9e15b79"><path d="M 13.902344 10.390625 L 296 10.390625 L 296 81.585938 L 13.902344 81.585938 Z M 13.902344 10.390625 " clip-rule="nonzero"/></clipPath><clipPath id="f9efda8aae"><path d="M 26.609375 10.390625 L 283.207031 10.390625 C 290.226562 10.390625 295.914062 16.078125 295.914062 23.097656 L 295.914062 68.875 C 295.914062 75.894531 290.226562 81.585938 283.207031 81.585938 L 26.609375 81.585938 C 19.59375 81.585938 13.902344 75.894531 13.902344 68.875 L 13.902344 23.097656 C 13.902344 16.078125 19.59375 10.390625 26.609375 10.390625 Z M 26.609375 10.390625 " clip-rule="nonzero"/></clipPath><clipPath id="d03faa981f"><path d="M 0.902344 0.390625 L 282.925781 0.390625 L 282.925781 71.585938 L 0.902344 71.585938 Z M 0.902344 0.390625 " clip-rule="nonzero"/></clipPath><clipPath id="ee9c773aac"><path d="M 13.609375 0.390625 L 270.207031 0.390625 C 277.226562 0.390625 282.914062 6.078125 282.914062 13.097656 L 282.914062 58.875 C 282.914062 65.894531 277.226562 71.585938 270.207031 71.585938 L 13.609375 71.585938 C 6.59375 71.585938 0.902344 65.894531 0.902344 58.875 L 0.902344 13.097656 C 0.902344 6.078125 6.59375 0.390625 13.609375 0.390625 Z M 13.609375 0.390625 " clip-rule="nonzero"/></clipPath><clipPath id="7c72b48766"><rect x="0" width="283" y="0" height="72"/></clipPath><clipPath id="8743a1b94a"><path d="M 25.917969 81.585938 L 68.566406 81.585938 L 68.566406 124.234375 L 25.917969 124.234375 Z M 25.917969 81.585938 " clip-rule="nonzero"/></clipPath><clipPath id="840b9eb75c"><path d="M 121.292969 99 L 190.875 99 L 190.875 263.925781 L 121.292969 263.925781 Z M 121.292969 99 " clip-rule="nonzero"/></clipPath><clipPath id="b6ac7d3935"><path d="M 144 92.589844 L 168 92.589844 L 168 107 L 144 107 Z M 144 92.589844 " clip-rule="nonzero"/></clipPath><clipPath id="692d88083e"><path d="M 121.292969 167 L 190.875 167 L 190.875 227 L 121.292969 227 Z M 121.292969 167 " clip-rule="nonzero"/></clipPath></defs><g clip-path="url(#bee2935b16)"><g clip-path="url(#2d77fa1ae2)"><g transform="matrix(1, 0, 0, 1, 14, -0.000000000000060896)"><g clip-path="url(#0d9311f047)"><g clip-path="url(#a0a83e3434)"><g clip-path="url(#82616523b3)"><path fill="#ffd700" d="M 0.65625 0.363281 L 282.671875 0.363281 L 282.671875 404.65625 L 0.65625 404.65625 Z M 0.65625 0.363281 " fill-opacity="1" fill-rule="nonzero"/></g></g></g></g></g></g><g clip-path="url(#d61ebf2c89)"><g clip-path="url(#6774807ba7)"><g transform="matrix(1, 0, 0, 1, 24, 10)"><g clip-path="url(#ca32306664)"><g clip-path="url(#1fa2132296)"><g clip-path="url(#1b89a344f2)"><path fill="#fffaed" d="M 0.683594 0.390625 L 261.085938 0.390625 L 261.085938 384.890625 L 0.683594 384.890625 Z M 0.683594 0.390625 " fill-opacity="1" fill-rule="nonzero"/></g></g></g></g></g></g><g clip-path="url(#b45d7878c3)"><g clip-path="url(#c7ff08f0fd)"><g transform="matrix(1, 0, 0, 1, 13, 274)"><g clip-path="url(#0902954404)"><g clip-path="url(#f02cd30300)"><g clip-path="url(#2ec82b3e4f)"><path fill="#ffd700" d="M 0.855469 0.746094 L 283 0.746094 L 283 120.925781 L 0.855469 120.925781 Z M 0.855469 0.746094 " fill-opacity="1" fill-rule="nonzero"/></g></g></g></g></g></g><g fill="#ffffff" fill-opacity="1"><g transform="translate(143.526533, 343.578922)"><g/></g></g><g fill="#ffffff" fill-opacity="1"><g transform="translate(151.095258, 343.578922)"><g/></g></g><g fill="#ffffff" fill-opacity="1"><g transform="translate(158.663983, 343.578922)"><g/></g></g><g clip-path="url(#9fa9e15b79)"><g clip-path="url(#f9efda8aae)"><g transform="matrix(1, 0, 0, 1, 13, 10)"><g clip-path="url(#7c72b48766)"><g clip-path="url(#d03faa981f)"><g clip-path="url(#ee9c773aac)"><path fill="#ffd700" d="M 0.902344 0.390625 L 282.902344 0.390625 L 282.902344 71.585938 L 0.902344 71.585938 Z M 0.902344 0.390625 " fill-opacity="1" fill-rule="nonzero"/></g></g></g></g></g></g><g fill="#ffffff" fill-opacity="1"><g transform="translate(90.112739, 55.281533)"><g><path d="M 7.875 -0.5 L 7.125 -2.046875 L 6.984375 -2.625 L 6.703125 -3.046875 L 5.984375 -4.671875 L 5.8125 -5.203125 L 5.34375 -6.203125 L 5.203125 -6.671875 L 3.359375 -10.84375 L 3.078125 -11.28125 L 2.234375 -13.328125 L 1.953125 -13.828125 L 1.515625 -14.921875 L 1.203125 -15.453125 L 1.03125 -15.953125 L 0.78125 -16.453125 L 0.359375 -17.515625 L 0.109375 -18.015625 L 0 -18.6875 L 0.0625 -19.3125 L 0.640625 -19.5625 L 1.234375 -19.578125 L 1.734375 -19.53125 L 2.203125 -19.578125 L 3.765625 -19.5 L 4.421875 -19.28125 L 4.890625 -18.71875 L 5.140625 -18.265625 L 5.34375 -17.765625 L 5.609375 -17.234375 L 5.703125 -16.703125 L 6.671875 -14.6875 L 6.78125 -14.140625 L 6.984375 -13.640625 L 7.234375 -13.1875 L 7.578125 -12.0625 L 7.875 -11.5625 L 8.078125 -11.125 L 8.234375 -10.5625 L 8.46875 -10.0625 L 8.828125 -9 L 9.046875 -8.5 L 9.390625 -8.546875 L 9.71875 -9.046875 L 9.859375 -9.546875 L 10.140625 -10.078125 L 13.46875 -18.265625 L 13.609375 -18.78125 L 14.109375 -19.3125 L 14.75 -19.53125 L 18.046875 -19.53125 L 18.515625 -19.359375 L 18.6875 -18.65625 L 18.40625 -17.984375 L 18.296875 -17.515625 L 18.015625 -16.984375 L 17.828125 -16.421875 L 17.515625 -15.953125 L 17.375 -15.453125 L 16.953125 -14.359375 L 16.59375 -13.9375 L 16.453125 -13.40625 L 16.0625 -12.90625 L 15.921875 -12.375 L 15.78125 -11.90625 L 15.484375 -11.34375 L 15.171875 -10.28125 L 14.578125 -9.28125 L 14.25 -8.1875 L 12.578125 -4.609375 L 12.40625 -4.109375 L 11.953125 -3.09375 L 11.671875 -2.625 L 11.421875 -2.09375 L 10.953125 -1 L 10.78125 -0.46875 L 10.3125 -0.03125 L 9.546875 0.3125 L 9 0.25 L 8.328125 0 Z M 7.875 -0.5 "/></g></g></g><g fill="#ffffff" fill-opacity="1"><g transform="translate(108.93681, 55.281533)"><g><path d="M 1.34375 -0.8125 L 1.34375 -2.96875 L 1.390625 -3.484375 L 1.734375 -4.015625 L 3.578125 -4.609375 L 3.859375 -5.21875 L 3.90625 -6.3125 L 3.796875 -7.515625 L 3.9375 -8.078125 L 3.828125 -9.15625 L 3.890625 -9.71875 L 3.90625 -10.875 L 3.828125 -11.515625 L 3.796875 -11.984375 L 3.890625 -14.359375 L 3.515625 -14.859375 L 1.8125 -15.453125 L 1.53125 -15.984375 L 1.53125 -16.515625 L 1.484375 -17.0625 L 1.484375 -17.6875 L 1.53125 -18.15625 L 1.53125 -18.6875 L 1.84375 -19.28125 L 2.453125 -19.5625 L 3.546875 -19.5 L 4.078125 -19.53125 L 5.78125 -19.5 L 6.390625 -19.5625 L 9.953125 -19.53125 L 10.84375 -19.28125 L 11.0625 -18.71875 L 11.125 -18.15625 L 11.0625 -17.65625 L 11.0625 -16.015625 L 10.75 -15.484375 L 10.21875 -15.171875 L 9.609375 -15.140625 L 9.078125 -14.828125 L 8.765625 -14.328125 L 8.765625 -13.15625 L 8.828125 -12.578125 L 8.765625 -12.015625 L 8.828125 -11.484375 L 8.765625 -10.609375 L 8.828125 -9.78125 L 8.71875 -8.609375 L 8.828125 -7.484375 L 8.765625 -5.203125 L 9.078125 -4.640625 L 10.953125 -4.046875 L 11.34375 -3.578125 L 11.265625 -1.875 L 11.3125 -1.375 L 11.3125 -0.75 L 11 -0.25 L 10.46875 0.03125 L 2.171875 -0.03125 L 1.625 -0.21875 Z M 1.34375 -0.8125 "/></g></g></g><g fill="#ffffff" fill-opacity="1"><g transform="translate(121.616521, 55.281533)"><g><path d="M 16.484375 -0.453125 L 16.125 -0.8125 L 15.78125 -1.234375 L 15.34375 -1.59375 L 14.96875 -2.046875 L 12.265625 -4.75 L 11.8125 -5.109375 L 7.828125 -9.03125 L 7.453125 -9.109375 L 7.1875 -8.765625 L 7.296875 -8.1875 L 7.203125 -1.34375 L 7.296875 -0.78125 L 7.046875 -0.21875 L 6.484375 0.0625 L 5.84375 0 L 5.25 0.078125 L 3.859375 0 L 2.90625 0.0625 L 2.375 -0.25 L 2.125 -0.859375 L 2.125 -1.390625 L 2.046875 -1.953125 L 2.125 -3.015625 L 2.0625 -3.578125 L 2.09375 -4.71875 L 2.015625 -5.3125 L 2.015625 -5.84375 L 2.0625 -6.453125 L 2.0625 -6.984375 L 2.125 -7.484375 L 2.015625 -11.484375 L 2.09375 -12.0625 L 2.0625 -12.65625 L 2.125 -13.15625 L 2.046875 -14.296875 L 2.09375 -14.859375 L 2.046875 -18.78125 L 2.40625 -19.3125 L 3.078125 -19.640625 L 3.828125 -19.421875 L 4.9375 -18.65625 L 6.453125 -17.125 L 6.8125 -16.65625 L 7.296875 -16.3125 L 7.578125 -15.890625 L 8.109375 -15.53125 L 8.40625 -15.109375 L 9.28125 -14.390625 L 9.859375 -13.765625 L 10.171875 -13.375 L 10.609375 -13.046875 L 11.59375 -12.046875 L 12.015625 -11.703125 L 13.25 -10.453125 L 13.640625 -10.34375 L 13.765625 -10.78125 L 13.75 -11.90625 L 13.859375 -12.484375 L 13.859375 -13.015625 L 13.75 -13.609375 L 13.765625 -18.6875 L 14.046875 -19.28125 L 14.71875 -19.5625 L 15.28125 -19.53125 L 15.78125 -19.578125 L 16.375 -19.5 L 16.984375 -19.5625 L 17.515625 -19.5625 L 18.078125 -19.5 L 18.6875 -19.21875 L 19.03125 -18.71875 L 18.96875 -17.265625 L 19.03125 -16.421875 L 18.90625 -15.875 L 18.90625 -14.75 L 18.96875 -14.21875 L 18.890625 -13.109375 L 19 -9.75 L 18.9375 -9.140625 L 19.046875 -8.359375 L 18.90625 -0.75 L 18.65625 -0.171875 L 18.015625 0.140625 L 17.296875 -0.078125 Z M 16.484375 -0.453125 "/></g></g></g><g fill="#ffffff" fill-opacity="1"><g transform="translate(142.674897, 55.281533)"><g><path d="M 0.359375 -0.75 L 0.703125 -1.921875 L 0.953125 -2.484375 L 1.28125 -2.9375 L 2.09375 -4.96875 L 2.875 -6.421875 L 3.078125 -6.984375 L 3.328125 -7.4375 L 3.484375 -8.015625 L 3.890625 -8.75 L 4.078125 -9.28125 L 4.5 -10 L 4.9375 -11 L 5.25 -11.515625 L 5.390625 -11.984375 L 6.953125 -15.5 L 7.265625 -16.015625 L 8.46875 -18.515625 L 8.625 -19.03125 L 9.15625 -19.53125 L 10.0625 -19.8125 L 11 -19.5625 L 11.515625 -19.03125 L 11.671875 -18.5 L 11.921875 -18.078125 L 12.375 -17.015625 L 12.9375 -15.984375 L 13.359375 -15 L 13.5 -14.5625 L 14 -13.5 L 14.171875 -12.96875 L 14.71875 -11.984375 L 14.859375 -11.453125 L 15.140625 -10.984375 L 15.359375 -10.5 L 15.671875 -10 L 15.84375 -9.4375 L 16.09375 -9.03125 L 16.28125 -8.46875 L 16.53125 -7.984375 L 16.765625 -7.4375 L 17.0625 -6.984375 L 17.453125 -5.953125 L 17.734375 -5.46875 L 17.9375 -4.9375 L 18.40625 -3.9375 L 18.578125 -3.40625 L 18.859375 -2.984375 L 19.03125 -2.4375 L 19.390625 -1.953125 L 19.578125 -1.453125 L 19.75 -0.75 L 19.640625 -0.171875 L 19.140625 0 L 17.40625 0.0625 L 16.421875 -0.03125 L 15.921875 0.03125 L 15.203125 -0.25 L 14.71875 -0.703125 L 14.421875 -1.203125 L 14.28125 -1.703125 L 13.6875 -2.15625 L 12.765625 -2.453125 L 11.453125 -2.40625 L 10.875 -2.453125 L 10.359375 -2.453125 L 9.71875 -2.375 L 9.140625 -2.453125 L 7.578125 -2.4375 L 7.015625 -2.484375 L 6.34375 -2.203125 L 5.859375 -1.671875 L 5.390625 -0.71875 L 4.890625 -0.21875 L 4.25 0.0625 L 3.515625 -0.03125 L 1.0625 -0.03125 L 0.5 -0.171875 Z M 9 -6.90625 L 11.171875 -6.921875 L 11.65625 -7.15625 L 11.703125 -7.65625 L 11.515625 -8.15625 L 11.234375 -8.71875 L 11.125 -9.15625 L 10.8125 -9.640625 L 10.453125 -10.734375 L 10.109375 -10.953125 L 9.75 -10.671875 L 9.5 -10.21875 L 8.375 -7.6875 L 8.46875 -7.125 Z M 9 -6.90625 "/></g></g></g><g fill="#ffffff" fill-opacity="1"><g transform="translate(162.951271, 55.281533)"><g><path d="M 10.21875 0.328125 L 9.640625 0.28125 L 8.078125 -0.0625 L 6.515625 -0.609375 L 6 -0.859375 L 4.21875 -2.0625 L 3.4375 -2.875 L 2.4375 -4.140625 L 2.125 -4.671875 L 1.53125 -6.203125 L 1.0625 -8.359375 L 1.03125 -8.9375 L 1.09375 -9.71875 L 1.03125 -11.125 L 1.34375 -12.34375 L 1.375 -12.84375 L 2.234375 -14.96875 L 2.546875 -15.5 L 2.96875 -15.890625 L 3.234375 -16.34375 L 3.609375 -16.8125 L 4.4375 -17.59375 L 5.84375 -18.546875 L 6.34375 -18.796875 L 8.46875 -19.5625 L 10.171875 -19.828125 L 12.9375 -19.703125 L 13.546875 -19.53125 L 14.109375 -19.4375 L 14.5625 -19.25 L 15.171875 -19.078125 L 17.0625 -17.90625 L 17.875 -17.09375 L 18.578125 -16.203125 L 18.96875 -15.8125 L 19.859375 -13.75 L 19.671875 -13.125 L 19.1875 -12.96875 L 18.65625 -12.90625 L 15.921875 -12.90625 L 15.3125 -13.1875 L 14.6875 -13.640625 L 14.421875 -14.078125 L 13.015625 -14.953125 L 12.484375 -15.09375 L 11.03125 -15.25 L 10.25 -15.21875 L 9.15625 -14.859375 L 8.6875 -14.640625 L 7.765625 -14 L 7.046875 -13.21875 L 6.625 -12.1875 L 6.515625 -11.625 L 6.203125 -10.609375 L 6.375 -7.828125 L 6.5625 -7.296875 L 6.875 -6.78125 L 7.09375 -6.3125 L 7.40625 -5.84375 L 8.234375 -5.171875 L 9.25 -4.640625 L 9.75 -4.4375 L 10.25 -4.328125 L 11.125 -4.28125 L 11.921875 -4.296875 L 12.484375 -4.390625 L 13.546875 -4.71875 L 14 -4.9375 L 14.8125 -5.734375 L 15.03125 -6.171875 L 14.921875 -6.65625 L 14.53125 -6.953125 L 12.84375 -6.875 L 12.34375 -6.921875 L 11.8125 -6.921875 L 11.28125 -7.1875 L 11.125 -7.65625 L 11 -8.1875 L 11.0625 -10.28125 L 11.3125 -10.8125 L 12.1875 -11.125 L 19.1875 -11.125 L 20 -10.875 L 20.34375 -10.3125 L 20.421875 -9.75 L 20.3125 -7.625 L 20.140625 -7.0625 L 20.109375 -6.53125 L 19.75 -5.34375 L 19.109375 -4.046875 L 18.21875 -2.734375 L 17.40625 -1.875 L 16.484375 -1.28125 L 16.09375 -0.953125 L 14.03125 -0.0625 L 13.546875 0.078125 L 13.015625 0.109375 L 12.453125 0.21875 L 10.953125 0.359375 Z M 10.21875 0.328125 "/></g></g></g><g fill="#ffffff" fill-opacity="1"><g transform="translate(184.344792, 55.281533)"><g><path d="M 2.15625 -0.890625 L 2.0625 -3.078125 L 2.125 -3.65625 L 2.015625 -5.28125 L 2.09375 -6.421875 L 2.015625 -7.046875 L 2.046875 -8.109375 L 2.09375 -8.6875 L 2.09375 -10.078125 L 2.015625 -10.890625 L 2.09375 -18.71875 L 2.3125 -19.3125 L 2.84375 -19.5625 L 3.46875 -19.53125 L 4 -19.609375 L 5.140625 -19.5 L 5.671875 -19.578125 L 7.34375 -19.53125 L 7.828125 -19.578125 L 8.4375 -19.53125 L 9 -19.578125 L 9.609375 -19.5625 L 10.421875 -19.578125 L 11.125 -19.53125 L 13.4375 -19.046875 L 14.421875 -18.546875 L 15.8125 -17.484375 L 16.0625 -17.0625 L 16.453125 -16.65625 L 17.203125 -15.109375 L 17.34375 -14.5625 L 17.4375 -14.03125 L 17.578125 -13.5 L 17.546875 -11.28125 L 17.234375 -10.21875 L 17.046875 -9.75 L 16.734375 -9.25 L 16.53125 -8.71875 L 16.203125 -8.234375 L 15.421875 -7.484375 L 15.109375 -6.90625 L 15.203125 -6.234375 L 16.03125 -4.78125 L 16.40625 -4.328125 L 16.671875 -3.828125 L 17.015625 -3.328125 L 17.265625 -2.84375 L 18.15625 -1.484375 L 18.515625 -0.78125 L 18.40625 -0.203125 L 17.828125 -0.0625 L 17.203125 0 L 16.09375 0 L 15.53125 -0.0625 L 14.921875 0 L 13.90625 -0.0625 L 13.21875 -0.21875 L 12.65625 -0.71875 L 12.328125 -1.171875 L 12.0625 -1.640625 L 11.703125 -2.171875 L 10.921875 -3.578125 L 10.734375 -4.109375 L 10 -5.078125 L 9.546875 -5.5625 L 8.859375 -5.78125 L 8.359375 -5.75 L 7.84375 -5.75 L 7.296875 -5.46875 L 7.046875 -4.921875 L 7.09375 -3.1875 L 7.015625 -1.984375 L 7.125 -1.390625 L 7.0625 -0.8125 L 6.875 -0.28125 L 6 0 L 5.171875 0 L 4.578125 -0.0625 L 3.4375 0.03125 L 2.90625 0 L 2.34375 -0.28125 Z M 7.84375 -10.28125 L 8.46875 -10.28125 L 9.03125 -10.203125 L 11.203125 -10.390625 L 11.625 -10.59375 L 11.953125 -10.921875 L 12.265625 -11.40625 L 12.484375 -11.953125 L 12.578125 -12.71875 L 12.515625 -13.515625 L 12.328125 -13.96875 L 12.046875 -14.390625 L 11.171875 -14.921875 L 9.890625 -15.09375 L 8.359375 -15.109375 L 7.90625 -15.09375 L 7.34375 -14.8125 L 7.015625 -14.25 L 7.09375 -11.125 L 7.375 -10.53125 Z M 7.84375 -10.28125 "/></g></g></g><g fill="#ffffff" fill-opacity="1"><g transform="translate(203.699505, 55.281533)"><g><path d="M 2.015625 -0.8125 L 2.125 -1.375 L 2.15625 -1.921875 L 2.09375 -3.015625 L 2.09375 -3.578125 L 2.046875 -4.21875 L 2.125 -4.71875 L 2.09375 -5.25 L 2.15625 -5.859375 L 2.0625 -6.453125 L 2.125 -7.578125 L 2.046875 -8.65625 L 2.125 -9.25 L 2.125 -14.25 L 2.0625 -14.75 L 2.125 -15.34375 L 2.015625 -16.765625 L 2.125 -17.578125 L 2.0625 -18.6875 L 2.34375 -19.3125 L 3.15625 -19.5 L 6.8125 -19.578125 L 7.3125 -19.53125 L 8.40625 -19.5625 L 8.96875 -19.5 L 10.203125 -19.5625 L 10.75 -19.46875 L 11.265625 -19.53125 L 13.5 -19.5 L 14.078125 -19.25 L 14.359375 -18.6875 L 14.28125 -18.15625 L 14.25 -17.546875 L 14.328125 -17.015625 L 14.390625 -15.875 L 14.078125 -15.359375 L 13.5 -15.0625 L 8.125 -15.03125 L 7.265625 -14.78125 L 6.984375 -13.96875 L 7.046875 -13.109375 L 7.375 -12.59375 L 7.84375 -12.296875 L 10.0625 -12.328125 L 10.703125 -12.265625 L 11.28125 -12.265625 L 11.84375 -12.328125 L 12.96875 -12.296875 L 13.4375 -11.984375 L 13.6875 -11.453125 L 13.75 -10.890625 L 13.6875 -8.6875 L 13.40625 -8.15625 L 12.84375 -7.84375 L 12.34375 -7.828125 L 11.765625 -7.875 L 11 -7.828125 L 9.53125 -7.90625 L 8.96875 -7.84375 L 7.875 -7.84375 L 7.375 -7.546875 L 7.125 -6.953125 L 7.09375 -5.59375 L 7.34375 -4.71875 L 7.9375 -4.390625 L 8.546875 -4.4375 L 9.15625 -4.390625 L 9.6875 -4.46875 L 13.375 -4.421875 L 14.21875 -4.140625 L 14.578125 -3.578125 L 14.53125 -3.046875 L 14.5625 -1.3125 L 14.5 -0.78125 L 14.25 -0.25 L 13.65625 0.03125 L 13.125 0.078125 L 11.421875 -0.03125 L 9.71875 0.0625 L 9.21875 -0.03125 L 2.90625 0.03125 L 2.375 -0.28125 Z M 2.015625 -0.8125 "/></g></g></g><g clip-path="url(#8743a1b94a)"><path fill="#000000" d="M 47.242188 81.585938 C 35.515625 81.585938 25.917969 91.179688 25.917969 102.910156 C 25.917969 114.636719 35.515625 124.234375 47.242188 124.234375 C 58.96875 124.234375 68.566406 114.636719 68.566406 102.910156 C 68.566406 91.179688 58.96875 81.585938 47.242188 81.585938 Z M 50.015625 112.71875 L 46.175781 112.71875 L 46.175781 97.578125 L 41.484375 99.070312 L 41.484375 95.871094 L 49.589844 92.886719 L 50.015625 92.886719 Z M 50.015625 112.71875 " fill-opacity="1" fill-rule="nonzero"/></g><g clip-path="url(#840b9eb75c)"><path fill="#333333" d="M 178.519531 263.925781 L 133.648438 263.925781 C 126.847656 263.925781 121.316406 258.398438 121.316406 251.59375 L 121.316406 159.308594 C 121.316406 151.640625 123.980469 144.144531 128.832031 138.191406 L 143.125 120.664062 C 146.007812 117.121094 147.601562 112.660156 147.601562 108.09375 L 147.601562 100.207031 C 147.601562 99.730469 147.976562 99.359375 148.453125 99.359375 L 163.714844 99.359375 C 164.1875 99.359375 164.5625 99.730469 164.5625 100.207031 L 164.5625 108.09375 C 164.5625 112.660156 166.15625 117.136719 169.039062 120.664062 L 183.335938 138.191406 C 188.183594 144.128906 190.847656 151.625 190.847656 159.308594 L 190.847656 251.578125 C 190.847656 258.378906 185.320312 263.910156 178.519531 263.910156 Z M 149.300781 101.074219 L 149.300781 108.113281 C 149.300781 113.066406 147.570312 117.917969 144.433594 121.75 L 130.136719 139.277344 C 125.539062 144.925781 122.996094 152.03125 122.996094 159.308594 L 122.996094 251.578125 C 122.996094 257.445312 127.761719 262.214844 133.628906 262.214844 L 178.503906 262.214844 C 184.371094 262.214844 189.136719 257.445312 189.136719 251.578125 L 189.136719 159.308594 C 189.136719 152.03125 186.609375 144.90625 181.996094 139.277344 L 167.699219 121.75 C 164.5625 117.917969 162.832031 113.066406 162.832031 108.113281 L 162.832031 101.074219 L 149.265625 101.074219 Z M 149.300781 101.074219 " fill-opacity="1" fill-rule="nonzero"/></g><path fill="#fadb86" d="M 184.914062 159.308594 L 184.914062 251.59375 C 184.914062 255.125 182.046875 257.988281 178.519531 257.988281 L 133.648438 257.988281 C 130.117188 257.988281 127.253906 255.125 127.253906 251.59375 L 127.253906 159.308594 C 127.253906 153 129.441406 146.839844 133.441406 141.957031 L 141.957031 131.523438 C 151.4375 131.84375 160.863281 131.84375 170.242188 131.523438 L 178.738281 141.957031 C 182.726562 146.839844 184.929688 153.015625 184.929688 159.308594 Z M 184.914062 159.308594 " fill-opacity="1" fill-rule="nonzero"/><path fill="#ffc60b" d="M 145.484375 93.4375 L 166.683594 93.4375 L 166.683594 105.3125 L 145.484375 105.3125 Z M 145.484375 93.4375 " fill-opacity="1" fill-rule="nonzero"/><g clip-path="url(#b6ac7d3935)"><path fill="#333333" d="M 166.683594 106.160156 L 145.484375 106.160156 C 145.007812 106.160156 144.636719 105.789062 144.636719 105.3125 L 144.636719 93.4375 C 144.636719 92.964844 145.007812 92.589844 145.484375 92.589844 L 166.683594 92.589844 C 167.15625 92.589844 167.53125 92.964844 167.53125 93.4375 L 167.53125 105.3125 C 167.53125 105.789062 167.15625 106.160156 166.683594 106.160156 Z M 146.332031 104.464844 L 165.835938 104.464844 L 165.835938 94.285156 L 146.332031 94.285156 Z M 146.332031 104.464844 " fill-opacity="1" fill-rule="nonzero"/></g><path fill="#e7685d" d="M 122.164062 168.082031 L 190 168.082031 L 190 225.757812 L 122.164062 225.757812 Z M 122.164062 168.082031 " fill-opacity="1" fill-rule="nonzero"/><g clip-path="url(#692d88083e)"><path fill="#333333" d="M 190 226.605469 L 122.164062 226.605469 C 121.691406 226.605469 121.316406 226.234375 121.316406 225.757812 L 121.316406 168.082031 C 121.316406 167.605469 121.691406 167.230469 122.164062 167.230469 L 190 167.230469 C 190.476562 167.230469 190.847656 167.605469 190.847656 168.082031 L 190.847656 225.757812 C 190.847656 226.234375 190.476562 226.605469 190 226.605469 Z M 123.011719 224.910156 L 189.152344 224.910156 L 189.152344 168.929688 L 123.011719 168.929688 Z M 123.011719 224.910156 " fill-opacity="1" fill-rule="nonzero"/></g><path fill="#ffeceb" d="M 134.832031 189.066406 C 132.882812 189.21875 133.917969 192.78125 133.542969 194.171875 C 133.375 196.105469 133.308594 198.378906 133.257812 200.398438 C 131.816406 196.953125 131 193.273438 130.289062 189.640625 C 129.898438 188.980469 128.882812 188.894531 128.421875 189.523438 C 127.828125 190.355469 128.507812 191.390625 128.523438 192.304688 C 129.527344 196.496094 130.457031 201.09375 133.121094 204.570312 C 133.410156 204.707031 133.664062 204.773438 133.902344 204.773438 C 136.105469 204.773438 135.359375 198.597656 135.613281 197.089844 C 135.765625 194.800781 135.886719 192.492188 135.953125 190.183594 C 135.988281 189.574219 135.410156 189.066406 134.832031 189.066406 Z M 134.832031 189.066406 " fill-opacity="1" fill-rule="nonzero"/><path fill="#ffeceb" d="M 140.464844 200.378906 C 139.988281 196.75 140.71875 192.863281 140.125 189.269531 C 139.683594 188.421875 138.292969 188.605469 138.074219 189.539062 C 138.054688 190.777344 138.15625 192.050781 138.074219 193.304688 C 137.953125 196.96875 138.089844 200.667969 138.667969 204.296875 C 138.785156 204.789062 139.277344 205.128906 139.769531 205.128906 C 139.871094 205.128906 139.957031 205.128906 140.058594 205.097656 C 141.683594 204.519531 140.3125 201.738281 140.464844 200.398438 Z M 140.464844 200.378906 " fill-opacity="1" fill-rule="nonzero"/><path fill="#ffeceb" d="M 149.910156 189.609375 C 149.0625 189.828125 149.011719 190.726562 149.199219 191.441406 C 149.316406 194.308594 149.28125 197.175781 149.199219 200.039062 C 148.351562 198.039062 145.976562 189.457031 143.992188 189.199219 C 143.175781 189.199219 142.839844 189.878906 142.90625 190.523438 C 142.90625 190.59375 142.90625 190.660156 142.90625 190.726562 C 142.90625 195.054688 143.195312 199.378906 143.535156 203.6875 C 143.617188 204.351562 144.09375 204.621094 144.585938 204.621094 C 145.261719 204.621094 145.976562 204.078125 145.738281 203.195312 C 145.535156 200.683594 145.382812 198.175781 145.261719 195.664062 C 145.671875 196.699219 146.042969 197.75 146.417969 198.800781 C 147.0625 200.601562 147.519531 202.773438 149.113281 203.976562 C 149.300781 204.027344 149.46875 204.042969 149.636719 204.042969 C 152.285156 204.042969 151.265625 197.410156 151.519531 195.613281 C 151.265625 194.121094 152.386719 189.21875 149.925781 189.589844 Z M 149.910156 189.609375 " fill-opacity="1" fill-rule="nonzero"/><path fill="#ffeceb" d="M 158.253906 202.296875 C 157.59375 202.5 156.878906 202.5 156.203125 202.585938 C 155.996094 201.261719 155.84375 199.921875 155.742188 198.582031 C 155.828125 198.582031 155.914062 198.597656 155.996094 198.597656 C 156.082031 198.597656 156.050781 198.597656 156.066406 198.597656 C 158.050781 198.582031 157.523438 196.121094 155.710938 196.242188 C 155.675781 196.242188 155.660156 196.242188 155.625 196.242188 C 155.574219 194.730469 155.589844 193.222656 155.691406 191.710938 C 155.792969 191.710938 155.894531 191.710938 156.015625 191.710938 C 156.335938 191.761719 156.625 191.796875 156.898438 191.796875 C 159.472656 191.796875 159.390625 189.507812 157.59375 189.4375 C 157.050781 189.507812 156.488281 189.507812 155.945312 189.4375 C 154.964844 188.589844 154.21875 188.980469 153.996094 189.660156 C 153.726562 189.828125 153.523438 190.117188 153.523438 190.539062 C 153.335938 193.171875 153.082031 203.109375 154.777344 204.6875 C 155.046875 204.789062 155.523438 204.839844 156.066406 204.839844 C 157.386719 204.839844 159.1875 204.535156 159.542969 203.925781 C 160.066406 203.109375 159.203125 201.976562 158.269531 202.28125 Z M 158.253906 202.296875 " fill-opacity="1" fill-rule="nonzero"/><path fill="#ffeceb" d="M 165.222656 196.527344 C 163.679688 196.75 164.1875 199.140625 165.699219 198.734375 C 165.699219 200.058594 165.699219 201.398438 165.613281 202.722656 C 162.765625 203.824219 163.222656 198.308594 163.054688 196.613281 C 163.070312 194.679688 162.664062 190.101562 165.765625 191.21875 C 167.277344 191.183594 167.171875 188.964844 165.730469 188.878906 C 161.847656 187.945312 160.628906 192.390625 160.796875 195.410156 C 161.019531 198.464844 160.40625 202.652344 163.121094 204.722656 C 163.664062 204.976562 164.308594 205.113281 164.917969 205.113281 C 166.597656 205.113281 168.207031 204.144531 167.921875 202.128906 C 167.921875 199.957031 168.785156 195.664062 165.257812 196.527344 Z M 165.222656 196.527344 " fill-opacity="1" fill-rule="nonzero"/><path fill="#ffeceb" d="M 175.992188 202.28125 C 175.585938 198.023438 176.621094 193.085938 174.28125 189.300781 C 173.109375 187.960938 170.835938 188.589844 169.988281 190 C 169.242188 191.21875 169.257812 192.695312 169.328125 194.070312 C 169.71875 197.34375 169.34375 200.667969 169.683594 203.925781 C 170.140625 205.570312 172.703125 204.585938 171.804688 203.09375 C 171.753906 201.617188 171.804688 200.125 171.804688 198.648438 C 172.414062 198.648438 173.109375 198.648438 173.667969 198.515625 C 173.667969 200.464844 173.617188 202.433594 173.855469 204.316406 C 173.90625 204.910156 174.449219 205.28125 174.992188 205.28125 C 175.3125 205.28125 175.636719 205.148438 175.855469 204.859375 C 176.332031 204.113281 175.925781 203.144531 175.976562 202.3125 Z M 172.414062 196.324219 C 172.195312 196.359375 171.957031 196.410156 171.753906 196.425781 C 171.632812 194.542969 170.835938 191.289062 172.601562 190.8125 C 173.3125 192.527344 173.550781 194.339844 173.636719 196.207031 C 173.261719 196.207031 172.839844 196.257812 172.414062 196.34375 Z M 172.414062 196.324219 " fill-opacity="1" fill-rule="nonzero"/><path fill="#ffeceb" d="M 181.570312 197.359375 C 182.757812 194.917969 183.828125 189.472656 179.945312 189.117188 C 179.621094 189.117188 179.332031 189.167969 179.09375 189.25 C 177.0625 188.320312 177.5 191.882812 177.382812 193.171875 C 177.113281 196.734375 177.910156 200.226562 178.28125 203.757812 C 178.367188 204.402344 178.859375 204.6875 179.367188 204.6875 C 179.996094 204.6875 180.621094 204.230469 180.503906 203.449219 C 180.316406 201.992188 180.128906 200.53125 179.925781 199.058594 C 181.402344 199.921875 181.503906 202.179688 181.792969 203.738281 C 181.84375 204.332031 182.386719 204.707031 182.929688 204.707031 C 183.25 204.707031 183.574219 204.570312 183.792969 204.28125 C 184.472656 202.585938 183.0625 198.429688 181.554688 197.34375 Z M 179.605469 196.140625 C 179.570312 194.59375 179.636719 193.070312 179.707031 191.523438 C 179.808594 191.472656 179.925781 191.421875 180.046875 191.355469 C 180.960938 192.695312 180.164062 194.5625 179.605469 196.140625 Z M 179.605469 196.140625 " fill-opacity="1" fill-rule="nonzero"/><g fill="#ffffff" fill-opacity="1"><g transform="translate(43.478554, 335.973761)"><g><path d="M 11.75 0.3125 L 11.140625 0.3125 L 10.5625 0.1875 L 9.890625 0.125 L 9.21875 -0.09375 L 8.75 -0.21875 L 8.109375 -0.453125 L 5.9375 -1.625 L 5.453125 -2.015625 L 4.921875 -2.359375 L 3.765625 -3.484375 L 2.484375 -5.328125 L 2.265625 -5.875 L 1.953125 -6.453125 L 1.84375 -7.015625 L 1.59375 -7.625 L 1.28125 -8.875 L 1.28125 -10.15625 L 1.15625 -11.171875 L 1.71875 -15.15625 L 3.1875 -18.03125 L 3.578125 -18.578125 L 4.4375 -19.375 L 4.8125 -19.890625 L 7.0625 -21.328125 L 7.625 -21.546875 L 8.109375 -21.828125 L 8.71875 -22.0625 L 9.953125 -22.3125 L 10.5625 -22.5 L 11.109375 -22.5625 L 14.015625 -22.5625 L 15.609375 -22.34375 L 16.859375 -22 L 18.671875 -21.171875 L 19.375 -20.6875 L 21.03125 -19.1875 L 22.21875 -17.5625 L 22.734375 -16.34375 L 22.828125 -15.765625 L 23.078125 -15.125 L 22.890625 -14.453125 L 22.375 -14.171875 L 21.734375 -14.109375 L 18.515625 -14.171875 L 17.8125 -14.453125 L 17.234375 -15.0625 L 16.953125 -15.609375 L 16.46875 -16.125 L 15.546875 -16.890625 L 14.875 -17.109375 L 13.65625 -17.328125 L 11.6875 -17.390625 L 10.5625 -17.078125 L 9.953125 -16.828125 L 8.90625 -16.0625 L 8.109375 -15.0625 L 7.5625 -13.921875 L 7.375 -13.34375 L 7.34375 -12.703125 L 7.125 -12.125 L 7.09375 -11.109375 L 7.1875 -9.609375 L 7.5625 -8.359375 L 7.828125 -7.828125 L 9 -6.28125 L 9.421875 -5.84375 L 10.03125 -5.546875 L 11.75 -4.921875 L 13.53125 -4.890625 L 14.203125 -4.953125 L 14.84375 -5.140625 L 15.921875 -5.6875 L 17.140625 -6.984375 L 17.390625 -7.53125 L 18.03125 -8.140625 L 18.734375 -8.453125 L 22.15625 -8.421875 L 22.953125 -8.078125 L 23.140625 -7.5 L 23.046875 -6.890625 L 22.828125 -6.25 L 22.671875 -5.65625 L 22.375 -5.078125 L 21.421875 -3.421875 L 20.875 -3 L 20.53125 -2.453125 L 20.109375 -2.046875 L 19.5625 -1.65625 L 19 -1.3125 L 18.515625 -0.984375 L 16.765625 -0.21875 L 13.65625 0.421875 Z M 11.75 0.3125 "/></g></g></g><g fill="#ffffff" fill-opacity="1"><g transform="translate(67.829871, 335.973761)"><g><path d="M 11.9375 0.390625 L 11.265625 0.3125 L 10.125 0.0625 L 9.421875 0 L 8.484375 -0.3125 L 6 -1.59375 L 4.953125 -2.421875 L 4.59375 -2.84375 L 4.125 -3.28125 L 3.703125 -3.796875 L 3.3125 -4.1875 L 1.84375 -7.09375 L 1.5625 -8.296875 L 1.5 -8.90625 L 1.34375 -9.484375 L 1.25 -10.15625 L 1.34375 -12.734375 L 1.890625 -15.1875 L 2.359375 -16.40625 L 3.359375 -18.09375 L 4.921875 -19.921875 L 6 -20.71875 L 6.578125 -21 L 7.0625 -21.359375 L 9.453125 -22.25 L 12.828125 -22.734375 L 13.6875 -22.703125 L 15.546875 -22.375 L 18 -21.609375 L 18.484375 -21.265625 L 19.4375 -20.84375 L 20.171875 -20.328125 L 21.09375 -19.53125 L 22 -18.546875 L 22.703125 -17.59375 L 23.296875 -16.40625 L 24.09375 -14.015625 L 24.328125 -12.703125 L 24.421875 -11.109375 L 24.296875 -10.1875 L 24.265625 -9.515625 L 24.09375 -8.875 L 24.0625 -8.296875 L 23.8125 -7.09375 L 23.328125 -5.875 L 21.9375 -3.734375 L 21.484375 -3.28125 L 21.0625 -2.71875 L 20.171875 -1.953125 L 19.5625 -1.65625 L 19.09375 -1.28125 L 18.03125 -0.703125 L 15.640625 0.09375 L 13.71875 0.34375 Z M 13.71875 -5.265625 L 14.359375 -5.390625 L 14.84375 -5.625 L 15.421875 -5.78125 L 16.953125 -6.828125 L 17.390625 -7.34375 L 17.59375 -7.828125 L 17.9375 -8.390625 L 18.15625 -8.96875 L 18.421875 -10.15625 L 18.484375 -12.09375 L 18.390625 -12.671875 L 18.09375 -13.28125 L 17.71875 -14.5 L 16.46875 -15.796875 L 15.484375 -16.5 L 14.90625 -16.765625 L 14.328125 -16.890625 L 12.796875 -17.078125 L 11.90625 -17.015625 L 10.65625 -16.6875 L 10.25 -16.53125 L 8.65625 -15.453125 L 7.890625 -14.421875 L 7.6875 -13.859375 L 7.4375 -13.28125 L 7.34375 -12.671875 L 7.1875 -12.09375 L 7.1875 -10.15625 L 7.4375 -8.96875 L 7.71875 -8.390625 L 7.890625 -7.890625 L 8.328125 -7.28125 L 8.75 -6.828125 L 9.609375 -6.125 L 10.125 -5.84375 L 11.265625 -5.359375 L 11.96875 -5.265625 Z M 13.71875 -5.265625 "/></g></g></g><g fill="#ffffff" fill-opacity="1"><g transform="translate(93.425892, 335.973761)"><g><path d="M 18.828125 -0.515625 L 18.421875 -0.921875 L 18.03125 -1.40625 L 17.53125 -1.8125 L 17.109375 -2.328125 L 14.015625 -5.421875 L 13.5 -5.84375 L 8.9375 -10.3125 L 8.515625 -10.40625 L 8.203125 -10.03125 L 8.328125 -9.359375 L 8.234375 -1.53125 L 8.328125 -0.890625 L 8.046875 -0.25 L 7.40625 0.0625 L 6.671875 0 L 6 0.09375 L 4.40625 0 L 3.3125 0.0625 L 2.71875 -0.28125 L 2.421875 -0.984375 L 2.421875 -1.59375 L 2.328125 -2.234375 L 2.421875 -3.453125 L 2.359375 -4.09375 L 2.390625 -5.390625 L 2.296875 -6.0625 L 2.296875 -6.671875 L 2.359375 -7.375 L 2.359375 -7.984375 L 2.421875 -8.5625 L 2.296875 -13.125 L 2.390625 -13.796875 L 2.359375 -14.453125 L 2.421875 -15.03125 L 2.328125 -16.34375 L 2.390625 -16.984375 L 2.328125 -21.453125 L 2.75 -22.0625 L 3.515625 -22.4375 L 4.375 -22.1875 L 5.65625 -21.328125 L 7.375 -19.5625 L 7.78125 -19.03125 L 8.328125 -18.640625 L 8.65625 -18.15625 L 9.25 -17.75 L 9.609375 -17.265625 L 10.59375 -16.4375 L 11.265625 -15.734375 L 11.625 -15.296875 L 12.125 -14.90625 L 13.25 -13.765625 L 13.71875 -13.375 L 15.125 -11.9375 L 15.578125 -11.8125 L 15.734375 -12.328125 L 15.703125 -13.59375 L 15.828125 -14.265625 L 15.828125 -14.875 L 15.703125 -15.546875 L 15.734375 -21.359375 L 16.0625 -22.03125 L 16.828125 -22.34375 L 17.46875 -22.3125 L 18.03125 -22.375 L 18.703125 -22.28125 L 19.40625 -22.34375 L 20.015625 -22.34375 L 20.65625 -22.28125 L 21.359375 -21.96875 L 21.734375 -21.390625 L 21.671875 -19.734375 L 21.734375 -18.765625 L 21.609375 -18.125 L 21.609375 -16.859375 L 21.671875 -16.25 L 21.578125 -14.96875 L 21.703125 -11.140625 L 21.640625 -10.4375 L 21.765625 -9.546875 L 21.609375 -0.859375 L 21.328125 -0.1875 L 20.59375 0.15625 L 19.765625 -0.09375 Z M 18.828125 -0.515625 "/></g></g></g><g fill="#ffffff" fill-opacity="1"><g transform="translate(117.48998, 335.973761)"><g><path d="M 2.390625 -0.984375 L 2.453125 -2.203125 L 2.359375 -4.75 L 2.421875 -5.390625 L 2.359375 -7.953125 L 2.453125 -9.1875 L 2.359375 -9.859375 L 2.453125 -10.46875 L 2.359375 -11.84375 L 2.453125 -13.0625 L 2.328125 -15.609375 L 2.421875 -16.25 L 2.328125 -16.890625 L 2.421875 -17.59375 L 2.359375 -18.796875 L 2.390625 -19.4375 L 2.328125 -20.078125 L 2.328125 -21.390625 L 2.8125 -22 L 3.390625 -22.34375 L 4.046875 -22.3125 L 4.625 -22.34375 L 5.265625 -22.28125 L 7.3125 -22.34375 L 7.953125 -22.28125 L 12.484375 -22.25 L 13.796875 -22 L 15.546875 -21.421875 L 16.1875 -21.09375 L 17.359375 -20.359375 L 18.265625 -19.5 L 18.796875 -19.09375 L 19.625 -18.09375 L 19.890625 -17.5625 L 20.625 -16.46875 L 21.09375 -15.1875 L 21.265625 -14.625 L 21.328125 -13.953125 L 21.796875 -12.125 L 21.671875 -10.09375 L 21.703125 -9.546875 L 21.546875 -8.875 L 21.453125 -8.203125 L 21.234375 -7.625 L 21.09375 -6.984375 L 20.78125 -6.390625 L 20.625 -5.78125 L 19.625 -4.1875 L 18.359375 -2.71875 L 15.640625 -0.890625 L 13.796875 -0.3125 L 11.75 -0.03125 L 6 0 L 5.328125 0.09375 L 4.6875 0.09375 L 4.015625 0 L 3.28125 0 L 2.78125 -0.28125 Z M 9.15625 -5.140625 L 11.8125 -5.265625 L 12.953125 -5.59375 L 13.59375 -5.90625 L 14.109375 -6.21875 L 14.5 -6.734375 L 14.90625 -7.1875 L 15.328125 -7.75 L 15.796875 -8.90625 L 16 -9.515625 L 16.15625 -11.078125 L 16.0625 -12.0625 L 15.671875 -13.953125 L 15.265625 -14.453125 L 14.90625 -15.0625 L 14.109375 -15.953125 L 13.03125 -16.65625 L 11.75 -17.046875 L 10.796875 -17.109375 L 10.125 -17.078125 L 9.453125 -17.109375 L 8.515625 -16.765625 L 8.140625 -16.1875 L 8.140625 -7.984375 L 8.046875 -7.34375 L 8.171875 -6.765625 L 8.109375 -6.125 L 8.390625 -5.421875 Z M 9.15625 -5.140625 "/></g></g></g><g fill="#ffffff" fill-opacity="1"><g transform="translate(140.341261, 335.973761)"><g><path d="M 1.53125 -0.921875 L 1.53125 -3.390625 L 1.59375 -3.984375 L 1.984375 -4.59375 L 4.09375 -5.265625 L 4.40625 -5.96875 L 4.46875 -7.21875 L 4.34375 -8.59375 L 4.5 -9.21875 L 4.375 -10.46875 L 4.4375 -11.109375 L 4.46875 -12.421875 L 4.375 -13.15625 L 4.34375 -13.6875 L 4.4375 -16.40625 L 4.015625 -16.984375 L 2.078125 -17.65625 L 1.75 -18.265625 L 1.75 -18.859375 L 1.6875 -19.5 L 1.6875 -20.203125 L 1.75 -20.75 L 1.75 -21.359375 L 2.109375 -22.03125 L 2.8125 -22.34375 L 4.046875 -22.28125 L 4.65625 -22.3125 L 6.609375 -22.28125 L 7.3125 -22.34375 L 11.359375 -22.3125 L 12.390625 -22.03125 L 12.640625 -21.390625 L 12.703125 -20.75 L 12.640625 -20.171875 L 12.640625 -18.296875 L 12.296875 -17.6875 L 11.6875 -17.328125 L 10.984375 -17.296875 L 10.375 -16.953125 L 10.03125 -16.375 L 10.03125 -15.03125 L 10.09375 -14.359375 L 10.03125 -13.71875 L 10.09375 -13.125 L 10.03125 -12.125 L 10.09375 -11.171875 L 9.953125 -9.828125 L 10.09375 -8.5625 L 10.03125 -5.9375 L 10.375 -5.296875 L 12.515625 -4.625 L 12.953125 -4.09375 L 12.859375 -2.140625 L 12.921875 -1.5625 L 12.921875 -0.859375 L 12.578125 -0.28125 L 11.96875 0.03125 L 2.484375 -0.03125 L 1.84375 -0.25 Z M 1.53125 -0.921875 "/></g></g></g><g fill="#ffffff" fill-opacity="1"><g transform="translate(154.830775, 335.973761)"><g><path d="M 2.359375 -0.921875 L 2.421875 -1.53125 L 2.296875 -6.0625 L 2.421875 -6.671875 L 2.328125 -20.75 L 2.390625 -21.421875 L 2.75 -22.0625 L 3.390625 -22.40625 L 4.3125 -22.15625 L 5.234375 -21.484375 L 5.9375 -20.75 L 6.28125 -20.296875 L 6.734375 -19.890625 L 7.09375 -19.40625 L 7.5 -18.96875 L 8.046875 -18.484375 L 8.8125 -17.53125 L 11.015625 -15.265625 L 11.390625 -14.75 L 11.90625 -14.328125 L 12.296875 -13.796875 L 12.703125 -13.375 L 13.28125 -13.1875 L 13.984375 -13.40625 L 18.703125 -18.421875 L 19 -18.890625 L 20.8125 -20.78125 L 21.546875 -21.671875 L 22.34375 -22.125 L 23.296875 -22.40625 L 23.9375 -22.03125 L 24.296875 -21.421875 L 24.265625 -20.75 L 24.328125 -20.203125 L 24.265625 -19.53125 L 24.359375 -10.5 L 24.265625 -9.921875 L 24.328125 -9.296875 L 24.265625 -8.625 L 24.296875 -7.984375 L 24.203125 -7.34375 L 24.265625 -6.09375 L 24.203125 -5.484375 L 24.328125 -1.65625 L 24.234375 -1.015625 L 23.875 -0.34375 L 23.265625 0.03125 L 19.4375 0 L 18.734375 -0.25 L 18.421875 -0.921875 L 18.515625 -5.328125 L 18.421875 -6.515625 L 18.453125 -7.15625 L 18.421875 -7.71875 L 18.515625 -8.328125 L 18.421875 -8.96875 L 18.15625 -9.359375 L 17.78125 -9.296875 L 17.328125 -8.84375 L 16.921875 -8.296875 L 14.234375 -5.59375 L 13.6875 -5.203125 L 12.953125 -5.203125 L 11.90625 -6.0625 L 11.484375 -6.609375 L 9.703125 -8.296875 L 8.90625 -9.296875 L 8.421875 -9.421875 L 8.140625 -8.96875 L 8.265625 -7.125 L 8.171875 -2.8125 L 8.265625 -2.140625 L 8.296875 -1.46875 L 8.234375 -0.859375 L 7.890625 -0.34375 L 6.921875 -0.0625 L 3.421875 0 L 2.65625 -0.34375 Z M 2.359375 -0.921875 "/></g></g></g><g fill="#ffffff" fill-opacity="1"><g transform="translate(181.511908, 335.973761)"><g><path d="M 2.296875 -0.921875 L 2.421875 -1.5625 L 2.453125 -2.203125 L 2.390625 -3.453125 L 2.390625 -4.09375 L 2.328125 -4.8125 L 2.421875 -5.390625 L 2.390625 -6 L 2.453125 -6.703125 L 2.359375 -7.375 L 2.421875 -8.65625 L 2.328125 -9.890625 L 2.421875 -10.5625 L 2.421875 -16.28125 L 2.359375 -16.859375 L 2.421875 -17.53125 L 2.296875 -19.15625 L 2.421875 -20.078125 L 2.359375 -21.359375 L 2.6875 -22.0625 L 3.609375 -22.28125 L 7.78125 -22.375 L 8.359375 -22.3125 L 9.609375 -22.34375 L 10.25 -22.28125 L 11.65625 -22.34375 L 12.296875 -22.25 L 12.859375 -22.3125 L 15.421875 -22.28125 L 16.09375 -22 L 16.40625 -21.359375 L 16.3125 -20.75 L 16.28125 -20.046875 L 16.375 -19.4375 L 16.4375 -18.125 L 16.09375 -17.5625 L 15.421875 -17.203125 L 9.296875 -17.171875 L 8.296875 -16.890625 L 7.984375 -15.953125 L 8.046875 -14.96875 L 8.421875 -14.390625 L 8.96875 -14.046875 L 11.484375 -14.078125 L 12.21875 -14.015625 L 12.890625 -14.015625 L 13.53125 -14.078125 L 14.8125 -14.046875 L 15.359375 -13.6875 L 15.640625 -13.09375 L 15.703125 -12.453125 L 15.640625 -9.921875 L 15.328125 -9.328125 L 14.6875 -8.96875 L 14.109375 -8.9375 L 13.4375 -9 L 12.578125 -8.9375 L 10.890625 -9.03125 L 10.25 -8.96875 L 9 -8.96875 L 8.421875 -8.625 L 8.140625 -7.953125 L 8.109375 -6.390625 L 8.390625 -5.390625 L 9.0625 -5.015625 L 9.765625 -5.078125 L 10.46875 -5.015625 L 11.078125 -5.109375 L 15.296875 -5.046875 L 16.25 -4.71875 L 16.65625 -4.09375 L 16.59375 -3.484375 L 16.625 -1.5 L 16.5625 -0.890625 L 16.28125 -0.28125 L 15.609375 0.03125 L 15 0.09375 L 13.0625 -0.03125 L 11.109375 0.0625 L 10.53125 -0.03125 L 3.3125 0.03125 L 2.71875 -0.3125 Z M 2.296875 -0.921875 "/></g></g></g><g fill="#ffffff" fill-opacity="1"><g transform="translate(199.799331, 335.973761)"><g><path d="M 18.828125 -0.515625 L 18.421875 -0.921875 L 18.03125 -1.40625 L 17.53125 -1.8125 L 17.109375 -2.328125 L 14.015625 -5.421875 L 13.5 -5.84375 L 8.9375 -10.3125 L 8.515625 -10.40625 L 8.203125 -10.03125 L 8.328125 -9.359375 L 8.234375 -1.53125 L 8.328125 -0.890625 L 8.046875 -0.25 L 7.40625 0.0625 L 6.671875 0 L 6 0.09375 L 4.40625 0 L 3.3125 0.0625 L 2.71875 -0.28125 L 2.421875 -0.984375 L 2.421875 -1.59375 L 2.328125 -2.234375 L 2.421875 -3.453125 L 2.359375 -4.09375 L 2.390625 -5.390625 L 2.296875 -6.0625 L 2.296875 -6.671875 L 2.359375 -7.375 L 2.359375 -7.984375 L 2.421875 -8.5625 L 2.296875 -13.125 L 2.390625 -13.796875 L 2.359375 -14.453125 L 2.421875 -15.03125 L 2.328125 -16.34375 L 2.390625 -16.984375 L 2.328125 -21.453125 L 2.75 -22.0625 L 3.515625 -22.4375 L 4.375 -22.1875 L 5.65625 -21.328125 L 7.375 -19.5625 L 7.78125 -19.03125 L 8.328125 -18.640625 L 8.65625 -18.15625 L 9.25 -17.75 L 9.609375 -17.265625 L 10.59375 -16.4375 L 11.265625 -15.734375 L 11.625 -15.296875 L 12.125 -14.90625 L 13.25 -13.765625 L 13.71875 -13.375 L 15.125 -11.9375 L 15.578125 -11.8125 L 15.734375 -12.328125 L 15.703125 -13.59375 L 15.828125 -14.265625 L 15.828125 -14.875 L 15.703125 -15.546875 L 15.734375 -21.359375 L 16.0625 -22.03125 L 16.828125 -22.34375 L 17.46875 -22.3125 L 18.03125 -22.375 L 18.703125 -22.28125 L 19.40625 -22.34375 L 20.015625 -22.34375 L 20.65625 -22.28125 L 21.359375 -21.96875 L 21.734375 -21.390625 L 21.671875 -19.734375 L 21.734375 -18.765625 L 21.609375 -18.125 L 21.609375 -16.859375 L 21.671875 -16.25 L 21.578125 -14.96875 L 21.703125 -11.140625 L 21.640625 -10.4375 L 21.765625 -9.546875 L 21.609375 -0.859375 L 21.328125 -0.1875 L 20.59375 0.15625 L 19.765625 -0.09375 Z M 18.828125 -0.515625 "/></g></g></g><g fill="#ffffff" fill-opacity="1"><g transform="translate(223.863419, 335.973761)"><g><path d="M 6.125 -0.984375 L 6.09375 -3.484375 L 6.15625 -4.125 L 6.0625 -6.0625 L 6.09375 -6.734375 L 6.0625 -7.375 L 6.1875 -8.328125 L 6.09375 -9.25 L 6.09375 -10.53125 L 6.15625 -11.171875 L 6.09375 -11.78125 L 6.1875 -12.765625 L 6.09375 -16.28125 L 5.78125 -16.890625 L 5.203125 -17.234375 L 2.359375 -17.265625 L 1.53125 -17.171875 L 0.890625 -17.5 L 0.546875 -18.203125 L 0.578125 -21.390625 L 0.890625 -22.03125 L 1.59375 -22.34375 L 11.109375 -22.28125 L 11.84375 -22.375 L 12.484375 -22.375 L 13.125 -22.3125 L 13.765625 -22.3125 L 14.453125 -22.40625 L 15.0625 -22.40625 L 15.578125 -22.34375 L 16.34375 -22.40625 L 16.984375 -22.09375 L 17.296875 -21.453125 L 17.234375 -18.828125 L 17.296875 -18.15625 L 16.984375 -17.53125 L 16.25 -17.234375 L 14.5 -17.265625 L 13.921875 -17.203125 L 13.28125 -17.234375 L 12.734375 -17.203125 L 12.03125 -16.921875 L 11.78125 -16.34375 L 11.84375 -15.640625 L 11.75 -15 L 11.875 -8.65625 L 11.78125 -7.3125 L 11.84375 -6.734375 L 11.78125 -4.78125 L 11.6875 -4.125 L 11.78125 -3.578125 L 11.8125 -2.296875 L 11.75 -1.5625 L 11.78125 -0.953125 L 11.53125 -0.3125 L 10.890625 -0.0625 L 8.90625 -0.0625 L 8.296875 0 L 7.65625 -0.0625 L 7.0625 0 L 6.390625 -0.3125 Z M 6.125 -0.984375 "/></g></g></g><g fill="#ffffff" fill-opacity="1"><g transform="translate(240.682646, 335.973761)"><g><path d="M 11.9375 0.390625 L 11.265625 0.3125 L 10.125 0.0625 L 9.421875 0 L 8.484375 -0.3125 L 6 -1.59375 L 4.953125 -2.421875 L 4.59375 -2.84375 L 4.125 -3.28125 L 3.703125 -3.796875 L 3.3125 -4.1875 L 1.84375 -7.09375 L 1.5625 -8.296875 L 1.5 -8.90625 L 1.34375 -9.484375 L 1.25 -10.15625 L 1.34375 -12.734375 L 1.890625 -15.1875 L 2.359375 -16.40625 L 3.359375 -18.09375 L 4.921875 -19.921875 L 6 -20.71875 L 6.578125 -21 L 7.0625 -21.359375 L 9.453125 -22.25 L 12.828125 -22.734375 L 13.6875 -22.703125 L 15.546875 -22.375 L 18 -21.609375 L 18.484375 -21.265625 L 19.4375 -20.84375 L 20.171875 -20.328125 L 21.09375 -19.53125 L 22 -18.546875 L 22.703125 -17.59375 L 23.296875 -16.40625 L 24.09375 -14.015625 L 24.328125 -12.703125 L 24.421875 -11.109375 L 24.296875 -10.1875 L 24.265625 -9.515625 L 24.09375 -8.875 L 24.0625 -8.296875 L 23.8125 -7.09375 L 23.328125 -5.875 L 21.9375 -3.734375 L 21.484375 -3.28125 L 21.0625 -2.71875 L 20.171875 -1.953125 L 19.5625 -1.65625 L 19.09375 -1.28125 L 18.03125 -0.703125 L 15.640625 0.09375 L 13.71875 0.34375 Z M 13.71875 -5.265625 L 14.359375 -5.390625 L 14.84375 -5.625 L 15.421875 -5.78125 L 16.953125 -6.828125 L 17.390625 -7.34375 L 17.59375 -7.828125 L 17.9375 -8.390625 L 18.15625 -8.96875 L 18.421875 -10.15625 L 18.484375 -12.09375 L 18.390625 -12.671875 L 18.09375 -13.28125 L 17.71875 -14.5 L 16.46875 -15.796875 L 15.484375 -16.5 L 14.90625 -16.765625 L 14.328125 -16.890625 L 12.796875 -17.078125 L 11.90625 -17.015625 L 10.65625 -16.6875 L 10.25 -16.53125 L 8.65625 -15.453125 L 7.890625 -14.421875 L 7.6875 -13.859375 L 7.4375 -13.28125 L 7.34375 -12.671875 L 7.1875 -12.09375 L 7.1875 -10.15625 L 7.4375 -8.96875 L 7.71875 -8.390625 L 7.890625 -7.890625 L 8.328125 -7.28125 L 8.75 -6.828125 L 9.609375 -6.125 L 10.125 -5.84375 L 11.265625 -5.359375 L 11.96875 -5.265625 Z M 13.71875 -5.265625 "/></g></g></g></svg>