<?xml version="1.0" encoding="utf-8"?>
<!-- Generator: Adobe Illustrator 23.0.5, SVG Export Plug-In . SVG Version: 6.00 Build 0)  -->
<svg version="1.1" id="Capa_1" xmlns="http://www.w3.org/2000/svg" xmlns:xlink="http://www.w3.org/1999/xlink" x="0px" y="0px"
	 viewBox="0 0 595.28 841.89" style="enable-background:new 0 0 595.28 841.89;" xml:space="preserve">
<style type="text/css">
	.st0{fill:#DB143C;}
	.st1{fill:#FEFEFE;}
	.st2{fill:#FEF9EC;}
	.st3{fill:#FDFCFC;}
	.st4{fill:#FDFCFD;}
	.st5{fill:#FDFAFA;}
	.st6{fill:#FDFBFC;}
	.st7{fill:#FDF9FA;}
	.st8{fill:#DA1039;}
	.st9{fill:#EB7C8B;}
	.st10{fill:#D8022E;}
	.st11{fill:#FEFEF8;}
	.st12{fill:#DB173F;}
	.st13{fill:#FDFBFB;}
	.st14{fill:#D90833;}
	.st15{fill:#FDFAFB;}
	.st16{fill:#DA1038;}
	.st17{fill:#D9062F;}
	.st18{fill:#D90832;}
	.st19{fill:#D8032E;}
	.st20{fill:#D8022D;}
	.st21{fill:#D80530;}
	.st22{fill:#E97188;}
	.st23{fill:#D8012C;}
	.st24{fill:#D8042E;}
	.st25{fill:#D90831;}
	.st26{fill:#D90932;}
	.st27{fill:#D90933;}
	.st28{fill:#D90731;}
	.st29{fill:#D90631;}
	.st30{fill:#D8032D;}
	.st31{fill:#D8052F;}
	.st32{fill:#D90630;}
	.st33{fill:#D80630;}
	.st34{fill:#D9052F;}
	.st35{fill:#D90A34;}
	.st36{fill:#D8032C;}
	.st37{fill:#D8042F;}
	.st38{fill:#D90A33;}
	.st39{fill:#FBE8CB;}
	.st40{fill:#FEBB4A;}
	.st41{fill:#FDF5E9;}
	.st42{fill:#FEB740;}
	.st43{fill:#FEFEF9;}
	.st44{fill:#FEFCF6;}
	.st45{fill:#FEDB9D;}
	.st46{fill:#DB153D;}
	.st47{fill:#DB163D;}
	.st48{fill:#DC1E44;}
	.st49{fill:#DC183F;}
	.st50{fill:#D90B34;}
	.st51{fill:#DE2C50;}
	.st52{fill:#DE294D;}
	.st53{fill:#A5B5F4;}
	.st54{fill:#6D67BD;}
	.st55{fill:#6E68BD;}
	.st56{fill:#3D231B;}
	.st57{fill:#6F69BD;}
	.st58{fill:#3D2319;}
	.st59{fill:#3C2219;}
	.st60{fill:#3E2419;}
	.st61{fill:#402519;}
	.st62{fill:#3E2319;}
	.st63{fill:#43271A;}
	.st64{fill:#FEB840;}
	.st65{fill:#331B16;}
	.st66{fill:#FEB73F;}
	.st67{fill:#F8F4E9;}
	.st68{fill:#3F2721;}
	.st69{fill:#361A0D;}
	.st70{fill:#FDBB4B;}
</style>
<g>
	<g>
		<path class="st0" d="M174,216.39c82.25,0,164.5,0,246.75,0c12.85,2.26,19.2,10.03,19.2,23.77c0.03,72.6,0.01,145.2,0.01,217.8
			c0,47.86-0.01,95.72,0.01,143.58c0,5.07-0.53,10-3.27,14.42c-4.25,6.85-10.11,10.72-18.47,10.71
			c-80.47-0.05-160.95-0.15-241.42,0.1c-11.17,0.03-21.04-9.4-21.93-20.41c-0.13-1.62-0.1-3.25-0.1-4.87c0-120.21,0-240.42,0-360.63
			c0-2.62-0.13-5.26,0.6-7.82C158.06,223.54,163.51,217.15,174,216.39z"/>
		<path class="st1" d="M174,216.39c-9.09,2.49-15.5,7.72-17.52,17.31c-0.38,1.81-0.46,3.72-0.46,5.58
			C156,360.76,156,482.23,156.01,603.71c0,13.25,9.11,22.19,22.49,22.2c79.11,0.01,158.22,0.01,237.33,0
			c14.09,0,22.91-8.79,22.91-22.92c-0.01-70.48-0.05-140.97-0.06-211.46c0-50.49,0-100.98,0.09-151.47
			c0.02-9.93-3.72-17.43-12.85-21.82c-1.64-0.79-3.44-1.24-5.16-1.85c10.63,0,21.25,0.05,31.87-0.05c1.61-0.01,2.21,0.31,1.89,1.93
			c-0.1,0.48-0.01,1-0.01,1.5c0,134.75-0.01,269.5,0.07,404.25c0,2.81-0.63,3.45-3.45,3.45c-101.75-0.08-203.5-0.08-305.25,0
			c-2.81,0-3.45-0.63-3.45-3.45c0.08-134.75,0.08-269.5,0-404.25c0-2.81,0.62-3.51,3.45-3.45
			C155.25,216.52,164.62,216.39,174,216.39z"/>
		<path class="st2" d="M428.95,298.18c0.01,64.74,0.01,129.48,0.1,194.22c0,2.56-0.83,3.03-3.18,3.03
			c-85.74-0.06-171.47-0.05-257.21-0.02c-2,0-3.13-0.09-3.12-2.7c0.08-64.24,0.07-128.48,0.08-192.72c0-0.37,0.1-0.74,0.15-1.11
			c0.36-0.26,0.76-0.39,1.2-0.38c3.94,0.2,7.88,0.04,11.82,0.11c1.59,0.03,3.23-0.16,4.61,0.91c0.31,0.29,0.53,0.64,0.64,1.05
			c0.03,0.64-0.23,1.16-0.63,1.63c-0.7,0.73-1.6,1.14-2.52,1.5c-5.26,2.08-8.91,5.63-10.35,11.24c-0.21,0.83-0.46,1.69-1.34,2.11
			c-0.29,0.06-0.47-0.03-0.55-0.26c-0.01-0.04-0.07-0.06-0.11-0.09c0.2,1.41,0.53,2.79,0.05,4.24c-0.44,1.35,0.61-0.22,0.67,0.29
			c1.2,0.75,1.26,2.09,1.67,3.24c2.74,7.78,10.26,12.64,17.95,11.56c7.69-1.07,14.11-7.88,14.77-15.67
			c0.55-6.46-3.73-13.41-10.17-16.51c-1.12-0.54-2.35-0.85-3.32-1.69c-0.47-0.49-0.78-1.04-0.66-1.76c0.2-0.44,0.49-0.8,0.87-1.1
			c2.23-1.18,4.65-0.73,6.99-0.73c74.28-0.03,148.56-0.02,222.84-0.02c1.87,0,3.75,0.06,5.61-0.09c0.66-0.11,1.27-0.41,1.92-0.58
			C428.19,297.8,428.59,297.9,428.95,298.18z"/>
		<path class="st3" d="M281.4,549.36c2.35,8.11,0.29,13.99-5.75,16.43c-5.59,2.25-11.91,0.25-14.69-4.65
			c-2.88-5.08-1.7-11.92,2.64-15.25c4.69-3.59,11.84-3.03,16.06,1.28c0.52,0.53,1.01,1.08,1.51,1.62c0.27,0.04,0.39,0.14,0.37,0.29
			C281.52,549.27,281.47,549.36,281.4,549.36z"/>
		<path class="st4" d="M336.07,566.32c-1.44-6.9-0.63-13.88-0.51-20.8c0.05-2.94,2.37-1.36,3.42-0.33c3,2.96,5.81,6.1,8.7,9.17
			c0.38-0.17,0.76-0.33,1.14-0.5c0-2.39,0.12-4.79-0.03-7.16c-0.16-2.51,1.16-2.81,3.23-2.82c2.06,0,2.91,0.59,2.86,2.78
			c-0.13,5.6-0.05,11.21-0.1,16.81c-0.01,0.94,0.4,2.19-0.78,2.66c-1.22,0.48-2.12-0.42-2.87-1.26c-2.8-3.12-5.58-6.28-8.82-9.93
			c-1.88,4.65,0.43,8.48-1.97,11.6C338.88,567.15,337.43,567.56,336.07,566.32z"/>
		<path class="st4" d="M256.41,552.97c-0.23,0.57-0.3,1.29-0.7,1.69c-3.14,3.24-1.74,6.1,0.57,8.99c1.34,1.68,0.98,2.44-1.31,2.62
			c-3.2,0.26-4.98-1.09-6.33-3.89c-1.42-2.95-1.65-2.87-4.17-1.75c0.59,1.47,0.66,2.93-0.05,4.39c-0.55,0.49-1.09,0.98-1.64,1.47
			c-1.1,0.49-2.2,0.49-3.3-0.02c-0.5-0.54-1-1.05-0.99-1.9c0.03-6.57,0.03-13.14,0.08-19.71c0-0.29,0.38-0.58,0.59-0.88
			c3.55-0.93,7.09-0.99,10.63,0.05c4.05,0.58,5.62,3.51,6.62,6.98C257.04,551.68,257.07,552.33,256.41,552.97z"/>
		<path class="st4" d="M223.42,565.01c-0.52,0.52-1.04,1.03-1.56,1.55c-1.14,0.68-2.27,0.78-3.39-0.05c-1.02-0.77-1.05-1.85-1.04-3
			c0.04-5.48,0.15-10.95,0-16.42c-0.07-2.51,0.81-3.38,3.22-3.14c1.35,0.14,2.73,0.04,4.1,0.02c6.4-0.09,8.44,1.27,10.67,7.08
			c0.65,0.89,0.7,1.77-0.03,2.64c-1.4,4.83-4.72,6.99-9.65,6.93c-0.79-0.01-1.79-0.38-2.18,0.79
			C223.94,562.62,224.2,563.84,223.42,565.01z"/>
		<path class="st3" d="M358.71,566.5c-1.51-0.93-0.89-2.04-0.33-3.22c2.7-5.74,5.36-11.5,8.04-17.26c0.52-1.12,0.92-2.47,2.51-2.35
			c1.34,0.1,1.69,1.35,2.15,2.35c2.55,5.54,5.11,11.08,7.58,16.65c0.45,1.02,1.9,2.27,0.47,3.27c-1.37,0.95-3.2,0.7-4.61-0.21
			c-5.18-3.36-8.53-3.18-12.42,0.8C360.95,567.26,359.82,567.32,358.71,566.5z"/>
		<path class="st5" d="M317.17,565c-0.51,0.52-1.03,1.05-1.54,1.57c-3.89,0.69-7.78,0.81-11.67-0.06c-1.73-0.92-1.16-2.58-1.23-3.99
			c-0.26-4.95,0.46-9.93-0.34-14.87c-0.59-0.33-0.61-0.66,0.01-0.98c0.21-2.05,1.19-2.94,3.39-2.77c2.46,0.19,4.95-0.03,7.42,0.06
			c1.14,0.04,2.79-0.61,3.23,0.94c0.42,1.45,0.82,3.21-0.91,4.36c-2.26,1.34-4.87-0.21-7.16,0.89c0,0.26,0,0.51-0.01,0.77
			c0.27,0.2,0.45,0.46,0.55,0.78c0.94,0.95,2.12,0.42,3.2,0.54c1.69,0.19,3.91-0.78,3.91,2.45c0,3.04-1.87,2.66-3.78,2.55
			c-0.5-0.03-1,0-1.5,0.01c-1.45,0.02-2.45,0.53-2.31,2.2c0.12,1.45,1.02,1.74,2.32,1.8c2.17,0.1,4.53-0.8,6.41,1.06
			C317.85,563.19,317.84,564.09,317.17,565z"/>
		<path class="st6" d="M330,262.89c0.01,0.5,0.01,1,0.02,1.5c0.5,1.96,0.69,3.91-0.12,5.83c-1.35,2.49-2.55,0.88-3.67-0.19
			c-2.53-2.42-5.01-4.89-7.72-7.54c-1.36,3.35,0.62,6.62-1.44,9.29c-1.13,0.75-2.26,0.76-3.39,0c-1.74-2.07-0.79-4.53-0.9-6.8
			c-0.16-3.47-0.05-6.96-0.03-10.44c0.01-0.83-0.33-1.84,0.63-2.36c1.15-0.61,1.85,0.36,2.55,0.99c2.2,1.99,4.35,4.03,6.52,6.06
			c0.35,0.12,0.59,0.35,0.7,0.7c1.98,1.22,1.26-0.6,1.37-1.29c0.37-2.31-0.99-4.88,1.05-6.95c0.94-0.62,1.87-0.64,2.8,0.01
			c0.44,0.25,0.89,0.5,1.33,0.75C330.98,255.9,330.4,259.4,330,262.89z"/>
		<path class="st7" d="M296.91,251.69c1.99,1.67,0.77,3.93,1.06,5.91c0.23,1.57,0.28,3.18,0.4,4.77c0.87,1.12,0.55,2.31,0.2,3.5
			c2.06,2.16,3.86,2.48,5.15-0.73c-0.46-4.18-0.77-8.36,0.16-12.52c4.08-1.53,4.95-1,4.96,3.07c0.01,3.11,0.11,6.23-0.07,9.34
			c-0.25,4.26-3.37,6.89-7.79,6.85c-4.52-0.05-7.68-2.65-7.6-6.94c0.08-4.4-1.13-8.9,0.77-13.2
			C295.07,251.01,295.99,251.09,296.91,251.69z"/>
		<path class="st8" d="M428,496.79c-87.33,0-174.66,0-261.98,0c0-0.12,0-0.25,0-0.37c87.38,0,174.75,0,262.13,0
			C428.09,496.54,428.04,496.66,428,496.79z"/>
		<path class="st9" d="M428.95,298.18l-0.36-0.06l-0.36,0.08c-1.87,1-3.91,0.68-5.89,0.68c-75.36,0.01-150.72-0.04-226.08,0.08
			c-8.61,0.01-17.22-0.19-25.84-0.08c-1.61,0.02-3.27,0.22-4.72-0.79c0.01-0.27,0.03-0.55,0.04-0.82c1.53-0.7,3.16-0.62,4.79-0.62
			c84.57,0,169.14,0,253.71,0c1.62,0,3.26-0.14,4.76,0.69C428.99,297.62,428.97,297.9,428.95,298.18z"/>
		<path class="st10" d="M429,297.34c-86.76,0.02-173.51,0.03-260.27,0.04c-1,0-1.99-0.08-2.99-0.12c0.25-0.21,0.5-0.42,0.76-0.62
			c1.3-0.68,2.7-0.34,4.05-0.35c84.55-0.02,169.1-0.02,253.65,0c1.35,0,2.75-0.34,4.05,0.35C428.5,296.87,428.75,297.11,429,297.34z
			"/>
		<path class="st11" d="M165.71,298.08c67.29,0.02,134.57,0.04,201.86,0.06c20.22,0.01,40.45,0.04,60.67,0.06
			c-0.25,0.23-0.49,0.46-0.74,0.69c-1.43,0.7-2.95,0.34-4.43,0.34c-75.6,0.02-151.19-0.08-226.79,0.15
			c-8.7,0.03-17.4-0.39-26.1-0.15c-1.22,0.03-2.5,0.32-3.68-0.34c-0.24,0-0.48,0-0.72,0C165.75,298.62,165.73,298.35,165.71,298.08z
			"/>
		<path class="st12" d="M428.25,296.64c-87.25,0-174.5,0-261.75,0c1.11-1.22,2.58-0.73,3.89-0.73c84.66-0.02,169.31-0.02,253.97,0
			C425.67,295.91,427.14,295.42,428.25,296.64z"/>
		<path class="st13" d="M256.71,271.75c-1.06-0.7-0.95-1.52-0.45-2.57c2.46-5.19,4.83-10.41,7.28-15.6
			c0.95-2.02,2.33-3.01,3.62-0.37c2.69,5.49,5.15,11.09,7.75,16.63c0.42,0.91-0.09,1.39-0.61,1.94c-0.87,0.74-1.74,0.74-2.61,0
			c-0.83-0.65-1.66-1.31-2.49-1.96c-2.48-0.23-4.96-0.19-7.44-0.12c-0.53,0.62-1.05,1.23-1.58,1.85
			C259.1,272.71,257.92,272.43,256.71,271.75z"/>
		<path class="st13" d="M287.5,549.26c-0.61-0.12-1.23-0.37-1.82-0.32c-2.1,0.19-2.48-0.92-2.46-2.73c0.02-1.85,0.87-2.33,2.54-2.32
			c3.87,0.03,7.74-0.06,11.61-0.1c1.48-0.01,2.68,0.16,2.65,2.2c-0.03,1.87-0.21,3.24-2.6,2.94c-2.72-0.34-2.98,1.36-2.93,3.49
			c0.09,3.74-0.05,7.49,0.07,11.23c0.08,2.42-1.35,2.48-3.12,2.55c-1.86,0.07-2.78-0.45-2.71-2.5c0.12-3.62,0.12-7.24,0.02-10.86
			c-0.03-1.13,0.64-2.53-0.78-3.38C287.68,549.73,287.52,549.67,287.5,549.26z"/>
		<path class="st5" d="M329.25,560.64c2.52,1.4,3.18,3.27,1.44,5.74c-3.14,1.08-6.3,0.89-9.47,0.12c-1.46-2-2.31-3.9,0.73-5.3
			c1.08-0.5,1.23-1.56,1.04-2.56c-0.67-3.59,1.89-7.85-2.45-10.78c-0.72-0.49-1.04-3.5,0.85-3.63c3.32-0.24,6.87-1.46,10.06,0.73
			c0.59,0.95,0.63,1.89-0.03,2.83c-2.72,1.19-3.16,3.44-2.82,6.06C328.91,556.1,327.88,558.48,329.25,560.64L329.25,560.64z"/>
		<path class="st14" d="M164.35,494.37c0-65.33,0-130.65,0-195.98c0.12,0,0.24,0,0.36,0c0,65.38,0,130.76,0,196.14
			C164.59,494.48,164.47,494.43,164.35,494.37z"/>
		<path class="st8" d="M429.86,494.39c0-65.33,0-130.66,0-195.98c0.12,0,0.25,0,0.37,0c0,65.37,0,130.75,0,196.12
			C430.1,494.48,429.98,494.43,429.86,494.39z"/>
		<path class="st15" d="M288,251.62c1.41,0.25,2.99,0.02,2.98,2.36c0,2.17-1.07,2.47-2.79,2.38c-1.9-0.1-2.21,1.12-2.2,2.67
			c0.04,3.23-0.06,6.46,0.04,9.68c0.06,1.81-0.39,2.7-2.44,2.75c-2.04,0.04-2.59-0.75-2.52-2.62c0.1-3.23,0.03-6.46,0.06-9.69
			c0.01-1.48-0.13-2.81-2.08-2.8c-4.15,0.04-3.27-2.21-2.1-4.59C280.63,250.91,284.31,251.11,288,251.62z"/>
		<path class="st16" d="M302.39,546.66c0,0.33-0.01,0.65-0.01,0.98c0,5.81,0,11.63,0,17.44c-0.23,0-0.46,0-0.69-0.01
			c0-6.69,0-13.37,0-20.06c0.14-0.02,0.27-0.03,0.41-0.05C302.2,545.53,302.3,546.1,302.39,546.66z"/>
		<path class="st17" d="M261.77,269.68c2.5-0.88,4.98-1.03,7.44,0.12C266.71,270.69,264.23,270.88,261.77,269.68z"/>
		<path class="st18" d="M303.89,252.62c-0.05,4.17-0.11,8.34-0.16,12.52c-1.42-4.18-0.65-8.45-0.46-12.7c0-0.02,0.22-0.06,0.32-0.03
			C303.7,252.44,303.79,252.54,303.89,252.62z"/>
		<path class="st19" d="M298.58,265.87c-0.55-1.14-0.43-2.32-0.2-3.5c0-3.06,0-6.12,0-9.19
			C298.86,257.42,300.04,261.67,298.58,265.87z"/>
		<path class="st20" d="M303.96,566.5c3.89,0.02,7.78,0.04,11.67,0.06c-0.51,1.7-1.88,0.72-2.79,0.77c-2.93,0.14-5.87,0.03-8.8,0.01
			c-0.08,0-0.23-0.14-0.22-0.21C303.83,566.92,303.9,566.71,303.96,566.5z"/>
		<path class="st21" d="M314.96,543.18c-3.67,0-7.34,0-11,0c0-0.11,0-0.21-0.01-0.32c3.67,0,7.34,0,11.01,0
			C314.96,542.97,314.96,543.07,314.96,543.18z"/>
		<path class="st18" d="M288,251.62c-3.67,0.59-7.36,0.18-11.04,0.14c-0.09-1.96,1.45-0.83,1.95-0.79
			C281.93,251.18,285.07,250.09,288,251.62z"/>
		<path class="st22" d="M249.8,544.05c-3.54-0.02-7.09-0.03-10.63-0.05c0-0.21,0.03-0.42,0.08-0.62c3.5-0.46,7.01-0.75,10.5,0.12
			C249.74,543.68,249.76,543.87,249.8,544.05z"/>
		<path class="st23" d="M321.22,566.49c3.16-0.04,6.31-0.08,9.47-0.12c-3.08,2.02-6.41,0.8-9.65,0.73c-0.01,0-0.05-0.22-0.02-0.31
			C321.06,566.68,321.15,566.59,321.22,566.49z"/>
		<path class="st24" d="M249.75,543.5c-3.5-0.04-7-0.08-10.5-0.12C242.76,542.25,246.26,542.05,249.75,543.5z"/>
		<path class="st25" d="M330,262.89c-0.09-3.48-0.18-6.96-0.27-10.44C331.53,255.89,331.09,259.38,330,262.89z"/>
		<path class="st26" d="M329.25,560.64c0-2.92,0-5.85,0-8.77C329.63,554.8,330.81,557.76,329.25,560.64L329.25,560.64z"/>
		<path class="st27" d="M323.17,259.93c-0.23-0.23-0.47-0.47-0.7-0.7c1.34-1.84,0.33-4.14,1.5-7.11
			C323.72,255.43,324.73,257.77,323.17,259.93z"/>
		<path class="st23" d="M308.37,550.13c2.16-2.1,4.76-0.69,7.16-0.89C313.36,551.3,310.72,549.58,308.37,550.13z"/>
		<path class="st25" d="M329.9,270.23c0.04-1.94,0.08-3.89,0.12-5.83c1.33,1.89,0.68,3.95,0.51,5.96c0,0.04-0.22,0.09-0.32,0.07
			C330.1,270.4,330,270.3,329.9,270.23z"/>
		<path class="st28" d="M308.91,551.67c-0.46-0.06-0.67-0.3-0.55-0.78c1.94,0,3.87,0,5.81,0c0,0.26,0,0.52,0,0.78
			C312.42,551.67,310.67,551.67,308.91,551.67z"/>
		<path class="st25" d="M281.4,549.36c-0.2-0.14-0.27-0.33-0.23-0.57c0.85-1.15,0.69-2.58,1.29-4.74
			C282.73,546.56,283.23,548.2,281.4,549.36z"/>
		<path class="st29" d="M235.39,553.69c0.01-0.88,0.02-1.76,0.03-2.64c0.03-0.12,0.03-0.26,0.1-0.36c0.12-0.18,0.28-0.33,0.43-0.49
			c0.61,1.39,0.26,2.84,0.19,4.26c-0.02,0.48-0.4,0.57-0.28,0.1C235.92,554.32,235.56,553.98,235.39,553.69z"/>
		<path class="st20" d="M252.16,567.02c1.46-0.33,2.9-0.56,4.56,0.06C255.02,567.55,253.58,567.48,252.16,567.02z"/>
		<path class="st30" d="M239.49,566.48c1.1-0.34,2.2-0.34,3.3,0.02c-0.9,1.9-2.34,0.61-3.56,0.61c0.01-0.12-0.02-0.25,0.02-0.35
			C239.3,566.65,239.41,566.57,239.49,566.48z"/>
		<path class="st29" d="M313.68,271.78c1.13,0,2.26,0,3.39,0c-0.92,1.81-2.36,0.58-3.58,0.61c-0.01,0-0.05-0.22-0.02-0.32
			C313.5,271.96,313.61,271.87,313.68,271.78z"/>
		<path class="st31" d="M256.41,552.97c0.01-0.64,0.01-1.29,0.02-1.93c0.22-0.26,0.37-1.28,0.64-0.64c0.41,0.94,0.38,2.31-0.02,3.26
			C256.81,554.24,256.63,553.24,256.41,552.97z"/>
		<path class="st30" d="M358.71,566.5c1.12,0.01,2.25,0.02,3.37,0.03c-0.94,1.76-2.36,0.62-3.6,0.58c0,0-0.03-0.23,0-0.33
			C358.53,566.68,358.63,566.6,358.71,566.5z"/>
		<path class="st24" d="M244.43,565.02c-0.32-1.47-0.3-2.93,0.05-4.39c1.33,1.34,0.72,2.95,0.59,4.48c0,0.04-0.21,0.11-0.32,0.09
			C244.63,565.19,244.53,565.09,244.43,565.02z"/>
		<path class="st32" d="M218.48,566.5c1.13,0.02,2.26,0.04,3.39,0.05c-0.98,1.68-2.38,0.64-3.63,0.55c-0.01,0-0.03-0.23,0.01-0.33
			C218.29,566.67,218.39,566.59,218.48,566.5z"/>
		<path class="st33" d="M336.07,566.32c1.42,0.07,2.85,0.15,4.27,0.22C338.83,568.08,337.42,567.8,336.07,566.32z"/>
		<path class="st34" d="M271.7,271.77c0.87,0,1.74,0,2.61,0c0.36,1.75-1,0.62-1.51,0.81C272.52,272.68,271.15,273.24,271.7,271.77z"
			/>
		<path class="st31" d="M353.15,543.22c-0.93,0-1.85,0-2.9,0C351.19,542.07,352.21,543.03,353.15,543.22z"/>
		<path class="st35" d="M331.44,547.78c0.01-0.94,0.02-1.88,0.03-2.83c1.68,0.7,0.53,1.95,0.58,2.97c0,0.02-0.22,0.08-0.32,0.06
			C331.62,547.96,331.53,547.85,331.44,547.78z"/>
		<path class="st27" d="M296.91,251.69c-0.92,0.02-1.83,0.03-2.75,0.05c0.63-1.59,1.85-0.68,2.86-0.66c0.03,0,0.1,0.21,0.08,0.31
			C297.08,251.5,296.98,251.59,296.91,251.69z"/>
		<path class="st28" d="M317.17,565c0-0.9,0-1.8-0.01-2.71C318.49,563.19,318.46,564.09,317.17,565z"/>
		<path class="st24" d="M282.04,272.07c0.93,0,1.86,0,3.02,0C284.03,273.03,283.07,272.53,282.04,272.07z"/>
		<path class="st36" d="M287.5,549.26c0.23-0.09,0.39-0.03,0.49,0.2c-1.17,1.07-2.43,0.63-3.71,0.14
			C285.35,549.48,286.42,549.37,287.5,549.26z"/>
		<path class="st37" d="M223.42,565.01c-0.17-1.21-0.42-2.42,0.14-3.6C224.28,562.64,225.08,563.87,223.42,565.01z"/>
		<path class="st30" d="M289.73,567.22c1.52-0.77,2.53-0.48,3.96-0.35C292.24,567.66,291.23,567.32,289.73,567.22z"/>
		<path class="st28" d="M328.39,251.7c-0.93,0-1.87-0.01-2.8-0.01C326.53,250.45,327.46,250.43,328.39,251.7z"/>
		<path class="st27" d="M317.63,544.41c0.45,1.53,0.5,2.46,0.04,3.66C317.07,546.9,317.22,545.94,317.63,544.41z"/>
		<path class="st30" d="M256.71,271.75c1.16-0.07,2.32-0.15,3.48-0.22c-0.9,1.72-2.34,1.12-3.69,0.83c-0.03-0.01-0.04-0.22,0-0.32
			C256.53,271.93,256.64,271.84,256.71,271.75z"/>
		<path class="st33" d="M316.65,556.91c0-1.55,0-2.25,0-3.4C317.39,554.6,317.35,555.32,316.65,556.91z"/>
		<path class="st38" d="M319.12,562.65c0.47,1.01,0.47,1.72,0.06,2.6C318.61,564.43,318.65,563.71,319.12,562.65z"/>
		<path class="st39" d="M198.84,449.05c-3.2-7.43-3.47-15.46-4.49-23.29c-1.13-8.66-2.03-17.4-2.09-26.12
			c-0.03-4.3-0.2-8.62-0.28-12.92c-0.16-8.11-0.43-16.21-0.73-24.32c-0.06-1.56,0.54-2.92,0.85-4.38c0.54,0.03,1.03,0.25,1.19,0.75
			c3.05,9.04,10.98,12.92,18.43,17.13c18.19,10.27,38.07,14.68,58.68,16.32c7.96,0.63,15.89,1.98,23.89,1.72
			c12.68-0.42,25.35,0.53,38.06-1.77c12.56-2.27,24.96-4.85,37.18-8.54c11.61-3.5,21.65-8.95,28.13-19.65
			c0.45-0.74,0.97-1.48,2.01-1.46c0.26,0.96,0.74,1.92,0.75,2.88c0.03,13.31-0.01,26.62-0.01,39.93c0,4.56-0.38,9.1-0.55,13.64
			c-0.3,7.7-0.89,15.35-1.96,22.97c-0.22,1.61,0.02,2.87,1.05,4.04c-3.94,2.25-7.17,5.43-10.47,8.45
			c-10.81,9.86-23.44,16.51-37.16,21.13c-11.37,3.83-23.03,6.65-34.88,8.61c-18.15,3-36.01,1.33-53.69-3.48
			c-10.72-2.92-21.56-5.42-31.71-10.14c-10.12-4.71-19.81-10.07-27.82-18.02C201.88,451.2,200.08,450.48,198.84,449.05z"/>
		<path class="st40" d="M399.66,362.52c-6.39,12.08-16.98,18.34-29.69,22.07c-9.93,2.91-19.85,5.75-30.07,7.43
			c-9.45,1.55-18.85,3.27-28.52,2.93c-7.94-0.27-15.95,0.53-23.84-0.19c-15.18-1.37-30.44-2.04-45.37-6.02
			c-10.88-2.9-21.33-6.53-31.17-11.92c-5.23-2.87-10.25-6.1-14.62-10.23c-2.48-2.34-3.06-5.63-4.31-8.58
			c-0.3-7.52,4.58-12.1,9.68-16.29c13.18-10.82,29.06-15.11,45.41-18.12c1.83-0.34,3.68-0.54,5.52-0.81
			c0.27-0.21,0.58-0.32,0.92-0.32c1.27,0.15,2.53,0.4,3.81,0.08c0.29-0.09,0.58-0.19,0.86-0.31c0.14-0.05,0.29-0.1,0.43-0.15
			c1.26,0.02,2.53,0.03,3.79,0.05c1.33,0.73,2.7,0.18,3.45,0.32c-0.32,0.09-1.24,0.26-2.09-0.41c3-0.98,6.09-0.68,9.16-0.65
			c2.75,0.42,5.49,0.64,8.23-0.04c5.55-1.89,11.39-1.08,17.04-1.35c10.54-0.5,21.1,0.4,31.66,1.49c9.56,0.99,18.89,2.79,28.19,4.93
			c11.16,2.56,21.67,7.06,31.13,13.27C397.02,344.82,401.34,352.58,399.66,362.52z"/>
		<path class="st40" d="M198.84,449.05c2.31-0.65,3.51,1.22,4.73,2.43c9.63,9.65,21.34,15.97,33.9,20.6
			c17.19,6.33,34.91,10.89,53.2,12.49c5.34,0.47,10.83,0.3,16.3-0.3c12.42-1.36,24.54-4.02,36.54-7.27
			c17.56-4.75,33.35-12.93,46.78-25.38c1.64-1.52,3.36-2.97,4.92-4.57c1.1-1.13,2.29-1.41,3.73-1.06c0.61,2.81-0.43,4.92-2.27,7.1
			c-6.75,8.01-14.57,14.88-23.83,19.55c-12.66,6.38-25.87,11.41-39.95,14.2c-9.93,1.97-19.87,3.59-29.92,3.82
			c-10.4,0.23-20.78-0.97-31.11-2.43c-15.01-2.12-29.26-6.97-43.13-12.73c-10.52-4.37-19.98-10.76-27.66-19.36
			C199.41,454.28,196.67,452.31,198.84,449.05z"/>
		<path d="M190.49,301.77c10.35,3.81,15.57,11.54,13.86,20.53c-1.62,8.52-8.79,14.69-17.24,14.83c-8.51,0.14-15.75-5.69-17.7-14.23
			c-0.14-0.6-0.36-1.17-0.54-1.76c-0.75-1.33-0.75-2.66,0-4c1.74-7.85,6.35-13.07,14.13-15.36
			C185.5,300.52,187.99,300.56,190.49,301.77z"/>
		<path class="st41" d="M166.5,298.89c87,0,174,0,260.99,0c-1.37,1.34-3.09,0.72-4.64,0.72c-75.87,0.03-151.75,0.03-227.62,0.04
			c-1.85,0-3.77-0.32-5.49,0.74c-2,1.1-4,1.1-6,0c-4.12-1.57-8.42-0.35-12.61-0.76C169.59,299.47,167.87,300.24,166.5,298.89z"/>
		<path class="st42" d="M281.25,321.39c-2.74,1.24-5.48,1.18-8.23,0.04C275.76,320.68,278.51,321.26,281.25,321.39z"/>
		<path class="st41" d="M190.49,301.77c-2.5,0.01-4.99,0.01-7.49,0.02c0.26-0.24,0.52-0.48,0.78-0.72c1.98-0.48,3.95-0.46,5.93-0.01
			C189.97,301.3,190.23,301.53,190.49,301.77z"/>
		<path class="st43" d="M168.88,317.15c0,1.33,0,2.66,0,4c-0.26,0.2-0.41,1.57-0.73,0.48c-0.46-1.55-0.47-3.45,0.01-4.99
			C168.47,315.59,168.61,316.94,168.88,317.15z"/>
		<path class="st43" d="M189.71,301.06c-1.98,0.01-3.96,0.01-5.93,0.01c-0.02-0.23-0.03-0.45-0.03-0.68c2,0,4,0,6,0
			C189.75,300.61,189.74,300.84,189.71,301.06z"/>
		<path class="st44" d="M252.78,322.22c1.96-1.32,3.94-1.16,5.94-0.11c0,0,0.1,0.13,0.1,0.13
			C256.8,323.27,254.79,323.04,252.78,322.22z"/>
		<path class="st45" d="M252.78,322.22c2.02,0,4.03,0.01,6.05,0.01c-0.04,0.2-0.06,0.41-0.07,0.61c-1.72,0.71-3.45,0.48-5.2,0.12
			c-0.29-0.05-0.57-0.11-0.86-0.16C252.74,322.62,252.77,322.42,252.78,322.22z"/>
		<path class="st42" d="M263.86,322.07c1.02,0.26,2.17-0.28,3.46,0.68c-1.86,0.04-3.42,0.68-4.81-0.6
			C262.96,322.13,263.41,322.1,263.86,322.07z"/>
		<path class="st46" d="M275.91,557.62c-1.29,3.38-4,3.85-6.96,3c-2.95-0.85-3.77-3.31-3.57-6.17c0.19-2.85,1.69-4.7,4.49-5.08
			c2.94-0.4,5.44,0.32,6.17,3.76C276.1,554.62,275.78,556.11,275.91,557.62z"/>
		<path class="st29" d="M275.91,557.62c-0.98-1.53-1.08-3.03,0.14-4.5C277.01,554.65,276.68,556.14,275.91,557.62z"/>
		<path class="st47" d="M244.66,553.88c-0.02-1.63-2.82-4.01,1.27-4.54c3.77-0.49,4.53,0.56,3.25,4.62
			C247.67,554.39,246.16,554.5,244.66,553.88z"/>
		<path class="st48" d="M244.66,553.88c1.51,0.03,3.01,0.05,4.52,0.08C247.66,554.69,246.15,555.03,244.66,553.88z"/>
		<path class="st49" d="M228.61,550.42c1.62,1.65,1.2,3.05-0.5,4.31c-1.41-0.42-3.47,0.7-4.11-1.5c-0.29-1-0.62-2.52,0.4-3.11
			C225.68,549.39,227.27,549.49,228.61,550.42z"/>
		<path class="st50" d="M228.61,550.42c-0.83-0.09-1.66-0.22-2.5-0.26c-1.15-0.05-1.84,0.43-1.84,1.7c0,1.1,0.25,1.94,1.55,1.99
			c0.85,0.04,1.72,0.05,2.28,0.87c0,0-0.01-0.01-0.01-0.01c-1.5,0.4-3,0.53-4.48-0.09c-0.41-1.86-1.3-4.1,0.63-5.25
			C225.36,548.71,227.58,548.34,228.61,550.42z"/>
		<path class="st49" d="M223.62,554.63c1.49,0.03,2.99,0.06,4.48,0.09C226.59,555.64,225.09,555.94,223.62,554.63z"/>
		<path class="st51" d="M370.35,556.7c0.33,1.53-0.54,1.67-1.46,1.67c-0.8-0.01-2.04,0.3-1.92-0.98c0.09-0.97,0.27-2.32,1.74-2.49
			C370.25,554.72,369.6,556.44,370.35,556.7z"/>
		<path class="st52" d="M265.36,260.94c0.71,1.12,2.22,2.01,1.07,3.38c-0.29,0.34-1.71,0.31-2.04-0.07
			C263.25,262.98,264.99,262.15,265.36,260.94z"/>
		<path class="st53" d="M339.88,447.55c-6.54,2.44-13.37,3.6-20.27,4.26c-1.92,0.18-3.66,0.57-5.31,1.5
			c-4.04-0.15-8.15,0.33-12.01-1.41c-11.93-2.73-23.96-5.12-35.77-8.32c-8.55-2.32-16.81-5.75-25.21-8.65
			c-1.87-0.65-3.79-1.16-5.69-1.73c-3.37-1.14-5.28-3.96-4.4-6.5c0.91-2.59,3.65-3.31,7.15-1.87c9.16-0.18,18.32,0.29,27.49-0.4
			c2.87-0.22,5.86,0.9,8.78-0.27c3.81-1.72,7.74-2.4,11.88-1.53c3.11-1.17,7.02,0.21,9.49-2.99c5.54-0.69,11.13-1.06,16.63-2.09
			c4.43-0.83,8.94-0.38,13.37-1.09c1.15-0.18,2.2,0.26,3.15,0.92c3.32,0.74,6.83-0.64,10.08,0.87c0.1,1.51-0.88,2.56-1.64,3.66
			c-2.95,4.28-3.88,9.03-3.68,14.16c0.12,3.08,1.58,5.41,3.37,7.69c0.84,1.07,1.96,1.92,2.48,3.24
			C339.82,447.18,339.85,447.37,339.88,447.55z"/>
		<path class="st53" d="M339.68,418.1c6.42-0.96,12.73,0.1,18.99,1.25c3.88,0.71,7.84,1.22,11.36,3.39
			c3.88,2.39,4.29,4.21,1.33,7.66c-4.01,4.67-9.5,7.18-14.74,9.98c-4.49,2.4-9.18,4.43-13.82,6.54c-0.88,0.4-1.93,0.42-2.9,0.62
			c-0.1-0.13-0.21-0.27-0.31-0.41c0.07-1.78-0.55-3.26-1.6-4.73c-1.95-2.73-3.28-5.76-2.86-9.27c0.03-0.53,0.12-1.04,0.25-1.55
			c0.68-3.51,1.89-6.84,3.55-10C339.49,420.49,340.09,419.41,339.68,418.1z"/>
		<path class="st54" d="M238.39,424.83c-0.25,0.01-0.49,0.02-0.74,0.02c-2.2-0.02-4.85-0.56-5.73,2.12c-0.81,2.45,1.3,3.97,2.9,5.49
			c0.27,0.25,0.54,0.5,0.81,0.75c-4.22,5.87-10.18,9.71-16.03,13.67c-1.03,0.7-2.09,1.36-3.14,2.02c-1.13,0.7-2.17,1.9-3.68,0.93
			c-1.71-1.1-1.56-2.79-0.98-4.35c2.21-5.9,5.15-11.5,10.17-15.37c3.34-2.58,3.45-4.32,1.49-8.01c-3.48-6.55-5.56-13.75-6.92-21.1
			c-0.24-1.28,0.11-2.26,1.17-2.88c1.29-0.76,2.3-0.08,3.36,0.74c6.78,5.24,11.43,12.07,14.94,19.75
			C236.94,420.61,237.6,422.75,238.39,424.83z"/>
		<path class="st54" d="M329.19,417.38c-10.18,0.4-20.28,1.56-30.31,3.27c-1.27,0.22-2.46,0.91-2.85-1.02
			c-0.35-4.04,1.21-6.52,5.38-7.51c2.52-0.6,4.68-2.21,6.42-4.29c1.63-1.94,3.85-3.16,6.29-2.04
			C320.01,408.48,325.42,411.9,329.19,417.38z"/>
		<path class="st55" d="M302.3,451.91c4.03,0.23,8.19-0.66,12.01,1.41c-3.82,4.7-8.41,8.4-14.09,10.64
			c-1.16,0.46-2.44,1.04-3.44-0.21c-0.99-1.25-0.61-2.59,0.17-3.82C298.67,457.22,301.02,454.92,302.3,451.91z"/>
		<path class="st56" d="M335.99,433.14c-0.11,3.93,1.21,7.34,3.86,10.2c1.34,1.44,1.07,2.63-0.27,3.81
			c-7.35-5.01-8.02-13.08-5.47-20.4c1.1-3.16,2.73-6.09,5.16-8.49c0.17,0.04,0.31-0.01,0.41-0.15c1.8,0.19,2.07,0.98,1.07,2.46
			c-2.35,3.44-3.65,7.31-4.61,11.33c-0.51-0.23-0.4-0.74-0.53-1.14C335.71,431.55,335.36,432.42,335.99,433.14z"/>
		<path class="st57" d="M286.54,422.63c-3.93,0.76-7.84,1.65-11.88,1.53c0.4-2.08-2.25-4.47,0.19-6.2c2.37-1.68,4.36,0.61,6.46,1.41
			C283.28,420.11,285.17,420.93,286.54,422.63z"/>
		<path class="st39" d="M275.12,358.73c-4.28,9.18-12.34,12.2-21.6,12.84c-12.16,0.83-23.76-1.62-34.77-6.86
			c-4.88-2.32-8.32-5.89-7.85-11.56c0.47-5.6,4.09-9.58,9.14-11.34c13.71-4.77,27.82-5.59,41.91-1.9
			c7.28,1.91,11.92,6.92,13.23,14.6C275.91,355.93,275.64,357.33,275.12,358.73z"/>
		<path class="st58" d="M328.52,331.81c10.35,0.28,20.42,2.4,30.47,4.66c9.49,2.14,18.75,4.81,26.99,10.27
			c1.38,0.92,2.64,1.86,3.59,3.19c0.53,0.74,0.76,1.7,0.01,2.39c-0.87,0.8-1.51,0.05-2.19-0.56c-7.59-6.73-16.84-9.6-26.52-11.75
			c-8.25-1.83-16.48-3.62-24.83-4.92c-4.21-0.65-8.45,0.11-12.59-0.86c-1.01-0.24-2.63,0.01-2.35-1.62
			c0.22-1.26,1.68-0.68,2.57-0.75C325.28,331.71,326.9,331.81,328.52,331.81z"/>
		<path class="st59" d="M350.3,381.5c-22.32,4.89-44.86,5.57-67.55,3.61c-0.84-1.09-0.13-1.65,0.74-2.15c0.76,0,1.52,0,2.28,0
			c2.31,0.83,4.77-0.16,7.09,0.61c8.45-0.07,16.89,0.21,25.37-0.39c8.21-0.58,16.31-1.71,24.42-2.9c2.29-0.34,4.57-0.74,6.86-1.11
			C350.23,379.78,350.84,380.45,350.3,381.5z"/>
		<path class="st60" d="M350.3,381.5c-0.27-0.78-0.53-1.56-0.8-2.34c10.99-2.69,21.73-6.06,31.37-12.19
			c3.03-1.93,6.05-3.94,8.59-6.54c0.68-0.7,1.48-1.85,2.43-1.09c1.12,0.9,0.26,2.07-0.49,2.92c-4.03,4.5-8.86,8.06-14.27,10.57
			C368.57,376.81,359.71,380.07,350.3,381.5z"/>
		<path class="st61" d="M298.08,332.54c-5.02,0.28-10.33,0.61-15.65,0.85c-1.01,0.05-2.55,0.43-2.54-1.28
			c0.01-1.42,1.49-1.1,2.34-1.17c7.51-0.64,15.01-1.53,22.58-1.32c0.86,0.02,1.83-0.13,1.86,1.19c0.03,1.09-0.66,1.66-1.59,1.7
			C302.85,332.6,300.62,332.54,298.08,332.54z"/>
		<path class="st62" d="M283.49,382.95c-0.25,0.72-0.49,1.44-0.74,2.15c-0.76-0.02-1.51-0.03-2.27-0.05
			c-1.54-0.72-3.25,0.07-4.79-0.57c-3.02,0.92-5.78-0.76-8.7-0.89c-2.72-0.91-5.61,0.24-8.33-0.66c-1.22,0-2.35-0.42-2.04-1.8
			c0.22-0.98,1.34-0.65,2.15-0.42c1.47,0.8,3.17-0.13,4.65,0.63c4.69,0.52,9.39,1.04,14.08,1.56c1.49,0.45,2.99,0.62,4.49,0.04
			C282.49,382.94,282.99,382.94,283.49,382.95z"/>
		<path class="st63" d="M258.66,382.92c2.77,0.28,5.65-0.81,8.33,0.66C264.18,383.67,261.37,383.88,258.66,382.92z"/>
		<path class="st64" d="M275.12,358.73c0.02-1.41,0.05-2.82,0.07-4.22c0.18-0.3,0.57-1.15,0.64-0.65c0.24,1.64-0.01,3.34-0.09,5.02
			c0,0.03-0.22,0.08-0.31,0.05C275.31,358.91,275.22,358.8,275.12,358.73z"/>
		<path class="st62" d="M292.85,383.56c-2.36-0.17-4.82,0.74-7.09-0.61C288.16,382.86,290.57,382.48,292.85,383.56z"/>
		<path class="st65" d="M281.99,382.93c-1.51,1.08-3,1.11-4.49-0.04C279,382.25,280.49,382.69,281.99,382.93z"/>
		<path class="st66" d="M253.55,322.98c1.73-0.04,3.46-0.08,5.2-0.12C257.05,324.13,255.31,323.98,253.55,322.98z"/>
		<path class="st63" d="M275.68,384.48c1.61,0.09,3.32-0.65,4.79,0.57C278.84,385.23,277.19,385.43,275.68,384.48z"/>
		<path class="st63" d="M263.42,381.33c-1.56-0.12-3.24,0.63-4.65-0.63C260.34,380.77,261.96,380.47,263.42,381.33z"/>
		<path class="st67" d="M185.92,327.6c-0.79-0.01-2.03-0.2-3.02-1.06c-1.03-0.89-2.33-2.08-1.3-3.35c0.61-0.75,2.21-0.68,3.1,0.76
			c0.73,1.18,2.01,1.32,3.31,0.71c0.93-0.44,1.22-1.24,1.19-2.14c-0.05-1.5-0.99-2.2-2.4-2.36c-0.83-0.09-1.84,0.18-1.92-1.15
			c-0.09-1.61,1.07-1.34,2.04-1.37c1.14-0.03,1.91-0.58,2.09-1.73c0.15-0.9,0.02-1.71-0.9-2.25c-0.98-0.57-1.93-0.62-2.73,0.21
			c-1.16,1.21-2.93,2.05-3.68,0.53c-0.79-1.62,1.08-2.89,2.64-3.39c2.33-0.76,4.78-0.9,6.6,1.13c1.61,1.79,1.7,3.82,0,5.71
			c-0.56,0.62-0.8,0.96-0.01,1.72c1.76,1.68,1.84,3.83,0.68,5.82C190.51,327.28,188.5,327.7,185.92,327.6z"/>
		<path class="st68" d="M349.27,427.96c0.55-1.71,0.43-4.06,2.78-4.32c1.43-0.15,2.46,1.05,2.2,2.75c-0.3,2.01-0.62,4.15-3.2,4.3
			C349.26,430.79,349.5,429.14,349.27,427.96z"/>
		<path class="st69" d="M335.99,433.14c-0.98-0.83-0.84-1.85-0.52-2.99c0.85,0.4,0.37,1.22,0.66,1.74
			C336.08,432.3,336.04,432.72,335.99,433.14z"/>
		<path class="st40" d="M254.99,364.09c-5,0.54-8.18-2.07-10.42-5.94c-1.74-3.02-0.95-6.1,1.04-8.74c3.27-4.33,7.82-5.42,12.97-4.65
			c0.24,0.04,0.47,0.15,0.71,0.21c5.62,1.49,9.03,5.68,8.84,10.99c-0.12,3.42-6.52,7.88-11.04,8.12
			C256.36,364.12,255.61,364.09,254.99,364.09z"/>
		<path class="st70" d="M220.83,357.57c-1.79-0.5-4.07-0.69-3.99-3.15c0.08-2.43,1.77-3.87,4.25-3.78c2.3,0.08,3.85,1.54,3.78,3.8
			C224.8,356.76,222.77,357.25,220.83,357.57z"/>
	</g>
</g>
</svg>
