<?xml version="1.0" encoding="utf-8"?>
<!-- Generator: Adobe Illustrator 23.0.5, SVG Export Plug-In . SVG Version: 6.00 Build 0)  -->
<svg version="1.1" id="Capa_1" xmlns="http://www.w3.org/2000/svg" xmlns:xlink="http://www.w3.org/1999/xlink" x="0px" y="0px"
	 viewBox="0 0 595.28 841.89" style="enable-background:new 0 0 595.28 841.89;" xml:space="preserve">
<style type="text/css">
	.st0{fill:#CC7E32;}
	.st1{fill:#FEFEFE;}
	.st2{fill:#F5E7DA;}
	.st3{fill:#FEF9EC;}
	.st4{fill:#FDFDFC;}
	.st5{fill:#FDFDFD;}
	.st6{fill:#FDFCFC;}
	.st7{fill:#FDFCFB;}
	.st8{fill:#CE833A;}
	.st9{fill:#CA7B2D;}
	.st10{fill:#CB7C2E;}
	.st11{fill:#FCFBF9;}
	.st12{fill:#FCFAF8;}
	.st13{fill:#CB7D30;}
	.st14{fill:#C97625;}
	.st15{fill:#C97725;}
	.st16{fill:#C97828;}
	.st17{fill:#C97827;}
	.st18{fill:#C87624;}
	.st19{fill:#C97726;}
	.st20{fill:#C97727;}
	.st21{fill:#CA7C2D;}
	.st22{fill:#C97929;}
	.st23{fill:#C97624;}
	.st24{fill:#C87523;}
	.st25{fill:#C87522;}
	.st26{fill:#A93965;}
	.st27{fill:#B84D71;}
	.st28{fill:#923259;}
	.st29{fill:#FABF30;}
	.st30{fill:#92325A;}
	.st31{fill:#F0E2DE;}
	.st32{fill:#A32A5A;}
	.st33{fill:#FEFEF6;}
	.st34{fill:#FEFEFC;}
	.st35{fill:#FEFEF7;}
	.st36{fill:#CC9DA8;}
	.st37{fill:#A32D5B;}
	.st38{fill:#A52F5D;}
	.st39{fill:#CC7F33;}
	.st40{fill:#C97928;}
	.st41{fill:#CC8035;}
	.st42{fill:#D08842;}
	.st43{fill:#CD8035;}
	.st44{fill:#CD8034;}
	.st45{fill:#CA7928;}
	.st46{fill:#C87422;}
	.st47{fill:#CD8237;}
	.st48{fill:#D39150;}
	.st49{fill:#CF863E;}
	.st50{fill:#D08944;}
	.st51{fill:#F9D336;}
	.st52{fill:#8A224E;}
	.st53{fill:#8A214D;}
	.st54{fill:#8B275C;}
	.st55{fill:#F6F3E7;}
	.st56{fill:#F6F5F3;}
	.st57{fill:#FEFEF9;}
</style>
<g>
	<g>
		<path class="st0" d="M168,218.64c84,0,168,0,252,0c12.07,2.89,17.63,10.39,17.01,22.97c-0.09,1.87-0.07,3.75-0.07,5.62
			c0,80.18,0.01,160.36-0.02,240.54c0,3.9,0.19,7.68,1.72,11.38c1.15,2.78,1.31,5.82,1.31,8.85c0,29.35-0.03,58.7,0.01,88.05
			c0.01,8.13-3.45,15.02-7.71,21.5c-2.8,4.26-7.19,6.46-12.46,6.47c-83.85,0-167.7,0-251.54,0c-7.88-0.47-13.76-5.51-16.16-13.86
			c-0.8-2.79-1.03-5.64-1.03-8.53c0-120.34,0-240.68,0.01-361.02c0-0.5,0,0.13,0-0.37C151.2,228.15,156.49,221.4,168,218.64z"/>
		<path class="st1" d="M420.03,623.77c7.59-1.74,11.75-6.74,15.15-13.64c3.61-7.31,3.26-14.68,3.26-22.22
			c0.02-27.11,0.01-54.23,0.01-81.34c0-3.52-0.04-7.02-2.18-10.07c-0.79-1.13-0.52-2.41-0.52-3.63c-0.01-67.47-0.03-134.95,0-202.42
			c0.01-17.11,0.21-34.23,0.35-51.34c0.07-8.4-5.27-16.16-13.14-19.21c-0.99-0.38-2.3-0.11-2.98-1.25c10.88,0,21.75,0.04,32.62-0.05
			c1.61-0.01,2.21,0.31,1.89,1.93c-0.1,0.48-0.01,1-0.01,1.5c0,133-0.01,266,0.07,399c0,2.81-0.63,3.51-3.45,3.45
			c-10.37-0.19-20.75-0.08-31.12-0.08c-0.25-0.15-0.33-0.29-0.24-0.42C419.85,623.84,419.94,623.77,420.03,623.77z"/>
		<path class="st1" d="M168,218.64c-0.65,1.16-1.97,0.9-2.95,1.29c-7.61,3.02-12.38,9.72-12.58,17.87
			c-0.01,0.62-0.01,1.25-0.01,1.87c0,121.06,0,242.12,0,363.18c0,11.17,5.32,18.33,15.51,20.92c0.26,0.13,0.36,0.26,0.28,0.41
			c-0.08,0.15-0.16,0.22-0.25,0.22c-7.88,0-15.75-0.06-23.62,0.05c-1.61,0.02-2.21-0.31-1.89-1.93c0.1-0.48,0.01-1,0.01-1.5
			c0-133,0.01-266-0.07-399c0-2.81,0.62-3.54,3.45-3.45C153.25,218.79,160.62,218.64,168,218.64z"/>
		<path class="st2" d="M168,624.39c-0.01-0.21-0.02-0.42-0.03-0.63c1-0.04,1.99-0.13,2.99-0.13c82.03-0.01,164.06-0.01,246.08,0
			c1,0,1.99,0.09,2.99,0.13c-0.01,0.21-0.02,0.41-0.03,0.62C336,624.39,252,624.39,168,624.39z"/>
		<path class="st3" d="M162.72,492.32c0-1.72,0-2.96,0-4.19c0-62.36,0.03-124.72-0.09-187.07c-0.01-3.6,0.83-4.5,4.47-4.5
			c84.85,0.11,169.7,0.12,254.55,0c3.7-0.01,4.44,1.01,4.44,4.54c-0.11,62.11-0.11,124.21,0,186.32c0.01,3.43-0.87,4.3-4.29,4.29
			c-83.98-0.1-167.95-0.08-251.93-0.08C167.62,491.63,165.37,491.59,162.72,492.32z"/>
		<path class="st4" d="M416.51,553c-9-2.01-12.86-7.25-10.94-14.85c1.44-5.71,6.22-8.96,12.38-8.41c5.67,0.51,9.76,4.5,10.3,10.06
			c0.59,6.08-2.67,11.03-8.26,12.55c-0.84,0.23-1.68,0.43-2.51,0.64C417.16,553.62,416.84,553.6,416.51,553z"/>
		<path class="st4" d="M237.75,541.19c0-2.99,0.04-5.99-0.01-8.98c-0.03-1.56,0.55-2.31,2.17-2.27c2.62,0.07,5.25-0.1,7.85,0.11
			c4.96,0.4,7.52,4.19,5.9,8.92c-0.54,1.58-0.06,2.48,0.6,3.72c2.47,4.63-0.17,9.34-5.39,9.62c-2.86,0.15-5.74,0.02-8.6,0.15
			c-2.02,0.1-2.61-0.81-2.55-2.68C237.81,546.92,237.74,544.05,237.75,541.19z"/>
		<path class="st4" d="M269.6,529.69c6.47,0,11.54,4.98,11.5,11.3c-0.04,6.94-4.94,11.84-11.79,11.79
			c-6.55-0.04-11.37-4.83-11.41-11.32C257.85,534.45,262.58,529.7,269.6,529.69z"/>
		<path class="st5" d="M363.7,539.54c-0.38,0.78-0.58,1.73-1.16,2.32c-2.23,2.28-1.47,4.26,0.13,6.52c0.72,1.01,2.82,2.71,1.16,3.62
			c-1.71,0.94-4.46,1.23-6.18-0.88c-0.93-1.15-1.53-2.57-2.34-3.82c-0.64-0.98-1.45-1.81-2.78-1.36c-1.28,0.44-1.01,1.62-0.93,2.56
			c0.24,2.7-0.35,4.35-3.63,3.93c-1.61-0.2-2.2-0.81-2.2-2.32c0.01-6,0-11.99-0.02-17.99c0-1.33,0.47-2.19,1.93-2.17
			c3.12,0.05,6.25-0.05,9.35,0.23c3.56,0.32,5.32,2.91,6.54,5.94C364.49,537.23,364.29,538.38,363.7,539.54z"/>
		<path class="st4" d="M215.39,535.42c0.81-5.48,0.81-5.49,6.73-5.48c1.49,0,3.01-0.08,4.47,0.16c5.76,0.93,8.86,6.99,5.68,11.86
			c-1.65,2.53-1.29,4.08,0.16,6.29c0.71,1.08,3.19,2.72,1.07,3.84c-1.63,0.86-4.4,1.1-6.14-1.1c-1.14-1.43-1.31-3.54-3.16-4.45
			c-0.74,0.26-1.47,0.37-2.2-0.02c-1.18,0.65-0.62,1.78-0.62,2.66c0.01,1.92-0.08,3.22-2.7,3.28c-2.79,0.06-3.03-1.32-2.97-3.41
			c0.02-0.72-0.22-1.44-0.34-2.17C215.07,543.06,214.48,539.24,215.39,535.42z"/>
		<path class="st4" d="M322.54,541c0-0.5,0-1,0-1.5c-0.01-10.06-0.01-10.06,9.17-9.5c6.64,0.41,11.19,6.25,10.16,13.06
			c-0.81,5.35-4.81,9.28-10.13,9.26c-11.06-0.03-8.97,1.96-9.2-8.7C322.52,542.75,322.54,541.88,322.54,541z"/>
		<path class="st6" d="M290.95,537.45c1.99,0.93,3.97,1.15,5.92-0.1c-0.15-2.16-0.78-4.35,0.31-6.45c4.73-2.13,6-1.33,5.98,3.69
			c-0.01,4.46,0.03,8.92,0.02,13.39c-0.01,4.97-1.42,5.77-6.05,3.45c-0.92-2.38-0.51-4.82-0.28-7.25c-1.95-1.28-3.93-1.1-5.92-0.12
			l0.01-0.01c-1.12,1.31-0.48,2.87-0.52,4.3c-0.14,4.57-1.67,5.38-6.01,3.05c-0.73-6.91-1.09-13.82,0.17-20.72
			c5-1.7,5.78-1.15,5.88,3.99C290.48,535.62,290.1,536.66,290.95,537.45L290.95,537.45z"/>
		<path class="st4" d="M178.78,529.81c3.16-0.22,6.13,0.89,8.32,3.61c1.02,1.26,2.91,2.97,1.22,4.4c-1.22,1.03-3.6,0.99-5.12-0.64
			c-0.86-0.92-1.68-1.83-3.03-2.02c-2.85-0.4-5.37,0.07-6.48,3.07c-1.11,3.01-1.06,6.16,1.78,8.14c2.41,1.68,5.19,1.73,7.4-0.83
			c0.57-0.66,1.06-1.47,2.06-1.46c1.33,0,2.98-0.68,3.85,0.59c0.77,1.12-0.23,2.39-0.86,3.44c-2.51,4.14-8.63,5.87-13.7,3.89
			c-5.37-2.1-7.97-7.24-6.8-13.46C168.41,533.28,172.8,529.82,178.78,529.81z"/>
		<path class="st4" d="M197.29,550.27c-1.1,0.69-1.49,2.41-3.24,2.14c-1.09-0.17-2.48,0.44-3.22-0.46
			c-0.82-1.01,0.22-2.09,0.67-3.08c2.55-5.54,5.11-11.07,7.68-16.6c0.51-1.1,0.84-2.48,2.46-2.41c1.59,0.06,1.86,1.48,2.36,2.56
			c2.51,5.42,5,10.85,7.45,16.3c0.47,1.05,1.77,2.35,0.51,3.32c-1.17,0.9-2.91,0.64-4.28,0c-0.84-0.39-1.48-1.24-2.21-1.88
			C202.76,550.2,200.02,550.02,197.29,550.27z"/>
		<path class="st4" d="M372.45,550.8c-0.67,0.52-1.3,1.37-2.03,1.48c-1.3,0.2-2.98,0.66-3.93-0.34c-1.03-1.07,0.27-2.28,0.76-3.34
			c2.53-5.53,5.11-11.05,7.66-16.57c0.47-1.01,0.82-2.15,2.23-2.19c1.43-0.03,1.82,1.13,2.28,2.13c2.55,5.53,5.11,11.05,7.55,16.62
			c0.48,1.1,2.2,2.56,0.52,3.52c-1.38,0.8-3.39,0.8-4.87-0.56c-0.53-0.49-0.77-1.3-1.62-1.42
			C378.15,550.34,375.22,549.61,372.45,550.8z"/>
		<path class="st7" d="M242.38,271.06c-1.08-0.96-0.89-2.22-0.88-3.47c0.02-3.24-0.18-6.49,0.05-9.71c0.16-2.21-1.39-5.68,1.04-6.38
			c3.42-0.99,7.41-1.06,10.9,0.81c1.26,0.68,2.36,1.99,2.18,3.29c-0.47,3.43,0.45,6.63,0.85,9.94c0.37,3.04-1.79,4.72-4.81,5.04
			c-1.72,0.18-3.45,0.3-5.17,0.45C245.16,271.77,243.77,271.73,242.38,271.06z"/>
		<path class="st7" d="M345.97,270.99c-0.83-0.68-1.66-1.36-2.48-2.05c-2.6,0.22-5.29-0.69-7.81,0.61c-0.41,0.45-0.81,0.9-1.22,1.34
			c-1.14,0.97-2.3,0.84-3.48,0.09c-0.96-0.82-0.68-1.7-0.23-2.67c2.39-5.06,4.73-10.14,7.11-15.21c0.41-0.87,0.69-1.98,1.91-2.07
			c1.25-0.1,1.68,0.94,2.09,1.82c2.46,5.3,4.87,10.63,7.34,15.93c0.46,0.99,0.18,1.66-0.6,2.25
			C347.71,271.7,346.83,271.78,345.97,270.99z"/>
		<path class="st7" d="M294.8,270.88c-0.62-0.81-0.37-1.62,0.01-2.43c2.4-5.16,4.81-10.33,7.21-15.49c0.42-0.9,0.79-1.95,1.98-1.95
			c1.2,0,1.57,1.06,1.98,1.95c2.34,5.06,4.63,10.14,7,15.18c0.53,1.13,0.84,2.07-0.38,2.9c-0.89,0.65-1.77,0.75-2.63-0.06
			c-0.83-0.69-1.65-1.39-2.48-2.08c-2.57,0.18-5.22-0.54-7.7,0.67c-0.49,0.48-0.98,0.96-1.47,1.45
			C297.12,271.68,295.93,271.91,294.8,270.88z"/>
		<path class="st7" d="M263.79,269.57c-0.49,0.48-0.98,0.96-1.47,1.45c-1.2,0.66-2.39,0.89-3.52-0.14
			c-0.62-0.81-0.37-1.62,0.01-2.43c2.4-5.16,4.81-10.33,7.21-15.49c0.42-0.9,0.79-1.95,1.98-1.95c1.2,0,1.57,1.06,1.98,1.95
			c2.34,5.06,4.63,10.14,7,15.18c0.53,1.13,0.84,2.07-0.38,2.9c-0.89,0.65-1.77,0.75-2.63-0.06c-0.83-0.69-1.65-1.39-2.48-2.08
			C268.92,269.07,266.27,268.36,263.79,269.57z"/>
		<path class="st7" d="M393.1,543.88c0-1.75-0.09-3.5,0.02-5.24c0.15-2.38-0.41-3.94-3.25-3.55c-1.9,0.26-2.27-0.86-2.3-2.49
			c-0.03-1.89,0.65-2.71,2.62-2.67c3.74,0.08,7.48,0.01,11.23-0.03c1.63-0.02,2.95,0.07,2.92,2.31c-0.03,1.9-0.3,3.23-2.64,2.92
			c-2.44-0.33-2.91,1.03-2.85,3.13c0.11,3.74-0.07,7.49,0.08,11.22c0.09,2.39-0.99,2.92-3.14,2.95c-2.23,0.03-2.84-0.93-2.74-2.92
			c0.09-1.87,0.02-3.74,0.02-5.61C393.08,543.88,393.09,543.88,393.1,543.88z"/>
		<path class="st7" d="M309.67,535.92c-1.46-1.15-2.9-2.33-2.2-4.51c0.73-2.28,2.67-1.24,4.13-1.41c1.23-0.14,2.49-0.07,3.74-0.06
			c1.1,0.01,2.49-0.22,2.77,1.24c0.25,1.28,0.44,2.61-0.78,3.79c-2.58,2.49-2.33,10.39,0.42,12.7c1.25,1.05,0.91,2.25,0.79,3.41
			c-0.13,1.28-1.27,1.32-2.31,1.32c-1.75-0.01-3.5,0.09-5.24-0.03c-1.26-0.08-3.01,0.73-3.59-1.05c-0.46-1.41-0.42-2.99,1.06-4.04
			c1.75-2.02,0.64-4.44,0.92-6.66C309.57,539.05,309.1,537.45,309.67,535.92z"/>
		<path class="st8" d="M175.76,226.24c79.08,0,158.16,0,237.25,0c0,0.13,0,0.25,0,0.38c-79.13,0-158.27,0-237.4,0
			C175.65,226.49,175.7,226.37,175.76,226.24z"/>
		<path class="st9" d="M161.89,297.64c0,64.58,0,129.16,0,193.74c-0.12,0-0.25,0-0.37,0c0-64.63,0-129.26,0-193.89
			C161.65,297.54,161.77,297.59,161.89,297.64z"/>
		<path class="st10" d="M427.39,297.64c0,64.33,0,128.66,0,192.99c-0.12,0-0.25,0-0.37,0c0-64.38,0-128.75,0-193.13
			C427.15,297.55,427.27,297.59,427.39,297.64z"/>
		<path class="st11" d="M318.79,256.12c-1.22-1.21-3.44,0.24-4.39-1.67l-0.03-0.36c0.23-0.95,0.46-1.9,0.69-2.86
			c3.69-1.34,7.45-0.7,11.19-0.35c1.61,0.17,3.21,0.12,3.11,2.61c-0.08,2.02-1.17,2.15-2.65,2.12c-1.89-0.04-2.16,1.19-2.14,2.72
			c0.04,3.22-0.06,6.45,0.04,9.67c0.06,1.89-0.61,2.65-2.55,2.69c-1.97,0.04-2.48-0.71-2.6-2.59c-0.25-3.99,0.95-8.07-0.67-11.97
			L318.79,256.12z"/>
		<path class="st12" d="M288.83,256.88c-0.06,3.71-0.2,7.43-0.15,11.14c0.03,1.93-0.68,2.61-2.59,2.65
			c-1.98,0.04-2.47-0.77-2.59-2.63c-0.27-3.99,0.99-8.07-0.69-11.97l0.01,0.01c-4.75-1.15-4.93-1.46-2.99-5.14
			c3.47-0.74,6.94-0.6,10.41-0.06c1.5,0.21,3.11-0.1,3.19,2.42c0.11,3.49-2.95,1.59-4.12,2.77
			C289.29,256.42,289.14,256.7,288.83,256.88z"/>
		<path class="st13" d="M215.39,535.42c0.19,3.82,0.55,7.64-0.01,11.46c-0.1,1.57-0.19,3.15-0.29,4.72
			c-0.13-0.01-0.27-0.02-0.4-0.03c0-6.95,0-13.91,0-20.86c0.14-0.01,0.27-0.01,0.41-0.02C215.19,532.28,215.29,533.85,215.39,535.42
			z"/>
		<path class="st14" d="M284.58,530.69c-0.06,6.91-0.12,13.81-0.17,20.72c-0.3,0.29-0.82,0.32-0.82-0.04
			c-0.03-6.56-0.01-13.11,0.07-19.67C283.65,531.37,284.26,531.03,284.58,530.69z"/>
		<path class="st14" d="M372.45,550.8c2.69-2.25,5.65-1.18,8.56-0.67C378.25,551.66,375.3,550.61,372.45,550.8z"/>
		<path class="st14" d="M197.29,550.27c2.72-1.21,5.45-0.9,8.2-0.11C202.77,551.37,200.04,551.21,197.29,550.27z"/>
		<path class="st15" d="M263.79,269.57c2.38-2.33,5.07-1.26,7.7-0.67C269.04,270.44,266.36,269.32,263.79,269.57z"/>
		<path class="st15" d="M299.79,269.57c2.38-2.33,5.07-1.26,7.7-0.67C305.04,270.44,302.36,269.32,299.79,269.57z"/>
		<path class="st14" d="M335.68,269.55c2.44-2.3,5.14-1.25,7.81-0.61C340.98,270.39,338.28,269.35,335.68,269.55z"/>
		<path class="st16" d="M309.67,535.92c0.1,3.09,0.2,6.17,0.28,9.26c0.03,1.06-0.13,2.02-1.49,2.09
			C309.78,543.58,308.1,539.58,309.67,535.92z"/>
		<path class="st17" d="M290.25,250.88c-3.47,0.47-6.94,0.23-10.41,0.06C283.3,249.55,286.77,249.76,290.25,250.88z"/>
		<path class="st17" d="M326.24,250.88c-3.73,0.12-7.46,0.23-11.19,0.35C318.72,249.23,322.48,249.93,326.24,250.88z"/>
		<path class="st18" d="M242.38,271.06c1.39-0.01,2.77-0.02,4.16-0.03c1.8,0.09,3.6,0.19,5.4,0.28c-3.22,0.64-6.43,0.76-9.64,0.36
			c-0.05-0.01-0.11-0.2-0.09-0.3C242.23,271.26,242.32,271.16,242.38,271.06z"/>
		<path class="st19" d="M296.85,544.18c0.66,2.39,0.3,4.83,0.28,7.25C295.43,549.08,296.17,546.63,296.85,544.18z"/>
		<path class="st20" d="M290.94,544.07c1.54,2.13,0.53,4.45,0.01,6.72c0-2.24,0-4.48,0-6.73
			C290.95,544.06,290.94,544.07,290.94,544.07z"/>
		<path class="st16" d="M297.18,530.9c0.09,2.16,0.28,4.32-0.31,6.45c-1.06-2.19-0.7-4.44-0.3-6.69c0-0.02,0.23-0.03,0.32,0.01
			C297,530.71,297.08,530.82,297.18,530.9z"/>
		<path class="st14" d="M290.96,537.46c0-1.96,0-3.91,0-5.87C291.44,533.56,292.5,535.56,290.96,537.46
			C290.95,537.45,290.96,537.46,290.96,537.46z"/>
		<path class="st17" d="M222.01,546.52c0.73,0.01,1.47,0.02,2.2,0.02c-1.95,0.86-1.15,2.94-2.2,4.33
			C222.01,549.42,222.01,547.97,222.01,546.52z"/>
		<path class="st21" d="M416.51,553c0.32,0,0.65,0,0.97-0.01c0.58,0.1,1.15,0.19,1.73,0.29c-0.01,0.14-0.03,0.28-0.04,0.42
			c-1.7,0-3.41,0-5.11,0c-0.01-0.12-0.02-0.24-0.03-0.37C414.85,553.23,415.68,553.11,416.51,553z"/>
		<path class="st22" d="M363.7,539.54c-0.04-1.14-0.07-2.28-0.11-3.42c1.74,1.18,0.77,2.77,0.62,4.23c-0.1-0.04-0.25-0.05-0.28-0.11
			C363.83,540.01,363.78,539.77,363.7,539.54z"/>
		<path class="st14" d="M176.41,553.5c1.55-0.25,2.97-0.62,4.51,0.05C179.23,554.16,177.75,553.84,176.41,553.5z"/>
		<path class="st19" d="M288.83,256.88c-0.13-0.45,0.03-0.71,0.48-0.82c1.06,0.09,2.12,0.18,3.17,0.27
			c-0.01,0.18-0.01,0.36-0.01,0.55C291.26,256.88,290.05,256.88,288.83,256.88z"/>
		<path class="st23" d="M345.97,270.99c0.88,0.02,1.75,0.03,2.63,0.05c0.26,1.72-1.05,0.61-1.58,0.79
			C346.73,271.93,345.34,272.46,345.97,270.99z"/>
		<path class="st24" d="M330.97,270.99c1.16-0.03,2.32-0.06,3.48-0.09c-1,1.54-2.38,1.05-3.73,0.68c-0.03-0.01-0.03-0.22,0.01-0.32
			C330.79,271.16,330.89,271.08,330.97,270.99z"/>
		<path class="st23" d="M323.39,271.57c-1.15,0.44-2.15,0.52-3.28-0.08C321.26,271.06,322.26,270.97,323.39,271.57z"/>
		<path class="st24" d="M258.8,270.88c1.17,0.05,2.35,0.1,3.52,0.14C261.09,272.42,259.92,272.32,258.8,270.88z"/>
		<path class="st14" d="M273.98,270.98c0.88,0.02,1.75,0.04,2.63,0.06c0.04,1.88-1.32,0.51-1.97,0.8
			C274.3,271.99,273.18,272.06,273.98,270.98z"/>
		<path class="st24" d="M294.8,270.88c1.17,0.05,2.35,0.1,3.52,0.14C297.09,272.42,295.92,272.32,294.8,270.88z"/>
		<path class="st14" d="M309.98,270.98c0.88,0.02,1.75,0.04,2.63,0.06c0.04,1.88-1.32,0.51-1.97,0.8
			C310.3,271.99,309.18,272.06,309.98,270.98z"/>
		<path class="st15" d="M282.82,256.08c-0.85,1.02-1.88,0.97-3.66,0.32C280.81,256.26,281.82,256.17,282.82,256.08
			C282.83,256.09,282.82,256.08,282.82,256.08z"/>
		<path class="st19" d="M270.85,528.69c-0.82,0.64-1.59,0.53-2.46,0.12C269.21,528.18,269.98,528.28,270.85,528.69z"/>
		<path class="st17" d="M386.64,531.02c0.39,1.2,0.5,1.91,0.04,2.67C386,532.94,386.19,532.18,386.64,531.02z"/>
		<path class="st24" d="M284.83,271.54c0.82-0.54,2.06-0.53,2.16-0.18c0.27,0.97-0.72,0.37-1.14,0.48
			C285.59,271.91,285.24,271.68,284.83,271.54z"/>
		<path class="st23" d="M318.78,256.11c-0.85,1.01-1.87,0.93-3.69,0.27c1.71-0.12,2.7-0.19,3.7-0.26
			C318.79,256.12,318.78,256.11,318.78,256.11z"/>
		<path class="st17" d="M187.9,542.54c-1.11,1.23-1.91,0.59-3.06,0.91C185.95,542.24,186.75,542.88,187.9,542.54z"/>
		<path class="st14" d="M277.85,252.22c0.55,0.82,0.54,2.06,0.18,2.16c-0.97,0.27-0.38-0.72-0.49-1.14
			C277.48,252.98,277.72,252.63,277.85,252.22z"/>
		<path class="st25" d="M314.36,254.09c0.12,0.11,0.13,0.23,0.03,0.36c-1.8-0.13-0.55-1.28-0.4-2.06
			C314.12,252.95,314.24,253.52,314.36,254.09z"/>
		<path class="st24" d="M319.22,533.95c-0.59-1.02-0.48-1.73-0.25-2.46C319.87,532.06,319.46,532.81,319.22,533.95z"/>
		<path class="st24" d="M306.59,547.86c0,1.56,0,2.26,0,3.42C305.86,550.18,305.9,549.46,306.59,547.86z"/>
		<path class="st26" d="M366.56,319.04c4.28-1.02,8.55-1.68,12.52,1c4.17,2.82,5.7,7.46,4.26,12.72
			c-4.04,5.28-6.71,11.33-9.51,17.28c-2.7,5.75-5.34,11.53-8.21,17.2c-2.32,4.57-6.04,7.94-10.7,10.13
			c-4.11,1.93-5.9,1.25-7.58-2.93c-2.32-5.76-5.87-10.71-9.72-15.49c-1.05-1.3-2.05-2.72-3.95-1.15c-1.67,1.39-2.31,2.89-0.76,4.81
			c2.67,3.31,5.31,6.64,7.12,10.52c0.56,1.19,1.59,2.59,0.26,3.76c-1.1,0.97-2.42,0.14-3.48-0.44c-5.79-3.21-11.65-6.28-17.71-8.96
			c-1.68-0.74-2.57-2.32-3.57-3.76c-2.92-4.2-5.98-8.3-9.39-12.14c-1.62-1.83-2.85-2.48-4.92-0.69c-2.21,1.92-0.74,3.27,0.42,4.73
			c1.08,1.37,2.45,2.5,3.42,3.97c0.68,1.03,1.7,2.13,1.03,3.39c-0.63,1.17-2.05,0.76-3.09,0.61c-9.58-1.39-19.2-0.59-28.8-0.7
			c-10.38-0.12-15.64,3.88-17.93,13.88c-3.16,13.82-8.63,26.57-16.93,38.07c-3.34,4.63-5.55,9.73-7.11,15.18
			c-1.83,6.39-4.7,8.67-11.38,8.54c-8.47-0.16-16.98,0.87-25.41-0.81c-6.12-1.22-10.28-4.85-12.92-10.36
			c-0.89-1.85-1.42-3.76-0.36-5.74c6.93-7.83,13.8-15.72,19.58-24.48c0.97,0.52,1.26,1.5,1.63,2.42c3.04,7.62,7.58,14.3,12.8,20.56
			c1.21,1.46,2.25,2.71,4.24,0.93c1.82-1.63,2.13-2.91,0.36-4.96c-5.93-6.86-10.35-14.64-13.32-23.23
			c-0.45-1.31-0.92-2.59-0.45-3.99c14.49-26.85,34.37-47.97,63.47-59.06c7.98-3.04,16.32-4.65,24.79-6.18
			c12.67-2.3,25.31-0.97,37.93-1.92c10.69-0.81,21.37-1.76,32.06-2.55c0.73,0.63,1.66,0.13,2.5,0.46
			C367.38,319.33,366.78,319.56,366.56,319.04z"/>
		<path class="st27" d="M353.25,392.64c13.52,5.54,26.92,11.33,38.99,19.72c2.26,1.57,4.57,3.05,7.22,3.9
			c2.03,0.65,4.08,1.16,6.23,1.14c1.89-0.02,3.74,0.21,5.26,1.51c-0.41,0.83-1.12,1.36-1.92,1.71
			c-10.79,4.59-19.71,12.21-29.55,18.33c-2.97,1.85-5.86,3.83-8.98,5.41c-1.18,0.6-2.54,1.53-3.82,0.49
			c-1.08-0.87-0.78-2.29-0.6-3.53c0.52-3.46,0.4-6.97,0.99-10.43c0.35-2.08,0.17-4.07-2.8-4.16c-2.86-0.09-3.28,1.62-3.21,3.87
			c0.16,4.89-0.8,9.69-1.21,14.53c-0.31,3.71-2.06,6.01-5.6,7.07c-1.07,0.32-2.09,0.84-3.15,1.19c-3.71,1.24-4.78,0.37-4.42-3.61
			c0.1-1.12,0.28-2.23,0.24-3.36c-0.06-1.72,0.25-3.68-2.35-3.88c-2.36-0.18-2.92,1.33-3.22,3.23c-0.42,2.59-0.81,5.18-1.48,7.72
			c-0.67,2.54-2.15,4.19-4.69,4.83c-13.44,3.39-27.08,4.27-40.87,3.31c-0.24-0.02-0.47-0.17-0.69-0.27
			c-1.51-2.01,0.34-3.3,1.24-4.53c5.38-7.39,8.48-15.81,11.45-24.32c2.51-7.19,1.66-14.02-2.32-20.46
			c-2.66-4.31-4.35-8.9-5.23-13.92c-2.21-12.62-9.62-21.09-21.38-25.9c-0.81-0.33-1.65-0.58-2.26-1.28
			c-0.14-0.41-0.09-0.79,0.16-1.14c0.65-0.65,1.45-1.08,2.34-0.99c8.68,0.87,17.46-0.62,26.11,1c9.13,1.71,17.91,4.44,25.83,9.43
			c6.55,4.13,13.5,7.52,20.41,10.96C351.2,390.85,352.49,391.39,353.25,392.64z"/>
		<path class="st28" d="M353.25,392.64c-9.03-3.62-17.38-8.52-25.78-13.37c-9.6-5.54-20.01-8.73-31.13-9.1
			c-7.05-0.23-14.11-0.02-21.17-0.01c-0.88,0.86-2.01,0.87-3.14,0.99c-4.86,0.52-6.59,1.96-7.85,7.06
			c-2.47,9.99-5.91,19.6-10.7,28.72c-2.27,4.32-4.85,8.45-7.62,12.46c-4.91,7.11-7.5,14.88-7.15,23.59
			c0.08,1.93,0.56,4.03-0.92,5.75c-1.27,0.09-2.54,0.19-3.81,0.28c-1.56,0.42-3.13,0.29-4.7,0.07c-12.01-0.37-24.01-0.24-36.02-0.07
			c-0.67,0.21-1.34,0.33-2-0.05c-6.79-2.12-11.37-6.35-12.9-13.49c-0.17-0.29-0.27-0.59-0.27-0.93c0.3-1.44,0.31-2.88-0.01-4.32
			c0.01-0.33,0.11-0.64,0.28-0.93c0.47-2.95,1.56-5.59,3.81-7.65c0.78,9.37,7.92,15.68,18.39,15.94c7.24,0.18,14.5,0.09,21.74,0.02
			c4.77-0.05,7.43-2.38,8.75-7.08c1.52-5.41,3.43-10.64,6.84-15.26c8.85-12.01,14.52-25.45,17.79-39.98
			c1.97-8.77,8.01-13.38,16.88-13.39c7.75-0.01,15.5,0.07,23.24-0.04c3.32-0.05,6.5,1.31,9.93,0.82c-1.19-3.53-4.38-5.43-6.35-8.27
			c-1.22-1.76-1.46-2.64,0.47-3.74c0.85-0.48,1.64-1.15,2.31-1.87c1.33-1.44,2.33-0.96,3.35,0.34c3.83,4.89,8.16,9.42,11.26,14.84
			c1.32,2.32,3.56,2.89,5.66,3.93c5.8,2.87,11.51,5.9,17.88,9.18c-1.01-4.79-3.81-7.91-6.09-11.29c-0.48-0.72-1.21-1.27-1.73-1.96
			c-2.54-3.38-1.88-6.01,1.8-8.11c1.48-0.84,2.16,0.15,2.79,0.96c4.2,5.4,8.63,10.64,11.01,17.23c1.48,4.11,2.37,4.55,6.34,2.67
			c5.12-2.43,8.93-6.38,11.4-11.45c4.03-8.3,7.84-16.71,11.83-25.03c1.13-2.36,2.53-4.58,3.79-6.87c0.46-0.83,0.91-1.65,1.86-0.46
			c0.02,2.23-1.09,4.06-2.16,5.88c-6.21,10.53-11.66,21.43-16.4,32.69C361.62,378.81,357.55,385.78,353.25,392.64z"/>
		<path class="st26" d="M293.26,460.89c13.19,0.22,26.33,0.05,39.31-2.92c3.63-0.83,6.29-1.89,6.61-6.12
			c0.2-2.58,1.22-5.12,1.23-7.68c0-3.66,2.46-2.58,4.38-2.8c2.39-0.27,3.51,0.61,3.24,3.13c-0.23,2.09,0.18,4.19-0.51,6.3
			c-0.61,1.85-0.09,3.07,2.23,2.07c0.11-0.05,0.22-0.11,0.34-0.16c8.7-3.21,8.47-3.23,9.28-12.66c0.34-3.97,0.65-7.92,0.63-11.89
			c-0.02-3.76,2.78-2.3,4.58-2.49c1.85-0.2,3.96-0.42,3.69,2.61c-0.39,4.32-0.66,8.65-1.12,12.96c-0.12,1.1-0.59,2.15-0.04,3.41
			c3.44-0.9,6.24-3.02,9.12-4.89c7.62-4.94,15.16-10,22.67-15.12c3.74-2.55,7.88-4.19,12.07-5.75c6.37,4.33,6.36,13.17-0.51,15.93
			c-10.7,4.3-19.61,11.35-29.07,17.56c-11.74,7.72-24.04,14.18-37.49,18.36c-11.12,3.46-22.44,5.76-34.13,5.9
			c-4.75-0.67-9.5-0.65-14.25-0.01c-4.17,0.29-8.22-0.46-12.25-1.37c0.15-0.33,0.43-0.44,0.77-0.46c-0.69-0.08-1.39-0.19-2.01,0.28
			c-3.55-0.27-7.07-0.68-10.53-1.56c0.1-1.56,1.46-1.59,2.44-1.79c6.03-1.21,11.03-4.33,15.64-8.22
			C290.89,462.77,291.33,460.77,293.26,460.89z"/>
		<path class="st29" d="M290.16,463.86c-3.96,4.34-8.94,6.86-14.55,8.36c-1.38,0.37-2.98,0.17-4.12,1.32
			c-4.25-0.76-8.64-0.42-12.82-1.87c-11.15-3.87-17.77-11.79-20.88-22.94c-1.39-12.4,2.17-23.23,9.41-33.37
			c7.76-10.87,12.47-23.26,15.64-36.23c1.98-8.09,4.19-9.62,12.32-8.98c0.09,0.19,0.17,0.39,0.24,0.59
			c-0.9,7.52-3.58,14.5-6.67,21.33c-3.25,7.19-7.39,13.86-11.72,20.45c-6.78,10.31-8.53,21.62-4.31,33.27
			c4.5,12.42,18.6,20.09,31.65,18.07C286.25,463.57,288.23,462.55,290.16,463.86z"/>
		<path d="M165.87,316.4c1-8.27,4.88-14.34,13.18-16.83c9.61-2.88,19.59,2.93,22.04,12.69c2.49,9.9-3.75,19.82-13.7,21.8
			c-9.79,1.95-19.39-4.7-20.99-14.51c-0.16-0.98-0.35-1.95-0.53-2.93L165.87,316.4z"/>
		<path class="st30" d="M207.02,388.9c3.3,10.4,8.2,19.93,15.67,27.98c1.23,1.33,1.28,2.1-0.05,3.29c-4.41,3.97-3.18,5.31-7.97-0.54
			c-5.57-6.81-10.32-13.98-12.92-22.45C203.29,394.27,204.93,391.45,207.02,388.9z"/>
		<path class="st31" d="M229.48,448.85c1.5,0.05,3,0.11,4.5,0.16c-0.8,0.82-1.85,0.64-2.83,0.64c-12.37,0.02-24.74,0.03-37.11,0.03
			c-0.98,0-2.03,0.17-2.8-0.71c0.5-0.04,1-0.07,1.5-0.11c4.93-0.75,9.89-0.32,14.82-0.3C214.88,448.6,222.19,448.13,229.48,448.85z"
			/>
		<path class="st32" d="M295.5,476.64c4.75-1.2,9.5-1.22,14.25,0.01C305,477.11,300.25,477.1,295.5,476.64z"/>
		<path class="st33" d="M177.77,435.34c-1.59-1.81-0.49-3.92-0.62-5.89c0-0.05,0.19-0.16,0.28-0.16c0.11,0,0.23,0.09,0.34,0.15
			C178.77,431.41,178.77,433.37,177.77,435.34z"/>
		<path class="st34" d="M165.87,316.4l0,0.23c-0.12,0.83-0.24,1.66-0.37,2.49c-0.11-0.01-0.22-0.02-0.33-0.03c0-1.71,0-3.42,0-5.13
			c0.11-0.01,0.22-0.02,0.33-0.02C165.63,314.75,165.75,315.58,165.87,316.4z"/>
		<path class="st35" d="M180.73,335.34c2.28-0.58,3.74-0.48,6.03-0.13C184.48,335.8,183.02,335.71,180.73,335.34z"/>
		<path class="st36" d="M177.77,435.34c0-1.97,0-3.93,0-5.9c0.2-0.05,0.39-0.1,0.59-0.14c0.08,0.3,0.17,0.6,0.25,0.89
			c0.4,1.46,0.38,2.92,0.01,4.38c-0.09,0.3-0.18,0.6-0.27,0.9C178.16,435.44,177.97,435.39,177.77,435.34z"/>
		<path class="st37" d="M366.56,319.04c0.57,0.09,1.13,0.18,2.39,0.37c-1.75,0.59-2.76,0.77-3.68-0.22
			C365.7,319.14,366.13,319.09,366.56,319.04z"/>
		<path class="st38" d="M282.01,475.1c0.84-0.94,1.86-0.81,2.99-0.48c-0.41,0.85-1.23,0.37-1.76,0.65
			C282.84,475.21,282.43,475.15,282.01,475.1z"/>
		<path class="st39" d="M411.92,538.19c0.47-1.35,1.4-2.13,2.84-2.29c1.49-0.01,2.96,0.5,4.45,0.14c3.08,1.35,3.43,3.95,2.95,6.8
			c-0.39,2.32-2.02,3.69-4.22,4.14c-2.64,0.54-4.89-0.15-6.07-2.88C411.79,542.13,411.71,540.16,411.92,538.19z"/>
		<path class="st40" d="M411.92,538.19c0.91,1.98,0.98,3.95-0.05,5.91C410.69,542.12,410.81,540.15,411.92,538.19z"/>
		<path class="st19" d="M419.2,536.04c-1.51,0.9-3,1.04-4.45-0.14C416.27,534.88,417.74,535.29,419.2,536.04z"/>
		<path class="st41" d="M246.29,543.6c1.25,0.09,3.14-0.07,3.08,2.04c-0.06,1.97-1.94,1.5-3.22,1.59c-1.42,0.11-2.94,0.12-2.84-1.93
			C243.38,543.53,244.78,543.6,246.29,543.6z"/>
		<path class="st42" d="M245.65,538.78c-1.17,0-2.31-0.09-2.39-1.63c-0.08-1.68,0.96-2.09,2.4-1.99c1.26,0.09,2.68,0.11,2.67,1.81
			C248.32,538.67,246.9,538.71,245.65,538.78z"/>
		<path class="st39" d="M274.51,543.39c-0.91,3.33-3.46,4.12-6.34,3.59c-2.91-0.53-4.29-2.66-4.31-5.67c-0.03-3,1.23-5.14,4.18-5.77
			c2.9-0.62,5.42,0.07,6.42,3.37C274.44,540.4,274.31,541.9,274.51,543.39z"/>
		<path class="st19" d="M274.51,543.39c-1.16-1.48-1.12-2.98-0.06-4.49C275.39,540.39,275.31,541.89,274.51,543.39z"/>
		<path class="st43" d="M354.32,540.52c-2.07,0.34-2.81-0.64-2.8-2.69c0.01-1.77,0.38-2.89,2.45-2.71c1.76,0.15,3.64,0.15,3.76,2.57
			C357.83,539.97,356.39,540.64,354.32,540.52z"/>
		<path class="st44" d="M221.83,535.8c2.04-1.24,4.12-1.21,5.4,0.82c1.48,2.34-0.52,3.96-4.49,3.73
			C221.68,538.99,222.19,537.31,221.83,535.8z"/>
		<path class="st45" d="M221.83,535.8c1.59,1.26,0.66,3.02,0.92,4.55C220.36,539.25,221.42,537.46,221.83,535.8z"/>
		<path class="st39" d="M328.38,541.39c0-0.74-0.07-1.5,0.02-2.23c0.16-1.37-0.71-3.25,1.33-3.79c1.76-0.46,3.45,0.09,4.8,1.39
			c2.21,2.12,2.27,6.57,0.17,8.84c-1.42,1.54-3.3,1.93-5.12,1.47c-2.06-0.52-0.95-2.48-1.17-3.81
			C328.3,542.64,328.38,542.01,328.38,541.39z"/>
		<path class="st46" d="M201.44,540.35c0.55,1.25,1.07,2.43,1.6,3.66c-1.24,0.39-2.77,0.82-3.22-0.15
			C199.26,542.64,200.3,541.38,201.44,540.35z"/>
		<path class="st47" d="M377.24,539.98c0.8,1.61,2.09,2.65,1.14,4.03c-0.44,0.64-1.78,0.75-2.33-0.02
			C375.05,542.61,376.14,541.52,377.24,539.98z"/>
		<path class="st8" d="M246.64,265.94c-0.99-0.78-0.96-1.57-0.03-2.37c1.38-0.5,2.77-0.38,4.16-0.06c1.19,0.86,0.81,1.67-0.09,2.46
			C249.33,266.38,247.99,266.45,246.64,265.94z"/>
		<path class="st24" d="M248.74,258.63c-1.45,0.06-2.35-0.21-2.2-1.61c0.12-1.16,0.98-1.33,1.91-1.21c0.95,0.12,2.17,0.01,2.16,1.46
			C250.61,258.77,249.32,258.46,248.74,258.63z"/>
		<path class="st48" d="M246.64,265.94c1.35,0.01,2.69,0.02,4.04,0.03C249.33,266.69,247.98,266.82,246.64,265.94z"/>
		<path class="st48" d="M250.77,263.52c-1.39,0.02-2.77,0.04-4.16,0.06C247.99,262.74,249.38,262.8,250.77,263.52z"/>
		<path class="st49" d="M340.11,259.69c0.39,1.66,2.02,2.63,0.59,3.92c-0.36,0.32-1.8,0.18-1.99-0.17
			C338.01,262.18,339.05,261.27,340.11,259.69z"/>
		<path class="st50" d="M304.12,259.87c0.47,1.4,2.07,2.34,0.82,3.75c-0.3,0.34-1.85,0.23-2.05-0.12
			C302.06,262.08,303.18,261.1,304.12,259.87z"/>
		<path class="st50" d="M268.1,259.87c0.51,1.4,2.07,2.33,0.86,3.75c-0.29,0.34-1.84,0.25-2.05-0.1
			C266.04,262.1,267.19,261.12,268.1,259.87z"/>
		<path class="st51" d="M290.16,463.86c-10.44,2.8-20.19,1.35-28.9-5.14c-7.15-5.33-10.96-12.54-11.55-21.55
			c-0.69-10.54,2.33-19.82,8.42-28.33c7.84-10.95,12.95-23.19,16.32-36.17c0.19-0.73,0.25-1.47,0.97-1.92
			c13.97,4.18,21.86,13.77,24.45,27.87c0.83,4.5,2.26,8.66,4.7,12.51c4.59,7.23,5.28,14.78,2.37,22.88
			c-3.44,9.56-7.57,18.71-13.67,26.88C292.23,461.88,291.19,462.87,290.16,463.86z"/>
		<path class="st52" d="M229.48,448.85c-12.24,0.39-24.48,0.45-36.73,0.01c0.63-0.79,1.52-0.72,2.38-0.72c10.65,0,21.31,0,31.96,0
			C227.96,448.14,228.85,448.07,229.48,448.85z"/>
		<path class="st53" d="M178.62,434.58c0-1.46-0.01-2.92-0.01-4.38C179.61,431.65,179.59,433.11,178.62,434.58z"/>
		<path class="st54" d="M270.5,369.01c1.02-0.47,1.72-0.47,2.61-0.06C272.29,369.51,271.57,369.47,270.5,369.01z"/>
		<path class="st55" d="M178.56,323.64c-0.49-1.88,1.22-2.52,2.09-3.59c1.4-1.71,3.01-3.24,4.38-4.97c0.98-1.24,1.43-2.87-0.16-3.86
			c-1.47-0.91-2.96-0.4-3.82,1.27c-1.7,0.49-2.43-0.02-1.89-1.83c2.57-2.81,6.15-3.34,8.47-1.25c2,1.79,1.92,4.83-0.36,7.76
			c-1.22,1.56-2.66,2.96-4.56,5.03c2.14,0,3.78-0.04,5.4,0.01c1.93,0.06,1.9,0.97,0.89,2.24c-1.88-1.18-3.86-0.36-5.78-0.24
			C181.62,324.31,180.02,324.66,178.56,323.64z"/>
		<path class="st56" d="M178.56,323.64c2.49,0.4,4.82-0.82,7.28-0.73c1.25,0.05,2.87-0.52,3.18,1.53c-3.12,0.72-6.29,0.15-9.44,0.3
			C178.85,324.79,178.47,324.41,178.56,323.64z"/>
		<path class="st57" d="M179.17,310.65c0.09,1.16,0.74,1.75,1.89,1.83c-0.49,1.75-1.96,1.23-2.59,0.63
			C177.78,312.45,178.3,311.32,179.17,310.65z"/>
	</g>
</g>
</svg>
